<?xml version="1.0" encoding="UTF-8"?>
<svg id="Layer_2" data-name="Layer 2" xmlns="http://www.w3.org/2000/svg" xmlns:xlink="http://www.w3.org/1999/xlink" viewBox="0 0 294.26 373.86">
  <defs>
    <style>
      .cls-1 {
        fill: url(#linear-gradient);
      }
    </style>
    <linearGradient id="linear-gradient" x1="0" y1="186.93" x2="294.26" y2="186.93" gradientUnits="userSpaceOnUse">
      <stop offset="0" stop-color="#60c9b6"/>
      <stop offset=".02" stop-color="#60c9b6"/>
      <stop offset=".02" stop-color="#60c9b6"/>
      <stop offset=".03" stop-color="#60c9b7"/>
      <stop offset=".04" stop-color="#60c9b7"/>
      <stop offset=".05" stop-color="#60c9b7"/>
      <stop offset=".05" stop-color="#60c9b8"/>
      <stop offset=".06" stop-color="#60c9b8"/>
      <stop offset=".07" stop-color="#60c9b9"/>
      <stop offset=".08" stop-color="#61c9b9"/>
      <stop offset=".09" stop-color="#61c9b9"/>
      <stop offset=".09" stop-color="#61c9ba"/>
      <stop offset=".11" stop-color="#61c9ba"/>
      <stop offset=".12" stop-color="#61c9bb"/>
      <stop offset=".12" stop-color="#61c9bb"/>
      <stop offset=".13" stop-color="#61c9bc"/>
      <stop offset=".14" stop-color="#61c9bc"/>
      <stop offset=".16" stop-color="#61c9bc"/>
      <stop offset=".16" stop-color="#61cabd"/>
      <stop offset=".17" stop-color="#61cabd"/>
      <stop offset=".18" stop-color="#61cabe"/>
      <stop offset=".18" stop-color="#61cabe"/>
      <stop offset=".19" stop-color="#61cabe"/>
      <stop offset=".2" stop-color="#61cabe"/>
      <stop offset=".2" stop-color="#61cabf"/>
      <stop offset=".22" stop-color="#61cabf"/>
      <stop offset=".22" stop-color="#61cac0"/>
      <stop offset=".23" stop-color="#61cac0"/>
      <stop offset=".23" stop-color="#61cac0"/>
      <stop offset=".24" stop-color="#61cac0"/>
      <stop offset=".25" stop-color="#61cac1"/>
      <stop offset=".26" stop-color="#61cac1"/>
      <stop offset=".26" stop-color="#62cac1"/>
      <stop offset=".27" stop-color="#62cac2"/>
      <stop offset=".27" stop-color="#62cac2"/>
      <stop offset=".28" stop-color="#62cac2"/>
      <stop offset=".3" stop-color="#62cac3"/>
      <stop offset=".31" stop-color="#62cac3"/>
      <stop offset=".33" stop-color="#62cac4"/>
      <stop offset=".34" stop-color="#62cac4"/>
      <stop offset=".34" stop-color="#62cac5"/>
      <stop offset=".35" stop-color="#62cac5"/>
      <stop offset=".36" stop-color="#62cac6"/>
      <stop offset=".38" stop-color="#62cac6"/>
      <stop offset=".38" stop-color="#62cac7"/>
      <stop offset=".39" stop-color="#62cac7"/>
      <stop offset=".41" stop-color="#62cac7"/>
      <stop offset=".41" stop-color="#63cbc7"/>
      <stop offset=".42" stop-color="#63cbc8"/>
      <stop offset=".43" stop-color="#63cbc8"/>
      <stop offset=".43" stop-color="#61cac7"/>
      <stop offset=".44" stop-color="#60cac7"/>
      <stop offset=".44" stop-color="#60c9c6"/>
      <stop offset=".45" stop-color="#5fc9c5"/>
      <stop offset=".45" stop-color="#5ec9c5"/>
      <stop offset=".45" stop-color="#5dc9c4"/>
      <stop offset=".46" stop-color="#5cc8c4"/>
      <stop offset=".46" stop-color="#5bc8c4"/>
      <stop offset=".46" stop-color="#5ac8c3"/>
      <stop offset=".47" stop-color="#5ac7c2"/>
      <stop offset=".47" stop-color="#59c7c2"/>
      <stop offset=".48" stop-color="#58c7c1"/>
      <stop offset=".48" stop-color="#57c6c1"/>
      <stop offset=".48" stop-color="#56c6c0"/>
      <stop offset=".49" stop-color="#55c6bf"/>
      <stop offset=".49" stop-color="#53c5bf"/>
      <stop offset=".5" stop-color="#53c5be"/>
      <stop offset=".5" stop-color="#52c5be"/>
      <stop offset=".5" stop-color="#51c4bd"/>
      <stop offset=".51" stop-color="#50c4bc"/>
      <stop offset=".51" stop-color="#4fc4bb"/>
      <stop offset=".52" stop-color="#4ec3bb"/>
      <stop offset=".52" stop-color="#4dc3ba"/>
      <stop offset=".52" stop-color="#4dc3ba"/>
      <stop offset=".53" stop-color="#4cc3b9"/>
      <stop offset=".53" stop-color="#4bc2b8"/>
      <stop offset=".54" stop-color="#4ac1b7"/>
      <stop offset=".54" stop-color="#49c1b7"/>
      <stop offset=".54" stop-color="#48c0b6"/>
      <stop offset=".55" stop-color="#47beb5"/>
      <stop offset=".55" stop-color="#47bdb3"/>
      <stop offset=".55" stop-color="#46bdb2"/>
      <stop offset=".56" stop-color="#46bbb1"/>
      <stop offset=".56" stop-color="#45bab0"/>
      <stop offset=".57" stop-color="#44b9b0"/>
      <stop offset=".57" stop-color="#44b8af"/>
      <stop offset=".57" stop-color="#43b7ae"/>
      <stop offset=".58" stop-color="#43b6ad"/>
      <stop offset=".58" stop-color="#43b5ac"/>
      <stop offset=".59" stop-color="#42b4ab"/>
      <stop offset=".59" stop-color="#42b2aa"/>
      <stop offset=".59" stop-color="#41b1a9"/>
      <stop offset=".6" stop-color="#41b0a8"/>
      <stop offset=".6" stop-color="#41afa7"/>
      <stop offset=".61" stop-color="#40aea6"/>
      <stop offset=".61" stop-color="#40aca6"/>
      <stop offset=".61" stop-color="#3faba5"/>
      <stop offset=".62" stop-color="#3faaa4"/>
      <stop offset=".62" stop-color="#3ea9a2"/>
      <stop offset=".62" stop-color="#3ea7a1"/>
      <stop offset=".63" stop-color="#3da6a0"/>
      <stop offset=".63" stop-color="#3da59f"/>
      <stop offset=".64" stop-color="#3da49e"/>
      <stop offset=".64" stop-color="#3da49d"/>
      <stop offset=".64" stop-color="#3ca29c"/>
      <stop offset=".65" stop-color="#3ca19b"/>
      <stop offset=".65" stop-color="#3ba09a"/>
      <stop offset=".66" stop-color="#3a9f99"/>
      <stop offset=".66" stop-color="#3a9d98"/>
      <stop offset=".66" stop-color="#399c97"/>
      <stop offset=".67" stop-color="#399b96"/>
      <stop offset=".67" stop-color="#399a95"/>
      <stop offset=".68" stop-color="#389994"/>
      <stop offset=".68" stop-color="#379893"/>
      <stop offset=".68" stop-color="#379792"/>
      <stop offset=".69" stop-color="#379590"/>
      <stop offset=".69" stop-color="#36948f"/>
      <stop offset=".7" stop-color="#36948e"/>
      <stop offset=".7" stop-color="#36938e"/>
      <stop offset=".7" stop-color="#35918d"/>
      <stop offset=".71" stop-color="#35908c"/>
      <stop offset=".71" stop-color="#348f8b"/>
      <stop offset=".71" stop-color="#348e89"/>
      <stop offset=".72" stop-color="#348d88"/>
      <stop offset=".72" stop-color="#338b87"/>
      <stop offset=".73" stop-color="#338a86"/>
      <stop offset=".73" stop-color="#338985"/>
      <stop offset=".73" stop-color="#328783"/>
      <stop offset=".74" stop-color="#328682"/>
      <stop offset=".74" stop-color="#318581"/>
      <stop offset=".75" stop-color="#318480"/>
      <stop offset=".75" stop-color="#30837f"/>
      <stop offset=".75" stop-color="#30827e"/>
      <stop offset=".76" stop-color="#2f817d"/>
      <stop offset=".76" stop-color="#2f807c"/>
      <stop offset=".77" stop-color="#2e7e7b"/>
      <stop offset=".77" stop-color="#2e7d79"/>
      <stop offset=".77" stop-color="#2d7c78"/>
      <stop offset=".78" stop-color="#2d7b77"/>
      <stop offset=".78" stop-color="#2d7a76"/>
      <stop offset=".79" stop-color="#2d7875"/>
      <stop offset=".79" stop-color="#2c7774"/>
      <stop offset=".79" stop-color="#2c7673"/>
      <stop offset=".8" stop-color="#2b7571"/>
      <stop offset=".8" stop-color="#2b7470"/>
      <stop offset=".8" stop-color="#2b726f"/>
      <stop offset=".81" stop-color="#2a716e"/>
      <stop offset=".81" stop-color="#2a706c"/>
      <stop offset=".82" stop-color="#296f6b"/>
      <stop offset=".82" stop-color="#296e6a"/>
      <stop offset=".82" stop-color="#286c69"/>
      <stop offset=".83" stop-color="#286b68"/>
      <stop offset=".83" stop-color="#286a67"/>
      <stop offset=".84" stop-color="#286966"/>
      <stop offset=".84" stop-color="#276864"/>
      <stop offset=".84" stop-color="#276763"/>
      <stop offset=".85" stop-color="#276662"/>
      <stop offset=".85" stop-color="#266561"/>
      <stop offset=".86" stop-color="#266360"/>
      <stop offset=".86" stop-color="#25625f"/>
      <stop offset=".86" stop-color="#25615e"/>
      <stop offset=".87" stop-color="#25605c"/>
      <stop offset=".87" stop-color="#245f5b"/>
      <stop offset=".88" stop-color="#245e5a"/>
      <stop offset=".88" stop-color="#245d59"/>
      <stop offset=".88" stop-color="#235b58"/>
      <stop offset=".89" stop-color="#235a56"/>
      <stop offset=".89" stop-color="#225955"/>
      <stop offset=".89" stop-color="#225854"/>
      <stop offset=".9" stop-color="#225753"/>
      <stop offset=".9" stop-color="#225652"/>
      <stop offset=".91" stop-color="#225551"/>
      <stop offset=".91" stop-color="#215450"/>
      <stop offset=".91" stop-color="#21534f"/>
      <stop offset=".92" stop-color="#21524d"/>
      <stop offset=".92" stop-color="#20514c"/>
      <stop offset=".93" stop-color="#204f4b"/>
      <stop offset=".93" stop-color="#1f4e4a"/>
      <stop offset=".93" stop-color="#1f4d49"/>
      <stop offset=".94" stop-color="#1f4c48"/>
      <stop offset=".94" stop-color="#1f4b47"/>
      <stop offset=".95" stop-color="#1e4a46"/>
      <stop offset=".95" stop-color="#1e4944"/>
      <stop offset=".95" stop-color="#1e4843"/>
      <stop offset=".96" stop-color="#1e4742"/>
      <stop offset=".96" stop-color="#1e4641"/>
      <stop offset=".96" stop-color="#1d4540"/>
      <stop offset=".97" stop-color="#1d433f"/>
      <stop offset=".97" stop-color="#1d423d"/>
      <stop offset=".98" stop-color="#1c413c"/>
      <stop offset=".98" stop-color="#1c403b"/>
      <stop offset=".98" stop-color="#1c3f3a"/>
      <stop offset=".99" stop-color="#1c3e39"/>
      <stop offset=".99" stop-color="#1b3d38"/>
      <stop offset="1" stop-color="#1b3c37"/>
      <stop offset="1" stop-color="#1b3b36"/>
    </linearGradient>
  </defs>
  <g id="Elements_2" data-name="Elements 2">
    <path class="cls-1" d="M257.64,345.39c-3.56-1.78-4.85-3.64-7.27-6.66-2.43-3.03-3.94-8.78-8.18-7.57-4.24,1.21-7.27,2.12-9.39-.91-2.12-3.03-1.21-5.45-5.75-7.27-4.54-1.82-7.87-1.82-9.99,0-2.12,1.82-5.45,3.64-7.57,4.85-2.12,1.21-3.33,3.03-6.06-1.21-2.73-4.24-4.85-6.36-8.18-6.66-3.33-.3-6.36.91-8.48,2.42-2.12,1.52-3.94,3.33-7.57-.61-3.64-3.94,0-9.99-4.24-9.99s-9.39-1.52-9.99-5.45c-.61-3.94,3.03-4.85,5.75-9.08,2.73-4.24,11.51-15.45,15.15-17.57,3.63-2.12,5.45-9.39,3.63-12.42-1.82-3.03-4.24-7.27-2.73-11.21,1.52-3.94-.61-7.27-4.24-8.48-3.64-1.21-9.09-8.17-10.9-12.11-1.82-3.94-11.24-14.84-7.87-20.6,2.12-3.63,2.72-6.96,1.82-9.99-.91-3.03-.91-4.24,2.12-5.15,3.03-.91,6.66-.61,9.99-.91,3.33-.31,7.57-1.82,9.09-3.94,1.52-2.12,2.12-4.85,4.54-1.52,2.42,3.33,5.45,11.21,5.15,14.23-.3,3.03-4.24,8.78-5.75,11.81-1.51,3.03-.91,12.12.91,13.03,1.82.91,3.94,5.15,6.06,5.75,2.12.61.61,3.03-.3,4.24-.91,1.21-3.03,1.21-3.03-.3s-1.51-2.72-3.03-4.24c-1.51-1.52-2.73-.61-1.51,1.52,1.21,2.12.3,3.63,1.51,5.75,1.21,2.12,5.15,3.33,6.97,2.42,1.82-.91,3.33-3.03,5.48-6.66,1.37-2.31-.32-4.14-2.87-4.54-2.54-.4-5.13-2.42-4.76-6.81.36-4.39.73-8.54,1.59-10.87.87-2.33,1.48-2.75,3.74-.98,4.33,3.37,4.34,6.24,8.76,10.93,3.94,4.17,6.21,7.97,9.94,11.53,3.73,3.56,5.25,10.24,6.84,13.77,1.15,2.56,2.8,5.5,6.09,2.06,3.29-3.44,8.61-3.49,13.66-3.6,5.05-.12,7.61-1.22,7.51-5.42-.09-4.21,1.57-6.28,3.98-9.91.77-1.15,1.02-2.12.83-4.73-.38-5.03,4.56-7.19,1.52-11.57-1.95-2.82-2.99-4.6-5-8.4-1.85-3.51-2.67-6.38-8.28-7.64-3.86-.87-7.67-3.94-10.34-7.87-1.56-2.3-2.94-2.4-3.47-2.22-5.72,1.99-6.52.6-7.5,6.69-.53,3.34-.68,7.03-2.6,9.04-1.92,2.01-1.63,2.28,1.24,5.02,2.87,2.74,1.58,6.04,3.38,11.07,1.03,2.86,3.25,4.05,4.69.99,2.87-6.07,5.3-8.41,5.2-12.89-.03-1.37-.71-1.22-2.06-.09-1.35,1.13-2.11,3.62-3.34,4.06-1.23.44-2.34-.5-3.35-2.53-1.01-2.04-2.16-4.21-1.65-6.42.5-2.21,1.41-4.29,4.16-4.21,2.75.07,4.68.44,6.2.96,1.53.51,1.96,1.46,3.49,2.53,1.54,1.06,7.41,5.6,8.54,6.95,1.13,1.35,1.57,2.71.92,4.1-.66,1.39-2.69,8.3-3.05,10.65-.36,2.34-.78,7.98-1.29,9.92-.51,1.94-2.24,4.17-4.14,5.18-1.9,1-5.62.54-8.27-1.46-2.65-2-6.41-4.11-8.11-6.41-1.7-2.3-2.88-5.7-5.42-8.67-2.54-2.97-5.21-5.51-7.07-9.04-1.87-3.53-1.78-5.87-2.26-8.74-.48-2.87-4.02-15.9-3.74-19.32.11-1.36-1.02-3.18-2.84-4.7-1.82-1.51-2.12-3.33,0-3.03,2.12.3,12.01-6.01,19.99-4.24,3.63.81,6.06,2.83,7.67,4.04,1.62,1.21,4.85-1.61,6.06-4.04,1.21-2.42,4.44-5.65,5.25-3.64.81,2.02,2.02,4.04,5.25,3.64,4.33-.54,10.9,2.73,13.63,2.12,2.72-.6,2.72-2.72,3.14-6.41.21-1.82-.6-3.22-.04-5.66.56-2.44,1.76-4.41,2.82-6.62,1.06-2.21,1.22-4.46,1.89-6.13.66-1.67,2.59-3.55,3.88-5.19,1.29-1.64,3.46-2.52,4.78-2.22,1.31.3,2.73,1.37,3.35,2.46.62,1.09,1.78,4.44,2.38,5.8.6,1.36,2.95,5.22,3.57,5.96.62.73.57,1.63.11,2.63-.47,1-3.29,4.7-4.05,5.59-.76.89-.86,1.54-1.71,2.1-.84.56-1.95,1.09-3.6,1.58-1.65.49-2.54-.62-3.2-1.88-.66-1.26-.31-2.76-.03-4.16.28-1.4.81-2.15,1.62-2.08.81.07,1.68,1.45,2.68,1.92,1,.47,1.44.45,1.23-.39-.66-2.74-2.51-3.76-5.23-6.97-1.37-1.62-2.52-.54-2.68,1.36-.28,3.34,1.03,5.13-.26,7.25-1.29,2.12-1.42,2.34.06,3.24,1.48.91,2.17,3.12,3.03,5.05,1.57,3.54,1.84,2.56,5.62,2.85.35.02,1.17-.26,1.74-1.91.98-2.82,2.79-5.29,5-6.44,3.19-1.67,3.22-3.54,3.78-5.96.6-2.63.94-3.87,1.67-5.9,1.13-3.15-2.21-3.65-2.79-6.77-.3-1.61-.61-2.16-1.26-2.73-2.05-1.81-3.39-2.8-4.01-5.36-.62-2.56-2.35-2.82-5.43-2.07-3.08.75-6.31,1.57-8.86.02-2.55-1.55-3.07.49-3.36,2.23-.39,2.4-.24,6.69-1.92,9.45-1.68,2.76-2.44,5.43-4.16,8.59-1.93,3.56-1.84,5.04-3.54,8.04-1.07,1.88-2.16,1.75-3.78,1.35-1.61-.4-6.86-1.61-8.48-3.63-1.62-2.02-2.83-.81-4.44,0-1.62.81-6.06,2.83-9.96,2.3-1.54-.21-12.23-1.72-13.16-4.31-.93-2.6,7.61-10.56,10.3-7.87,2.42,2.42,3.63,2.42,2.93-2.25-.32-2.13-4.15-3.81-6.57-2.6-2.42,1.21-12.42,5.45-13.93,8.78-1.52,3.33-4.24,5.15-6.36,5.76-2.12.61-4.54.3-7.27,1.82-2.73,1.51-3.27-1.44.33-4.05,3.43-2.49.11-6.08-2-9.19-2.11-3.1-.51-8.07-.31-9.92.2-1.85,3.09-3.87,5.57-3.95,2.48-.08,7.41.28,9.72-4.11,2.24-4.27,1.2-7.65,1.01-12.07-.18-4.42.34-4.53,2.08-6.54,1.75-2.01,4.32-6.8,5.51-9.88,1.19-3.08,2.01-4.35,3.49-5.53,1.49-1.19,4.2-1.23,7.21-2.41,3.01-1.18,6.39-2.67,8.88-2.22,2.49.45,2.23,2.79,2.11,5.31-.12,2.53-.23,5.05-1.34,7.47-1.12,2.41-2.56,3.27-5.21,4.15-2.64.89-2.82,1.04-3.71-.08-.89-1.11.37-1.82,1.56-3.38,1.19-1.56.75-2.11-.7-1.27-1.45.85-1.78.82-3.87,1.26-2.08.45-1.67,1.34-.78,2.45.89,1.12,2.52,3.16,2.71,4.54.19,1.37,1.45,2.19,2.41,1.12.97-1.08,3.09-1.86,5.28-1.78,2.19.08,3.05-1.52,4.13-3.6,1.08-2.08,4.27-3.41,6.03-3.9,1.74-.48,2.08-1.97.85-3.12-1.22-1.15-2.11-3.79-3.11-5.43-1-1.63-1.07-5.53-.55-8.69.52-3.16-3.34-1.9-4.98-.9-1.63,1-4.72,1.33-6.69,2.3-1.97.96-5.58,1.41-7.84,2-2.27.59-5.65.55-8.54.74-2.9.19-3.13,3.71-4.21,5.79-1.08,2.08-2.94,6.61-4.43,9.32-1.49,2.71-2.26,5.62-3.61,8.06-1.26,2.28-3.42,2.54-4.86,4.42-1.44,1.89-2.2.71-2.02-2.89.19-3.6,1.49-6.94,4.29-9.17,2.8-2.23,1.14-6.03.54-8.54-.59-2.51.13-10.62-.58-12.82-.71-2.2-1.48-5.13-.75-7.47.74-2.34,4.92-5.42,6.09-7.94,1.16-2.52,1.03-3.97-.22-5.69-1.25-1.72-4.77-3.44-6.71-3.85-1.94-.41-1.53-2.35-2.48-3.95-.95-1.6.32-2.15,2.62-1.53,2.26.6,4.45.6,6.99.67,2.55.07,6.36.54,8.27.63,1.91.09,4,1.13,6.17-.41,2.17-1.54,4.56-3.42,6.5-4.48,1.94-1.06,4.76-2.9,6.7-3.67,1.93-.77,4.32-2.36,6.03-2.94,1.72-.58,5.17-2.29,3.06-3.05-2.1-.75-4.19-2.08-4.37-3.18-.18-1.09-.99-2.46-.75-3.51.24-1.06-.82-1.37-2.32-.56-1.51.81-4.52,2.13-6.43,2.04-1.91-.09-3.4-.15-4.92,1.09-1.52,1.24-3.46,2.15-4.74,2.33-1.28.18-1.73,1.15-1.11,1.71.62.55.58,2.13.55,2.99-.02.86.17,1.39,1.9.38,1.73-1.01,1.95-1.2,3.45-1.72,1.51-.52,1.52-.95-.19-.81-1.71.14-2.99.61-2.97-.25.02-.86.24-.92,2.61-2.08,2.37-1.16,3.88-1.68,5.99-1.5,2.12.18,3.59.95,5.05,1.72,1.46.78,2.93,1.4,1.4,2.93-1.53,1.52-4.76,2.9-7.56,4.17-2.8,1.27-4.76,2.76-6.47,3.19-1.71.43-2.99.46-5.53.1-2.54-.36-7-.52-9.34-.23-2.35.31-2.78.56-5.07-1.01-2.29-1.56-3.75-2.75-7.34-3.43-1.4-.27-3.3-.7-4.28-1.78-.98-1.08-1.65-2.05-2.64-4.88-.99-2.84-.44-3.81.17-5.36.84-2.11,3.7-5.16,6.53-7.49,1.74-1.43,3.89-2.59,5.79-4.22,1.9-1.64,5.18-3.88,6.65-5.09,1.47-1.21,4.23-1.98,3.89-4.31-.34-2.33-.94-5.01-.86-6.91.09-1.9-.17-4.84.26-6.56.43-1.72.18-4.23.7-5.7.52-1.46.86-4.74-1.55-3.8-2.42.95-5.53,1.55-6.99,1.03-1.47-.52-3.71-.78-4.83-1.56-1.12-.78-2.25-.26-2.33,1.21-.09,1.47-.61,4.23-2.08,5.44-1.47,1.21-2.59,2.15-2.16,3.88.43,1.73.17,3.54-.52,4.49-.69.95.17,1.81,1.29,1.73,1.12-.09,3.02.86,4.06,1.39,1.03.52,1.81.69,1.81-1.03,0-1.73-.08-1.99.35-3.28.43-1.29-.08-1.55-1.12-.35-1.04,1.21-1.38,2.33-2.42,1.81-1.04-.52-.95-.69-.69-2.94.26-2.24.7-3.54,2.42-4.83,1.73-1.29,3.71-1.81,5.7-2.33,1.99-.52,3.8-1.12,4.57.78.77,1.9.17,4.84-.27,7.42-.43,2.59,0,4.75-.7,6.13-.69,1.38-1.56,2.24-3.8,3.71-2.24,1.46-5.61,4.31-6.91,6.04-1.29,1.72-1.3,3.39-4.84,2.76-2.5-.45-4.92-.45-4.92,2.58s-1.82,5.75-3.03,8.48c-1.21,2.73-1.21,6.66.3,9.39,1.52,2.73,4.24,8.48,4.54,11.51.3,3.03,3.33,11.81,2.73,14.54-.61,2.72-.91,1.82-2.73,1.21-1.82-.6-8.48-2.42-10.29-3.63-1.82-1.21-5.15-1.82-5.15-4.55s1.21-4.85,1.21-6.96-1.82-4.85-2.88-5.45c-2.66-1.52-3.33-3.64-5.6-5.3-2.27-1.67-2.12-1.97-2.42-3.64-.3-1.66-1.67-4.84-2.73-6.66-1.06-1.82-1.36-2.73-1.36-3.94s1.06-2.57,1.67-4.54c.61-1.97,1.21-4.24,2.42-5.3,1.21-1.06,2.27,0,3.48,1.06,1.21,1.06,2.42,2.12,3.18,3.64.76,1.51.6,2.57,0,4.24-.61,1.67-.61,1.82-1.51,1.82s-.76-.91-1.06-2.12c-.3-1.21-.76-1.21-.91-.15-.15,1.06-.31,1.21-.91,2.42-.6,1.21,0,1.36.91,1.36s2.57,0,3.33.45c.75.45,1.67.15,1.51-.76-.15-.91.3-2.27,1.21-3.33.91-1.06.46-2.12-.15-3.48-.61-1.36,0-3.48.45-4.54.46-1.06-.15-1.82-1.21-1.67-1.06.15-2.73-.46-3.94-.61-1.21-.15-3.18-1.67-4.54-3.18-1.36-1.51-2.27.91-2.42,2.12-.15,1.21-1.21,2.88-1.52,4.24-.3,1.37-1.51,3.33-2.12,4.69-.6,1.36-1.97,3.03-3.03,4.54-1.06,1.52.61,3.03,1.21,4.39.6,1.36,2.12,4.09,2.88,5.91.75,1.82,1.7,3.45,2.57,5,1.36,2.42,2.88,8.78,2.27,12.11-.6,3.33-3.33,2.12-5.15.61-1.82-1.52-9.09.3-11.81.3s-7.57-1.82-8.48-3.94c-.91-2.12.3-3.03,2.12-3.94,1.82-.91,2.12-1.82,1.21-3.63-.91-1.82-2.72-.91-4.58-.47-.95.23-1.4.59-1.24,1.51.15.93-.25,2.05-1.8,2.43-1.56.38-3.04.73-3.94.7-.9-.04-1.12-.2-.77-1.18.67-1.88,1.66-2.21,2.77-4.29.99-1.84,2.04-3.07,2.84-4.76.8-1.7,2.93-3,3.97-3.95.75-.69,1.58-1.6,0-2.34-1.57-.74-2.2-2.57-2.82-4.3-.62-1.73-1.3-2.49-2.74-1.97-1.44.52-2.35.18-3.88-.24-.49-.13-.85-.11-1.73.26-1.7.71-3.02-.75-4.18.81-.75,1-1.24,1.56-2.33,2.7-1,1.04-1.89,1.66-1.69,3.74.14,1.44-.48,3.1-1.53,4.48-.62.81-.49,1.29-.37,1.45,1.35,1.75.96,2.18,3.18,1.82,1.22-.2,2.51-.57,3.42-.14.91.43.98.3,1.59-1.01.62-1.31,1.91-1.24,3.43-2.45.87-.69,1.03-1.59-.2-1.73-2.43-.29-3.52-.87-5.05-.31-.47.17-.34.39.21.72.54.34,1.49.31,1.79.69.29.37.1.87-.49,1.45-.59.58-1.2,1.23-2.03,1.31-.82.08-1.65,0-1.94-.95-.29-.96-.38-1.67-.38-2.25,0-.59.28-.84.47-1.5.19-.65,1.08-3.21,1.42-3.75.34-.55.76-.86,1.31-.79.55.07,3.18-.03,4.03-.17.85-.14,2.85-.65,3.58-.69.73-.05,1.7.29,2.27.83.56.54.83,1.88.45,3.03-.38,1.15-.68,2.69-1.28,3.54-.6.85-1.64,1.65-2.37,2.87-.73,1.22-1.31,2.44-2.31,3.49-1,1.05-1.82,1.29-2.76,1.79-.94.49-4.62,2.32-5.83,1.98-3.03-.84-10.48-2.75-10.69-4.82-.29-2.83-2.56-3.8-4.41-5.64-1.86-1.84-1.68-2.1-1.72-3.67-.05-1.57-.86-4.68-1.58-6.49-.72-1.81-.87-2.69-.71-3.8.17-1.11,1.33-2.22,2.16-3.94.83-1.72,1.7-3.72,2.95-4.53,1.26-.81,2.09.31,3.05,1.45.96,1.14,1.93,2.28,2.42,3.77.49,1.5.2,2.45-.58,3.89-.79,1.44-.81,1.58-1.64,1.46-.84-.12-.57-.94-.68-2.09-.11-1.15-.52-1.22-.81-.26-.29.95-.45,1.07-1.17,2.1-.72,1.03-.19,1.25.65,1.38.83.12,2.36.36,2.99.88.63.52,1.51.37,1.49-.49-.01-.85.59-2.04,1.57-2.89.98-.85.71-1.88.34-3.22-.37-1.34.48-3.2,1.04-4.11.56-.91.11-1.69-.88-1.69-.99,0-2.44-.8-3.53-1.1-1.09-.31-2.69-1.97-3.73-3.55-1.04-1.58-2.21.52-2.51,1.61-.31,1.09-1.51,2.47-1.98,3.68-.47,1.21-1.85,2.85-2.59,4.02-.74,1.16-2.22,2.51-3.41,3.75-1.18,1.24.13,2.86.51,4.2.37,1.33,1.38,4.04,1.82,5.81.44,1.78,1.35,3.33,1.67,4.95-2.15-1.19-5.18-1.49-6.99-3-1.82-1.52-2.72-2.73-3.33-5.75-.61-3.03-1.21-6.97-2.42-9.39-1.21-2.42-1.21-3.03.91-4.24,2.12-1.21,3.63-1.51,3.94.61.3,2.12,2.12,1.82,1.82-.31-.3-2.12,0-3.63-1.82-4.85-1.82-1.21-2.73-1.21-3.94,0-1.21,1.21-2.73,3.33-3.94,3.64-1.21.3-3.64,1.52-3.33,3.03.3,1.51,2.42,3.03,3.33,4.54.91,1.52.91,5.45,0,6.97-.91,1.51.3,3.33,1.82,3.94,1.52.61,4.85,3.03,4.85,4.85s3.33,2.42,4.85,2.12c1.51-.3,6.05.61,6.36,1.82.3,1.21,2.42,4.24,3.33,6.06.91,1.82,3.63,2.73,6.36,2.12,2.73-.6,5.45,0,3.94,1.51-1.51,1.51-2.42,3.03-1.51,4.85.91,1.82.91,3.94-.91,4.54-1.82.61-3.31,2.17-4.99,3.51-.81.64-2.47,1.91-3.31,2.87-.84.97-1.31,1.32-2,1.55-.7.24-1.69-.11-2.94-.07-1.26.04-2.68.13-3.53-.36-.85-.49-.45-1.31-.07-2.21.38-.91.75-1.81,1.48-2.54.72-.73,1.37-.85,2.44-.83,1.08.02,1.17,0,1.34.52.18.52-.37.62-1.01,1.03-.64.41-.55.67.09.55.64-.12.76-.06,1.57.05.82.11.79-.27.61-.79-.18-.52-.5-1.48-.39-2.01.12-.52-.23-.99-.73-.73-.49.26-1.37.27-2.16-.05-.79-.32-1.31.15-1.98.77-.67.62-2.01.68-2.71.63-.7-.05-1.02.44-.72,1.02.29.58.27,1.66.42,2.39.15.73-.34,2.16-.95,3.24-.61,1.08.97,1.13,1.7.98.73-.15,1.89.14,2.74.05.85-.09,2.22.22,3.12.3.9.08,2.13.54,3.21.86,1.08.32,1.63-.94,2.3-1.56.67-.62,1.8-2.23,2.84-2.81,2.73-1.51,4.85-1.82,8.18-2.42q3.33-.61,3.33-3.03c0-2.42-.61-4.54,1.21-6.06,1.82-1.51,4.85-2.12,6.36-.3,1.51,1.82,4.54,4.54,6.36,6.66,1.82,2.12,3.03,3.03,6.36,1.82,3.33-1.21,6.66-3.03,9.69-3.33,3.03-.3,7.27.3,8.48,1.51,1.21,1.21,2.73,3.33,5.45,2.73,2.73-.61,4.55,0,6.97,1.82,2.42,1.82,6.96,4.54,9.39,6.97,2.42,2.42-.3,3.63-.6,6.36-.3,2.73.91,5.45,3.63,5.75,2.73.3,4.85.91,7.87,2.73,3.03,1.82,3.64,4.54,1.52,6.97-2.12,2.42-5.76,5.45-5.45,7.87.3,2.42-3.03,6.36-1.51,9.39,1.51,3.03,0,7.57-2.73,9.08-2.73,1.52-8.78,1.82-10,4.24-1.21,2.42-3.94,6.96-2.73,9.69,1.21,2.73,4.85,10.9,3.03,13.02-1.82,2.12-5.15,4.54-7.57,5.15-2.42.61-1.21,2.12-1.21,3.94s-2.12,5.15-5.15,7.87c-3.03,2.73-7.27,6.66-9.69,9.39-2.42,2.73-4.24,1.51-6.66-.3-2.42-1.82-5.75-6.66-6.96-9.09-1.21-2.42-1.52-1.78-4.24-2.12-2.42-.3-2.73,0-2.73-1.82s.61-2.42-1.21-3.64c-1.82-1.21-3.94-.91-4.55-2.42-.6-1.51.31-3.33,2.15-4.11,1.79-.75,5.29-2.55,7.21-4,1.92-1.45,2.91-1.92,4.29-2.08,1.38-.16,3.07.86,5.39,1.28,2.32.42,4.98.8,6.35,2.04,1.37,1.24.31,2.58-.74,4.1-1.04,1.52-2.08,3.04-3.7,4.11-1.62,1.07-2.84,1.04-4.82.58-1.98-.47-2.15-.45-2.27-1.48-.13-1.03.93-.99,2.27-1.49,1.34-.51,1.28-1.02.05-1.05-1.23-.03-1.42-.18-2.88-.71-1.46-.53-1.55.19-1.42,1.22.12,1.03.35,2.93-.07,3.85-.41.93.06,1.91,1.07,1.62,1.01-.29,2.62.04,3.95.93,1.33.89,2.47.23,3.94-.65,1.46-.87,3.96-.47,5.23-.1,1.27.38,2.05-.42,1.73-1.6-.31-1.19.15-3.16.16-4.56,0-1.4,1.46-3.84,3-5.6,1.54-1.75-1.34-2.46-2.74-2.47-1.4,0-3.43-.99-5.02-1.15-1.59-.16-3.99-1.27-5.63-1.78-1.63-.51-3.71-1.83-5.57-2.83-1.87-1-3.36,1.1-4.83,1.97-1.47.87-4.36,2.96-6.33,4.07-1.96,1.11-3.42,2.94-5.34,3.61-1.42.5-2.13,1.2-3.42,1.55-1.3.35-2.1,1.18-2.13-.78-.04-1.95,3.3-15.7,3.73-19.13.43-3.43,2.97-6.73,4.56-9.05,1.59-2.31,3.85-3.33,5.62-4.5,1.77-1.17,5.86-.43,9.28-.66,3.42-.22,8,1.12,10.97,2.57,1.71.84,1.88-1.93,4.67-2.21,2.67-.26,6.88.81,8.9.96,2.02.15,4.74,1.58,6.19-.47,1.45-2.06,2.95-4.58,4.42-5.98,1.47-1.41,3.43-3.87,5.03-4.89,1.61-1.02,3.26-3.15,4.74-3.9,1.48-.75,4.17-3.04,1.6-4.09-2.58-1.04-5.42-2.87-6.18-4.35-.75-1.48-2.3-3.34-2.6-4.77-.29-1.43-1.55-1.85-2.69-.78-1.15,1.07-3.59,2.83-5.62,2.68-2.02-.15-3.6-.24-4.53,1.42-.94,1.66-2.48,2.87-3.71,3.09-1.23.23-1.2,1.53-.27,2.29.93.76,1.7,2.9,2.12,4.06.42,1.17.89,1.87,2.17.54,1.27-1.34,1.39-1.6,2.68-2.29,1.29-.68,1.08-1.27-.61-1.09-1.69.17-2.79.79-3.21-.38-.42-1.16-.23-1.24,1.63-2.78,1.86-1.55,3.14-2.23,5.44-1.96,2.29.27,4.21,1.33,6.13,2.4,1.91,1.07,3.77,1.93,2.97,3.97-.8,2.04-3.43,3.87-5.68,5.56-2.25,1.69-3.5,3.67-5.05,4.23-1.56.56-2.81.22-5.68.07-2.47-.13-3.28-.48-5.4-1.39-2.12-.91-1.21-1.82-3.63,0-2.42,1.82-3.33,3.03-6.27,3.45-1.59.23-3.41-1.27-5.18-.1-1.77,1.17-4.21,1.71-6.02.6-1.82-1.11-2.68-3.86-.42-5.21,2.26-1.35,3.51-4.3,2.97-7.06-.54-2.76-.76-5.85.84-7.51,1.6-1.66,2.77-5.13,4.75-5.72,1.51-.45,3.13-.91,4.74-1.61,1.61-.7,4.26-1.51,5.5-2.01,1.23-.5,3.24-.44,3.49-2.07.26-1.63.41-3.54.87-4.78.45-1.25.89-3.26,1.54-4.32.65-1.06,1-2.79,1.65-3.65.66-.87,1.57-2.99-.24-2.86-1.81.13-4.01-.12-4.88-.77-.87-.66-2.31-1.3-2.9-2.05-.58-.75-1.44-.64-1.81.32-.36.96-1.29,2.69-2.52,3.19-1.23.5-2.18.9-2.25,2.14-.07,1.24-.62,2.4-1.28,2.89-.66.49-.26,1.24.51,1.42.77.18,1.83,1.21,2.42,1.77.58.56,1.06.84,1.42-.31.36-1.15.36-1.34.92-2.12.56-.77.27-1.05-.68-.47-.95.59-1.41,1.27-1.99.71-.58-.56-.49-.66.15-2.1.64-1.44,1.2-2.21,2.62-2.72,1.42-.5,2.85-.43,4.29-.37,1.43.07,2.77.05,2.89,1.48.12,1.43-.89,3.26-1.72,4.9-.83,1.64-.99,3.17-1.74,3.94-.75.77-1.5,1.17-3.31,1.68-1.8.51-4.64,1.7-5.87,2.59-1.22.88-1.31,1.17-3.8.83-2.49-.34-4.49-1.4-6.87-.07-1.11.62-.59,2.41-.07,3.86.51,1.46.88,4.06-.06,5.71-.95,1.64-2.83,5.91-3.62,7.4-.79,1.48-2.53,3.96-3.65,5.45-1.11,1.49-2.72,1.61-1.38-.66.8-1.36,1.55-2.87,2.18-4.51.63-1.63,1.92-4.1,2.42-5.33.51-1.23,1.96-2.62.98-3.94-.98-1.32-2.23-2.78-2.8-3.97-.57-1.2-1.7-2.92-2-4.13-.3-1.21-1.29-2.66-1.44-3.74-.16-1.08-1.03-3.21-2.21-1.83-1.18,1.38-2.89,2.78-3.97,2.94-1.08.16-2.55.74-3.49.63-.95-.11-1.47.58-1.04,1.51.43.93,1.02,2.81.51,4.04-.51,1.23-.89,2.18-.06,3.11.83.92,1.27,2.13,1.16,2.94-.11.81.7,1.06,1.37.64.66-.42,2.15-.46,2.96-.48.81-.02,1.35-.17.78-1.23-.57-1.06-.71-1.2-.87-2.14-.16-.94-.56-.93-.81.16-.24,1.09-.08,1.89-.9,1.91-.81.02-.81-.11-1.39-1.58-.58-1.47-.74-2.41-.1-3.77.64-1.37,1.69-2.34,2.75-3.31,1.06-.98,1.98-1.94,3.08-1.03,1.1.92,1.69,2.93,2.28,4.66.58,1.74,1.56,2.93,1.59,4.01.03,1.08-.22,1.89-1.13,3.54-.9,1.64-2.04,4.51-2.27,5.99-.23,1.49-.09,1.76-2.07,3.3-1.99,1.54-2.6,3.34-4.87,4.85-1.89,1.26-3.18,2.59-2.81,4.54.36,1.95,1.39,4.54,1.58,6.33.2,1.78.72,3.9-1.69,5.73-2.41,1.84-6.44,4.35-6.72,6.64-.28,2.29-1.7,5.08-2.48,6.89-.78,1.81-2.61.05-2.82-2.72-.21-2.77-1.24-9.41-.2-11.08,1.21-1.94,2.72-3.51,2.69-5.6-.03-1.58.1-3.26-.06-5.01-.16-1.75-.1-4.52-.2-5.85-.09-1.32.59-3.21-.88-3.96-1.46-.75-3.23-1.49-4.28-2.31-1.05-.82-2.82-1.87-3.63-2.81-.81-.95-2.33-1.82-2.96-2.71-.62-.89-2.35-2.42-2.79-.66-.44,1.76-1.36,3.77-2.25,4.4-.89.62-1.95,1.8-2.85,2.12-.9.32-1.06,1.17-.26,1.82.8.65,2.16,2.06,2.25,3.39.09,1.32.18,2.35,1.33,2.8,1.16.46,2.08,1.34,2.34,2.12.26.78,1.1.64,1.51-.03.41-.67,1.72-1.37,2.44-1.75.71-.38,1.13-.75.15-1.45-.98-.7-1.17-.76-1.73-1.53-.56-.77-.92-.58-.65.5.27,1.08.76,1.74.05,2.11-.71.38-.78.26-1.95-.8-1.17-1.06-1.73-1.83-1.77-3.34-.04-1.51.48-2.85.99-4.19.51-1.34.9-2.62,2.3-2.29,1.39.33,2.82,1.87,4.12,3.17,1.29,1.3,2.7,1.93,3.21,2.89.5.96.64,1.8.56,3.67-.08,1.87.17,4.95.63,6.38.46,1.44,1.77,2.6-.39,3.87-1.46.86-3.38,3.68-6.11,4.29-2.73.61-2.42.91-2.73,2.42-.3,1.52,1.82,3.64,1.52,5.45-.31,1.82-4.54,5.15-6.36,6.36-1.82,1.21-3.03.3-4.54-.91-1.51-1.21-3.63-2.72-4.85-4.24-1.21-1.52-3.33-4.54-4.85-5.75-1.52-1.21-4.24-5.75-4.54-7.57-.3-1.82-2.73-3.33-5.15-5.15-2.42-1.82-2.12-3.64-2.12-6.36s-.3-3.94-.91-6.05c-.61-2.12,2.42-2.12,4.66-1.56,1.35.34,2.85-.34,4.34-.71,1.5-.37,3.91-.69,5.05-.95,1.14-.25,2.87.08,3.32-1.29.46-1.37.87-3.01,1.44-4.02.57-1.02,1.25-2.7,1.96-3.52.72-.83,1.27-2.27,1.96-2.93.69-.66,1.79-2.36.21-2.51-1.59-.15-3.46-.68-4.12-1.37-.66-.69-1.82-1.45-2.22-2.19-.4-.74-1.16-.77-1.61.01-.45.78-1.5,2.15-2.64,2.4-1.14.26-2.02.47-2.26,1.53-.24,1.06-.89,1.99-1.53,2.31-.64.33-.41,1.04.23,1.31.64.26,1.42,1.31,1.84,1.88.42.57.8.88,1.28-.06.48-.95.5-1.11,1.1-1.7.6-.59.38-.88-.52-.5-.9.37-1.4.89-1.83.32-.42-.57-.33-.64.43-1.8.77-1.16,1.36-1.75,2.66-1.98,1.3-.23,2.54.04,3.77.3,1.23.27,2.39.44,2.29,1.69-.1,1.26-1.25,2.7-2.2,3.99-.95,1.3-1.31,2.6-2.08,3.16-.76.57-1.47.8-3.11.98-1.64.18-4.27.81-5.46,1.4-1.19.59-1.31.82-3.41.17-2.1-.65-3.54-1.06-5.94-1.05-.94,0-1.42-.32-1.58-1.26-.16-.94,0-2.36-.16-3.31-.16-.94-.95-2.67,0-4.56.94-1.89,1.57-2.21.94-4.25-.63-2.05-2.05-1.42-1.26-3.62.79-2.2,2.05-3.94,3.78-5.51,1.73-1.57,3.31-2.99,4.88-3.94,1.57-.95,4.41-2.84,5.82-3.15,1.42-.32,2.21-2.05,2.21-4.25s2.2-2.05,3.67-2.91c1.61-.94,2-2.24,2.87-3.71.87-1.48,1.06-1.4,2.05-1.69.99-.28,2.83-1.3,3.87-2.06,1.03-.75,1.57-.99,2.3-1.06.74-.07,1.63.49,2.85.74,1.23.25,2.64.48,3.36,1.15.72.67.14,1.38-.43,2.17-.57.8-1.14,1.59-2.01,2.14-.87.55-1.52.53-2.57.26-1.04-.26-1.14-.26-1.19-.81-.05-.55.51-.51,1.22-.77.72-.25.69-.53.04-.56-.65-.03-.75-.11-1.52-.4-.77-.29-.83.08-.77.63.06.55.15,1.56-.07,2.04-.23.49,0,1.02.55.87.54-.15,1.39.05,2.09.53.69.49,1.31.15,2.1-.3.79-.45,2.11-.21,2.78,0,.67.21,1.09-.2.94-.83-.16-.63.11-1.68.13-2.42.02-.74.82-2.03,1.65-2.94.83-.92-.68-1.32-1.43-1.34-.74-.02-1.82-.56-2.66-.66-.84-.1-2.11-.72-2.97-1-.86-.28-1.95-1.01-2.94-1.56-.98-.55-1.8.55-2.59,1-.79.45-2.35,1.53-3.4,2.1-1.06.57-1.91,1.38-2.87,1.86-1.89.95-4.89,3.23-5.84,4.18s-2.36,3.62-2.83,4.88c-.47,1.26-3.94,4.09-5.36,5.35-1.42,1.26-3.15,1.26-2.67,0,.47-1.26,1.1-3.31,2.04-4.56.94-1.26.16-4.41-.16-6.46-.31-2.05.94-2.83,1.89-3.62.95-.79,2.68-1.57,3.78-2.36,1.1-.79,1.1-2.04.77-3.56-.4-1.82.15-3-.1-4.69-.25-1.7-.05-1.76.54-2.61.59-.84,1.39-2.79,1.73-4.02.34-1.24.6-1.76,1.13-2.28.52-.51,1.57-.64,2.68-1.22,1.11-.58,2.35-1.28,3.33-1.21.98.07.97.98,1.03,1.96.06.98.11,1.96-.22,2.93-.34.97-.86,1.36-1.84,1.81-.98.45-1.05.51-1.44.12-.39-.39.07-.71.47-1.37.4-.65.2-.84-.32-.46-.53.39-.66.39-1.44.64-.79.26-.59.58-.2.98.39.39,1.1,1.12,1.22,1.64.13.52.65.79.98.33.33-.45,1.11-.84,1.96-.9.85-.06,1.11-.71,1.45-1.55.33-.84,1.51-1.49,2.17-1.74.65-.25.72-.84.21-1.24-.52-.39-.97-1.38-1.42-1.97-.45-.59-.64-2.09-.56-3.33.07-1.24-1.36-.6-1.96-.14-.59.45-1.77.7-2.49,1.15-.72.45-2.09.77-2.94,1.08-.85.32-2.16.44-3.26.63-1.11.19-1.06,1.56-1.39,2.4-.33.84-.87,2.67-1.33,3.77-.46,1.11-.82,2.2-1.07,3.25-.42,1.75-1.15.93-.99-.33.16-1.26.47-3.31.79-4.41.32-1.1,1.42-4.1,1.73-5.35.32-1.26,1.73-2.36,2.67-2.83.95-.47,2.05-1.11,1.8-1.94-.54-1.78-2.03-2.21-3.41-3.23-1.38-1.01-1.29-1.2-1.47-2.21-.19-1.01-1.01-2.95-1.66-4.05-.65-1.11-.83-1.66-.83-2.4s.65-1.57,1.01-2.76c.37-1.2.73-2.58,1.47-3.23.74-.65,1.38,0,2.12.65.74.65,1.48,1.29,1.94,2.21.46.92.37,1.57,0,2.58-.37,1.01-.37,1.11-.92,1.11s-.46-.56-.64-1.29c-.19-.74-.46-.74-.55-.09-.09.65-.19.74-.55,1.48-.37.74,0,.83.55.83s1.57,0,2.03.28c.46.28,1.01.09.92-.46-.09-.55.19-1.38.74-2.03.55-.65.28-1.29-.09-2.12-.37-.83,0-2.12.28-2.77.28-.64-.09-1.11-.74-1.01-.65.09-1.66-.28-2.4-.37-.74-.09-1.94-1.01-2.77-1.94-.83-.92-1.38.55-1.48,1.29-.09.74-.74,1.75-.92,2.58-.19.83-.92,2.03-1.29,2.86-.37.83-1.2,1.84-1.85,2.77-.64.92.37,1.84.74,2.67.37.83,1.29,2.49,1.75,3.6.46,1.11,1.04,2.1,1.57,3.04.69,1.23-.38,3.49-.38,5.07s-1.57,2.99-3.15,4.09c-1.57,1.1-2.36,3.15-1.89,4.88.47,1.73-1.26,2.68-2.68,2.36-1.42-.32-2.36-1.73-2.68-3.15-.31-1.42-1.73-1.73-2.59-2.41-1.47-1.15-2.8-1.09-4.49-1.39-1.69-.3-1.69-.51-2.3-1.33-.61-.83-2.21-2.2-3.28-2.91-1.07-.71-1.48-1.12-1.8-1.78-.33-.66-.11-1.69-.31-2.93-.2-1.24-.48-2.64-.1-3.54.38-.9,1.24-.61,2.18-.36.95.26,1.9.51,2.72,1.13.82.62,1.02,1.24,1.14,2.32.12,1.07.16,1.15-.34,1.4-.5.24-.66-.29-1.15-.87-.49-.58-.74-.46-.54.16.2.62.16.74.15,1.57,0,.82.37.74.86.5.5-.24,1.41-.69,1.94-.65.53.04.95-.37.62-.82-.32-.46-.44-1.32-.23-2.15.21-.82-.32-1.28-1.02-1.86-.69-.58-.94-1.9-.97-2.61-.04-.7-.57-.95-1.11-.58-.54.37-1.61.49-2.31.73-.7.24-2.19-.06-3.34-.52-1.15-.46-1,1.11-.75,1.81.24.7.11,1.9.31,2.72.2.82.07,2.23.1,3.13.04.91-.26,2.18-.43,3.3-.17,1.11,1.14,1.49,1.84,2.07.7.58,2.26,1.66,3.16,2.45.9.79,1.8,1.52,2.75,2.04.64.35,1.56.75,2.35,1.07,2.09.84,5.04,2.21,6.61,3.94,1.57,1.73,3.94,3.31,4.25,4.73.32,1.42.94,2.99.63,4.88-.31,1.89-.63,4.72-2.05,6.61-1.42,1.89-6.3,10.23-7.24,11.18-.94.94-.94.16-1.42-.63-.47-.79-.49-1.46-.95-2.38-.63-1.24-.47-2.83-.91-4.3-.44-1.48-.87-3.88-1.18-5-.31-1.13-.05-2.87-1.44-3.26-1.39-.39-3.04-.73-4.09-1.25-1.04-.53-2.75-1.12-3.61-1.8s-2.32-1.16-3.02-1.82c-.69-.66-2.44-1.68-2.52-.09-.08,1.59-.52,3.49-1.18,4.18-.66.69-1.37,1.88-2.09,2.32-.72.43-.71,1.19.09,1.61.8.42,2.21,1.4,2.52,2.53.31,1.12.56,1.99,1.63,2.18,1.07.19,2.02.79,2.38,1.42.36.63,1.06.36,1.29-.29.23-.65,1.24-1.48,1.79-1.92.55-.45.84-.84-.12-1.28-.97-.43-1.13-.45-1.75-1.02-.62-.57-.89-.35-.47.54.41.88.96,1.36.4,1.81-.55.45-.62.36-1.82-.35-1.19-.71-1.81-1.28-2.1-2.57-.29-1.29-.08-2.53.13-3.78.21-1.24.33-2.41,1.58-2.37,1.26.04,2.75,1.12,4.09,2.01,1.34.89,2.66,1.2,3.26,1.93.6.73.87,1.43,1.12,3.06.26,1.63,1.01,4.23,1.65,5.39.64,1.16.88,1.27.33,3.4-.55,2.14-1.73,3.79-.77,5.99.69,1.57,2.26,2.04,3.21,2.68.94.63,1.42,1.26,1.57,3.3.16,2.05,0,2.83-.32,3.78-.32.94-1.39,1.74-2.19,2.29-2.06,1.41-2.65,2.55-3.66,4.16-1.01,1.61-1.35,1.57-2.9,2.02-1.55.45-4.3,1.78-5.79,2.7-1.49.92-2.3,1.25-3.49,1.45-1.19.2-2.82-.2-4.92-.23-2.1-.03-4.5-.01-5.88-.55-1.38-.53-.63-1.33.08-2.21.71-.88,1.41-1.77,2.69-2.46,1.28-.69,2.36-.78,4.16-.7,1.8.08,1.95.06,2.2.59.25.53-.68.59-1.79.97-1.11.38-.98.64.1.56,1.08-.09,1.27-.03,2.63.13,1.36.15,1.34-.22,1.09-.76-.25-.53-.71-1.51-.47-2.03.24-.52-.31-1-1.16-.76-.85.24-2.32.2-3.61-.16-1.29-.36-2.21.08-3.38.66-1.17.58-3.42.58-4.59.49-1.16-.09-1.74.39-1.3.99.44.59.31,1.67.49,2.4.19.73-.76,2.14-1.87,3.19-1.11,1.05,1.52,1.18,2.75,1.07,1.23-.11,3.16.24,4.58.19,1.42-.05,3.69.34,5.2.47,1.51.13,3.52.65,5.3,1.02,1.78.38,2.81-.85,3.97-1.43,1.17-.58,3.43-1.91,5.01-2.66,1.57-.74,2.95-1.34,4.2-2.33,1.27-1.01,2.22-1.01,2.06.24-.16,1.26.63,2.36-.47,3.15-1.1.79-2.83,2.83-3.15,4.25-.31,1.42,0,2.36,1.42,3.62,1.42,1.26,4.88,2.05,5.98,3.31,1.1,1.26,1.42,3.31,1.57,4.88.16,1.57,2.83,6.45,3.15,8.19.31,1.73.31,4.56,2.68,5.19,2.36.63,4.09,2.36,5.19,4.57,1.11,2.2.95,3.15-.47,2.36-1.42-.79-2.84-.36-4.26-1.44-1.51-1.15-2.79-2.77-4.46-4.06-1.68-1.29-4.08-3.62-5.32-4.63-1.25-1.01-2.36-3.15-4.22-2.47-1.86.68-3.97,1.63-5.55,1.88-1.58.25-3.96.96-5.46.9-1.5-.07-3.52.57-4.82.39-1.29-.18-4.06.09-2.87,1.92,1.19,1.84,2.21,4.3,2.04,5.59-.18,1.3-.01,3.19-.47,4.25-.45,1.06.16,1.9,1.39,1.72,1.23-.18,3.59-.22,4.84.79,1.24,1.01,2.22,1.77,3.57,1.13,1.35-.65,2.89-.74,3.79-.33.9.41,1.47-.45,1.21-1.36-.26-.91.2-2.64.45-3.58.25-.94.26-1.61-1.16-1.32-1.42.29-1.63.41-2.77.27-1.14-.14-1.27.33-.09.98,1.17.65,2.16.75,1.9,1.69-.25.94-.41.9-2.3,1.07-1.9.17-3.04.03-4.4-1.18-1.36-1.21-2.12-2.76-2.89-4.31-.77-1.55-1.57-2.94-.13-3.9,1.43-.96,3.96-.96,6.17-1.04,2.21-.08,3.92-.8,5.17-.46,1.26.34,2.11.9,3.7,2.51,1.59,1.6,4.51,3.9,6.15,4.68,1.64.77,2,.7,3.1,3.52,1.09,2.82,1.37,5.22,3.94,7.28,2.64,2.12,5.63.54,7.21-.09,1.57-.63,3.93-.15,4.56.95.63,1.1,2.99,3.78,2.52,6.3-.47,2.52-1.42,5.19,1.26,6.3,2.67,1.1,5.98,3.62,7.56,4.56,1.57.95,2.83-.16,3.15-1.89.31-1.73,1.73-3.47,4.72-3.15,2.99.32,5.83.63,7.4,1.26,1.57.63,1.86,1.05.61,2.57-2.37,2.91-4.33,2.86-7.6,5.82-2.91,2.63-5.54,4.12-8.03,6.61-2.49,2.49-7.07,3.43-9.51,4.46-1.76.75-3.8,1.83-1.5,4.13,2.3,2.3,2.25,5.93,2.25,9.38s.71,5.21,3.59,5.21,4.26,1.17,6.71,2.88c.78.54,1.43.73,3.22.64,3.44-.18,4.84,3.22,7.88,1.22,1.96-1.29,3.19-1.97,5.82-3.28,2.43-1.21,4.4-1.73,5.35-5.54.66-2.63,2.8-5.18,5.54-6.95,1.6-1.03,1.69-1.97,1.57-2.33-1.27-3.94-.31-4.46-4.45-5.22-2.28-.42-4.79-.57-6.13-1.92-1.34-1.34-1.53-1.15-3.45.77-1.92,1.91-4.15.98-7.61,2.14-1.97.66-2.81,2.16-.75,3.19,4.1,2.05,5.66,3.75,8.73,3.75.94,0,.84-.47.09-1.41-.75-.94-2.44-1.5-2.72-2.34-.28-.84.38-1.59,1.78-2.25,1.41-.66,2.91-1.41,4.41-1.03,1.5.37,2.91,1.03,2.82,2.91-.09,1.87-.38,3.19-.75,4.22-.38,1.03-1.03,1.31-1.78,2.35-.75,1.03-3.94,4.97-4.88,5.72-.94.75-1.88,1.03-2.82.56-.94-.47-5.63-1.97-7.23-2.25-1.59-.28-5.44-.66-6.75-1.03-1.31-.38-2.81-1.6-3.47-2.91-.66-1.31-.28-3.85,1.13-5.63,1.41-1.78,2.91-4.31,4.5-5.44,1.59-1.13,3.94-1.88,6.01-3.57,2.06-1.69,3.84-3.47,6.29-4.69,2.44-1.22,4.03-1.13,6.01-1.41,1.97-.28,9.24-.28,11.54.19,5.38,1.1,7.2,2.31,8.42,4.73,1.21,2.42.91,5.76.6,7.57-.3,1.82,2.42,2.42,4.24,2.73,1.82.3,6.06.61,7.57,3.03,2.59,4.14,3.33,12.54,0,15.75-2.73,2.62-6.96,7.07-11,8.68-3.46,1.38-8.48,6.06-11.31,9.29-2.83,3.23-12.52,4.44-16.15,1.21-3.63-3.23-10.5-1.61-12.11,0-1.61,1.62-8.48,4.04-12.92,3.64-4.44-.4-7.27,2.42-9.47,5.08-1.35,1.62-1.62,2.68-3.68,2.51-5.26-.44-8.49.22-13.22,1.29-4.73,1.07-4.96.53-7.46-.96-2.5-1.49-8.18-3.31-11.74-3.99-3.56-.67-5.08-1.31-6.65-2.68-1.58-1.37-2.15-4.28-4.02-7.29-1.88-3.01-4.14-6.36-4.15-9.14,0-2.77,2.56-2.95,5.31-3.33,2.75-.38,5.49-.75,8.32-.03,2.82.73,4.03,2.12,5.51,4.79,1.48,2.67,1.68,2.84.65,4.02-1.03,1.18-2.04-.04-3.96-1.01-1.91-.98-2.43-.39-1.22,1,1.2,1.4,1.23,1.76,2.12,3.92.89,2.16,1.77,1.54,2.8.36,1.03-1.18,2.91-3.34,4.35-3.82,1.45-.47,2.08-1.99.73-2.82-1.35-.83-2.61-2.96-2.96-5.34-.35-2.38-2.24-2.99-4.69-3.74-2.46-.75-4.53-3.93-5.39-5.72-.86-1.79-2.53-1.86-3.53-.31-1,1.55-3.67,3.03-5.24,4.43-1.56,1.4-5.75,2.25-9.26,2.31-3.51.06-1.38,3.98.02,5.54,1.4,1.57,2.37,4.83,3.8,6.76,1.43,1.93,2.62,5.73,3.7,8.06,1.08,2.33,1.71,5.98,2.48,9.07.77,3.08,4.62,2.64,7.08,3.39,2.45.75,7.71,1.86,10.92,2.93,3.22,1.07,6.52,1.3,9.4,2.3,4.01,1.39,10.88.98,13.71-1.44,2.82-2.42,11.3-8.48,13.32-9.29,2.02-.81,7.2.08,12.52-.81,2.42-.4,6.15-1.08,5.5,1.68-.7,2.99.81,4.86,1.8,7.5.99,2.64.7,2.81.05,4.37-.66,1.56-1.25,4.97-1.35,7.07-.1,2.1-.35,3.03-1.01,4.04-.66,1.01-2.29,1.58-3.87,2.9-1.58,1.32-3.33,2.89-4.92,3.12-1.59.23-1.9-1.24-2.34-2.79-.44-1.55-.87-3.1-.68-4.78.19-1.68.9-2.49,2.31-3.55,1.42-1.07,1.5-1.19,2.26-.7.76.49.14,1.17-.27,2.35-.41,1.18-.03,1.43.68.62.71-.81.92-.85,2.08-1.54,1.17-.68.74-1.14-.02-1.64-.76-.5-2.16-1.41-2.54-2.2-.39-.8-1.31-1.04-1.69-.19-.37.84-1.49,1.74-2.83,2.13-1.34.39-1.54,1.53-1.77,3-.24,1.47-1.9,2.92-2.86,3.56-.96.64-.86,1.6.11,2.05.97.45,2.04,1.87,2.97,2.66.93.79,1.76,3.13,2.07,5.14.32,2.01,2.4.48,3.19-.45.79-.93,2.59-1.75,3.58-2.73,1-.97,3.09-1.96,4.34-2.78,1.25-.81,3.3-1.46,5.02-2.15,1.72-.69,1.15-2.87,1.38-4.34.24-1.47.46-4.59.81-6.52.36-1.94-.35-4.08.57-5.59,1.57-2.58,6.02-7.43,8.03-8.24,2.02-.81,7.27-1.61,10.9-.81,3.63.81,8.07-4.04,8.88-5.65.81-1.61,1.09-5.82,3.64-6.06,4.44-.4,9.29-.81,9.29,3.64s-3.63,9.69-.81,12.11c2.83,2.42,7.27,5.25,8.48,8.28,2.12,5.3,3.03,8.18-2.12,10.6-5.15,2.42-19.69,7.87-20.59,12.12-.91,4.24-4.54,20.89-7.57,27.86-2.05,4.72-16.05,8.78-19.99,9.39-3.94.61-12.42,4.24-14.54,5.45-2.12,1.21-3.03-.3-4.24-.91-1.21-.61-4.85-.91-6.36-.91s-9.09-1.51-10.3-2.12c-1.21-.61-5.45-1.82-5.45-1.82,0,0-2.12-1.21-3.94,0-1.82,1.21-8.48,4.24-11.2,5.15-2.73.91-5.45,3.03-6.66,4.84-1.21,1.82-3.03,4.85-5.76,5.45-2.73.61-7.87,3.64-7.87,3.64-2.42,3.03-5.75,7.27-8.18,8.17,4.85-1.51,8.18-3.33,10.3-5.15,2.12-1.82,4.85-2.73,7.57-2.73s5.76-2.42,7.27-4.85c1.52-2.42,4.85-5.75,7.57-5.75s4.24,1.21,5.76,2.12c1.51.91,1.51,1.82,3.63-.31,2.12-2.12,5.75-4.54,8.78-3.94,3.03.6,6.06,2.42,9.09,5.15-3.64,1.51-10.3,3.03-12.42,3.63-2.12.61-3.03,0-3.33,2.73-.3,2.73-.91,3.33-3.64,6.06-2.73,2.73-8.17,3.63-9.99,6.06-1.82,2.42-2.72,5.45-6.96,6.06-4.24.61-8.78,1.82-10.6,3.33-1.82,1.51-3.03,3.94-6.06,5.45,3.03,1.21,6.96.91,8.48-.61,1.51-1.51,5.15-4.24,6.66-4.54,1.52-.3,6.97-2.12,9.09-5.15,2.12-3.03,5.45-5.45,9.08-6.66-.61,3.63-1.21,5.75-2.72,7.87-1.52,2.12-6.36,5.75-10,7.87-3.64,2.12-3.94,3.03-4.54,6.06,3.64-2.73,8.78-5.15,11.81-6.66,3.03-1.51,7.27-4.24,6.96-6.06-.3-1.82,1.21-7.87,2.73-9.99,4.85-2.12,9.39-6.06,13.33-4.54,3.94,1.52,8.48,2.12,13.33.91-4.24,3.33-6.66,4.54-6.36,8.78.31,4.24-.6,6.06-3.63,8.48-3.03,2.42-7.27,4.54-10.6,6.36-3.33,1.82-7.57,1.52-9.39,4.24,5.15-1.52,10.3-2.12,14.24-3.33,3.94-1.21,7.57-3.03,10.6-6.36,3.03-3.33,4.54-5.45,6.66-8.48,2.12-3.03,4.24-6.36,5.75-8.78,1.52-2.42,4.85-10.29,8.48-10.9,3.63-.6,3.94-.3,3.63,1.82-.3,2.12-.6,5.75.61,6.97,1.21,1.21.3,3.03-1.82,4.84-2.12,1.82,1.21,5.76,3.63,7.27,2.42,1.51,5.76,4.85,6.36,6.66.61,1.82-2.73,5.76-3.63,6.66-.91.91-4.24,2.42-7.27,3.94-3.03,1.51-4.54,3.94-2.42,5.15,2.12,1.21,5.45,2.42,7.27,3.94-.91-2.72-4.24-4.54-2.73-5.75,1.52-1.21,4.85-4.54,7.87-5.15,3.03-.61,5.75-4.24,6.36-7.27.61-3.03-2.12-4.54-3.94-6.06-1.82-1.51-2.12-3.03,0-5.75,2.12-2.73,4.54-6.66,9.39-6.06,4.85.6,6.06,1.52,11.2,4.24,5.15,2.73,8.18,3.63,12.42,1.82,4.24-1.82,9.39-4.24,14.54-1.82,5.15,2.42,12.11,8.78,15.14,12.11,3.03,3.33,8.78,5.76,13.32,5.76s6.97,3.03,9.09,6.36c2.12,3.33,5.15,3.03,8.48,3.64-1.82-2.73-5.45-2.12-5.75-4.54-.3-2.42-2.73-5.75-3.64-7.88-.91-2.12-4.54-3.33-6.36-1.82-1.82,1.51-6.06-.3-7.87-1.21-1.82-.91-6.36-6.66-7.88-10.6-1.51-3.94-3.94-5.76-6.96-6.36-3.03-.6-14.84-3.93-18.17-6.66,7.88-2.42,16.36-2.72,19.08-.91,2.72,1.82,8.48,5.15,11.21,7.87,2.73,2.73,4.85,5.15,9.08,4.85,4.24-.31,6.06,1.51,8.18,3.63,2.12,2.12,3.33,5.45,6.96,6.36-.91-3.03-2.73-6.06-4.54-8.17-1.82-2.12-3.33-4.24-6.36-4.24s-7.88,0-9.08-2.73c-1.21-2.72-1.82-5.75-3.03-8.48,3.94,1.82,6.96,3.94,9.09,5.76,2.12,1.82,6.36,3.63,9.69,3.33,3.33-.3,9.09-1.21,11.51-2.42,2.42-1.21,5.76,0,10.3.91,4.54.91,4.54-1.52,7.87-2.42,3.33-.91,5.45,0,6.97,3.03,1.51,3.03,1.82,8.18,3.94,9.69,2.12,1.52,6.36,5.15,8.17,5.15s5.15,1.21,7.57,3.94c2.42,2.73,6.06,3.03,10.6,3.33-1.82-3.33-6.06-1.82-7.57-4.54-1.52-2.73-2.12-5.75-5.45-6.06-3.33-.3-5.76-.91-7.57-3.03-1.82-2.12-3.03-3.63-3.63-6.36-.61-2.73.3-3.94,3.33-3.03,3.03.91,8.48,3.64,9.99,5.45,1.51,1.82,4.24,3.33,8.48,3.64Z"/>
  </g>
</svg>