<?xml version="1.0" encoding="UTF-8"?>
<svg id="Layer_2" data-name="Layer 2" xmlns="http://www.w3.org/2000/svg" xmlns:xlink="http://www.w3.org/1999/xlink" viewBox="0 0 366.17 378.56">
  <defs>
    <style>
      .cls-1 {
        fill: url(#linear-gradient-15);
      }

      .cls-2 {
        fill: url(#linear-gradient-13);
      }

      .cls-3 {
        fill: url(#linear-gradient-28);
      }

      .cls-4 {
        fill: url(#linear-gradient-2);
      }

      .cls-5 {
        fill: url(#linear-gradient-25);
      }

      .cls-6 {
        fill: url(#linear-gradient-10);
      }

      .cls-7 {
        fill: url(#linear-gradient-12);
      }

      .cls-8 {
        fill: url(#linear-gradient-27);
      }

      .cls-9 {
        fill: url(#linear-gradient-26);
      }

      .cls-10 {
        fill: url(#linear-gradient-4);
      }

      .cls-11 {
        fill: url(#linear-gradient-35);
      }

      .cls-12 {
        fill: url(#linear-gradient-30);
      }

      .cls-13 {
        fill: url(#linear-gradient-3);
      }

      .cls-14 {
        fill: url(#linear-gradient-34);
      }

      .cls-15 {
        fill: url(#linear-gradient-5);
      }

      .cls-16 {
        fill: url(#linear-gradient-22);
      }

      .cls-17 {
        fill: url(#linear-gradient-24);
      }

      .cls-18 {
        fill: url(#linear-gradient-33);
      }

      .cls-19 {
        fill: url(#linear-gradient-8);
      }

      .cls-20 {
        fill: url(#linear-gradient-14);
      }

      .cls-21 {
        fill: url(#linear-gradient-29);
      }

      .cls-22 {
        fill: url(#linear-gradient-20);
      }

      .cls-23 {
        fill: url(#linear-gradient-17);
      }

      .cls-24 {
        fill: url(#linear-gradient-7);
      }

      .cls-25 {
        fill: url(#linear-gradient-9);
      }

      .cls-26 {
        fill: url(#linear-gradient-11);
      }

      .cls-27 {
        fill: url(#linear-gradient-19);
      }

      .cls-28 {
        fill: url(#linear-gradient-6);
      }

      .cls-29 {
        fill: url(#linear-gradient-36);
      }

      .cls-30 {
        fill: url(#linear-gradient-21);
      }

      .cls-31 {
        fill: url(#linear-gradient-32);
      }

      .cls-32 {
        fill: url(#linear-gradient-16);
      }

      .cls-33 {
        fill: url(#linear-gradient);
      }

      .cls-34 {
        fill: url(#linear-gradient-23);
      }

      .cls-35 {
        fill: url(#linear-gradient-31);
      }

      .cls-36 {
        fill: url(#linear-gradient-18);
      }
    </style>
    <linearGradient id="linear-gradient" x1="0" y1="189.28" x2="366.17" y2="189.28" gradientUnits="userSpaceOnUse">
      <stop offset="0" stop-color="#60c9b6"/>
      <stop offset=".02" stop-color="#60c9b6"/>
      <stop offset=".02" stop-color="#60c9b6"/>
      <stop offset=".03" stop-color="#60c9b7"/>
      <stop offset=".04" stop-color="#60c9b7"/>
      <stop offset=".05" stop-color="#60c9b7"/>
      <stop offset=".05" stop-color="#60c9b8"/>
      <stop offset=".06" stop-color="#60c9b8"/>
      <stop offset=".07" stop-color="#60c9b9"/>
      <stop offset=".08" stop-color="#61c9b9"/>
      <stop offset=".09" stop-color="#61c9b9"/>
      <stop offset=".09" stop-color="#61c9ba"/>
      <stop offset=".11" stop-color="#61c9ba"/>
      <stop offset=".12" stop-color="#61c9bb"/>
      <stop offset=".12" stop-color="#61c9bb"/>
      <stop offset=".13" stop-color="#61c9bc"/>
      <stop offset=".14" stop-color="#61c9bc"/>
      <stop offset=".16" stop-color="#61c9bc"/>
      <stop offset=".16" stop-color="#61cabd"/>
      <stop offset=".17" stop-color="#61cabd"/>
      <stop offset=".18" stop-color="#61cabe"/>
      <stop offset=".18" stop-color="#61cabe"/>
      <stop offset=".19" stop-color="#61cabe"/>
      <stop offset=".2" stop-color="#61cabe"/>
      <stop offset=".2" stop-color="#61cabf"/>
      <stop offset=".22" stop-color="#61cabf"/>
      <stop offset=".22" stop-color="#61cac0"/>
      <stop offset=".23" stop-color="#61cac0"/>
      <stop offset=".23" stop-color="#61cac0"/>
      <stop offset=".24" stop-color="#61cac0"/>
      <stop offset=".25" stop-color="#61cac1"/>
      <stop offset=".26" stop-color="#61cac1"/>
      <stop offset=".26" stop-color="#62cac1"/>
      <stop offset=".27" stop-color="#62cac2"/>
      <stop offset=".27" stop-color="#62cac2"/>
      <stop offset=".28" stop-color="#62cac2"/>
      <stop offset=".3" stop-color="#62cac3"/>
      <stop offset=".31" stop-color="#62cac3"/>
      <stop offset=".33" stop-color="#62cac4"/>
      <stop offset=".34" stop-color="#62cac4"/>
      <stop offset=".34" stop-color="#62cac5"/>
      <stop offset=".35" stop-color="#62cac5"/>
      <stop offset=".36" stop-color="#62cac6"/>
      <stop offset=".38" stop-color="#62cac6"/>
      <stop offset=".38" stop-color="#62cac7"/>
      <stop offset=".39" stop-color="#62cac7"/>
      <stop offset=".41" stop-color="#62cac7"/>
      <stop offset=".41" stop-color="#63cbc7"/>
      <stop offset=".42" stop-color="#63cbc8"/>
      <stop offset=".43" stop-color="#63cbc8"/>
      <stop offset=".43" stop-color="#61cac7"/>
      <stop offset=".44" stop-color="#60cac7"/>
      <stop offset=".44" stop-color="#60c9c6"/>
      <stop offset=".45" stop-color="#5fc9c5"/>
      <stop offset=".45" stop-color="#5ec9c5"/>
      <stop offset=".45" stop-color="#5dc9c4"/>
      <stop offset=".46" stop-color="#5cc8c4"/>
      <stop offset=".46" stop-color="#5bc8c4"/>
      <stop offset=".46" stop-color="#5ac8c3"/>
      <stop offset=".47" stop-color="#5ac7c2"/>
      <stop offset=".47" stop-color="#59c7c2"/>
      <stop offset=".48" stop-color="#58c7c1"/>
      <stop offset=".48" stop-color="#57c6c1"/>
      <stop offset=".48" stop-color="#56c6c0"/>
      <stop offset=".49" stop-color="#55c6bf"/>
      <stop offset=".49" stop-color="#53c5bf"/>
      <stop offset=".5" stop-color="#53c5be"/>
      <stop offset=".5" stop-color="#52c5be"/>
      <stop offset=".5" stop-color="#51c4bd"/>
      <stop offset=".51" stop-color="#50c4bc"/>
      <stop offset=".51" stop-color="#4fc4bb"/>
      <stop offset=".52" stop-color="#4ec3bb"/>
      <stop offset=".52" stop-color="#4dc3ba"/>
      <stop offset=".52" stop-color="#4dc3ba"/>
      <stop offset=".53" stop-color="#4cc3b9"/>
      <stop offset=".53" stop-color="#4bc2b8"/>
      <stop offset=".54" stop-color="#4ac1b7"/>
      <stop offset=".54" stop-color="#49c1b7"/>
      <stop offset=".54" stop-color="#48c0b6"/>
      <stop offset=".55" stop-color="#47beb5"/>
      <stop offset=".55" stop-color="#47bdb3"/>
      <stop offset=".55" stop-color="#46bdb2"/>
      <stop offset=".56" stop-color="#46bbb1"/>
      <stop offset=".56" stop-color="#45bab0"/>
      <stop offset=".57" stop-color="#44b9b0"/>
      <stop offset=".57" stop-color="#44b8af"/>
      <stop offset=".57" stop-color="#43b7ae"/>
      <stop offset=".58" stop-color="#43b6ad"/>
      <stop offset=".58" stop-color="#43b5ac"/>
      <stop offset=".59" stop-color="#42b4ab"/>
      <stop offset=".59" stop-color="#42b2aa"/>
      <stop offset=".59" stop-color="#41b1a9"/>
      <stop offset=".6" stop-color="#41b0a8"/>
      <stop offset=".6" stop-color="#41afa7"/>
      <stop offset=".61" stop-color="#40aea6"/>
      <stop offset=".61" stop-color="#40aca6"/>
      <stop offset=".61" stop-color="#3faba5"/>
      <stop offset=".62" stop-color="#3faaa4"/>
      <stop offset=".62" stop-color="#3ea9a2"/>
      <stop offset=".62" stop-color="#3ea7a1"/>
      <stop offset=".63" stop-color="#3da6a0"/>
      <stop offset=".63" stop-color="#3da59f"/>
      <stop offset=".64" stop-color="#3da49e"/>
      <stop offset=".64" stop-color="#3da49d"/>
      <stop offset=".64" stop-color="#3ca29c"/>
      <stop offset=".65" stop-color="#3ca19b"/>
      <stop offset=".65" stop-color="#3ba09a"/>
      <stop offset=".66" stop-color="#3a9f99"/>
      <stop offset=".66" stop-color="#3a9d98"/>
      <stop offset=".66" stop-color="#399c97"/>
      <stop offset=".67" stop-color="#399b96"/>
      <stop offset=".67" stop-color="#399a95"/>
      <stop offset=".68" stop-color="#389994"/>
      <stop offset=".68" stop-color="#379893"/>
      <stop offset=".68" stop-color="#379792"/>
      <stop offset=".69" stop-color="#379590"/>
      <stop offset=".69" stop-color="#36948f"/>
      <stop offset=".7" stop-color="#36948e"/>
      <stop offset=".7" stop-color="#36938e"/>
      <stop offset=".7" stop-color="#35918d"/>
      <stop offset=".71" stop-color="#35908c"/>
      <stop offset=".71" stop-color="#348f8b"/>
      <stop offset=".71" stop-color="#348e89"/>
      <stop offset=".72" stop-color="#348d88"/>
      <stop offset=".72" stop-color="#338b87"/>
      <stop offset=".73" stop-color="#338a86"/>
      <stop offset=".73" stop-color="#338985"/>
      <stop offset=".73" stop-color="#328783"/>
      <stop offset=".74" stop-color="#328682"/>
      <stop offset=".74" stop-color="#318581"/>
      <stop offset=".75" stop-color="#318480"/>
      <stop offset=".75" stop-color="#30837f"/>
      <stop offset=".75" stop-color="#30827e"/>
      <stop offset=".76" stop-color="#2f817d"/>
      <stop offset=".76" stop-color="#2f807c"/>
      <stop offset=".77" stop-color="#2e7e7b"/>
      <stop offset=".77" stop-color="#2e7d79"/>
      <stop offset=".77" stop-color="#2d7c78"/>
      <stop offset=".78" stop-color="#2d7b77"/>
      <stop offset=".78" stop-color="#2d7a76"/>
      <stop offset=".79" stop-color="#2d7875"/>
      <stop offset=".79" stop-color="#2c7774"/>
      <stop offset=".79" stop-color="#2c7673"/>
      <stop offset=".8" stop-color="#2b7571"/>
      <stop offset=".8" stop-color="#2b7470"/>
      <stop offset=".8" stop-color="#2b726f"/>
      <stop offset=".81" stop-color="#2a716e"/>
      <stop offset=".81" stop-color="#2a706c"/>
      <stop offset=".82" stop-color="#296f6b"/>
      <stop offset=".82" stop-color="#296e6a"/>
      <stop offset=".82" stop-color="#286c69"/>
      <stop offset=".83" stop-color="#286b68"/>
      <stop offset=".83" stop-color="#286a67"/>
      <stop offset=".84" stop-color="#286966"/>
      <stop offset=".84" stop-color="#276864"/>
      <stop offset=".84" stop-color="#276763"/>
      <stop offset=".85" stop-color="#276662"/>
      <stop offset=".85" stop-color="#266561"/>
      <stop offset=".86" stop-color="#266360"/>
      <stop offset=".86" stop-color="#25625f"/>
      <stop offset=".86" stop-color="#25615e"/>
      <stop offset=".87" stop-color="#25605c"/>
      <stop offset=".87" stop-color="#245f5b"/>
      <stop offset=".88" stop-color="#245e5a"/>
      <stop offset=".88" stop-color="#245d59"/>
      <stop offset=".88" stop-color="#235b58"/>
      <stop offset=".89" stop-color="#235a56"/>
      <stop offset=".89" stop-color="#225955"/>
      <stop offset=".89" stop-color="#225854"/>
      <stop offset=".9" stop-color="#225753"/>
      <stop offset=".9" stop-color="#225652"/>
      <stop offset=".91" stop-color="#225551"/>
      <stop offset=".91" stop-color="#215450"/>
      <stop offset=".91" stop-color="#21534f"/>
      <stop offset=".92" stop-color="#21524d"/>
      <stop offset=".92" stop-color="#20514c"/>
      <stop offset=".93" stop-color="#204f4b"/>
      <stop offset=".93" stop-color="#1f4e4a"/>
      <stop offset=".93" stop-color="#1f4d49"/>
      <stop offset=".94" stop-color="#1f4c48"/>
      <stop offset=".94" stop-color="#1f4b47"/>
      <stop offset=".95" stop-color="#1e4a46"/>
      <stop offset=".95" stop-color="#1e4944"/>
      <stop offset=".95" stop-color="#1e4843"/>
      <stop offset=".96" stop-color="#1e4742"/>
      <stop offset=".96" stop-color="#1e4641"/>
      <stop offset=".96" stop-color="#1d4540"/>
      <stop offset=".97" stop-color="#1d433f"/>
      <stop offset=".97" stop-color="#1d423d"/>
      <stop offset=".98" stop-color="#1c413c"/>
      <stop offset=".98" stop-color="#1c403b"/>
      <stop offset=".98" stop-color="#1c3f3a"/>
      <stop offset=".99" stop-color="#1c3e39"/>
      <stop offset=".99" stop-color="#1b3d38"/>
      <stop offset="1" stop-color="#1b3c37"/>
      <stop offset="1" stop-color="#1b3b36"/>
    </linearGradient>
    <linearGradient id="linear-gradient-2" x1="26.1" y1="339.67" x2="57.98" y2="339.67" xlink:href="#linear-gradient"/>
    <linearGradient id="linear-gradient-3" x1="227.89" y1="290.39" x2="249.57" y2="290.39" xlink:href="#linear-gradient"/>
    <linearGradient id="linear-gradient-4" x1="248.69" y1="309.65" x2="289.39" y2="309.65" xlink:href="#linear-gradient"/>
    <linearGradient id="linear-gradient-5" x1="226.94" y1="323.19" x2="266.88" y2="323.19" xlink:href="#linear-gradient"/>
    <linearGradient id="linear-gradient-6" x1="192.04" y1="333.4" x2="223.13" y2="333.4" xlink:href="#linear-gradient"/>
    <linearGradient id="linear-gradient-7" x1="178.58" y1="310.46" x2="191.38" y2="310.46" xlink:href="#linear-gradient"/>
    <linearGradient id="linear-gradient-8" x1="140.8" y1="327.9" x2="155.05" y2="327.9" xlink:href="#linear-gradient"/>
    <linearGradient id="linear-gradient-9" x1="150.11" y1="351.94" x2="165.54" y2="351.94" xlink:href="#linear-gradient"/>
    <linearGradient id="linear-gradient-10" x1="146.15" y1="308.88" x2="157.79" y2="308.88" xlink:href="#linear-gradient"/>
    <linearGradient id="linear-gradient-11" x1="66.78" y1="337.11" x2="126.46" y2="337.11" xlink:href="#linear-gradient"/>
    <linearGradient id="linear-gradient-12" x1="114.94" y1="309.66" x2="135.71" y2="309.66" xlink:href="#linear-gradient"/>
    <linearGradient id="linear-gradient-13" x1="91.74" y1="290.35" x2="129.6" y2="290.35" xlink:href="#linear-gradient"/>
    <linearGradient id="linear-gradient-14" x1="59.71" y1="321.17" x2="91.47" y2="321.17" xlink:href="#linear-gradient"/>
    <linearGradient id="linear-gradient-15" x1="268.97" y1="335.62" x2="312.77" y2="335.62" xlink:href="#linear-gradient"/>
    <linearGradient id="linear-gradient-16" x1="130.34" y1="265.51" x2="138.07" y2="265.51" xlink:href="#linear-gradient"/>
    <linearGradient id="linear-gradient-17" x1="108.52" y1="304.18" x2="124.92" y2="304.18" xlink:href="#linear-gradient"/>
    <linearGradient id="linear-gradient-18" x1="170.83" y1="288.94" x2="181.98" y2="288.94" xlink:href="#linear-gradient"/>
    <linearGradient id="linear-gradient-19" x1="181.53" y1="298.86" x2="202.48" y2="298.86" xlink:href="#linear-gradient"/>
    <linearGradient id="linear-gradient-20" x1="210.35" y1="310.73" x2="230.91" y2="310.73" xlink:href="#linear-gradient"/>
    <linearGradient id="linear-gradient-21" x1="227.81" y1="310.36" x2="243.81" y2="310.36" xlink:href="#linear-gradient"/>
    <linearGradient id="linear-gradient-22" x1="220.88" y1="298.55" x2="227.47" y2="298.55" xlink:href="#linear-gradient"/>
    <linearGradient id="linear-gradient-23" x1="161.25" y1="154.58" x2="167.84" y2="154.58" xlink:href="#linear-gradient"/>
    <linearGradient id="linear-gradient-24" x1="228.56" y1="274.12" x2="235.89" y2="274.12" xlink:href="#linear-gradient"/>
    <linearGradient id="linear-gradient-25" x1="249.92" y1="334.69" x2="257.86" y2="334.69" xlink:href="#linear-gradient"/>
    <linearGradient id="linear-gradient-26" x1="231.32" y1="264.33" x2="237.31" y2="264.33" xlink:href="#linear-gradient"/>
    <linearGradient id="linear-gradient-27" x1="223.75" y1="157.87" x2="247.9" y2="157.87" xlink:href="#linear-gradient"/>
    <linearGradient id="linear-gradient-28" x1="222.9" y1="191.33" x2="233.59" y2="191.33" xlink:href="#linear-gradient"/>
    <linearGradient id="linear-gradient-29" x1="142.3" y1="278.8" x2="161.78" y2="278.8" xlink:href="#linear-gradient"/>
    <linearGradient id="linear-gradient-30" x1="125.82" y1="294.66" x2="142.16" y2="294.66" xlink:href="#linear-gradient"/>
    <linearGradient id="linear-gradient-31" x1="213.12" y1="178.71" x2="229.46" y2="178.71" xlink:href="#linear-gradient"/>
    <linearGradient id="linear-gradient-32" x1="242.28" y1="228.45" x2="264.82" y2="228.45" xlink:href="#linear-gradient"/>
    <linearGradient id="linear-gradient-33" x1="149.55" y1="213.31" x2="153.53" y2="213.31" xlink:href="#linear-gradient"/>
    <linearGradient id="linear-gradient-34" x1="130.78" y1="212.22" x2="146.84" y2="212.22" xlink:href="#linear-gradient"/>
    <linearGradient id="linear-gradient-35" x1="240.98" y1="207.24" x2="257.31" y2="207.24" xlink:href="#linear-gradient"/>
    <linearGradient id="linear-gradient-36" x1="148.67" y1="179.58" x2="161.07" y2="179.58" xlink:href="#linear-gradient"/>
  </defs>
  <g id="Elements_2" data-name="Elements 2">
    <g>
      <path class="cls-33" d="M7.47,355.88c6.28-.36,15.72-.37,19.82-2.18,4.1-1.81,14.63-10.28,19.37-10.03,4.74.25,26.71-1,32.49-.8,5.78.19,4.3,1.85,2.36,4.59-1.94,2.73-9.52,7.89-14.72,8.71-5.2.82-8.68,4.17-12.54,10.16,6.65-3,14.12-.81,19.97.44,5.84,1.24,6.04-4.54,12.72-7.02,6.68-2.48,10.9-2.2,18.59-5.26,7.7-3.06,8.34-1,10.55.97,2.21,1.97,13.81,2.89,19.59,3.08,5.78.19,9.33-2.11,9.51,1.03.18,3.14-4.41,5.5-8.01,6.75-3.6,1.26-6.56,4.57-7.25,10.91,2.44-3.29,4.93-5.53,12.69-7.55,7.76-2.02,22.2-6.51,26.78-8.88,4.59-2.36,3.33-5.96.48-10-2.85-4.04,5.49-5.04,11.27-4.84,5.78.19,12.33,4.54,21.81,5.05,9.48.51,14.27,1.81,20.73,4.59,6.46,2.78,10.15,3.09,15.53,5.41,5.38,2.32,4.92,3.39,2.05,8.28-2.87,4.89-2.41,3.81-3.68,9.13,6.59-4.05,15.05-2.96,20.81-3.29,5.75-.33,6.25-.88,13.84,3.41-1.29-4.13-5.68-7.55-12.08-9.28-6.4-1.73-9.68-4.17-12.54-8.21-2.85-4.04-11.96-7.19-15.27-10.15-3.32-2.96.14-6.83,2.2-7.47,2.06-.64,6.25-.88,10.61,2.02,4.36,2.9,16.46,3.26,22.12,1.36,5.66-1.9,5.46-5.56,9.64-5.8,4.19-.24,10.7,3.59,15.01,5.44,4.3,1.85,9.07,2.63,16.34,1.17,7.26-1.46,14.27,1.81,20.61,2.5,6.34.69,16.52,4.31,25.59,6.94-4.39-3.42-8.85-7.89-12.54-8.21-3.69-.31-10.73-4.11-15.04-5.96-4.3-1.85-9.62-3.12-12.27-3.5-2.65-.37-14.68.31-18.49-2.09-3.81-2.41-10.91-7.25-16.26-9.04,4.71-.27,11.54-.13,14.18.24,2.65.37,15.72-.37,23.14.78-5.29-.75-14.42-4.43-17.22-7.42-2.79-2.99-15.59-6.46-21.34-6.13-5.75.33-12.18-1.93-15.68-8.03-3.5-6.1.91-11.6-1.54-17.76-2.45-6.16-18.44-10.49-20.89-16.65-2.45-6.16-.8-23.8,9.78-31,5.05-3.44,1.27-5.32,4.87-6.58,3.6-1.26,3.84,2.93,9.36-1.58,5.52-4.51,8.77-2.6,14.59-1.88,0,0,2.3.07,3.72.77,1.42.71,1.94,3.04,3.44,5.12,1.5,2.08,4.94,3.85,7.32,4.11,2.38.26,5.4,1.46,9.57,2.21-2.07-1.85-6.48-3.17-8.69-4.03-2.21-.86-6.27-2.99-7.64-6.26-1.37-3.27-1.23-4.26-3.22-5.85-3.66-2.92-11.57-.39-18.37,0-6.8.39-7.07-4.32-7.31-8.5-.15-2.7.04-7.16,1.25-11.18,1.45,1.09,3.07,2.13,4.08,2.38.71.17,1.66.62,2.31.85,2.01.72,3.7,1.04,4.44,2.09.53.75.93,1.52,1.35,2.34.35.67.7,1.34,1.12,2.01,1.85,2.91,9.79,7.66,14.41,9.4-3.59-1.91-10.81-6.83-12.3-9.19-.4-.62.03-1.78-.3-2.41-.14-.26-.39-.54-.67-.81,1.15-.17,2.15-.61,3.06-1.02.52-.24,1.04-.48,1.59-.65,1.7-.54,3.75-.33,5.17-.06,1.02.19,2,.46,3.04.74.85.23,1.71.46,2.59.65,3.87.84,12.56-.16,16.56-1.34-3.68.59-12.2,1.14-15.33.46-.83-.18-1.81-1.07-2.62-1.28-1.05-.28-2.68-.14-3.83-.35-.47-.09-1-.19-1.55-.28.59-.37.9-.84,1.09-1.3.09-.23.19-.46.33-.67.46-.64.98-.9,1.86-1.05,1.1-.18,1.65.12,2.29-.05,1.26-.33,1.53-.79,2.07-.91,2.37-.54,3.75-3.44,2.72-5.03.49,1.61-.92,3.74-2.97,4.4-.48.15-.57.4-1.74.64-.67.13-2.17.17-2.86.35-1.08.28-2.13.47-3.17,1.17-.32.21-.47.63-.48.9,0,.34-1.04.86-1.9,1.24-.86-.06-1.73-.09-2.61,0-.77.07-1.69.51-2.18.86-.7.5-2.02.7-3.02.74-.93-1.33-2.22-3.18-4.37-4.54-.68-.43-2.03-1.76-2.86-1.84-.97-.1-2.3-1.55-3.33-2.82.32-.49.64-.99,1.02-1.41,3.95-4.42,7.95-7.8,13.71-8.13,5.75-.33,12.52-1.24,13.75,1.84,1.23,3.08,11.49,8.27,17.16,6.37.86-.29,1.77-.43,2.71-.51.02.57-.09,1.25-.07,2.04.02.75.28,1.93.8,2.63,1.67,2.21,4.14,3.8,5.92,4.94-.18.86-.64,1.96-1.44,2.44-.56.34-1.3,1.03-1.49,1.68-.22.74-.29,1.51-.31,2.27-.65.65-1.52,1.42-2.01,1.34-.39-.06-1-.03-1.34.19-1.12.73-1.53,1.59-2.06,2.46-.34.55-.58,1.84-.85,2.39-.48.96-.85.97-1.13,1.35-1.19,1.62-4.4,2.31-6.63,1.48,2.13,1.29,6.43.82,7.5-1.1.24-.44.93-.56,1.56-1.57.32-.51-.03-1.07.36-1.98.32-.73.75-1.11,1.73-1.35.32-.08.66-.1.99-.12.68-.05,1.39-.2,1.99-.62.06.51.14.99.21,1.42.16,1.05-.25,2.44.02,3.42.21.75,1.34,1.83,1.49,2.59.57,2.89-1.27,10.15-2.58,13.2,2.19-3.18,4.7-10.48,3.99-14.05-.16-.81-.38-1.62-.6-2.42-.27-.97-.52-1.89-.67-2.83-.2-1.3-.24-3.13.74-4.47.32-.44.72-.83,1.13-1.22.7-.69,1.45-1.45,1.84-2.4.36.31.72.6,1.07.78.86.45,2.56.37,3.4.87,3.17,1.89,9.27,9.4,11.53,13-1.89-4.45-7.65-12.54-11.56-14.88-.89-.53-1.8-1-2.72-1.48-1.11-.57-2.15-1.11-3.16-1.76-1.39-.9-3.21-2.37-3.98-4.29-.25-.62-.4-1.29-.56-1.95-.16-.65-.34-1.33-.58-2,4.59.36,9.54,2.41,13.33,4.16,2.02.93,4.66,5.7,5.93,7.4,1.28,1.7,2.31-.92,5.45-1.1,3.14-.18,9.15-1.7,11.22-3.4,2.07-1.69,5.71.07,7.96,1.51,2.25,1.45,7.93-2.42,10.22-3.73-4.29,1.88-7.79,2.67-9.19,2.16-1.41-.51-3.59-1.96-5.41-2.84-1.82-.88-3.73-2.08-5.41-.61-1.69,1.47-3.11,3-5.47,2.94-2.37-.06-4.73-.12-6.38-1.41-1.65-1.28-2.66-2.93-3.86-4.37-3.45-4.15-10.27-5.19-18.73-6.28-3.07-.4-6.73-1.53-10.49-3.1,1.73-3.08,2.37-6.73,2.83-9.38,1.11-.22,2.64-.22,3.62.48.68.49,1.87,1.02,2.74.93,1-.11,1.95-.41,2.86-.77,1.1.45,2.44,1.11,2.59,1.72.12.49.46,1.2.9,1.5,1.42.96,2.65,1.01,3.95,1.21.82.12,2.48-.24,3.27-.19,1.38.08,1.58.52,2.17.66,2.52.6,4.95,4.07,5.09,7.13.47-3.18-2.26-8.05-5.08-8.35-.64-.07-1.14-.82-2.65-1.07-.77-.12-1.25.58-2.53.56-1.02,0-1.7-.34-2.47-1.37-.25-.34-.45-.73-.64-1.12-.4-.78-.93-1.55-1.74-2.05.57-.33,1.1-.66,1.58-.96,1.17-.72,3.02-.93,4.05-1.74.79-.62,1.49-2.51,2.33-3.08,3.15-2.13,12.69-3.59,16.97-3.57-4.88-1-14.79-.31-18.69,2.32-.89.6-1.73,1.26-2.57,1.93-1.02.81-1.98,1.57-3.02,2.21-1.44.89-3.6,1.85-5.68,1.37-.68-.16-1.34-.44-2.01-.73-1.17-.49-2.44-1-3.78-.97.19-.58.35-1.15.39-1.67.1-1.24-.85-3.22-.68-4.47.65-4.71,6.49-15.72,9.64-20.22-4.33,4.48-11.04,15.38-11.85,21.2-.18,1.33-.29,2.65-.39,3.97-.12,1.6-.24,3.11-.5,4.63-.37,2.1-1.2,5.01-3.09,6.89-.46.45-1,.84-1.52,1.23-5.33-2.62-10.54-5.94-14.22-9.23-6.5-5.8-10.69-1-17.03,3.78,1.07-2.98,2.27-6.45,3.18-9.51,1.63-.62,3.56-1.89,4.26-2.69.38-.44.75-.87,1.18-1.22,1.31-1.08,3.19-1.15,4.53-1.03.97.09,1.92.29,2.93.51.83.18,1.66.35,2.5.47,3.69.5,10.99-2.5,14.11-4.92-3.04,1.52-10.34,3.84-13.33,3.43-.79-.11-1.96-1.21-2.74-1.37-1.02-.22-2.41.29-3.49.18-1.72-.16-4.17-.43-6.29.36-.65.24-1.33.62-1.64,1.21-.3.57-.59.8-.91.89.03-.13.06-.27.09-.38.22-1.11,1.76-3.37,2.54-3.97,1.62-1.25.85-4.35,2.33-5.19,4.18-2.34,6.3-4.37,11.09-3.17,2.13.53,3.01-.36,4.01-.95,1.01-.59,2.71-.72,3.98-.67,3.73.16,6.73-.94,9.13-2.9,1.03-.84,1.12-3.22,2.22-3.92,3.33-2.1,7.05-1.4,10.86-.37,1.23.35,3.01.48,4.13-.04,1.24-.57,2.21-1.69,2.95-2.88.2.12.41.26.65.37.42.21,1.13.39,1.6.26,1.54-.43,2.83-1.59,3.75-2.39.58-.51,1.58-.79,2.08-1.34.38-.42.59-1.53,1-1.92,1.54-1.47,6.69-3.16,9.05-3.54-2.79-.1-8.21,1.19-10.12,3.01-.43.41-.84.86-1.24,1.3-.49.54-.95,1.05-1.47,1.5-.72.63-1.82,1.36-3.02,1.28-.39-.03-.78-.12-1.18-.22-.06-.01-.13-.03-.19-.04.24-.53.45-1.04.6-1.45,2.11-5.71,9.07-14.35,15.59-19.82-7.34,4.28-15.27,13.19-18.14,19.26-.46.98-1.9.98-2.57,1.56-1.22,1.05-.66,3.14-1.91,2.82-5.13-1.32-10.18-2.99-14.33-.36-1.22.77-2.37,1.71-3.51,2.64-2.11,1.72-4.1,3.35-6.42,3.67-.89.11-1.31-.99-2.88-.96-.86.01-1.37.32-1.97.59.27-.54.53-1.08.78-1.61.34-.75.69-1.5,1.08-2.17,1.22-2.06,3.04-3.19,4.35-3.78.95-.42,1.88-.7,2.87-.99.82-.24,1.63-.48,2.46-.81,3.62-1.42,8.7-11.17,7.07-17.52.72,5.04-3.45,14.09-6.38,15.24-.78.3-1.96-.41-2.73-.18-.32.09-.68.31-1.04.56.06-1.31-.21-2.51-.47-3.61-.15-.63-.3-1.25-.38-1.9-.23-2,.44-4.22,1.04-5.73.43-1.09.94-2.12,1.47-3.2.44-.9.87-1.79,1.28-2.73,1.76-4.1-.61-11.39-4.57-11.25,2.51.65,5.28,6.39,3.86,9.7-.38.88-1.57,1.77-1.98,2.62-.54,1.1-.73,2.94-1.21,4.16-.2.5-.42,1.06-.65,1.66-.28-.74-.74-1.18-1.21-1.48-.23-.15-.47-.3-.67-.51-.61-.65-.79-1.28-.76-2.28.04-1.26.48-1.8.43-2.54-.1-1.46-.55-1.86-.57-2.49-.09-2.73-3.26-3.35-5.34-.21,1.62-1.97,4.31-2.06,4.59.35.07.56.33.71.33,2.06,0,.77-.28,2.44-.23,3.23.07,1.26.06,2.46.61,3.75.17.4.59.66.89.72.37.08.73,1.33.97,2.37-.25.94-.47,1.9-.57,2.88-.09.86.2,1.97.48,2.59.4.88.35,2.39.18,3.5-1.67.74-3.99,1.77-5.96,3.86-.62.66-1.22,2.01-1.5,2.91-.3.99-1.58,2.34-2.77,3.43-4.49.39-8.06,1.13-11.68,3.16-1.65.92-3.23,3.88-4.61,5.76-.87,1.18-1.69,4.45-2.09,5.65-2.63,7.84-11.92,20.34-15.33,24.77-3.3.88-6.48.91-9.33-.54-6.49-3.3-.51-8.89,2.77-15.9,2.87-6.14,5.58-7.85,3.8-13.33,2.02-.82,3.61-2.56,4.75-3.77.73-.78,2.07-1.31,2.67-2.13.47-.63.61-2.19,1.12-2.78,1.92-2.24,8.77-5.28,11.98-6.13-3.85.25-11.14,2.78-13.51,5.55-.54.63-1.03,1.3-1.53,1.96-.6.81-1.16,1.58-1.81,2.27-.9.96-2.32,2.12-3.98,2.18-.28.01-.58-.04-.87-.07-3.36-7.35-1.88-9.05,3.03-13.46,2.02-1.82,3.83-3.19,5.86-4.46,1.42-.09,3-.05,3.47.49.43.49,1.23,1.11,1.9,1.19,2.19.28,3.63-.38,5.23-.92,1.01-.34,2.7-1.72,3.64-2.12,1.63-.71,2.11-.33,2.87-.51,3.24-.78,8.05,1.78,9.99,5.21-1.32-3.92-7.28-7.91-10.69-6.62-.78.3-1.34-.85-3.21-.24-.96.31-1.54,1.95-3.02,2.68-1.18.59-2.14.6-3.63-.13-.48-.24-.94-.57-1.39-.91-.26-.19-.52-.38-.8-.56,2.08-1.05,4.48-2.17,7.55-3.57,9.21-4.2,2.75-6.98,5.41-15.53,2.56-8.22,7.5-8.85,13.71-12.94,5.16,2.18,13.8-1.28,15.37-.35.89.53,2.47,1.1,3.68.99,3.93-.35,7.7-2.16,10.37-3.41.63-.3,1.39-.51,2.17-.71.45.46.83,1.04.82,1.67,0,.6-.45,2.02-.04,2.49,1.34,1.53,3.55,1.8,4.98,2.41.9.39,1.66,1.45,2.56,1.72.69.21,2.15.07,2.82.33,2.54.97,2.21,6.98.24,9.33,3.24-3.48,2.82-9.36-.32-10.56-.72-.27-1.45-.49-2.18-.71-.89-.27-1.73-.52-2.53-.86-1.11-.48-2.56-1.35-3.13-2.77-.18-.46-.29-.97-.4-1.48-.16-.72-.35-1.49-.71-2.17.54-.17,1.06-.36,1.48-.61,1.15-.68,2.04-3.08,3.24-3.7,4.55-2.32,14.38-.72,17.59,7.21-1.53-7.85-12.76-11.08-18.39-8.2-1.28.66-3.67,1.38-4.89,2.1-1.48.88-2.89,1.71-4.38,2.41-2.08.97-5.14,2.03-7.97,1.52-.91-.17-1.81-.47-2.7-.77-1.87-.63-8.67-.37-12.64-1.84,1.06-2.87,1.15-6.21,1.75-10.08,1.02-.63,2.38-2.16,3.43-3.4,2.01,1,5.26,2.36,5.88,2.32.34-.02.68-.04,1.01,0,1,.11,1.49.43,1.9,1.12.52.86.28,1.89.67,2.36.76.92,1.42.52,1.72.93,1.32,1.78,5.68,1.68,7.63.11-2.11,1.12-5.41.86-6.81-.6-.33-.34-.7-.3-1.3-1.2-.35-.51-.76-1.77-1.17-2.28-.64-.8-1.17-1.6-2.38-2.18-.37-.18-.98-.13-1.36-.01-.53.16-2.71-1.54-3.97-2.59.19-.19.38-.4.59-.55,1.16-.85,2.74-.82,3.86-.66.81.12,1.6.34,2.44.56.69.19,1.38.37,2.09.51,3.09.59,9.37-1.6,12.11-3.5-2.63,1.14-8.89,2.76-11.38,2.28-.66-.13-1.59-1.11-2.24-1.28-.85-.23-2.04.13-2.95,0-1.44-.22-3.49-.55-5.31.01-.56.17-1.15.81-1.44,1.3-.28.46-.97.94-1.68,1.3,1.34-3.84,3.31-7.66,5.65-11.29,1.52-.62,3.35-1.08,5.11-.71.92.19,2.4.33,3.27.1,2.78-.72,4.8-2.24,6.26-3.35,1.06.39,2.4,1.07,2.98,1.85.4.54,1.24,1.33,2.03,1.67.91.39,1.85.66,2.8.9.79.71,1.71,1.63,1.61,1.99-.09.29-.07.79.2,1.13.87,1.1,1.92,1.68,2.99,2.35.67.43,2.27.99,2.94,1.37,1.17.66,1.18.96,1.64,1.29,1.97,1.41,2.74,4.19,1.66,5.74,1.66-1.34,1.18-4.93-1.17-6.34-.54-.32-.67-.91-1.9-1.7-.63-.41-1.32-.28-2.44-.85-.89-.46-1.36-.92-1.63-1.77-.09-.27-.1-.55-.12-.83-.04-.55-.11-1.16-.6-1.76.59.08,1.15.16,1.65.22,1.31.17,3.01.89,4.23.95.94.05,2.3-.56,3.25-.46,3.59.36,12.52,3.91,16.26,5.82-3.88-2.66-12.83-6.75-17.27-7.2-1.01-.1-2.01-.15-3-.21-1.21-.06-2.35-.12-3.51-.27-1.61-.21-3.88-.7-5.51-1.87-.53-.38-1-.82-1.48-1.25-.83-.76-1.75-1.58-2.93-2.16.4-.2.76-.4,1-.64.57-.56.52-1.95,1.16-2.48,2.42-2.01,11.86-4.77,16.37-5.56-5.55.25-15.71,2.58-18.7,5.06-.68.56-1.29,1.16-1.9,1.76-.73.73-1.43,1.41-2.26,2.04-1.15.86-3.01,1.91-5.41,1.98-.78.02-1.6-.04-2.42-.1-.85-.06-1.68-.33-2.49-.56,2.93-3.95,6.17-7.56,9.33-10.52,3.39-3.18,6.48-3.73,10.69-5.87.24-.12.63-.36,1.04-.62,2.53-.35,7.42-1.25,7.89-1.73.24-.25.47-.49.73-.69.81-.6,1.39-.69,2.16-.46.96.28,1.48,1.2,2.09,1.29,1.18.16,1.4-.58,1.89-.48,2.17.41,5.31-2.61,5.69-5.08-.79,2.25-3.4,4.29-5.42,4.17-.47-.03-.72.25-1.77,0-.6-.14-1.76-.79-2.4-.89-1.01-.15-1.94-.39-3.22,0-.39.12-.81.57-1.01.91-.34.57-2.58.77-4.08.31.97-1.68,1.94-3.77,3.14-4.88,2.02-1.87,3.59-4.08,5.11-6.22.61-.85,1.22-1.71,1.85-2.54.46-.61.93-1.18,1.39-1.76.98-.09,2.02-.36,2.57-.67.35-.2.71-.4,1.08-.53,1.13-.4,2.39,0,3.25.41.62.29,1.2.66,1.82,1.04.51.32,1.02.63,1.55.91,2.33,1.22,7.9.98,10.55.12-2.38.28-7.79.06-9.68-.93-.5-.26-1.01-1.27-1.49-1.57-.62-.39-1.67-.39-2.36-.72-1.1-.52-2.67-1.28-4.26-1.28-.14,0-.29.08-.44.13,4.79-5.4,10.25-9.84,19.08-14.22-9.68,3.4-17.88,9.66-25.04,17-.76.78-3.69,1.59-4.32,2.48-1.48,2.08-1.31,4.11-3.07,5.73-1.33,1.23-2.86,2.25-4.47,3.33-.62.42-1.24.83-1.84,1.25-.25.17-.53.35-.79.52.02-.65,0-1.29-.04-1.89-.04-.68-.09-1.36-.04-2.03.17-2.06,1.48-4.01,2.54-5.28.77-.91,1.61-1.74,2.5-2.61.73-.72,1.46-1.44,2.16-2.21,3.05-3.39,3.11-12.64-2.09-15.17,3.5,2.41,4.03,10.62,1.57,13.36-.65.73-2.3,1.15-2.99,1.83-.29.28-.54.66-.79,1.07-.65-.8-1.59-1.31-2.47-1.76-.5-.26-1-.51-1.44-.83-1.33-1-1.83-2.76-2.03-4.06-.14-.94-.17-1.89-.2-2.9-.03-.83-.05-1.66-.14-2.49-.38-3.63-6.86-6.18-10.98-3.28,3.01-1.4,9.07-.04,9.38,2.89.08.78-.69,2.14-.66,2.92.03,1.02.83,2.22.99,3.27.06.41.12.86.2,1.33-.69-.22-1.41-.07-2.07.08-.33.08-.66.16-.99.18-1,.06-1.53-.18-2.05-.78-.65-.76-.47-1.39-.93-1.78-.9-.78-1.59-.69-1.96-1.04-1.59-1.52-5.28.37-5.77,3.67.64-2.29,3.43-4.25,5.04-3.05.38.28.73.18,1.47.96.42.44,1.04,1.61,1.52,2.04.76.67,1.41,1.38,2.69,1.74.39.11.98-.04,1.34-.21.44-.22,1.5.26,2.31.69.24.72.54,1.43.97,2.07.38.56,1.29,1,1.92,1.16.9.23,1.67,1.14,2.09,1.9-1.36,1.62-3.25,3.86-4.2,6.47-.3.82-.2,2.03,0,2.75.19.68-.13,2-.58,3.25-2.37,1.42-4.8,2.92-6.67,4.63-.17-.44-.44-.84-.69-1.22-.19-.28-.39-.56-.53-.86-.42-.91-.4-1.5-.03-2.2.47-.89,1.47-1.21,1.67-1.79.39-1.13-.29-1.49-.1-1.95.84-2.05-1.5-5.72-3.86-6.58,2.05,1.23,3.53,4.18,3.01,6.14-.12.46.1.75-.35,1.73-.26.56-1.12,1.57-1.34,2.18-.35.96-.77,1.83-.63,3.16.04.41.4.91.69,1.17.36.32.31,1.45.22,2.36-6.06,8.41-19.65,20.78-24.3,31.02-4.48,7.62-6.5,10.5-11.36,12.82.03-.43.12-.94.08-1.22-.16-1.22-.12-1.43.47-2.21.43-.56.44-.89.96-1.42.43-.45,1.01-1.3,1.34-1.82,1.8-2.81,2.13-7.37,1.82-10.23-.22,2.46-1.58,7.86-2.98,9.55-.37.45-1.49.75-1.9,1.17-.52.55-.74,1.6-1.22,2.23-.76,1-1.86,2.41-2.19,4.02-.07.35-.27,1.55-.3,2.38-3.09,2.96-4.11,7.73-6.7,13.27-3.27,7.01-7.37,8.82-11.93,11.7-4.56,2.88-6.77.91-3.5-6.1,3.27-7.01,6.81-15.85,11.1-19.3,6.08-4.89,6.71-12.97,13.07-17.25,0,0,3.13-2.08,4.15-3.44.91-1.22,1.41-2.62,1.8-3.85.06-.19.11-.38.17-.57.24.13.49.27.77.39.48.21,1.28.37,1.8.19,1.69-.57,3.06-1.95,4.03-2.91.61-.6,1.72-.98,2.23-1.62.4-.49.57-1.74,1-2.2,1.63-1.74,7.26-3.94,9.88-4.52-3.12.06-9.08,1.85-11.1,3.99-.46.49-.88,1.01-1.3,1.53-.51.63-.99,1.23-1.54,1.77-.76.74-1.94,1.63-3.29,1.62-.43,0-.88-.09-1.33-.17-.18-.03-.36-.06-.55-.09.09-.29.18-.57.26-.86,1.16-3.95,2.05-7.38,5.33-10.27,1.46-1.28,1.46-3.65,2.54-5.11.74-.09,1.34-.55,1.88-.98.27-.21.53-.43.82-.59.88-.49,1.98-.33,2.75-.11.55.16,1.09.38,1.65.61.47.19.93.38,1.41.54,2.1.69,6.68-.27,8.76-1.35-1.94.56-6.45,1.13-8.14.57-.45-.15-1.01-.91-1.45-1.09-.57-.24-1.44-.09-2.06-.27-.63-.18-1.43-.35-2.27-.44,4.69-4.35,10.44-11.08,14.28-15.56-3.12,3.1-7.21,6.62-11.01,9.84-.03-.64-.26-1.23-.56-1.75-.16-.28-.32-.55-.43-.84-.33-.89-.26-1.43.14-2.07.51-.79,1.47-1.02,1.7-1.55.46-1.03-.16-1.41.06-1.84.94-1.85,1.2-6.71-.49-9.71,1.08,2.55.38,7.44-.26,9.23-.15.42.04.71-.46,1.59-.29.51-1.17,1.38-1.42,1.93-.4.87-.86,1.65-.84,2.91,0,.39.31.88.56,1.15.37.39.13,1.82-.06,2.69-1.87,1.59-3.63,3.08-5.06,4.34-1.82,1.61-4.22,3.14-5.75,5.25-2.6,3.58-3.83,7.79-5.02,11.86-.33,1.12-1.29,1.9-1.92,2.49-.76.71-1.49,1.7-1.78,2.62-.5,1.59-2.09,3.47-2.92,4.09-1.07.8-2.24,1.75-3.45,2.76-.1-.49-.29-.95-.48-1.39-.16-.38-.32-.75-.41-1.13-.27-1.17-.1-1.85.51-2.58.76-.92,2.02-1.05,2.39-1.68.74-1.22.03-1.81.37-2.3,1.48-2.18-.34-7.05-2.88-8.63,2.09,1.94,3.09,5.75,2,7.9-.26.5-.07.9-.84,1.93-.44.59-1.7,1.55-2.1,2.21-.64,1.04-1.35,1.94-1.52,3.53-.05.49.25,1.16.52,1.54.37.51-.05,2.01-.41,3.08-4.69,4.26-9.48,9.55-11.74,14.77-.05.12-.1.2-.16.32-.18-.59-.36-1.31-.18-1.69.82-1.79,1.04-3.38,1.01-4.88-.02-.95.51-2.12.39-3.02-.09-.69-1.06-2.54-1.1-3.24-.16-2.62,1.82-7.1,3.34-9.64-2.31,2.54-4.78,7.75-4.59,10.99.04.74.14,1.47.24,2.2.12.89.23,1.73.25,2.57.02,1.17-.17,2.79-1.19,3.86-.33.35-1.74,1.88-1.93,2.35-1.06,2.73-.45,5.84-.2,7.8-1.39,2.12-2.86,4.12-4.52,6.53-3.39,4.92-9.43,9.46-13.5,11.79-4.07,2.33.08-7.88,3.81-15.96,3.74-8.09,8.82-14.98,13.02-20.16,3.18-3.91,3.71-9.21,4.6-14.1.99-1.04,2.22-2.13,2.95-2.04.65.07,1.65-.02,2.21-.41,1.8-1.28,2.42-2.74,3.23-4.22.52-.93.83-3.1,1.24-4.03.72-1.62,1.33-1.67,1.77-2.32,1.85-2.76,7.13-4.14,10.88-2.92-3.62-1.99-10.71-.9-12.35,2.36-.37.74-1.56.28-2.53,2-.5.88.19,2.48-.41,4.02-.47,1.23-1.17,1.89-2.76,2.36-.52.15-1.08.21-1.64.27-.47.05-.96.13-1.44.23.18-.53.34-1.07.56-1.57,1.05-2.36,3.17-4.33,3.89-6.07,2.16-5.26,1.46-9.45,5.91-11.94,1.54-.86,3.96-.7,5.55-1.46,1.39-.66,2.3-2.01,3.68-2.99,2.3-1.61,3.23-3.66,4.09-5.97.8-.41,1.79-.82,2.2-.61.35.18.94.33,1.34.22,1.28-.35,1.93-1.05,2.7-1.72.48-.42,1.11-1.58,1.53-2.03.75-.77,1.1-.67,1.48-.95,1.62-1.18,4.4.79,5.02,3.09-.47-3.3-4.14-5.22-5.74-3.71-.36.34-1.06.26-1.96,1.03-.46.39-.29,1.03-.94,1.78-.52.6-1.05.83-2.05.77-.32-.02-.65-.1-.98-.18-.52-.13-1.09-.24-1.65-.18.41-1.09.82-2.18,1.34-3.19,2.13-4.17,6.19-7.31,9.76-10.09-4.18,1.88-8.75,5.54-10.98,8.62-.84,1.16-2.49,3.62-3.01,4.99-1.04,2.75-2.64,4.24-4.7,5.68-.44.31-.94.41-1.47.47.25-.34.52-.72.71-1.11.17-.36.46-1.1.5-1.5.14-1.33-1.11-1.44-1.45-2.41-.22-.61-.13-1.48-.41-2.03-.21-.43-1.01-.93-1.19-1.37-.68-1.66-.42-6.2,0-8.16-.93,2.15-1.58,6.78-.75,8.83.19.47.41.92.64,1.37.27.55.53,1.06.73,1.61.27.75.5,1.84.08,2.75-.14.3-.34.58-.53.86-.36.52-.76,1.1-.85,1.77-.77.44-1.52,1.19-2.26,1.54-6.38,3.04-8.98,10.09-11.27,16.3l-.75,2.02c-1.8,4.78-5.79,11.65-9.78,16.86-1.4-5.59.81-13.68-.95-20.89.5-1.11,1.08-2.14,1.64-2.47.64-.39,1.53-1.21,1.87-2.02,1.1-2.63,1.2-5.65,1.3-7.78.02-.34.07-.7.15-1.08.53-.13,1.11-.2,1.58.06.38.21,1.03.4,1.46.3,1.43-.34,2.66-1.36,3.54-2.07.55-.45,1.49-.67,1.96-1.16.37-.37.6-1.39.99-1.73,1.47-1.3,5.05.77,5.9,2.81-.71-3.28-5.04-4.95-6.86-3.34-.41.37-.8.76-1.19,1.16-.47.48-.91.93-1.4,1.33-.68.55-1.72,1.19-2.82,1.07-.36-.04-.72-.14-1.08-.24-.51-.14-1.07-.28-1.63-.27.07-.41.12-.8.1-1.15-.05-.97-.97-2.39-.96-3.37.04-3.69,5.99-9.37,10.2-8.77-5.53-1.66-11.76,5.19-11.81,9.75-.01,1.04.04,2.06.09,3.09.06,1.24.12,2.42.07,3.61-.07,1.66-.43,3.97-1.7,5.6-.41.53-.91,1-1.4,1.46-.46.44-.93.92-1.37,1.43-.31-.64-.72-1.47-1-2.39-.26-.85.55-2.17.48-3.4-.14-2.4-1.1-2.57-1.05-4.37.18-6.35,1.86-10.88,4.13-15.81,1.86-1.07,4.7-3.02,5.04-3.55.19-.29.37-.57.59-.81.69-.74,1.24-.94,2.03-.86,1,.1,1.68.9,2.29.87,1.19-.06,1.27-.83,1.77-.83,2.21,0,4.73-3.55,4.64-6.06-.36,2.36-2.54,4.85-4.54,5.11-.47.06-.66.38-1.74.33-.62-.03-1.88-.45-2.52-.42-1.02.04-1.98-.02-3.17.61-.36.19-.69.71-.82,1.09-.16.43-1.09.79-1.94,1.04.62-1.29,1.25-2.63,1.9-4.07.69-1.53,1.15-4.49,2.01-5.92,1.62-2.7,2.04-3.9,3.97-7.16-2.05,2.92-4.76,5.87-6.2,8.61-.42.8-.95,1.96-1.48,3.13-.21-.3-.48-.56-.75-.79-.2-.16-.39-.32-.55-.5-.49-.57-.59-.99-.46-1.57.15-.72.81-1.16.83-1.61.05-.88-.51-1-.46-1.37.18-1.63-2.22-3.78-4.07-3.92,1.71.46,3.36,2.27,3.38,3.77,0,.35.22.52.1,1.31-.07.45-.49,1.34-.52,1.82-.06.76-.18,1.46.18,2.38.11.28.47.56.73.7.35.17.55,1.11.66,1.81-.3.63-.58,1.19-.81,1.6-3.51,6.02-5.74,10.5-6.95,15.94-.17-.12-.34-.24-.48-.48-.29-.48-.58-.96-.79-1.47-.65-1.57-.42-3.49-.12-4.82.22-.96.53-1.88.85-2.85.27-.8.53-1.6.75-2.43.96-3.63-2.47-10.42-7.22-10.32,3.47.45,6.94,6.26,6.16,9.19-.21.78-1.25,1.71-1.5,2.46-.1.31-.11.71-.14,1.09-.79-.36-1.68-.37-2.51-.37-.46,0-.93,0-1.36-.07-1.35-.23-2.38-1.33-3.01-2.21-.45-.64-.83-1.32-1.23-2.05-.33-.6-.66-1.19-1.03-1.77-1.64-2.51-7.34-1.95-9.27,1.72,1.68-2.16,6.62-3.44,7.95-1.41.35.54.3,1.82.61,2.39.4.73,1.44,1.31,1.95,2.02.21.29.44.62.69.96-.6.1-1.1.42-1.53.78-.21.18-.43.36-.65.5-.71.42-1.19.44-1.79.2-.76-.31-.86-.84-1.35-.96-.95-.23-1.43.09-1.82-.03-1.73-.52-3.72,2.25-2.84,4.85-.39-1.91.92-4.4,2.55-4.13.38.06.61-.14,1.44.15.48.17,1.37.79,1.88.92.81.21,1.55.48,2.62.27.33-.07.7-.4.9-.66.24-.32,1.19-.37,1.95-.36.45.44.93.85,1.49,1.15.49.27,1.32.25,1.84.13.75-.17,1.65.21,2.25.61-.39,1.7-.93,4.04-.65,6.31.09.71.81,2.36,1.23,2.81.39.42.95,1.47,1.42,2.54-.11.99-.19,2-.25,3.09-.05.98-.92,2.94-.92,3.99,0,1.99,1.13,3.24,1.66,4.34,3.94,8.14,3.14,16.51.25,25.12-.56,1.67-.42,2.98-.24,3.75.08.37.08,1.13.01,1.97-4.19,3.13-5.2,2.23-8.7,3.32-4.13,1.28-5.99-3.86-8.01-11.61-.04-.17-.1-.36-.15-.53.37-1.9.62-3.84.84-4.5.17-.53.35-1.06.59-1.56.76-1.52,2.35-2.61,3.55-3.25.87-.46,1.76-.83,2.71-1.23.78-.32,1.56-.65,2.33-1.03,3.37-1.65,6.24-8.7,3.05-12.22,1.94,2.91-.17,9.34-2.89,10.68-.72.35-2.11.18-2.84.48-.3.13-.62.34-.93.57-.25-.81-.82-1.49-1.35-2.09-.3-.35-.61-.7-.84-1.07-.71-1.17-.56-2.67-.31-3.72.18-.76.45-1.5.74-2.27.23-.64.47-1.28.65-1.94.82-2.88-3.35-6.81-7.38-5.86,2.73-.15,6.94,2.74,6.28,5.07-.18.62-1.18,1.42-1.4,2.03-.29.79-.04,1.95-.25,2.8-.33,1.35-.81,3.27-.43,5.05.12.54.68,1.16,1.11,1.47.62.45.93,1.38,1.02,2.1-1.54.82-3.66,1.94-5.19,3.65-.21.24-.48.7-.72,1.18-2.03-6.52-4.41-13.5-4.53-17.45-.04-1.52-.15-2.88-.29-4.18,1.1-1.77,2.71-5.7,2.92-6.35.1-.33.2-.65.35-.94.46-.9,1.46-1.38,2.22-1.63.55-.18,1.11-.29,1.71-.41.49-.1.99-.2,1.47-.34,2.13-.6,5.39-3.96,6.51-6.01-1.29,1.55-4.72,4.53-6.44,5.02-.46.13-1.35-.19-1.81-.1-.61.12-1.24.73-1.86.93-.97.32-2.37.75-3.34,1.68-.3.28-.47.87-.5,1.27-.04.49-1.11,1.44-2,2.12-1.59-7.01-4.71-10.81-7.68-17,.13-.44.18-.91.21-1.35.02-.34.04-.68.12-1,.24-.98,1.1-1.68,1.77-2.1.49-.3,1.01-.55,1.57-.81.46-.21.91-.43,1.35-.67,1.93-1.08,4.31-5.11,4.92-7.38-.89,1.81-3.52,5.52-5.08,6.39-.41.23-1.36.13-1.79.33-.56.26-1.04,1-1.59,1.34-.61.37-1.34.91-2.01,1.54.03-.48.06-.97.01-1.45-.12-1.28-.84-2.67-.61-3.55,1.83-6.8,3.52-9.88,2.47-17.89.1,5.59-2.23,11.15-4.8,16.45-.48-.56-1.17-.71-1.81-.81-.28-.04-.55-.08-.81-.17-.78-.26-1.12-.61-1.32-1.22-.26-.77.07-1.2-.16-1.65-.45-.87-1.01-1.02-1.18-1.39-.75-1.65-4.14-1.33-5.52,1.04,1.19-1.55,3.92-2.19,4.78-.79.2.33.5.36.83,1.18.19.47.3,1.55.54,2.02.38.75.65,1.48,1.52,2.15.27.2.76.27,1.09.25.33-.03.84.44,1.29.92-.15.3-.29.59-.44.89-.29.59-.49,1.31-.48,2.14,0,1.15.43,2.12.9,2.82,4.61,6.77,8.08,22.69,8.29,33.18-.18-.17-.37-.35-.55-.52-.61-.56-1.22-1.12-1.73-1.7-1.59-1.8-2.1-3.88-2.25-5.3-.11-1.03-.08-2.01-.05-3.04.02-.85.04-1.7,0-2.59-.24-3.88-5.48-12.88-9.09-17.11,2.51,3.84,6.93,12.62,7.12,15.76.05.83-1,1.74-1.02,2.54,0,.33.09.74.22,1.16-1.23-.46-2.46-.57-3.58-.66-.64-.05-1.29-.1-1.92-.22-1.96-.4-3.85-1.7-5.1-2.73-1-2.36-2.86-5.45-3.31-5.83-.2-.17-.4-.34-.58-.54-.54-.62-.73-1.1-.77-1.78-.05-.85.38-1.4.29-1.93-.17-1.03-.67-1.12-.72-1.55-.25-1.9-2.9-4.04-5.17-5.04,1.91,1.12,4.17,3.19,4.56,4.92.09.41.31.58.41,1.5.05.53-.07,1.59.02,2.14.14.88.21,1.7.74,2.74.16.32.53.62.78.75.28.15.63,1.11.91,1.99-.64-.62-1.29-1.24-1.98-1.84-3.36-2.93-12.46-6.68-17.06-7.69,3.96,1.42,12.64,5.52,15.36,7.89.72.63,1.2,2.04,1.88,2.69.88.85,2.57,1.6,3.59,2.44,1.61,1.33,3.88,3.24,6.47,4.37.79.35,1.94.42,2.61.34.96-.11,2.38.41,3.38.91.19,1.82.46,4.34,1.83,6.86.43.79,1.54,1.78,2.31,2.32.63.44,1.61,1.73,2.55,3.13.52,5.44,2.81,11.88,3.12,17.32.36,6.28-2.74,16.43-4.41,23.87-1.67,7.44-5.81-.72-7.13-5.37-1.31-4.65-1.58-9.36-.37-15.72.29-1.14.43-2.44.41-3.7.19-.09.35-.2.58-.24.99-.18,1.86.42,2.44.22,1.13-.38.99-1.14,1.48-1.28,2.13-.6,3.59-4.7,2.82-7.09.29,2.37-1.13,5.36-2.99,6.15-.44.18-.53.54-1.58.79-.6.14-1.93.08-2.54.28-.09.03-.18.06-.27.09-.17-1.81-.72-3.4-1.77-4.11.27-.35.52-.76.56-1.14.15-1.76-.56-3.55-1.04-4.81-.3-.79-.21-1.95-.59-2.67-.29-.56-1.36-1.2-1.6-1.78-.93-2.17-.7-8.15-.19-10.75-1.18,2.85-1.92,8.97-.77,11.65.26.61.57,1.2.87,1.79.37.71.72,1.39.99,2.1.37.98.71,2.41.17,3.62-.15.33-.36.64-.57.96-3.67-1.53-10.35-3.9-11.87-5.71-.55-.66-1.17-1.49-1.79-2.38.27-.86-.06-1.68-.38-2.41-.14-.31-.28-.62-.36-.94-.24-.98.19-2,.6-2.69.3-.5.64-.96,1.02-1.44.3-.4.61-.8.89-1.22,1.21-1.85,1.45-6.53.94-8.81.05,2.01-.56,6.52-1.54,8.02-.26.4-1.14.74-1.43,1.12-.37.49-.46,1.36-.79,1.92-.41.69-.88,1.63-1.16,2.63-.44-.95-.77-1.86-.81-2.58-.13-2.35.4-6.71.7-8.5.29-1.79-3.9-6.27-6.91-7.28-3.01-1.01-9.01-2.63-12.09-5.02,3.17,3.76,8.61,6,10.63,6.87,2.02.87,3.78,4.11,4.65,5.64.87,1.52.86,4.67-.36,7.5-1.22,2.82-1.09,4.98.57,6.46,1.66,1.48,5.32,6.98,6.15,7.72.83.74,3.17.41,5.03,1.88,1.86,1.47,2.89,2.39,3.19,4.15.3,1.75.3,4.18-.02,7.61-.07.78-.17,1.45-.26,2.11-.78-.26-1.52-.44-1.83-.43-.28.01-.56.03-.84-.02-.88-.17-1.96-.21-2.52-1.04-.71-1.04-1.16-1.45-1.64-2.02-.93-1.13-1.73-1.19-2.21-1.6-2.02-1.71-5.29-2.21-7.75.34,2.12-1.6,5.73-1.03,7.37.76.38.42.68.39,1.47,1.48.45.62,1.2,2.14,1.7,2.76.8.97,1.49,1.95,2.69,2.68.37.22.86.18,1.15.06.27-.12.97.35,1.64.9-.75,2.86-1.52,4.35-1.38,6.75.21,3.66,4.23,9.73,4,14.99-.22,5.26-5.62,11.87-10.01,8.44-4.39-3.42-6.26-8.57-8.25-15.8-1.99-7.23-1.95-13.51-3.87-21.82-1.32-5.74-3.37-14.06-6.17-20.99.12-.44.26-.81.47-.94.34-.2.79-.61.92-.99.41-1.27.18-2.2.04-3.2-.09-.64-.72-1.8-.85-2.39-.24-1.05.04-1.29.02-1.76-.1-2.01,1.95-4.57,4.2-5.34-2.47.34-5.5,3.43-5.12,5.6.09.49-.37,1.03-.22,2.21.08.6.7.8.97,1.76.22.76.12,1.34-.48,2.14-.2.26-.45.49-.69.72-.04.04-.08.09-.12.13-1.19-2.66-2.5-5.05-3.95-6.85-1.66-2.07-3.65-3.77-5.61-5.42.15-.72-.09-1.44-.32-2.08-.12-.32-.23-.64-.29-.96-.18-.99.33-1.98.78-2.64.33-.47.71-.91,1.11-1.37.33-.38.66-.76.97-1.16.39-.52.71-1.3.96-2.18.77-.66,2.43-2.53,2.55-2.91.06-.18.12-.36.2-.51.26-.49.52-.67.95-.74.54-.09,1.02.24,1.33.14.62-.2.55-.62.82-.69,1.17-.31,2.38-2.84,1.91-4.59.14,1.3-.97,3.65-1.99,4.07-.24.1-.3.29-.87.42-.33.07-1.06.03-1.39.13-.54.17-1.05.27-1.59.77-.16.15-.26.47-.28.69-.03.31-.71.75-1.16,1,.23-1.6.28-3.23.11-4.34-.1,2.01-1.02,6.46-2.1,7.89-.29.38-1.19.66-1.5,1.02-.41.46-.55,1.33-.92,1.86-.58.84-1.43,2.03-1.64,3.36,0,.06.02.13.02.19-1.34-2-2.44-4.46-3.59-6.02-1.44-1.95-2.85-2.77-3.98-4.57.2-.43.36-.88.5-1.32.14-.44.27-.87.47-1.26.62-1.2,1.96-1.85,2.97-2.18.73-.24,1.49-.39,2.29-.55.66-.13,1.32-.27,1.97-.45,2.85-.8,7.21-5.3,8.72-8.05-1.58,1.89-5.53,5.37-7.96,6.45.06-.52.19-1.25.45-1.39.19-.1.45-.32.52-.53.25-.69.14-1.21.08-1.76-.04-.35-.37-1-.43-1.33-.11-.58.04-.71.04-.97-.02-1.11,1.69-3.06,2.94-3.45-1.79.26-3.63,2.38-3.45,3.57.04.27-.37.37-.31,1.03.03.33.52.64.66,1.17.11.42.04.74-.3,1.17-.11.14-.25.26-.39.39-.32.28-1.09,1.68-1.24,2.34-.59-.07-1.22-.19-1.65-.1-.81.16-1.66.97-2.48,1.24-1.3.42-3.17,1.01-4.47,2.25-.16.15-.27.39-.37.63-.15-.38-.32-.75-.48-1.13.32-.94.55-1.91.54-2.3-.01-.3-.03-.6,0-.89.11-.88.41-1.31,1.02-1.66.76-.44,1.67-.21,2.09-.55.82-.66.48-1.25.84-1.51,1.59-1.14,1.98-5.64.27-8.01.96,1.88.61,6.06-.69,7.28-.31.28-.28.61-1.08,1.13-.46.3-1.58.64-2.03.99-.71.56-1.43,1-1.96,2.06-.16.32-.13.86-.03,1.2,0,0,0,0,0,0-1.16-2.4-2.57-4.68-4.62-6.56l-.45-.4c-.67-.59-1.31-1.15-1.44-1.69-.21-.85.61-3.04,1.32-4.21.52-.86.96-1.69,1.39-2.52,1.8-1.27,4.6-3.4,4.76-3.89.08-.27.17-.54.29-.78.38-.74.77-1.02,1.42-1.13.81-.14,1.53.34,2.01.18.93-.32.82-.94,1.22-1.05,1.75-.49,2.96-3.87,2.32-5.84.24,1.95-.93,4.41-2.46,5.06-.36.15-.44.45-1.3.65-.5.12-1.59.06-2.09.23-.8.26-1.58.43-2.37,1.19-.24.23-.38.72-.41,1.04-.03.44-1.07,1.15-2.12,1.54,1.15-2.95,1.61-5.83,1.33-8.85.59-.72,1.35-1.56,1.6-1.57.22-.01.54-.1.7-.26.51-.52.63-1.04.81-1.57.11-.33.09-1.06.17-1.39.14-.57.34-.62.44-.86.44-1.01,2.79-2.31,4.94-2.58-2.31.13-5.11,1.32-5.46,2.48-.08.26-.49.18-.71.8-.11.31.21.8.1,1.34-.08.43-.27.69-.77.93-.16.08-.34.13-.52.18-.28.08-.96.55-1.52,1.02-.53-3.03-1.79-6.22-3.99-9.78,4.19,7.49,3.35,17.38-2.05,24.05-.5.61-1,1.29-1.46,1.99-.31-.42-.63-.84-.95-1.23-.4-.5-.81-.99-1.14-1.5-1.02-1.56-1.19-3.21-1.15-4.32.03-.8.16-1.55.29-2.34.11-.65.22-1.3.28-1.99.25-3.01-2.8-10.51-5.1-14.15,1.5,3.23,3.94,10.46,3.75,12.9-.05.65-.96,1.23-1.06,1.84-.04.25.04.61.08.94-.91-.51-1.86-.73-2.72-.92-.49-.11-.98-.21-1.45-.38-1.47-.52-2.79-1.75-3.64-2.68-.61-.67-1.16-1.38-1.73-2.12-.48-.61-.95-1.22-1.47-1.82-2.26-2.63-8.85-6.51-12.27-7.79,2.88,1.53,9.11,5.64,10.94,7.76.49.56.7,1.7,1.15,2.27.58.75,1.8,1.51,2.49,2.27.27.3.65.67.97,1.02-.63-.07-1.1.11-1.48.33-.19.11-.37.22-.59.29-.66.21-1.16.12-1.85-.25-.87-.46-1.09-.95-1.63-1.17-1.05-.43-1.49-.26-1.93-.45-1.94-.87-4.44.43-4.55,2.08.51-1.38,2.62-2.13,4.39-1.5.42.15.61.02,1.55.47.54.26,1.61,1.03,2.18,1.26.9.38,1.74.79,2.82.85.33.02.66-.19.81-.38.19-.24,1.28-.04,2.1.16.55.47,1.08.97,1.7,1.36.57.35,1.44.53,1.97.55.75.02,1.78.57,2.5,1.07-.05,1.42-.13,3.39.66,5.48.25.66.98,1.54,1.52,2.04.44.41,1.01,1.37,1.53,2.4-.14.66-.19,1.35,0,2.08.39,1.63.67,3.87,1.62,4.71l.21.19c-.26.06-.51.14-.77.16-1.63.1-3.58-1.02-4.93-1.97-.97-.69-1.91-1.46-2.89-2.28-.81-.67-1.63-1.35-2.46-1.98-3.68-2.76-11.97-4.79-15.79-4.67,3.52.61,11.63,3.22,14.61,5.46.79.59,1.72,2.27,2.48,2.9,1,.83,2.56,1.27,3.65,2.04,1.73,1.23,4.19,2.99,6.58,3.66.73.2,1.61-.06,2.08-.37.09-.06.16-.13.24-.19,1.69,1.82,3.14,3.81,4.19,6.45.3.74.63,1.6.99,2.5-.1-.11-.2-.21-.31-.32-.34-.3-.94-.65-1.41-.65-.91,0-1.79.27-2.59.59-1.03-.82-3.14-2.12-3.77-2.16-.3-.02-.6-.03-.88-.09-.87-.2-1.26-.53-1.55-1.17-.36-.8-.05-1.68-.34-2.13-.57-.89-1.19-.6-1.41-.99-.97-1.69-7.41-2.34-12.05-4.37,4.21,2.45,10.2,3.3,11.28,4.72.25.33.58.34,1.02,1.18.25.48.48,1.63.79,2.11.48.76.86,1.53,1.86,2.15.31.19.85.21,1.19.15.48-.08,1.43.77,2.02,1.37-.63.2-1.39.28-1.89.59-.46.29-.94,1.26-1.42,1.51-1.8.96-5.88,1.43-8.16,1.18,2.54.81,6.78.77,9-.42.51-.27.99-.58,1.48-.88.59-.37,1.15-.72,1.74-1.01.82-.39,2.02-.78,3.11-.41.35.12.69.31,1.03.5.66.36,1.38.75,2.18.75.97,2.27,2.06,4.58,3.25,6.19,1.89,2.56,3.75,2.85,6.07,4.8,2.08,1.74,2.87,5.36,4.46,7.33,1.59,1.97,3,4.87,4.24,8.13-2.66-.61-5.5-.3-7.57-.06-.4-.78-.74-1.92-.43-2.8.22-.61.36-1.62.1-2.24-.84-2.04-2.65-3.63-3.91-4.76-.79-.71-1.35-2.05-2.18-2.64-.64-.45-5.52-.41-6.12-.9-2.27-1.88-5.75-5.67-6.66-8.86.32,3.85,3.3,8.09,6.1,10.41.64.53,4.64.85,5.32,1.33.82.58,1.6,1.13,2.3,1.77.98.88,2.16,2.28,2.26,3.94.03.54-.04,1.1-.1,1.66-.11.97-.21,2.04.1,3.03-.48-.02-.93-.01-1.33.07-.95.2-2.21,1.33-3.18,1.47-3.65.54-10.7-1.26-14.73-2.62,4.28,2.25,11.43,4.73,15.94,4.06,1.03-.15,2.03-.36,3.04-.57,1.22-.26,2.37-.5,3.56-.64,1.65-.18,3.99-.2,5.8.81.59.33,1.13.74,1.67,1.15.51.39,1.06.78,1.64,1.14,1.02,3.37,1.84,6.86,2.48,10.14-.5-.17-.96-.33-1.12-.45-1.49-1.13-2.69-.66-4.09-.95-.88-.18-1.26-.85-2.12-.92-.66-.06-2.69.06-3.35-.04-2.46-.4-6.04-1.84-8.07-3.77,1.88,2.67,6.92,6.8,9.97,7.29.69.11,1.39.17,2.09.23.85.07,1.65.14,2.44.3,1.09.22,2.55.73,3.33,1.9.25.38.44.82.63,1.25.35.78.74,1.63,1.42,2.23.91,7.66.45,13.68-3.57,12.43-4.27-1.33-7.32-5.26-10.63-11.46-4.33-8.13-12.13-19.19-19.81-19.58-.36-.02-.74-.02-1.11-.02-.79,0-1.54,0-2.11-.22-1.34-.49-.98-2.46-1.4-4.65-.22-1.14-.91-2.81-1.87-3.53-1.11-.84-2.37-1.44-3.64-1.95-.32-1.17-.85-2.33-1.37-3.41-.36-.74-.72-1.49-.98-2.22-.81-2.26-.52-4.38-.14-5.76.28-1,.66-1.9,1.07-2.84.33-.78.67-1.57.94-2.41,1.21-3.69-3.07-13.82-9.01-16.6,4.34,2.65,8.67,11.63,7.69,14.62-.26.79-1.57,1.25-1.88,1.99-.13.31-.19.72-.23,1.16-.97-.88-2.07-1.44-3.08-1.93-.58-.28-1.16-.56-1.7-.92-1.68-1.1-2.97-3.02-3.76-4.45-.56-1.03-1.04-2.07-1.54-3.17-.41-.91-.82-1.81-1.29-2.72-2.05-3.97-9.17-6.79-11.59-3.64,2.1-1.52,8.29,0,9.94,3.2.44.85.37,2.34.76,3.19.5,1.11,1.8,2.43,2.44,3.58.24.44.51.94.81,1.45-.73-.24-1.33-.08-1.85.08-.27.08-.53.17-.82.19-.89.06-1.49-.2-2.24-.86-.95-.83-1.08-1.52-1.69-1.95-1.19-.85-1.79-.77-2.28-1.15-2.17-1.67-4.66.39-3.56,3.99-.49-2.5,1.16-4.63,3.19-3.31.48.31.76.2,1.8,1.06.6.49,1.71,1.77,2.35,2.23,1.02.74,1.94,1.51,3.28,1.92.41.12.88-.04,1.12-.23.3-.23,1.49.29,2.44.76.56.79,1.16,1.57,1.86,2.27.61.62,1.65,1.1,2.3,1.28.93.25,2.06,1.25,2.81,2.09-.49,1.76-1.18,4.2-.82,7.06.11.9.77,2.22,1.29,3.01.39.58.77,1.08,1.12,1.54-1.44-.4-2.84-.7-4.02-.94-1.86-.38-3.92-1.93-5.73-2.08-.28-.02-.62.03-.97.1,0-.02,0-.04.01-.07.04-.39-.01-1-.25-1.34-.78-1.09-2.07-1.78-2.97-2.27-.57-.31-1.08-1.02-1.65-1.25-.44-.18-1.38-.03-1.8-.24-1.6-.8-4.41-4.37-5.4-6.13.72,2.23,3.3,6.13,5.28,7.12.45.22.92.41,1.38.61.57.23,1.1.45,1.61.73.7.38,1.59,1.04,1.88,2.01.09.31.13.65.17.99,0,.08.04.16.05.24-.96.26-1.92.51-2.6.4-5.19-.84-16.18-8.42-20.47-12.5,3.96,5.63,14.6,14.34,21.01,15.38,1.46.24,2.94.37,4.41.49,1.79.15,3.48.3,5.14.64,2.3.47,5.38,1.55,7.02,4.01.53.8.93,1.72,1.34,2.64,1.01,2.27,2.15,4.84,4.91,5.84,1.15.42,2.29.43,3.3.43l.95.02c6.02.31,7.44,2.88,10.45,8.52.72,1.34,1.94,5.55,1.44,7.05-.22.64-.34,1.29-.41,1.95-8.95-.19-21.28-8.45-24.24-8.76-2.13-.22-2.62-1.36-3.22-2.29-2.32-3.58-5.49-8.49-11.35-8.15-.49.03-1.04.06-1.61.1-1.55-.79-2.92-1.59-3-2.02-.1-.51-.41-1.26-.84-1.59-1.41-1.07-2.68-1.19-4-1.46-.84-.17-2.57.11-3.38.02-1.42-.16-1.6-.62-2.2-.8-2.56-.76-4.88-4.46-4.85-7.62-.66,3.25,1.88,8.42,4.77,8.88.66.11.59,1.12,2.14,1.46.79.17,1.85-.74,3.17-.65,1.05.07,1.73.44,2.47,1.55.24.36.42.77.6,1.19.2.45.42.93.71,1.36-.49.03-.97.07-1.47.1-5.95.42-11.07.36-14.41-.87-2.98-1.1-4.62-2.74-6.01-4.77.22-1.13.65-2.58,1.13-3.03.38-.36.84-1.02.89-1.56.15-1.76-.56-3.55-1.04-4.81-.3-.8-.21-1.95-.59-2.67-.29-.56-1.36-1.2-1.6-1.78-.93-2.17-.7-8.15-.19-10.75-1.18,2.85-1.92,8.97-.77,11.65.26.61.57,1.2.87,1.79.37.71.72,1.39.99,2.1.37.98.71,2.41.17,3.62-.18.39-.43.77-.68,1.14-.4.59-.8,1.25-.98,1.98-1.24-1.14-2.63-1.79-2.94-3.61-.09-.51-.11-2.01-.71-2.96-1.21-1.93-2.91-3.45-5.4-4.01-1.14-.91-3.09-1.92-3.9-2.05-.41-.06-.83-.12-1.2-.25-1.17-.39-1.66-.9-1.98-1.83-.39-1.16.1-1.79-.24-2.46-.67-1.3-1.5-1.52-1.75-2.08-1.11-2.46-6.18-1.98-8.24,1.55,1.77-2.32,5.85-3.27,7.14-1.17.3.49.75.54,1.24,1.77.28.7.45,2.31.8,3.01.56,1.12.98,2.21,2.27,3.21.27.21.68.29,1.08.33-.59.11-1.18.23-1.82.42-3.21.95-7.2,3.17-8.83,8.23-.79,2.45-1.41,7.21-1.41,7.21,0,0,1.43-4.01,2.06-5.28,2.29-4.59,3.8-6.18,8.57-7.36,4.23-1.02,7.11-.59,9.25,3.24.29.51.26,2.24.56,2.92.57,1.29,2.29,2.3,3.54,4.32,1.18,1.92,2.22,3.57,3.2,4.93-.15.09-.3.17-.44.26-.5.3-.99.6-1.49.83-1.53.71-3.03.64-4.02.46-.72-.13-1.37-.34-2.06-.57-.57-.18-1.14-.37-1.75-.51-2.66-.61-9.48,3.02-11.05,7.36,1.58-3.21,7.6-6.8,9.75-6.31.57.13.98,1.02,1.51,1.19.24.08.61.06.96.05-.58.75-1,1.55-1.28,2.31-.16.42-.32.85-.53,1.25-.66,1.25-1.93,2.27-2.88,2.91-.68.46-1.38.86-2.12,1.28-.61.35-1.22.69-1.82,1.08-2.65,1.68-4.17,6.85-1.81,8.34-1.2-1.37-.53-5.8,1.61-7.16.57-.36,1.61-.41,2.19-.73.75-.42,1.59-1.42,2.36-1.93.3-.2.69-.49,1.04-.74-.14.55-.05,1,.1,1.37.08.18.15.36.18.56.1.62-.05,1.05-.46,1.62-.52.71-.99.85-1.26,1.3-.52.88-.42,1.3-.66,1.67-1.03,1.62.57,3.24,3.02,2.24-1.72.5-3.31-.52-2.52-2.03.19-.35.09-.54.62-1.33.3-.45,1.13-1.31,1.42-1.78.45-.76.94-1.45,1.13-2.42.06-.3-.08-.62-.23-.77-.19-.21.13-1.15.42-1.86.5-.43,1.01-.84,1.44-1.35.39-.46.67-1.22.75-1.69.12-.67.75-1.52,1.29-2.1.87.16,1.97.35,3.22.32l-.26.23c-.35.75-.14,1.26.04,1.71.08.18.15.36.18.56.1.62-.05,1.05-.46,1.62-.52.71-.99.85-1.26,1.3-.52.88-.42,1.3-.66,1.67-1.03,1.62.57,3.24,3.02,2.24-1.72.5-3.31-.52-2.52-2.03.19-.35.09-.54.62-1.33.3-.45,1.13-1.31,1.42-1.78.45-.76.94-1.45,1.13-2.42.06-.3-.08-.61-.23-.77-.13-.14-.01-.62.15-1.13.2-.03.39-.04.59-.08.62-.13,1.51-.68,2.02-1.1.22-.18.43-.36.62-.53,1.45,1.77,2.79,2.8,4.27,2.9,2.3.16,9.22-.34,15.92-.82,2.84-.2,6.17,1.48,8.08,1.86,2.89.57,5.49,1,7.53,4.16.7,1.08,1.34,2.06,1.97,2.81.58.69,1.49,1.42,2.53,2.16-1.5-.19-2.72-.78-3.54-1.31-.74-.49-1.38-1.03-2.04-1.61-.55-.48-1.11-.95-1.72-1.4-2.7-1.95-12.08-1.09-15.9,3.03,3.3-2.85,11.75-4.05,13.94-2.47.58.42.61,1.61,1.14,2.05.24.21.61.37,1,.53-.99.57-1.82,1.26-2.49,1.97-.38.4-.76.8-1.19,1.15-1.33,1.09-3.24,1.64-4.61,1.91-.99.19-1.96.31-2.99.43-.85.1-1.7.2-2.56.35-3.77.64-7.93,5.72-5.99,8.51-.69-2.11,2.15-6.77,5.2-7.28.81-.14,2,.31,2.8.21,1.04-.12,2.45-.84,3.56-1.06.43-.08.9-.18,1.4-.28-.39.54-.41,1.06-.42,1.54,0,.24,0,.48-.06.72-.18.74-.55,1.16-1.29,1.61-.92.56-1.52.49-2.03.87-1.01.75-1.09,1.26-1.53,1.56-1.93,1.33-.9,3.9,2.33,3.95-2.17-.25-3.48-2.15-1.87-3.47.38-.31.36-.57,1.33-1.19.55-.36,1.89-.93,2.44-1.33.87-.64,1.74-1.19,2.42-2.18.21-.3.2-.73.11-.98-.11-.31.62-1.14,1.26-1.79.79-.25,1.59-.54,2.34-.92.66-.34,1.33-1.06,1.64-1.55.45-.7,1.56-1.36,2.44-1.75,1.31.86,3.13,2.05,5.55,2.51.73.14,1.88-.04,2.66-.25,5.27,2.91,12.55,5.6,17.87,6.29.79.1,2.42,1.7,3.04,2.34,1.14,1.17,2.63,1.49,4.05,1.74,1.5,2.42,3.6,4.81,6.09,7.03,5.56,4.96,7.61,13.74,8.14,23.15.24,4.25-.56,7.68-1.96,10.79-2.63-.1-5.7-.23-7.31-.32-3.13-.19-6.43-.92-9.17-2.36-.11-.56-.24-1.1-.38-1.62-.18-.66-.36-1.31-.44-1.98-.25-2.06.64-4.22,1.43-5.68.57-1.05,1.23-2.03,1.92-3.06.57-.85,1.14-1.7,1.67-2.6,2.31-3.93,3.04-11.45,2.56-16.26-.25,4.25-1.57,11.41-3.44,14.59-.49.84-2.02,1.59-2.56,2.4-.22.33-.4.76-.56,1.2-.8-.65-1.82-.96-2.77-1.22-.54-.15-1.09-.3-1.57-.53-1.5-.71-2.35-2.33-2.8-3.57-.32-.89-.54-1.82-.78-2.8-.19-.81-.38-1.62-.64-2.41-1.1-3.47-6.65-13.15-10.09-14.89,2.61,2.05,7.56,12.02,8.45,14.83.24.74-.25,2.23-.06,2.99.24.99,1.26,2.01,1.63,3.01.58,1.59,1.37,3.86,2.95,5.41.48.47,1.46.72,2.11.75.93.04,1.86.78,2.43,1.44-.98,1.8-2.29,4.26-2.75,6.9-1.29-1.75-2.17-3.81-4.04-6.02-1.33-1.59-4.07-3.25-5.2-4.82-2.82-3.93-4.06-8.01-3.38-12.38.13-.8-.31-1.58-1.05-1.9-8.56-3.71-17.93-5.06-27.19-3.85-4.63-1.41-10.21-2.93-12.99-6.45-2.83-3.59-3.34-7.39-4.33-11.76.03,6.34.71,10.11,3.71,13.91,1.66,2.11,3.54,3.67,5.69,4.91-.28.2-.55.4-.8.61-.31.26-.61.52-.95.71-1.02.6-1.71.63-2.58.27-1.09-.45-1.58-1.59-2.28-1.76-1.37-.34-1.71.5-2.28.33-2.49-.76-6.54,2.38-7.29,5.24,1.21-2.54,4.52-4.6,6.86-4.2.55.09.87-.2,2.07.22.69.24,1.96,1.15,2.7,1.34,1.17.3,2.23.7,3.77.4.47-.09,1.02-.57,1.3-.94.23-.3,1.2-.64,2.2-.92,1.42.6,2.92,1.15,4.56,1.62.23.07.49.09.73.05,5.65-.79,12.1-.43,17.23,1.2-.26.34-.49.7-.69,1.06-.19.35-.39.7-.63,1-.74.92-2.01,1.24-2.95,1.35-.67.07-1.35.07-2.07.07-.59,0-1.18,0-1.78.04-2.6.18-7.48,1.23-10.76,6.71,3.62-4.69,8.34-5.43,10.44-5.58.56-.04,1.51.55,2.07.55.73,0,1.6-.54,2.36-.62,1.2-.13,2.77.04,4.11-.79.41-.26,1.06-.88,1.18-1.33.14-.5,1.27-.79,2.3-.98.93.5,1.81,1.04,2.54,1.67-.48,6.86,4.54,11.9,8.63,17.83,2.45,3.54,5.22,7.57,9.33,10.08,3.41,2.08,5.98,5,9.37,6.15.98.34,2.93.72,4.9,1.06-.64.8-1.3,1.62-1.98,2.45-1.88,2.3-2.7,4.81-3.1,7.38-.58-.37-1.14-.69-1.61-.94-3.65-1.96-7.23-.75-10.37-1.35l-8.63-1.64c-1.78-.34-3.22-.67-4.16-1.53-.65-.6-1.11-1.53-1.6-2.51l-.32-.64c-2.49-4.85-6.53-8.9-11.36-11.43-.52-.27-1.06-.53-1.59-.79-1.34-.65-2.6-1.25-3.61-2.1-1.66-1.4-3.65-1.8-5.68-3.65-4.88-4.45-7.04-10.59-11.86-14.67,4.42,5.06,6.9,13.65,9.74,16.2,1.54,1.38,2.87,2.56,4.16,3.68-.46.22-.86.55-1.23.86-.27.23-.55.47-.84.64-.91.54-1.52.57-2.3.25-.97-.4-1.11-1.08-1.73-1.23-1.22-.3-1.83.12-2.34-.03-2.22-.66-4.77,2.89-3.65,6.22-.5-2.46,1.18-5.64,3.27-5.29.49.08.78-.18,1.84.19.61.21,1.75,1.01,2.41,1.18,1.04.27,1.99.62,3.36.34.42-.08.9-.51,1.15-.84.29-.39,1.4-.47,2.35-.47,1.1.76,2.26,1.38,3.4,1.93.5.24.99.49,1.49.74,5.59,2.73,6.37,5.45,7.52,8.55-.61.02-1.18.27-1.7.51-.31.14-.62.29-.93.37-.97.26-1.54.13-2.16-.35-.79-.61-.74-1.26-1.27-1.56-1.04-.58-1.7-.36-2.13-.63-1.86-1.17-12.09,2.98-13.33,5.14,1.55-1.8,10.39-4.99,12.21-4.14.43.2,1.2.55,2.08,1.16.5.35,1.42,1.58,1.98,1.9.88.51,1.54,1.07,2.87,1.16.41.03,1.73-.17,2.04-.41.3-.23.9-.4,1.48-.49l.23.46c.58,1.17,1.24,2.49,2.38,3.54,1.76,1.61,5.4.9,7.15,1.23l8.85,3.27c2.74.53,5.62-.5,7.82,1.2,1.13.87,2.17,7.57,3.13,10.52-1.99,6.34-1.67,15.48-1.36,21.38-6.62-.55-15.58-2.88-20.5-4.94-.31-.7-.68-1.35-1.04-1.97-.37-.61-.74-1.23-1.01-1.88-.84-2.02-.54-4.47-.15-6.18.28-1.23.67-2.41,1.09-3.65.34-1.03.68-2.06.96-3.12,1.23-4.65-3.17-13.37-9.26-13.24,4.45.58,8.9,8.03,7.9,11.79-.26,1-1.61,2.19-1.92,3.16-.13.4-.19.88-.23,1.38-1-.44-2.13-.46-3.16-.46-.59,0-1.19,0-1.75-.09-1.73-.3-3.05-1.71-3.86-2.83-.58-.82-1.07-1.7-1.58-2.63-.42-.77-.85-1.53-1.33-2.27-2.1-3.22-6.44-5.89-12.02-4.79,4.51.79,8.63,2.58,10.33,5.19.45.69.38,2.34.78,3.06.52.94,1.85,1.68,2.5,2.6,1.03,1.45,2.49,3.54,4.53,4.66.62.34,1.69.32,2.36.16.96-.22,2.11.27,2.88.78-.47,2.06-1.09,4.85-.85,7.61-5.19-2.9-15.85-6.93-19.34-11.78-3.99-5.55-8.11-22.63-11.49-26.64-3.38-4.01-11.78-4.05-16.48-3.78-1.03.06-2.21-.02-3.41-.16-1.39-2.05-2.58-5.94-1.97-6.87.36-.54.73-1.48.63-2.15-.01-.07-.03-.12-.05-.19.61-.61,1.13-1.26,1.17-1.7.03-.34.06-.67.15-.99.28-.97.73-1.61,1.48-2.02.55-.3,1.23-.62,1.84-.87.5-.21,1.2-.75,1.68-.99,2.14-1.06,5.04-4.67,5.75-6.9-1.01,1.78-3.26,5.03-5.7,6.29-.45.23-1.49.12-1.97.32-.62.26-1.16.98-1.77,1.31-.97.53-1.47.34-2.29,1.45-.25.34-.23,1.14-.34,1.75-.05.29-.24.54-.46.78-.47-1.17-1.15-2.07-1.8-3.03-.6-.88-2.39-2.14-3.03-2.93-1.12-1.38-.88-1.94-1.27-2.62-1.63-2.9.82-13.2,4.9-17.63-3.72,3.34-6.45,10.43-6.72,15.05-.49-.32-1.12-.78-1.29-1.39-.19-.66-.26-1.55-.55-1.89-.94-1.13-1.42-.86-2.44-1.33-.65-.3-1.27-1.03-1.91-1.24-.5-.16-1.51.09-1.99-.12-2.57-1.1-5.19-4.43-6.41-6.28.97,2.39,4.29,6.04,6.54,6.96.51.21,1.27.73,1.79.9.64.21,1.35.48,1.93.74.8.37,1.33,1.02,1.72,2.06.13.34.2.71.27,1.08.14.74,1.46,1.88,2.45,2.61.11.64-.21,1.42-.09,1.88.25.97-.57,1.74.52,3.38.56.84,2.1.89,3.2,2.11.88.98,2.13,1.42,1.82,3.05-.1.53-.94,2.61-1.14,3.14-.43,1.16-1.23,3.42-.22,5.85-3.43.2-6.59-.17-9.28-2.32-5.5-4.41-7.39-14.5-11.23-17.43-.52-.52-1.07-.93-1.61-1.4-.05-1.44-.51-2.96-.95-4.35-.25-.79-.5-1.57-.66-2.33-.48-2.35.11-4.41.68-5.72.42-.95.92-1.78,1.46-2.66.44-.73.88-1.46,1.28-2.25,1.72-3.48,1.65-13.9.62-19.36.27,4.58-.25,14.4-1.65,17.21-.37.75-1.73,1.02-2.15,1.7-.17.28-.29.69-.39,1.12-.84-1.01-1.85-1.72-2.77-2.35-.53-.36-1.07-.72-1.56-1.15-1.51-1.32-2.51-3.42-3.08-4.94-.41-1.1-.73-2.2-1.07-3.36-.28-.96-.56-1.91-.89-2.88-1.46-4.22-7.5-11.99-10.98-15.15,2.73,3.2,8.23,11.07,9.41,14.49.31.9.03,2.36.3,3.27.34,1.17,1.44,2.66,1.9,3.9.18.48.38,1,.59,1.56-.69-.34-1.3-.27-1.85-.18-.28.04-.55.09-.84.07-.89-.07-1.44-.41-2.1-1.17-.82-.96-.85-1.66-1.39-2.18-1.05-1.01-1.66-1.01-2.09-1.46-1.91-1.96-5.51-1.6-6.43.32,1.26-1.41,4.14-1.3,5.97.29.43.37.72.31,1.63,1.3.52.57,1.44,1.99,2,2.55.9.88,1.7,1.77,2.97,2.36.39.18.88.09,1.15-.07.33-.19,1.44.5,2.31,1.1.44.86.93,1.72,1.52,2.51.51.7,1.48,1.33,2.1,1.59.89.38,1.86,1.53,2.48,2.47-.74,1.68-1.76,3.99-1.82,6.87-.02.9.45,2.31.85,3.16.28.6.57,1.11.84,1.59-2.15-1.55-4.31-2.8-6.25-3.79-2.71-3.05-6.57-5.53-7.24-5.74-.32-.1-.65-.2-.94-.35-.89-.46-1.23-.93-1.37-1.71-.18-.98.3-1.43.1-2.01-.38-1.13-1.02-1.41-1.16-1.89-.6-2.12-4.64-3.95-9.93-3.45,4.44.14,8.21,1.77,8.99,3.62.18.43.54.53.78,1.57.14.6.08,1.92.28,2.53.32.97.52,1.9,1.44,2.86.28.3.87.46,1.26.49.44.03,1.41,1.23,2.19,2.29-3.11.49-5.58,3.95-8.54,5.65-3.81,2.19-7.13,2.57-13.2,3.11,5.52.08,10.22-.19,12.9-1.52,2.68-1.33,5.68-3.87,8.04-4,2.35-.13,6.41,2,8.44,3.06,2.03,1.06,4.78,3.2,6.23,5.75,1.62,1.92,4.42,8,6.18,11.65-.41.1-.81.23-1.22.28-2.06.25-5.96-.09-7.42-.88-1.05-.57-2.03-1.23-3.06-1.92-.85-.57-1.71-1.14-2.6-1.67-3.94-2.3-13.8-3.45-18.61-2.96,4.25.25,13.76,1.97,16.95,3.84.84.49,1.6,2.02,2.4,2.56.33.22.76.4,1.2.56-.65.8-.96,1.82-1.22,2.77-.15.54-.3,1.09-.52,1.57-.71,1.5-2.33,2.35-3.56,2.81-.89.32-1.82.55-2.8.78-.81.19-1.61.39-2.41.64-3.47,1.11-8.65,6.82-10.39,10.27,2.04-2.62,7.52-7.73,10.33-8.63.74-.24,2.23.24,2.99.06.99-.24,2.01-1.27,3.01-1.63,1.59-.58,3.86-1.38,5.4-2.96.47-.48.72-1.46.75-2.12.04-.93.78-1.86,1.44-2.44,1.86,1.01,6.17,1.86,8.92,2.26.62.09,1.33-.08,1.96-.3,1.94,3.37,3.08,7.72,6.41,7.53,4.18-.24,9.51,1.03,14.24,1.29,3,.16,5.25,1.52,7.74,3.68-1.75.8-2.72,1.85-3.34,2.8-.37.57-1.81,2.9-2.26,3.37-1.38,1.47-2.48,1.86-4.07,1.7-1.99-.2-3.35-1.82-4.58-1.77-2.39.11-2.54,1.65-3.55,1.64-.58,0-1.24.21-1.94.56-1.43-.45-3.49-.91-4.32-.52-.41.2-.82.39-1.24.51-1.3.36-2.32.31-3.25-.2-.67-.38-1.45-.88-2.11-1.36-.55-.39-1.59-.76-2.17-1.11-2.52-1.55-8.47-2.17-11.51-1.41,2.69-.13,7.84.04,10.76,1.77.55.32,1.03,1.5,1.55,1.87.67.48,1.84.56,2.59.98,1.19.67,1.27,1.33,3.05,1.44.55.03,1.48-.53,2.25-.82.73-.27,1.63.01,2.29.26-4.34,3.58-9.32,11.35-9.92,17.39,1.41-7.18,9.75-16.97,13.76-17.46.94-.12,1.32-.75,3.48-.64,1.24.06,3.75.91,5.04.86,1.42-.05,2.78-.03,4.27-.41-.07.38-.19.75-.43,1.01-.51.55-1.31,1.1-1.46,1.59-.5,1.6.05,1.95.22,3.28.11.84-.21,1.88-.02,2.67.15.61,1,1.55,1.1,2.16.52,3.29-1.06,7.82-2.07,10.09,1.68-2.29,3.13-7.73,2.64-10.58-.11-.65-.08-1.72-.24-2.36-.19-.78-.37-1.68-.47-2.43-.14-1.03.16-1.94.91-2.9.24-.31.55-.58.86-.85.4-.35.66-1.33.82-2.37.07-.04.14-.05.21-.09.73-.38,1.38-1.42,1.66-2.17.35-.94,3.03-2.07,5.62-2.64.23.23.42.41.66.65,5.01,4.96,6.14,6.47,4.38,12.35-1.76,5.87-2.54,10.64,1.24,12.52,3.78,1.88,13.84,3.41,20.27,5.67.84.3,1.7.6,2.57.92-1.02.27-2.54.08-4.33.17-1.22.06-3.12.39-4.14.96-3.25,1.82-5.28,4.42-6.74,6.29-1.46-.14-3.37-.54-4.35-1.33-.69-.55-2-1.26-3.11-1.42-1.28-.19-2.56-.21-3.83-.19-1.22-.62-2.67-1.47-2.66-1.97.01-.4-.18-1.01-.63-1.35-1.45-1.1-2.97-1.46-4.53-1.95-.98-.31-3.17-.48-4.14-.73-1.69-.43-1.8-.81-2.49-1.07-2.94-1.12-4.83-4.34-3.99-6.65-1.63,2.23.16,6.58,3.58,7.56.78.22,1.15.92,2.95,1.5.92.3,1.74-.09,3.34.26,1.27.28,2.01.7,2.63,1.68.2.32.32.66.43,1,.24.68.52,1.42,1.34,2-.77.09-1.49.19-2.14.27-1.69.22-4.07-.12-5.62.21-1.19.25-2.69,1.47-3.92,1.66-4.62.74-17.01-.73-22.34-1.88,5.75,2.04,18.34,4.19,24.06,3.27,1.3-.21,2.57-.48,3.83-.74,1.53-.33,2.99-.63,4.5-.83,2.09-.28,5.1-.41,7.54.5.79.3,1.53.69,2.27,1.08,1.29.68,2.72,1.39,4.39,1.73-.43.38-.82.76-1.04,1.13-.53.9,0,2.62-.63,3.5-2.37,3.32-13.28,9.94-18.68,12.43,6.88-2.17,18.84-8.47,21.77-12.57.67-.94,1.23-1.89,1.79-2.84.68-1.15,1.32-2.25,2.15-3.3,1.15-1.46,3.14-3.4,6.13-4.28.97-.29,2.02-.48,3.07-.68,2.27-.43,4.76-.95,6.59-2.22,4.81,1.94,9.57,4.45,12.81,8.4,4.51,5.52,9.67,13.09,14.06,16.52,2.52,1.97,5.56,3.5,8.67,4.64,0,2.4-.39,5.19-1.62,8.6-2.72,7.5-6.48,8.31-13.5,13.96-4.09,3.29-3.97,9.27-10.62,13.99-4.76,3.38-12.65,2.49-17.94,7.52-6.46,6.13-8.95,17.83-10.88,30.01-1.93,12.18-14.11,10.25-19.1,14.73-4.99,4.48-13,11.24-19.86,10.58-6.86-.66-14.11,10.25-19.1,14.74-4.99,4.48-14.84,6.62-23.47,11.84ZM189.75,209.55c-3.57,5.08-10.53,9.87-17.54,7.71-4.96-1.53-11.67-7.42-13.37-17.58,6.99-1.1,18.14.38,22.22,2.16,4.08,1.78,7.56,5.18,8.7,7.72ZM215.63,218.11c-7.17,1.6-13.72-3.72-16.88-9.07,1.33-2.44,5.07-5.56,9.28-7.01,4.21-1.45,15.44-2.04,22.32-.39-2.5,10-9.66,15.34-14.72,16.47ZM160.33,231.35c-.63-5.76,3.77-7.62,7.4-5.57,1.1.62,2.4,1.72,3.29,3.19,1.05,1.75,1.33,2.72,2.6,3.23,1.88.75,3.11-.16,4.6.3,1.43.44,2.06,3.64,4,4.03,2.25.46,2.88-3.04,4.76-2.94,1.6.09,2.12,3.53,3.98,3.55,1.57.01,2.69-3.32,4.53-3.47,1.76-.14,2.9,3.45,4.5,3.19,1.84-.3,1.79-3.35,3.72-3.75,1.59-.33,3.69,3.68,5.49,3.35,1.94-.35,2.47-3.91,4.13-4.45,1.36-.44,2.44.48,4.46.02,1.4-.32,1.88-2.32,3.36-3.9,1.14-1.22,2.14-2.8,3.79-3.08,4.72-.8,6.73,3.07,6.42,7.01-.45,5.71-2.23,11.09-7.61,14.66-1.03.68-3.15.69-4.86,2.22-1.95,1.74-1.78,3.99-2.94,5-1.36,1.19-3.63-1.04-5.14-.06-1.49.97-2.22,5.16-3.85,5.88-1.71.76-3.89-1.65-5.73-1.21-2.11.5-3.92,3.8-6.2,3.8-1.87,0-4.12-3.73-5.83-4.09-1.82-.38-3.08,2.58-4.72,1.85-1.66-.74-1.9-5.06-3.37-6.09-1.61-1.12-4.42,1.03-5.81-.34-.94-.92-.74-3.54-2.72-5.1-1.9-1.49-2.92-1.28-4.04-2.15-5.94-4.58-7.65-10.1-8.2-15.09Z"/>
      <g>
        <g>
          <path class="cls-4" d="M47.81,330.76c-1.98.28-3.57,1.74-4.97,3.18-4.48,4.6-11.31,11.25-16.74,14.97,3.87-1.14,6.54-5.61,9.38-5.78.53-.03,1.86-.04,2.35-.27,1.02-.47,1.01-1.74,1.28-2.83.39-1.58,2.06-2.02,3.18-3.19.57-.6,1.23-1.24,2.06-1.28.4-.02.8.1,1.19.02.52-.11.89-.55,1.3-.87,1.41-1.11,3.4-.95,5.19-1.1,1.46-.12,5.85-1.42,5.95-3.18-2.83.63-7.36-.06-10.17.33Z"/>
          <path class="cls-13" d="M233.43,284.86c3.82.91,8.7.68,10.38,2.56,1.68,1.87,4.24,5.27,5.48,6.38,1.24,1.11-1.78,3.25-4.99,2.25-3.21-1-5.83-5.57-8.57-5.41-2.75.16-5.67-2.83-7.33-4.31s1.04-2.42,5.03-1.47Z"/>
          <path class="cls-10" d="M249.09,297.35c-2.35-.2,6.23-1.14,6.83,2.37s2.82,8.1,4.09,9.61,6.55,4.35,6.55,4.35l4.65,5.64s7.39-1.6,9.76-1.34c2.38.26,6.41,2,8.42,2.67-5.56-.86-10.2.58-12.16.69-1.96.11-6.67.38-8.61.88-2.9-2.59-5.28-2.85-8.55-5.02-3.27-2.17-5-4.83-4.72-6.82.28-1.98-1.12-5.84-3.13-6.51-2.01-.67-.36-6.28-3.13-6.51Z"/>
          <path class="cls-15" d="M266.88,330.84c-2.73-1.94-8.28-7.14-12.52-7.95-4.24-.81-9.55-1.82-11.18-2.77s-4.12-3.18-6.79-4.07c-2.68-.9-6.58-.41-9.45.01,4.07,2.39,8.83,2.91,11.36,5.91,2.53,3,4.72,4.45,7.04,3.8,2.32-.66,5.69-1.37,7.18,1.69,1.49,3.06,6.17,2.27,7.78,2.97,1.61.7,4.45-.25,6.58.41Z"/>
          <path class="cls-28" d="M223.13,345.94c-3.56-2.68-10.07-6.25-11.75-8.25-1.69-2-5.27-4.95-7.22-6.94-1.95-1.99-.07-5.77-4.54-6.04-4.48-.27-5.38-2.32-6.25-3.84-1.68,2.72-1.59,4.29-.69,6.34.9,2.05,4.12,3.18,6.84,4.86,2.72,1.68,6.87,5.38,8.03,7.41,1.17,2.03,3.04,2.71,5.18,3.38s6.02-.34,10.41,3.08Z"/>
          <path class="cls-24" d="M191.38,318.36c-1.25,1.12-2.08.38-4.42.78-2.34.4-3.86-3.19-4.73-4.72s-1.02-4.14-2.47-6.42-1.34-5.17-.88-6.25c4.06,2.13,6.66,1.72,7.65,5.34s.27,4.71,1.42,6.48,1.02,4.14,3.42,4.79Z"/>
          <path class="cls-19" d="M149.16,323.39c.56,2.77-.49,5.28,1.77,8.03,2.26,2.76,3.7,5.04,4.08,7.11.38,2.08-2.17,3.27-4.04,2.85-1.86-.42-6.4-1.73-7.46-1.94-1.06-.2-1.94-1.73-2.56-3.53-.63-1.8.82-3.98,1.5-5.86.68-1.88-.24-4.18-1.14-6.23-.9-2.05.31-3.69,1.76-5.87s3.3-2.02,5.59-3.21,4.21.28,3.53,2.16c-.68,1.88-3.41,4.66-3.04,6.47Z"/>
          <path class="cls-25" d="M157.71,344.42c1.69.84,3.23,1.39,4.64,3.15,1.41,1.76,4.09,2.65,2.9,4.82-1.19,2.17-2.67,3.83-4.99,4.48-2.32.66-3.85,1.53-5.85,3.22,1.88-3.78,3.92-4.95,5.67-6.36,1.76-1.41,1.91-3.26.31-3.69s-5.6-1.52-7.21-2.21c-1.61-.7-2.72-1.68-3.06-2.97-.34-1.29,5.69-1.37,7.59-.43Z"/>
          <path class="cls-6" d="M153.72,311.32c1.9.21,2.5-2.24,3.7-4.15,1.2-1.91-.69-2.85-2.97-1.41-2.28,1.44-4.84,2.64-7.11,4.08-2.28,1.44-.88,2.94.95,2.83,1.83-.1,3.85-1.53,5.43-1.36Z"/>
          <path class="cls-26" d="M76.04,354.85c1.41-.52,2.86-1.07,3.98-2.07,2.15-1.92,3.91-4.73,6.12-6.58.59-.49,1.3-.89,1.66-1.57.79-1.44-.37-3.33.28-4.84.79-1.84,3.4-1.71,5.22-2.54,3.75-1.7,3.87-7.4,7.3-9.69-.4-2.25,1.24-4.42,3.22-5.57,1.97-1.15,2.7-1.66,4.85-2.45,1.58-.58,3.39-1.88,3.93-3.47.92-.64,3.44,1.23,3.29,2.34-.15,1.11-.89,2.12-.83,3.24.04.62.34,1.22.81,1.63,1.39,1.19,3.49.39,5.2-.26,1.71-.65,4.14-.84,4.88.84.45-.02.66.63.42,1-.24.38-.71.52-1.14.65-1.92.54-3.85,1.09-5.77,1.63-3.57,1.01-7.19,2.03-10.9,2.05-.56,0-1.18,0-1.6.38-.46.41-.5,1.1-.77,1.64-.82,1.66-3.58,1.78-4.07,3.56-.44,1.56.97,3.9-.54,4.49-.43.17-.92.04-1.39.03-1.76-.01-3.07,2.25-2.18,3.77-2.53.82-4.99,1.86-7.33,3.11-.46.24-.92.5-1.25.89-.57.66-.71,1.58-.94,2.42-1.03,3.69-4.71,4.69-8.34,5.92-3.41,1.15-9.77,3.11-13.35,2.86,2.33-1.26,6.74-2.48,9.25-3.41Z"/>
          <path class="cls-7" d="M124.95,311.91c.49-.24.61-2.45,1.1-2.68,2.11-1.02,4.64-.09,6.3-1.75,1.28-1.28,2.21-2.86,3.12-4.43.12-.21.25-.44.24-.69-.03-.43-.49-.72-.92-.72s-.83.21-1.21.4c-3.69,1.84-7.87,2.41-11.84,3.55-1.58.45-3.17,1.02-4.44,2.07-1.27,1.05-2.53,3.27-2.34,4.91.12,1.03,2.18,3.71,3.54,4.9,1.24,1.08,2.25-2.48,1.55-3.61,2-.75,2.96-1.02,4.9-1.96Z"/>
          <path class="cls-2" d="M99.68,286.33c.2-.49.45-1.04.95-1.21.39-.13.81,0,1.2.1,3.43.84,6.89-1.05,9.85-2.98,5.9-3.84,11.51-8.12,16.78-12.8,1.48,1.21,1.37,3.55.58,5.29-.8,1.74-2.12,3.21-2.76,5.01-.96,2.68-.5,6.14-2.74,7.91-2.01-.93-3.53-3.36-5.72-3.05-2.4.33-3.01,3.48-3.03,5.91-1.9,0-3.8.3-5.6.92.67,2.65,1.16,5.93-.93,7.7-.9.76-2.1,1.04-3.23,1.41-4.53,1.51-8.36,4.98-10.3,9.35-.26.59-.6,1.29-1.25,1.38-.68.1-1.22-.56-1.45-1.2-.69-1.9.06-3.99.8-5.87,2.35-5.95,4.49-11.92,6.86-17.86Z"/>
          <path class="cls-20" d="M91.12,314.99c-.15.29-.41.5-.66.72-1.79,1.51-3.59,3.03-5.38,4.55-.26.22-.52.44-.84.56-.4.15-.83.11-1.26.11-1.62,0-3.18.49-4.72.98-1.89.6-3.85,1.25-5.28,2.63-.52.51-.95,1.1-1.48,1.59-.78.73-1.75,1.21-2.71,1.68-2.98,1.44-6.01,2.78-9.08,4,1.22-1.61,2.67-3.13,4.52-3.95.85-.38,1.77-.6,2.62-1,2.15-1.02,3.57-3.09,5.44-4.57,2.35-1.86,5.32-2.71,8.04-3.96,2.61-1.2,5.05-2.78,7.19-4.69.84-.75,2.29-3.55,3.41-3.03.78.37.6,3.62.19,4.39Z"/>
          <path class="cls-1" d="M284.68,334.03c1.78,1.19,3.78,1.98,5.77,2.77,3.54,1.41,7.09,2.81,10.63,4.22,3.9.25,7.8.5,11.7.75-2.6.37-5.19.74-7.79,1.12-2.07.3-4.26.58-6.21-.17-1.6-.61-2.87-1.86-4.42-2.6-2.88-1.38-6.42-.88-9.22-2.4-2.14-1.16-3.62-3.4-5.89-4.28-1.01-.39-2.11-.49-3.17-.72-2.66-.57-5.59-2.13-7.11-4.43,5.08-1.42,11.81,3.14,15.71,5.74Z"/>
          <path class="cls-32" d="M131.11,263.82c.07-.27.15-.56.37-.72.18-.13.43-.15.65-.19,1.46-.27,2.33-1.77,2.83-3.17.33-.91.87-2.05,1.83-1.98.89.07,1.3,1.16,1.27,2.05-.09,2.16-1.61,4.16-1.29,6.3.05.36.16.72.13,1.08-.09,1.17-1.41,1.77-2.18,2.66-.82.95-1.04,2.32-1.94,3.19-.12.12-.3.24-.46.16-.11-.05-.16-.17-.2-.28-.57-1.48-1.39-3.08-1.7-4.63-.3-1.5.32-2.98.69-4.49Z"/>
        </g>
        <g>
          <path class="cls-23" d="M119.69,299.59c-1.02.14-1.84.9-2.56,1.64-2.31,2.36-5.82,5.79-8.61,7.7,1.99-.59,3.37-2.89,4.83-2.98.28-.02.96-.02,1.21-.14.53-.24.52-.89.66-1.46.2-.81,1.06-1.04,1.64-1.64.3-.31.63-.64,1.06-.66.2-.01.41.05.61.01.27-.06.46-.28.67-.45.73-.57,1.75-.49,2.67-.57.75-.06,3.01-.73,3.06-1.64-1.46.32-3.79-.03-5.24.17Z"/>
          <path class="cls-36" d="M173.67,286.1c1.97.47,4.48.35,5.34,1.32.87.96,2.18,2.71,2.82,3.28.64.57-.92,1.67-2.57,1.16-1.65-.51-3-2.87-4.41-2.79-1.41.08-2.92-1.45-3.77-2.22-.85-.76.54-1.25,2.59-.76Z"/>
          <path class="cls-27" d="M181.74,292.53c-1.21-.1,3.21-.59,3.51,1.22s1.45,4.17,2.11,4.94c.65.77,3.37,2.24,3.37,2.24l2.39,2.9s3.8-.82,5.02-.69c1.22.13,3.3,1.03,4.33,1.37-2.86-.44-5.25.3-6.26.36s-3.43.2-4.43.46c-1.49-1.33-2.72-1.47-4.4-2.58s-2.57-2.49-2.43-3.51c.14-1.02-.58-3.01-1.61-3.35-1.03-.35-.18-3.23-1.61-3.35Z"/>
          <path class="cls-22" d="M230.91,314.66c-1.41-1-4.26-3.67-6.45-4.09-2.18-.42-4.91-.93-5.75-1.43-.84-.49-2.12-1.63-3.5-2.1-1.38-.46-3.39-.21-4.86,0,2.1,1.23,4.54,1.5,5.85,3.04,1.3,1.55,2.43,2.29,3.62,1.95,1.2-.34,2.93-.71,3.7.87s3.17,1.17,4,1.53c.83.36,2.29-.13,3.39.21Z"/>
          <path class="cls-30" d="M243.81,316.81c-1.83-1.38-5.18-3.22-6.05-4.25-.87-1.03-2.71-2.55-3.71-3.57-1-1.02-.03-2.97-2.34-3.11-2.3-.14-2.77-1.19-3.22-1.98-.87,1.4-.82,2.21-.35,3.26.47,1.05,2.12,1.63,3.52,2.5s3.53,2.77,4.13,3.82c.6,1.05,1.57,1.4,2.66,1.74,1.1.34,3.1-.18,5.36,1.58Z"/>
          <path class="cls-16" d="M227.47,302.62c-.64.58-1.07.2-2.27.4s-1.98-1.64-2.43-2.43-.53-2.13-1.27-3.3c-.74-1.17-.69-2.66-.45-3.22,2.09,1.1,3.43.88,3.94,2.75.51,1.86.14,2.42.73,3.33s.53,2.13,1.76,2.47Z"/>
          <path class="cls-34" d="M167.84,158.64c-.64.58-1.07.2-2.27.4-1.2.2-1.98-1.64-2.43-2.43s-.53-2.13-1.27-3.3c-.74-1.17-.69-2.66-.45-3.22,2.09,1.1,3.43.88,3.94,2.75.51,1.86.14,2.42.73,3.33s.53,2.13,1.76,2.47Z"/>
          <path class="cls-17" d="M232.86,271.8c.29,1.42-.25,2.72.91,4.13,1.16,1.42,1.9,2.59,2.1,3.66.2,1.07-1.12,1.68-2.08,1.47-.96-.22-3.29-.89-3.84-1-.55-.1-1-.89-1.32-1.82-.32-.93.42-2.05.77-3.01s-.12-2.15-.59-3.21c-.47-1.05.16-1.9.91-3.02s1.7-1.04,2.88-1.65c1.18-.61,2.17.15,1.82,1.11-.35.97-1.75,2.4-1.57,3.33Z"/>
          <path class="cls-5" d="M253.83,330.82c.87.43,1.66.72,2.39,1.62.73.9,2.1,1.37,1.49,2.48-.61,1.12-1.37,1.97-2.57,2.31-1.2.34-1.98.79-3.01,1.66.97-1.95,2.02-2.55,2.92-3.27.9-.73.98-1.68.16-1.9-.82-.22-2.88-.78-3.71-1.14-.83-.36-1.4-.87-1.57-1.53-.17-.67,2.93-.71,3.9-.22Z"/>
          <path class="cls-9" d="M235.21,265.59c.98.11,1.28-1.15,1.9-2.13.62-.98-.35-1.47-1.53-.72-1.17.74-2.49,1.36-3.66,2.1-1.17.74-.45,1.51.49,1.46.94-.05,1.98-.79,2.8-.7Z"/>
          <path class="cls-8" d="M227.77,168.74c.61-.47,1.24-.96,1.64-1.63.76-1.27,1.19-2.92,2-4.17.21-.33.5-.64.58-1.03.16-.83-.69-1.58-.61-2.42.11-1.03,1.41-1.36,2.18-2.05,1.58-1.41.77-4.23,2.1-5.88-.54-1.04-.07-2.36.73-3.23.79-.87,1.07-1.23,2.01-1.94.69-.53,1.37-1.44,1.4-2.31.36-.45,1.88.07,1.97.64.09.57-.11,1.18.09,1.72.11.3.35.55.65.67.87.37,1.77-.34,2.51-.93.74-.58,1.91-1.05,2.53-.34.22-.08.42.21.36.43-.06.22-.27.37-.46.49-.86.56-1.72,1.13-2.59,1.69-1.6,1.04-3.22,2.1-5.04,2.68-.28.09-.58.18-.73.43-.16.27-.08.61-.13.92-.15.94-1.48,1.42-1.45,2.37.03.83,1.08,1.77.42,2.29-.19.15-.45.16-.68.23-.87.26-1.16,1.57-.49,2.18-1.12.79-2.16,1.68-3.12,2.65-.19.19-.37.39-.48.63-.18.41-.1.89-.09,1.34.06,1.97-1.59,3.03-3.19,4.19-1.5,1.09-4.32,3.03-6.12,3.45.95-.98,2.93-2.25,4.02-3.1Z"/>
          <path class="cls-3" d="M228.05,192.49c.25-.12.31-1.26.57-1.38,1.08-.52,2.39-.05,3.24-.9.66-.66,1.14-1.47,1.61-2.28.06-.11.13-.23.12-.35-.01-.22-.25-.37-.47-.37-.22,0-.43.11-.62.21-1.9.95-4.05,1.24-6.09,1.83-.81.23-1.63.53-2.29,1.07s-1.3,1.69-1.2,2.53c.06.53,1.12,1.91,1.82,2.52.64.56,1.16-1.28.8-1.86,1.03-.39,1.52-.53,2.52-1.01Z"/>
          <path class="cls-21" d="M146.38,276.73c.1-.25.23-.53.49-.62.2-.07.41,0,.62.05,1.77.43,3.54-.54,5.07-1.53,3.04-1.98,5.93-4.18,8.63-6.59.76.62.71,1.83.3,2.72-.41.89-1.09,1.65-1.42,2.58-.5,1.38-.26,3.16-1.41,4.07-1.03-.48-1.81-1.73-2.94-1.57-1.24.17-1.55,1.79-1.56,3.04-.98,0-1.96.16-2.88.47.35,1.36.6,3.05-.48,3.96-.46.39-1.08.54-1.66.73-2.33.78-4.3,2.57-5.3,4.81-.14.31-.31.66-.64.71-.35.05-.63-.29-.75-.62-.35-.98.03-2.05.41-3.02,1.21-3.06,2.31-6.14,3.53-9.19Z"/>
          <path class="cls-12" d="M141.98,291.48c-.08.15-.21.26-.34.37-.92.78-1.85,1.56-2.77,2.34-.13.11-.27.23-.43.29-.2.08-.43.06-.65.06-.83,0-1.64.25-2.43.51-.97.31-1.98.64-2.71,1.36-.27.26-.49.56-.76.82-.4.37-.9.62-1.4.86-1.53.74-3.09,1.43-4.68,2.06.63-.83,1.37-1.61,2.32-2.03.44-.19.91-.31,1.35-.51,1.1-.53,1.84-1.59,2.8-2.35,1.21-.96,2.74-1.4,4.14-2.04,1.34-.62,2.6-1.43,3.7-2.42.43-.39,1.18-1.83,1.76-1.56.4.19.31,1.86.1,2.26Z"/>
          <path class="cls-35" d="M229.28,175.53c-.08.15-.21.26-.34.37-.92.78-1.85,1.56-2.77,2.34-.13.11-.27.23-.43.29-.2.08-.43.06-.65.06-.83,0-1.64.25-2.43.51-.97.31-1.98.64-2.71,1.36-.27.26-.49.56-.76.82-.4.37-.9.62-1.4.86-1.53.74-3.09,1.43-4.67,2.06.63-.83,1.37-1.61,2.32-2.03.44-.19.91-.31,1.35-.51,1.1-.53,1.84-1.59,2.8-2.35,1.21-.96,2.74-1.4,4.14-2.04,1.34-.62,2.6-1.43,3.7-2.42.43-.39,1.18-1.83,1.76-1.56.4.19.31,1.86.1,2.26Z"/>
          <path class="cls-31" d="M250.36,227.64c.92.61,1.95,1.02,2.97,1.43,1.82.72,3.65,1.45,5.47,2.17,2.01.13,4.01.26,6.02.39-1.34.19-2.67.38-4.01.57-1.07.15-2.19.3-3.2-.09-.82-.32-1.48-.96-2.27-1.34-1.48-.71-3.3-.45-4.74-1.24-1.1-.6-1.86-1.75-3.03-2.2-.52-.2-1.08-.25-1.63-.37-1.37-.3-2.88-1.1-3.66-2.28,2.62-.73,6.08,1.62,8.08,2.95Z"/>
          <path class="cls-18" d="M149.95,212.44c.03-.14.07-.29.19-.37.09-.07.22-.07.33-.1.75-.14,1.2-.91,1.46-1.63.17-.47.45-1.06.94-1.02.46.04.67.6.65,1.05-.05,1.11-.83,2.14-.66,3.24.03.18.08.37.07.55-.05.6-.73.91-1.12,1.37-.42.49-.54,1.19-1,1.64-.06.06-.16.12-.24.08-.06-.03-.08-.09-.1-.14-.3-.76-.71-1.59-.88-2.38-.16-.77.17-1.54.35-2.31Z"/>
        </g>
        <path class="cls-14" d="M138.63,213.57c-2.75-1.21-5.23-3.02-7.23-5.26-.35-.39-.7-.87-.61-1.39.8-.31,1.7.02,2.42.49s1.33,1.09,2.11,1.45c1.72.81,3.9.21,5.54,1.18,1.99,1.19,2.42,4.27,4.6,5.08,2.85,1.05.76,3.06-1.33,2.35-1.71-.58-3.57-3.06-5.49-3.91Z"/>
        <path class="cls-11" d="M245.83,208.21c1.74-1.92,3.49-3.85,5.37-5.64,1.85-1.75,3.82-3.37,5.9-4.84.26.26.27.74.01,1.01-2.15,2.54-4.29,5.07-6.44,7.61-.35.41-.7.83-.86,1.34-.34,1.06.22,2.24-.05,3.31-.73.72-1.5,1.41-2.31,2.04-1.86,1.47-4.08,3.02-6.34,3.7-.94-2.77,3.05-6.71,4.71-8.54Z"/>
        <path class="cls-29" d="M157.91,177.8c.28.51.36,1.1.46,1.68.55,3.37,1.46,6.69,2.7,9.87-.62.05-1.24.1-1.86.15l-.14-.61c-1.04-.31-2.09-.62-3.13-.92-.42-.12-.86-.26-1.14-.59-.43-.51-.32-1.3-.02-1.9.3-.6.77-1.12,1.01-1.74.55-1.39-.07-2.94-.68-4.3-.03-.07-.06-.14-.1-.22-.74-1.65-1.52-3.35-2.87-4.55-.8-.71-1.78-1.22-2.53-1.99-.75-.77-1.23-1.97-.74-2.92.21-.03.43-.07.64-.1.15-.02,3.08,4.48,3.68,4.97,1.42,1.18,3.79,1.44,4.72,3.18Z"/>
      </g>
    </g>
  </g>
</svg>