<?xml version="1.0" encoding="UTF-8"?>
<svg id="Layer_2" data-name="Layer 2" xmlns="http://www.w3.org/2000/svg" xmlns:xlink="http://www.w3.org/1999/xlink" viewBox="0 0 271.33 364.77">
  <defs>
    <style>
      .cls-1 {
        fill: none;
      }

      .cls-2 {
        clip-path: url(#clippath-1);
      }

      .cls-3 {
        clip-path: url(#clippath-2);
      }

      .cls-4 {
        fill: url(#linear-gradient);
      }

      .cls-5 {
        clip-path: url(#clippath);
      }
    </style>
    <clipPath id="clippath">
      <rect class="cls-1" width="271.33" height="364.77"/>
    </clipPath>
    <clipPath id="clippath-1">
      <path class="cls-1" d="M174.63,64.76c.18-.03.29,0,.38.05-.13-.04-.25-.07-.38-.05ZM269.72,330.56c-.26.95-.29,1.96-.35,2.93-.06.88,0,2.13-.47,2.92-.46.77-1.78.84-2.57.89-1.01.07-2.03.04-3.05-.03-3.21-.24-5.86-2.17-8.71-3.45,1.14-.21,2.27-.45,3.36-.87,2.6-1,4.13-3.03,4.89-5.65.02-.08.05-.17.07-.26.3-1.14-1.36-1.9-1.95-.82-.05.08-.09.16-.14.23-1.78,2.74-6.63.84-9.04,0-1.96-.7-3.68-1.99-5.72-2.49-1.14-.28-2.2-.21-3.18.13.08-.2.17-.4.26-.6.16-.33.19-.84-.14-1.1-5.09-3.97-8.4-9.74-12.1-14.93-1.87-2.62-3.74-5.25-5.31-8.07-1.52-2.74-2.97-5.75-3.27-8.91-.56-5.9,2.27-11.54,5.65-16.18,3.72-5.12,8.56-9.05,13.18-13.31,2.11-1.94,4.22-3.93,6.25-5.96,1.33-1.33,3.28-3.17,3.56-5.21,1.55-.56,3.03-1.3,4.53-1.99.39-.17.49-.66.43-1.05-.61-3.36.35-6.61.96-9.88.02-.08.03-.15.04-.23.18-1.01-1.1-1.62-1.69-.71-.04.06-.08.13-.12.2-1.48,2.21-3.68,4.38-6.1,5.68.2-2.9-.48-5.76-.62-8.69-.18-3.69-.33-7.42-.35-11.11-.03-6.02-1.84-11.78-2.01-17.77.24-.38.26-.87-.17-1.27-3.09-2.79-6.83-4.63-10.4-6.71-3.44-2.01-6.85-4.16-10.15-6.4-3.34-2.26-6.44-4.72-9.23-7.65-1.27-1.34-2.67-2.74-3.32-4.5-.62-1.7-.84-3.51-.95-5.3-.2-3.43.32-6.94.06-10.37,1.9-1,3.82-1.77,5.97-2.26,2.85-.65,5.79-.88,8.71-1.02,5.16-.24,11.02-1.09,15.64,1.78,2.7,1.68,4.8,4.16,6.59,6.74.34.48,1,.75,1.54.4,3.07-1.95,5.67-4.57,8.83-6.4,2.51-1.46,5.51-2.76,7.09-5.33,1.37-2.23,1.95-5.02,2.45-7.56.49-2.55.8-5.13,1.24-7.68.14-.8-.21-1.48-1-1.76-.99-.35-2.09-.91-3.21-1.51.07-.16.09-.34.08-.55-.21-2.9,2.04-5.25,2.2-8.04,0-.07-.06-.1-.12-.09-1.52.22-2.55,2.04-3.18,3.29-.63,1.27-1.2,2.66-1.41,4.09-.18-.09-.34-.17-.52-.26-2.3-1.15-4.83-2.51-7.44-2.71-2.28-.18-3.24,1.45-4.31,3.18-1.23,1.98-2.6,4.03-3.41,6.22-1.22,3.26,2.46,5.28,3.06,8.16.22,1.06,1.42,1.3,2.26.92,1.43-.65,2.46-1.55,3.65-2.54.86-.72-.06-2.13-1.06-1.84-.88.26-1.69.59-2.48.95-.39-.79-.91-1.51-1.46-2.22-.33-.42-.69-.84-.95-1.32-.13-.24-.23-.44-.28-.71-.04-.21-.02-.26-.01-.29.05-.4.08-.26.21-.56.21-.47.44-.92.68-1.38.54-1.05,1.1-2.07,1.7-3.09.49-.83,1-1.7,1.61-2.46-.02.03.06-.05.12-.12.07-.01.19-.06.07-.06.21,0,.41,0,.62.02,2.03.22,4.34,1.48,6.24,2.44,1.78.89,3.54,1.96,5.39,2.76-.31,1.99-.58,3.98-.95,5.96-.45,2.39-.93,4.98-2.13,7.13-1.32,2.33-4.15,3.49-6.33,4.86-1.3.81-2.48,1.77-3.65,2.75-.07.02-.14.04-.2.08-.79.41-2.56-.38-3.5-.83-1.86-.91-3.62-2.03-5.35-3.15-1.32-.86-2.62-1.81-4.02-2.56-2.35-1.27-4.98-1.91-7.61-2.23-1.56-.19-3.12-.26-4.69-.23.43-.52.79-1.05,1.05-1.44,1.08-1.63,2.06-3.51,2.47-5.45.89-4.28-2.54-7.81-4.02-11.52-.38-.97-1.59-1.49-2.41-.64-2.11,2.18-4.39,4.25-7.01,5.81-.86.51-.85,1.52-.29,2.22,1.57,1.96,2.75,5.36,5.61,5.57.41.03.64-.4.57-.74-.26-1.35-1.06-2.32-1.8-3.43-.45-.67-.89-1.34-1.35-2,1.73-1.15,3.34-2.5,4.85-3.94.51.99,1.06,1.95,1.59,2.93.8,1.47,1.76,3.22,1.58,4.97-.17,1.62-.97,3.28-1.76,4.68-.47.84-.99,1.64-1.49,2.45-.13.22-.29.44-.43.66-3.2.26-6.38.86-9.48,1.56-2.35.53-4.64,1.07-7.01,1.47-2.08.35-4.22.84-5,3.03-.44,1.23-.51,2.61-.54,3.9-.05,1.47-.13,2.92-.24,4.38-.27,3.25-.34,6.59-.79,9.84-1.14-.4-2.3-.68-3.24-.98-2.98-.94-5.63-2.75-8.67-3.43-.27-2.13-.91-4.16-1.49-6.24-.69-2.45-.58-4.62-.11-7.1.47-2.54.99-5.08,1.31-7.64.16-1.28.26-2.6.24-3.9,0-.31-.03-.62-.06-.93.12-.17.25-.33.37-.5,1.08-1.47,2.14-2.95,3.21-4.43,2.02-2.81,3.93-5.71,6.12-8.4,2.07-2.54,4.24-5.01,6.25-7.61.96-1.24,1.88-2.51,2.72-3.83.22-.36.45-.71.65-1.05,1.51-.71,3.02-1.43,4.54-2.12,3.38-1.54,6.8-2.98,10.18-4.51,3.31-1.5,6.61-3.02,9.85-4.66,1.59-.81,3.18-1.64,4.73-2.52.63-.35,1.3-.71,1.95-1.08.31-.03.6-.06.86-.07,1.53-.11,3.08-.14,4.62-.09,2.9.1,5.8.47,8.5,1.57.6.24,1.35.53,1.66,1.15.43.87.15,2.13-.07,3.01-.61,2.56-2.28,4.53-4.01,6.42-1.61-1.15-3.42-1.66-5.36-1.86.41-1.27.48-2.54-.44-3.75-.22-.29-.78-.43-.96,0-.31.68-.65,1.23-.83,1.98-.18.8-.42,1.55-.78,2.3-.42.88.07,1.93,1.11,1.95,2.44.04,4.59.19,6.53,1.83.46.39,1.23.52,1.68,0,2.14-2.52,4.4-5.16,5.09-8.49.48-2.35.31-4.66-1.81-6.1-1.04-.71-2.28-1.1-3.41-1.64-1.85-.88-3.51-1.57-5.57-1.73-1.22-.1-2.43-.06-3.63.1,1.3-1.75,2.44-3.64,3.63-5.45,1.09-1.65,2.17-3.3,3.2-4.99.66-.6,1.34-1.19,2.04-1.75.83-.67,1.75-1.42,2.76-1.8.49-.18.89-.1,1.35-.48.5-.41.68-1.05.33-1.63-.68-1.14-1.95-.86-3.18-.16,2.12-4.17,3.76-8.6,4.21-13.27.05-.56-.25-.91-.65-1.05-.11-1.29-.73-2.69-1.17-3.76-.69-1.68-1.5-3.29-2.36-4.89-1.33-2.5-3.14-4.36-5.7-5.61-1.37-.67-2.76-1.28-4.18-1.85-4.81-1.96-9.81-3.47-14.62-5.42-1.14-.46-2.27-.91-3.43-1.29-.38-1.31-.88-2.59-1.06-3.95-.17-1.32,0-2.61.34-3.89.88-3.31,2.71-6.46,4.43-9.39.86-1.46,1.76-2.88,2.69-4.29.84-1.29,1.7-2.57,2.57-3.85,1.27-1.9,2.63-3.88,4.7-4.98,1.65-.87,3.61-.85,5.43-1.06,2.17-.26,4.35-.52,6.53-.63,1.77-.08,3.78-.08,5.22.4.05.02.13.07.17.11.03.12.09.33.1.36.06.39.01,1.41-.06,1.97-.48,3.86-1.98,7.48-3.07,11.19-1.32-.14-2.65-.15-3.98-.07-1.08.06-2.17.11-3.25.19.02-.1.05-.19.09-.29.25-.69.86-1.12,1.44-1.53,1.25-.89,2.5-1.71,2.4-3.41-.04-.67-.89-1.13-1.4-.57-1.01,1.08-2.25,1.81-3.37,2.76-1.03.87-1.49,2.04-2.03,3.21-.13.27-.26.54-.4.8-.61,1.13.18,2.25,1.37,2.38,1.62.17,3.32-.14,4.94-.24,1.65-.09,3.32-.13,4.94.2.87.17,1.79-.24,2.04-1.15,1.09-4.14,2.8-8.1,3.45-12.36.28-1.83.61-4.22-.77-5.71-1.36-1.47-3.8-1.59-5.67-1.63-2.45-.06-4.91.2-7.34.47-2.12.24-4.48.24-6.52.86-2.74.83-4.75,2.75-6.42,5,.04-.31.08-.63.13-.97.18-1.34.42-2.83-.26-4.07-.71-1.3-2.14-1.84-3.52-2.11-2.36-.45-4.93-.47-7.33-.4-2.07.06-4.4.18-6.23,1.24-2.93,1.7-2.82,5.13-3.62,8.03-.4,1.47-1.4,3.78-.51,5.24,1.2,1.95,3.88.47,5.35,1.74.46.39,1.08.11,1.14-.47.01-.14.04-.28.06-.42.15-.8.44-1.59.64-2.38.12-.45.18-.9.22-1.35,1.35.09,2.72.12,4.04-.12.99-.18.99-1.81,0-2-1.7-.31-3.52-.24-5.2.12-.69.15-.83.91-.59,1.45.32.7-.06,1.86-.19,2.56-.07.37-.13.73-.18,1.08-.99-.34-2.04-.17-3.15-.43-.8-.19-.73-.6-.64-1.3.09-.78.29-1.55.51-2.31.36-1.32.62-2.65.92-3.98.25-1.11.52-2.42,1.4-3.23,1.11-1.02,3.07-.91,4.46-.88,2.23.04,4.45.45,6.65.82.67.11,1.36.21,2.02.38.1.03.47.15.5.15.08.04.16.09.24.12,0,0,.01,0,.02,0,0,0,0,.01.01.02,0,0,0,0,.01,0,0,.02,0,.07.01.11,0-.01-.01-.05-.02-.11.03.26.03.2.02.11.02.04.03-.13.04.06.03.51-.02,1.02-.08,1.53-.18,1.46-.38,2.93-.48,4.41-.05.81-.1,1.63-.19,2.44-.02.16-.02.36-.03.57-.58.93-1.15,1.86-1.71,2.79-2.19,3.62-4.46,7.54-5.62,11.64-.68,2.44-.63,5.2.41,7.5-1.77-.51-3.69-.21-5.5.16-2.06.42-4.43,1.41-6.55,1.08-.59-.09-1.31.05-1.61.65-3.02,6.17-5,12.91-8.52,18.83-1.06-3.37-2.05-6.82-5.18-8.88-2.44-1.6-5.66-2.14-8.44-2.83-3.11-.77-6.29-1.41-9.31-2.48-.59-.21-1.22.24-1.4.79-.84,2.7-2.26,4.97-3.67,7.37-.57.99-.86,2.03-.61,3.18.09.39.26.76.56,1.03.3.27.66.25.95.43-.09-.05.15.2.15.2.24.28.43.62.65.92.44.6.91,1.19,1.38,1.77.95,1.17,1.97,2.29,2.99,3.4,2.04,2.22,4.17,4.38,5.93,6.83.51.7,1.48.94,2.14.27,1.31-1.32,2.39-2.88,3.34-4.46.95-1.59,1.97-3.36,2.4-5.17.85-3.5-2.57-4.21-4.91-5.65-.35-.22-.86-.08-1.06.27-.6,1.04-1.5,1.88-2.37,2.68-.29.27.01.8.4.68,1.17-.38,2.05-1.02,2.81-1.91.88.58,1.82,1.06,2.66,1.7.99.75.53,1.66,0,2.61-1.17,2.1-2.51,4.3-4.11,6.16-3.12-4.04-6.92-7.52-9.95-11.64-.25-.34-.81-1.02-1.37-1.28,0-.03,0-.05.01-.09.05-.48.42-.99.65-1.4,1.06-1.94,2.05-4.04,2.82-6.15,2.45.86,4.92,1.55,7.44,2.21,2.64.69,5.69,1.21,8.06,2.59,3.56,2.07,3.87,6.98,5.26,10.45.47,1.17,1.86,1.39,2.61.34.2-.27.38-.55.57-.82,4.04-6.06,6.11-13.2,9.2-19.75,1.81.07,3.63-.25,5.42-.59,1.28-.24,3.02-.74,4.45-.53.14.2.35.35.65.4.26.04.5.07.76.1.23.08.46.11.68.09.42.06.83.14,1.25.25,1.2.33,2.37.78,3.52,1.24,2.6,1.02,5.23,1.91,7.86,2.84,1.56.56,3.11,1.14,4.65,1.74,2.22,1.24,4.55,2.24,6.4,4.07,2.01,1.98,3.43,4.5,4.51,7.09.99,2.37,2.43,5.31,1.38,7.87-.68,1.64-1.75,3.17-2.71,4.66-1.1,1.72-2.26,3.4-3.41,5.08-2.03,2.98-3.9,6.06-6.22,8.83-1.08,1.28-2.22,2.5-3.51,3.57-.58.49-1.26,1.13-1.96,1.45-.79.36-1.59.68-2.37,1.08-1.57.8-3.23,1.27-4.89,1.8-1.96.63-3.9,1.32-5.84,1.99-3.81,1.33-7.67,2.65-11.62,3.46-4.28.87-8.69,1-12.81,2.57-.63.25-1.2.53-1.72.86-.29-3.42-1.21-6.86-1.72-10.18-.38-2.45-.83-4.91-1.83-7.19-.88-2.03-2.31-3.49-4.11-4.75-4.23-2.96-9.3-4.6-13.83-7.04-2.88-1.55-5.74-3.11-8.69-4.53-2.41-1.16-4.97-2.01-7.38-3.15-1.64-.78-2.01-3.22-2.41-4.81-.43-1.69-.83-4.94-2.69-5.73-1.96-.83-3.19,1.71-1.55,2.71.01.13.23.4.28.51.14.3.25.64.36.96.17.55.33,1.09.48,1.64-.52-.13-1.04-.24-1.46-.33-1.98-.4-4-.56-5.98-.96-2.28-.47-4.46-1.31-6.74-1.8-1.13-.24-2.27-.15-3.42-.26-1.3-.11-2.58-.03-3.88.02-2.57.1-5.13.22-7.69.38-2.17.14-4.34.45-6.51.49-.97.03-2.04.01-2.83-.64-1.11-.92-1.67-2.59-2.17-3.89-.86-2.19-1.58-4.45-2.12-6.74-.26-1.11-.48-2.25-.59-3.39-.01-.16-.02-.31-.04-.47,2.06-1.39,4.05-2.91,6.16-4.23,3.34-2.1,6.83-4,10.43-5.62,7.03-3.17,14.46-5.46,21.18-9.3.4-.23.6-.74.48-1.19-.75-2.95-.45-5.88.25-8.8.62-2.62,1.56-5.23,1.85-7.92.81-.32,1.59-.75,2.4-1.09,1.47-.6,3-1.07,4.54-1.49,2.46-.68,4.95-1.24,7.39-2.01,1.87-.6,3.78-1.21,5.74-1.43.28-.04.56-.06.84-.08,1.56-.09,2.6.11,3.17,1.41.65,1.46.8,3.17.88,4.74.11,2.11.04,4.22-.11,6.31-.27,3.79-.76,7.57-1.24,11.33-.1.79-.15,1.61-.4,2.37-.02.05-.03.1-.03.12-.05.02-.1.04-.13.04-.24.06-.47.1-.7.14-1.22.18-2.97.38-4.37.68-1.14.25-2.28.54-3.43.78.07-.9.11-1.81.16-2.72.05-.88.14-1.75.24-2.63.03-.31.04-.64.06-.95,0-.07.07-.42.05-.38.3-.9,1.1-1.12,1.86-1.65,1.28-.89,1.67-2.13,1.37-3.63-.31-1.61-2.46-1.28-2.93,0-.31.81-.92.87-1.66,1.4-1.04.74-1.87,1.94-2.16,3.19-.28,1.2-.28,2.62-.37,3.84-.12,1.74-.09,3.51-.4,5.23-.18,1.01.47,2.45,1.74,2.28,3.49-.46,6.9-1.42,10.39-1.94.78-.11,1.45-.33,2.01-.67.36,1.06,1.18,1.96,1.96,2.73,1.04,1.01,2.24,2.24,3.72,2.4,1.29.14,1.9-1.45,1.39-2.41-.56-1.05-2.06-1.84-2.98-2.61-.82-.69-1.63-1.39-2.61-1.8.17-.38.29-.8.37-1.27.67-3.94.95-8.05,1.14-12.04.11-2.39.15-4.8-.01-7.18-.14-1.98-.35-4.07-1.11-5.92-.1-.24-.2-.47-.32-.7.52.13,1.03.27,1.54.42,1.33.38,2.67.77,4.07.93,2.97.33,5.59-1.3,6.82-4.02,1.04-2.29.3-4.77-1.82-6.12-2.04-1.31-4.8-1.4-7-.49-.81.33-1.37,1.07-1.13,1.99.2.77,1.18,1.45,1.99,1.13,1.41-.58,3.18-.75,4.5.18,1.21.84.78,2.06-.07,3.11-1.42,1.75-3.39,1.45-5.39,1.05-1.04-.21-2.67-.68-4.06-.6-.05-.25-.22-.47-.49-.51-4.32-.74-8.71-.22-13.02.41-3.97.59-8.01,1.24-11.91,2.18-1.46.36-2.9.95-4.02,1.98-.57.52-.97,1.19-1.33,1.86-.53,1-1.15,1.92-1.79,2.86-2.23,3.3-4.38,6.6-6.12,10.19-.58,1.2-1.21,2.39-2.25,3.27-.75.62-1.64,1.09-2.57,1.5-.68-1.79-2.07-3.11-3.63-4.14-2.63-1.76-5.79-2.76-8.88-3.46-.67-2.09-1.48-4.13-2.22-6.18-.4-1.09-.77-2.19-1.04-3.32-.16-.69-.43-1.66-.09-2.34.25-.47.82-.73,1.27-.97.84-.46,1.68-.89,2.47-1.42,1.73-1.15,3.21-2.61,5.02-3.62.94,2.36,2.07,4.65,2.74,7.09-2.5.7-5.12,1.24-7.36,2.59-.32.2-.11.66.25.59,2.73-.58,5.42-1.35,8.12-2.06.37-.09.55-.48.47-.83-.62-3.09-1.8-5.98-2.75-8.97-.15-.46-.69-.87-1.19-.68-2.55.96-4.65,2.65-6.96,4.05-1.46.88-3.44,1.44-4.3,3.04-1.02,1.9-.26,4.61.19,6.56.67,2.83,1.7,5.56,2.39,8.38.14.57.64,1.06,1.2,1.2,2.73.69,5.49,1.57,7.91,3.03,1.11.67,2.07,1.44,2.62,2.44.03.06.05.09.06.11,0,.01,0,.02.01.04.05.11.08.22.11.34-3.98,1.65-8.03,3.09-12.1,4.48-3.21,1.09-6.92,1.97-9.65,4.11-2.32,1.83-3.06,4.55-4.56,6.96-2.02,3.25-5.14,6.35-4.86,10.48.28,4.14,2.93,7.82,2.76,12.01-.03.74.64,1.32,1.33,1.33,4.16.11,8.21,1.19,12.12,2.52,1.12.38,2.22.8,3.33,1.22-3.02,1.37-6.19,2.4-9.12,3.96-1.87,1-3.76,1.95-5.62,2.96-.79.43-1.53.87-2.21,1.38-.16-.02-.33-.05-.5-.08-1.41-.25-2.8-.65-4.16-1.13-2.85-1.01-5.55-2.42-8.1-4.04-2.36-1.51-4.52-3.25-6.58-5.16-2.44-2.26-5.04-4.35-7.63-6.43-1.52-1.22-3.07-2.45-4.57-3.73-.19-.35-.37-.71-.51-1.05-1.23-2.99-1.9-6.77-2.08-10.08-.09-1.55-.07-3.19.46-4.67.43-1.19,1.31-2.01,2.33-2.7,2.53-1.72,5.42-2.78,8.06-4.31,3.17-1.84,6.59-4.17,10.27-4.93,2.15,4.62,5.16,9.42,5.07,14.56-1.04.2-2.04.59-3.03.99-1,.4-2.91,1.38-3.97.81-.85-.46-1.13-2.1-1.33-2.94-.25-1.01-.43-2.02-.78-3-.1-.27-.53-.25-.53.07.03,2.25-.44,5.5,1.55,7.14,2.71,2.23,6.46-.44,9.41-.42.55,0,1.26-.44,1.35-1.02.48-3.25.05-6.52-1.08-9.6-1.12-3.07-2.73-5.91-3.99-8.92-.26-.63-.85-1.36-1.65-1.26-3.83.47-7.3,2.27-10.62,4.16-2.8,1.6-5.69,2.97-8.51,4.5-1.57.84-3.03,1.81-4.16,3.05-2.51,1.78-3.31,5.87-3.6,8.64-.08.8-.13,1.62-.16,2.42-.45-.08-.88-.14-1.24-.19-2.63-.39-5.28-.55-7.93-.65-5.15-.2-10.33-.25-15.48-.02-2.74.11-5.55.4-8.29.2-2.02-.14-4.16-.4-6.15.14-1.48-.82-2.74-1.97-3.94-3.14-1.27-1.25-2.46-2.57-3.72-3.84-.92-.93-1.94-1.76-2.85-2.7-.42-.43-.83-.88-1.13-1.4-.06-.1-.09-.18-.1-.18.05-.24.27-.51.39-.68.76-1.08,1.84-1.94,2.8-2.83,1.83-1.72,3.58-3.52,5.36-5.3,1.33-1.33,2.76-2.61,4.09-3.95.69,1.33,1.15,2.97,1.23,4.3.13,2.19-2.36,3.52-3.72,4.86-.33.32,0,.92.46.78,2.51-.79,4.76-2.51,5.25-5.24.47-2.62-.66-5.41-1.76-7.74-.32-.66-1.37-.93-1.98-.51-2,1.4-3.74,3.28-5.47,5-1.78,1.77-3.54,3.57-5.37,5.3-2.14,2.02-5.81,4.72-3.79,8,.87,1.42,2.18,2.54,3.39,3.65,1.25,1.15,2.36,2.45,3.52,3.69,2.66,2.83,5.43,5.28,9.28,6.2,1.73.42,3.51.72,5.28.89-2.08,2.95-1.79,6.97-.91,10.62.13.57.29,1.14.46,1.71-.33.2-.65.44-.96.68-1.04.76-1.97,1.61-2.89,2.52-1.68,1.66-3.51,3.27-4.87,5.2-.17.25.06.61.35.61,2.42-.08,4.33-1.82,6.09-3.32.9-.77,1.79-1.55,2.75-2.24.19-.14.38-.26.57-.38.53,1.41,1.11,2.81,1.69,4.2.64,1.55,1.36,3.09,1.99,4.65.19.85.38,1.7.57,2.54-.7,1.7-.96,3.61-1.54,5.36-.49,1.5-1.1,2.97-1.62,4.46-6.48,1.28-11.43,5.9-17.38,8.56-1.44.64-2.99,1.14-4.56,1.29-.48.05-1.14.16-1.58-.09-.39-.22-.68-.84-.94-1.2-.52-.71-1.09-1.4-1.71-2.03-.45-.45-1.1-.87-1.45-1.41-.11-.17-.16-.35-.13-.72.08-.79.37-1.61.65-2.35,1.22-3.12,3.21-5.97,5.12-8.75.66,1.17,1.03,2.48.68,3.83-.21.8-.59,1.54-1.01,2.26-.51.86-.81,1.72-1.16,2.65-.07.18.17.34.32.25,1.02-.66,1.82-1.27,2.5-2.3.59-.88,1.1-1.85,1.35-2.89.59-2.43-.26-4.62-1.63-6.6-.57-.82-1.55-.76-2.13,0-2.37,3.12-4.77,6.3-6.36,9.91-.65,1.46-1.36,3.21-1.12,4.85.21,1.46,1.37,2.3,2.34,3.28,1.07,1.1,1.78,2.75,3.06,3.61,1.42.95,3.32.68,4.9.39,3.63-.66,6.92-2.62,10.04-4.5,3.52-2.11,7.22-4.57,11.4-5.06.74-.08,1.3-.44,1.53-1.17.54-1.63,1.19-3.22,1.72-4.85.25,2.41.12,4.8-.97,7.07-1.72,3.54-4.66,6.29-7.29,9.15-1.42,1.55-2.8,3.16-3.99,4.91-1.03,1.51-2.5,3.61-2.45,5.53.02.97.51,1.73,1.12,2.45.83,1,1.76,1.94,2.65,2.89,1.93,2.09,3.97,3.96,6.21,5.7,2.15,1.68,4.31,3.33,6.87,4.34,2.07.82,3.52.08,5.07-1.32,2.2-1.99,4.02-4.32,5.87-6.63,1.35-1.68,2.43-3.59,3.96-5.11.13-.13.26-.25.4-.37-.04.05.35-.16.29-.16.22-.05.53-.05.9,0,.99.12,1.98.52,2.92.87,1.72.65,3.45,1.37,5.25,1.77.57,4.45.88,8.93,1.17,13.4-2.2.58-4.36,1.29-6.46,2.14-1.85.74-3.76,1.52-5.56,2.45-.52-2.4-.95-4.9-.49-7.29,1.06-.39,2.1-.9,3.07-1.49,1.24-.76,2.09-1.58,2.8-2.85.38-.68-.39-1.52-1.09-1.09-.64.39-1.33.66-1.96,1.06-.71.44-1.4.88-2.15,1.25-.61.3-1.23.52-1.86.74-.95.33-1.21.79-1.42,1.74-.77,3.45.24,6.79.59,10.21.08.84.9,1.85,1.88,1.44,2.43-1.01,4.76-2.22,7.22-3.17,2.46-.94,4.98-1.75,7.54-2.37.64-.16,1.22-.87,1.18-1.54-.35-5.5-.71-10.99-1.46-16.44-.1-.75-.92-1.13-1.57-1.19-1.75-.2-3.55-1.33-5.17-1.99-1.71-.7-3.63-1.43-5.52-1.24-1.84.19-3.11,1.5-4.22,2.87-1.16,1.44-2.22,3.09-3.29,4.36-1.73,2.05-3.3,4.16-5.3,5.97-.22.2-.65.6-.75.66-.03.03-.06.05-.08.06-.68-.3-1.73-.67-2.51-1.13-4.56-2.73-8.2-6.54-11.77-10.4-.17-.19-.62-.71-.65-.74.06-.15.23-.53.3-.67.24-.49.48-.96.75-1.43.95-1.64,2.12-3.11,3.37-4.53,2.53-2.87,5.34-5.49,7.49-8.67,1.74-2.58,2.75-5.43,2.89-8.44.87,1.3,1.76,2.58,2.62,3.88.4.62,1.18,1,1.92.78,3.95-1.18,7.89-.91,11.96-.7,1.07.05,1.83-1.08,1.56-2.06-1.21-4.49,1.66-9.7-1.31-13.84-1.11-1.56-2.94-1.16-4.6-1.12-2.28.05-4.8-.4-6.91.68-.42.21-.69.84-.53,1.29.81,2.19,1.68,5.17,3.64,6.61.14.11.35-.03.34-.2-.03-1.1-.46-2.3-.78-3.36-.26-.83-.49-1.68-.71-2.52,1.52-.22,3.15.13,4.66.18.84.02,1.7-.07,2.53-.01h.02c.06.08.18.32.26.5.79,1.89.42,4.07.2,6.04-.16,1.48-.33,2.95-.26,4.42-3.29-.21-6.57-.29-9.8.47-1.25-1.87-2.53-3.73-3.77-5.61-.64-.96-1.27-1.92-1.93-2.88-.8-4.11-1.85-8.18-2.72-12.29-.66-3.07-1.23-6.18-1.47-9.32-.09-1.13-.13-2.15.48-3.14.47-.78,1.15-1.4,1.9-1.9,1.99-1.33,4.45-2.38,6.74-3.03.04-.01.08-.03.13-.04.57.14,1.12.28,1.65.43,4.87,1.36,9.47,3.55,13.96,5.84,2.93,1.5,5.72,3.14,8.35,5.11.07.05.15.11.21.16.5.49,1,.99,1.49,1.48,2.96,2.93,5.88,5.89,8.65,9.01,2.57,2.89,5.15,5.79,8.23,8.15,1.26.96,2.55,1.86,3.83,2.79.23.17.47.36.73.56-1.27,1.58-2.39,3.29-3.47,5.08-.93,1.54-1.83,3.1-2.71,4.66-.64,1.14-2.05,3.08-1.53,4.44.04.12.12.22.21.29.56,2.51,1.59,4.98,2.4,7.41.39,1.18.76,2.37,1.19,3.54.24,1.17.59,2.34,1.15,3.35.02.04.03.06.05.09.33.83.88,1.64,1.27,2.18,1.35,1.89,3.14,3.46,4.73,5.13.57.61,1.19,1.17,1.56,1.9.46.92.28,1.95-.08,2.87-.8,2.02-2.4,3.64-3.95,5.17-.97-.93-1.98-1.96-3.27-2.21-.42-.08-.83.35-.58.76.88,1.45,1.84,2.81,3.01,4.06.36.38,1.07.49,1.52.2,3.95-2.58,8.99-8.45,5.52-13.25-.69-.95-1.49-1.83-2.31-2.68,2.53.4,5.11.43,7.66.49,3.58.1,7.17.51,10.71.97,4.26.55,8.49,1.42,12.53,2.88-.43,1.27-1,2.49-1.61,3.69-.74,1.45-1.45,2.94-2.31,4.32-1.49,2.36-3.72,4.9-3.9,7.81-.19,2.89,2.49,5.39,4.22,7.39,2.34,2.73,3.81,6.1,6,8.96.55.72,1.42,1.1,2.3.6,1.3-.75,2.75-1.34,4.21-1.7,1.32-.32,3.06-.61,4.34.04.92.47,1.88-.12,1.96-1.13.24-3.15-.21-6.53-1.68-9.36-.46-.87-1.11-1.72-2.2-1.64-1.21.08-2.16,1.08-2.88,1.94-.39.47-.03,1.23.61,1.06.51-.14,1.01-.26,1.49-.49.1-.05.52-.35.71-.38-.04.05.13.27.16.33.17.49.4.96.55,1.46.51,1.7.72,3.54.71,5.33-1.28-.23-2.63-.13-3.91.04-1.46.21-2.88.49-4.25.98-1.62-2.63-3.07-5.41-5.02-7.8-.84-1.02-1.77-1.99-2.57-3.05-.57-.75-1.34-1.86-1.23-2.57.21-1.23,1.05-2.43,1.71-3.46.68-1.07,1.44-2.1,2.06-3.19,1.73-3.03,3.55-6.33,4.35-9.74,2.94,2.58,6,5.6,9.54,7.35,1.4.69,2.94,1.05,4.46.52,1.33-.47,2.37-1.43,3.51-2.23,2.8-1.95,6.2-2.96,9.51-3.63,1.49-.31,3.02-.59,4.55-.6.44,0,.87,0,1.3.16.05.02.13.09.17.21.41,1.41-.46,3.41-.8,4.76-.55,2.19-1.21,4.36-1.76,6.55-.31,1.22-.42,3.02-1.23,4.02-.13.15.03.14-.36.14-.38,0-.75,0-1.14-.03-.33-.02-.67-.04-1.01-.04-.02-1.02,0-2.05.03-3.07.05-1.15.22-2.38.12-3.54.18-.13.38-.19.68-.21.14,0,.28-.17.18-.31-.31-.43-.68-.83-1.25-.86-1.06-.06-1.5.72-1.62,1.64-.33,2.56-.52,5.11-.49,7.69.01.8.76,1.33,1.52,1.16,1.38-.33,2.83.4,4.21-.1,1.35-.49,1.88-2.1,2.29-3.34,1.18-3.59,2.13-7.29,3.05-10.96.61-2.43,1.03-5.61-1.98-6.52-1.26-.38-2.67-.28-3.96-.16-1.81.16-3.6.48-5.36.92-1.83.47-3.62,1.06-5.35,1.82-1.62.71-2.99,1.68-4.43,2.7-1.1.77-1.91,1.15-3.19.53-1.95-.93-3.7-2.48-5.34-3.86-3.1-2.61-5.82-5.48-9.74-6.84-3.4-1.19-7.08-1.25-10.63-1.5-4.15-.28-8.31-.81-12.45-1.26-3.41-.37-6.94-.78-10.21-1.9.07-.95-.05-2.01-.08-2.7-.06-1.92-.11-3.84-.17-5.76-.06-1.86-.15-3.73-.24-5.59-.02-.35-.03-.7-.04-1.07.35-.33.69-.71,1.06-1.07.9-.88,1.83-1.73,2.79-2.54,2.03-1.73,4.14-3.37,6.28-4.97,2.08-1.55,4.17-3.07,6.23-4.64,1.19-.92,2.61-1.85,3.79-2.96,2.19-.87,4.33-1.85,6.56-2.64,3.1-1.09,6.16-2.27,9.26-3.32,2.98-1.02,6.08-1.83,9.25-1.8,1.43.02,2.84.25,4.27.35,1.47.11,2.94.15,4.41.24,1.37.07,2.79.17,4.17.4-.97.11-1.94.29-2.85.61-1.22.43-2.39,1-3.12,2.1-.59.88-.81,1.95-1.05,2.96-.34,1.46-.77,2.85-1.21,4.28-.37,1.21-.65,2.63-.39,3.89.16.78.58,1.21,1.27,1.57,1.24.65,2.48,1.52,3.85,1.83,1.26.29,2.43,0,3.45-.76,1.22-.9,2.6-2.2,3.25-3.58.14-.3-.09-.65-.43-.56-1.53.4-2.45,1.76-3.62,2.7-1.28,1.02-2.52.7-3.89-.05-.56-.31-1.96-.83-2.14-1.39-.16-.49.12-1.54.25-2.02.22-.83.56-1.64.9-2.41.92-2.08,1.22-4.42,3.46-5.36,1.34-.56,2.8-.63,4.22-.82,1.23-.16,2.66-.27,3.75-.93,2.02,1.26,3.8,2.99,5.44,4.66,2.17,2.21,4.15,4.59,6.09,7.01,1.84,2.29,3.69,4.57,5.5,6.89,1.71,2.21,3.36,4.6,3.98,7.36.7,3.09-.27,6.3-.77,9.35-.58,3.55-1.14,7.1-1.82,10.63-.55,2.87-1.31,5.62-2.5,8.3-1.13,2.54-2.48,4.98-3.85,7.4-2.67,4.73-5.62,9.55-7.04,14.84-.83,3.09-.96,6.32-1.25,9.49-.15,1.61-.22,3.18-.09,4.71-1.02-1.35-1.92-2.8-2.17-4.31-.26-1.61-2.89-1.23-2.83.38.05,1.32.8,2.57,1.5,3.64.95,1.46,2.06,2.84,3.22,4.14.85.94,1.73,1.89,2.67,2.76,1.66,2.58,3.76,4.98,5.79,7.23,2.2,2.43,4.54,4.66,7.03,6.78-4.97,2.34-10.43,3.54-15.31,6.13-1.91,1.01-3.43,2.33-4.36,4.31-1.52,3.23-1.72,6.89-3.03,10.19-.2.49.14.98.51,1.26,3.27,2.46,6.2,5.48,8.54,8.84,1.19,1.69,2.26,3.51,2.99,5.45.34.91.62,1.84.79,2.8.15.89.11,1.79.31,2.67.04.15.1.28.18.38-.08.97-.19,1.93-.29,2.88-.38,3.56-.78,7.13-1.27,10.67-.1.7-.18,1.28-.84,1.62-.84.42-1.85.55-2.76.8-2,.57-4,1.17-6.07,1.44-1.04.14-2.07.29-3.12.23-.72-.04-1.5-.11-1.92-.46-1.49-1.21-.07-3.92.65-5.25.62-1.14,1.33-2.29,2.25-3.21.93-.93,2.3-1.28,3.54-1.61,1.45-.38,2.9-1.06,4.23-1.75.73-.38.22-1.56-.56-1.32-1.58.47-3.21.42-4.8.86-1.33.37-2.71.83-3.78,1.73-1.94,1.66-3.33,4.24-4.23,6.59-.76,1.97-.83,4.41.78,5.99,1.58,1.56,3.86,1.59,5.92,1.31,2.2-.3,4.31-1.11,6.4-1.81,1.31-.44,2.9-.7,4.19-1.36,0,.35.04.71.1,1.07.13.77.25,1.89,1.04,2.25.22.09.51.11.68-.09.56-.65.31-1.42.1-2.17-.19-.7-.39-1.39-.55-2.09.58-.67.78-1.51.89-2.38.18-1.38.32-2.76.49-4.14.46-3.77.91-7.58,1.08-11.37.05-1.01.04-2.03-.02-3.03.19.24.4.45.66.68.47.4,1.44.18,1.36-.57-.03-.36-.03-.68-.18-1.02-.15-.33-.38-.63-.62-.89-.21-.22-.46-.42-.71-.6-.29-.2-.58-.31-.88-.47-.24-1.14-.58-2.25-1.06-3.32-1.37-3.06-3.89-5.33-5.86-7.98-1.65-2.21-2.9-4.75-.91-7.18,1.14-1.4,2.76-2.38,4.21-3.43,1.32-.95,2.64-1.88,4.02-2.73,2.81-1.73,5.84-2.98,9.12-3.46,3.38-.5,6.87-.74,10.28-.9,3.42-.16,7.27-.3,10.55.87,3.03,1.08,4.91,4.06,7.36,6,2.61,2.07,5.75,3.79,7.61,6.65,1.78,2.73,1.76,6.21,1.67,9.36-.09,3.06-.31,6.09-.29,9.15,0,3.07.07,6.25-.65,9.26-.19.74-.39,1.48-.66,2.18-1.33,1-2.72,1.92-4.06,2.85-2.81,1.95-5.45,3.99-8.02,6.25-5.79,5.09-11.36,10.38-17.5,15.06-2.54,1.94-5.25,3.99-6.82,6.84-1.68,3.06-2.33,6.73-3.13,10.1-1.82,7.64-2.9,15.39-3.68,23.2-.26,2.63-.52,5.27-.73,7.91-.38.33-.75.66-1.14.97-1.72,1.41-3.54,2.69-5.26,4.11-2.72,2.25-5.02,5.45-8.33,6.86-1.79.32-3.54.85-5.34,1.15-2.11.35-4.32.52-6.46.27-.62-2.72-1.57-5.47-1.41-8.27.88-.12,1.75-.29,2.61-.51.29.8.53,1.61.74,2.44.02.06.03.11.04.17.17.72,1.29.56,1.29-.18v-.17c.04-1.87.76-4.87-.87-6.2-1.63-1.33-4.63.36-6.32.81-.2.05-.44.25-.47.47-.44,3.18-1.22,6.52-.75,9.74.42,2.83,2.58,4.4,5.06,5.45,3.32,1.41,6.74,2.37,10.32,2.81,1.39.17,2.84.31,4.3.37-.56.25-1.11.51-1.66.78-1.59.78-3.23,1.54-4.55,2.75-2.32,2.12-3.32,5.16-4.81,7.84-1.6,2.85-4.24,5.5-7.71,5.62-.57.02-2.25-.1-2.16-1.01.1-.95,2.01-.78,2.58-.7.45.06.96-.18.94-.71-.01-.26-.03-.52-.07-.79-.05-.32-.12-.63-.21-.93-.1-.32-.38-.53-.71-.55-2.72-.07-6.73,1.22-5.87,4.72.87,3.51,4.72,5.04,7.98,5.11,4.14.08,7.63-2.1,10.89-4.41,3.98-2.81,8.15-5.22,12.41-7.57,2.17-1.2,4.33-2.46,6.73-3.13,2.51-.71,4.96-.69,7.47-.01,1.1.29,2.18.61,3.32.77.78.11,1.57.06,2.35.16,1.08.13,1.59,1.73,1.78,2.66.27,1.27.52,2.08,1.67,2.84,1.63,1.09,3.83.91,5.02,2.6,2.06,2.93,2.13,6.99,5.04,9.37,1.46,1.19,3.36,1.93,5.13,2.53,2.03.68,4.21,1.19,6.36,1.2,2.04,0,3.96-.74,5.83-1.47,2.25-.87,4.31-1.39,6.74-1.11.51.06.97-.58.8-1.05-.12-.31-.25-.61-.4-.88-.65-1.18-1.64-1.93-3.15-1.94-1.53-.02-3.27.79-4.67-.11-1.51-.96-2.14-3.07-2.78-4.64-.61-1.48-1.27-3.02-2.41-4.17,1.1-1.92,2.44-3.69,3.7-5.51,1.46,1.54,3.37,2.12,5.61,1.9,2.28-.22,4.96-1.41,7.08-.07.93.58,1.67,1.47,2.41,2.26.95,1.01,1.83,2.03,2.68,3.12,1.5,1.95,3.12,4.15,5.56,4.97,3.56,1.18,7.34-.64,10.95.35.51.14,1.12-.27,1.09-.83-.02-.31-.05-.62-.11-.92-.19-1.03-.63-1.98-1.59-2.55-1.09-.64-2.4-.61-3.58-.95-1.52-.44-2.98-1.85-3.38-3.39-.3-1.14-.03-2.37.31-3.54,2.29,1.68,5,2.42,7.8,3.01,3.34.7,7.05,1.23,9.93,3.17.92.62,1.68,1,2.81.71,1.39-.35,2.73-1.14,3.91-1.91,2.46-1.62,4.91-3.73,6.35-6.33,1.96-3.58.73-7.87,1.27-11.73.14-1-1.28-1.47-1.57-.43Z"/>
    </clipPath>
    <clipPath id="clippath-2">
      <path class="cls-1" d="M174.63,64.76c.18-.03.29,0,.38.05-.13-.04-.25-.07-.38-.05ZM269.72,330.56c-.26.95-.29,1.96-.35,2.93-.06.88,0,2.13-.47,2.92-.46.77-1.78.84-2.57.89-1.01.07-2.03.04-3.05-.03-3.21-.24-5.86-2.17-8.71-3.45,1.14-.21,2.27-.45,3.36-.87,2.6-1,4.13-3.03,4.89-5.65.02-.08.05-.17.07-.26.3-1.14-1.36-1.9-1.95-.82-.05.08-.09.16-.14.23-1.78,2.74-6.63.84-9.04,0-1.96-.7-3.68-1.99-5.72-2.49-1.14-.28-2.2-.21-3.18.13.08-.2.17-.4.26-.6.16-.33.19-.84-.14-1.1-5.09-3.97-8.4-9.74-12.1-14.93-1.87-2.62-3.74-5.25-5.31-8.07-1.52-2.74-2.97-5.75-3.27-8.91-.56-5.9,2.27-11.54,5.65-16.18,3.72-5.12,8.56-9.05,13.18-13.31,2.11-1.94,4.22-3.93,6.25-5.96,1.33-1.33,3.28-3.17,3.56-5.21,1.55-.56,3.03-1.3,4.53-1.99.39-.17.49-.66.43-1.05-.61-3.36.35-6.61.96-9.88.02-.08.03-.15.04-.23.18-1.01-1.1-1.62-1.69-.71-.04.06-.08.13-.12.2-1.48,2.21-3.68,4.38-6.1,5.68.2-2.9-.48-5.76-.62-8.69-.18-3.69-.33-7.42-.35-11.11-.03-6.02-1.84-11.78-2.01-17.77.24-.38.26-.87-.17-1.27-3.09-2.79-6.83-4.63-10.4-6.71-3.44-2.01-6.85-4.16-10.15-6.4-3.34-2.26-6.44-4.72-9.23-7.65-1.27-1.34-2.67-2.74-3.32-4.5-.62-1.7-.84-3.51-.95-5.3-.2-3.43.32-6.94.06-10.37,1.9-1,3.82-1.77,5.97-2.26,2.85-.65,5.79-.88,8.71-1.02,5.16-.24,11.02-1.09,15.64,1.78,2.7,1.68,4.8,4.16,6.59,6.74.34.48,1,.75,1.54.4,3.07-1.95,5.67-4.57,8.83-6.4,2.51-1.46,5.51-2.76,7.09-5.33,1.37-2.23,1.95-5.02,2.45-7.56.49-2.55.8-5.13,1.24-7.68.14-.8-.21-1.48-1-1.76-.99-.35-2.09-.91-3.21-1.51.07-.16.09-.34.08-.55-.21-2.9,2.04-5.25,2.2-8.04,0-.07-.06-.1-.12-.09-1.52.22-2.55,2.04-3.18,3.29-.63,1.27-1.2,2.66-1.41,4.09-.18-.09-.34-.17-.52-.26-2.3-1.15-4.83-2.51-7.44-2.71-2.28-.18-3.24,1.45-4.31,3.18-1.23,1.98-2.6,4.03-3.41,6.22-1.22,3.26,2.46,5.28,3.06,8.16.22,1.06,1.42,1.3,2.26.92,1.43-.65,2.46-1.55,3.65-2.54.86-.72-.06-2.13-1.06-1.84-.88.26-1.69.59-2.48.95-.39-.79-.91-1.51-1.46-2.22-.33-.42-.69-.84-.95-1.32-.13-.24-.23-.44-.28-.71-.04-.21-.02-.26-.01-.29.05-.4.08-.26.21-.56.21-.47.44-.92.68-1.38.54-1.05,1.1-2.07,1.7-3.09.49-.83,1-1.7,1.61-2.46-.02.03.06-.05.12-.12.07-.01.19-.06.07-.06.21,0,.41,0,.62.02,2.03.22,4.34,1.48,6.24,2.44,1.78.89,3.54,1.96,5.39,2.76-.31,1.99-.58,3.98-.95,5.96-.45,2.39-.93,4.98-2.13,7.13-1.32,2.33-4.15,3.49-6.33,4.86-1.3.81-2.48,1.77-3.65,2.75-.07.02-.14.04-.2.08-.79.41-2.56-.38-3.5-.83-1.86-.91-3.62-2.03-5.35-3.15-1.32-.86-2.62-1.81-4.02-2.56-2.35-1.27-4.98-1.91-7.61-2.23-1.56-.19-3.12-.26-4.69-.23.43-.52.79-1.05,1.05-1.44,1.08-1.63,2.06-3.51,2.47-5.45.89-4.28-2.54-7.81-4.02-11.52-.38-.97-1.59-1.49-2.41-.64-2.11,2.18-4.39,4.25-7.01,5.81-.86.51-.85,1.52-.29,2.22,1.57,1.96,2.75,5.36,5.61,5.57.41.03.64-.4.57-.74-.26-1.35-1.06-2.32-1.8-3.43-.45-.67-.89-1.34-1.35-2,1.73-1.15,3.34-2.5,4.85-3.94.51.99,1.06,1.95,1.59,2.93.8,1.47,1.76,3.22,1.58,4.97-.17,1.62-.97,3.28-1.76,4.68-.47.84-.99,1.64-1.49,2.45-.13.22-.29.44-.43.66-3.2.26-6.38.86-9.48,1.56-2.35.53-4.64,1.07-7.01,1.47-2.08.35-4.22.84-5,3.03-.44,1.23-.51,2.61-.54,3.9-.05,1.47-.13,2.92-.24,4.38-.27,3.25-.34,6.59-.79,9.84-1.14-.4-2.3-.68-3.24-.98-2.98-.94-5.63-2.75-8.67-3.43-.27-2.13-.91-4.16-1.49-6.24-.69-2.45-.58-4.62-.11-7.1.47-2.54.99-5.08,1.31-7.64.16-1.28.26-2.6.24-3.9,0-.31-.03-.62-.06-.93.12-.17.25-.33.37-.5,1.08-1.47,2.14-2.95,3.21-4.43,2.02-2.81,3.93-5.71,6.12-8.4,2.07-2.54,4.24-5.01,6.25-7.61.96-1.24,1.88-2.51,2.72-3.83.22-.36.45-.71.65-1.05,1.51-.71,3.02-1.43,4.54-2.12,3.38-1.54,6.8-2.98,10.18-4.51,3.31-1.5,6.61-3.02,9.85-4.66,1.59-.81,3.18-1.64,4.73-2.52.63-.35,1.3-.71,1.95-1.08.31-.03.6-.06.86-.07,1.53-.11,3.08-.14,4.62-.09,2.9.1,5.8.47,8.5,1.57.6.24,1.35.53,1.66,1.15.43.87.15,2.13-.07,3.01-.61,2.56-2.28,4.53-4.01,6.42-1.61-1.15-3.42-1.66-5.36-1.86.41-1.27.48-2.54-.44-3.75-.22-.29-.78-.43-.96,0-.31.68-.65,1.23-.83,1.98-.18.8-.42,1.55-.78,2.3-.42.88.07,1.93,1.11,1.95,2.44.04,4.59.19,6.53,1.83.46.39,1.23.52,1.68,0,2.14-2.52,4.4-5.16,5.09-8.49.48-2.35.31-4.66-1.81-6.1-1.04-.71-2.28-1.1-3.41-1.64-1.85-.88-3.51-1.57-5.57-1.73-1.22-.1-2.43-.06-3.63.1,1.3-1.75,2.44-3.64,3.63-5.45,1.09-1.65,2.17-3.3,3.2-4.99.66-.6,1.34-1.19,2.04-1.75.83-.67,1.75-1.42,2.76-1.8.49-.18.89-.1,1.35-.48.5-.41.68-1.05.33-1.63-.68-1.14-1.95-.86-3.18-.16,2.12-4.17,3.76-8.6,4.21-13.27.05-.56-.25-.91-.65-1.05-.11-1.29-.73-2.69-1.17-3.76-.69-1.68-1.5-3.29-2.36-4.89-1.33-2.5-3.14-4.36-5.7-5.61-1.37-.67-2.76-1.28-4.18-1.85-4.81-1.96-9.81-3.47-14.62-5.42-1.14-.46-2.27-.91-3.43-1.29-.38-1.31-.88-2.59-1.06-3.95-.17-1.32,0-2.61.34-3.89.88-3.31,2.71-6.46,4.43-9.39.86-1.46,1.76-2.88,2.69-4.29.84-1.29,1.7-2.57,2.57-3.85,1.27-1.9,2.63-3.88,4.7-4.98,1.65-.87,3.61-.85,5.43-1.06,2.17-.26,4.35-.52,6.53-.63,1.77-.08,3.78-.08,5.22.4.05.02.13.07.17.11.03.12.09.33.1.36.06.39.01,1.41-.06,1.97-.48,3.86-1.98,7.48-3.07,11.19-1.32-.14-2.65-.15-3.98-.07-1.08.06-2.17.11-3.25.19.02-.1.05-.19.09-.29.25-.69.86-1.12,1.44-1.53,1.25-.89,2.5-1.71,2.4-3.41-.04-.67-.89-1.13-1.4-.57-1.01,1.08-2.25,1.81-3.37,2.76-1.03.87-1.49,2.04-2.03,3.21-.13.27-.26.54-.4.8-.61,1.13.18,2.25,1.37,2.38,1.62.17,3.32-.14,4.94-.24,1.65-.09,3.32-.13,4.94.2.87.17,1.79-.24,2.04-1.15,1.09-4.14,2.8-8.1,3.45-12.36.28-1.83.61-4.22-.77-5.71-1.36-1.47-3.8-1.59-5.67-1.63-2.45-.06-4.91.2-7.34.47-2.12.24-4.48.24-6.52.86-2.74.83-4.75,2.75-6.42,5,.04-.31.08-.63.13-.97.18-1.34.42-2.83-.26-4.07-.71-1.3-2.14-1.84-3.52-2.11-2.36-.45-4.93-.47-7.33-.4-2.07.06-4.4.18-6.23,1.24-2.93,1.7-2.82,5.13-3.62,8.03-.4,1.47-1.4,3.78-.51,5.24,1.2,1.95,3.88.47,5.35,1.74.46.39,1.08.11,1.14-.47.01-.14.04-.28.06-.42.15-.8.44-1.59.64-2.38.12-.45.18-.9.22-1.35,1.35.09,2.72.12,4.04-.12.99-.18.99-1.81,0-2-1.7-.31-3.52-.24-5.2.12-.69.15-.83.91-.59,1.45.32.7-.06,1.86-.19,2.56-.07.37-.13.73-.18,1.08-.99-.34-2.04-.17-3.15-.43-.8-.19-.73-.6-.64-1.3.09-.78.29-1.55.51-2.31.36-1.32.62-2.65.92-3.98.25-1.11.52-2.42,1.4-3.23,1.11-1.02,3.07-.91,4.46-.88,2.23.04,4.45.45,6.65.82.67.11,1.36.21,2.02.38.1.03.47.15.5.15.08.04.16.09.24.12,0,0,.01,0,.02,0,0,0,0,.01.01.02,0,0,0,0,.01,0,0,.02,0,.07.01.11,0-.01-.01-.05-.02-.11.03.26.03.2.02.11.02.04.03-.13.04.06.03.51-.02,1.02-.08,1.53-.18,1.46-.38,2.93-.48,4.41-.05.81-.1,1.63-.19,2.44-.02.16-.02.36-.03.57-.58.93-1.15,1.86-1.71,2.79-2.19,3.62-4.46,7.54-5.62,11.64-.68,2.44-.63,5.2.41,7.5-1.77-.51-3.69-.21-5.5.16-2.06.42-4.43,1.41-6.55,1.08-.59-.09-1.31.05-1.61.65-3.02,6.17-5,12.91-8.52,18.83-1.06-3.37-2.05-6.82-5.18-8.88-2.44-1.6-5.66-2.14-8.44-2.83-3.11-.77-6.29-1.41-9.31-2.48-.59-.21-1.22.24-1.4.79-.84,2.7-2.26,4.97-3.67,7.37-.57.99-.86,2.03-.61,3.18.09.39.26.76.56,1.03.3.27.66.25.95.43-.09-.05.15.2.15.2.24.28.43.62.65.92.44.6.91,1.19,1.38,1.77.95,1.17,1.97,2.29,2.99,3.4,2.04,2.22,4.17,4.38,5.93,6.83.51.7,1.48.94,2.14.27,1.31-1.32,2.39-2.88,3.34-4.46.95-1.59,1.97-3.36,2.4-5.17.85-3.5-2.57-4.21-4.91-5.65-.35-.22-.86-.08-1.06.27-.6,1.04-1.5,1.88-2.37,2.68-.29.27.01.8.4.68,1.17-.38,2.05-1.02,2.81-1.91.88.58,1.82,1.06,2.66,1.7.99.75.53,1.66,0,2.61-1.17,2.1-2.51,4.3-4.11,6.16-3.12-4.04-6.92-7.52-9.95-11.64-.25-.34-.81-1.02-1.37-1.28,0-.03,0-.05.01-.09.05-.48.42-.99.65-1.4,1.06-1.94,2.05-4.04,2.82-6.15,2.45.86,4.92,1.55,7.44,2.21,2.64.69,5.69,1.21,8.06,2.59,3.56,2.07,3.87,6.98,5.26,10.45.47,1.17,1.86,1.39,2.61.34.2-.27.38-.55.57-.82,4.04-6.06,6.11-13.2,9.2-19.75,1.81.07,3.63-.25,5.42-.59,1.28-.24,3.02-.74,4.45-.53.14.2.35.35.65.4.26.04.5.07.76.1.23.08.46.11.68.09.42.06.83.14,1.25.25,1.2.33,2.37.78,3.52,1.24,2.6,1.02,5.23,1.91,7.86,2.84,1.56.56,3.11,1.14,4.65,1.74,2.22,1.24,4.55,2.24,6.4,4.07,2.01,1.98,3.43,4.5,4.51,7.09.99,2.37,2.43,5.31,1.38,7.87-.68,1.64-1.75,3.17-2.71,4.66-1.1,1.72-2.26,3.4-3.41,5.08-2.03,2.98-3.9,6.06-6.22,8.83-1.08,1.28-2.22,2.5-3.51,3.57-.58.49-1.26,1.13-1.96,1.45-.79.36-1.59.68-2.37,1.08-1.57.8-3.23,1.27-4.89,1.8-1.96.63-3.9,1.32-5.84,1.99-3.81,1.33-7.67,2.65-11.62,3.46-4.28.87-8.69,1-12.81,2.57-.63.25-1.2.53-1.72.86-.29-3.42-1.21-6.86-1.72-10.18-.38-2.45-.83-4.91-1.83-7.19-.88-2.03-2.31-3.49-4.11-4.75-4.23-2.96-9.3-4.6-13.83-7.04-2.88-1.55-5.74-3.11-8.69-4.53-2.41-1.16-4.97-2.01-7.38-3.15-1.64-.78-2.01-3.22-2.41-4.81-.43-1.69-.83-4.94-2.69-5.73-1.96-.83-3.19,1.71-1.55,2.71.01.13.23.4.28.51.14.3.25.64.36.96.17.55.33,1.09.48,1.64-.52-.13-1.04-.24-1.46-.33-1.98-.4-4-.56-5.98-.96-2.28-.47-4.46-1.31-6.74-1.8-1.13-.24-2.27-.15-3.42-.26-1.3-.11-2.58-.03-3.88.02-2.57.1-5.13.22-7.69.38-2.17.14-4.34.45-6.51.49-.97.03-2.04.01-2.83-.64-1.11-.92-1.67-2.59-2.17-3.89-.86-2.19-1.58-4.45-2.12-6.74-.26-1.11-.48-2.25-.59-3.39-.01-.16-.02-.31-.04-.47,2.06-1.39,4.05-2.91,6.16-4.23,3.34-2.1,6.83-4,10.43-5.62,7.03-3.17,14.46-5.46,21.18-9.3.4-.23.6-.74.48-1.19-.75-2.95-.45-5.88.25-8.8.62-2.62,1.56-5.23,1.85-7.92.81-.32,1.59-.75,2.4-1.09,1.47-.6,3-1.07,4.54-1.49,2.46-.68,4.95-1.24,7.39-2.01,1.87-.6,3.78-1.21,5.74-1.43.28-.04.56-.06.84-.08,1.56-.09,2.6.11,3.17,1.41.65,1.46.8,3.17.88,4.74.11,2.11.04,4.22-.11,6.31-.27,3.79-.76,7.57-1.24,11.33-.1.79-.15,1.61-.4,2.37-.02.05-.03.1-.03.12-.05.02-.1.04-.13.04-.24.06-.47.1-.7.14-1.22.18-2.97.38-4.37.68-1.14.25-2.28.54-3.43.78.07-.9.11-1.81.16-2.72.05-.88.14-1.75.24-2.63.03-.31.04-.64.06-.95,0-.07.07-.42.05-.38.3-.9,1.1-1.12,1.86-1.65,1.28-.89,1.67-2.13,1.37-3.63-.31-1.61-2.46-1.28-2.93,0-.31.81-.92.87-1.66,1.4-1.04.74-1.87,1.94-2.16,3.19-.28,1.2-.28,2.62-.37,3.84-.12,1.74-.09,3.51-.4,5.23-.18,1.01.47,2.45,1.74,2.28,3.49-.46,6.9-1.42,10.39-1.94.78-.11,1.45-.33,2.01-.67.36,1.06,1.18,1.96,1.96,2.73,1.04,1.01,2.24,2.24,3.72,2.4,1.29.14,1.9-1.45,1.39-2.41-.56-1.05-2.06-1.84-2.98-2.61-.82-.69-1.63-1.39-2.61-1.8.17-.38.29-.8.37-1.27.67-3.94.95-8.05,1.14-12.04.11-2.39.15-4.8-.01-7.18-.14-1.98-.35-4.07-1.11-5.92-.1-.24-.2-.47-.32-.7.52.13,1.03.27,1.54.42,1.33.38,2.67.77,4.07.93,2.97.33,5.59-1.3,6.82-4.02,1.04-2.29.3-4.77-1.82-6.12-2.04-1.31-4.8-1.4-7-.49-.81.33-1.37,1.07-1.13,1.99.2.77,1.18,1.45,1.99,1.13,1.41-.58,3.18-.75,4.5.18,1.21.84.78,2.06-.07,3.11-1.42,1.75-3.39,1.45-5.39,1.05-1.04-.21-2.67-.68-4.06-.6-.05-.25-.22-.47-.49-.51-4.32-.74-8.71-.22-13.02.41-3.97.59-8.01,1.24-11.91,2.18-1.46.36-2.9.95-4.02,1.98-.57.52-.97,1.19-1.33,1.86-.53,1-1.15,1.92-1.79,2.86-2.23,3.3-4.38,6.6-6.12,10.19-.58,1.2-1.21,2.39-2.25,3.27-.75.62-1.64,1.09-2.57,1.5-.68-1.79-2.07-3.11-3.63-4.14-2.63-1.76-5.79-2.76-8.88-3.46-.67-2.09-1.48-4.13-2.22-6.18-.4-1.09-.77-2.19-1.04-3.32-.16-.69-.43-1.66-.09-2.34.25-.47.82-.73,1.27-.97.84-.46,1.68-.89,2.47-1.42,1.73-1.15,3.21-2.61,5.02-3.62.94,2.36,2.07,4.65,2.74,7.09-2.5.7-5.12,1.24-7.36,2.59-.32.2-.11.66.25.59,2.73-.58,5.42-1.35,8.12-2.06.37-.09.55-.48.47-.83-.62-3.09-1.8-5.98-2.75-8.97-.15-.46-.69-.87-1.19-.68-2.55.96-4.65,2.65-6.96,4.05-1.46.88-3.44,1.44-4.3,3.04-1.02,1.9-.26,4.61.19,6.56.67,2.83,1.7,5.56,2.39,8.38.14.57.64,1.06,1.2,1.2,2.73.69,5.49,1.57,7.91,3.03,1.11.67,2.07,1.44,2.62,2.44.03.06.05.09.06.11,0,.01,0,.02.01.04.05.11.08.22.11.34-3.98,1.65-8.03,3.09-12.1,4.48-3.21,1.09-6.92,1.97-9.65,4.11-2.32,1.83-3.06,4.55-4.56,6.96-2.02,3.25-5.14,6.35-4.86,10.48.28,4.14,2.93,7.82,2.76,12.01-.03.74.64,1.32,1.33,1.33,4.16.11,8.21,1.19,12.12,2.52,1.12.38,2.22.8,3.33,1.22-3.02,1.37-6.19,2.4-9.12,3.96-1.87,1-3.76,1.95-5.62,2.96-.79.43-1.53.87-2.21,1.38-.16-.02-.33-.05-.5-.08-1.41-.25-2.8-.65-4.16-1.13-2.85-1.01-5.55-2.42-8.1-4.04-2.36-1.51-4.52-3.25-6.58-5.16-2.44-2.26-5.04-4.35-7.63-6.43-1.52-1.22-3.07-2.45-4.57-3.73-.19-.35-.37-.71-.51-1.05-1.23-2.99-1.9-6.77-2.08-10.08-.09-1.55-.07-3.19.46-4.67.43-1.19,1.31-2.01,2.33-2.7,2.53-1.72,5.42-2.78,8.06-4.31,3.17-1.84,6.59-4.17,10.27-4.93,2.15,4.62,5.16,9.42,5.07,14.56-1.04.2-2.04.59-3.03.99-1,.4-2.91,1.38-3.97.81-.85-.46-1.13-2.1-1.33-2.94-.25-1.01-.43-2.02-.78-3-.1-.27-.53-.25-.53.07.03,2.25-.44,5.5,1.55,7.14,2.71,2.23,6.46-.44,9.41-.42.55,0,1.26-.44,1.35-1.02.48-3.25.05-6.52-1.08-9.6-1.12-3.07-2.73-5.91-3.99-8.92-.26-.63-.85-1.36-1.65-1.26-3.83.47-7.3,2.27-10.62,4.16-2.8,1.6-5.69,2.97-8.51,4.5-1.57.84-3.03,1.81-4.16,3.05-2.51,1.78-3.31,5.87-3.6,8.64-.08.8-.13,1.62-.16,2.42-.45-.08-.88-.14-1.24-.19-2.63-.39-5.28-.55-7.93-.65-5.15-.2-10.33-.25-15.48-.02-2.74.11-5.55.4-8.29.2-2.02-.14-4.16-.4-6.15.14-1.48-.82-2.74-1.97-3.94-3.14-1.27-1.25-2.46-2.57-3.72-3.84-.92-.93-1.94-1.76-2.85-2.7-.42-.43-.83-.88-1.13-1.4-.06-.1-.09-.18-.1-.18.05-.24.27-.51.39-.68.76-1.08,1.84-1.94,2.8-2.83,1.83-1.72,3.58-3.52,5.36-5.3,1.33-1.33,2.76-2.61,4.09-3.95.69,1.33,1.15,2.97,1.23,4.3.13,2.19-2.36,3.52-3.72,4.86-.33.32,0,.92.46.78,2.51-.79,4.76-2.51,5.25-5.24.47-2.62-.66-5.41-1.76-7.74-.32-.66-1.37-.93-1.98-.51-2,1.4-3.74,3.28-5.47,5-1.78,1.77-3.54,3.57-5.37,5.3-2.14,2.02-5.81,4.72-3.79,8,.87,1.42,2.18,2.54,3.39,3.65,1.25,1.15,2.36,2.45,3.52,3.69,2.66,2.83,5.43,5.28,9.28,6.2,1.73.42,3.51.72,5.28.89-2.08,2.95-1.79,6.97-.91,10.62.13.57.29,1.14.46,1.71-.33.2-.65.44-.96.68-1.04.76-1.97,1.61-2.89,2.52-1.68,1.66-3.51,3.27-4.87,5.2-.17.25.06.61.35.61,2.42-.08,4.33-1.82,6.09-3.32.9-.77,1.79-1.55,2.75-2.24.19-.14.38-.26.57-.38.53,1.41,1.11,2.81,1.69,4.2.64,1.55,1.36,3.09,1.99,4.65.19.85.38,1.7.57,2.54-.7,1.7-.96,3.61-1.54,5.36-.49,1.5-1.1,2.97-1.62,4.46-6.48,1.28-11.43,5.9-17.38,8.56-1.44.64-2.99,1.14-4.56,1.29-.48.05-1.14.16-1.58-.09-.39-.22-.68-.84-.94-1.2-.52-.71-1.09-1.4-1.71-2.03-.45-.45-1.1-.87-1.45-1.41-.11-.17-.16-.35-.13-.72.08-.79.37-1.61.65-2.35,1.22-3.12,3.21-5.97,5.12-8.75.66,1.17,1.03,2.48.68,3.83-.21.8-.59,1.54-1.01,2.26-.51.86-.81,1.72-1.16,2.65-.07.18.17.34.32.25,1.02-.66,1.82-1.27,2.5-2.3.59-.88,1.1-1.85,1.35-2.89.59-2.43-.26-4.62-1.63-6.6-.57-.82-1.55-.76-2.13,0-2.37,3.12-4.77,6.3-6.36,9.91-.65,1.46-1.36,3.21-1.12,4.85.21,1.46,1.37,2.3,2.34,3.28,1.07,1.1,1.78,2.75,3.06,3.61,1.42.95,3.32.68,4.9.39,3.63-.66,6.92-2.62,10.04-4.5,3.52-2.11,7.22-4.57,11.4-5.06.74-.08,1.3-.44,1.53-1.17.54-1.63,1.19-3.22,1.72-4.85.25,2.41.12,4.8-.97,7.07-1.72,3.54-4.66,6.29-7.29,9.15-1.42,1.55-2.8,3.16-3.99,4.91-1.03,1.51-2.5,3.61-2.45,5.53.02.97.51,1.73,1.12,2.45.83,1,1.76,1.94,2.65,2.89,1.93,2.09,3.97,3.96,6.21,5.7,2.15,1.68,4.31,3.33,6.87,4.34,2.07.82,3.52.08,5.07-1.32,2.2-1.99,4.02-4.32,5.87-6.63,1.35-1.68,2.43-3.59,3.96-5.11.13-.13.26-.25.4-.37-.04.05.35-.16.29-.16.22-.05.53-.05.9,0,.99.12,1.98.52,2.92.87,1.72.65,3.45,1.37,5.25,1.77.57,4.45.88,8.93,1.17,13.4-2.2.58-4.36,1.29-6.46,2.14-1.85.74-3.76,1.52-5.56,2.45-.52-2.4-.95-4.9-.49-7.29,1.06-.39,2.1-.9,3.07-1.49,1.24-.76,2.09-1.58,2.8-2.85.38-.68-.39-1.52-1.09-1.09-.64.39-1.33.66-1.96,1.06-.71.44-1.4.88-2.15,1.25-.61.3-1.23.52-1.86.74-.95.33-1.21.79-1.42,1.74-.77,3.45.24,6.79.59,10.21.08.84.9,1.85,1.88,1.44,2.43-1.01,4.76-2.22,7.22-3.17,2.46-.94,4.98-1.75,7.54-2.37.64-.16,1.22-.87,1.18-1.54-.35-5.5-.71-10.99-1.46-16.44-.1-.75-.92-1.13-1.57-1.19-1.75-.2-3.55-1.33-5.17-1.99-1.71-.7-3.63-1.43-5.52-1.24-1.84.19-3.11,1.5-4.22,2.87-1.16,1.44-2.22,3.09-3.29,4.36-1.73,2.05-3.3,4.16-5.3,5.97-.22.2-.65.6-.75.66-.03.03-.06.05-.08.06-.68-.3-1.73-.67-2.51-1.13-4.56-2.73-8.2-6.54-11.77-10.4-.17-.19-.62-.71-.65-.74.06-.15.23-.53.3-.67.24-.49.48-.96.75-1.43.95-1.64,2.12-3.11,3.37-4.53,2.53-2.87,5.34-5.49,7.49-8.67,1.74-2.58,2.75-5.43,2.89-8.44.87,1.3,1.76,2.58,2.62,3.88.4.62,1.18,1,1.92.78,3.95-1.18,7.89-.91,11.96-.7,1.07.05,1.83-1.08,1.56-2.06-1.21-4.49,1.66-9.7-1.31-13.84-1.11-1.56-2.94-1.16-4.6-1.12-2.28.05-4.8-.4-6.91.68-.42.21-.69.84-.53,1.29.81,2.19,1.68,5.17,3.64,6.61.14.11.35-.03.34-.2-.03-1.1-.46-2.3-.78-3.36-.26-.83-.49-1.68-.71-2.52,1.52-.22,3.15.13,4.66.18.84.02,1.7-.07,2.53-.01h.02c.06.08.18.32.26.5.79,1.89.42,4.07.2,6.04-.16,1.48-.33,2.95-.26,4.42-3.29-.21-6.57-.29-9.8.47-1.25-1.87-2.53-3.73-3.77-5.61-.64-.96-1.27-1.92-1.93-2.88-.8-4.11-1.85-8.18-2.72-12.29-.66-3.07-1.23-6.18-1.47-9.32-.09-1.13-.13-2.15.48-3.14.47-.78,1.15-1.4,1.9-1.9,1.99-1.33,4.45-2.38,6.74-3.03.04-.01.08-.03.13-.04.57.14,1.12.28,1.65.43,4.87,1.36,9.47,3.55,13.96,5.84,2.93,1.5,5.72,3.14,8.35,5.11.07.05.15.11.21.16.5.49,1,.99,1.49,1.48,2.96,2.93,5.88,5.89,8.65,9.01,2.57,2.89,5.15,5.79,8.23,8.15,1.26.96,2.55,1.86,3.83,2.79.23.17.47.36.73.56-1.27,1.58-2.39,3.29-3.47,5.08-.93,1.54-1.83,3.1-2.71,4.66-.64,1.14-2.05,3.08-1.53,4.44.04.12.12.22.21.29.56,2.51,1.59,4.98,2.4,7.41.39,1.18.76,2.37,1.19,3.54.24,1.17.59,2.34,1.15,3.35.02.04.03.06.05.09.33.83.88,1.64,1.27,2.18,1.35,1.89,3.14,3.46,4.73,5.13.57.61,1.19,1.17,1.56,1.9.46.92.28,1.95-.08,2.87-.8,2.02-2.4,3.64-3.95,5.17-.97-.93-1.98-1.96-3.27-2.21-.42-.08-.83.35-.58.76.88,1.45,1.84,2.81,3.01,4.06.36.38,1.07.49,1.52.2,3.95-2.58,8.99-8.45,5.52-13.25-.69-.95-1.49-1.83-2.31-2.68,2.53.4,5.11.43,7.66.49,3.58.1,7.17.51,10.71.97,4.26.55,8.49,1.42,12.53,2.88-.43,1.27-1,2.49-1.61,3.69-.74,1.45-1.45,2.94-2.31,4.32-1.49,2.36-3.72,4.9-3.9,7.81-.19,2.89,2.49,5.39,4.22,7.39,2.34,2.73,3.81,6.1,6,8.96.55.72,1.42,1.1,2.3.6,1.3-.75,2.75-1.34,4.21-1.7,1.32-.32,3.06-.61,4.34.04.92.47,1.88-.12,1.96-1.13.24-3.15-.21-6.53-1.68-9.36-.46-.87-1.11-1.72-2.2-1.64-1.21.08-2.16,1.08-2.88,1.94-.39.47-.03,1.23.61,1.06.51-.14,1.01-.26,1.49-.49.1-.05.52-.35.71-.38-.04.05.13.27.16.33.17.49.4.96.55,1.46.51,1.7.72,3.54.71,5.33-1.28-.23-2.63-.13-3.91.04-1.46.21-2.88.49-4.25.98-1.62-2.63-3.07-5.41-5.02-7.8-.84-1.02-1.77-1.99-2.57-3.05-.57-.75-1.34-1.86-1.23-2.57.21-1.23,1.05-2.43,1.71-3.46.68-1.07,1.44-2.1,2.06-3.19,1.73-3.03,3.55-6.33,4.35-9.74,2.94,2.58,6,5.6,9.54,7.35,1.4.69,2.94,1.05,4.46.52,1.33-.47,2.37-1.43,3.51-2.23,2.8-1.95,6.2-2.96,9.51-3.63,1.49-.31,3.02-.59,4.55-.6.44,0,.87,0,1.3.16.05.02.13.09.17.21.41,1.41-.46,3.41-.8,4.76-.55,2.19-1.21,4.36-1.76,6.55-.31,1.22-.42,3.02-1.23,4.02-.13.15.03.14-.36.14-.38,0-.75,0-1.14-.03-.33-.02-.67-.04-1.01-.04-.02-1.02,0-2.05.03-3.07.05-1.15.22-2.38.12-3.54.18-.13.38-.19.68-.21.14,0,.28-.17.18-.31-.31-.43-.68-.83-1.25-.86-1.06-.06-1.5.72-1.62,1.64-.33,2.56-.52,5.11-.49,7.69.01.8.76,1.33,1.52,1.16,1.38-.33,2.83.4,4.21-.1,1.35-.49,1.88-2.1,2.29-3.34,1.18-3.59,2.13-7.29,3.05-10.96.61-2.43,1.03-5.61-1.98-6.52-1.26-.38-2.67-.28-3.96-.16-1.81.16-3.6.48-5.36.92-1.83.47-3.62,1.06-5.35,1.82-1.62.71-2.99,1.68-4.43,2.7-1.1.77-1.91,1.15-3.19.53-1.95-.93-3.7-2.48-5.34-3.86-3.1-2.61-5.82-5.48-9.74-6.84-3.4-1.19-7.08-1.25-10.63-1.5-4.15-.28-8.31-.81-12.45-1.26-3.41-.37-6.94-.78-10.21-1.9.07-.95-.05-2.01-.08-2.7-.06-1.92-.11-3.84-.17-5.76-.06-1.86-.15-3.73-.24-5.59-.02-.35-.03-.7-.04-1.07.35-.33.69-.71,1.06-1.07.9-.88,1.83-1.73,2.79-2.54,2.03-1.73,4.14-3.37,6.28-4.97,2.08-1.55,4.17-3.07,6.23-4.64,1.19-.92,2.61-1.85,3.79-2.96,2.19-.87,4.33-1.85,6.56-2.64,3.1-1.09,6.16-2.27,9.26-3.32,2.98-1.02,6.08-1.83,9.25-1.8,1.43.02,2.84.25,4.27.35,1.47.11,2.94.15,4.41.24,1.37.07,2.79.17,4.17.4-.97.11-1.94.29-2.85.61-1.22.43-2.39,1-3.12,2.1-.59.88-.81,1.95-1.05,2.96-.34,1.46-.77,2.85-1.21,4.28-.37,1.21-.65,2.63-.39,3.89.16.78.58,1.21,1.27,1.57,1.24.65,2.48,1.52,3.85,1.83,1.26.29,2.43,0,3.45-.76,1.22-.9,2.6-2.2,3.25-3.58.14-.3-.09-.65-.43-.56-1.53.4-2.45,1.76-3.62,2.7-1.28,1.02-2.52.7-3.89-.05-.56-.31-1.96-.83-2.14-1.39-.16-.49.12-1.54.25-2.02.22-.83.56-1.64.9-2.41.92-2.08,1.22-4.42,3.46-5.36,1.34-.56,2.8-.63,4.22-.82,1.23-.16,2.66-.27,3.75-.93,2.02,1.26,3.8,2.99,5.44,4.66,2.17,2.21,4.15,4.59,6.09,7.01,1.84,2.29,3.69,4.57,5.5,6.89,1.71,2.21,3.36,4.6,3.98,7.36.7,3.09-.27,6.3-.77,9.35-.58,3.55-1.14,7.1-1.82,10.63-.55,2.87-1.31,5.62-2.5,8.3-1.13,2.54-2.48,4.98-3.85,7.4-2.67,4.73-5.62,9.55-7.04,14.84-.83,3.09-.96,6.32-1.25,9.49-.15,1.61-.22,3.18-.09,4.71-1.02-1.35-1.92-2.8-2.17-4.31-.26-1.61-2.89-1.23-2.83.38.05,1.32.8,2.57,1.5,3.64.95,1.46,2.06,2.84,3.22,4.14.85.94,1.73,1.89,2.67,2.76,1.66,2.58,3.76,4.98,5.79,7.23,2.2,2.43,4.54,4.66,7.03,6.78-4.97,2.34-10.43,3.54-15.31,6.13-1.91,1.01-3.43,2.33-4.36,4.31-1.52,3.23-1.72,6.89-3.03,10.19-.2.49.14.98.51,1.26,3.27,2.46,6.2,5.48,8.54,8.84,1.19,1.69,2.26,3.51,2.99,5.45.34.91.62,1.84.79,2.8.15.89.11,1.79.31,2.67.04.15.1.28.18.38-.08.97-.19,1.93-.29,2.88-.38,3.56-.78,7.13-1.27,10.67-.1.7-.18,1.28-.84,1.62-.84.42-1.85.55-2.76.8-2,.57-4,1.17-6.07,1.44-1.04.14-2.07.29-3.12.23-.72-.04-1.5-.11-1.92-.46-1.49-1.21-.07-3.92.65-5.25.62-1.14,1.33-2.29,2.25-3.21.93-.93,2.3-1.28,3.54-1.61,1.45-.38,2.9-1.06,4.23-1.75.73-.38.22-1.56-.56-1.32-1.58.47-3.21.42-4.8.86-1.33.37-2.71.83-3.78,1.73-1.94,1.66-3.33,4.24-4.23,6.59-.76,1.97-.83,4.41.78,5.99,1.58,1.56,3.86,1.59,5.92,1.31,2.2-.3,4.31-1.11,6.4-1.81,1.31-.44,2.9-.7,4.19-1.36,0,.35.04.71.1,1.07.13.77.25,1.89,1.04,2.25.22.09.51.11.68-.09.56-.65.31-1.42.1-2.17-.19-.7-.39-1.39-.55-2.09.58-.67.78-1.51.89-2.38.18-1.38.32-2.76.49-4.14.46-3.77.91-7.58,1.08-11.37.05-1.01.04-2.03-.02-3.03.19.24.4.45.66.68.47.4,1.44.18,1.36-.57-.03-.36-.03-.68-.18-1.02-.15-.33-.38-.63-.62-.89-.21-.22-.46-.42-.71-.6-.29-.2-.58-.31-.88-.47-.24-1.14-.58-2.25-1.06-3.32-1.37-3.06-3.89-5.33-5.86-7.98-1.65-2.21-2.9-4.75-.91-7.18,1.14-1.4,2.76-2.38,4.21-3.43,1.32-.95,2.64-1.88,4.02-2.73,2.81-1.73,5.84-2.98,9.12-3.46,3.38-.5,6.87-.74,10.28-.9,3.42-.16,7.27-.3,10.55.87,3.03,1.08,4.91,4.06,7.36,6,2.61,2.07,5.75,3.79,7.61,6.65,1.78,2.73,1.76,6.21,1.67,9.36-.09,3.06-.31,6.09-.29,9.15,0,3.07.07,6.25-.65,9.26-.19.74-.39,1.48-.66,2.18-1.33,1-2.72,1.92-4.06,2.85-2.81,1.95-5.45,3.99-8.02,6.25-5.79,5.09-11.36,10.38-17.5,15.06-2.54,1.94-5.25,3.99-6.82,6.84-1.68,3.06-2.33,6.73-3.13,10.1-1.82,7.64-2.9,15.39-3.68,23.2-.26,2.63-.52,5.27-.73,7.91-.38.33-.75.66-1.14.97-1.72,1.41-3.54,2.69-5.26,4.11-2.72,2.25-5.02,5.45-8.33,6.86-1.79.32-3.54.85-5.34,1.15-2.11.35-4.32.52-6.46.27-.62-2.72-1.57-5.47-1.41-8.27.88-.12,1.75-.29,2.61-.51.29.8.53,1.61.74,2.44.02.06.03.11.04.17.17.72,1.29.56,1.29-.18v-.17c.04-1.87.76-4.87-.87-6.2-1.63-1.33-4.63.36-6.32.81-.2.05-.44.25-.47.47-.44,3.18-1.22,6.52-.75,9.74.42,2.83,2.58,4.4,5.06,5.45,3.32,1.41,6.74,2.37,10.32,2.81,1.39.17,2.84.31,4.3.37-.56.25-1.11.51-1.66.78-1.59.78-3.23,1.54-4.55,2.75-2.32,2.12-3.32,5.16-4.81,7.84-1.6,2.85-4.24,5.5-7.71,5.62-.57.02-2.25-.1-2.16-1.01.1-.95,2.01-.78,2.58-.7.45.06.96-.18.94-.71-.01-.26-.03-.52-.07-.79-.05-.32-.12-.63-.21-.93-.1-.32-.38-.53-.71-.55-2.72-.07-6.73,1.22-5.87,4.72.87,3.51,4.72,5.04,7.98,5.11,4.14.08,7.63-2.1,10.89-4.41,3.98-2.81,8.15-5.22,12.41-7.57,2.17-1.2,4.33-2.46,6.73-3.13,2.51-.71,4.96-.69,7.47-.01,1.1.29,2.18.61,3.32.77.78.11,1.57.06,2.35.16,1.08.13,1.59,1.73,1.78,2.66.27,1.27.52,2.08,1.67,2.84,1.63,1.09,3.83.91,5.02,2.6,2.06,2.93,2.13,6.99,5.04,9.37,1.46,1.19,3.36,1.93,5.13,2.53,2.03.68,4.21,1.19,6.36,1.2,2.04,0,3.96-.74,5.83-1.47,2.25-.87,4.31-1.39,6.74-1.11.51.06.97-.58.8-1.05-.12-.31-.25-.61-.4-.88-.65-1.18-1.64-1.93-3.15-1.94-1.53-.02-3.27.79-4.67-.11-1.51-.96-2.14-3.07-2.78-4.64-.61-1.48-1.27-3.02-2.41-4.17,1.1-1.92,2.44-3.69,3.7-5.51,1.46,1.54,3.37,2.12,5.61,1.9,2.28-.22,4.96-1.41,7.08-.07.93.58,1.67,1.47,2.41,2.26.95,1.01,1.83,2.03,2.68,3.12,1.5,1.95,3.12,4.15,5.56,4.97,3.56,1.18,7.34-.64,10.95.35.51.14,1.12-.27,1.09-.83-.02-.31-.05-.62-.11-.92-.19-1.03-.63-1.98-1.59-2.55-1.09-.64-2.4-.61-3.58-.95-1.52-.44-2.98-1.85-3.38-3.39-.3-1.14-.03-2.37.31-3.54,2.29,1.68,5,2.42,7.8,3.01,3.34.7,7.05,1.23,9.93,3.17.92.62,1.68,1,2.81.71,1.39-.35,2.73-1.14,3.91-1.91,2.46-1.62,4.91-3.73,6.35-6.33,1.96-3.58.73-7.87,1.27-11.73.14-1-1.28-1.47-1.57-.43Z"/>
    </clipPath>
    <linearGradient id="linear-gradient" x1="-2721.51" y1="404.97" x2="-2720.95" y2="404.97" gradientTransform="translate(-261859.88 1760697.88) rotate(90) scale(646.96 -646.96)" gradientUnits="userSpaceOnUse">
      <stop offset="0" stop-color="#60c9b6"/>
      <stop offset=".02" stop-color="#60c9b6"/>
      <stop offset=".02" stop-color="#60c9b6"/>
      <stop offset=".03" stop-color="#60c9b7"/>
      <stop offset=".03" stop-color="#60c9b7"/>
      <stop offset=".04" stop-color="#60c9b7"/>
      <stop offset=".05" stop-color="#60c9b8"/>
      <stop offset=".05" stop-color="#60c9b8"/>
      <stop offset=".06" stop-color="#60c9b8"/>
      <stop offset=".07" stop-color="#60c9b9"/>
      <stop offset=".07" stop-color="#61c9b9"/>
      <stop offset=".08" stop-color="#61c9b9"/>
      <stop offset=".09" stop-color="#61c9b9"/>
      <stop offset=".09" stop-color="#61c9ba"/>
      <stop offset=".11" stop-color="#61c9ba"/>
      <stop offset=".12" stop-color="#61c9bb"/>
      <stop offset=".12" stop-color="#61c9bb"/>
      <stop offset=".12" stop-color="#61c9bc"/>
      <stop offset=".13" stop-color="#61c9bc"/>
      <stop offset=".14" stop-color="#61c9bc"/>
      <stop offset=".16" stop-color="#61c9bc"/>
      <stop offset=".16" stop-color="#61cabd"/>
      <stop offset=".17" stop-color="#61cabd"/>
      <stop offset=".18" stop-color="#61cabe"/>
      <stop offset=".19" stop-color="#61cabe"/>
      <stop offset=".2" stop-color="#61cabe"/>
      <stop offset=".2" stop-color="#61cabf"/>
      <stop offset=".22" stop-color="#61cabf"/>
      <stop offset=".23" stop-color="#61cac0"/>
      <stop offset=".24" stop-color="#61cac0"/>
      <stop offset=".25" stop-color="#61cac1"/>
      <stop offset=".26" stop-color="#61cac1"/>
      <stop offset=".26" stop-color="#62cac1"/>
      <stop offset=".27" stop-color="#62cac2"/>
      <stop offset=".27" stop-color="#62cac2"/>
      <stop offset=".28" stop-color="#62cac2"/>
      <stop offset=".3" stop-color="#62cac3"/>
      <stop offset=".31" stop-color="#62cac3"/>
      <stop offset=".33" stop-color="#62cac4"/>
      <stop offset=".34" stop-color="#62cac4"/>
      <stop offset=".34" stop-color="#62cac5"/>
      <stop offset=".35" stop-color="#62cac5"/>
      <stop offset=".35" stop-color="#62cac6"/>
      <stop offset=".36" stop-color="#62cac6"/>
      <stop offset=".38" stop-color="#62cac6"/>
      <stop offset=".38" stop-color="#62cac7"/>
      <stop offset=".39" stop-color="#62cac7"/>
      <stop offset=".41" stop-color="#62cac7"/>
      <stop offset=".41" stop-color="#63cbc8"/>
      <stop offset=".42" stop-color="#63cbc8"/>
      <stop offset=".43" stop-color="#62cbc8"/>
      <stop offset=".43" stop-color="#62cac8"/>
      <stop offset=".43" stop-color="#61cac7"/>
      <stop offset=".44" stop-color="#60cac7"/>
      <stop offset=".44" stop-color="#5fc9c6"/>
      <stop offset=".45" stop-color="#5fc9c5"/>
      <stop offset=".45" stop-color="#5ec9c5"/>
      <stop offset=".45" stop-color="#5dc9c4"/>
      <stop offset=".46" stop-color="#5cc8c4"/>
      <stop offset=".46" stop-color="#5bc8c3"/>
      <stop offset=".46" stop-color="#5ac8c3"/>
      <stop offset=".47" stop-color="#59c7c2"/>
      <stop offset=".47" stop-color="#59c7c2"/>
      <stop offset=".48" stop-color="#58c7c1"/>
      <stop offset=".48" stop-color="#57c6c0"/>
      <stop offset=".48" stop-color="#56c6c0"/>
      <stop offset=".49" stop-color="#54c6bf"/>
      <stop offset=".49" stop-color="#53c5bf"/>
      <stop offset=".5" stop-color="#52c5be"/>
      <stop offset=".5" stop-color="#52c5bd"/>
      <stop offset=".5" stop-color="#51c4bd"/>
      <stop offset=".51" stop-color="#50c4bc"/>
      <stop offset=".51" stop-color="#4fc4bb"/>
      <stop offset=".52" stop-color="#4ec3ba"/>
      <stop offset=".52" stop-color="#4dc3ba"/>
      <stop offset=".52" stop-color="#4cc3ba"/>
      <stop offset=".53" stop-color="#4cc3b9"/>
      <stop offset=".53" stop-color="#4bc2b8"/>
      <stop offset=".54" stop-color="#4ac1b7"/>
      <stop offset=".54" stop-color="#49c1b7"/>
      <stop offset=".54" stop-color="#48bfb5"/>
      <stop offset=".55" stop-color="#47beb4"/>
      <stop offset=".55" stop-color="#47bdb3"/>
      <stop offset=".55" stop-color="#46bcb2"/>
      <stop offset=".56" stop-color="#46bbb1"/>
      <stop offset=".56" stop-color="#45bab0"/>
      <stop offset=".57" stop-color="#44b9af"/>
      <stop offset=".57" stop-color="#44b8af"/>
      <stop offset=".57" stop-color="#43b7ae"/>
      <stop offset=".58" stop-color="#43b6ad"/>
      <stop offset=".58" stop-color="#43b5ac"/>
      <stop offset=".59" stop-color="#42b3ab"/>
      <stop offset=".59" stop-color="#42b2aa"/>
      <stop offset=".59" stop-color="#41b1a9"/>
      <stop offset=".6" stop-color="#41b0a8"/>
      <stop offset=".6" stop-color="#41afa7"/>
      <stop offset=".61" stop-color="#40aea6"/>
      <stop offset=".61" stop-color="#40aca6"/>
      <stop offset=".61" stop-color="#3faba5"/>
      <stop offset=".62" stop-color="#3faaa4"/>
      <stop offset=".62" stop-color="#3ea9a2"/>
      <stop offset=".62" stop-color="#3ea7a1"/>
      <stop offset=".63" stop-color="#3da6a0"/>
      <stop offset=".63" stop-color="#3da59f"/>
      <stop offset=".64" stop-color="#3da49e"/>
      <stop offset=".64" stop-color="#3da49d"/>
      <stop offset=".64" stop-color="#3ca29c"/>
      <stop offset=".65" stop-color="#3ca19b"/>
      <stop offset=".65" stop-color="#3ba09a"/>
      <stop offset=".66" stop-color="#3a9f99"/>
      <stop offset=".66" stop-color="#3a9d98"/>
      <stop offset=".66" stop-color="#399c97"/>
      <stop offset=".67" stop-color="#399b96"/>
      <stop offset=".67" stop-color="#399a95"/>
      <stop offset=".68" stop-color="#389994"/>
      <stop offset=".68" stop-color="#379893"/>
      <stop offset=".68" stop-color="#379792"/>
      <stop offset=".69" stop-color="#379590"/>
      <stop offset=".69" stop-color="#36948f"/>
      <stop offset=".7" stop-color="#36948e"/>
      <stop offset=".7" stop-color="#36938e"/>
      <stop offset=".7" stop-color="#35928d"/>
      <stop offset=".71" stop-color="#35908c"/>
      <stop offset=".71" stop-color="#348f8b"/>
      <stop offset=".71" stop-color="#348e89"/>
      <stop offset=".72" stop-color="#348d88"/>
      <stop offset=".72" stop-color="#338b87"/>
      <stop offset=".73" stop-color="#338a86"/>
      <stop offset=".73" stop-color="#338985"/>
      <stop offset=".73" stop-color="#328783"/>
      <stop offset=".74" stop-color="#328682"/>
      <stop offset=".74" stop-color="#318581"/>
      <stop offset=".75" stop-color="#318480"/>
      <stop offset=".75" stop-color="#30837f"/>
      <stop offset=".75" stop-color="#30827e"/>
      <stop offset=".76" stop-color="#2f817d"/>
      <stop offset=".76" stop-color="#2f807c"/>
      <stop offset=".77" stop-color="#2e7e7b"/>
      <stop offset=".77" stop-color="#2e7d7a"/>
      <stop offset=".77" stop-color="#2d7c78"/>
      <stop offset=".78" stop-color="#2d7b77"/>
      <stop offset=".78" stop-color="#2d7a76"/>
      <stop offset=".79" stop-color="#2d7975"/>
      <stop offset=".79" stop-color="#2c7774"/>
      <stop offset=".79" stop-color="#2c7673"/>
      <stop offset=".8" stop-color="#2c7571"/>
      <stop offset=".8" stop-color="#2b7470"/>
      <stop offset=".8" stop-color="#2b736f"/>
      <stop offset=".81" stop-color="#2a716e"/>
      <stop offset=".81" stop-color="#2a706d"/>
      <stop offset=".82" stop-color="#296f6b"/>
      <stop offset=".82" stop-color="#296e6a"/>
      <stop offset=".82" stop-color="#286c69"/>
      <stop offset=".83" stop-color="#286b68"/>
      <stop offset=".83" stop-color="#286a67"/>
      <stop offset=".84" stop-color="#286966"/>
      <stop offset=".84" stop-color="#276864"/>
      <stop offset=".84" stop-color="#276763"/>
      <stop offset=".85" stop-color="#276662"/>
      <stop offset=".85" stop-color="#266561"/>
      <stop offset=".86" stop-color="#266460"/>
      <stop offset=".86" stop-color="#26625f"/>
      <stop offset=".86" stop-color="#25615e"/>
      <stop offset=".87" stop-color="#25605d"/>
      <stop offset=".87" stop-color="#245f5b"/>
      <stop offset=".88" stop-color="#245e5a"/>
      <stop offset=".88" stop-color="#245d59"/>
      <stop offset=".88" stop-color="#235c58"/>
      <stop offset=".89" stop-color="#235b57"/>
      <stop offset=".89" stop-color="#225955"/>
      <stop offset=".89" stop-color="#225954"/>
      <stop offset=".9" stop-color="#225854"/>
      <stop offset=".9" stop-color="#225652"/>
      <stop offset=".91" stop-color="#225551"/>
      <stop offset=".91" stop-color="#215450"/>
      <stop offset=".91" stop-color="#21534f"/>
      <stop offset=".92" stop-color="#21524e"/>
      <stop offset=".92" stop-color="#20514c"/>
      <stop offset=".93" stop-color="#20504b"/>
      <stop offset=".93" stop-color="#1f4e4a"/>
      <stop offset=".93" stop-color="#1f4d49"/>
      <stop offset=".94" stop-color="#1f4c48"/>
      <stop offset=".94" stop-color="#1f4b47"/>
      <stop offset=".95" stop-color="#1e4a46"/>
      <stop offset=".95" stop-color="#1e4945"/>
      <stop offset=".95" stop-color="#1e4844"/>
      <stop offset=".96" stop-color="#1e4742"/>
      <stop offset=".96" stop-color="#1e4641"/>
      <stop offset=".96" stop-color="#1d4540"/>
      <stop offset=".97" stop-color="#1d443f"/>
      <stop offset=".97" stop-color="#1d433e"/>
      <stop offset=".98" stop-color="#1c423d"/>
      <stop offset=".98" stop-color="#1c403c"/>
      <stop offset=".98" stop-color="#1c3f3a"/>
      <stop offset=".99" stop-color="#1c3e39"/>
      <stop offset=".99" stop-color="#1b3d38"/>
      <stop offset="1" stop-color="#1b3c37"/>
      <stop offset="1" stop-color="#1b3b36"/>
    </linearGradient>
  </defs>
  <g id="Elements">
    <g class="cls-5">
      <g class="cls-2">
        <g class="cls-3">
          <path class="cls-4" d="M271.97.12H.2v364.5h271.78V.12Z"/>
        </g>
      </g>
    </g>
  </g>
</svg>