<?xml version="1.0" encoding="UTF-8"?>
<svg id="Layer_2" data-name="Layer 2" xmlns="http://www.w3.org/2000/svg" xmlns:xlink="http://www.w3.org/1999/xlink" viewBox="0 0 318.46 398.72">
  <defs>
    <style>
      .cls-1 {
        fill: none;
      }

      .cls-2 {
        clip-path: url(#clippath-1);
      }

      .cls-3 {
        clip-path: url(#clippath-2);
      }

      .cls-4 {
        fill: url(#linear-gradient);
      }

      .cls-5 {
        clip-path: url(#clippath);
      }
    </style>
    <clipPath id="clippath">
      <rect class="cls-1" width="318.46" height="398.72"/>
    </clipPath>
    <clipPath id="clippath-1">
      <path class="cls-1" d="M151.53,301.8c.1-.1.24-.13.39-.08.11.04.23.16.25.28,1.6,7.15,4.12,14.26,7.48,21.14,1.71,3.51,3.65,6.88,5.75,10.03,1.47,2.2,3.19,4.24,4.84,6.2.69.82,1.38,1.64,2.07,2.48.2.25.19.59-.03.81-.11.11-.26.17-.41.17-.14,0-.28-.05-.39-.14-2.73-2.26-4.92-5.37-7.1-8.62-2.06-3.07-3.96-6.47-5.81-10.36-3.31-7-5.72-14.25-7.16-21.53-.02-.12.03-.29.12-.37ZM172.26,334.61c.21-.08.45,0,.54.2,1.91,4.09,4.86,6.88,7.76,9.29.19.16.23.43.08.63-.1.14-.26.22-.42.22-.08,0-.16-.02-.24-.06-4.39-2.42-6.86-7.16-7.94-9.76-.09-.2,0-.43.22-.52ZM180.45,340.78c.19-.19.49-.2.69,0l.07.07c1.52,1.52,3.1,3.09,4.86,4.36.2.15.25.43.11.64-.09.13-.23.2-.37.2-.08,0-.17-.02-.24-.07-1.81-1.18-3.35-2.72-4.83-4.21l-.3-.3c-.19-.19-.19-.49,0-.68ZM142.25,113.86c-.11.18-.29.28-.49.28-.09,0-.18-.02-.27-.06-.27-.13-.39-.42-.28-.69,1.81-4.69,4.6-9.17,7.3-13.36,8.07-12.52,18.22-23.68,28.04-34.49,2.25-2.48,4.51-4.96,6.73-7.45.12-.14.41-.15.55-.03.17.14.19.39.04.56-3.17,3.72-6.42,7.48-9.95,11.49-5.79,6.59-11.91,13.64-17.5,21.06-2.87,3.81-5.35,7.41-7.58,10.99-1.48,2.36-2.83,4.84-4.13,7.25-.8,1.46-1.62,2.98-2.46,4.45ZM187.25,91.44c.2-.13.46-.07.6.13.14.21.09.48-.11.63-1.71,1.24-3.48,2.46-5.19,3.64-6.64,4.59-13.51,9.34-18.73,15.78-.08.1-.2.15-.31.15-.09,0-.18-.03-.25-.09-.18-.15-.21-.42-.07-.6,6.34-8.14,15.31-14.25,24.07-19.64ZM150.58,108.23h0c-.09.18-.26.28-.44.28-.07,0-.14-.01-.21-.04-.25-.11-.38-.38-.3-.63,1.57-4.73,4.41-8.99,6.99-12.54,2.47-3.39,5.45-6.89,9.38-11.02.15-.16.41-.17.57-.02.17.15.18.41.03.57-7.16,8.18-12.25,15.62-16.02,23.39ZM165.99,138.4s0,0,0,0c.14-.17.39-.18.56-.04.17.15.2.41.05.58-6.81,8.32-11.86,17.76-15.51,25.05-.08.16-.24.26-.4.26-.07,0-.13-.01-.2-.05-.24-.11-.34-.39-.24-.63,4.06-9.25,9.5-17.95,15.73-25.17ZM136.08,163.32c-.06.62-.11,1.25-.18,1.85-.34,2.84-.75,5.32-1.26,7.56-.56,2.47-1.29,4.8-2.17,6.93-.24.58-.51,1.16-.78,1.69-.03.07-.09.13-.17.16-.31.13-.61.26-.91.37-1.9.66-4.06,1.13-6.42,1.41-1.57.18-3.26.27-5.04.27-.47,0-.96,0-1.44-.02-.55-.02-1.11-.06-1.67-.11l-.39-.03c-.14-.01-.26-.11-.3-.25-.03-.14.02-.29.15-.36,1.56-.97,3.01-2.18,4.25-3.23,2.49-2.11,4.67-4.14,6.68-6.2,1.8-1.85,3.68-3.95,5.9-6.61.97-1.16,1.8-2.28,2.54-3.42.2-.3.42-.61.64-.92.09-.12.25-.16.39-.12.14.05.23.19.22.34l-.06.69ZM133.74,286.34c-.13.08-.3.07-.41-.04-1.31-1.27-2.48-2.46-3.56-3.64-.77-.84-1.48-1.74-2.17-2.61-.28-.36-.56-.71-.85-1.07-.02-.03-.04-.06-.05-.09-.09-.24-.16-.41-.24-.58-.1,0-.28-.04-.36-.12l-.03-.04c.03.33.07.65.14,1,0,.04.01.07,0,.11-.51,4.56.3,9.57,1.02,13.99l.02.12c.52,3.14,1.27,5.78,2.31,8.06.07.15.01.34-.14.43-.05.03-.11.05-.17.05-.1,0-.21-.05-.27-.14-1.15-1.58-2.31-3.34-3.64-5.54-1.01-1.66-1.98-3.38-2.93-5.05-1.82-3.2-3.7-6.51-5.85-9.54-.03-.04-.05-.08-.06-.13-.16-.76-.41-1.71-.93-2.49-.21,1.22-.06,2.56.08,3.86.03.27.06.55.08.81.12,1.27.3,2.65.54,4.21.03.16-.07.32-.23.37-.16.05-.33-.02-.4-.17-.39-.78-.78-1.57-1.17-2.35-1.38-2.77-2.81-5.63-4-8.55-.47-1.14-.9-2.29-1.34-3.44-1.22-3.2-2.48-6.51-4.29-9.46-.03-.06-.05-.11-.05-.18,0-.25-.01-.51-.03-.77,0-.06-.07-.13-.13-.14-.09.09-.28.16-.4.12l.02.13c.02.09,0,.19-.05.26-.93,1.39-1.22,3.24-1.41,4.87-.25,2.05-.22,4.29.08,7.05.15,1.37.38,2.83.7,4.45.03.16-.06.33-.22.38-.15.06-.33-.01-.41-.17-.79-1.59-1.57-3.17-2.35-4.76-.78-1.59-1.56-3.18-2.35-4.77-.02-.04-.03-.07-.03-.11-.2-1.76-.68-3.04-1.52-4.05-.09,1.98.07,3.98.23,5.91v.12c.02.17-.09.32-.25.36-.17.04-.33-.05-.39-.21-2.7-7.24-5.48-14.72-7.05-22.64-2.19-11.06-2.02-21.75.51-31.77.95-3.76,2.27-7.35,3.45-10.35.06-.15.22-.24.38-.21.16.04.27.18.26.34-.2,4.12.09,8.57.92,14.45.84,5.91,2.12,12.75,5.25,18.73.02.04.03.07.04.12.02.2.05.4.07.6.09-.05.19-.04.28,0,.05.02.13,0,.14-.02-.06-.66-.14-1.3-.22-1.94,0-.03,0-.07,0-.1.15-.83.3-1.66.44-2.5.03-.16.16-.28.33-.28s.3.12.33.28c.17.97.36,1.93.55,2.89l.06.28c.26,1.29.56,2.52,1.32,3.49h0s.02-.02.03-.03c.18-.47.25-.95.26-1.49.51-2.3.9-4.59,1.27-6.8.24-1.42.48-2.83.75-4.25.34-1.76.8-3.5,1.41-5.32.05-.15.22-.24.36-.23.16.03.28.16.29.32.06,1.7.28,3.41.46,4.7.33,2.36.86,4.66,1.46,7.21l.11.48c.43,1.84.97,4.13,2.3,5.38.05.04.08.03.09.03.03,0,.08-.04.11-.11.3-.75.36-1.72.19-2.95,0-.03,0-.07,0-.1l.27-1.63c.39-2.4.79-4.88,1.33-7.29.39-1.73.91-3.44,1.42-5.11l.27-.9c.05-.16.22-.26.38-.23.17.03.28.17.28.34-.06,1.4-.06,2.85-.02,4.32.1,3.43.37,7.39,1.65,10.81.18.48.65.66,1.05.58.18-.04.6-.18.59-.77-.07-4.68,1.43-9.21,2.74-12.63.85-2.2,1.72-4.21,2.67-6.14.16-.32.34-.64.53-.97.08-.14.26-.2.41-.14.15.05.24.21.22.37-.75,4.07-.73,8.43-.61,12.15.11,3.36.42,6.76.92,10.11.24,1.61.53,3.19.86,4.69l.08.39c.26,1.2.58,2.69,1.32,3.57.09,0,.22.01.29.06.07.06.15.14.17.24l.08.04c.29-1.76.69-3.61,1.2-5.65.04-.17.21-.27.38-.25.17.03.3.18.28.35-.4,5.36-.46,11.06-.21,17.42.25,6.04.55,13.55,2.55,20.27.1.32.19.62.28.92.05.15-.01.31-.14.39ZM126.11,352.45h0c-.09.23-.3.37-.53.37-.06,0-.11,0-.16-.03-.29-.08-.44-.36-.38-.66.39-1.73.87-3.44,1.33-5.09,1.03-3.68,2.01-7.15,2.13-10.96.01-.24.2-.41.43-.41h.01c.23,0,.41.19.41.42.07,4.99-1.02,10.5-3.24,16.35ZM93.02,347.05c-1.23,1.24-2.57,2.4-3.87,3.52-.58.5-1.16,1-1.73,1.51-.09.08-.21.13-.32.13-.13,0-.25-.05-.35-.15-.19-.19-.19-.48-.01-.67,1.01-1.1,2.16-2.07,3.27-3,.78-.65,1.58-1.33,2.32-2.04.2-.18.5-.18.7.02s.19.49,0,.68ZM86.27,348.74c-.19-.14-.24-.39-.13-.59,1.4-2.61,3.36-5.11,5.09-7.31.14-.18.4-.21.59-.07.19.14.24.4.11.59-.56.81-1.09,1.68-1.6,2.53-1.02,1.68-2.07,3.42-3.45,4.81-.09.09-.21.13-.33.13-.1,0-.19-.03-.27-.09ZM85.44,344.5c-.12,0-.24-.04-.35-.12-.25-.18-.32-.51-.16-.76.34-.57.69-1.14,1.04-1.7,1.03-1.67,2-3.25,2.77-5.01.93-2.12,1.67-4.48,2.19-7.01,1.05-5.06,1.27-10.2,1.35-14.99,0-.18.2-.39.4-.39.22,0,.39.17.4.38.09,5.58.08,10.6-.92,15.5-.84,4.11-2.61,9.86-6.3,13.91-.11.13-.26.19-.41.19ZM88.18,63.52c.23,0,.43.15.45.39h0c.24,3.72.71,7.53,1.16,11.21.88,7.13,1.79,14.51,1.12,21.75-.02.25-.23.44-.48.44h-.02c-.25-.01-.44-.21-.44-.46,0-5.85-.26-11.22-.79-16.42l-.15-1.42c-.51-4.93-1.04-10.02-1.24-15.05-.01-.23.16-.41.39-.43ZM95.63,160.36c1.77-3.65,4.01-7.07,6.17-10.38.08-.13.26-.2.4-.16.15.05.25.17.24.32-.09,1.31-.19,2.62-.3,3.93-.37,4.55-.75,9.25-.16,13.91.4,3.16.93,6.33,1.44,9.32l.45,2.64c.02.13-.03.26-.14.33-.06.04-.12.06-.19.06-.06,0-.12-.02-.17-.05-.77-.46-1.59-.9-2.38-1.32-.72-.38-1.44-.76-2.14-1.18-1.51-.89-2.69-1.68-3.73-2.49-.34-.26-.67-.56-1-.86-.31-.28-.63-.57-.97-.83-.06-.05-.1-.11-.12-.19-1.12-4.58.95-9.65,2.6-13.06ZM93.62,99.15c.14-1.86.29-3.78.33-5.66h0c0-.22.18-.39.4-.39.17,0,.4.21.4.39.05,3.84-.15,7.76-.35,11.54l-.12,2.42c-.01.26-.22.46-.48.46s-.47-.2-.48-.46c-.11-2.78.1-5.58.31-8.3ZM126.88,131.78c.11-.21.34-.29.55-.18.21.1.3.35.21.57-2.45,5.21-4.44,10.69-6.36,15.98-.95,2.63-1.94,5.35-2.97,8-.09.23-.3.37-.54.37-.06,0-.13,0-.19-.03-.29-.1-.44-.38-.35-.68,2.25-8.01,5.49-16.1,9.65-24.03ZM124.44,69.14c1.01-4.51,2.06-9.18,2.85-13.81,1.4-8.25,1.99-16.38,1.79-24.84,0-.22.16-.41.38-.42.24-.02.42.15.44.38.73,7.07.37,14.91-1.14,24.66-1.3,8.41-3.12,16.68-5.42,24.6-.08.25-.28.41-.53.41-.05,0-.09,0-.14-.02-.3-.07-.49-.36-.43-.67.67-3.45,1.45-6.92,2.2-10.29ZM130.43,69.05h0s-.59,2.25-.59,2.25c-1.89,7.24-3.85,14.72-6.61,21.8-.07.19-.25.3-.44.3-.05,0-.11-.01-.16-.03-.23-.08-.35-.33-.27-.57,1.59-4.94,3.11-10,4.57-14.89.91-3.02,1.81-6.05,2.74-9.06.06-.21.26-.33.48-.27.18.05.32.3.28.48ZM318.09,101.49c-.12-.7-.28-1.25-.49-1.69-.08-.15-.16-.29-.28-.44-.08-.1-.1-.24-.04-.36.24-.45-.49-1.21-2.16-2.25l-.2-.13c-.96-.62-1.99-1.19-2.99-1.74-.91-.5-1.85-1.02-2.74-1.58-1.65-1.03-3.38-2.23-5.46-3.77-.66-.49-1.33-.98-1.99-1.47-1.32-.98-2.64-1.96-3.98-2.93l-.63-.46c-1.55-1.15-3.31-2.46-5.16-2.62-.06.01-.19,0-.25-.03-1.35-.63-2.99-.43-4.57-.24-.4.05-.78.1-1.15.13l-.2.02c-2.04.18-4.15.37-6.24.49-2.29.13-4.41.19-6.45.16-.39,0-.79-.02-1.2-.03-1.64-.06-3.36-.13-4.77.54-.04.02-.08.05-.12.08-.03.03-.07.06-.12.07-3.11,1.13-5.13,4.42-6.9,7.32-.26.42-.51.83-.76,1.23l-.07.12c-1.21,1.93-2.47,3.91-3.99,5.66-.69.8-1.45,1.55-2.3,2.3-.38.33-.78.63-1.17.91l-.28.2c-.09.07-.21.09-.31.05-.1-.04-.19-.13-.21-.24-.18-.77-.52-1.57-.79-2.21l-.04-.09c-.63-1.48-1.53-3.1-2.76-4.94-1.05-1.56-2.14-3-3.26-4.26-.97-1.11-2.08-2.36-3.64-2.54-.06,0-.13.01-.21.04-.08.03-.16.04-.24,0-1.06-.37-2.26-.4-3.41-.43h-.13c-1.86-.05-3.76.22-5.54.53-2.01.34-3.74.75-5.3,1.27l-.3.1c-.89.29-1.8.59-2.47,1.13-.07.06-.17.09-.26.07-.09-.02-.18-.07-.23-.15-.04-.06-.13-.1-.17-.1h-.01c-.48,1.11-.75,2.33-1.02,3.52-.1.47-.21.93-.32,1.39-.44,1.74-1.03,3.57-1.75,5.42-.69,1.78-1.51,3.47-2.29,5.05-.08.15-.16.31-.24.48-.59,1.15-1.34,2.59-.79,3.65.03.06.13.14.2.11.13-.02.37.08.41.24.51,1.85,2.11,3.32,3.36,4.23,1,.72,2.19,1.4,3.55,2.01l.24.11c.97.44,2.29,1.05,3.3.96.12-.01.24-.08.3-.17.04-.05.04-.1.02-.15-.24-.63-.73-1.2-1.51-1.77-.07-.05-.12-.13-.14-.22l-.04-.3c-.07-.49-.13-.95-.31-1.43l-.09-.25c-.3-.84-.61-1.71-.87-2.58-.25-.81-.36-1.64-.46-2.41-.01-.1.02-.2.09-.27.23-.24.43-.47.61-.71.93-1.22,1.65-2.52,2.42-3.9l.05-.09c.39-.7.79-1.4,1.19-2.09.32-.57.65-1.14.98-1.71.08-.15.28-.21.43-.14.68.33,1.5.53,2.3.73.56.14,1.08.27,1.52.43,2.24.83,4.33,1.87,6.21,3.09,2.06,1.33,3.73,2.75,5.11,4.32.52.58.99,1.22,1.46,1.83l.05.07c.09.11.09.27.01.39-1.31,2-1.86,4.53-2.4,6.97-.12.53-.23,1.05-.35,1.55-.86,3.6-1.7,6.84-3.38,9.99-.03.05-.06.09-.1.12-.32.23-.64.47-.94.7-.21.16-.41.32-.61.47-.81.6-1.61,1.25-2.37,1.89-.34.28-.68.56-1.02.84-.89.72-1.79,1.42-2.7,2.13-1.39,1.08-2.82,2.19-4.17,3.35-1.61,1.38-3.12,2.91-4.58,4.4-.38.38-.75.77-1.13,1.15-1,1-2.03,1.98-3.09,2.9-.21.19-.44.38-.67.57-.6.5-1.22,1.01-1.69,1.6-.03.03-.06.06-.1.08-1.21.69-2.36,1.93-3.28,2.94l-.14.15c-1.2,1.29-2.37,2.74-3.58,4.46-1.4,1.98-2.75,4.04-4.06,6.03-.88,1.34-1.76,2.67-2.66,4-1.72,2.53-3.63,4.98-5.49,7.35-.7.9-1.4,1.8-2.09,2.7-1.06,1.39-2.45,3.23-3.77,5.16l-.32.47c-.44.64-.94,1.36-1.35,2.12-.04.07-.09.12-.16.15-1.06.45-2.12.98-3.15,1.49-1.03.51-2.1,1.03-3.16,1.49-3,1.28-6.25,2.37-9.67,3.26-3.2.83-6.5,1.45-9.81,1.85-1.48.18-3.24.39-4.98.51-.27.02-.56.04-.85.06-.57.03-1.16.06-1.73.14-.12.01-.23-.03-.31-.12-.07-.09-.1-.21-.06-.32.06-.17.11-.34.15-.52.03-.13-.04-.24-.12-.29-.08-.05-.16-.05-.23,0-1.5.92-2.69,2.52-3.84,4.05-.34.46-.68.91-1.01,1.32-1.86,2.32-3.25,4.25-4.39,6.07-.69,1.11-1.33,2.27-1.9,3.45-.07.15-.24.22-.39.18-.16-.05-.26-.2-.24-.36.22-1.77.48-3.57.79-5.51.93-5.77,2.6-11.57,4.95-17.25,5.19-12.52,13.43-23.49,19.17-30.66,2.22-2.78,4.44-5.44,6.31-7.68.52-.62,1.05-1.24,1.57-1.86,1.61-1.88,3.26-3.83,4.65-5.91-.07-.03-.15-.1-.18-.17-.05-.11-.16-.2-.3-.25-.33-.14-.64-.45-.84-.86-.06-.12-.05-.25.03-.35-.09,0-.19-.13-.25-.2-.05-.06-.15-.06-.16-.06-.09,0-.17.05-.21.11-.05.08-.14.14-.23.15,0,0-.14.03-.14.03-.14.02-.28-.03-.35-.15-.07-.12-.07-.27.02-.38.64-.83,1.17-1.6,1.63-2.35.11-.12.16-.2.19-.3,0-.01.04-.09.04-.09l.04-.07c.09-.15.18-.31.27-.47-.09-.07-.15-.23-.13-.34.12-.74.14-1.51.15-2.17,0-.08.03-.15.08-.21.18-.21.3-.42.38-.64,0-.02-.05-.06-.11-.06-1.09-.13-2.61.71-3.82,1.4l-.36.2c-.13.07-.3.05-.4-.06-.1-.11-.13-.27-.05-.4.43-.75.87-1.57,1.3-2.44l.23-.46c1.28-2.55,2.61-5.19,3.4-7.97-.07.02-.14.02-.21,0-.13-.04-.21-.15-.23-.28,0-.05-.04-.1-.1-.14-.07-.04-.14-.06-.2-.05-.62.16-1.19.57-1.74.98-.17.12-.34.25-.51.36-.84.57-1.67,1.16-2.5,1.74-1.51,1.06-3.29,2.3-5.11,3.51l-.56.37c-3.06,2.03-6.24,4.14-9.1,6.52-1,.83-2,1.76-3.05,2.84-.13.13-.33.14-.46.02-.13-.12-.15-.31-.04-.46,9.2-11.75,20.97-21.61,32.32-30.51,1.61-1.26,3.28-2.51,4.9-3.71,3.56-2.65,7.24-5.4,10.48-8.47.09-.09.23-.12.36-.07.25.08.55-.03.64-.21.5-1.01-.37-2.43-1.08-3.58-.19-.31-.37-.61-.52-.87-.91-1.69-1.77-3.36-2.34-5.11-.04-.12,0-.25.08-.34-.09,0-.18-.03-.24-.1-.03-.04-.09-.06-.15-.06,0,0-.07,0-.1.04-.06.07-.15.12-.24.12-.65.03-1.37.17-2.13.43-.14.05-.3,0-.39-.13l-.08-.13c-.19-.28-.37-.55-.55-.84-.18-.3-.36-.63-.54-.96-.28-.51-.56-1.04-.9-1.5-.1-.13-.08-.31.03-.43.15-.15.29-.32.43-.49.05-.07.06-.22.01-.31-2.9.35-5.55,2.03-8.11,3.66-.51.33-1.02.65-1.52.95-3.71,2.27-7.01,4.46-10.06,6.7-2.75,2.01-5.15,3.93-7.35,5.85-.13.11-.32.11-.44,0-.12-.11-.15-.3-.05-.44,3.55-5.19,6.68-9.4,9.84-13.24,3.89-4.74,8.2-9.5,12.83-14.13,1.78-1.79,3.56-3.64,5.28-5.43,2.83-2.96,5.76-6.01,8.8-8.85,2.67-2.5,5.31-4.68,8.08-6.69l.23-.17c2.24-1.62,4.37-3.15,5.98-5.3.08-.11.23-.16.34-.13.22.05.42,0,.58-.13.11-.08.23-.23.23-.48,0-.95-.68-1.94-1.24-2.75-.26-.38-.55-.75-.9-1.17-.06-.07-.09-.16-.08-.26.01-.09.06-.18.14-.23.15-.11.2-.31.15-.44-.02-.07-.07-.16-.25-.13-.2,0-.41.02-.61.04h-.11c-.06.03-.2-.02-.27-.1l-.17-.18c-.07-.07-.11-.06-.12-.06-.06.01-.13.08-.16.18-.03.14-.15.24-.29.25-4.4.5-8.54,2.08-12.01,3.57-4.5,1.93-9.01,4.32-13.43,7.11-8.83,5.58-16.73,12.33-23.47,20.07-1.33,1.52-2.6,3.09-3.8,4.66-.11.14-.3.17-.45.08-.15-.1-.19-.29-.11-.44.75-1.36,1.6-2.79,2.74-4.63l1.23-1.98c2.18-3.55,4.44-7.22,7.05-10.6,6.14-7.98,13.29-15.05,22.14-23.21,1.68-1.55,3.43-3.09,5.12-4.57,2.57-2.26,5.23-4.6,7.71-7.04.11-.11.28-.13.42-.04.16.1.35.04.46-.05.07-.05.22-.19.15-.42-.15-.52-.49-1.01-.82-1.48-.1-.15-.2-.3-.3-.45-.45-.69-.87-1.28-1.31-1.84-.11,0-.17.07-.17.12,0,.18-.15.33-.33.33-2.72,0-5.51,1.82-7.76,3.27l-.29.18c-2.7,1.75-5.15,3.76-7.86,6.01-.6.5-1.21,1-1.83,1.48-.14.11-.34.09-.46-.04-.12-.13-.12-.33,0-.45,1.95-2.07,3.73-3.83,5.45-5.36,1.79-1.61,3.31-2.81,4.79-3.79.6-.4,1.26-.73,1.9-1.05.87-.44,1.69-.85,2.38-1.42.22-.18.21-.4.15-.55-.09-.29-.38-.52-.65-.53-1.22-.08-2.57.72-3.73,1.41l-.21.12c-1.36.81-2.73,1.8-4.19,3.01-3.19,2.64-6,5.61-8.34,8.16-4.59,5.02-10.54,11.68-15.9,18.63-1.82,2.37-3.23,4.36-4.42,6.27l-.19.32c-.09.15-.3.2-.45.11-.16-.09-.22-.29-.13-.45,1.44-2.61,3.17-5.68,5.07-8.71,5.44-8.7,11-15.92,17-22.06,2.8-2.87,5.88-5.43,8.86-7.91.89-.74,1.79-1.49,2.68-2.25.39-.33.28-.78.07-1.06-.24-.33-.71-.57-1.14-.3-3.89,2.42-7.4,5.8-10.39,8.77-3.16,3.14-6.28,6.69-9.28,10.54-3.16,4.06-6.17,8.42-8.97,12.98-.09.15-.29.2-.45.12-.15-.09-.22-.28-.14-.44.54-1.12,1.09-2.24,1.64-3.36l.18-.36c.67-1.36,1.31-2.72,1.96-4.08.56-1.19,1.13-2.37,1.7-3.55.62-1.26,1.23-2.53,1.84-3.8.1-.21.21-.43.32-.65.46-.92.93-1.86,1.13-2.82-.07-.05-.13-.15-.15-.24-.02-.08-.06-.16-.11-.22-.18-.22-.43-.38-.7-.55-.19-.13-.39-.25-.57-.4-.43-.36-.89-.62-1.33-.85-.06-.03-.15-.02-.22.02-.05.04-.05.07-.05.09.02.2.05.39.11.59.04.13,0,.26-.11.34-4.47,3.76-7.47,8.95-10.39,14.4-3.37,6.27-6.24,12.02-8.78,17.59-3.06,6.69-5.64,13.72-8.13,20.52l-.1.28c-1.7,4.64-3.59,9.28-5.42,13.76-.64,1.56-1.28,3.13-1.91,4.7-.16.39-.31.78-.47,1.17l-.07.16c-.07.17-.25.25-.41.2-.17-.06-.27-.23-.22-.4.4-1.59.81-3.17,1.22-4.75l.49-1.88c.91-3.52,1.63-7.14,2.32-10.64l.45-2.25c.31-1.54.65-3.08,1-4.62.65-2.92,1.33-5.93,1.76-8.94,0-.05-.05-.1-.07-.1l-.13.29c-.05.1-.15.16-.25.18-1.41.77-2.33,2.19-3.22,3.56l-.21.32c-.57.86-1.08,1.77-1.59,2.76-.08.16-.26.22-.42.16-.16-.06-.25-.24-.2-.41l.26-.9c.26-.94.53-1.88.8-2.81.66-2.3,1.3-4.62,1.95-6.93.6-2.14,1.19-4.29,1.81-6.43.25-.87.5-1.73.76-2.6,1.01-3.43,2.05-6.97,2.65-10.53,0-.04-.02-.08-.04-.1-.11.05-.31,0-.41-.07-.35-.23-.7-.38-1.08-.55-.29-.13-.59-.26-.88-.42l-.29-.16c-.18-.1-.36-.2-.54-.3-.15-.08-.31-.12-.46-.17-.14-.04-.27-.08-.4-.14-.14-.06-.36.02-.4.11-.02.05-.06.1-.11.13-.53,2.18-.93,4.4-1.32,6.55-.31,1.7-.62,3.45-1,5.17-.81,3.7-1.93,7.66-3.42,12.09-.85,2.54-1.8,5.19-3.09,8.59-.06.16-.24.25-.41.2-.17-.05-.27-.23-.23-.4l.59-2.52c2.32-9.88,4.73-20.1,4.94-30.45.05-2.57.01-5.33-.13-8.69-.06-1.38-.14-2.77-.25-4.25-.08-1.08-.28-2.1-.5-3.18-.08-.4-.16-.79-.23-1.19-.56,2.76-.8,5.16-.82,7.55-.02,2.56-.05,5.12-.09,7.67v.82c-.02.18-.16.33-.35.33h-.5c-.09,0-.18-.05-.24-.11-.06-.06-.1-.15-.09-.24.01-.67-.02-1.35-.05-2.01l-.02-.59c-.06-1.44-.16-2.92-.26-4.34l-.14-2c-.17-2.71-.37-5.79-1.48-8.27-.02-.05-.03-.1-.03-.15.02-.41-.02-.78-.12-1.12-.07.03-.09.06-.1.1-.06.12-.22.18-.31.19h0c-.07,0-.16.06-.17.16-.02.27-.03.55-.05.83,0,.03,0,.06-.02.09l-.16.47c-.12.36-.24.72-.38,1.06-.55,1.34-1.01,2.42-1.48,3.4-.63,1.32-1.04,2.37-1.34,3.39-.04.13-.16.23-.3.24-.13.01-.27-.07-.33-.2-.43-1.01-1.01-2.06-1.72-3.14-1.34-2.05-2.82-3.03-4.54-2.99-.06,0-.13.06-.16.14-.02.07,0,.09.03.11.2.17.4.35.59.53.12.11.14.31.04.44-.1.14-.29.18-.43.1-.05-.03-.13-.04-.15-.01-.39.45-.41.8-.43,1.44v.18c-.06,1.08-.18,2.11-.31,3.16l-.05.38c-.02.16-.15.29-.31.3-.13.03-.31-.1-.35-.26,0,0-.02-.08-.02-.08l-.03-.13c-.7-3.35-1.48-6.2-2.39-8.75-.8-2.27-1.94-5.21-3.59-7.93-1.02-1.68-2.48-4.09-4.36-4.73.09.22.22.45.37.71.02.04.03.07.04.12.32,1.84.46,3.78.59,5.65l.02.31c.14,2.11.19,4.43.15,7.11-.08,4.27-.47,8.58-.85,12.76l-.31,3.47c-.7,7.79-1.41,15.85-2.64,23.71-.03.18-.19.29-.37.28-.18-.02-.31-.18-.29-.37,1.06-10.31,1.45-18.82,1.24-26.79l-.04-1.56c-.1-4.25-.2-8.64-1.14-12.76-.02-.1,0-.21.07-.3.21-.24.38-.49.53-.76.03-.05.02-.12-.01-.17-.23-.02-.41,0-.58.02-.13.01-.25-.04-.32-.14-.04.12-.14.21-.26.24-.75.14-1.47.34-2.24.55l-.25.07c-1.5.42-3.02.6-4.31.72l-.59.05c-1.91.17-3.72.33-5.24,1.29-.14.09-.33.06-.44-.07-.01-.01-.06-.08-.06-.09-.03.1-.05.26-.06.42,0,.1-.05.18-.12.24-.05.04-.09.08-.14.12,0,0,0,0,.01,0,.14.05.23.17.23.31.02,1.01.22,2.09.41,3.13.08.42.15.84.22,1.24.03.17-.08.33-.24.37-.16.05-.34-.04-.4-.19-.22-.53-.45-1.06-.69-1.58-1.1-2.41-2.6-4.82-4.45-7.16-1.07-1.35-2.73-3.25-4.75-4.11-.11-.07-.22-.14-.33-.2,1.37,2.61,2.84,5.74,3.71,9.37.99,4.07,1.52,8.26,1.9,11.82.49,4.59.96,9.51,1.06,14.37.1,5.19-.13,10.84-.68,17.3-.08.88-.16,1.76-.24,2.64-.02.17-.16.3-.33.3-.17-.01-.32-.13-.34-.29l-.05-.47c-.4-3.68-.96-7.56-1.72-11.88-.55-3.08-.93-6.4-1.23-10.45,0-.12.05-.24.15-.31.1-.06.17-.12.22-.19.09-.11.09-.19.04-.28-.08-.17-.19-.28-.36-.38-.09-.06-.15-.15-.16-.26-.01-.15-.02-.31-.03-.47-.07.04-.09.09-.1.14l-.03.09c-.02.09-.08.16-.16.2-.08.05-.17.05-.26.03l-.25-.08c-.77-.26-1.55-.49-2.32-.72l-.35-.1c-.37-.11-.74-.22-1.1-.33-1.08-.33-2.11-.64-3.19-.87-.07-.02-.13-.05-.18-.1-.06.02-.19.03-.26.01-.18-.04-.36-.06-.54-.09-.1,0-.22.06-.25.15-.01.02-.02.04.03.08.21.17.42.33.64.48.09.06.14.17.14.28-.03,1.1.36,2.35.7,3.45.12.4.24.78.34,1.14l.2.77c.49,1.83.99,3.72,1.35,5.61.09.49.17.99.24,1.48.02.16-.08.32-.24.37-.16.04-.33-.03-.4-.18-.2-.44-.41-.88-.62-1.32-1.26-2.62-2.57-4.95-4.02-7.1l-.46-.69c-1.17-1.78-2.49-3.78-4.24-4.95.06.19.13.39.21.58.06.16,0,.34-.16.42-.1.05-.21.05-.31,0,.63,3.19,1.87,6.3,3.07,9.31.52,1.3,1.06,2.65,1.53,3.97.46,1.27.9,2.55,1.32,3.83.08.7.15,1.33.24,1.96.28,1.85.51,3.73.67,5.58.34,3.86.57,7.42.71,10.91.13,3.63.25,7.26.36,10.89.12,3.63.23,7.25.36,10.87.28,7.52.36,15.43.26,23.48-.11,8.38-.26,15.94-1.07,23.63-.16,1.52-.36,3.18-.64,5.22,0,.04-.02.07-.04.11-.99,1.96-2.08,3.89-3.15,5.76-1.74,3.08-3.9,7.12-5.45,11.64-2.87,8.38-4.96,16.68-6.22,24.67-.02.14-.13.25-.26.27-.16.03-.28-.03-.35-.15-.32-.49-.76-.57-1.07-.48-.32.08-.67.36-.7.89-.85,13.86-.56,26.19.9,37.71.76,6.02,2.06,12.02,3.97,18.34.05.15-.02.31-.16.39-.14.08-.31.05-.41-.07-.4-.45-.8-.89-1.2-1.3-.32-.33-.66-.14-.75-.07-.23.17-.4.5-.22.85,1.86,3.56,2.84,7.6,3.62,10.85.31,1.29.65,2.57.98,3.85.4,1.52.82,3.1,1.18,4.66l.1.44c.51,2.2,1.03,4.49,1.82,6.63.05.13.01.27-.09.36-.1.09-.25.11-.37.05-.56-.29-1.11-.56-1.65-.83-1.17-.58-2.35-1.15-3.53-1.72-2.5-1.21-5.1-2.47-7.6-3.8-2.11-1.13-4.03-2.04-5.84-2.8-.37-.15-.74-.31-1.11-.45-.11-.04-.18-.13-.21-.24l-.12-.55c-.34-1.62-.7-3.25-1.09-4.86-.9-3.8-1.71-6.92-2.55-9.81-.81-2.82-1.92-5.86-3.37-9.27-.6-1.42-1.33-3.07-2.26-4.61-.09-.15-.05-.35.1-.45.09-.06.16-.15.18-.22.23-.91.06-1.84-.12-2.83-.08-.45-.17-.92-.21-1.38-.14-1.52-.15-3.17-.03-5.07.21-3.32.77-6.8,1.81-11.31,1.78-7.65,4.31-15.14,7.73-22.91.27-.6.54-1.21.81-1.82.74-1.65,1.5-3.36,2.18-5.06.46-1.16.92-2.37,1.4-3.69.29-.81.43-1.59.58-2.42l.05-.28s.02-.07.04-.11c.13-.22.25-.45.37-.67.13-.23.25-.46.37-.67l.89-1.46c.41-.67.82-1.35,1.23-2.02.68-1.14,1.37-2.27,2.07-3.39.8-1.3,1.59-2.59,2.36-3.9,1.58-2.66,2.7-4.93,3.53-7.15.35-.94.79-2.17,1.03-3.4.03-.14.15-.25.29-.27.07,0,.14-.05.18-.11,1.33-2.08.15-5.34-.7-7.72l-.2-.54c-.45-1.26-.94-2.53-1.43-3.75-.71-1.81-1.44-3.68-2.03-5.57-1.04-3.32-1.52-6.56-1.47-9.92.02-.91.07-1.81.12-2.71.08-1.49.17-3.04.08-4.55,0-.11.04-.21.12-.28.89-.73,1.68-1.53,2.53-2.38.36-.36.73-.73,1.1-1.1,1.06-1.03,2.01-1.8,2.99-2.42l.35-.22c.74-.46,1.51-.94,2.16-1.53.05-.04.11-.07.18-.08l.35-.05s-.02-.03-.02-.04c-.05-.09-.09-.19-.05-.29.01-.03.01-.07,0-.1-.75-.2-1.49-.17-2.29.08-.05.02-.11.02-.15.01-.58-.09-1.06-.15-1.51-.17-1.39-.08-2.7-.03-3.99.17l-.24.04c-1.37.2-3.44.51-4.77,1.38-.09.06-.19.07-.29.04-.1-.04-.18-.11-.21-.21-2.79,2.79-4.24,7.05-5.29,10.84-.48,1.75-.84,3.67-1.13,6.05-.02.2-.05.42-.08.64-.19,1.48-.46,3.5.38,4.64.03.04.05.09.06.14.41,2.24,1.31,4.39,2.28,6.58.26.58.52,1.16.78,1.74.49,1.08,1.01,2.21,1.46,3.34l.06.15c.02.06.05.19.04.24-.31,1.87-.6,3.38-.91,4.75-.19.86-.39,1.7-.61,2.55-.03.12-.12.21-.25.24-.13.02-.25-.02-.33-.11-.21-.25-.42-.5-.63-.75l-.27-.34c-1.01-1.28-2.05-2.6-3.3-3.62-.08-.07-.13-.17-.12-.28.1-1.67-.18-3.43-.44-5.13-.08-.5-.15-.98-.21-1.44-.42-3.13-1-6.41-1.71-9.75-1.32-6.2-2.77-12.16-5.88-16.98-.03.07-.08.13-.14.17-.12.08-.27.07-.39-.03-.9-.75-1.96-1.4-2.89-1.96-.29-.18-.57-.35-.82-.51-2.35-1.49-4.98-2.89-8.03-4.28-2.4-1.09-5.05-2.19-8.11-3.36-.34-.13-.69-.27-1.03-.4-1.03-.41-2.1-.83-3.17-1.16-.69-.22-1.43-.36-2.14-.51-.49-.1-.98-.2-1.46-.32-.06-.01-.1-.04-.14-.07-.05.01-.11.01-.15,0-.02,0-.03-.01-.05-.01.02.04.03.08.04.12.01.1-.02.2-.09.27l-.25.26c-.79.79-1.7,1.49-2.58,2.16-.54.41-1.07.82-1.57,1.25-1.75,1.49-3.06,3.05-4.14,4.9-.84,1.45-1.55,3.01-2.23,4.53-.22.49-.44.98-.67,1.46-.27.59-.56,1.17-.85,1.76-.37.75-.76,1.53-1.1,2.3-.07.15-.25.24-.41.18-.09-.02-.17,0-.18.02-1.03,1.25-.65,3.38,1.13,6.31,1,1.66,2.86,4.74,5.18,5.48.09.03.21,0,.3-.07.09-.07.13-.16.13-.24-.03-.51-.18-1.03-.44-1.59-.03-.06-.04-.13-.03-.19.2-1.34.3-2.74.33-4.67,0-.36.02-.74.04-1.12.04-1.01.08-2.06-.04-3.05-.01-.09.02-.19.08-.26.79-.91,1.53-1.89,2.25-2.85.47-.62.94-1.25,1.44-1.87.91-1.14,1.87-2.21,2.86-3.29.19-.21.38-.41.58-.62.44-.47.9-.95,1.29-1.46.1-.13.27-.16.42-.1.38.17.71.32,1.05.46.67.3,1.35.6,2.01.93.99.49,1.97,1.02,2.94,1.54.91.49,1.82.98,2.74,1.44.88.44,1.77.87,2.65,1.29,1.25.6,2.54,1.22,3.78,1.88.3.16.61.33.91.49.74.4,1.5.81,2.26,1.16.13.06.27.13.41.2.24.12.5.25.76.36.1.05.18.14.2.25.22,1.31.58,2.63.9,3.79l.15.56c.83,3.06,1.91,6.06,2.96,8.96l.86,2.34c.33.9.66,1.79.98,2.69.06.16-.01.34-.16.41-.14.08-.33.03-.43-.1-.96-1.35-1.99-2.63-2.99-3.87l-.32-.4c-.53-.66-1.05-1.33-1.57-2-1.13-1.45-2.3-2.95-3.56-4.33-1.56-1.71-3.5-3.83-5.99-3.87h0s-.09.03-.13.08c-.02.03-.04.09-.03.13.04.09.03.19,0,.27-.04.08-.11.15-.21.18-1.93.59-3.85,1.9-5.55,3.06l-.79.54c-2.56,1.71-5.2,3.77-8.05,6.3-2.46,2.17-4.89,4.57-7.22,7.13-2.2,2.43-4.1,4.66-5.01,7.53-.02.06.01.13.03.16.05.07.13.12.2.13.16.01.28.13.3.29.02.18.05.36.07.51l.04.29c.16,1.32.49,2.62.81,3.86.71,2.79,1.6,5.55,2.65,8.19,1.14,2.9,2.33,5.36,3.66,7.51.75,1.22,1.59,2.27,2.49,3.14.77.74,1.83,1.75,2.89,1.99.08.01.13-.03.15-.06.04-.08.11-.14.2-.16.09-.03.18-.02.26.02,1.31.7,3.06.67,4.58.6l.72-.04c1.82-.08,3.89-.18,5.48-.89-.01-.01-.09-.04-.1-.05-.13-.08-.17-.21-.13-.35.03-.14-.04-.18-.07-.19-1.78-.78-3.52-2.03-4.98-3.15-.33-.26-.67-.55-1.01-.86-.64-.56-1.3-1.15-2.02-1.52-.13-.06-.2-.21-.18-.35.44-2.97-1.19-6.28-2.5-8.94l-.27-.56c-.32-.65-.65-1.29-.98-1.92-.63-1.22-1.28-2.47-1.82-3.77-.27-.65-.53-1.3-.79-1.95-.06-.16,0-.35.16-.43,2.69-1.32,5.32-3.18,8.56-6.05,1.42-1.26,2.92-2.64,4.23-4.13.14-.15.29-.32.44-.49.6-.65,1.27-1.4,1.72-2.18.12-.21.46-.21.58,0,1.09,1.91,2.82,3.59,4.52,5.12.89.8,1.81,1.58,2.72,2.35,1.73,1.47,3.51,2.98,5.11,4.64.09.1.12.23.07.36-.05.12-.16.2-.29.22-1.46.1-2.87.55-3.79.91-2.4.92-4.7,2.09-5.22,4.35-.01.05-.03.09-.06.12-1.03,1.45-1.3,4.4-1.41,5.66-.27,3.01-.44,6.08.76,8.63.14-.03.36.04.43.17,1.18,2.2,3.32,4.13,5.05,5.69,1.15,1.04,2.4,2.09,3.81,2.79.51.25,2.23,1.02,2.87.28.09-.1.13-.24.01-.37-.16-.18-.41-.34-.78-.51-.09-.04-.16-.12-.18-.22l-.02-.08c-.06-.24-.12-.46-.21-.65-.31-.61-.67-1.34-.96-2.18-.09-.25-.17-.5-.25-.76-.31-.95-.62-1.94-1.29-2.61-.02-.02-.07-.03-.11,0-.09.04-.19.04-.27,0-.09-.04-.16-.11-.19-.2-.43-1.23-.95-2.38-1.49-3.6l-.35-.77c-.28-.63-.52-1.34-.73-2.1-.03-.12,0-.24.09-.32,1.32-1.27,2.51-2.59,3.53-3.91.06-.08.15-.13.25-.13.12.02.19.03.26.1,1.46,1.51,3.52,2.71,5.03,3.59l.12.07c2.21,1.29,4.58,2.55,6.96,3.08.11.02.2.1.24.21.04.11.02.23-.05.32-.29.37-.54.75-.77,1.09-1.13,1.65-1.94,3.55-2.67,5.36-1.66,4.06-2.78,8.44-3.77,12.3-.96,3.75-2.13,7.5-3.26,11.12-1.61,5.18-3.28,10.53-4.38,15.94-.56,2.77-1,5.64-1.31,8.52-.04.4-.1.84-.16,1.29-.17,1.31-.37,2.8-.29,4.15,0,.14-.08.27-.21.32-.13.06-.28.02-.38-.09-.52-.59-1.06-1.17-1.62-1.75l-.25-.26c-1.24-1.29-2.66-2.76-4.37-2.94-.07.07-.08.15-.06.19.56,1.1,1.57,2.07,2.64,3.04.13.12.15.31.04.45-.11.13-.3.17-.44.08-.78-.5-1.83-1.08-3.02-1.22-.02.01-.04.09-.02.13.27.49.62.95,1.09,1.43.08.08.11.2.09.32-.02.09-.08.17-.17.21-.09.05-.21.07-.31.03-.91-.37-1.62-.62-2.31-.82.57,1.11,1.54,1.93,3.01,2.65.05.02.09.06.13.11.33.46.67.91,1.01,1.35.41.54.82,1.08,1.21,1.63,1.3,1.88,2.25,3.34,3.1,4.74l.42.71c.8,1.34,1.64,2.74,2.54,4.05.15.23.31.46.47.69l.13.2s.04.06.05.1c.58,2.29,1.27,4.59,1.95,6.82.63,2.07,1.27,4.21,1.83,6.34.93,3.61,1.53,6.61,1.88,9.45.18,1.47.25,2.97.31,4.41l.02.32c.01.23.02.47.02.72.02.81.03,1.66.24,2.39.03.1.01.2-.05.28-.06.08-.15.13-.25.14-1.05.07-2.03.27-2.93.59,1.3.45,2.66.83,3.96,1.2,2.48.7,5.04,1.42,7.49,2.39,2.62,1.03,5.2,2.23,7.7,3.4,1.13.53,2.27,1.06,3.41,1.57,6.45,2.91,11.24,5.42,15.5,8.15.07.05.12.11.14.2.31,1.18.69,2.38,1.05,3.54.35,1.1.71,2.23,1,3.35.86,3.25,1.57,6.71,2.1,10.3.49,3.3.8,6.87.93,10.61.02.74.04,1.47.05,2.21.02,1.2.05,2.45.12,3.66,0,.06-.01.12-.04.17-.8,1.58-1.75,3.05-2.73,4.54-1.98,3-4.3,5.86-6.91,8.51-3.14,3.19-6.58,5.9-10.23,8.07-2.09,1.24-4.01,2.18-5.88,2.88-.75.28-1.53.51-2.28.74l-.24.07c-.08.02-.16.02-.23-.01-2.22-.95-4.6-1.9-7.11-2.2-1.76-.2-3.58.38-5.44,1.05-.99.36-1.8.68-2.57,1.1-.07.04-.13.08-.2.12l-.1.06s-.1.05-.16.05l-.87.04c-.79.03-1.62.03-2.42.02-1.62-.01-3.3-.03-4.84.27-.06,0-.11,0-.16,0-1.15-.35-2.59-.69-3.59-.31.66.73,1.83,1.25,2.85,1.72.24.11.48.22.7.33,1.72.82,3.16,1.47,4.53,2.02,1.86.76,5.33,2.16,7.79,1.17.09-.03.19-.03.27.01.11.05.23.1.36.14.59.19,1.17.32,1.78.39,1.21.15,2.44.22,3.6.27.08,0,.16.04.22.09.49.46.99.91,1.48,1.34l.26.23c1.65,1.47,2.98,2.49,4.31,3.33,1.67,1.05,3.36,1.79,5.01,2.19,1.16.28,2.38.43,3.57.58.59.07,1.18.15,1.76.24l1.7.26c4.35.67,8.84,1.38,13.18,1.02.17.02.31.09.35.25.04.15-.03.32-.18.39-2.47,1.19-4.58,1.93-6.65,2.35-1.08.22-2.23.33-3.35.44-2.66.26-5.42.54-7.5,2.26-.97.8-1.74,1.82-2.48,2.82-1.07,1.43-2.19,2.91-3.93,3.81-2.78,1.42-6.09,1.27-9.28,1.13-1.26-.05-2.44-.11-3.58-.06-.59.02-1.05.47-1.05,1.04,0,1.6-.23,3.18-.46,4.71-.38,2.54-.74,4.94-.11,7.44.14.56.65.76,1.05.76h0c.39,0,.9-.2,1.03-.75,1.04-4.23,4.49-6.83,8.5-6.55.83.06,1.67.19,2.48.32,2.23.35,4.34.67,6.42-.27,1.3-.59,2.37-1.48,3.51-2.42.38-.31.75-.62,1.13-.92,1.67-1.32,3.44-2.35,5.24-3.08,3.32-1.34,7.13-1.81,12.01-1.48,1.32.09,2.65.29,3.94.47,3.05.45,5.94.87,8.88.07,2.06-.56,4.11-1.37,6.09-2.14.52-.21,1.03-.41,1.55-.61.76-.29,1.53-.57,2.29-.85,1.46-.53,2.98-1.08,4.41-1.73.45-.2.89-.43,1.34-.65,1.22-.61,2.47-1.25,3.82-1.45.18-.03.36-.04.53-.04,2.03,0,3.35,1.8,4.33,3.13,1.19,1.62,2.18,3.43,3.14,5.17,1.21,2.21,2.47,4.49,4.12,6.38,2.5,2.88,6.18,4.42,9.74,5.92.65.27,1.26.52,1.86.76,3.33,1.36,6.77,2.76,9.56,5.1.52.43,1.07.29,1.39-.04.28-.29.45-.81-.01-1.32-1.41-1.6-3.04-3.12-4.62-4.59-3.31-3.09-6.74-6.28-8.56-10.54-.96-2.24-1.5-4.63-2.01-6.95-.63-2.84-1.29-5.78-2.74-8.35-.06-.1-.06-.23,0-.33.06-.1.17-.16.28-.17,4.18-.07,7.85.26,11.25,1,4.09.88,8.1,2.49,12.63,5.07,1.85,1.05,3.71,2.18,5.51,3.27,5.61,3.4,11.42,6.92,17.87,8.68.68.18.99-.24,1.08-.43.2-.42.15-1.04-.34-1.42-2.78-2.1-3.82-5.58-4.73-8.64l-.02-.08c-.51-1.72-1.03-3.4-1.72-4.96-.06-.13-.03-.28.08-.38.1-.1.25-.12.38-.06.98.49,1.94,1,2.9,1.51,1.01.54,2.02,1.08,3.05,1.59.37.18.92.09,1.25-.21.17-.16.34-.43.19-.83-.22-.57-.34-1.15-.41-1.59-.02-.11.02-.23.11-.31.08-.08.2-.1.32-.07,2.8.86,5.38,2.34,7.89,3.77.71.41,1.43.81,2.14,1.21,3.3,1.81,6.85,3.28,10.29,4.72.75.31,1.49.62,2.24.93,5.11,2.15,9.36,3.74,13.39,4.99,1.69.52,3.28,1.26,4.83,1.97,1.6.74,3.26,1.5,5,2.01.31.09.64.18.98.28,2.7.74,6.07,1.67,6.85,4.7.11.43.47.49.75.43.24-.06.62-.3.5-.78l-.09-.36c-.76-3.08-1.55-6.27-3.14-9.02-1.53-2.65-3.85-4.63-6.9-5.91-.83-.34-1.66-.67-2.5-1-2.53-1-5.15-2.02-7.51-3.57-2.54-1.66-4.7-3.88-6.59-6.8-.07-.1-.07-.23-.02-.34.06-.1.17-.17.28-.18,2.57-.11,5.13-.2,7.7-.29,5.87-.2,11.94-.41,17.89-.93,5.27-.46,10.71-.94,15.98-.09l.25.04c1.57.24,4.49.7,4.97,2.59.03.17.05.31.07.45.04.34.36.41.46.4.12,0,.32-.06.32-.36,0-.47-.09-.92-.27-1.32-.13-.47-.27-.88-.41-1.3l-.06-.19c-.03-.1-.02-.22.05-.3.03-.05.06-.13.03-.17-.6-1-1.75-1.78-2.76-2.47-.2-.14-.4-.27-.58-.4-1.45-1.02-3.07-1.84-4.64-2.63-2.18-1.1-4.74-2.27-7.58-2.79-.09-.01-.16-.07-.22-.14-.05-.07-.07-.17-.05-.25.02-.09,0-.17-.02-.21,0-.01-.02-.03-.08-.04-1.27-.19-2.86.23-4.26.61-.44.12-.87.23-1.27.32-2.16.49-4.28.86-6.32,1.09-2.16.25-4.29.4-6.27.52-.41.02-.85.04-1.29.05-.52.02-1.06.04-1.6.07-.08,0-.14-.02-.21-.05-.01,0-.06-.05-.07-.06-2.74-1.98-5.68-3.75-8.52-5.47-1.47-.89-2.99-1.8-4.46-2.74-5.27-3.34-9.11-6.14-12.46-9.08-3.58-3.16-6.69-6.7-9.48-10.82-1.32-1.94-2.59-3.95-3.82-5.9l-.9-1.42c-.09-.14-.06-.32.06-.43.12-.11.31-.11.44,0,1.37,1.12,2.92,1.82,4.35,1.98.04,0,.08.02.12.03.17.09.34.18.52.26.09.04.2,0,.25-.06.03-.03.04-.06,0-.13-.74-1.17-1.68-2.27-2.6-3.33-.33-.39-.66-.77-.98-1.15-1.55-1.87-2.96-3.83-4.01-5.33-2.35-3.34-4.66-7.1-7.05-11.5-4.37-8.02-7.84-16.49-11.3-25.19-.62-1.55-1.21-3.16-1.78-4.71-.31-.84-.62-1.69-.94-2.53-.06-.16,0-.33.15-.41.15-.08.33-.04.43.1.77,1.04,1.55,2.03,2.33,2.95l-.09-.2c-.06-.15-.01-.32.12-.41s.31-.07.42.04c.13,0,.18-.09.17-.17-.39-2.74-1.72-5.29-2.99-7.76-.34-.66-.69-1.33-1.01-1.99-1.56-3.19-3.16-6.62-4.34-10.14-1.01-3.02-1.61-6.28-1.85-9.95,0-.03,0-.07,0-.1.52-2.2,1.22-4.37,1.9-6.47.26-.8.51-1.6.77-2.41.01-.03-.02-.08-.05-.11-.01,0-.06-.04-.09-.03-.11.06-.23.06-.34,0-.1-.06-.16-.18-.16-.3.01-.22.02-.44.02-.65l.02-.56c.06-1.23.12-2.77.26-4.24.26-2.91.74-5.81,1.43-8.6.73-2.94,1.66-5.54,2.85-7.96.69-1.39,1.49-2.68,2.12-3.64.16-.25.33-.5.5-.76.49-.73.99-1.47,1.35-2.24.04-.08.11-.15.2-.18,1.43-.47,2.62-.84,3.75-1.16,2.84-.8,5.76-1.44,8.58-2.05l3.35-.73c3.03-.66,6.17-1.35,9.22-2.14l.3-.08c.06-.02.11-.01.17,0,.15.04.23.06.32.09,1.76.59,3.37,1.64,4.72,2.59.56.4,1.11.84,1.64,1.27.78.63,1.58,1.28,2.44,1.78.52.31,1.33.48,1.71.26.06-.04.25-.15.24-.6-.02-.44-.29-.9-.84-1.42-.07-.06-.1-.15-.1-.24,0-.09.03-.18.1-.25.49-.64.53-1.57.13-2.72-.04-.1-.02-.22.04-.31.06-.09.16-.16.28-.14h.01c.08,0,.16-.02.22-.04.1-.04.22-.04.31.02,1.22.73,2.06,1,2.48.83.06-.03.26-.11.35-.5.12-.5-.18-1.03-.89-1.57-.11-.08-.16-.23-.12-.37,1.21-4.07,2.66-7.77,4.41-11.31,1.59-3.2,3.39-6.35,5.13-9.4l1.22-2.14c2.6-4.59,4.73-8.03,6.9-11.17,1.16-1.69,2.43-3.32,3.67-4.9l.82-1.05c1.07-1.36,2.28-2.9,2.89-4.47-.1-.14-.11-.41.02-.53.45-.39.9-.79,1.33-1.19.76-.7,1.5-1.41,2.25-2.13,1.83-1.75,3.72-3.57,5.79-5.13,2.06-1.56,4.25-3.02,6.37-4.43,1.09-.73,2.19-1.46,3.27-2.21l.4-.27c1.39-.95,2.82-1.94,4.1-3.06,1.42-1.23,2.42-2.67,3.39-4.07.76-.9,1.44-1.78,2.26-2.83.53-.7,1.12-1.37,1.69-2.01.86-.98,1.74-2,2.45-3.1.07-.11.22-.17.33-.15,1.21.2,2.41.37,3.63.54,2.36.33,4.79.68,7.18,1.2,1.61.36,3.22.75,4.83,1.14l1.78.43c.14.03.24.15.25.29.11.96.31,1.94.49,2.89.15.78.3,1.56.41,2.32.36,2.52.59,5.26.72,8.62.11,2.89.17,5.72.19,8.4,0,1.38.08,2.78.22,4.15l.04.4c.04.36.07.74.13,1.09.01.08,0,.16-.04.23-.27.46-.52.95-.77,1.43-.17.33-.34.66-.51.98-.61,1.12-1.32,2.21-2,3.26l-.19.28c-.48.74-1,1.46-1.51,2.15-.26.36-.52.72-.77,1.08l-.22.3c-.41.55-.83,1.13-1,1.73-.02.05-.04.1-.08.14-.57.58-1.06,1.2-1.47,1.82,0,0,.06.06.06.06,2.48-.76,4.7-2.2,7.13-3.86l.2-.14c1.03-.7,2.09-1.43,3.08-2.2.43-.34.98-.79,1.48-1.29.2-.2.34-.43.49-.66,1.28-1.37,1.6-3.58,1.88-5.53.07-.46.13-.91.21-1.31.14-.8.29-1.6.44-2.4.34-1.84.7-3.73.95-5.61-.14-.06-.22-.23-.19-.38.19-1.04.28-2.09.35-3.06l.03-.37c.15-2.18.3-4.43.36-6.66.07-2.35.11-4.65-.16-6.89-.21-1.75-.46-3.44-1.3-4.84-.05-.08-.06-.18-.03-.26.07-.24,0-.51-.17-.71-.81-.94-2.44-1.24-3.87-1.5-.55-.1-1.07-.2-1.54-.32-2.2-.6-4.48-1.34-6.77-2.19-2.02-.76-4.13-1.63-6.44-2.66-.18-.08-.37-.16-.56-.25-.14-.06-.21-.21-.19-.36.02-.14.15-.26.3-.28,3.54-.36,6.98-.77,10.18-1.88l.37-.12c.81-.26,2.02-.66,2.62-1.29.06-.06.15-.1.24-.1s.18.04.24.11c1.51,1.6,3.2,3,4.66,4.15,2.57,2.04,4.81,3.59,7.07,4.89.93.54,1.88,1.05,2.83,1.57,1.31.72,2.66,1.45,3.96,2.24,1.13.68,2.32,1.44,3.43,2.33.21.17.42.35.63.53.3.26.61.53.93.76.08.05.12.14.13.23.37,3.32.52,6.71.67,9.98.07,1.47.13,2.94.22,4.42.15,2.62.38,5.43,1,8.21.3,1.35.77,2.63,1.4,3.79l.06.11c.33.61.7,1.3,1.17,1.84.07.08.09.18.08.28l-.04.24c-.09.51-.18,1.02-.27,1.52-.15.76-.35,1.54-.55,2.3-.46,1.81-.94,3.69-.85,5.49,0,.05.06.12.13.14.82-.97,1.39-2.19,1.84-3.83.02-.07.06-.13.11-.17,1.24-1.01,2.01-2.68,2.64-4.17.5-1.18.82-2.21.98-3.15.37-1.06.22-2.18.06-3.26l-.05-.3c-.2-1.45-.36-2.97-.48-4.51-.15-1.95-.23-3.94-.31-5.86-.04-.95-.08-1.91-.13-2.86-.16-3.11-.39-5.85-.72-8.36l-.06-.49c-.28-2.18-.66-5.16-2.16-6.73-.18.06-.43-.05-.49-.22-.02-.05-.03-.08-.05-.11-.5-.76-1.35-1.18-2.26-1.62-.43-.21-.88-.43-1.27-.68-1.56-1-2.96-2.23-4.24-3.41-.87-.79-1.71-1.61-2.56-2.42-1.56-1.5-3.18-3.06-4.89-4.45-1.13-.92-2.24-1.92-3.3-2.88-1.3-1.17-2.64-2.38-4.04-3.47l-.2-.15c-1.15-.89-2.34-1.81-3.7-2.24-.14-.05-.52-.14-.9-.18-.04,0-.07-.01-.1-.03-.05-.02-.08-.03-.1-.03-1.28-.17-2.59.44-3.87,1.02-.51.23-1,.45-1.49.63-1.75.63-3.66,1.22-6.02,1.84l-.1.02c-1.64.43-3.27.86-4.9,1.32-.15.04-.3-.02-.37-.14-.08-.13-.07-.28.03-.4.71-.84,1.4-1.71,2.05-2.59,1.29-1.74,2.48-3.5,3.53-5.23l.3-.49c.61-.99,1.25-2,1.61-3.08.06-.16.24-.26.39-.22,3.73.88,7.94.49,11.67.15l.73-.07c.77-.07,1.54-.13,2.31-.2,1.77-.15,3.54-.31,5.3-.5.52-.06,1.04-.11,1.55-.18.1-.01.2.02.28.09.86.85,1.86,1.6,2.81,2.3,2.05,1.49,4.11,2.86,6.14,4.07,1.32.78,2.65,1.55,3.98,2.32.81.47,1.62.94,2.43,1.41.34.2.7.43,1.08.67,1.2.78,2.57,1.66,3.86,1.78.18.02.31.17.31.35-.08,1.48.18,3.07.42,4.47l.1.65c.07.42.13.84.19,1.27.36,2.42.73,4.93,2.03,6.94.03.04.12.07.15.05.31-.71.48-1.45.53-2.29,0-.07.03-.13.07-.19.58-.73.76-1.98.89-2.88l.12-.79c.19-1.31.39-2.67.52-4,.14-1.54.25-3.05,0-4.52Z"/>
    </clipPath>
    <clipPath id="clippath-2">
      <path class="cls-1" d="M151.53,301.8c.1-.1.24-.13.39-.08.11.04.23.16.25.28,1.6,7.15,4.12,14.26,7.48,21.14,1.71,3.51,3.65,6.88,5.75,10.03,1.47,2.2,3.19,4.24,4.84,6.2.69.82,1.38,1.64,2.07,2.48.2.25.19.59-.03.81-.11.11-.26.17-.41.17-.14,0-.28-.05-.39-.14-2.73-2.26-4.92-5.37-7.1-8.62-2.06-3.07-3.96-6.47-5.81-10.36-3.31-7-5.72-14.25-7.16-21.53-.02-.12.03-.29.12-.37ZM172.26,334.61c.21-.08.45,0,.54.2,1.91,4.09,4.86,6.88,7.76,9.29.19.16.23.43.08.63-.1.14-.26.22-.42.22-.08,0-.16-.02-.24-.06-4.39-2.42-6.86-7.16-7.94-9.76-.09-.2,0-.43.22-.52ZM180.45,340.78c.19-.19.49-.2.69,0l.07.07c1.52,1.52,3.1,3.09,4.86,4.36.2.15.25.43.11.64-.09.13-.23.2-.37.2-.08,0-.17-.02-.24-.07-1.81-1.18-3.35-2.72-4.83-4.21l-.3-.3c-.19-.19-.19-.49,0-.68ZM142.25,113.86c-.11.18-.29.28-.49.28-.09,0-.18-.02-.27-.06-.27-.13-.39-.42-.28-.69,1.81-4.69,4.6-9.17,7.3-13.36,8.07-12.52,18.22-23.68,28.04-34.49,2.25-2.48,4.51-4.96,6.73-7.45.12-.14.41-.15.55-.03.17.14.19.39.04.56-3.17,3.72-6.42,7.48-9.95,11.49-5.79,6.59-11.91,13.64-17.5,21.06-2.87,3.81-5.35,7.41-7.58,10.99-1.48,2.36-2.83,4.84-4.13,7.25-.8,1.46-1.62,2.98-2.46,4.45ZM187.25,91.44c.2-.13.46-.07.6.13.14.21.09.48-.11.63-1.71,1.24-3.48,2.46-5.19,3.64-6.64,4.59-13.51,9.34-18.73,15.78-.08.1-.2.15-.31.15-.09,0-.18-.03-.25-.09-.18-.15-.21-.42-.07-.6,6.34-8.14,15.31-14.25,24.07-19.64ZM150.58,108.23h0c-.09.18-.26.28-.44.28-.07,0-.14-.01-.21-.04-.25-.11-.38-.38-.3-.63,1.57-4.73,4.41-8.99,6.99-12.54,2.47-3.39,5.45-6.89,9.38-11.02.15-.16.41-.17.57-.02.17.15.18.41.03.57-7.16,8.18-12.25,15.62-16.02,23.39ZM165.99,138.4s0,0,0,0c.14-.17.39-.18.56-.04.17.15.2.41.05.58-6.81,8.32-11.86,17.76-15.51,25.05-.08.16-.24.26-.4.26-.07,0-.13-.01-.2-.05-.24-.11-.34-.39-.24-.63,4.06-9.25,9.5-17.95,15.73-25.17ZM136.08,163.32c-.06.62-.11,1.25-.18,1.85-.34,2.84-.75,5.32-1.26,7.56-.56,2.47-1.29,4.8-2.17,6.93-.24.58-.51,1.16-.78,1.69-.03.07-.09.13-.17.16-.31.13-.61.26-.91.37-1.9.66-4.06,1.13-6.42,1.41-1.57.18-3.26.27-5.04.27-.47,0-.96,0-1.44-.02-.55-.02-1.11-.06-1.67-.11l-.39-.03c-.14-.01-.26-.11-.3-.25-.03-.14.02-.29.15-.36,1.56-.97,3.01-2.18,4.25-3.23,2.49-2.11,4.67-4.14,6.68-6.2,1.8-1.85,3.68-3.95,5.9-6.61.97-1.16,1.8-2.28,2.54-3.42.2-.3.42-.61.64-.92.09-.12.25-.16.39-.12.14.05.23.19.22.34l-.06.69ZM133.74,286.34c-.13.08-.3.07-.41-.04-1.31-1.27-2.48-2.46-3.56-3.64-.77-.84-1.48-1.74-2.17-2.61-.28-.36-.56-.71-.85-1.07-.02-.03-.04-.06-.05-.09-.09-.24-.16-.41-.24-.58-.1,0-.28-.04-.36-.12l-.03-.04c.03.33.07.65.14,1,0,.04.01.07,0,.11-.51,4.56.3,9.57,1.02,13.99l.02.12c.52,3.14,1.27,5.78,2.31,8.06.07.15.01.34-.14.43-.05.03-.11.05-.17.05-.1,0-.21-.05-.27-.14-1.15-1.58-2.31-3.34-3.64-5.54-1.01-1.66-1.98-3.38-2.93-5.05-1.82-3.2-3.7-6.51-5.85-9.54-.03-.04-.05-.08-.06-.13-.16-.76-.41-1.71-.93-2.49-.21,1.22-.06,2.56.08,3.86.03.27.06.55.08.81.12,1.27.3,2.65.54,4.21.03.16-.07.32-.23.37-.16.05-.33-.02-.4-.17-.39-.78-.78-1.57-1.17-2.35-1.38-2.77-2.81-5.63-4-8.55-.47-1.14-.9-2.29-1.34-3.44-1.22-3.2-2.48-6.51-4.29-9.46-.03-.06-.05-.11-.05-.18,0-.25-.01-.51-.03-.77,0-.06-.07-.13-.13-.14-.09.09-.28.16-.4.12l.02.13c.02.09,0,.19-.05.26-.93,1.39-1.22,3.24-1.41,4.87-.25,2.05-.22,4.29.08,7.05.15,1.37.38,2.83.7,4.45.03.16-.06.33-.22.38-.15.06-.33-.01-.41-.17-.79-1.59-1.57-3.17-2.35-4.76-.78-1.59-1.56-3.18-2.35-4.77-.02-.04-.03-.07-.03-.11-.2-1.76-.68-3.04-1.52-4.05-.09,1.98.07,3.98.23,5.91v.12c.02.17-.09.32-.25.36-.17.04-.33-.05-.39-.21-2.7-7.24-5.48-14.72-7.05-22.64-2.19-11.06-2.02-21.75.51-31.77.95-3.76,2.27-7.35,3.45-10.35.06-.15.22-.24.38-.21.16.04.27.18.26.34-.2,4.12.09,8.57.92,14.45.84,5.91,2.12,12.75,5.25,18.73.02.04.03.07.04.12.02.2.05.4.07.6.09-.05.19-.04.28,0,.05.02.13,0,.14-.02-.06-.66-.14-1.3-.22-1.94,0-.03,0-.07,0-.1.15-.83.3-1.66.44-2.5.03-.16.16-.28.33-.28s.3.12.33.28c.17.97.36,1.93.55,2.89l.06.28c.26,1.29.56,2.52,1.32,3.49h0s.02-.02.03-.03c.18-.47.25-.95.26-1.49.51-2.3.9-4.59,1.27-6.8.24-1.42.48-2.83.75-4.25.34-1.76.8-3.5,1.41-5.32.05-.15.22-.24.36-.23.16.03.28.16.29.32.06,1.7.28,3.41.46,4.7.33,2.36.86,4.66,1.46,7.21l.11.48c.43,1.84.97,4.13,2.3,5.38.05.04.08.03.09.03.03,0,.08-.04.11-.11.3-.75.36-1.72.19-2.95,0-.03,0-.07,0-.1l.27-1.63c.39-2.4.79-4.88,1.33-7.29.39-1.73.91-3.44,1.42-5.11l.27-.9c.05-.16.22-.26.38-.23.17.03.28.17.28.34-.06,1.4-.06,2.85-.02,4.32.1,3.43.37,7.39,1.65,10.81.18.48.65.66,1.05.58.18-.04.6-.18.59-.77-.07-4.68,1.43-9.21,2.74-12.63.85-2.2,1.72-4.21,2.67-6.14.16-.32.34-.64.53-.97.08-.14.26-.2.41-.14.15.05.24.21.22.37-.75,4.07-.73,8.43-.61,12.15.11,3.36.42,6.76.92,10.11.24,1.61.53,3.19.86,4.69l.08.39c.26,1.2.58,2.69,1.32,3.57.09,0,.22.01.29.06.07.06.15.14.17.24l.08.04c.29-1.76.69-3.61,1.2-5.65.04-.17.21-.27.38-.25.17.03.3.18.28.35-.4,5.36-.46,11.06-.21,17.42.25,6.04.55,13.55,2.55,20.27.1.32.19.62.28.92.05.15-.01.31-.14.39ZM126.11,352.45h0c-.09.23-.3.37-.53.37-.06,0-.11,0-.16-.03-.29-.08-.44-.36-.38-.66.39-1.73.87-3.44,1.33-5.09,1.03-3.68,2.01-7.15,2.13-10.96.01-.24.2-.41.43-.41h.01c.23,0,.41.19.41.42.07,4.99-1.02,10.5-3.24,16.35ZM93.02,347.05c-1.23,1.24-2.57,2.4-3.87,3.52-.58.5-1.16,1-1.73,1.51-.09.08-.21.13-.32.13-.13,0-.25-.05-.35-.15-.19-.19-.19-.48-.01-.67,1.01-1.1,2.16-2.07,3.27-3,.78-.65,1.58-1.33,2.32-2.04.2-.18.5-.18.7.02s.19.49,0,.68ZM86.27,348.74c-.19-.14-.24-.39-.13-.59,1.4-2.61,3.36-5.11,5.09-7.31.14-.18.4-.21.59-.07.19.14.24.4.11.59-.56.81-1.09,1.68-1.6,2.53-1.02,1.68-2.07,3.42-3.45,4.81-.09.09-.21.13-.33.13-.1,0-.19-.03-.27-.09ZM85.44,344.5c-.12,0-.24-.04-.35-.12-.25-.18-.32-.51-.16-.76.34-.57.69-1.14,1.04-1.7,1.03-1.67,2-3.25,2.77-5.01.93-2.12,1.67-4.48,2.19-7.01,1.05-5.06,1.27-10.2,1.35-14.99,0-.18.2-.39.4-.39.22,0,.39.17.4.38.09,5.58.08,10.6-.92,15.5-.84,4.11-2.61,9.86-6.3,13.91-.11.13-.26.19-.41.19ZM88.18,63.52c.23,0,.43.15.45.39h0c.24,3.72.71,7.53,1.16,11.21.88,7.13,1.79,14.51,1.12,21.75-.02.25-.23.44-.48.44h-.02c-.25-.01-.44-.21-.44-.46,0-5.85-.26-11.22-.79-16.42l-.15-1.42c-.51-4.93-1.04-10.02-1.24-15.05-.01-.23.16-.41.39-.43ZM95.63,160.36c1.77-3.65,4.01-7.07,6.17-10.38.08-.13.26-.2.4-.16.15.05.25.17.24.32-.09,1.31-.19,2.62-.3,3.93-.37,4.55-.75,9.25-.16,13.91.4,3.16.93,6.33,1.44,9.32l.45,2.64c.02.13-.03.26-.14.33-.06.04-.12.06-.19.06-.06,0-.12-.02-.17-.05-.77-.46-1.59-.9-2.38-1.32-.72-.38-1.44-.76-2.14-1.18-1.51-.89-2.69-1.68-3.73-2.49-.34-.26-.67-.56-1-.86-.31-.28-.63-.57-.97-.83-.06-.05-.1-.11-.12-.19-1.12-4.58.95-9.65,2.6-13.06ZM93.62,99.15c.14-1.86.29-3.78.33-5.66h0c0-.22.18-.39.4-.39.17,0,.4.21.4.39.05,3.84-.15,7.76-.35,11.54l-.12,2.42c-.01.26-.22.46-.48.46s-.47-.2-.48-.46c-.11-2.78.1-5.58.31-8.3ZM126.88,131.78c.11-.21.34-.29.55-.18.21.1.3.35.21.57-2.45,5.21-4.44,10.69-6.36,15.98-.95,2.63-1.94,5.35-2.97,8-.09.23-.3.37-.54.37-.06,0-.13,0-.19-.03-.29-.1-.44-.38-.35-.68,2.25-8.01,5.49-16.1,9.65-24.03ZM124.44,69.14c1.01-4.51,2.06-9.18,2.85-13.81,1.4-8.25,1.99-16.38,1.79-24.84,0-.22.16-.41.38-.42.24-.02.42.15.44.38.73,7.07.37,14.91-1.14,24.66-1.3,8.41-3.12,16.68-5.42,24.6-.08.25-.28.41-.53.41-.05,0-.09,0-.14-.02-.3-.07-.49-.36-.43-.67.67-3.45,1.45-6.92,2.2-10.29ZM130.43,69.05h0s-.59,2.25-.59,2.25c-1.89,7.24-3.85,14.72-6.61,21.8-.07.19-.25.3-.44.3-.05,0-.11-.01-.16-.03-.23-.08-.35-.33-.27-.57,1.59-4.94,3.11-10,4.57-14.89.91-3.02,1.81-6.05,2.74-9.06.06-.21.26-.33.48-.27.18.05.32.3.28.48ZM318.09,101.49c-.12-.7-.28-1.25-.49-1.69-.08-.15-.16-.29-.28-.44-.08-.1-.1-.24-.04-.36.24-.45-.49-1.21-2.16-2.25l-.2-.13c-.96-.62-1.99-1.19-2.99-1.74-.91-.5-1.85-1.02-2.74-1.58-1.65-1.03-3.38-2.23-5.46-3.77-.66-.49-1.33-.98-1.99-1.47-1.32-.98-2.64-1.96-3.98-2.93l-.63-.46c-1.55-1.15-3.31-2.46-5.16-2.62-.06.01-.19,0-.25-.03-1.35-.63-2.99-.43-4.57-.24-.4.05-.78.1-1.15.13l-.2.02c-2.04.18-4.15.37-6.24.49-2.29.13-4.41.19-6.45.16-.39,0-.79-.02-1.2-.03-1.64-.06-3.36-.13-4.77.54-.04.02-.08.05-.12.08-.03.03-.07.06-.12.07-3.11,1.13-5.13,4.42-6.9,7.32-.26.42-.51.83-.76,1.23l-.07.12c-1.21,1.93-2.47,3.91-3.99,5.66-.69.8-1.45,1.55-2.3,2.3-.38.33-.78.63-1.17.91l-.28.2c-.09.07-.21.09-.31.05-.1-.04-.19-.13-.21-.24-.18-.77-.52-1.57-.79-2.21l-.04-.09c-.63-1.48-1.53-3.1-2.76-4.94-1.05-1.56-2.14-3-3.26-4.26-.97-1.11-2.08-2.36-3.64-2.54-.06,0-.13.01-.21.04-.08.03-.16.04-.24,0-1.06-.37-2.26-.4-3.41-.43h-.13c-1.86-.05-3.76.22-5.54.53-2.01.34-3.74.75-5.3,1.27l-.3.1c-.89.29-1.8.59-2.47,1.13-.07.06-.17.09-.26.07-.09-.02-.18-.07-.23-.15-.04-.06-.13-.1-.17-.1h-.01c-.48,1.11-.75,2.33-1.02,3.52-.1.47-.21.93-.32,1.39-.44,1.74-1.03,3.57-1.75,5.42-.69,1.78-1.51,3.47-2.29,5.05-.08.15-.16.31-.24.48-.59,1.15-1.34,2.59-.79,3.65.03.06.13.14.2.11.13-.02.37.08.41.24.51,1.85,2.11,3.32,3.36,4.23,1,.72,2.19,1.4,3.55,2.01l.24.11c.97.44,2.29,1.05,3.3.96.12-.01.24-.08.3-.17.04-.05.04-.1.02-.15-.24-.63-.73-1.2-1.51-1.77-.07-.05-.12-.13-.14-.22l-.04-.3c-.07-.49-.13-.95-.31-1.43l-.09-.25c-.3-.84-.61-1.71-.87-2.58-.25-.81-.36-1.64-.46-2.41-.01-.1.02-.2.09-.27.23-.24.43-.47.61-.71.93-1.22,1.65-2.52,2.42-3.9l.05-.09c.39-.7.79-1.4,1.19-2.09.32-.57.65-1.14.98-1.71.08-.15.28-.21.43-.14.68.33,1.5.53,2.3.73.56.14,1.08.27,1.52.43,2.24.83,4.33,1.87,6.21,3.09,2.06,1.33,3.73,2.75,5.11,4.32.52.58.99,1.22,1.46,1.83l.05.07c.09.11.09.27.01.39-1.31,2-1.86,4.53-2.4,6.97-.12.53-.23,1.05-.35,1.55-.86,3.6-1.7,6.84-3.38,9.99-.03.05-.06.09-.1.12-.32.23-.64.47-.94.7-.21.16-.41.32-.61.47-.81.6-1.61,1.25-2.37,1.89-.34.28-.68.56-1.02.84-.89.72-1.79,1.42-2.7,2.13-1.39,1.08-2.82,2.19-4.17,3.35-1.61,1.38-3.12,2.91-4.58,4.4-.38.38-.75.77-1.13,1.15-1,1-2.03,1.98-3.09,2.9-.21.19-.44.38-.67.57-.6.5-1.22,1.01-1.69,1.6-.03.03-.06.06-.1.08-1.21.69-2.36,1.93-3.28,2.94l-.14.15c-1.2,1.29-2.37,2.74-3.58,4.46-1.4,1.98-2.75,4.04-4.06,6.03-.88,1.34-1.76,2.67-2.66,4-1.72,2.53-3.63,4.98-5.49,7.35-.7.9-1.4,1.8-2.09,2.7-1.06,1.39-2.45,3.23-3.77,5.16l-.32.47c-.44.64-.94,1.36-1.35,2.12-.04.07-.09.12-.16.15-1.06.45-2.12.98-3.15,1.49-1.03.51-2.1,1.03-3.16,1.49-3,1.28-6.25,2.37-9.67,3.26-3.2.83-6.5,1.45-9.81,1.85-1.48.18-3.24.39-4.98.51-.27.02-.56.04-.85.06-.57.03-1.16.06-1.73.14-.12.01-.23-.03-.31-.12-.07-.09-.1-.21-.06-.32.06-.17.11-.34.15-.52.03-.13-.04-.24-.12-.29-.08-.05-.16-.05-.23,0-1.5.92-2.69,2.52-3.84,4.05-.34.46-.68.91-1.01,1.32-1.86,2.32-3.25,4.25-4.39,6.07-.69,1.11-1.33,2.27-1.9,3.45-.07.15-.24.22-.39.18-.16-.05-.26-.2-.24-.36.22-1.77.48-3.57.79-5.51.93-5.77,2.6-11.57,4.95-17.25,5.19-12.52,13.43-23.49,19.17-30.66,2.22-2.78,4.44-5.44,6.31-7.68.52-.62,1.05-1.24,1.57-1.86,1.61-1.88,3.26-3.83,4.65-5.91-.07-.03-.15-.1-.18-.17-.05-.11-.16-.2-.3-.25-.33-.14-.64-.45-.84-.86-.06-.12-.05-.25.03-.35-.09,0-.19-.13-.25-.2-.05-.06-.15-.06-.16-.06-.09,0-.17.05-.21.11-.05.08-.14.14-.23.15,0,0-.14.03-.14.03-.14.02-.28-.03-.35-.15-.07-.12-.07-.27.02-.38.64-.83,1.17-1.6,1.63-2.35.11-.12.16-.2.19-.3,0-.01.04-.09.04-.09l.04-.07c.09-.15.18-.31.27-.47-.09-.07-.15-.23-.13-.34.12-.74.14-1.51.15-2.17,0-.08.03-.15.08-.21.18-.21.3-.42.38-.64,0-.02-.05-.06-.11-.06-1.09-.13-2.61.71-3.82,1.4l-.36.2c-.13.07-.3.05-.4-.06-.1-.11-.13-.27-.05-.4.43-.75.87-1.57,1.3-2.44l.23-.46c1.28-2.55,2.61-5.19,3.4-7.97-.07.02-.14.02-.21,0-.13-.04-.21-.15-.23-.28,0-.05-.04-.1-.1-.14-.07-.04-.14-.06-.2-.05-.62.16-1.19.57-1.74.98-.17.12-.34.25-.51.36-.84.57-1.67,1.16-2.5,1.74-1.51,1.06-3.29,2.3-5.11,3.51l-.56.37c-3.06,2.03-6.24,4.14-9.1,6.52-1,.83-2,1.76-3.05,2.84-.13.13-.33.14-.46.02-.13-.12-.15-.31-.04-.46,9.2-11.75,20.97-21.61,32.32-30.51,1.61-1.26,3.28-2.51,4.9-3.71,3.56-2.65,7.24-5.4,10.48-8.47.09-.09.23-.12.36-.07.25.08.55-.03.64-.21.5-1.01-.37-2.43-1.08-3.58-.19-.31-.37-.61-.52-.87-.91-1.69-1.77-3.36-2.34-5.11-.04-.12,0-.25.08-.34-.09,0-.18-.03-.24-.1-.03-.04-.09-.06-.15-.06,0,0-.07,0-.1.04-.06.07-.15.12-.24.12-.65.03-1.37.17-2.13.43-.14.05-.3,0-.39-.13l-.08-.13c-.19-.28-.37-.55-.55-.84-.18-.3-.36-.63-.54-.96-.28-.51-.56-1.04-.9-1.5-.1-.13-.08-.31.03-.43.15-.15.29-.32.43-.49.05-.07.06-.22.01-.31-2.9.35-5.55,2.03-8.11,3.66-.51.33-1.02.65-1.52.95-3.71,2.27-7.01,4.46-10.06,6.7-2.75,2.01-5.15,3.93-7.35,5.85-.13.11-.32.11-.44,0-.12-.11-.15-.3-.05-.44,3.55-5.19,6.68-9.4,9.84-13.24,3.89-4.74,8.2-9.5,12.83-14.13,1.78-1.79,3.56-3.64,5.28-5.43,2.83-2.96,5.76-6.01,8.8-8.85,2.67-2.5,5.31-4.68,8.08-6.69l.23-.17c2.24-1.62,4.37-3.15,5.98-5.3.08-.11.23-.16.34-.13.22.05.42,0,.58-.13.11-.08.23-.23.23-.48,0-.95-.68-1.94-1.24-2.75-.26-.38-.55-.75-.9-1.17-.06-.07-.09-.16-.08-.26.01-.09.06-.18.14-.23.15-.11.2-.31.15-.44-.02-.07-.07-.16-.25-.13-.2,0-.41.02-.61.04h-.11c-.06.03-.2-.02-.27-.1l-.17-.18c-.07-.07-.11-.06-.12-.06-.06.01-.13.08-.16.18-.03.14-.15.24-.29.25-4.4.5-8.54,2.08-12.01,3.57-4.5,1.93-9.01,4.32-13.43,7.11-8.83,5.58-16.73,12.33-23.47,20.07-1.33,1.52-2.6,3.09-3.8,4.66-.11.14-.3.17-.45.08-.15-.1-.19-.29-.11-.44.75-1.36,1.6-2.79,2.74-4.63l1.23-1.98c2.18-3.55,4.44-7.22,7.05-10.6,6.14-7.98,13.29-15.05,22.14-23.21,1.68-1.55,3.43-3.09,5.12-4.57,2.57-2.26,5.23-4.6,7.71-7.04.11-.11.28-.13.42-.04.16.1.35.04.46-.05.07-.05.22-.19.15-.42-.15-.52-.49-1.01-.82-1.48-.1-.15-.2-.3-.3-.45-.45-.69-.87-1.28-1.31-1.84-.11,0-.17.07-.17.12,0,.18-.15.33-.33.33-2.72,0-5.51,1.82-7.76,3.27l-.29.18c-2.7,1.75-5.15,3.76-7.86,6.01-.6.5-1.21,1-1.83,1.48-.14.11-.34.09-.46-.04-.12-.13-.12-.33,0-.45,1.95-2.07,3.73-3.83,5.45-5.36,1.79-1.61,3.31-2.81,4.79-3.79.6-.4,1.26-.73,1.9-1.05.87-.44,1.69-.85,2.38-1.42.22-.18.21-.4.15-.55-.09-.29-.38-.52-.65-.53-1.22-.08-2.57.72-3.73,1.41l-.21.12c-1.36.81-2.73,1.8-4.19,3.01-3.19,2.64-6,5.61-8.34,8.16-4.59,5.02-10.54,11.68-15.9,18.63-1.82,2.37-3.23,4.36-4.42,6.27l-.19.32c-.09.15-.3.2-.45.11-.16-.09-.22-.29-.13-.45,1.44-2.61,3.17-5.68,5.07-8.71,5.44-8.7,11-15.92,17-22.06,2.8-2.87,5.88-5.43,8.86-7.91.89-.74,1.79-1.49,2.68-2.25.39-.33.28-.78.07-1.06-.24-.33-.71-.57-1.14-.3-3.89,2.42-7.4,5.8-10.39,8.77-3.16,3.14-6.28,6.69-9.28,10.54-3.16,4.06-6.17,8.42-8.97,12.98-.09.15-.29.2-.45.12-.15-.09-.22-.28-.14-.44.54-1.12,1.09-2.24,1.64-3.36l.18-.36c.67-1.36,1.31-2.72,1.96-4.08.56-1.19,1.13-2.37,1.7-3.55.62-1.26,1.23-2.53,1.84-3.8.1-.21.21-.43.32-.65.46-.92.93-1.86,1.13-2.82-.07-.05-.13-.15-.15-.24-.02-.08-.06-.16-.11-.22-.18-.22-.43-.38-.7-.55-.19-.13-.39-.25-.57-.4-.43-.36-.89-.62-1.33-.85-.06-.03-.15-.02-.22.02-.05.04-.05.07-.05.09.02.2.05.39.11.59.04.13,0,.26-.11.34-4.47,3.76-7.47,8.95-10.39,14.4-3.37,6.27-6.24,12.02-8.78,17.59-3.06,6.69-5.64,13.72-8.13,20.52l-.1.28c-1.7,4.64-3.59,9.28-5.42,13.76-.64,1.56-1.28,3.13-1.91,4.7-.16.39-.31.78-.47,1.17l-.07.16c-.07.17-.25.25-.41.2-.17-.06-.27-.23-.22-.4.4-1.59.81-3.17,1.22-4.75l.49-1.88c.91-3.52,1.63-7.14,2.32-10.64l.45-2.25c.31-1.54.65-3.08,1-4.62.65-2.92,1.33-5.93,1.76-8.94,0-.05-.05-.1-.07-.1l-.13.29c-.05.1-.15.16-.25.18-1.41.77-2.33,2.19-3.22,3.56l-.21.32c-.57.86-1.08,1.77-1.59,2.76-.08.16-.26.22-.42.16-.16-.06-.25-.24-.2-.41l.26-.9c.26-.94.53-1.88.8-2.81.66-2.3,1.3-4.62,1.95-6.93.6-2.14,1.19-4.29,1.81-6.43.25-.87.5-1.73.76-2.6,1.01-3.43,2.05-6.97,2.65-10.53,0-.04-.02-.08-.04-.1-.11.05-.31,0-.41-.07-.35-.23-.7-.38-1.08-.55-.29-.13-.59-.26-.88-.42l-.29-.16c-.18-.1-.36-.2-.54-.3-.15-.08-.31-.12-.46-.17-.14-.04-.27-.08-.4-.14-.14-.06-.36.02-.4.11-.02.05-.06.1-.11.13-.53,2.18-.93,4.4-1.32,6.55-.31,1.7-.62,3.45-1,5.17-.81,3.7-1.93,7.66-3.42,12.09-.85,2.54-1.8,5.19-3.09,8.59-.06.16-.24.25-.41.2-.17-.05-.27-.23-.23-.4l.59-2.52c2.32-9.88,4.73-20.1,4.94-30.45.05-2.57.01-5.33-.13-8.69-.06-1.38-.14-2.77-.25-4.25-.08-1.08-.28-2.1-.5-3.18-.08-.4-.16-.79-.23-1.19-.56,2.76-.8,5.16-.82,7.55-.02,2.56-.05,5.12-.09,7.67v.82c-.02.18-.16.33-.35.33h-.5c-.09,0-.18-.05-.24-.11-.06-.06-.1-.15-.09-.24.01-.67-.02-1.35-.05-2.01l-.02-.59c-.06-1.44-.16-2.92-.26-4.34l-.14-2c-.17-2.71-.37-5.79-1.48-8.27-.02-.05-.03-.1-.03-.15.02-.41-.02-.78-.12-1.12-.07.03-.09.06-.1.1-.06.12-.22.18-.31.19h0c-.07,0-.16.06-.17.16-.02.27-.03.55-.05.83,0,.03,0,.06-.02.09l-.16.47c-.12.36-.24.72-.38,1.06-.55,1.34-1.01,2.42-1.48,3.4-.63,1.32-1.04,2.37-1.34,3.39-.04.13-.16.23-.3.24-.13.01-.27-.07-.33-.2-.43-1.01-1.01-2.06-1.72-3.14-1.34-2.05-2.82-3.03-4.54-2.99-.06,0-.13.06-.16.14-.02.07,0,.09.03.11.2.17.4.35.59.53.12.11.14.31.04.44-.1.14-.29.18-.43.1-.05-.03-.13-.04-.15-.01-.39.45-.41.8-.43,1.44v.18c-.06,1.08-.18,2.11-.31,3.16l-.05.38c-.02.16-.15.29-.31.3-.13.03-.31-.1-.35-.26,0,0-.02-.08-.02-.08l-.03-.13c-.7-3.35-1.48-6.2-2.39-8.75-.8-2.27-1.94-5.21-3.59-7.93-1.02-1.68-2.48-4.09-4.36-4.73.09.22.22.45.37.71.02.04.03.07.04.12.32,1.84.46,3.78.59,5.65l.02.31c.14,2.11.19,4.43.15,7.11-.08,4.27-.47,8.58-.85,12.76l-.31,3.47c-.7,7.79-1.41,15.85-2.64,23.71-.03.18-.19.29-.37.28-.18-.02-.31-.18-.29-.37,1.06-10.31,1.45-18.82,1.24-26.79l-.04-1.56c-.1-4.25-.2-8.64-1.14-12.76-.02-.1,0-.21.07-.3.21-.24.38-.49.53-.76.03-.05.02-.12-.01-.17-.23-.02-.41,0-.58.02-.13.01-.25-.04-.32-.14-.04.12-.14.21-.26.24-.75.14-1.47.34-2.24.55l-.25.07c-1.5.42-3.02.6-4.31.72l-.59.05c-1.91.17-3.72.33-5.24,1.29-.14.09-.33.06-.44-.07-.01-.01-.06-.08-.06-.09-.03.1-.05.26-.06.42,0,.1-.05.18-.12.24-.05.04-.09.08-.14.12,0,0,0,0,.01,0,.14.05.23.17.23.31.02,1.01.22,2.09.41,3.13.08.42.15.84.22,1.24.03.17-.08.33-.24.37-.16.05-.34-.04-.4-.19-.22-.53-.45-1.06-.69-1.58-1.1-2.41-2.6-4.82-4.45-7.16-1.07-1.35-2.73-3.25-4.75-4.11-.11-.07-.22-.14-.33-.2,1.37,2.61,2.84,5.74,3.71,9.37.99,4.07,1.52,8.26,1.9,11.82.49,4.59.96,9.51,1.06,14.37.1,5.19-.13,10.84-.68,17.3-.08.88-.16,1.76-.24,2.64-.02.17-.16.3-.33.3-.17-.01-.32-.13-.34-.29l-.05-.47c-.4-3.68-.96-7.56-1.72-11.88-.55-3.08-.93-6.4-1.23-10.45,0-.12.05-.24.15-.31.1-.06.17-.12.22-.19.09-.11.09-.19.04-.28-.08-.17-.19-.28-.36-.38-.09-.06-.15-.15-.16-.26-.01-.15-.02-.31-.03-.47-.07.04-.09.09-.1.14l-.03.09c-.02.09-.08.16-.16.2-.08.05-.17.05-.26.03l-.25-.08c-.77-.26-1.55-.49-2.32-.72l-.35-.1c-.37-.11-.74-.22-1.1-.33-1.08-.33-2.11-.64-3.19-.87-.07-.02-.13-.05-.18-.1-.06.02-.19.03-.26.01-.18-.04-.36-.06-.54-.09-.1,0-.22.06-.25.15-.01.02-.02.04.03.08.21.17.42.33.64.48.09.06.14.17.14.28-.03,1.1.36,2.35.7,3.45.12.4.24.78.34,1.14l.2.77c.49,1.83.99,3.72,1.35,5.61.09.49.17.99.24,1.48.02.16-.08.32-.24.37-.16.04-.33-.03-.4-.18-.2-.44-.41-.88-.62-1.32-1.26-2.62-2.57-4.95-4.02-7.1l-.46-.69c-1.17-1.78-2.49-3.78-4.24-4.95.06.19.13.39.21.58.06.16,0,.34-.16.42-.1.05-.21.05-.31,0,.63,3.19,1.87,6.3,3.07,9.31.52,1.3,1.06,2.65,1.53,3.97.46,1.27.9,2.55,1.32,3.83.08.7.15,1.33.24,1.96.28,1.85.51,3.73.67,5.58.34,3.86.57,7.42.71,10.91.13,3.63.25,7.26.36,10.89.12,3.63.23,7.25.36,10.87.28,7.52.36,15.43.26,23.48-.11,8.38-.26,15.94-1.07,23.63-.16,1.52-.36,3.18-.64,5.22,0,.04-.02.07-.04.11-.99,1.96-2.08,3.89-3.15,5.76-1.74,3.08-3.9,7.12-5.45,11.64-2.87,8.38-4.96,16.68-6.22,24.67-.02.14-.13.25-.26.27-.16.03-.28-.03-.35-.15-.32-.49-.76-.57-1.07-.48-.32.08-.67.36-.7.89-.85,13.86-.56,26.19.9,37.71.76,6.02,2.06,12.02,3.97,18.34.05.15-.02.31-.16.39-.14.08-.31.05-.41-.07-.4-.45-.8-.89-1.2-1.3-.32-.33-.66-.14-.75-.07-.23.17-.4.5-.22.85,1.86,3.56,2.84,7.6,3.62,10.85.31,1.29.65,2.57.98,3.85.4,1.52.82,3.1,1.18,4.66l.1.44c.51,2.2,1.03,4.49,1.82,6.63.05.13.01.27-.09.36-.1.09-.25.11-.37.05-.56-.29-1.11-.56-1.65-.83-1.17-.58-2.35-1.15-3.53-1.72-2.5-1.21-5.1-2.47-7.6-3.8-2.11-1.13-4.03-2.04-5.84-2.8-.37-.15-.74-.31-1.11-.45-.11-.04-.18-.13-.21-.24l-.12-.55c-.34-1.62-.7-3.25-1.09-4.86-.9-3.8-1.71-6.92-2.55-9.81-.81-2.82-1.92-5.86-3.37-9.27-.6-1.42-1.33-3.07-2.26-4.61-.09-.15-.05-.35.1-.45.09-.06.16-.15.18-.22.23-.91.06-1.84-.12-2.83-.08-.45-.17-.92-.21-1.38-.14-1.52-.15-3.17-.03-5.07.21-3.32.77-6.8,1.81-11.31,1.78-7.65,4.31-15.14,7.73-22.91.27-.6.54-1.21.81-1.82.74-1.65,1.5-3.36,2.18-5.06.46-1.16.92-2.37,1.4-3.69.29-.81.43-1.59.58-2.42l.05-.28s.02-.07.04-.11c.13-.22.25-.45.37-.67.13-.23.25-.46.37-.67l.89-1.46c.41-.67.82-1.35,1.23-2.02.68-1.14,1.37-2.27,2.07-3.39.8-1.3,1.59-2.59,2.36-3.9,1.58-2.66,2.7-4.93,3.53-7.15.35-.94.79-2.17,1.03-3.4.03-.14.15-.25.29-.27.07,0,.14-.05.18-.11,1.33-2.08.15-5.34-.7-7.72l-.2-.54c-.45-1.26-.94-2.53-1.43-3.75-.71-1.81-1.44-3.68-2.03-5.57-1.04-3.32-1.52-6.56-1.47-9.92.02-.91.07-1.81.12-2.71.08-1.49.17-3.04.08-4.55,0-.11.04-.21.12-.28.89-.73,1.68-1.53,2.53-2.38.36-.36.73-.73,1.1-1.1,1.06-1.03,2.01-1.8,2.99-2.42l.35-.22c.74-.46,1.51-.94,2.16-1.53.05-.04.11-.07.18-.08l.35-.05s-.02-.03-.02-.04c-.05-.09-.09-.19-.05-.29.01-.03.01-.07,0-.1-.75-.2-1.49-.17-2.29.08-.05.02-.11.02-.15.01-.58-.09-1.06-.15-1.51-.17-1.39-.08-2.7-.03-3.99.17l-.24.04c-1.37.2-3.44.51-4.77,1.38-.09.06-.19.07-.29.04-.1-.04-.18-.11-.21-.21-2.79,2.79-4.24,7.05-5.29,10.84-.48,1.75-.84,3.67-1.13,6.05-.02.2-.05.42-.08.64-.19,1.48-.46,3.5.38,4.64.03.04.05.09.06.14.41,2.24,1.31,4.39,2.28,6.58.26.58.52,1.16.78,1.74.49,1.08,1.01,2.21,1.46,3.34l.06.15c.02.06.05.19.04.24-.31,1.87-.6,3.38-.91,4.75-.19.86-.39,1.7-.61,2.55-.03.12-.12.21-.25.24-.13.02-.25-.02-.33-.11-.21-.25-.42-.5-.63-.75l-.27-.34c-1.01-1.28-2.05-2.6-3.3-3.62-.08-.07-.13-.17-.12-.28.1-1.67-.18-3.43-.44-5.13-.08-.5-.15-.98-.21-1.44-.42-3.13-1-6.41-1.71-9.75-1.32-6.2-2.77-12.16-5.88-16.98-.03.07-.08.13-.14.17-.12.08-.27.07-.39-.03-.9-.75-1.96-1.4-2.89-1.96-.29-.18-.57-.35-.82-.51-2.35-1.49-4.98-2.89-8.03-4.28-2.4-1.09-5.05-2.19-8.11-3.36-.34-.13-.69-.27-1.03-.4-1.03-.41-2.1-.83-3.17-1.16-.69-.22-1.43-.36-2.14-.51-.49-.1-.98-.2-1.46-.32-.06-.01-.1-.04-.14-.07-.05.01-.11.01-.15,0-.02,0-.03-.01-.05-.01.02.04.03.08.04.12.01.1-.02.2-.09.27l-.25.26c-.79.79-1.7,1.49-2.58,2.16-.54.41-1.07.82-1.57,1.25-1.75,1.49-3.06,3.05-4.14,4.9-.84,1.45-1.55,3.01-2.23,4.53-.22.49-.44.98-.67,1.46-.27.59-.56,1.17-.85,1.76-.37.75-.76,1.53-1.1,2.3-.07.15-.25.24-.41.18-.09-.02-.17,0-.18.02-1.03,1.25-.65,3.38,1.13,6.31,1,1.66,2.86,4.74,5.18,5.48.09.03.21,0,.3-.07.09-.07.13-.16.13-.24-.03-.51-.18-1.03-.44-1.59-.03-.06-.04-.13-.03-.19.2-1.34.3-2.74.33-4.67,0-.36.02-.74.04-1.12.04-1.01.08-2.06-.04-3.05-.01-.09.02-.19.08-.26.79-.91,1.53-1.89,2.25-2.85.47-.62.94-1.25,1.44-1.87.91-1.14,1.87-2.21,2.86-3.29.19-.21.38-.41.58-.62.44-.47.9-.95,1.29-1.46.1-.13.27-.16.42-.1.38.17.71.32,1.05.46.67.3,1.35.6,2.01.93.99.49,1.97,1.02,2.94,1.54.91.49,1.82.98,2.74,1.44.88.44,1.77.87,2.65,1.29,1.25.6,2.54,1.22,3.78,1.88.3.16.61.33.91.49.74.4,1.5.81,2.26,1.16.13.06.27.13.41.2.24.12.5.25.76.36.1.05.18.14.2.25.22,1.31.58,2.63.9,3.79l.15.56c.83,3.06,1.91,6.06,2.96,8.96l.86,2.34c.33.9.66,1.79.98,2.69.06.16-.01.34-.16.41-.14.08-.33.03-.43-.1-.96-1.35-1.99-2.63-2.99-3.87l-.32-.4c-.53-.66-1.05-1.33-1.57-2-1.13-1.45-2.3-2.95-3.56-4.33-1.56-1.71-3.5-3.83-5.99-3.87h0s-.09.03-.13.08c-.02.03-.04.09-.03.13.04.09.03.19,0,.27-.04.08-.11.15-.21.18-1.93.59-3.85,1.9-5.55,3.06l-.79.54c-2.56,1.71-5.2,3.77-8.05,6.3-2.46,2.17-4.89,4.57-7.22,7.13-2.2,2.43-4.1,4.66-5.01,7.53-.02.06.01.13.03.16.05.07.13.12.2.13.16.01.28.13.3.29.02.18.05.36.07.51l.04.29c.16,1.32.49,2.62.81,3.86.71,2.79,1.6,5.55,2.65,8.19,1.14,2.9,2.33,5.36,3.66,7.51.75,1.22,1.59,2.27,2.49,3.14.77.74,1.83,1.75,2.89,1.99.08.01.13-.03.15-.06.04-.08.11-.14.2-.16.09-.03.18-.02.26.02,1.31.7,3.06.67,4.58.6l.72-.04c1.82-.08,3.89-.18,5.48-.89-.01-.01-.09-.04-.1-.05-.13-.08-.17-.21-.13-.35.03-.14-.04-.18-.07-.19-1.78-.78-3.52-2.03-4.98-3.15-.33-.26-.67-.55-1.01-.86-.64-.56-1.3-1.15-2.02-1.52-.13-.06-.2-.21-.18-.35.44-2.97-1.19-6.28-2.5-8.94l-.27-.56c-.32-.65-.65-1.29-.98-1.92-.63-1.22-1.28-2.47-1.82-3.77-.27-.65-.53-1.3-.79-1.95-.06-.16,0-.35.16-.43,2.69-1.32,5.32-3.18,8.56-6.05,1.42-1.26,2.92-2.64,4.23-4.13.14-.15.29-.32.44-.49.6-.65,1.27-1.4,1.72-2.18.12-.21.46-.21.58,0,1.09,1.91,2.82,3.59,4.52,5.12.89.8,1.81,1.58,2.72,2.35,1.73,1.47,3.51,2.98,5.11,4.64.09.1.12.23.07.36-.05.12-.16.2-.29.22-1.46.1-2.87.55-3.79.91-2.4.92-4.7,2.09-5.22,4.35-.01.05-.03.09-.06.12-1.03,1.45-1.3,4.4-1.41,5.66-.27,3.01-.44,6.08.76,8.63.14-.03.36.04.43.17,1.18,2.2,3.32,4.13,5.05,5.69,1.15,1.04,2.4,2.09,3.81,2.79.51.25,2.23,1.02,2.87.28.09-.1.13-.24.01-.37-.16-.18-.41-.34-.78-.51-.09-.04-.16-.12-.18-.22l-.02-.08c-.06-.24-.12-.46-.21-.65-.31-.61-.67-1.34-.96-2.18-.09-.25-.17-.5-.25-.76-.31-.95-.62-1.94-1.29-2.61-.02-.02-.07-.03-.11,0-.09.04-.19.04-.27,0-.09-.04-.16-.11-.19-.2-.43-1.23-.95-2.38-1.49-3.6l-.35-.77c-.28-.63-.52-1.34-.73-2.1-.03-.12,0-.24.09-.32,1.32-1.27,2.51-2.59,3.53-3.91.06-.08.15-.13.25-.13.12.02.19.03.26.1,1.46,1.51,3.52,2.71,5.03,3.59l.12.07c2.21,1.29,4.58,2.55,6.96,3.08.11.02.2.1.24.21.04.11.02.23-.05.32-.29.37-.54.75-.77,1.09-1.13,1.65-1.94,3.55-2.67,5.36-1.66,4.06-2.78,8.44-3.77,12.3-.96,3.75-2.13,7.5-3.26,11.12-1.61,5.18-3.28,10.53-4.38,15.94-.56,2.77-1,5.64-1.31,8.52-.04.4-.1.84-.16,1.29-.17,1.31-.37,2.8-.29,4.15,0,.14-.08.27-.21.32-.13.06-.28.02-.38-.09-.52-.59-1.06-1.17-1.62-1.75l-.25-.26c-1.24-1.29-2.66-2.76-4.37-2.94-.07.07-.08.15-.06.19.56,1.1,1.57,2.07,2.64,3.04.13.12.15.31.04.45-.11.13-.3.17-.44.08-.78-.5-1.83-1.08-3.02-1.22-.02.01-.04.09-.02.13.27.49.62.95,1.09,1.43.08.08.11.2.09.32-.02.09-.08.17-.17.21-.09.05-.21.07-.31.03-.91-.37-1.62-.62-2.31-.82.57,1.11,1.54,1.93,3.01,2.65.05.02.09.06.13.11.33.46.67.91,1.01,1.35.41.54.82,1.08,1.21,1.63,1.3,1.88,2.25,3.34,3.1,4.74l.42.71c.8,1.34,1.64,2.74,2.54,4.05.15.23.31.46.47.69l.13.2s.04.06.05.1c.58,2.29,1.27,4.59,1.95,6.82.63,2.07,1.27,4.21,1.83,6.34.93,3.61,1.53,6.61,1.88,9.45.18,1.47.25,2.97.31,4.41l.02.32c.01.23.02.47.02.72.02.81.03,1.66.24,2.39.03.1.01.2-.05.28-.06.08-.15.13-.25.14-1.05.07-2.03.27-2.93.59,1.3.45,2.66.83,3.96,1.2,2.48.7,5.04,1.42,7.49,2.39,2.62,1.03,5.2,2.23,7.7,3.4,1.13.53,2.27,1.06,3.41,1.57,6.45,2.91,11.24,5.42,15.5,8.15.07.05.12.11.14.2.31,1.18.69,2.38,1.05,3.54.35,1.1.71,2.23,1,3.35.86,3.25,1.57,6.71,2.1,10.3.49,3.3.8,6.87.93,10.61.02.74.04,1.47.05,2.21.02,1.2.05,2.45.12,3.66,0,.06-.01.12-.04.17-.8,1.58-1.75,3.05-2.73,4.54-1.98,3-4.3,5.86-6.91,8.51-3.14,3.19-6.58,5.9-10.23,8.07-2.09,1.24-4.01,2.18-5.88,2.88-.75.28-1.53.51-2.28.74l-.24.07c-.08.02-.16.02-.23-.01-2.22-.95-4.6-1.9-7.11-2.2-1.76-.2-3.58.38-5.44,1.05-.99.36-1.8.68-2.57,1.1-.07.04-.13.08-.2.12l-.1.06s-.1.05-.16.05l-.87.04c-.79.03-1.62.03-2.42.02-1.62-.01-3.3-.03-4.84.27-.06,0-.11,0-.16,0-1.15-.35-2.59-.69-3.59-.31.66.73,1.83,1.25,2.85,1.72.24.11.48.22.7.33,1.72.82,3.16,1.47,4.53,2.02,1.86.76,5.33,2.16,7.79,1.17.09-.03.19-.03.27.01.11.05.23.1.36.14.59.19,1.17.32,1.78.39,1.21.15,2.44.22,3.6.27.08,0,.16.04.22.09.49.46.99.91,1.48,1.34l.26.23c1.65,1.47,2.98,2.49,4.31,3.33,1.67,1.05,3.36,1.79,5.01,2.19,1.16.28,2.38.43,3.57.58.59.07,1.18.15,1.76.24l1.7.26c4.35.67,8.84,1.38,13.18,1.02.17.02.31.09.35.25.04.15-.03.32-.18.39-2.47,1.19-4.58,1.93-6.65,2.35-1.08.22-2.23.33-3.35.44-2.66.26-5.42.54-7.5,2.26-.97.8-1.74,1.82-2.48,2.82-1.07,1.43-2.19,2.91-3.93,3.81-2.78,1.42-6.09,1.27-9.28,1.13-1.26-.05-2.44-.11-3.58-.06-.59.02-1.05.47-1.05,1.04,0,1.6-.23,3.18-.46,4.71-.38,2.54-.74,4.94-.11,7.44.14.56.65.76,1.05.76h0c.39,0,.9-.2,1.03-.75,1.04-4.23,4.49-6.83,8.5-6.55.83.06,1.67.19,2.48.32,2.23.35,4.34.67,6.42-.27,1.3-.59,2.37-1.48,3.51-2.42.38-.31.75-.62,1.13-.92,1.67-1.32,3.44-2.35,5.24-3.08,3.32-1.34,7.13-1.81,12.01-1.48,1.32.09,2.65.29,3.94.47,3.05.45,5.94.87,8.88.07,2.06-.56,4.11-1.37,6.09-2.14.52-.21,1.03-.41,1.55-.61.76-.29,1.53-.57,2.29-.85,1.46-.53,2.98-1.08,4.41-1.73.45-.2.89-.43,1.34-.65,1.22-.61,2.47-1.25,3.82-1.45.18-.03.36-.04.53-.04,2.03,0,3.35,1.8,4.33,3.13,1.19,1.62,2.18,3.43,3.14,5.17,1.21,2.21,2.47,4.49,4.12,6.38,2.5,2.88,6.18,4.42,9.74,5.92.65.27,1.26.52,1.86.76,3.33,1.36,6.77,2.76,9.56,5.1.52.43,1.07.29,1.39-.04.28-.29.45-.81-.01-1.32-1.41-1.6-3.04-3.12-4.62-4.59-3.31-3.09-6.74-6.28-8.56-10.54-.96-2.24-1.5-4.63-2.01-6.95-.63-2.84-1.29-5.78-2.74-8.35-.06-.1-.06-.23,0-.33.06-.1.17-.16.28-.17,4.18-.07,7.85.26,11.25,1,4.09.88,8.1,2.49,12.63,5.07,1.85,1.05,3.71,2.18,5.51,3.27,5.61,3.4,11.42,6.92,17.87,8.68.68.18.99-.24,1.08-.43.2-.42.15-1.04-.34-1.42-2.78-2.1-3.82-5.58-4.73-8.64l-.02-.08c-.51-1.72-1.03-3.4-1.72-4.96-.06-.13-.03-.28.08-.38.1-.1.25-.12.38-.06.98.49,1.94,1,2.9,1.51,1.01.54,2.02,1.08,3.05,1.59.37.18.92.09,1.25-.21.17-.16.34-.43.19-.83-.22-.57-.34-1.15-.41-1.59-.02-.11.02-.23.11-.31.08-.08.2-.1.32-.07,2.8.86,5.38,2.34,7.89,3.77.71.41,1.43.81,2.14,1.21,3.3,1.81,6.85,3.28,10.29,4.72.75.31,1.49.62,2.24.93,5.11,2.15,9.36,3.74,13.39,4.99,1.69.52,3.28,1.26,4.83,1.97,1.6.74,3.26,1.5,5,2.01.31.09.64.18.98.28,2.7.74,6.07,1.67,6.85,4.7.11.43.47.49.75.43.24-.06.62-.3.5-.78l-.09-.36c-.76-3.08-1.55-6.27-3.14-9.02-1.53-2.65-3.85-4.63-6.9-5.91-.83-.34-1.66-.67-2.5-1-2.53-1-5.15-2.02-7.51-3.57-2.54-1.66-4.7-3.88-6.59-6.8-.07-.1-.07-.23-.02-.34.06-.1.17-.17.28-.18,2.57-.11,5.13-.2,7.7-.29,5.87-.2,11.94-.41,17.89-.93,5.27-.46,10.71-.94,15.98-.09l.25.04c1.57.24,4.49.7,4.97,2.59.03.17.05.31.07.45.04.34.36.41.46.4.12,0,.32-.06.32-.36,0-.47-.09-.92-.27-1.32-.13-.47-.27-.88-.41-1.3l-.06-.19c-.03-.1-.02-.22.05-.3.03-.05.06-.13.03-.17-.6-1-1.75-1.78-2.76-2.47-.2-.14-.4-.27-.58-.4-1.45-1.02-3.07-1.84-4.64-2.63-2.18-1.1-4.74-2.27-7.58-2.79-.09-.01-.16-.07-.22-.14-.05-.07-.07-.17-.05-.25.02-.09,0-.17-.02-.21,0-.01-.02-.03-.08-.04-1.27-.19-2.86.23-4.26.61-.44.12-.87.23-1.27.32-2.16.49-4.28.86-6.32,1.09-2.16.25-4.29.4-6.27.52-.41.02-.85.04-1.29.05-.52.02-1.06.04-1.6.07-.08,0-.14-.02-.21-.05-.01,0-.06-.05-.07-.06-2.74-1.98-5.68-3.75-8.52-5.47-1.47-.89-2.99-1.8-4.46-2.74-5.27-3.34-9.11-6.14-12.46-9.08-3.58-3.16-6.69-6.7-9.48-10.82-1.32-1.94-2.59-3.95-3.82-5.9l-.9-1.42c-.09-.14-.06-.32.06-.43.12-.11.31-.11.44,0,1.37,1.12,2.92,1.82,4.35,1.98.04,0,.08.02.12.03.17.09.34.18.52.26.09.04.2,0,.25-.06.03-.03.04-.06,0-.13-.74-1.17-1.68-2.27-2.6-3.33-.33-.39-.66-.77-.98-1.15-1.55-1.87-2.96-3.83-4.01-5.33-2.35-3.34-4.66-7.1-7.05-11.5-4.37-8.02-7.84-16.49-11.3-25.19-.62-1.55-1.21-3.16-1.78-4.71-.31-.84-.62-1.69-.94-2.53-.06-.16,0-.33.15-.41.15-.08.33-.04.43.1.77,1.04,1.55,2.03,2.33,2.95l-.09-.2c-.06-.15-.01-.32.12-.41s.31-.07.42.04c.13,0,.18-.09.17-.17-.39-2.74-1.72-5.29-2.99-7.76-.34-.66-.69-1.33-1.01-1.99-1.56-3.19-3.16-6.62-4.34-10.14-1.01-3.02-1.61-6.28-1.85-9.95,0-.03,0-.07,0-.1.52-2.2,1.22-4.37,1.9-6.47.26-.8.51-1.6.77-2.41.01-.03-.02-.08-.05-.11-.01,0-.06-.04-.09-.03-.11.06-.23.06-.34,0-.1-.06-.16-.18-.16-.3.01-.22.02-.44.02-.65l.02-.56c.06-1.23.12-2.77.26-4.24.26-2.91.74-5.81,1.43-8.6.73-2.94,1.66-5.54,2.85-7.96.69-1.39,1.49-2.68,2.12-3.64.16-.25.33-.5.5-.76.49-.73.99-1.47,1.35-2.24.04-.08.11-.15.2-.18,1.43-.47,2.62-.84,3.75-1.16,2.84-.8,5.76-1.44,8.58-2.05l3.35-.73c3.03-.66,6.17-1.35,9.22-2.14l.3-.08c.06-.02.11-.01.17,0,.15.04.23.06.32.09,1.76.59,3.37,1.64,4.72,2.59.56.4,1.11.84,1.64,1.27.78.63,1.58,1.28,2.44,1.78.52.31,1.33.48,1.71.26.06-.04.25-.15.24-.6-.02-.44-.29-.9-.84-1.42-.07-.06-.1-.15-.1-.24,0-.09.03-.18.1-.25.49-.64.53-1.57.13-2.72-.04-.1-.02-.22.04-.31.06-.09.16-.16.28-.14h.01c.08,0,.16-.02.22-.04.1-.04.22-.04.31.02,1.22.73,2.06,1,2.48.83.06-.03.26-.11.35-.5.12-.5-.18-1.03-.89-1.57-.11-.08-.16-.23-.12-.37,1.21-4.07,2.66-7.77,4.41-11.31,1.59-3.2,3.39-6.35,5.13-9.4l1.22-2.14c2.6-4.59,4.73-8.03,6.9-11.17,1.16-1.69,2.43-3.32,3.67-4.9l.82-1.05c1.07-1.36,2.28-2.9,2.89-4.47-.1-.14-.11-.41.02-.53.45-.39.9-.79,1.33-1.19.76-.7,1.5-1.41,2.25-2.13,1.83-1.75,3.72-3.57,5.79-5.13,2.06-1.56,4.25-3.02,6.37-4.43,1.09-.73,2.19-1.46,3.27-2.21l.4-.27c1.39-.95,2.82-1.94,4.1-3.06,1.42-1.23,2.42-2.67,3.39-4.07.76-.9,1.44-1.78,2.26-2.83.53-.7,1.12-1.37,1.69-2.01.86-.98,1.74-2,2.45-3.1.07-.11.22-.17.33-.15,1.21.2,2.41.37,3.63.54,2.36.33,4.79.68,7.18,1.2,1.61.36,3.22.75,4.83,1.14l1.78.43c.14.03.24.15.25.29.11.96.31,1.94.49,2.89.15.78.3,1.56.41,2.32.36,2.52.59,5.26.72,8.62.11,2.89.17,5.72.19,8.4,0,1.38.08,2.78.22,4.15l.04.4c.04.36.07.74.13,1.09.01.08,0,.16-.04.23-.27.46-.52.95-.77,1.43-.17.33-.34.66-.51.98-.61,1.12-1.32,2.21-2,3.26l-.19.28c-.48.74-1,1.46-1.51,2.15-.26.36-.52.72-.77,1.08l-.22.3c-.41.55-.83,1.13-1,1.73-.02.05-.04.1-.08.14-.57.58-1.06,1.2-1.47,1.82,0,0,.06.06.06.06,2.48-.76,4.7-2.2,7.13-3.86l.2-.14c1.03-.7,2.09-1.43,3.08-2.2.43-.34.98-.79,1.48-1.29.2-.2.34-.43.49-.66,1.28-1.37,1.6-3.58,1.88-5.53.07-.46.13-.91.21-1.31.14-.8.29-1.6.44-2.4.34-1.84.7-3.73.95-5.61-.14-.06-.22-.23-.19-.38.19-1.04.28-2.09.35-3.06l.03-.37c.15-2.18.3-4.43.36-6.66.07-2.35.11-4.65-.16-6.89-.21-1.75-.46-3.44-1.3-4.84-.05-.08-.06-.18-.03-.26.07-.24,0-.51-.17-.71-.81-.94-2.44-1.24-3.87-1.5-.55-.1-1.07-.2-1.54-.32-2.2-.6-4.48-1.34-6.77-2.19-2.02-.76-4.13-1.63-6.44-2.66-.18-.08-.37-.16-.56-.25-.14-.06-.21-.21-.19-.36.02-.14.15-.26.3-.28,3.54-.36,6.98-.77,10.18-1.88l.37-.12c.81-.26,2.02-.66,2.62-1.29.06-.06.15-.1.24-.1s.18.04.24.11c1.51,1.6,3.2,3,4.66,4.15,2.57,2.04,4.81,3.59,7.07,4.89.93.54,1.88,1.05,2.83,1.57,1.31.72,2.66,1.45,3.96,2.24,1.13.68,2.32,1.44,3.43,2.33.21.17.42.35.63.53.3.26.61.53.93.76.08.05.12.14.13.23.37,3.32.52,6.71.67,9.98.07,1.47.13,2.94.22,4.42.15,2.62.38,5.43,1,8.21.3,1.35.77,2.63,1.4,3.79l.06.11c.33.61.7,1.3,1.17,1.84.07.08.09.18.08.28l-.04.24c-.09.51-.18,1.02-.27,1.52-.15.76-.35,1.54-.55,2.3-.46,1.81-.94,3.69-.85,5.49,0,.05.06.12.13.14.82-.97,1.39-2.19,1.84-3.83.02-.07.06-.13.11-.17,1.24-1.01,2.01-2.68,2.64-4.17.5-1.18.82-2.21.98-3.15.37-1.06.22-2.18.06-3.26l-.05-.3c-.2-1.45-.36-2.97-.48-4.51-.15-1.95-.23-3.94-.31-5.86-.04-.95-.08-1.91-.13-2.86-.16-3.11-.39-5.85-.72-8.36l-.06-.49c-.28-2.18-.66-5.16-2.16-6.73-.18.06-.43-.05-.49-.22-.02-.05-.03-.08-.05-.11-.5-.76-1.35-1.18-2.26-1.62-.43-.21-.88-.43-1.27-.68-1.56-1-2.96-2.23-4.24-3.41-.87-.79-1.71-1.61-2.56-2.42-1.56-1.5-3.18-3.06-4.89-4.45-1.13-.92-2.24-1.92-3.3-2.88-1.3-1.17-2.64-2.38-4.04-3.47l-.2-.15c-1.15-.89-2.34-1.81-3.7-2.24-.14-.05-.52-.14-.9-.18-.04,0-.07-.01-.1-.03-.05-.02-.08-.03-.1-.03-1.28-.17-2.59.44-3.87,1.02-.51.23-1,.45-1.49.63-1.75.63-3.66,1.22-6.02,1.84l-.1.02c-1.64.43-3.27.86-4.9,1.32-.15.04-.3-.02-.37-.14-.08-.13-.07-.28.03-.4.71-.84,1.4-1.71,2.05-2.59,1.29-1.74,2.48-3.5,3.53-5.23l.3-.49c.61-.99,1.25-2,1.61-3.08.06-.16.24-.26.39-.22,3.73.88,7.94.49,11.67.15l.73-.07c.77-.07,1.54-.13,2.31-.2,1.77-.15,3.54-.31,5.3-.5.52-.06,1.04-.11,1.55-.18.1-.01.2.02.28.09.86.85,1.86,1.6,2.81,2.3,2.05,1.49,4.11,2.86,6.14,4.07,1.32.78,2.65,1.55,3.98,2.32.81.47,1.62.94,2.43,1.41.34.2.7.43,1.08.67,1.2.78,2.57,1.66,3.86,1.78.18.02.31.17.31.35-.08,1.48.18,3.07.42,4.47l.1.65c.07.42.13.84.19,1.27.36,2.42.73,4.93,2.03,6.94.03.04.12.07.15.05.31-.71.48-1.45.53-2.29,0-.07.03-.13.07-.19.58-.73.76-1.98.89-2.88l.12-.79c.19-1.31.39-2.67.52-4,.14-1.54.25-3.05,0-4.52Z"/>
    </clipPath>
    <linearGradient id="linear-gradient" x1="-2367.42" y1="434.95" x2="-2367.09" y2="434.95" gradientTransform="translate(-537570.79 2926837.65) rotate(90) scale(1236.3 -1236.3)" gradientUnits="userSpaceOnUse">
      <stop offset="0" stop-color="#60c9b6"/>
      <stop offset=".02" stop-color="#60c9b6"/>
      <stop offset=".02" stop-color="#60c9b6"/>
      <stop offset=".03" stop-color="#60c9b7"/>
      <stop offset=".04" stop-color="#60c9b7"/>
      <stop offset=".05" stop-color="#60c9b8"/>
      <stop offset=".05" stop-color="#60c9b8"/>
      <stop offset=".06" stop-color="#60c9b8"/>
      <stop offset=".07" stop-color="#61c9b9"/>
      <stop offset=".07" stop-color="#61c9b9"/>
      <stop offset=".08" stop-color="#61c9b9"/>
      <stop offset=".09" stop-color="#61c9b9"/>
      <stop offset=".09" stop-color="#61c9ba"/>
      <stop offset=".11" stop-color="#61c9ba"/>
      <stop offset=".12" stop-color="#61c9bb"/>
      <stop offset=".12" stop-color="#61c9bb"/>
      <stop offset=".13" stop-color="#61c9bc"/>
      <stop offset=".14" stop-color="#61c9bc"/>
      <stop offset=".16" stop-color="#61c9bc"/>
      <stop offset=".16" stop-color="#61cabd"/>
      <stop offset=".16" stop-color="#61cabd"/>
      <stop offset=".17" stop-color="#61cabd"/>
      <stop offset=".18" stop-color="#61cabe"/>
      <stop offset=".19" stop-color="#61cabe"/>
      <stop offset=".2" stop-color="#61cabe"/>
      <stop offset=".2" stop-color="#61cabf"/>
      <stop offset=".22" stop-color="#61cabf"/>
      <stop offset=".23" stop-color="#61cac0"/>
      <stop offset=".24" stop-color="#61cac0"/>
      <stop offset=".25" stop-color="#61cac1"/>
      <stop offset=".26" stop-color="#61cac1"/>
      <stop offset=".27" stop-color="#62cac1"/>
      <stop offset=".27" stop-color="#62cac2"/>
      <stop offset=".28" stop-color="#62cac2"/>
      <stop offset=".3" stop-color="#62cac3"/>
      <stop offset=".31" stop-color="#62cac3"/>
      <stop offset=".33" stop-color="#62cac4"/>
      <stop offset=".34" stop-color="#62cac4"/>
      <stop offset=".34" stop-color="#62cac5"/>
      <stop offset=".35" stop-color="#62cac5"/>
      <stop offset=".35" stop-color="#62cac6"/>
      <stop offset=".36" stop-color="#62cac6"/>
      <stop offset=".38" stop-color="#62cac6"/>
      <stop offset=".38" stop-color="#62cac7"/>
      <stop offset=".39" stop-color="#62cac7"/>
      <stop offset=".41" stop-color="#62cac7"/>
      <stop offset=".41" stop-color="#63cbc8"/>
      <stop offset=".42" stop-color="#63cbc8"/>
      <stop offset=".43" stop-color="#62cac8"/>
      <stop offset=".43" stop-color="#62cac8"/>
      <stop offset=".43" stop-color="#61cac7"/>
      <stop offset=".44" stop-color="#60cac6"/>
      <stop offset=".44" stop-color="#5fc9c6"/>
      <stop offset=".45" stop-color="#5ec9c5"/>
      <stop offset=".45" stop-color="#5ec9c5"/>
      <stop offset=".45" stop-color="#5dc8c4"/>
      <stop offset=".46" stop-color="#5cc8c4"/>
      <stop offset=".46" stop-color="#5bc8c3"/>
      <stop offset=".46" stop-color="#5ac8c3"/>
      <stop offset=".47" stop-color="#59c7c2"/>
      <stop offset=".47" stop-color="#58c7c2"/>
      <stop offset=".48" stop-color="#58c7c1"/>
      <stop offset=".48" stop-color="#56c6c0"/>
      <stop offset=".48" stop-color="#55c6c0"/>
      <stop offset=".49" stop-color="#54c6bf"/>
      <stop offset=".49" stop-color="#53c5bf"/>
      <stop offset=".5" stop-color="#52c5be"/>
      <stop offset=".5" stop-color="#51c5bd"/>
      <stop offset=".5" stop-color="#51c4bd"/>
      <stop offset=".51" stop-color="#50c4bc"/>
      <stop offset=".51" stop-color="#4fc4bb"/>
      <stop offset=".52" stop-color="#4ec3ba"/>
      <stop offset=".52" stop-color="#4dc3ba"/>
      <stop offset=".52" stop-color="#4cc3ba"/>
      <stop offset=".53" stop-color="#4bc3b9"/>
      <stop offset=".53" stop-color="#4bc2b8"/>
      <stop offset=".54" stop-color="#4ac1b7"/>
      <stop offset=".54" stop-color="#49c0b6"/>
      <stop offset=".54" stop-color="#48bfb5"/>
      <stop offset=".55" stop-color="#47beb4"/>
      <stop offset=".55" stop-color="#47bdb3"/>
      <stop offset=".55" stop-color="#46bcb2"/>
      <stop offset=".56" stop-color="#46bbb1"/>
      <stop offset=".56" stop-color="#45bab0"/>
      <stop offset=".57" stop-color="#44b9af"/>
      <stop offset=".57" stop-color="#44b8ae"/>
      <stop offset=".57" stop-color="#43b7ad"/>
      <stop offset=".58" stop-color="#43b6ac"/>
      <stop offset=".58" stop-color="#43b5ab"/>
      <stop offset=".59" stop-color="#42b3aa"/>
      <stop offset=".59" stop-color="#42b2aa"/>
      <stop offset=".59" stop-color="#41b1a9"/>
      <stop offset=".6" stop-color="#41b0a8"/>
      <stop offset=".6" stop-color="#40afa7"/>
      <stop offset=".61" stop-color="#40ada6"/>
      <stop offset=".61" stop-color="#40aca5"/>
      <stop offset=".61" stop-color="#3faba4"/>
      <stop offset=".62" stop-color="#3faaa3"/>
      <stop offset=".62" stop-color="#3ea8a2"/>
      <stop offset=".62" stop-color="#3ea7a1"/>
      <stop offset=".63" stop-color="#3da6a0"/>
      <stop offset=".63" stop-color="#3da59f"/>
      <stop offset=".64" stop-color="#3da49e"/>
      <stop offset=".64" stop-color="#3da39d"/>
      <stop offset=".64" stop-color="#3ca29c"/>
      <stop offset=".65" stop-color="#3ca19b"/>
      <stop offset=".65" stop-color="#3ba09a"/>
      <stop offset=".66" stop-color="#3a9e99"/>
      <stop offset=".66" stop-color="#3a9d98"/>
      <stop offset=".66" stop-color="#399c97"/>
      <stop offset=".67" stop-color="#399b96"/>
      <stop offset=".67" stop-color="#399a95"/>
      <stop offset=".68" stop-color="#389994"/>
      <stop offset=".68" stop-color="#379893"/>
      <stop offset=".68" stop-color="#379791"/>
      <stop offset=".69" stop-color="#379590"/>
      <stop offset=".69" stop-color="#36948f"/>
      <stop offset=".7" stop-color="#36938e"/>
      <stop offset=".7" stop-color="#36928d"/>
      <stop offset=".7" stop-color="#35918c"/>
      <stop offset=".71" stop-color="#35908b"/>
      <stop offset=".71" stop-color="#348f8a"/>
      <stop offset=".71" stop-color="#348e89"/>
      <stop offset=".72" stop-color="#348d88"/>
      <stop offset=".72" stop-color="#338b87"/>
      <stop offset=".73" stop-color="#338a86"/>
      <stop offset=".73" stop-color="#338984"/>
      <stop offset=".73" stop-color="#328783"/>
      <stop offset=".74" stop-color="#328682"/>
      <stop offset=".74" stop-color="#318581"/>
      <stop offset=".75" stop-color="#318480"/>
      <stop offset=".75" stop-color="#30837f"/>
      <stop offset=".75" stop-color="#2f827e"/>
      <stop offset=".76" stop-color="#2f817d"/>
      <stop offset=".76" stop-color="#2e7f7c"/>
      <stop offset=".77" stop-color="#2e7e7b"/>
      <stop offset=".77" stop-color="#2e7d79"/>
      <stop offset=".77" stop-color="#2d7c78"/>
      <stop offset=".78" stop-color="#2d7b77"/>
      <stop offset=".78" stop-color="#2d7a76"/>
      <stop offset=".79" stop-color="#2d7875"/>
      <stop offset=".79" stop-color="#2c7774"/>
      <stop offset=".79" stop-color="#2c7673"/>
      <stop offset=".8" stop-color="#2b7571"/>
      <stop offset=".8" stop-color="#2b7470"/>
      <stop offset=".8" stop-color="#2b726f"/>
      <stop offset=".81" stop-color="#2a716e"/>
      <stop offset=".81" stop-color="#2a706c"/>
      <stop offset=".82" stop-color="#296f6b"/>
      <stop offset=".82" stop-color="#296e6a"/>
      <stop offset=".82" stop-color="#286c69"/>
      <stop offset=".83" stop-color="#286b68"/>
      <stop offset=".83" stop-color="#286a67"/>
      <stop offset=".84" stop-color="#286966"/>
      <stop offset=".84" stop-color="#276864"/>
      <stop offset=".84" stop-color="#276763"/>
      <stop offset=".85" stop-color="#276662"/>
      <stop offset=".85" stop-color="#266561"/>
      <stop offset=".86" stop-color="#266360"/>
      <stop offset=".86" stop-color="#25625f"/>
      <stop offset=".86" stop-color="#25615e"/>
      <stop offset=".87" stop-color="#25605c"/>
      <stop offset=".87" stop-color="#245f5b"/>
      <stop offset=".88" stop-color="#245e5a"/>
      <stop offset=".88" stop-color="#245d59"/>
      <stop offset=".88" stop-color="#235c58"/>
      <stop offset=".89" stop-color="#235a56"/>
      <stop offset=".89" stop-color="#225955"/>
      <stop offset=".89" stop-color="#225854"/>
      <stop offset=".9" stop-color="#225853"/>
      <stop offset=".9" stop-color="#225652"/>
      <stop offset=".91" stop-color="#225551"/>
      <stop offset=".91" stop-color="#215450"/>
      <stop offset=".91" stop-color="#21534f"/>
      <stop offset=".92" stop-color="#21524d"/>
      <stop offset=".92" stop-color="#20514c"/>
      <stop offset=".93" stop-color="#204f4b"/>
      <stop offset=".93" stop-color="#1f4e4a"/>
      <stop offset=".93" stop-color="#1f4d49"/>
      <stop offset=".94" stop-color="#1f4c48"/>
      <stop offset=".94" stop-color="#1f4b47"/>
      <stop offset=".95" stop-color="#1e4a46"/>
      <stop offset=".95" stop-color="#1e4945"/>
      <stop offset=".95" stop-color="#1e4843"/>
      <stop offset=".96" stop-color="#1e4742"/>
      <stop offset=".96" stop-color="#1e4641"/>
      <stop offset=".96" stop-color="#1d4540"/>
      <stop offset=".97" stop-color="#1d443f"/>
      <stop offset=".97" stop-color="#1d433e"/>
      <stop offset=".98" stop-color="#1c413d"/>
      <stop offset=".98" stop-color="#1c403b"/>
      <stop offset=".98" stop-color="#1c3f3a"/>
      <stop offset=".99" stop-color="#1c3e39"/>
      <stop offset=".99" stop-color="#1b3d38"/>
      <stop offset="1" stop-color="#1b3c37"/>
      <stop offset="1" stop-color="#1b3b36"/>
    </linearGradient>
  </defs>
  <g id="Elements">
    <g class="cls-5">
      <g class="cls-2">
        <g class="cls-3">
          <path class="cls-4" d="M318.34,0H.21v398.65h318.13V0Z"/>
        </g>
      </g>
    </g>
  </g>
</svg>