<?xml version="1.0" encoding="UTF-8"?>
<svg id="Layer_2" data-name="Layer 2" xmlns="http://www.w3.org/2000/svg" xmlns:xlink="http://www.w3.org/1999/xlink" viewBox="0 0 137.88 166.9">
  <defs>
    <style>
      .cls-1 {
        fill: url(#linear-gradient-2);
      }

      .cls-2 {
        fill: url(#linear-gradient-3);
      }

      .cls-3 {
        fill: url(#linear-gradient);
      }
    </style>
    <linearGradient id="linear-gradient" x1="0" y1="83.45" x2="137.88" y2="83.45" gradientUnits="userSpaceOnUse">
      <stop offset="0" stop-color="#60c9b6"/>
      <stop offset=".02" stop-color="#60c9b6"/>
      <stop offset=".02" stop-color="#60c9b6"/>
      <stop offset=".03" stop-color="#60c9b7"/>
      <stop offset=".04" stop-color="#60c9b7"/>
      <stop offset=".05" stop-color="#60c9b7"/>
      <stop offset=".05" stop-color="#60c9b8"/>
      <stop offset=".06" stop-color="#60c9b8"/>
      <stop offset=".07" stop-color="#60c9b9"/>
      <stop offset=".08" stop-color="#61c9b9"/>
      <stop offset=".09" stop-color="#61c9b9"/>
      <stop offset=".09" stop-color="#61c9ba"/>
      <stop offset=".11" stop-color="#61c9ba"/>
      <stop offset=".12" stop-color="#61c9bb"/>
      <stop offset=".12" stop-color="#61c9bb"/>
      <stop offset=".13" stop-color="#61c9bc"/>
      <stop offset=".14" stop-color="#61c9bc"/>
      <stop offset=".16" stop-color="#61c9bc"/>
      <stop offset=".16" stop-color="#61cabd"/>
      <stop offset=".17" stop-color="#61cabd"/>
      <stop offset=".18" stop-color="#61cabe"/>
      <stop offset=".18" stop-color="#61cabe"/>
      <stop offset=".19" stop-color="#61cabe"/>
      <stop offset=".2" stop-color="#61cabe"/>
      <stop offset=".2" stop-color="#61cabf"/>
      <stop offset=".22" stop-color="#61cabf"/>
      <stop offset=".22" stop-color="#61cac0"/>
      <stop offset=".23" stop-color="#61cac0"/>
      <stop offset=".23" stop-color="#61cac0"/>
      <stop offset=".24" stop-color="#61cac0"/>
      <stop offset=".25" stop-color="#61cac1"/>
      <stop offset=".26" stop-color="#61cac1"/>
      <stop offset=".26" stop-color="#62cac1"/>
      <stop offset=".27" stop-color="#62cac2"/>
      <stop offset=".27" stop-color="#62cac2"/>
      <stop offset=".28" stop-color="#62cac2"/>
      <stop offset=".3" stop-color="#62cac3"/>
      <stop offset=".31" stop-color="#62cac3"/>
      <stop offset=".33" stop-color="#62cac4"/>
      <stop offset=".34" stop-color="#62cac4"/>
      <stop offset=".34" stop-color="#62cac5"/>
      <stop offset=".35" stop-color="#62cac5"/>
      <stop offset=".36" stop-color="#62cac6"/>
      <stop offset=".38" stop-color="#62cac6"/>
      <stop offset=".38" stop-color="#62cac7"/>
      <stop offset=".39" stop-color="#62cac7"/>
      <stop offset=".41" stop-color="#62cac7"/>
      <stop offset=".41" stop-color="#63cbc7"/>
      <stop offset=".42" stop-color="#63cbc8"/>
      <stop offset=".43" stop-color="#63cbc8"/>
      <stop offset=".43" stop-color="#61cac7"/>
      <stop offset=".44" stop-color="#60cac7"/>
      <stop offset=".44" stop-color="#60c9c6"/>
      <stop offset=".45" stop-color="#5fc9c5"/>
      <stop offset=".45" stop-color="#5ec9c5"/>
      <stop offset=".45" stop-color="#5dc9c4"/>
      <stop offset=".46" stop-color="#5cc8c4"/>
      <stop offset=".46" stop-color="#5bc8c4"/>
      <stop offset=".46" stop-color="#5ac8c3"/>
      <stop offset=".47" stop-color="#5ac7c2"/>
      <stop offset=".47" stop-color="#59c7c2"/>
      <stop offset=".48" stop-color="#58c7c1"/>
      <stop offset=".48" stop-color="#57c6c1"/>
      <stop offset=".48" stop-color="#56c6c0"/>
      <stop offset=".49" stop-color="#55c6bf"/>
      <stop offset=".49" stop-color="#53c5bf"/>
      <stop offset=".5" stop-color="#53c5be"/>
      <stop offset=".5" stop-color="#52c5be"/>
      <stop offset=".5" stop-color="#51c4bd"/>
      <stop offset=".51" stop-color="#50c4bc"/>
      <stop offset=".51" stop-color="#4fc4bb"/>
      <stop offset=".52" stop-color="#4ec3bb"/>
      <stop offset=".52" stop-color="#4dc3ba"/>
      <stop offset=".52" stop-color="#4dc3ba"/>
      <stop offset=".53" stop-color="#4cc3b9"/>
      <stop offset=".53" stop-color="#4bc2b8"/>
      <stop offset=".54" stop-color="#4ac1b7"/>
      <stop offset=".54" stop-color="#49c1b7"/>
      <stop offset=".54" stop-color="#48c0b6"/>
      <stop offset=".55" stop-color="#47beb5"/>
      <stop offset=".55" stop-color="#47bdb3"/>
      <stop offset=".55" stop-color="#46bdb2"/>
      <stop offset=".56" stop-color="#46bbb1"/>
      <stop offset=".56" stop-color="#45bab0"/>
      <stop offset=".57" stop-color="#44b9b0"/>
      <stop offset=".57" stop-color="#44b8af"/>
      <stop offset=".57" stop-color="#43b7ae"/>
      <stop offset=".58" stop-color="#43b6ad"/>
      <stop offset=".58" stop-color="#43b5ac"/>
      <stop offset=".59" stop-color="#42b4ab"/>
      <stop offset=".59" stop-color="#42b2aa"/>
      <stop offset=".59" stop-color="#41b1a9"/>
      <stop offset=".6" stop-color="#41b0a8"/>
      <stop offset=".6" stop-color="#41afa7"/>
      <stop offset=".61" stop-color="#40aea6"/>
      <stop offset=".61" stop-color="#40aca6"/>
      <stop offset=".61" stop-color="#3faba5"/>
      <stop offset=".62" stop-color="#3faaa4"/>
      <stop offset=".62" stop-color="#3ea9a2"/>
      <stop offset=".62" stop-color="#3ea7a1"/>
      <stop offset=".63" stop-color="#3da6a0"/>
      <stop offset=".63" stop-color="#3da59f"/>
      <stop offset=".64" stop-color="#3da49e"/>
      <stop offset=".64" stop-color="#3da49d"/>
      <stop offset=".64" stop-color="#3ca29c"/>
      <stop offset=".65" stop-color="#3ca19b"/>
      <stop offset=".65" stop-color="#3ba09a"/>
      <stop offset=".66" stop-color="#3a9f99"/>
      <stop offset=".66" stop-color="#3a9d98"/>
      <stop offset=".66" stop-color="#399c97"/>
      <stop offset=".67" stop-color="#399b96"/>
      <stop offset=".67" stop-color="#399a95"/>
      <stop offset=".68" stop-color="#389994"/>
      <stop offset=".68" stop-color="#379893"/>
      <stop offset=".68" stop-color="#379792"/>
      <stop offset=".69" stop-color="#379590"/>
      <stop offset=".69" stop-color="#36948f"/>
      <stop offset=".7" stop-color="#36948e"/>
      <stop offset=".7" stop-color="#36938e"/>
      <stop offset=".7" stop-color="#35918d"/>
      <stop offset=".71" stop-color="#35908c"/>
      <stop offset=".71" stop-color="#348f8b"/>
      <stop offset=".71" stop-color="#348e89"/>
      <stop offset=".72" stop-color="#348d88"/>
      <stop offset=".72" stop-color="#338b87"/>
      <stop offset=".73" stop-color="#338a86"/>
      <stop offset=".73" stop-color="#338985"/>
      <stop offset=".73" stop-color="#328783"/>
      <stop offset=".74" stop-color="#328682"/>
      <stop offset=".74" stop-color="#318581"/>
      <stop offset=".75" stop-color="#318480"/>
      <stop offset=".75" stop-color="#30837f"/>
      <stop offset=".75" stop-color="#30827e"/>
      <stop offset=".76" stop-color="#2f817d"/>
      <stop offset=".76" stop-color="#2f807c"/>
      <stop offset=".77" stop-color="#2e7e7b"/>
      <stop offset=".77" stop-color="#2e7d79"/>
      <stop offset=".77" stop-color="#2d7c78"/>
      <stop offset=".78" stop-color="#2d7b77"/>
      <stop offset=".78" stop-color="#2d7a76"/>
      <stop offset=".79" stop-color="#2d7875"/>
      <stop offset=".79" stop-color="#2c7774"/>
      <stop offset=".79" stop-color="#2c7673"/>
      <stop offset=".8" stop-color="#2b7571"/>
      <stop offset=".8" stop-color="#2b7470"/>
      <stop offset=".8" stop-color="#2b726f"/>
      <stop offset=".81" stop-color="#2a716e"/>
      <stop offset=".81" stop-color="#2a706c"/>
      <stop offset=".82" stop-color="#296f6b"/>
      <stop offset=".82" stop-color="#296e6a"/>
      <stop offset=".82" stop-color="#286c69"/>
      <stop offset=".83" stop-color="#286b68"/>
      <stop offset=".83" stop-color="#286a67"/>
      <stop offset=".84" stop-color="#286966"/>
      <stop offset=".84" stop-color="#276864"/>
      <stop offset=".84" stop-color="#276763"/>
      <stop offset=".85" stop-color="#276662"/>
      <stop offset=".85" stop-color="#266561"/>
      <stop offset=".86" stop-color="#266360"/>
      <stop offset=".86" stop-color="#25625f"/>
      <stop offset=".86" stop-color="#25615e"/>
      <stop offset=".87" stop-color="#25605c"/>
      <stop offset=".87" stop-color="#245f5b"/>
      <stop offset=".88" stop-color="#245e5a"/>
      <stop offset=".88" stop-color="#245d59"/>
      <stop offset=".88" stop-color="#235b58"/>
      <stop offset=".89" stop-color="#235a56"/>
      <stop offset=".89" stop-color="#225955"/>
      <stop offset=".89" stop-color="#225854"/>
      <stop offset=".9" stop-color="#225753"/>
      <stop offset=".9" stop-color="#225652"/>
      <stop offset=".91" stop-color="#225551"/>
      <stop offset=".91" stop-color="#215450"/>
      <stop offset=".91" stop-color="#21534f"/>
      <stop offset=".92" stop-color="#21524d"/>
      <stop offset=".92" stop-color="#20514c"/>
      <stop offset=".93" stop-color="#204f4b"/>
      <stop offset=".93" stop-color="#1f4e4a"/>
      <stop offset=".93" stop-color="#1f4d49"/>
      <stop offset=".94" stop-color="#1f4c48"/>
      <stop offset=".94" stop-color="#1f4b47"/>
      <stop offset=".95" stop-color="#1e4a46"/>
      <stop offset=".95" stop-color="#1e4944"/>
      <stop offset=".95" stop-color="#1e4843"/>
      <stop offset=".96" stop-color="#1e4742"/>
      <stop offset=".96" stop-color="#1e4641"/>
      <stop offset=".96" stop-color="#1d4540"/>
      <stop offset=".97" stop-color="#1d433f"/>
      <stop offset=".97" stop-color="#1d423d"/>
      <stop offset=".98" stop-color="#1c413c"/>
      <stop offset=".98" stop-color="#1c403b"/>
      <stop offset=".98" stop-color="#1c3f3a"/>
      <stop offset=".99" stop-color="#1c3e39"/>
      <stop offset=".99" stop-color="#1b3d38"/>
      <stop offset="1" stop-color="#1b3c37"/>
      <stop offset="1" stop-color="#1b3b36"/>
    </linearGradient>
    <linearGradient id="linear-gradient-2" x1="82.77" y1="68.93" x2="93.28" y2="68.93" xlink:href="#linear-gradient"/>
    <linearGradient id="linear-gradient-3" x1="97.37" y1="88.2" x2="107" y2="88.2" xlink:href="#linear-gradient"/>
  </defs>
  <g id="Elements_2" data-name="Elements 2">
    <g>
      <path class="cls-3" d="M137.6,112.62c-.11-2.71-.65-3.58-4.26-2.88-6.54,1.27-20.44-1.22-27.28-2.91-7.17-1.77-16.17-6.42-18.61-8.25-1.7-1.28-1.44-2.24.75-2.51,1.85-.22,4.56-1.46,6.54-3.23,3.35.99,7.3-.59,8.49-2.37,1.18-1.78,4.34-4.14,7.3-6.51-4.34-.59-7.89-.79-11.64-1.38-.59-1.97-3.75-5.92-6.51-8.09,1.58-2.76,2.56-10.66,2.76-13.81-3.55,2.17-7.89,3.35-10.26,4.54-2.37,1.18-4.4,4.18-4.34,6.71-1.97.99-4.96,2.76-6.15,4.67-1.99,3.21-3,1.85-3.66-.06-.94-2.71-3.46-10.26-4.05-16.31-.62-6.35,1.25-14.02,4.43-17.92,1.33-1.63,1.05-2.96-1.55-6.65-3.4-4.82-13.07-13.96-27.03-22.15C28.58,5.32,9.97,1.33,0,0c15.06,8.2,26.14,18.61,26.36,24.81.22,6.2-.22,10.63-5.76,14.84,8.86,5.32,11.96,11.52,12.85,15.73.89,4.21.89,9.3-5.54,12.85,8.27,4.79,11.25,9.3,12.85,14.18,2.01,6.1,2.05,21.16-7.42,30.13,15.87-1.58,22.9-.86,27.08.83,6.02,2.43,10.59,9.78,9.71,14.88,8.64-3.66,14.69-3.36,19.37-.75,7.54,4.2,10.92,10.32,11.17,16.11,7.53-3.54,14.11-4.55,20.53-.35,6.42,4.21,8.93,12.57,10.92,23.64,7.31-18.61,5.65-50.29,5.48-54.28ZM94.71,91.38c-3.86,1.1-5.69.18-7.62-2.75,2.02-.18,5.23.64,7.62,2.75ZM33.69,68.08c6.17-1.94,21.05-4.74,28.29-3.45-7.94,1.21-22.34,2.93-28.29,3.45ZM24.93,39.31c8.24-2.03,32.56-2.11,40.72.95-8.45-.69-32.44-1.64-40.72-.95ZM82.22,76.32c1.83,1.38,3.03,6.15,1.74,9.36-4.41-3.67-3.12-4.96-1.74-9.36ZM73.74,123.72c3.57-4.4,13.1-13.65,19.02-16.21-5.22,4.72-14.92,12.95-19.02,16.21ZM103.27,137.95c3.98-6.28,19.32-21.1,26.33-24.11-5.77,4.69-21.51,18.65-26.33,24.11Z"/>
      <g>
        <path class="cls-1" d="M89.95,72.67c.74-.99,2.81-6.36,3.33-8.58-1.91,2.97-3.39,5.45-4.22,6.33-.88.93-1.61,1.42-2.81,1.44-1.34.03-2.35-.04-3.48-.59,1.77,1.7,3.86,2.23,4.67,2.45s1.84-.16,2.5-1.04Z"/>
        <path class="cls-2" d="M107,84.98c-1.78.22-5.48.22-6.51.52-1.04.3-1.92.95-2.22,1.92-.18.61-.96,2.96-.89,4,.52-.96,1.41-2.68,1.98-3.36.53-.64,1.29-1.42,2.45-1.63,1.11-.19,3.47-1,5.18-1.45Z"/>
      </g>
    </g>
  </g>
</svg>