<?xml version="1.0" encoding="UTF-8"?>
<svg id="Layer_2" data-name="Layer 2" xmlns="http://www.w3.org/2000/svg" xmlns:xlink="http://www.w3.org/1999/xlink" viewBox="0 0 145.9 251.33">
  <defs>
    <style>
      .cls-1 {
        fill: url(#linear-gradient);
      }
    </style>
    <linearGradient id="linear-gradient" x1="0" y1="125.66" x2="145.9" y2="125.66" gradientUnits="userSpaceOnUse">
      <stop offset="0" stop-color="#60c9b6"/>
      <stop offset=".02" stop-color="#60c9b6"/>
      <stop offset=".02" stop-color="#60c9b6"/>
      <stop offset=".03" stop-color="#60c9b7"/>
      <stop offset=".04" stop-color="#60c9b7"/>
      <stop offset=".05" stop-color="#60c9b7"/>
      <stop offset=".05" stop-color="#60c9b8"/>
      <stop offset=".06" stop-color="#60c9b8"/>
      <stop offset=".07" stop-color="#60c9b9"/>
      <stop offset=".08" stop-color="#61c9b9"/>
      <stop offset=".09" stop-color="#61c9b9"/>
      <stop offset=".09" stop-color="#61c9ba"/>
      <stop offset=".11" stop-color="#61c9ba"/>
      <stop offset=".12" stop-color="#61c9bb"/>
      <stop offset=".12" stop-color="#61c9bb"/>
      <stop offset=".13" stop-color="#61c9bc"/>
      <stop offset=".14" stop-color="#61c9bc"/>
      <stop offset=".16" stop-color="#61c9bc"/>
      <stop offset=".16" stop-color="#61cabd"/>
      <stop offset=".17" stop-color="#61cabd"/>
      <stop offset=".18" stop-color="#61cabe"/>
      <stop offset=".18" stop-color="#61cabe"/>
      <stop offset=".19" stop-color="#61cabe"/>
      <stop offset=".2" stop-color="#61cabe"/>
      <stop offset=".2" stop-color="#61cabf"/>
      <stop offset=".22" stop-color="#61cabf"/>
      <stop offset=".22" stop-color="#61cac0"/>
      <stop offset=".23" stop-color="#61cac0"/>
      <stop offset=".23" stop-color="#61cac0"/>
      <stop offset=".24" stop-color="#61cac0"/>
      <stop offset=".25" stop-color="#61cac1"/>
      <stop offset=".26" stop-color="#61cac1"/>
      <stop offset=".26" stop-color="#62cac1"/>
      <stop offset=".27" stop-color="#62cac2"/>
      <stop offset=".27" stop-color="#62cac2"/>
      <stop offset=".28" stop-color="#62cac2"/>
      <stop offset=".3" stop-color="#62cac3"/>
      <stop offset=".31" stop-color="#62cac3"/>
      <stop offset=".33" stop-color="#62cac4"/>
      <stop offset=".34" stop-color="#62cac4"/>
      <stop offset=".34" stop-color="#62cac5"/>
      <stop offset=".35" stop-color="#62cac5"/>
      <stop offset=".36" stop-color="#62cac6"/>
      <stop offset=".38" stop-color="#62cac6"/>
      <stop offset=".38" stop-color="#62cac7"/>
      <stop offset=".39" stop-color="#62cac7"/>
      <stop offset=".41" stop-color="#62cac7"/>
      <stop offset=".41" stop-color="#63cbc7"/>
      <stop offset=".42" stop-color="#63cbc8"/>
      <stop offset=".43" stop-color="#63cbc8"/>
      <stop offset=".43" stop-color="#61cac7"/>
      <stop offset=".44" stop-color="#60cac7"/>
      <stop offset=".44" stop-color="#60c9c6"/>
      <stop offset=".45" stop-color="#5fc9c5"/>
      <stop offset=".45" stop-color="#5ec9c5"/>
      <stop offset=".45" stop-color="#5dc9c4"/>
      <stop offset=".46" stop-color="#5cc8c4"/>
      <stop offset=".46" stop-color="#5bc8c4"/>
      <stop offset=".46" stop-color="#5ac8c3"/>
      <stop offset=".47" stop-color="#5ac7c2"/>
      <stop offset=".47" stop-color="#59c7c2"/>
      <stop offset=".48" stop-color="#58c7c1"/>
      <stop offset=".48" stop-color="#57c6c1"/>
      <stop offset=".48" stop-color="#56c6c0"/>
      <stop offset=".49" stop-color="#55c6bf"/>
      <stop offset=".49" stop-color="#53c5bf"/>
      <stop offset=".5" stop-color="#53c5be"/>
      <stop offset=".5" stop-color="#52c5be"/>
      <stop offset=".5" stop-color="#51c4bd"/>
      <stop offset=".51" stop-color="#50c4bc"/>
      <stop offset=".51" stop-color="#4fc4bb"/>
      <stop offset=".52" stop-color="#4ec3bb"/>
      <stop offset=".52" stop-color="#4dc3ba"/>
      <stop offset=".52" stop-color="#4dc3ba"/>
      <stop offset=".53" stop-color="#4cc3b9"/>
      <stop offset=".53" stop-color="#4bc2b8"/>
      <stop offset=".54" stop-color="#4ac1b7"/>
      <stop offset=".54" stop-color="#49c1b7"/>
      <stop offset=".54" stop-color="#48c0b6"/>
      <stop offset=".55" stop-color="#47beb5"/>
      <stop offset=".55" stop-color="#47bdb3"/>
      <stop offset=".55" stop-color="#46bdb2"/>
      <stop offset=".56" stop-color="#46bbb1"/>
      <stop offset=".56" stop-color="#45bab0"/>
      <stop offset=".57" stop-color="#44b9b0"/>
      <stop offset=".57" stop-color="#44b8af"/>
      <stop offset=".57" stop-color="#43b7ae"/>
      <stop offset=".58" stop-color="#43b6ad"/>
      <stop offset=".58" stop-color="#43b5ac"/>
      <stop offset=".59" stop-color="#42b4ab"/>
      <stop offset=".59" stop-color="#42b2aa"/>
      <stop offset=".59" stop-color="#41b1a9"/>
      <stop offset=".6" stop-color="#41b0a8"/>
      <stop offset=".6" stop-color="#41afa7"/>
      <stop offset=".61" stop-color="#40aea6"/>
      <stop offset=".61" stop-color="#40aca6"/>
      <stop offset=".61" stop-color="#3faba5"/>
      <stop offset=".62" stop-color="#3faaa4"/>
      <stop offset=".62" stop-color="#3ea9a2"/>
      <stop offset=".62" stop-color="#3ea7a1"/>
      <stop offset=".63" stop-color="#3da6a0"/>
      <stop offset=".63" stop-color="#3da59f"/>
      <stop offset=".64" stop-color="#3da49e"/>
      <stop offset=".64" stop-color="#3da49d"/>
      <stop offset=".64" stop-color="#3ca29c"/>
      <stop offset=".65" stop-color="#3ca19b"/>
      <stop offset=".65" stop-color="#3ba09a"/>
      <stop offset=".66" stop-color="#3a9f99"/>
      <stop offset=".66" stop-color="#3a9d98"/>
      <stop offset=".66" stop-color="#399c97"/>
      <stop offset=".67" stop-color="#399b96"/>
      <stop offset=".67" stop-color="#399a95"/>
      <stop offset=".68" stop-color="#389994"/>
      <stop offset=".68" stop-color="#379893"/>
      <stop offset=".68" stop-color="#379792"/>
      <stop offset=".69" stop-color="#379590"/>
      <stop offset=".69" stop-color="#36948f"/>
      <stop offset=".7" stop-color="#36948e"/>
      <stop offset=".7" stop-color="#36938e"/>
      <stop offset=".7" stop-color="#35918d"/>
      <stop offset=".71" stop-color="#35908c"/>
      <stop offset=".71" stop-color="#348f8b"/>
      <stop offset=".71" stop-color="#348e89"/>
      <stop offset=".72" stop-color="#348d88"/>
      <stop offset=".72" stop-color="#338b87"/>
      <stop offset=".73" stop-color="#338a86"/>
      <stop offset=".73" stop-color="#338985"/>
      <stop offset=".73" stop-color="#328783"/>
      <stop offset=".74" stop-color="#328682"/>
      <stop offset=".74" stop-color="#318581"/>
      <stop offset=".75" stop-color="#318480"/>
      <stop offset=".75" stop-color="#30837f"/>
      <stop offset=".75" stop-color="#30827e"/>
      <stop offset=".76" stop-color="#2f817d"/>
      <stop offset=".76" stop-color="#2f807c"/>
      <stop offset=".77" stop-color="#2e7e7b"/>
      <stop offset=".77" stop-color="#2e7d79"/>
      <stop offset=".77" stop-color="#2d7c78"/>
      <stop offset=".78" stop-color="#2d7b77"/>
      <stop offset=".78" stop-color="#2d7a76"/>
      <stop offset=".79" stop-color="#2d7875"/>
      <stop offset=".79" stop-color="#2c7774"/>
      <stop offset=".79" stop-color="#2c7673"/>
      <stop offset=".8" stop-color="#2b7571"/>
      <stop offset=".8" stop-color="#2b7470"/>
      <stop offset=".8" stop-color="#2b726f"/>
      <stop offset=".81" stop-color="#2a716e"/>
      <stop offset=".81" stop-color="#2a706c"/>
      <stop offset=".82" stop-color="#296f6b"/>
      <stop offset=".82" stop-color="#296e6a"/>
      <stop offset=".82" stop-color="#286c69"/>
      <stop offset=".83" stop-color="#286b68"/>
      <stop offset=".83" stop-color="#286a67"/>
      <stop offset=".84" stop-color="#286966"/>
      <stop offset=".84" stop-color="#276864"/>
      <stop offset=".84" stop-color="#276763"/>
      <stop offset=".85" stop-color="#276662"/>
      <stop offset=".85" stop-color="#266561"/>
      <stop offset=".86" stop-color="#266360"/>
      <stop offset=".86" stop-color="#25625f"/>
      <stop offset=".86" stop-color="#25615e"/>
      <stop offset=".87" stop-color="#25605c"/>
      <stop offset=".87" stop-color="#245f5b"/>
      <stop offset=".88" stop-color="#245e5a"/>
      <stop offset=".88" stop-color="#245d59"/>
      <stop offset=".88" stop-color="#235b58"/>
      <stop offset=".89" stop-color="#235a56"/>
      <stop offset=".89" stop-color="#225955"/>
      <stop offset=".89" stop-color="#225854"/>
      <stop offset=".9" stop-color="#225753"/>
      <stop offset=".9" stop-color="#225652"/>
      <stop offset=".91" stop-color="#225551"/>
      <stop offset=".91" stop-color="#215450"/>
      <stop offset=".91" stop-color="#21534f"/>
      <stop offset=".92" stop-color="#21524d"/>
      <stop offset=".92" stop-color="#20514c"/>
      <stop offset=".93" stop-color="#204f4b"/>
      <stop offset=".93" stop-color="#1f4e4a"/>
      <stop offset=".93" stop-color="#1f4d49"/>
      <stop offset=".94" stop-color="#1f4c48"/>
      <stop offset=".94" stop-color="#1f4b47"/>
      <stop offset=".95" stop-color="#1e4a46"/>
      <stop offset=".95" stop-color="#1e4944"/>
      <stop offset=".95" stop-color="#1e4843"/>
      <stop offset=".96" stop-color="#1e4742"/>
      <stop offset=".96" stop-color="#1e4641"/>
      <stop offset=".96" stop-color="#1d4540"/>
      <stop offset=".97" stop-color="#1d433f"/>
      <stop offset=".97" stop-color="#1d423d"/>
      <stop offset=".98" stop-color="#1c413c"/>
      <stop offset=".98" stop-color="#1c403b"/>
      <stop offset=".98" stop-color="#1c3f3a"/>
      <stop offset=".99" stop-color="#1c3e39"/>
      <stop offset=".99" stop-color="#1b3d38"/>
      <stop offset="1" stop-color="#1b3c37"/>
      <stop offset="1" stop-color="#1b3b36"/>
    </linearGradient>
  </defs>
  <g id="Elements_2" data-name="Elements 2">
    <path class="cls-1" d="M145.16,121.43c-6.02-26.07-22.07-63.59-26.37-74.99-4.3-11.4-8.76-21-17.32-30.99,5.99,14.84,11.99,39.99,13.35,50.2.83,6.27,2.54,24.75-.44,30.93-2.98,6.19-4.3,3.25-6.29-3.91-2.13-7.68-5-26.55-6.95-36.47-.33,6.84-1.1,23.23-2.76,29.09-1.65,5.86-3.64,6.51-5.62-2.28-1.73-7.66-5.37-18.33-8.1-29.48-2.38-9.71-3.59-14.84-4.83-20.35-1.31-5.84-1.6-5.77-1.93-12.93,2.24-3.38,4.15-4.38,6.09-5.55,2.65-1.6,2.3-5.65-.98-8.93-1.39-1.39-3.16-2.7-8.04-5.77,0,0-.32,3.97-1.18,7.25-1.06,4.08-4.71,4.35-6.28,0-.52-1.44-1.21-4-1.8-7.19-1.53,1.53-6.7,3.35-8.93,5.58-2.23,2.23-3.77,5.02-2.23,7.95.96,1.83,4.83,3.15,8.09,7.05-.99,9.11-2.55,23.4-3.88,32.52-1.32,9.12-5.5,26.12-7.15,33.28-1.65,7.16-3.31,6.84-4.63.65-1.33-6.19-2.42-22.73-2.42-27.62-.66,7.81-4.35,34.2-6.67,41.04-2.32,6.84-4.51,5.6-5.13-1.54-.77-8.94,2.77-43.68,4.19-51.22,1.91-10.19,6.28-25.05,8.59-30.58-9.99,13.7-17.32,31.05-21.57,42.46-3.82,10.26-10.46,23.83-12.11,30.03-1.99,7.49-7.28,21.37-9.99,33.25-2.9,12.74-2.34,27.26,1.14,48.37,1.71,10.36,6.43,47.48,11.07,62.31,3.08,9.84,9.88,10.4,10.05,2.47.63-28.58,10.7-50.66,10.7-50.66l14.13,6.42c-6.64,5.78-8.32,14.4-6.6,19.28-4.07,4.01-8.98,13.17-8.1,19.53.79,5.72,8.5,16.69,10.13,20.69,1.86-10.42,4.59-23.24,9.07-27.64,7.17,6.18,22.89,5.59,32.66.39,4.48,7.21,9.39,19.56,11.42,25.97,3.35-6.35,8.1-12.89,9.2-18.41,1.28-6.42-.65-13.4-6.01-19.44-.78-7.98-2.55-15.02-8.97-21.23,3.14-1.71,12.7-5.42,15.98-7.71,4.63,9.77,7.12,32.45,8.11,47.42.99,14.98,6.62,15.3,11.58,4.23,4.96-11.07,11.88-51.74,13.41-60.79,2.71-15.97,6.73-42.21,4.31-52.7ZM50.37,212.92c1.72-5.97,3.31-8.36,7.56-9.8,3.32-1.13,5.95-.11,9.61,2.93,0,0-6.41,6.64-17.17,6.87ZM70.4,19.5c2.12,13.12,3.88,30.96,3.52,38.36-.91,18.51-2.38,17.36-4.18.32-.58-5.5.18-28.79.67-38.68ZM71.87,206.05c3.66-3.04,6.29-4.06,9.61-2.93,4.25,1.44,5.84,3.83,7.56,9.8-10.76-.23-17.17-6.87-17.17-6.87Z"/>
  </g>
</svg>