<?xml version="1.0" encoding="UTF-8"?>
<svg id="Layer_2" data-name="Layer 2" xmlns="http://www.w3.org/2000/svg" xmlns:xlink="http://www.w3.org/1999/xlink" viewBox="0 0 202.92 368.18">
  <defs>
    <style>
      .cls-1 {
        fill: url(#linear-gradient-2);
      }

      .cls-2 {
        fill: url(#linear-gradient-4);
      }

      .cls-3 {
        fill: url(#linear-gradient-3);
      }

      .cls-4 {
        fill: url(#linear-gradient-5);
      }

      .cls-5 {
        fill: url(#linear-gradient-6);
      }

      .cls-6 {
        fill: url(#linear-gradient);
      }
    </style>
    <linearGradient id="linear-gradient" x1="97.1" y1="38.95" x2="103.91" y2="38.95" gradientUnits="userSpaceOnUse">
      <stop offset="0" stop-color="#60c9b6"/>
      <stop offset=".02" stop-color="#60c9b6"/>
      <stop offset=".02" stop-color="#60c9b6"/>
      <stop offset=".03" stop-color="#60c9b7"/>
      <stop offset=".04" stop-color="#60c9b7"/>
      <stop offset=".05" stop-color="#60c9b7"/>
      <stop offset=".05" stop-color="#60c9b8"/>
      <stop offset=".06" stop-color="#60c9b8"/>
      <stop offset=".07" stop-color="#60c9b9"/>
      <stop offset=".08" stop-color="#61c9b9"/>
      <stop offset=".09" stop-color="#61c9b9"/>
      <stop offset=".09" stop-color="#61c9ba"/>
      <stop offset=".11" stop-color="#61c9ba"/>
      <stop offset=".12" stop-color="#61c9bb"/>
      <stop offset=".12" stop-color="#61c9bb"/>
      <stop offset=".13" stop-color="#61c9bc"/>
      <stop offset=".14" stop-color="#61c9bc"/>
      <stop offset=".16" stop-color="#61c9bc"/>
      <stop offset=".16" stop-color="#61cabd"/>
      <stop offset=".17" stop-color="#61cabd"/>
      <stop offset=".18" stop-color="#61cabe"/>
      <stop offset=".18" stop-color="#61cabe"/>
      <stop offset=".19" stop-color="#61cabe"/>
      <stop offset=".2" stop-color="#61cabe"/>
      <stop offset=".2" stop-color="#61cabf"/>
      <stop offset=".22" stop-color="#61cabf"/>
      <stop offset=".22" stop-color="#61cac0"/>
      <stop offset=".23" stop-color="#61cac0"/>
      <stop offset=".23" stop-color="#61cac0"/>
      <stop offset=".24" stop-color="#61cac0"/>
      <stop offset=".25" stop-color="#61cac1"/>
      <stop offset=".26" stop-color="#61cac1"/>
      <stop offset=".26" stop-color="#62cac1"/>
      <stop offset=".27" stop-color="#62cac2"/>
      <stop offset=".27" stop-color="#62cac2"/>
      <stop offset=".28" stop-color="#62cac2"/>
      <stop offset=".3" stop-color="#62cac3"/>
      <stop offset=".31" stop-color="#62cac3"/>
      <stop offset=".33" stop-color="#62cac4"/>
      <stop offset=".34" stop-color="#62cac4"/>
      <stop offset=".34" stop-color="#62cac5"/>
      <stop offset=".35" stop-color="#62cac5"/>
      <stop offset=".36" stop-color="#62cac6"/>
      <stop offset=".38" stop-color="#62cac6"/>
      <stop offset=".38" stop-color="#62cac7"/>
      <stop offset=".39" stop-color="#62cac7"/>
      <stop offset=".41" stop-color="#62cac7"/>
      <stop offset=".41" stop-color="#63cbc7"/>
      <stop offset=".42" stop-color="#63cbc8"/>
      <stop offset=".43" stop-color="#63cbc8"/>
      <stop offset=".43" stop-color="#61cac7"/>
      <stop offset=".44" stop-color="#60cac7"/>
      <stop offset=".44" stop-color="#60c9c6"/>
      <stop offset=".45" stop-color="#5fc9c5"/>
      <stop offset=".45" stop-color="#5ec9c5"/>
      <stop offset=".45" stop-color="#5dc9c4"/>
      <stop offset=".46" stop-color="#5cc8c4"/>
      <stop offset=".46" stop-color="#5bc8c4"/>
      <stop offset=".46" stop-color="#5ac8c3"/>
      <stop offset=".47" stop-color="#5ac7c2"/>
      <stop offset=".47" stop-color="#59c7c2"/>
      <stop offset=".48" stop-color="#58c7c1"/>
      <stop offset=".48" stop-color="#57c6c1"/>
      <stop offset=".48" stop-color="#56c6c0"/>
      <stop offset=".49" stop-color="#55c6bf"/>
      <stop offset=".49" stop-color="#53c5bf"/>
      <stop offset=".5" stop-color="#53c5be"/>
      <stop offset=".5" stop-color="#52c5be"/>
      <stop offset=".5" stop-color="#51c4bd"/>
      <stop offset=".51" stop-color="#50c4bc"/>
      <stop offset=".51" stop-color="#4fc4bb"/>
      <stop offset=".52" stop-color="#4ec3bb"/>
      <stop offset=".52" stop-color="#4dc3ba"/>
      <stop offset=".52" stop-color="#4dc3ba"/>
      <stop offset=".53" stop-color="#4cc3b9"/>
      <stop offset=".53" stop-color="#4bc2b8"/>
      <stop offset=".54" stop-color="#4ac1b7"/>
      <stop offset=".54" stop-color="#49c1b7"/>
      <stop offset=".54" stop-color="#48c0b6"/>
      <stop offset=".55" stop-color="#47beb5"/>
      <stop offset=".55" stop-color="#47bdb3"/>
      <stop offset=".55" stop-color="#46bdb2"/>
      <stop offset=".56" stop-color="#46bbb1"/>
      <stop offset=".56" stop-color="#45bab0"/>
      <stop offset=".57" stop-color="#44b9b0"/>
      <stop offset=".57" stop-color="#44b8af"/>
      <stop offset=".57" stop-color="#43b7ae"/>
      <stop offset=".58" stop-color="#43b6ad"/>
      <stop offset=".58" stop-color="#43b5ac"/>
      <stop offset=".59" stop-color="#42b4ab"/>
      <stop offset=".59" stop-color="#42b2aa"/>
      <stop offset=".59" stop-color="#41b1a9"/>
      <stop offset=".6" stop-color="#41b0a8"/>
      <stop offset=".6" stop-color="#41afa7"/>
      <stop offset=".61" stop-color="#40aea6"/>
      <stop offset=".61" stop-color="#40aca6"/>
      <stop offset=".61" stop-color="#3faba5"/>
      <stop offset=".62" stop-color="#3faaa4"/>
      <stop offset=".62" stop-color="#3ea9a2"/>
      <stop offset=".62" stop-color="#3ea7a1"/>
      <stop offset=".63" stop-color="#3da6a0"/>
      <stop offset=".63" stop-color="#3da59f"/>
      <stop offset=".64" stop-color="#3da49e"/>
      <stop offset=".64" stop-color="#3da49d"/>
      <stop offset=".64" stop-color="#3ca29c"/>
      <stop offset=".65" stop-color="#3ca19b"/>
      <stop offset=".65" stop-color="#3ba09a"/>
      <stop offset=".66" stop-color="#3a9f99"/>
      <stop offset=".66" stop-color="#3a9d98"/>
      <stop offset=".66" stop-color="#399c97"/>
      <stop offset=".67" stop-color="#399b96"/>
      <stop offset=".67" stop-color="#399a95"/>
      <stop offset=".68" stop-color="#389994"/>
      <stop offset=".68" stop-color="#379893"/>
      <stop offset=".68" stop-color="#379792"/>
      <stop offset=".69" stop-color="#379590"/>
      <stop offset=".69" stop-color="#36948f"/>
      <stop offset=".7" stop-color="#36948e"/>
      <stop offset=".7" stop-color="#36938e"/>
      <stop offset=".7" stop-color="#35918d"/>
      <stop offset=".71" stop-color="#35908c"/>
      <stop offset=".71" stop-color="#348f8b"/>
      <stop offset=".71" stop-color="#348e89"/>
      <stop offset=".72" stop-color="#348d88"/>
      <stop offset=".72" stop-color="#338b87"/>
      <stop offset=".73" stop-color="#338a86"/>
      <stop offset=".73" stop-color="#338985"/>
      <stop offset=".73" stop-color="#328783"/>
      <stop offset=".74" stop-color="#328682"/>
      <stop offset=".74" stop-color="#318581"/>
      <stop offset=".75" stop-color="#318480"/>
      <stop offset=".75" stop-color="#30837f"/>
      <stop offset=".75" stop-color="#30827e"/>
      <stop offset=".76" stop-color="#2f817d"/>
      <stop offset=".76" stop-color="#2f807c"/>
      <stop offset=".77" stop-color="#2e7e7b"/>
      <stop offset=".77" stop-color="#2e7d79"/>
      <stop offset=".77" stop-color="#2d7c78"/>
      <stop offset=".78" stop-color="#2d7b77"/>
      <stop offset=".78" stop-color="#2d7a76"/>
      <stop offset=".79" stop-color="#2d7875"/>
      <stop offset=".79" stop-color="#2c7774"/>
      <stop offset=".79" stop-color="#2c7673"/>
      <stop offset=".8" stop-color="#2b7571"/>
      <stop offset=".8" stop-color="#2b7470"/>
      <stop offset=".8" stop-color="#2b726f"/>
      <stop offset=".81" stop-color="#2a716e"/>
      <stop offset=".81" stop-color="#2a706c"/>
      <stop offset=".82" stop-color="#296f6b"/>
      <stop offset=".82" stop-color="#296e6a"/>
      <stop offset=".82" stop-color="#286c69"/>
      <stop offset=".83" stop-color="#286b68"/>
      <stop offset=".83" stop-color="#286a67"/>
      <stop offset=".84" stop-color="#286966"/>
      <stop offset=".84" stop-color="#276864"/>
      <stop offset=".84" stop-color="#276763"/>
      <stop offset=".85" stop-color="#276662"/>
      <stop offset=".85" stop-color="#266561"/>
      <stop offset=".86" stop-color="#266360"/>
      <stop offset=".86" stop-color="#25625f"/>
      <stop offset=".86" stop-color="#25615e"/>
      <stop offset=".87" stop-color="#25605c"/>
      <stop offset=".87" stop-color="#245f5b"/>
      <stop offset=".88" stop-color="#245e5a"/>
      <stop offset=".88" stop-color="#245d59"/>
      <stop offset=".88" stop-color="#235b58"/>
      <stop offset=".89" stop-color="#235a56"/>
      <stop offset=".89" stop-color="#225955"/>
      <stop offset=".89" stop-color="#225854"/>
      <stop offset=".9" stop-color="#225753"/>
      <stop offset=".9" stop-color="#225652"/>
      <stop offset=".91" stop-color="#225551"/>
      <stop offset=".91" stop-color="#215450"/>
      <stop offset=".91" stop-color="#21534f"/>
      <stop offset=".92" stop-color="#21524d"/>
      <stop offset=".92" stop-color="#20514c"/>
      <stop offset=".93" stop-color="#204f4b"/>
      <stop offset=".93" stop-color="#1f4e4a"/>
      <stop offset=".93" stop-color="#1f4d49"/>
      <stop offset=".94" stop-color="#1f4c48"/>
      <stop offset=".94" stop-color="#1f4b47"/>
      <stop offset=".95" stop-color="#1e4a46"/>
      <stop offset=".95" stop-color="#1e4944"/>
      <stop offset=".95" stop-color="#1e4843"/>
      <stop offset=".96" stop-color="#1e4742"/>
      <stop offset=".96" stop-color="#1e4641"/>
      <stop offset=".96" stop-color="#1d4540"/>
      <stop offset=".97" stop-color="#1d433f"/>
      <stop offset=".97" stop-color="#1d423d"/>
      <stop offset=".98" stop-color="#1c413c"/>
      <stop offset=".98" stop-color="#1c403b"/>
      <stop offset=".98" stop-color="#1c3f3a"/>
      <stop offset=".99" stop-color="#1c3e39"/>
      <stop offset=".99" stop-color="#1b3d38"/>
      <stop offset="1" stop-color="#1b3c37"/>
      <stop offset="1" stop-color="#1b3b36"/>
    </linearGradient>
    <linearGradient id="linear-gradient-2" x1="60.1" y1="80.23" x2="66.91" y2="80.23" xlink:href="#linear-gradient"/>
    <linearGradient id="linear-gradient-3" x1="138.65" y1="73.44" x2="145.47" y2="73.44" xlink:href="#linear-gradient"/>
    <linearGradient id="linear-gradient-4" x1="16.12" y1="102.7" x2="22.93" y2="102.7" xlink:href="#linear-gradient"/>
    <linearGradient id="linear-gradient-5" x1="181.64" y1="100.44" x2="188.45" y2="100.44" xlink:href="#linear-gradient"/>
    <linearGradient id="linear-gradient-6" x1="0" y1="184.09" x2="202.92" y2="184.09" xlink:href="#linear-gradient"/>
  </defs>
  <g id="Elements_2" data-name="Elements 2">
    <g>
      <path class="cls-6" d="M102.36,47.8c.9-1.56,1.79-7.66,1.49-10.54-.3-2.87-1.82-7.8-3.97-7.3-2.09.48-2.78,4.31-2.78,7.54,0,2.84,1.5,7.14,2.5,10,.81.18,1.72.35,2.67.47.03-.06.06-.12.1-.18Z"/>
      <path class="cls-1" d="M65.36,89.08c.89-1.56,1.79-7.66,1.49-10.54-.3-2.87-1.82-7.79-3.97-7.3-2.09.48-2.78,4.31-2.78,7.54,0,2.84,1.5,7.14,2.5,10,.81.18,1.72.35,2.67.47.03-.06.06-.12.1-.17Z"/>
      <path class="cls-3" d="M143.92,82.29c.9-1.56,1.79-7.66,1.49-10.54-.3-2.87-1.82-7.79-3.97-7.3-2.09.48-2.78,4.31-2.78,7.54,0,2.84,1.5,7.14,2.5,10,.81.18,1.72.35,2.67.47.03-.06.06-.12.1-.17Z"/>
      <path class="cls-2" d="M21.39,111.55c.89-1.56,1.79-7.66,1.49-10.54-.3-2.87-1.82-7.8-3.97-7.3-2.09.48-2.78,4.31-2.78,7.54,0,2.84,1.5,7.14,2.5,10,.81.18,1.72.35,2.67.47.03-.06.06-.12.1-.17Z"/>
      <path class="cls-4" d="M186.9,109.29c.89-1.56,1.79-7.66,1.49-10.54-.3-2.87-1.82-7.8-3.97-7.3-2.09.48-2.78,4.31-2.78,7.54,0,2.84,1.5,7.14,2.5,10,.81.18,1.72.35,2.67.47.03-.06.06-.12.1-.18Z"/>
      <path class="cls-5" d="M202.92,186.67v-3.66h-6.87l1.12-34c1.19.16,2.38-.21,3.36-.99,1.68-1.35,3.15-4.35.58-10.99-.42-1.09-.85-2.99-1.24-5.46,0,0,.02-.01.03-.02,1.23-.99,2.33-3.11.62-7.54-.66-1.69-1.26-6.79-1.39-10.1l.21-3.61c.04-1.21-.4-2.34-1.24-3.17-.89-.88-2.17-1.34-3.54-1.28-.96.04-1.78.21-2.49.43,2.44-8.34,3.07-15.31,1.69-20.62-1.24-4.78-3.27-8.37-6.08-13.35-1.49-2.63-3.22-5.69-5.21-9.6-.48-.94-1.56-1.43-2.57-1.15-1.02.27-1.72,1.21-1.67,2.26.27,6.45-.71,8.94-2.2,12.71-.4,1-.82,2.08-1.26,3.32-2.29,6.44-.96,14.89,1.54,19.91.94,1.89,1.78,3.76,2.55,5.58-2.12-.25-4.46-.31-5.64-.08-2.84.57-5.38,3.03-4.65,7.25.23,1.31-1.02,3.3-1.93,4.76-.43.68-.82,1.31-1.09,1.86-1.43,2.86-1.26,6.25.4,8.43,1.33,1.75,3.43,2.48,5.76,2.02.64-.12,1.22-.39,1.76-.76l2.62,54.18h-6.71v3.66h7.32v49.39h-7.32v3.66h13.54v6.4c0,3.35-2.71,6.05-6.05,6.06h-30.24v-25.87h13v-3.66h-7.93v-49.39h7.93v-3.66h-6.57l1.16-47.58c1.17.13,2.35-.22,3.32-1,1.68-1.35,3.15-4.35.58-10.99h0c-.42-1.09-.85-2.99-1.24-5.46,0,0,.02-.01.02-.02,1.23-.99,2.34-3.1.62-7.55-.66-1.7-1.26-6.8-1.39-10.1l.21-3.61c.04-1.21-.4-2.34-1.24-3.17-.89-.88-2.16-1.32-3.54-1.27-.96.04-1.78.21-2.49.43,2.44-8.34,3.07-15.31,1.69-20.61-1.24-4.78-3.27-8.37-6.08-13.34-1.49-2.63-3.22-5.69-5.22-9.61-.48-.94-1.55-1.42-2.57-1.15-1.02.27-1.72,1.21-1.67,2.26.27,6.44-.71,8.94-2.2,12.7-.4,1.01-.82,2.09-1.26,3.32-2.29,6.44-.96,14.89,1.54,19.91.95,1.9,1.79,3.78,2.57,5.61-1.28-.08-2.58-.03-3.53.16-2.82.56-4.94,3.09-5.67,6.74-.32,1.63-1.14,3.36-1.85,4.89-.64,1.36-1.19,2.54-1.44,3.66-.83,3.68-.6,6.24.73,8.05.68.93,2,2.08,4.41,2.28.52.04,1.22-.01,1.96-.41l2.62,65.85h-7.02v3.66h7.32v49.39h-7.32v3.66h13.74v25.87h-33.46v-49.04h12.4v-3.66h-7.93v-49.39h7.93v-3.66h-7.27l1.18-58.89c1.15.12,2.34-.22,3.3-1,1.68-1.35,3.15-4.35.58-10.99-.42-1.09-.85-2.99-1.24-5.46,0,0,.02-.01.03-.02,1.23-.99,2.34-3.11.62-7.54-.66-1.7-1.26-6.8-1.39-10.1l.21-3.61c.04-1.21-.4-2.34-1.24-3.17-.89-.89-2.14-1.36-3.54-1.28-.96.04-1.78.21-2.49.43,2.44-8.34,3.07-15.31,1.69-20.61-1.24-4.78-3.27-8.37-6.08-13.35-1.48-2.63-3.22-5.69-5.21-9.6-.48-.94-1.56-1.43-2.57-1.15-1.02.27-1.72,1.21-1.67,2.26.27,6.44-.71,8.93-2.2,12.7-.4,1.01-.82,2.09-1.26,3.33-2.29,6.44-.96,14.89,1.54,19.91.94,1.9,1.79,3.77,2.56,5.61-1.28-.08-2.57-.03-3.52.16-3.49.7-5.82,2.87-6.38,5.97-.48,2.64-1.54,5.92-2.34,7.79-1.64,3.84-1.57,7.49.16,9.51.73.85,2.4,2.17,5.43,1.4.42-.11.8-.27,1.17-.49l2.71,78.21h-6.31v3.66h7.32v49.39h-7.32v3.66h13.17v49.04h-30.18v-25.87h12.74v-3.66h-7.32v-49.39h7.32v-3.66h-6.47l1.15-40.79c1.17.12,2.36-.22,3.33-1,1.68-1.35,3.15-4.35.58-10.99-.42-1.09-.85-2.99-1.24-5.46.01,0,.02-.01.03-.02,1.23-.99,2.34-3.11.62-7.54-.66-1.7-1.26-6.8-1.39-10.1l.21-3.61c.04-1.21-.4-2.33-1.24-3.17-.89-.88-2.15-1.35-3.54-1.28-.96.04-1.78.21-2.48.43,2.44-8.34,3.07-15.31,1.69-20.62-1.24-4.78-3.27-8.37-6.08-13.35-1.49-2.63-3.22-5.69-5.21-9.6-.48-.94-1.56-1.42-2.57-1.15-1.02.27-1.72,1.21-1.67,2.26.27,6.45-.71,8.94-2.2,12.7-.4,1.01-.82,2.08-1.26,3.32-2.29,6.44-.96,14.89,1.54,19.92.95,1.9,1.79,3.78,2.56,5.61-1.28-.09-2.57-.04-3.53.16-3.66.73-5.88,3.25-5.81,6.58.03,1.31-1.32,3.42-2.3,4.96-.65,1.01-1.21,1.92-1.5,2.62-1.28,3.06-1.06,6.37.56,8.43,1.27,1.61,3.21,2.3,5.47,1.91.61-.1,1.17-.34,1.68-.68l2.64,60.45h-7.11v3.66h7.93v49.39h-7.93v3.66h14v25.87h-30.29c-3.34,0-6.05-2.71-6.05-6.06v-6.4h12.59v-3.66h-7.32v-49.39h7.32v-3.66h-7.15l1.11-31.74c1.2.13,2.39-.2,3.37-.99,1.68-1.35,3.15-4.36.58-10.99,0,0,0,0,0,0-.42-1.07-.85-2.98-1.24-5.46,0,0,.02-.01.03-.02,1.23-.99,2.33-3.1.62-7.55-.66-1.7-1.26-6.8-1.39-10.1l.21-3.61c.04-1.21-.4-2.34-1.24-3.17-.89-.88-2.17-1.35-3.54-1.28-.96.04-1.78.21-2.49.43,2.44-8.34,3.07-15.31,1.69-20.62-1.24-4.78-3.27-8.38-6.08-13.35-1.49-2.63-3.22-5.69-5.21-9.6-.48-.94-1.55-1.42-2.57-1.15-1.02.27-1.72,1.21-1.67,2.26.27,6.44-.71,8.93-2.2,12.7-.4,1.01-.82,2.09-1.26,3.33-2.29,6.44-.96,14.89,1.54,19.91.94,1.89,1.79,3.77,2.56,5.61-1.28-.08-2.58-.03-3.53.16-3.46.7-5.49,3.17-5.43,6.61.03,1.56-.87,2.98-1.9,4.63-.68,1.08-1.38,2.2-1.86,3.45-1.13,2.95-.73,6.24,1.01,8.18,1.36,1.53,3.36,2.08,5.49,1.55.31-.08.61-.19.89-.33l2.56,51.12h-6.43v3.66h7.93v49.39h-7.93v3.66h14.16v6.4c0,7.09,5.75,12.84,12.85,12.85h67.26v3.45h-26.88c0,5.05,4.09,9.15,9.15,9.15h17.74v69.82h-28.11c-7.4,0-13.4,5.99-13.4,13.4H17.6c-7.4,0-13.4,6-13.4,13.4h193.83c0-7.39-6-13.4-13.4-13.4h-36.62c0-7.4-6-13.4-13.4-13.4h-28.23v-69.82h18.19c5.05,0,9.15-4.09,9.15-9.15h-27.34v-3.45h70.5c7.1,0,12.84-5.75,12.85-12.85v-6.4h13.2v-3.66h-7.93v-49.39h7.93ZM178.99,81.36c.42-1.18.83-2.22,1.21-3.18.83-2.11,1.57-3.99,2.04-6.39.54.96,1.05,1.87,1.54,2.73,2.74,4.85,4.55,8.05,5.64,12.26,1.26,4.87.55,11.58-2.12,19.95h0c-.05.17-.11.34-.17.5-.35-.04-.67-.1-1-.15-.25-.04-.5-.08-.73-.12-.28-.05-.54-.11-.8-.17-.12-.03-.23-.06-.35-.09-1.06-2.81-2.41-5.87-3.93-8.94-2.02-4.07-3.18-11.2-1.33-16.41ZM173.04,119.82c0,2.49-1.5,5.16-2.2,5.37-.92.19-1.19-.17-1.32-.34-.54-.71-.67-2.29.04-3.71.22-.44.54-.94.88-1.48,1.3-2.07,3.07-4.9,2.55-7.9-.22-1.26.11-1.88,1.11-2.08,1.28-.27,5.62.16,6.53.54.3.15.72.29,1.14.44.03.01.06.04.09.05.06.02.13.04.19.05.19.06.41.11.61.17.36.1.73.19,1.13.28.29.06.56.12.86.18.39.07.79.14,1.2.19.34.05.67.1,1.02.14.52.06,1.05.11,1.56.14.04,0,.09,0,.13,0,0,0,0,0,0,0,.11,0,.22.02.33.03,1.23.07,2.28-.4,3.17-.8.82-.37,1.59-.71,2.78-1l-.21,3.77c.12,3.17.67,9.17,1.68,11.77.45,1.16.57,1.92.65,2.25-.42.08-.81.27-1.13.56-.54.5-.8,1.22-.7,1.95.51,3.78,1.11,6.56,1.77,8.27h0c1.46,3.76,1.17,5.58.8,5.92-.06-.02-.34-.19-.54-.73-.37-1.01-1.43-1.61-2.46-1.43-1.06.17-1.85,1.07-1.88,2.14l-1.2,36.23h-11.16l-2.95-61.06c-.06-1.22-1.03-2.11-2.29-2.13-1.22.03-2.19,1.03-2.19,2.24ZM136.01,54.36c.42-1.18.83-2.22,1.21-3.18.83-2.11,1.57-3.99,2.04-6.38.54.96,1.05,1.87,1.54,2.73,2.74,4.85,4.55,8.05,5.64,12.26,1.26,4.87.55,11.58-2.12,19.95h0c-.05.17-.11.34-.17.5-.33-.04-.64-.1-.96-.15-.27-.04-.54-.08-.79-.13-.28-.05-.54-.11-.79-.17-.12-.03-.22-.06-.34-.08-1.06-2.81-2.41-5.88-3.94-8.94-2.02-4.07-3.18-11.2-1.33-16.41ZM130.06,92.82c0,2.45-.87,5.8-1.58,6.81-.54-.12-.69-.33-.75-.4-.22-.3-.67-1.34.03-4.41.14-.64.62-1.66,1.13-2.74.82-1.76,1.76-3.75,2.19-5.91.4-2.01,1.37-3.07,2.16-3.23,1.42-.28,3.78-.03,4.4.28.3.15.73.3,1.15.44.03.01.05.04.08.05.05.02.12.03.18.05.2.06.43.12.65.18.36.1.72.19,1.11.28.28.06.55.12.84.17.43.08.86.15,1.3.21.25.04.49.08.75.11.58.07,1.17.12,1.74.15.04,0,.09,0,.13,0,0,0,0,0,.01,0,.11,0,.22.02.33.03,1.22.08,2.28-.4,3.17-.8.82-.36,1.59-.71,2.78-1l-.21,3.77c.11,3.16.67,9.15,1.68,11.77.45,1.16.57,1.92.65,2.25-.41.08-.81.27-1.12.56-.54.5-.8,1.22-.7,1.95.51,3.78,1.11,6.56,1.77,8.27,1.45,3.76,1.16,5.58.79,5.92-.06-.02-.34-.19-.54-.73-.38-1.01-1.42-1.61-2.47-1.43-1.06.18-1.85,1.08-1.87,2.16l-1.22,49.8h-11.12l-2.97-74.62c-.05-1.22-1.14-2.12-2.28-2.15-1.22.02-2.2,1.02-2.2,2.24ZM94.45,19.87c.42-1.19.83-2.22,1.21-3.18.83-2.11,1.57-3.98,2.04-6.38.54.96,1.05,1.87,1.54,2.73,2.74,4.85,4.55,8.05,5.64,12.27,1.26,4.87.55,11.58-2.12,19.95,0,0,0,0,0,0-.05.17-.11.33-.17.49,0,0,0,0-.01,0-.34-.04-.65-.1-.97-.15-.26-.04-.51-.08-.75-.13-.29-.05-.55-.11-.81-.17-.12-.03-.22-.06-.34-.08-1.07-2.82-2.42-5.89-3.93-8.94-2.03-4.07-3.18-11.21-1.33-16.41ZM88.5,58.33c0,2.61-1.23,5.67-1.93,6.03-.54.14-.86.1-.92.03-.35-.41-.54-2.24.56-4.83.87-2.04,2.06-5.64,2.62-8.75.28-1.55,1.7-2.14,2.85-2.37,1.42-.28,3.78-.03,4.4.28.3.15.73.3,1.15.44.03.01.05.04.08.05.05.02.12.03.17.05.22.07.46.13.7.2.34.09.68.18,1.04.26.3.07.58.13.89.19.39.07.78.13,1.18.19.34.05.68.1,1.02.14.52.06,1.05.11,1.56.14.04,0,.09,0,.13,0,0,0,0,0,0,0,.11,0,.22.02.33.03,1.24.09,2.28-.4,3.17-.8.82-.37,1.59-.71,2.78-1l-.21,3.77c.11,3.16.67,9.15,1.68,11.77.45,1.16.57,1.92.65,2.25-.41.07-.8.26-1.12.56-.54.5-.8,1.22-.7,1.95.51,3.78,1.11,6.56,1.77,8.27h0c1.45,3.76,1.17,5.58.8,5.92-.06-.01-.35-.19-.55-.73-.38-1.01-1.42-1.6-2.48-1.43-1.06.18-1.84,1.09-1.87,2.17l-1.22,61.1h-11.1l-2.98-85.93c-.04-1.22-1.06-2.22-2.28-2.17-1.22.02-2.2,1.02-2.2,2.24ZM57.45,61.15c.42-1.19.83-2.22,1.21-3.18.83-2.11,1.57-3.99,2.04-6.38.54.97,1.05,1.87,1.54,2.73,2.74,4.85,4.55,8.06,5.64,12.27,1.26,4.87.55,11.58-2.12,19.95-.05.17-.11.33-.17.5,0,0,0,0,0,0-.35-.04-.67-.1-1-.15-.24-.04-.48-.07-.7-.12-.31-.06-.6-.12-.88-.19-.1-.02-.19-.05-.28-.07-1.07-2.81-2.41-5.88-3.94-8.94-2.03-4.07-3.18-11.21-1.33-16.41ZM51.5,99.62c0,2.45-1.31,5.45-2.01,5.78-.89.15-1.12-.14-1.21-.27-.51-.64-.63-2.28.05-3.91.22-.52.66-1.19,1.15-1.95,1.36-2.14,3.06-4.8,3-7.47-.01-.45-.04-1.64,2.21-2.09,1.41-.29,3.78-.03,4.41.28.31.15.73.3,1.15.44.03.01.05.04.08.05.05.02.11.03.16.05.22.07.47.13.71.2.33.09.67.18,1.03.26.3.07.59.13.9.19.4.07.8.14,1.2.19.31.04.6.09.91.13.55.06,1.1.12,1.64.15.04,0,.09,0,.13,0,0,0,0,0,.01,0,.11,0,.22.02.33.03,1.29.09,2.28-.4,3.17-.8.82-.36,1.59-.71,2.78-1l-.21,3.76c.11,3.16.67,9.15,1.68,11.77.45,1.16.57,1.92.65,2.25-.41.08-.81.27-1.12.56-.54.5-.8,1.22-.7,1.95.51,3.78,1.11,6.57,1.76,8.27h0c1.46,3.76,1.17,5.58.8,5.92-.06-.01-.34-.19-.54-.73-.37-1.01-1.43-1.6-2.47-1.43-1.06.17-1.85,1.08-1.88,2.15l-1.21,43.01h-11.14l-2.96-67.84c-.05-1.22-1.14-2.22-2.29-2.14-1.22.03-2.19,1.02-2.19,2.24ZM13.48,83.62c.42-1.19.83-2.22,1.21-3.18.83-2.11,1.57-3.98,2.04-6.38.54.96,1.05,1.87,1.53,2.73,2.74,4.85,4.56,8.06,5.65,12.27,1.26,4.87.55,11.58-2.12,19.95h0c-.05.17-.11.34-.17.5-.35-.04-.67-.1-1-.15-.25-.04-.49-.08-.72-.12-.29-.06-.56-.11-.82-.17-.12-.03-.22-.05-.33-.08-1.07-2.83-2.42-5.9-3.93-8.94-2.03-4.07-3.18-11.21-1.33-16.41ZM7.53,122.09c0,2.82-.94,5.47-1.5,5.8-.71.17-.92-.06-1.03-.18-.53-.6-.74-2.11-.17-3.6.33-.85.88-1.74,1.47-2.68,1.23-1.97,2.63-4.21,2.58-7.09-.02-1.09.28-1.82,1.83-2.14,1.42-.28,3.78-.03,4.4.28.3.15.73.3,1.15.44.03.01.05.04.08.05.05.02.11.03.16.05.22.07.46.13.71.2.34.09.68.18,1.05.26.29.06.57.13.88.18.4.08.81.14,1.22.2.32.05.62.09.94.13.54.06,1.08.11,1.61.14.04,0,.09,0,.13,0,0,0,0,0,.01,0,.11,0,.22.02.33.03,1.28.08,2.27-.4,3.17-.8.82-.36,1.59-.71,2.79-1l-.21,3.76c.11,3.16.67,9.16,1.68,11.77.45,1.16.57,1.93.65,2.25-.41.08-.81.27-1.12.56-.54.5-.8,1.22-.7,1.95.52,3.8,1.11,6.58,1.77,8.27,1.45,3.75,1.16,5.58.8,5.92-.06-.02-.35-.19-.55-.73-.38-1-1.42-1.61-2.46-1.43-1.06.17-1.84,1.07-1.88,2.13l-1.19,33.97h-11.17l-2.95-58.8c-.06-1.22-.93-2.22-2.3-2.13-1.22.03-2.19,1.03-2.19,2.24Z"/>
    </g>
  </g>
</svg>