<?xml version="1.0" encoding="UTF-8"?>
<svg id="Layer_2" data-name="Layer 2" xmlns="http://www.w3.org/2000/svg" xmlns:xlink="http://www.w3.org/1999/xlink" viewBox="0 0 187.14 255.48">
  <defs>
    <style>
      .cls-1 {
        fill: url(#linear-gradient);
      }
    </style>
    <linearGradient id="linear-gradient" x1="0" y1="127.74" x2="187.14" y2="127.74" gradientUnits="userSpaceOnUse">
      <stop offset="0" stop-color="#60c9b6"/>
      <stop offset=".02" stop-color="#60c9b6"/>
      <stop offset=".02" stop-color="#60c9b6"/>
      <stop offset=".03" stop-color="#60c9b7"/>
      <stop offset=".04" stop-color="#60c9b7"/>
      <stop offset=".05" stop-color="#60c9b7"/>
      <stop offset=".05" stop-color="#60c9b8"/>
      <stop offset=".06" stop-color="#60c9b8"/>
      <stop offset=".07" stop-color="#60c9b9"/>
      <stop offset=".08" stop-color="#61c9b9"/>
      <stop offset=".09" stop-color="#61c9b9"/>
      <stop offset=".09" stop-color="#61c9ba"/>
      <stop offset=".11" stop-color="#61c9ba"/>
      <stop offset=".12" stop-color="#61c9bb"/>
      <stop offset=".12" stop-color="#61c9bb"/>
      <stop offset=".13" stop-color="#61c9bc"/>
      <stop offset=".14" stop-color="#61c9bc"/>
      <stop offset=".16" stop-color="#61c9bc"/>
      <stop offset=".16" stop-color="#61cabd"/>
      <stop offset=".17" stop-color="#61cabd"/>
      <stop offset=".18" stop-color="#61cabe"/>
      <stop offset=".18" stop-color="#61cabe"/>
      <stop offset=".19" stop-color="#61cabe"/>
      <stop offset=".2" stop-color="#61cabe"/>
      <stop offset=".2" stop-color="#61cabf"/>
      <stop offset=".22" stop-color="#61cabf"/>
      <stop offset=".22" stop-color="#61cac0"/>
      <stop offset=".23" stop-color="#61cac0"/>
      <stop offset=".23" stop-color="#61cac0"/>
      <stop offset=".24" stop-color="#61cac0"/>
      <stop offset=".25" stop-color="#61cac1"/>
      <stop offset=".26" stop-color="#61cac1"/>
      <stop offset=".26" stop-color="#62cac1"/>
      <stop offset=".27" stop-color="#62cac2"/>
      <stop offset=".27" stop-color="#62cac2"/>
      <stop offset=".28" stop-color="#62cac2"/>
      <stop offset=".3" stop-color="#62cac3"/>
      <stop offset=".31" stop-color="#62cac3"/>
      <stop offset=".33" stop-color="#62cac4"/>
      <stop offset=".34" stop-color="#62cac4"/>
      <stop offset=".34" stop-color="#62cac5"/>
      <stop offset=".35" stop-color="#62cac5"/>
      <stop offset=".36" stop-color="#62cac6"/>
      <stop offset=".38" stop-color="#62cac6"/>
      <stop offset=".38" stop-color="#62cac7"/>
      <stop offset=".39" stop-color="#62cac7"/>
      <stop offset=".41" stop-color="#62cac7"/>
      <stop offset=".41" stop-color="#63cbc7"/>
      <stop offset=".42" stop-color="#63cbc8"/>
      <stop offset=".43" stop-color="#63cbc8"/>
      <stop offset=".43" stop-color="#61cac7"/>
      <stop offset=".44" stop-color="#60cac7"/>
      <stop offset=".44" stop-color="#60c9c6"/>
      <stop offset=".45" stop-color="#5fc9c5"/>
      <stop offset=".45" stop-color="#5ec9c5"/>
      <stop offset=".45" stop-color="#5dc9c4"/>
      <stop offset=".46" stop-color="#5cc8c4"/>
      <stop offset=".46" stop-color="#5bc8c4"/>
      <stop offset=".46" stop-color="#5ac8c3"/>
      <stop offset=".47" stop-color="#5ac7c2"/>
      <stop offset=".47" stop-color="#59c7c2"/>
      <stop offset=".48" stop-color="#58c7c1"/>
      <stop offset=".48" stop-color="#57c6c1"/>
      <stop offset=".48" stop-color="#56c6c0"/>
      <stop offset=".49" stop-color="#55c6bf"/>
      <stop offset=".49" stop-color="#53c5bf"/>
      <stop offset=".5" stop-color="#53c5be"/>
      <stop offset=".5" stop-color="#52c5be"/>
      <stop offset=".5" stop-color="#51c4bd"/>
      <stop offset=".51" stop-color="#50c4bc"/>
      <stop offset=".51" stop-color="#4fc4bb"/>
      <stop offset=".52" stop-color="#4ec3bb"/>
      <stop offset=".52" stop-color="#4dc3ba"/>
      <stop offset=".52" stop-color="#4dc3ba"/>
      <stop offset=".53" stop-color="#4cc3b9"/>
      <stop offset=".53" stop-color="#4bc2b8"/>
      <stop offset=".54" stop-color="#4ac1b7"/>
      <stop offset=".54" stop-color="#49c1b7"/>
      <stop offset=".54" stop-color="#48c0b6"/>
      <stop offset=".55" stop-color="#47beb5"/>
      <stop offset=".55" stop-color="#47bdb3"/>
      <stop offset=".55" stop-color="#46bdb2"/>
      <stop offset=".56" stop-color="#46bbb1"/>
      <stop offset=".56" stop-color="#45bab0"/>
      <stop offset=".57" stop-color="#44b9b0"/>
      <stop offset=".57" stop-color="#44b8af"/>
      <stop offset=".57" stop-color="#43b7ae"/>
      <stop offset=".58" stop-color="#43b6ad"/>
      <stop offset=".58" stop-color="#43b5ac"/>
      <stop offset=".59" stop-color="#42b4ab"/>
      <stop offset=".59" stop-color="#42b2aa"/>
      <stop offset=".59" stop-color="#41b1a9"/>
      <stop offset=".6" stop-color="#41b0a8"/>
      <stop offset=".6" stop-color="#41afa7"/>
      <stop offset=".61" stop-color="#40aea6"/>
      <stop offset=".61" stop-color="#40aca6"/>
      <stop offset=".61" stop-color="#3faba5"/>
      <stop offset=".62" stop-color="#3faaa4"/>
      <stop offset=".62" stop-color="#3ea9a2"/>
      <stop offset=".62" stop-color="#3ea7a1"/>
      <stop offset=".63" stop-color="#3da6a0"/>
      <stop offset=".63" stop-color="#3da59f"/>
      <stop offset=".64" stop-color="#3da49e"/>
      <stop offset=".64" stop-color="#3da49d"/>
      <stop offset=".64" stop-color="#3ca29c"/>
      <stop offset=".65" stop-color="#3ca19b"/>
      <stop offset=".65" stop-color="#3ba09a"/>
      <stop offset=".66" stop-color="#3a9f99"/>
      <stop offset=".66" stop-color="#3a9d98"/>
      <stop offset=".66" stop-color="#399c97"/>
      <stop offset=".67" stop-color="#399b96"/>
      <stop offset=".67" stop-color="#399a95"/>
      <stop offset=".68" stop-color="#389994"/>
      <stop offset=".68" stop-color="#379893"/>
      <stop offset=".68" stop-color="#379792"/>
      <stop offset=".69" stop-color="#379590"/>
      <stop offset=".69" stop-color="#36948f"/>
      <stop offset=".7" stop-color="#36948e"/>
      <stop offset=".7" stop-color="#36938e"/>
      <stop offset=".7" stop-color="#35918d"/>
      <stop offset=".71" stop-color="#35908c"/>
      <stop offset=".71" stop-color="#348f8b"/>
      <stop offset=".71" stop-color="#348e89"/>
      <stop offset=".72" stop-color="#348d88"/>
      <stop offset=".72" stop-color="#338b87"/>
      <stop offset=".73" stop-color="#338a86"/>
      <stop offset=".73" stop-color="#338985"/>
      <stop offset=".73" stop-color="#328783"/>
      <stop offset=".74" stop-color="#328682"/>
      <stop offset=".74" stop-color="#318581"/>
      <stop offset=".75" stop-color="#318480"/>
      <stop offset=".75" stop-color="#30837f"/>
      <stop offset=".75" stop-color="#30827e"/>
      <stop offset=".76" stop-color="#2f817d"/>
      <stop offset=".76" stop-color="#2f807c"/>
      <stop offset=".77" stop-color="#2e7e7b"/>
      <stop offset=".77" stop-color="#2e7d79"/>
      <stop offset=".77" stop-color="#2d7c78"/>
      <stop offset=".78" stop-color="#2d7b77"/>
      <stop offset=".78" stop-color="#2d7a76"/>
      <stop offset=".79" stop-color="#2d7875"/>
      <stop offset=".79" stop-color="#2c7774"/>
      <stop offset=".79" stop-color="#2c7673"/>
      <stop offset=".8" stop-color="#2b7571"/>
      <stop offset=".8" stop-color="#2b7470"/>
      <stop offset=".8" stop-color="#2b726f"/>
      <stop offset=".81" stop-color="#2a716e"/>
      <stop offset=".81" stop-color="#2a706c"/>
      <stop offset=".82" stop-color="#296f6b"/>
      <stop offset=".82" stop-color="#296e6a"/>
      <stop offset=".82" stop-color="#286c69"/>
      <stop offset=".83" stop-color="#286b68"/>
      <stop offset=".83" stop-color="#286a67"/>
      <stop offset=".84" stop-color="#286966"/>
      <stop offset=".84" stop-color="#276864"/>
      <stop offset=".84" stop-color="#276763"/>
      <stop offset=".85" stop-color="#276662"/>
      <stop offset=".85" stop-color="#266561"/>
      <stop offset=".86" stop-color="#266360"/>
      <stop offset=".86" stop-color="#25625f"/>
      <stop offset=".86" stop-color="#25615e"/>
      <stop offset=".87" stop-color="#25605c"/>
      <stop offset=".87" stop-color="#245f5b"/>
      <stop offset=".88" stop-color="#245e5a"/>
      <stop offset=".88" stop-color="#245d59"/>
      <stop offset=".88" stop-color="#235b58"/>
      <stop offset=".89" stop-color="#235a56"/>
      <stop offset=".89" stop-color="#225955"/>
      <stop offset=".89" stop-color="#225854"/>
      <stop offset=".9" stop-color="#225753"/>
      <stop offset=".9" stop-color="#225652"/>
      <stop offset=".91" stop-color="#225551"/>
      <stop offset=".91" stop-color="#215450"/>
      <stop offset=".91" stop-color="#21534f"/>
      <stop offset=".92" stop-color="#21524d"/>
      <stop offset=".92" stop-color="#20514c"/>
      <stop offset=".93" stop-color="#204f4b"/>
      <stop offset=".93" stop-color="#1f4e4a"/>
      <stop offset=".93" stop-color="#1f4d49"/>
      <stop offset=".94" stop-color="#1f4c48"/>
      <stop offset=".94" stop-color="#1f4b47"/>
      <stop offset=".95" stop-color="#1e4a46"/>
      <stop offset=".95" stop-color="#1e4944"/>
      <stop offset=".95" stop-color="#1e4843"/>
      <stop offset=".96" stop-color="#1e4742"/>
      <stop offset=".96" stop-color="#1e4641"/>
      <stop offset=".96" stop-color="#1d4540"/>
      <stop offset=".97" stop-color="#1d433f"/>
      <stop offset=".97" stop-color="#1d423d"/>
      <stop offset=".98" stop-color="#1c413c"/>
      <stop offset=".98" stop-color="#1c403b"/>
      <stop offset=".98" stop-color="#1c3f3a"/>
      <stop offset=".99" stop-color="#1c3e39"/>
      <stop offset=".99" stop-color="#1b3d38"/>
      <stop offset="1" stop-color="#1b3c37"/>
      <stop offset="1" stop-color="#1b3b36"/>
    </linearGradient>
  </defs>
  <g id="Elements_2" data-name="Elements 2">
    <path class="cls-1" d="M186.06,170.38c-.48-1.83-1.84-4.04-4.01-4.7-.73-16.52-5.37-26.81-6.47-28.77-1.1-1.98-3.6-4.16-6.48-3.24-1.21.39-2.61,1.08-4.18,1.98-.11-.28-.21-.55-.32-.83-5.46-13.48-13.04-21.5-14.64-23.1-1.6-1.6-4.6-3.02-7.11-1.34-2.09,1.4-2.85,5.94-4.7,10.77-2.08,5.43-4.45,9.17-7.17,13.66-3.7,6.1-8.23,9.85-13.81,15.21-1.5-1.66-2.06-3.18-1.89-5.94-1.74,2.13-3.88,3.1-5.43,1.81-1.55-1.29-1.62-4.97.19-8.08-3.1,2.33-6.28,4.46-8.3,3.13-2.16-1.42-.81-6.23-.42-10.56-2.2,4.39-5.62,8.88-8.11,9.27,0,0-.02,0-.03,0V1.17c0-.65-.52-1.17-1.17-1.17s-1.17.52-1.17,1.17v138.32c-1.15-.35-2.29-1.1-3.64-2.53-1.79-1.9-4.43-6.69-7.2-11.66.58,4.52,1.74,12.15.71,14.73-1.03,2.58-4.46.97-7.56-1.36,1.81,3.1,2.71,6.23,1.55,7.24-1.53,1.32-4.2.13-6.07-1.36.22,1.64.14,2.81-.33,3.9-4.82-4.56-8.82-8.14-12.14-13.62-2.72-4.49-5.09-8.24-7.17-13.66-1.86-4.84-2.61-9.37-4.7-10.77-2.52-1.68-5.51-.27-7.11,1.34-1.6,1.6-9.18,9.62-14.64,23.1-.11.28-.21.55-.32.83-1.57-.9-2.98-1.59-4.18-1.98-2.88-.93-5.38,1.26-6.47,3.24-1.09,1.97-5.73,12.25-6.47,28.77-2.17.66-3.53,2.86-4.01,4.7-.59,2.25-2.58,13.79,1.02,30.57,3.96,18.47,14.2,35.92,25.32,46.51-9.69-14.02-19.17-29.9-21.71-46.78-2.17-14.43-1.68-22.73-.95-26.28.08-.37.2-.71.34-1.03.72,15.93,5.68,31.59,12.51,42.58-5.22-14.21-9.88-29.83-9.35-45.01.63-.1,1.32-.08,2.07.08,1.76.38,3.96,1.08,6.6,1.89.76,4.45,2.05,9.03,3.96,13.84-.77-4.83-1.29-9.13-1.57-13.13,2.77.81,5.95,1.66,9.65,2.37,7.94,1.53,15.85,2.68,24.72,2.69.07.42.13.84.22,1.25.98,4.58,2.98,8.66,5.39,11.35-7.91,4.18-19.47,9.13-25.29,11.33-2.91,1.1-4.2,3.81-4.2,6.14s1.18,11.79,3.88,20.35c2.84,9.05,8.79,18.87,16.86,26.36-6.88-9.89-11.29-19.05-13.44-27.52-2.2-8.66-3.11-13.11-3.29-16.73-.13-2.52.52-3.81,3.36-4.83,6.22-2.23,17.85-6.8,26.56-11.07,2.79,2.14,5.99,3.98,9.64,5.41-1.33,1.35-2.44,3.16-2.86,5.96-.58,3.83,1.13,7.85,3.42,9.92.85.77,1.29.63,1.07-.45-.87-4.17.33-6.78,2.94-8.95,3.81-3.17,9.95-3.17,14.34-3.17s10.53,0,14.34,3.17c2.61,2.17,3.81,4.78,2.94,8.95-.23,1.08.22,1.22,1.07.45,2.29-2.07,4-6.08,3.42-9.92-.42-2.8-1.53-4.61-2.86-5.96,4.09-1.6,7.63-3.72,10.64-6.2,8.84,4.48,21.54,9.49,28.15,11.85,2.84,1.02,3.49,2.31,3.36,4.83-.19,3.62-1.1,8.08-3.29,16.73-2.15,8.48-6.56,17.64-13.44,27.52,8.08-7.49,14.02-17.32,16.86-26.36,2.69-8.57,3.88-18.03,3.88-20.35s-1.29-5.04-4.2-6.14c-6.28-2.37-19.22-7.94-27.08-12.29,2.05-2.66,3.73-6.33,4.59-10.39.09-.43.15-.86.22-1.29,9.94.25,18.6-.97,27.3-2.65,3.7-.72,6.88-1.57,9.65-2.37-.29,4-.81,8.3-1.58,13.13,1.91-4.81,3.2-9.39,3.96-13.84,2.64-.81,4.84-1.51,6.61-1.89.75-.16,1.44-.18,2.07-.08.52,15.18-4.13,30.8-9.35,45.01,6.83-10.99,11.79-26.65,12.51-42.58.14.32.26.66.34,1.03.73,3.55,1.22,11.86-.95,26.28-2.54,16.88-12.02,32.75-21.71,46.78,11.11-10.6,21.35-28.04,25.32-46.51,3.6-16.78,1.6-28.32,1.02-30.57ZM16.24,167.06c-2.9-.61-5.46-1.1-7.6-1.37,1.46-13.56,3.56-21.56,5.08-24.66,1.08-2.2,3.38-3.54,6.01-2.23.33.16.69.37,1.07.6-3.43,9.52-5.16,18.41-4.56,27.67ZM55.19,165.03c-.9,2.33-1.49,4.84-1.71,7.38-8.16-.35-16.02-1.19-22.45-2.34-4.34-.78-8.36-1.64-11.96-2.41-.06-9.18,1.44-17.02,4.74-26.28,3.53,2.46,8.18,5.95,13.55,8.92,6.61,3.66,13.29,6.99,20.73,9.49-1.19,1.69-2.2,3.47-2.89,5.24ZM64.63,152.62c-1,.85-2.02,1.84-3.02,2.89-7.78-2.52-15.84-6.12-21.46-9.03-5.54-2.87-10.64-6.33-14.88-8.99.15-.37.28-.74.43-1.12,5.08-12.72,10.57-18.17,12.93-20.79,1.64-1.82,3.53-2.06,4.31.78,1.74,6.35,4.6,13.33,8.77,20.69,3.72,6.58,7.58,10.75,13.05,15.46-.05.04-.08.07-.13.11ZM86.25,197.68c.63-.92,1.01-2.04,1.01-3.24,0-3.17-2.57-5.74-5.73-5.74s-5.73,2.57-5.73,5.74,2.51,5.66,5.62,5.72c-.51.09-1.04.15-1.58.15-5.07,0-9.18-4.11-9.18-9.18s4.11-9.18,9.18-9.18,9.18,4.11,9.18,9.18c0,2.57-1.06,4.89-2.76,6.55ZM104.6,200.31c-.54,0-1.07-.06-1.58-.15,3.11-.06,5.62-2.6,5.62-5.72s-2.57-5.74-5.73-5.74-5.73,2.57-5.73,5.74c0,1.2.37,2.32,1.01,3.24-1.7-1.67-2.76-3.98-2.76-6.55,0-5.07,4.11-9.18,9.18-9.18s9.18,4.11,9.18,9.18-4.11,9.18-9.18,9.18ZM123.53,156.14c-.81-.89-1.64-1.73-2.47-2.5,6.19-5.2,10.36-9.49,14.38-16.59,4.17-7.37,7.03-14.34,8.77-20.69.78-2.83,2.67-2.6,4.31-.78,2.36,2.62,7.85,8.07,12.93,20.79.15.38.28.74.43,1.12-4.24,2.66-9.34,6.13-14.88,8.99-6.11,3.16-15.1,7.14-23.47,9.66ZM156.11,170.07c-7.11,1.27-15.96,2.16-25.03,2.44-.22-2.57-.8-5.12-1.72-7.48-.6-1.54-1.45-3.07-2.44-4.55,8.31-2.55,15.62-6.18,22.85-10.18,5.37-2.97,10.02-6.46,13.55-8.92,3.3,9.26,4.8,17.1,4.74,26.28-3.6.77-7.62,1.63-11.96,2.41ZM170.91,167.06c.6-9.25-1.13-18.14-4.56-27.67.38-.23.74-.43,1.07-.6,2.63-1.31,4.93.02,6.01,2.23,1.52,3.1,3.62,11.1,5.08,24.66-2.14.27-4.7.77-7.6,1.37Z"/>
  </g>
</svg>