<?xml version="1.0" encoding="UTF-8"?>
<svg id="Layer_2" data-name="Layer 2" xmlns="http://www.w3.org/2000/svg" xmlns:xlink="http://www.w3.org/1999/xlink" viewBox="0 0 222.04 149">
  <defs>
    <style>
      .cls-1 {
        fill: url(#linear-gradient);
      }
    </style>
    <linearGradient id="linear-gradient" x1="0" y1="74.5" x2="222.04" y2="74.5" gradientUnits="userSpaceOnUse">
      <stop offset="0" stop-color="#60c9b6"/>
      <stop offset=".02" stop-color="#60c9b6"/>
      <stop offset=".02" stop-color="#60c9b6"/>
      <stop offset=".03" stop-color="#60c9b7"/>
      <stop offset=".04" stop-color="#60c9b7"/>
      <stop offset=".05" stop-color="#60c9b7"/>
      <stop offset=".05" stop-color="#60c9b8"/>
      <stop offset=".06" stop-color="#60c9b8"/>
      <stop offset=".07" stop-color="#60c9b9"/>
      <stop offset=".08" stop-color="#61c9b9"/>
      <stop offset=".09" stop-color="#61c9b9"/>
      <stop offset=".09" stop-color="#61c9ba"/>
      <stop offset=".11" stop-color="#61c9ba"/>
      <stop offset=".12" stop-color="#61c9bb"/>
      <stop offset=".12" stop-color="#61c9bb"/>
      <stop offset=".13" stop-color="#61c9bc"/>
      <stop offset=".14" stop-color="#61c9bc"/>
      <stop offset=".16" stop-color="#61c9bc"/>
      <stop offset=".16" stop-color="#61cabd"/>
      <stop offset=".17" stop-color="#61cabd"/>
      <stop offset=".18" stop-color="#61cabe"/>
      <stop offset=".18" stop-color="#61cabe"/>
      <stop offset=".19" stop-color="#61cabe"/>
      <stop offset=".2" stop-color="#61cabe"/>
      <stop offset=".2" stop-color="#61cabf"/>
      <stop offset=".22" stop-color="#61cabf"/>
      <stop offset=".22" stop-color="#61cac0"/>
      <stop offset=".23" stop-color="#61cac0"/>
      <stop offset=".23" stop-color="#61cac0"/>
      <stop offset=".24" stop-color="#61cac0"/>
      <stop offset=".25" stop-color="#61cac1"/>
      <stop offset=".26" stop-color="#61cac1"/>
      <stop offset=".26" stop-color="#62cac1"/>
      <stop offset=".27" stop-color="#62cac2"/>
      <stop offset=".27" stop-color="#62cac2"/>
      <stop offset=".28" stop-color="#62cac2"/>
      <stop offset=".3" stop-color="#62cac3"/>
      <stop offset=".31" stop-color="#62cac3"/>
      <stop offset=".33" stop-color="#62cac4"/>
      <stop offset=".34" stop-color="#62cac4"/>
      <stop offset=".34" stop-color="#62cac5"/>
      <stop offset=".35" stop-color="#62cac5"/>
      <stop offset=".36" stop-color="#62cac6"/>
      <stop offset=".38" stop-color="#62cac6"/>
      <stop offset=".38" stop-color="#62cac7"/>
      <stop offset=".39" stop-color="#62cac7"/>
      <stop offset=".41" stop-color="#62cac7"/>
      <stop offset=".41" stop-color="#63cbc7"/>
      <stop offset=".42" stop-color="#63cbc8"/>
      <stop offset=".43" stop-color="#63cbc8"/>
      <stop offset=".43" stop-color="#61cac7"/>
      <stop offset=".44" stop-color="#60cac7"/>
      <stop offset=".44" stop-color="#60c9c6"/>
      <stop offset=".45" stop-color="#5fc9c5"/>
      <stop offset=".45" stop-color="#5ec9c5"/>
      <stop offset=".45" stop-color="#5dc9c4"/>
      <stop offset=".46" stop-color="#5cc8c4"/>
      <stop offset=".46" stop-color="#5bc8c4"/>
      <stop offset=".46" stop-color="#5ac8c3"/>
      <stop offset=".47" stop-color="#5ac7c2"/>
      <stop offset=".47" stop-color="#59c7c2"/>
      <stop offset=".48" stop-color="#58c7c1"/>
      <stop offset=".48" stop-color="#57c6c1"/>
      <stop offset=".48" stop-color="#56c6c0"/>
      <stop offset=".49" stop-color="#55c6bf"/>
      <stop offset=".49" stop-color="#53c5bf"/>
      <stop offset=".5" stop-color="#53c5be"/>
      <stop offset=".5" stop-color="#52c5be"/>
      <stop offset=".5" stop-color="#51c4bd"/>
      <stop offset=".51" stop-color="#50c4bc"/>
      <stop offset=".51" stop-color="#4fc4bb"/>
      <stop offset=".52" stop-color="#4ec3bb"/>
      <stop offset=".52" stop-color="#4dc3ba"/>
      <stop offset=".52" stop-color="#4dc3ba"/>
      <stop offset=".53" stop-color="#4cc3b9"/>
      <stop offset=".53" stop-color="#4bc2b8"/>
      <stop offset=".54" stop-color="#4ac1b7"/>
      <stop offset=".54" stop-color="#49c1b7"/>
      <stop offset=".54" stop-color="#48c0b6"/>
      <stop offset=".55" stop-color="#47beb5"/>
      <stop offset=".55" stop-color="#47bdb3"/>
      <stop offset=".55" stop-color="#46bdb2"/>
      <stop offset=".56" stop-color="#46bbb1"/>
      <stop offset=".56" stop-color="#45bab0"/>
      <stop offset=".57" stop-color="#44b9b0"/>
      <stop offset=".57" stop-color="#44b8af"/>
      <stop offset=".57" stop-color="#43b7ae"/>
      <stop offset=".58" stop-color="#43b6ad"/>
      <stop offset=".58" stop-color="#43b5ac"/>
      <stop offset=".59" stop-color="#42b4ab"/>
      <stop offset=".59" stop-color="#42b2aa"/>
      <stop offset=".59" stop-color="#41b1a9"/>
      <stop offset=".6" stop-color="#41b0a8"/>
      <stop offset=".6" stop-color="#41afa7"/>
      <stop offset=".61" stop-color="#40aea6"/>
      <stop offset=".61" stop-color="#40aca6"/>
      <stop offset=".61" stop-color="#3faba5"/>
      <stop offset=".62" stop-color="#3faaa4"/>
      <stop offset=".62" stop-color="#3ea9a2"/>
      <stop offset=".62" stop-color="#3ea7a1"/>
      <stop offset=".63" stop-color="#3da6a0"/>
      <stop offset=".63" stop-color="#3da59f"/>
      <stop offset=".64" stop-color="#3da49e"/>
      <stop offset=".64" stop-color="#3da49d"/>
      <stop offset=".64" stop-color="#3ca29c"/>
      <stop offset=".65" stop-color="#3ca19b"/>
      <stop offset=".65" stop-color="#3ba09a"/>
      <stop offset=".66" stop-color="#3a9f99"/>
      <stop offset=".66" stop-color="#3a9d98"/>
      <stop offset=".66" stop-color="#399c97"/>
      <stop offset=".67" stop-color="#399b96"/>
      <stop offset=".67" stop-color="#399a95"/>
      <stop offset=".68" stop-color="#389994"/>
      <stop offset=".68" stop-color="#379893"/>
      <stop offset=".68" stop-color="#379792"/>
      <stop offset=".69" stop-color="#379590"/>
      <stop offset=".69" stop-color="#36948f"/>
      <stop offset=".7" stop-color="#36948e"/>
      <stop offset=".7" stop-color="#36938e"/>
      <stop offset=".7" stop-color="#35918d"/>
      <stop offset=".71" stop-color="#35908c"/>
      <stop offset=".71" stop-color="#348f8b"/>
      <stop offset=".71" stop-color="#348e89"/>
      <stop offset=".72" stop-color="#348d88"/>
      <stop offset=".72" stop-color="#338b87"/>
      <stop offset=".73" stop-color="#338a86"/>
      <stop offset=".73" stop-color="#338985"/>
      <stop offset=".73" stop-color="#328783"/>
      <stop offset=".74" stop-color="#328682"/>
      <stop offset=".74" stop-color="#318581"/>
      <stop offset=".75" stop-color="#318480"/>
      <stop offset=".75" stop-color="#30837f"/>
      <stop offset=".75" stop-color="#30827e"/>
      <stop offset=".76" stop-color="#2f817d"/>
      <stop offset=".76" stop-color="#2f807c"/>
      <stop offset=".77" stop-color="#2e7e7b"/>
      <stop offset=".77" stop-color="#2e7d79"/>
      <stop offset=".77" stop-color="#2d7c78"/>
      <stop offset=".78" stop-color="#2d7b77"/>
      <stop offset=".78" stop-color="#2d7a76"/>
      <stop offset=".79" stop-color="#2d7875"/>
      <stop offset=".79" stop-color="#2c7774"/>
      <stop offset=".79" stop-color="#2c7673"/>
      <stop offset=".8" stop-color="#2b7571"/>
      <stop offset=".8" stop-color="#2b7470"/>
      <stop offset=".8" stop-color="#2b726f"/>
      <stop offset=".81" stop-color="#2a716e"/>
      <stop offset=".81" stop-color="#2a706c"/>
      <stop offset=".82" stop-color="#296f6b"/>
      <stop offset=".82" stop-color="#296e6a"/>
      <stop offset=".82" stop-color="#286c69"/>
      <stop offset=".83" stop-color="#286b68"/>
      <stop offset=".83" stop-color="#286a67"/>
      <stop offset=".84" stop-color="#286966"/>
      <stop offset=".84" stop-color="#276864"/>
      <stop offset=".84" stop-color="#276763"/>
      <stop offset=".85" stop-color="#276662"/>
      <stop offset=".85" stop-color="#266561"/>
      <stop offset=".86" stop-color="#266360"/>
      <stop offset=".86" stop-color="#25625f"/>
      <stop offset=".86" stop-color="#25615e"/>
      <stop offset=".87" stop-color="#25605c"/>
      <stop offset=".87" stop-color="#245f5b"/>
      <stop offset=".88" stop-color="#245e5a"/>
      <stop offset=".88" stop-color="#245d59"/>
      <stop offset=".88" stop-color="#235b58"/>
      <stop offset=".89" stop-color="#235a56"/>
      <stop offset=".89" stop-color="#225955"/>
      <stop offset=".89" stop-color="#225854"/>
      <stop offset=".9" stop-color="#225753"/>
      <stop offset=".9" stop-color="#225652"/>
      <stop offset=".91" stop-color="#225551"/>
      <stop offset=".91" stop-color="#215450"/>
      <stop offset=".91" stop-color="#21534f"/>
      <stop offset=".92" stop-color="#21524d"/>
      <stop offset=".92" stop-color="#20514c"/>
      <stop offset=".93" stop-color="#204f4b"/>
      <stop offset=".93" stop-color="#1f4e4a"/>
      <stop offset=".93" stop-color="#1f4d49"/>
      <stop offset=".94" stop-color="#1f4c48"/>
      <stop offset=".94" stop-color="#1f4b47"/>
      <stop offset=".95" stop-color="#1e4a46"/>
      <stop offset=".95" stop-color="#1e4944"/>
      <stop offset=".95" stop-color="#1e4843"/>
      <stop offset=".96" stop-color="#1e4742"/>
      <stop offset=".96" stop-color="#1e4641"/>
      <stop offset=".96" stop-color="#1d4540"/>
      <stop offset=".97" stop-color="#1d433f"/>
      <stop offset=".97" stop-color="#1d423d"/>
      <stop offset=".98" stop-color="#1c413c"/>
      <stop offset=".98" stop-color="#1c403b"/>
      <stop offset=".98" stop-color="#1c3f3a"/>
      <stop offset=".99" stop-color="#1c3e39"/>
      <stop offset=".99" stop-color="#1b3d38"/>
      <stop offset="1" stop-color="#1b3c37"/>
      <stop offset="1" stop-color="#1b3b36"/>
    </linearGradient>
  </defs>
  <g id="Elements_2" data-name="Elements 2">
    <path class="cls-1" d="M221.87,49.43c.28-2.91-1.91-4.37-5.36-4.11-1.27.1-3.3.87-5.19.82-1.88-.05-3.61-.92-5.84-1.05-1.95-.11-3.98-.24-6-.36-2.45-.14-9.27-1.36-16.4-2.78-1.43-.84-2.97-1.44-4.61-1.63-.47-.06-.97-.09-1.36-.36-.39-.27-.57-.89-.23-1.22-2.53,0-5.17-.04-7.45-1.14-.26-.13-.52-.27-.8-.32-.3-.05-.61,0-.91.05-1.08.18-2.15.37-3.23.55-.26-.07-.51-.14-.72-.2-4.26-1.2-6.49-.82-8.14,1.62-.61.9-1.65,3.26-2.65,5.38-1.27,2.7-6.64,8.33-7.75,13.04-2.65,3.47-2.74,6.02-5.29,10.57-1.06,1.89-2.86,3.49-4.93,5.19,1.74-3.39,3.32-6.61,4.26-8.79.38-.88.77-1.84,1.17-2.86,1.29-.97,2.22-2.42,2.5-4.01.06-.32.09-.65.25-.93.31-.56,1.04-.82,1.27-1.42.31-.78-.4-1.71-.05-2.48.11-.25.33-.44.52-.63.6-.62,1.05-1.4,1.28-2.23-.43.02-.69-.52-.59-.94.11-.41.44-.72.74-1.03.8-.82,1.43-1.82,1.84-2.89-.6.59-1.54.8-2.34.52,1.54-2.41,3.11-4.91,3.59-7.73.17-.99.2-2.02.64-2.93-.38-.12-.44-.63-.43-1.03.07-1.83.21-3.65.43-5.46-.17.23-.35.46-.61.58-.26.12-.62.07-.75-.18-.11-.2-.04-.45.03-.66.25-.76.5-1.52.75-2.28-.1.3-.84-.24-1.27-.57,0-1.26-.01-2.27-.11-2.9-.23-1.55,1.42-2.27,3.38-2.51,4.15-.51,12.73-1.9,18.28-3.56.53.07,1.05.12,1.58.06.71-.08,1.42-.37,1.87-.92.09-.12.17-.24.25-.37,1.37-.47,2.84-.99,4.31-1.53.03,0,.05,0,.08,0,1.1.05,2.32.31,3.22-.32.48-.33.78-.86,1.12-1.34.41-.16.8-.32,1.19-.48.98.25,2.06.09,2.93-.44.07-.05.15-.1.19-.17.06-.11.03-.24.02-.36-.01-.19.02-.34.09-.46.46-.23.84-.45,1.13-.65,2.38-1.63,4-3.81,3.18-6.27-.51-1.54-1.96-2.57-3.76-2.55-.11-.41-.38-.73-.92-.73-1.15,0-1.44.97-1.96,1.6-.06.04-.12.07-.18.1-.21.14-.45.28-.69.42-.19.02-.4,0-.65-.06-.87-.22-1.74.36-2.34,1.03-.35.4-.68.86-1.16,1.08-.48.22-1.19.07-1.33-.45-.58.71-1.17,1.41-1.81,2.05-2.25,1.04-4.7,2.14-7.14,3.24-.03-.5-.1-1-.22-1.48-.5.76-1.01,1.5-1.54,2.24-4.96,2.04-12.83,4.43-18.24,5.06-3.49.41-5.81.9-6.52,3.76-.26,1.05.19,3.06.15,5.46-.18.19-.43.35-.58.57-.23.35-.16.81-.09,1.23.17.96.33,1.91.5,2.87-.05.84-.1,1.7-.17,2.55-.33.24-.55.72-.54,1.15.01.52.2,1.01.3,1.52-.04.41-.09.81-.13,1.21-.19.35-.5.61-.88.56.19.94.38,1.9.3,2.85-.08.96-.48,1.93-1.26,2.49-.24.17-.52.31-.65.57-.09.17-.11.36-.12.55-.17,2.07-.27,4.15-.31,6.22-.01.05-.03.1-.04.15-.44.02-.79.44-.93.87-.14.44-.15.92-.29,1.36-.09.28-.24.53-.35.8-.25.61-.32,1.28-.38,1.94-.05.56-.1,1.12-.16,1.68-1.64,4.81-3.55,9.67-5.52,13.71.52-1.71.96-3.43,1.25-5.18.24-.44.44-.89.6-1.36.15-.44.26-.92.09-1.35-.08-.2-.21-.39-.28-.6.02-.26.05-.52.06-.77.27-.69.96-1.35.71-2.04-.1-.27-.32-.47-.42-.73-.2-.53.16-1.08.32-1.62.29-1.01-.13-2-.52-2.91-.05-.12-.13-.38-.23-.68-.43-4.09-1.38-7.88-2.71-11,0-.97.02-1.94.03-2.91-.23.21-.59.38-.82.18-.09-.09-.13-.21-.18-.33-.19-.44-.62-.77-1.1-.84,0,0,0-.01-.01-.02-.04-.97-.26-2.01-.75-2.85-.15.5-.43.64-.74.72-.37-.47-.75-.92-1.13-1.36-.04-.06-.07-.13-.11-.19-1.02-1.8-2.16-3.53-3.41-5.18.2.21-.1.58-.39.55-.29-.03-.5-.27-.69-.49-.92-1.06-2.09-1.9-3.39-2.44-.17.47-.72.77-1.21.66-.11-.56-.42-1.28-.98-1.19-.21.03-.39.17-.59.19-.21.02-.44-.23-.3-.38-.26-.07-.53-.13-.79-.2.28-.22.02-.73-.33-.74-.35-.01-.64.31-.75.64-.26-.4-.32-.93-.13-1.37-.69.12-1.33.51-1.75,1.07-.57-1.12-1.44-2.09-2.49-2.78.6.56.81,1.49.52,2.25-.72-.89-1.7-1.57-2.8-1.91.96.75,1.99,1.62,2.14,2.83.05.38-.11.87-.49.88-.12,0-.23-.05-.34-.1-.97-.45-1.94-.91-2.91-1.36.21.87.41,1.78.14,2.63-.07.22-.17.41-.28.6-1.56.79-3.15,1.83-4.69,3.1-.1,0-.19-.03-.27-.09-.23-.16-.56-.5-.68-.24-.48.54-.66,1.27-.96,1.93-.04.09-.08.17-.13.26-.29.3-.58.61-.87.92-.17.09-.36.16-.56.17-.72.04-1.37-.93-.85-1.43-1.07,1.06-1.66,2.59-1.58,4.09-.29.04-.58-.25-.53-.54-.32.14-.39.55-.43.89-.06.68-.45,2.16-.37,3.15-.83,1.7-1.54,3.65-2.1,5.77-.83.52-2.17,1.71-2.34,2.46-.2.85.43,1.68.46,2.55.01.38-.09.76-.14,1.14-.2,1.3.13,2.59.62,3.83-.12,4.19.35,8.57,1.52,12.77-1.8-3.83-3.53-8.32-5.03-12.73-.05-.56-.1-1.12-.16-1.68-.06-.66-.12-1.33-.38-1.94-.11-.27-.26-.53-.35-.8-.15-.44-.15-.92-.29-1.36-.14-.43-.48-.85-.93-.87-.01-.05-.03-.1-.04-.15-.04-2.08-.15-4.15-.31-6.22-.02-.19-.03-.38-.12-.55-.14-.26-.42-.4-.65-.57-.78-.56-1.18-1.53-1.26-2.49-.08-.96.11-1.91.3-2.85-.39.05-.7-.21-.88-.56-.05-.4-.09-.8-.13-1.21.1-.51.29-1,.3-1.52.01-.44-.21-.91-.54-1.15-.07-.85-.12-1.71-.17-2.55.17-.96.33-1.91.5-2.87.07-.41.13-.87-.09-1.23-.15-.23-.39-.38-.58-.57-.04-2.4.41-4.4.15-5.46-.7-2.86-3.03-3.35-6.52-3.76-5.4-.63-13.27-3.02-18.24-5.06-.53-.74-1.04-1.48-1.54-2.24-.12.49-.18.98-.22,1.48-2.44-1.11-4.88-2.2-7.14-3.24-.65-.64-1.24-1.35-1.81-2.05-.14.51-.84.67-1.33.45-.48-.22-.81-.68-1.16-1.08-.59-.67-1.47-1.25-2.34-1.03-.25.07-.47.08-.65.06-.24-.14-.48-.28-.69-.42-.06-.04-.12-.07-.18-.1C37.22.97,36.93,0,35.78,0c-.55,0-.81.32-.92.73-1.8-.02-3.25,1-3.76,2.55-.82,2.46.8,4.64,3.18,6.27.29.2.67.42,1.13.65.06.12.1.27.09.46,0,.12-.04.25.02.36.04.08.11.13.19.17.86.53,1.95.69,2.93.44.38.16.78.32,1.19.48.34.48.64,1.01,1.12,1.34.9.63,2.12.37,3.22.32.03,0,.05,0,.08,0,1.47.53,2.94,1.05,4.31,1.53.08.13.16.25.25.37.44.56,1.16.85,1.87.92.53.06,1.05.01,1.58-.06,5.55,1.65,14.13,3.05,18.28,3.56,1.96.24,3.6.96,3.37,2.51-.09.63-.11,1.64-.11,2.9-.42.33-1.17.88-1.27.57.25.76.5,1.52.75,2.28.07.22.14.46.03.66-.13.25-.49.3-.75.18-.26-.12-.44-.35-.61-.58.22,1.81.36,3.64.43,5.46.02.4-.04.91-.43,1.03.44.9.47,1.94.64,2.93.48,2.82,2.05,5.32,3.59,7.73-.79.28-1.74.07-2.34-.52.4,1.08,1.03,2.07,1.84,2.89.3.31.63.61.74,1.03.11.41-.16.95-.59.94.23.84.67,1.61,1.28,2.23.19.2.4.38.52.63.35.76-.36,1.7-.05,2.48.23.6.96.86,1.27,1.42.16.28.19.61.25.93.29,1.59,1.22,3.04,2.5,4.01.4,1.02.79,1.98,1.17,2.86.93,2.19,2.51,5.4,4.26,8.79-2.07-1.7-3.87-3.29-4.93-5.19-2.55-4.55-2.64-7.1-5.29-10.57-1.12-4.71-6.48-10.34-7.75-13.04-1-2.13-2.04-4.48-2.65-5.38-1.65-2.44-3.88-2.82-8.14-1.62-.21.06-.46.13-.72.2-1.08-.18-2.15-.37-3.23-.55-.3-.05-.61-.1-.92-.05-.28.05-.54.19-.8.32-2.28,1.1-4.91,1.13-7.45,1.14.34.33.16.95-.23,1.22-.39.27-.89.31-1.36.36-1.64.2-3.19.8-4.61,1.63-7.13,1.42-13.95,2.64-16.4,2.78-2.02.12-4.05.25-6,.36-2.22.13-3.96,1-5.84,1.05-1.89.05-3.92-.72-5.19-.82-3.46-.27-5.65,1.2-5.36,4.11-.25.87-.23,1.81.08,2.66.17.49.4,1.12,0,1.45,1.66,1.57,4.44,1.75,6.31.46.06,0,.13,0,.2,0,.2.76,0,1.61-.51,2.2.88-.31,1.72-.76,2.47-1.33.4.49.45,1.24.12,1.78.93-.46,1.86-.92,2.79-1.39,1.17-.58,2.36-1.19,3.39-1.97,3.02-.39,6.19-.88,8.66-1.27.06-.01.14-.02.21-.04-.11.16-.23.31-.36.45-.37.4-.73,1-.42,1.44.64-.54,1.42-.93,2.24-1.11-.11.39-.22.78-.33,1.17,2.16-1.28,4.39-2.46,6.66-3.55,1.14-.25,2.34-.52,3.58-.8.44.46.77,1.02.89,1.64.15.76-.05,1.58-.55,2.16.86-.83,1.71-1.67,2.57-2.5.14-.14.28-.27.46-.36.24-.12.51-.14.77-.18.97-.17,1.84-.82,2.29-1.7.46,1,.44,2.2-.04,3.18.9-1.07,1.79-2.13,2.69-3.2.22.32.44.63.67.95.48-.92,1.2-1.71,2.08-2.27.28.79.26,1.67-.05,2.45,1.18-2.13,4.09-2.6,5.82-4.28.24-.06.48-.11.7-.17.22.53.34,1.1.35,1.68.63-.08.65-1.28,1.29-1.28.24,0,.43.19.66.24.55.11.88-.53,1.04-1.09,2.56.86,6.08.74,6.89,2.56.02.03.03.07.04.1-.04,1.09-.23,2.19-.16,2.88.1.86.44,1.75.11,2.54-.07.17-.17.34-.21.52-.03.19.01.39.06.57.34,1.3.81,2.56,1.41,3.76-.58.1-1.19.03-1.74-.21.56.74.79,1.69,1.17,2.54.59,1.32,1.59,2.45,2.83,3.19-.29.44-.81.73-1.34.75.58.86,1.17,1.71,1.75,2.57,1.1,1.61,2.2,3.22,3.3,4.83.69,1,1.37,2.01,2.09,2.99.72.98,1.48,1.93,2.36,2.77,1.38,1.32,3.06,2.33,4.87,2.93.01.01.02.02.03.03-.45.49-1.03.86-1.65,1.08,1.96,1.56,3.92,3.11,5.88,4.67.21.16.44.43.31.65-.13.23-.5.18-.69.36,1.58.82,4.27,1.55,5.73,1.91,1.28,1.03,2.48,1.96,3.6,2.82-1.93-.14-3.84-.31-5.02-.69-2.53-.82-6.36-.78-8.33-1.76-1.97-.98-5.94-2.22-8.87-2.14-.51-.93-2.12-2.08-4.44-3.45-2.32-1.36-3.41-2.35-5.46-5.67-1.72-2.8-3.24-2.98-4.98-3.53.19-1.15-.19-2.38-.62-3.22.08-.39.14-.78.08-1.17-.11-.64-.57-1.17-.73-1.81-.17-.02-.29.17-.35.33-.12.29-.25.58-.37.86-.83-.8-2.04-1.65-3.42-1.7-.44-.02-.96-.04-1.53-.06-.19-.38-.54-.68-.96-.72-.31-.03-.63.06-.93.01-.31-.05-.63-.32-.55-.62-.97.48-1.94.96-2.91,1.44-.03.02-.07.03-.1.05-.2.02-.4.05-.6.07-.12-.04-.25-.09-.37-.14-.66-.28-1.4-.34-2.12-.38-.98-.06-1.97-.13-2.95-.19.53.18.91.73.88,1.29-1.13-.22-2.31-.17-3.41.14.28-.04.4.41.21.62-.19.21-.51.22-.8.23-.84,0-1.68.01-2.51.02.43.41.79.89,1.09,1.4-.8-.08-1.63.07-2.35.42-.02.21-.03.41-.05.62-.3-.05-.63.04-.86.24.24.42.36.84.41,1.27-.77.76-1.63,1.61-2.6,2.41-.38-.03-.8-.03-1.13-.06-1.4-.16-2.83-.11-4.22.15.67.41,1.26.94,1.75,1.55.16.2.32.41.52.59-1.92,1.4-3.61,2.77-5.05,3.15-1.84.48-2.96,1.11-3.73,2.18-.77,1.07-1.92,2.55-3.79,3.76-1.87,1.21-4.25,1.49-6.46,1.96-2.21.47-2.7,4.1-5.09,4.56,2.11,2.27,6.26,3.69,7.92,3.21,1.66-.49,2.39-.46,2.9.47,4.64-2.02,7.25-3.51,8.43-5.84,1.18-2.33,2.19-4.97,3.42-5.29,1.15-.3,2.31-.41,3.47-.6-.05.18-.12.35-.23.54-.39.67-.95,1.23-1.5,1.78,1.31-.51,2.43-1.45,3.2-2.61.43-.11.86-.24,1.3-.41.09.65-.03,1.34-.36,1.91.29-.37.59-.75.88-1.12.15.21.37.38.61.48-.03-.64.05-1.28.23-1.9,1.11-.6,2.01-1.25,2.87-2.08.51.73.87,1.68,1.68,2.03-.22-1.03-.45-2.05-.67-3.08.4-.46.81-.95,1.25-1.52,1.92-2.49,2.28-2.38,3.6-3.8,4.47-.69,7.78.37,10.13,1,1.18,2.6,1.12,4.36,2.53,5.87.97,1.04,2.64,2.92,4.29,4.25-.13.36-.22.76-.45,1.02.46.41,1.13.63,1.74.71.35.04.75.06.97.33.09.11.14.25.25.34.12.1.29.1.43.18.14.07.23.29.1.37.69-.04,1.44-.07,2.02.33.2.14.37.32.6.41.19.07.39.08.59.08.21,0,.43,0,.65-.02.09.11.19.21.27.33.87,1.31,2.84,2.29,4.3,2.16,1.47-.13,2.73.1,3.61,1.23.3,1.84,2.06,3.54,4.41,4.36,2.34.81,6.39.05,8.52,1.58,2.14,1.54,3.76,2.14,5.94,2.22.4.01.92.02,1.48.03-1.24.28-2.34.59-3.1.93-.9-.44-2.93-1.12-5.8-1.45-1.2-1.29-4.37-2.55-5.35-2.73.76.41,1.21,1.29,1.14,2.14-.12-.04-.25-.08-.37-.11-.93-1-2.19-1.7-3.53-1.95.15.31.24.64.27.98-1.22-.31-2.56-.57-4.1-.69-.86-.22-2.24-.37-3.81-.47-.76-.63-1.57-1.2-2.43-1.68,0,.53-.01,1.05-.02,1.58-.77-.02-1.54-.03-2.29-.02-.62-.48-1.26-1.07-2.03-1.02-.14.64-1.13.87-1.54.36-.13-.16-.21-.37-.38-.47-.19-.11-.42-.07-.64-.1-.94-.17-1.34-1.84-2.25-1.52.45.48.65,1.17.56,1.82-1.12-.29-2.21-.62-3.08-.97-.3-.3-.71-.56-1.1-.8-1-.62-2.24-.83-3.38-.57.17.27-.2.58-.51.62-.32.04-.7,0-.89.26.25.18.11.6-.16.75-.27.15-.59.13-.89.21-.3.08-.61.33-.54.63.04.21.25.34.4.49.15.15.26.42.1.57-1.4.26-2.77.68-4.08,1.24,1.32.02,2.61.73,3.35,1.82-.6,1.14-1.2,2.25-1.64,2.99-.84,1.4-2.81,3.2-3.17,4.76-.36,1.56-1.39,3.8-2.33,4.94-.94,1.15-2.37,2.26-3.74,4.22-1.37,1.97-4.18,6.75-4.9,8.16-.72,1.41-2.59,5.05-2.59,6.63,0,1.59-.15,3.53-1.07,4.31-.52.44-1.11.89-1.71,1.48-.16-.02-.33-.01-.54.03-.97.21-2.05.76-2.75,1.46-.34.34-.63.74-1.02,1.01-.38.26-.87.41-1.11.81,1.1-.62,2.37-.93,3.64-.88-1.06,1.65-2.75,3.88-4.58,4.37,1.17.7,2.9,1.93,4.95,2.21,2.05.28,4.9-.23,6.59-1.56,1.69-1.33,2.46-3.47,2.84-5.15.37-1.68,2.28-4.22,2.64-5.77.36-1.56.04-3.66.87-4.93.83-1.28,3.05-3.18,4.5-4.53,1.45-1.35,1.15-2.23,1.97-3.39.82-1.16.93-1.03,2.27-2.51,1.33-1.48,1.91-2.66,2.6-3.7.69-1.04,1.27-2.22,1.25-3.56-.02-1.34.79-5.43,1.63-6.83.84-1.4,1.05-1.02,2.45-.18,1.4.84,5.38,2.98,7.52,2.17,2.14-.81,6.12-.26,7.43.21.74,1.52,4.15,3.13,5.91,2.41,1.76-.72,5.55-.79,7.72-.5,2.17.29,6.07.35,7.5.82,1.43.48,3.8-.19,5.19-.82,1.39-.62,1-.29,2.21-.19.96.07,3.18-.82,5.03-1.84.44.41.89.72,1.34,1.07-2.28,1.55-3.81,3.03-4.2,5.41-.46,2.83,3.97,6.89,9.58,8.3-3.83-3.24-5.21-4.49-4.79-7.02.25-1.52,2.27-3.21,3.97-4.22,1.28.41,2.57.67,3.83.67,1.34,0,2.69-.28,4.05-.73,1.72,1.01,3.81,2.73,4.07,4.29.42,2.53-.96,3.79-4.79,7.02,5.61-1.41,10.03-5.47,9.58-8.3-.39-2.44-1.99-3.94-4.37-5.53.42-.34.85-.62,1.26-1.02,1.88,1.05,4.17,1.98,5.15,1.91,1.21-.09.82-.43,2.21.19,1.39.62,3.76,1.29,5.19.82,1.43-.48,5.33-.53,7.5-.82,2.17-.29,5.96-.22,7.72.5,1.76.72,5.18-.89,5.91-2.41,1.31-.47,5.29-1.02,7.43-.21,2.14.81,6.12-1.33,7.52-2.17,1.4-.84,1.61-1.22,2.45.18.84,1.4,1.64,5.48,1.63,6.83-.02,1.34.56,2.52,1.25,3.56.69,1.04,1.27,2.22,2.6,3.7,1.33,1.48,1.45,1.35,2.27,2.51.82,1.16.52,2.03,1.97,3.39,1.45,1.35,3.67,3.25,4.5,4.53.83,1.28.51,3.38.87,4.93.36,1.56,2.27,4.09,2.64,5.77.37,1.68,1.15,3.81,2.84,5.15,1.69,1.33,4.53,1.84,6.59,1.56,2.05-.28,3.79-1.51,4.95-2.21-1.83-.49-3.52-2.72-4.58-4.37,1.26-.05,2.54.26,3.64.88-.25-.39-.73-.54-1.11-.81-.39-.27-.68-.68-1.02-1.01-.71-.7-1.78-1.25-2.75-1.46-.21-.05-.39-.05-.54-.03-.6-.59-1.19-1.04-1.71-1.48-.91-.78-1.06-2.72-1.07-4.31,0-1.59-1.87-5.22-2.59-6.63-.72-1.41-3.53-6.19-4.9-8.16-1.37-1.97-2.8-3.08-3.74-4.22-.94-1.15-1.97-3.39-2.33-4.94-.36-1.56-2.33-3.36-3.17-4.76-.44-.73-1.04-1.85-1.64-2.99.74-1.09,2.03-1.81,3.35-1.82-1.31-.56-2.68-.98-4.08-1.24-.16-.15-.05-.41.1-.57.15-.15.36-.28.4-.49.06-.3-.25-.55-.54-.63-.3-.08-.62-.06-.89-.21-.27-.15-.41-.58-.16-.75-.19-.25-.57-.22-.89-.26-.32-.04-.68-.34-.51-.62-1.14-.26-2.39-.05-3.38.57-.39.24-.8.5-1.1.8-.87.35-1.96.68-3.08.97-.09-.65.11-1.34.56-1.82-.9-.31-1.3,1.36-2.25,1.52-.21.04-.45,0-.64.1-.18.1-.25.31-.38.47-.41.51-1.4.28-1.54-.36-.78-.05-1.41.55-2.03,1.02-.75,0-1.52,0-2.29.02,0-.53-.01-1.05-.02-1.58-.86.48-1.68,1.04-2.43,1.68-1.57.09-2.95.25-3.81.47-1.55.12-2.88.38-4.1.69.03-.34.12-.68.27-.98-1.35.25-2.6.95-3.53,1.95-.12.04-.25.08-.37.11-.07-.85.38-1.74,1.14-2.14-.98.18-4.15,1.45-5.35,2.73-2.87.33-4.9,1.01-5.8,1.45-.76-.34-1.85-.65-3.1-.93.56,0,1.08-.02,1.48-.03,2.19-.08,3.81-.68,5.94-2.22,2.14-1.54,6.18-.77,8.52-1.58,2.34-.81,4.11-2.52,4.41-4.36.87-1.13,2.14-1.35,3.61-1.23,1.46.13,3.44-.85,4.3-2.16.08-.12.17-.22.27-.33.22.02.44.02.65.02.2,0,.41,0,.59-.08.23-.09.4-.28.6-.41.57-.39,1.32-.37,2.02-.33-.13-.09-.04-.3.1-.37.14-.07.31-.08.43-.18.11-.09.16-.23.25-.34.22-.27.62-.29.97-.33.61-.07,1.28-.3,1.74-.71-.23-.26-.33-.66-.45-1.02,1.65-1.33,3.32-3.21,4.29-4.25,1.41-1.51,1.34-3.27,2.53-5.87,2.35-.63,5.66-1.69,10.13-1,1.33,1.41,1.69,1.31,3.6,3.8.44.57.85,1.07,1.25,1.52-.22,1.03-.45,2.05-.67,3.08.8-.35,1.17-1.3,1.68-2.03.86.83,1.76,1.48,2.87,2.08.17.62.25,1.26.23,1.9.24-.09.46-.26.61-.48.29.38.59.75.88,1.12-.34-.57-.45-1.25-.36-1.91.44.17.87.3,1.3.41.77,1.17,1.89,2.11,3.2,2.61-.55-.55-1.11-1.11-1.5-1.78-.11-.19-.18-.36-.23-.54,1.17.19,2.32.3,3.47.6,1.23.32,2.24,2.96,3.42,5.29,1.18,2.33,3.79,3.82,8.42,5.84.51-.93,1.24-.96,2.9-.47,1.66.49,5.81-.94,7.92-3.21-2.39-.46-2.89-4.09-5.09-4.56-2.21-.47-4.59-.75-6.46-1.96-1.87-1.21-3.02-2.69-3.79-3.76-.77-1.07-1.89-1.7-3.73-2.18-1.44-.38-3.13-1.74-5.05-3.15.19-.17.35-.38.52-.59.49-.61,1.09-1.13,1.75-1.55-1.39-.25-2.82-.3-4.22-.15-.33.04-.74.03-1.13.06-.97-.8-1.83-1.65-2.6-2.41.06-.43.17-.86.41-1.27-.23-.2-.56-.29-.86-.24-.02-.21-.03-.41-.05-.62-.72-.36-1.55-.51-2.35-.42.3-.51.67-.99,1.09-1.4-.84,0-1.68-.01-2.51-.02-.28,0-.6-.02-.8-.23-.19-.21-.07-.66.21-.62-1.11-.31-2.29-.36-3.41-.14-.03-.56.35-1.11.88-1.29-.98.06-1.97.13-2.95.19-.72.05-1.46.1-2.12.38-.12.05-.24.11-.37.14-.2-.03-.4-.05-.6-.07-.03-.02-.07-.03-.1-.05-.97-.48-1.94-.96-2.91-1.44.08.3-.24.57-.55.62-.31.05-.62-.04-.93-.01-.42.04-.78.34-.96.72-.57.02-1.09.04-1.53.06-1.38.05-2.59.9-3.42,1.7-.12-.29-.25-.58-.37-.86-.07-.16-.18-.35-.35-.33-.15.63-.61,1.17-.73,1.81-.07.39,0,.78.08,1.17-.42.84-.8,2.08-.62,3.22-1.74.55-3.26.73-4.98,3.53-2.05,3.32-3.13,4.31-5.46,5.67-2.32,1.36-3.93,2.51-4.44,3.45-2.92-.08-6.9,1.16-8.87,2.14-1.97.98-5.81.94-8.33,1.76-1.18.38-3.08.55-5.02.69,1.12-.85,2.32-1.78,3.6-2.82,1.46-.36,4.15-1.09,5.73-1.91-.19-.18-.56-.13-.69-.36-.13-.23.1-.49.31-.65,1.96-1.56,3.92-3.11,5.88-4.67-.63-.22-1.2-.59-1.65-1.08.01-.01.02-.02.03-.03,1.81-.61,3.49-1.61,4.87-2.93.88-.84,1.64-1.79,2.36-2.77.72-.98,1.41-1.98,2.09-2.99,1.1-1.61,2.2-3.22,3.3-4.83.58-.86,1.17-1.71,1.75-2.57-.53-.02-1.04-.31-1.34-.75,1.24-.74,2.24-1.87,2.83-3.19.38-.85.61-1.79,1.17-2.54-.54.23-1.15.31-1.74.21.6-1.2,1.07-2.46,1.41-3.76.05-.19.1-.38.06-.57-.03-.18-.13-.35-.21-.52-.33-.8.02-1.69.11-2.54.08-.69-.12-1.8-.15-2.88.01-.03.03-.07.04-.1.81-1.82,4.33-1.7,6.89-2.56.16.56.49,1.2,1.04,1.09.23-.05.43-.24.66-.24.64,0,.66,1.2,1.29,1.28,0-.57.13-1.15.35-1.68.23.05.46.11.7.17,1.73,1.67,4.64,2.15,5.82,4.28-.31-.77-.33-1.66-.05-2.45.87.56,1.6,1.35,2.08,2.27.22-.32.44-.63.67-.95.9,1.07,1.79,2.13,2.69,3.2-.48-.99-.49-2.18-.04-3.18.45.88,1.32,1.53,2.29,1.7.26.05.53.06.77.18.17.09.32.23.46.36.86.83,1.71,1.67,2.57,2.5-.5-.58-.7-1.4-.55-2.16.12-.62.45-1.18.89-1.64,1.23.28,2.43.55,3.57.8,2.27,1.08,4.5,2.26,6.66,3.55-.11-.39-.22-.78-.33-1.17.82.18,1.6.57,2.24,1.11.31-.44-.05-1.04-.42-1.44-.12-.14-.25-.29-.36-.45.07.01.15.02.21.04,2.48.39,5.65.87,8.66,1.27,1.03.78,2.22,1.39,3.39,1.97.93.46,1.86.92,2.79,1.39-.33-.54-.28-1.29.12-1.78.75.57,1.58,1.02,2.47,1.33-.51-.59-.7-1.44-.51-2.2.07,0,.14,0,.2,0,1.87,1.29,4.65,1.11,6.31-.46-.4-.33-.17-.96,0-1.45.3-.85.32-1.79.08-2.66ZM100.35,100.03c3.74.29,6.93,2.16,7.95,6.09-5.35-.06-7.77-1.88-7.95-6.09ZM114.38,106.12c1.02-3.93,4.21-5.8,7.95-6.09-.18,4.21-2.6,6.04-7.95,6.09Z"/>
  </g>
</svg>