<?xml version="1.0" encoding="UTF-8"?>
<svg id="Layer_2" data-name="Layer 2" xmlns="http://www.w3.org/2000/svg" xmlns:xlink="http://www.w3.org/1999/xlink" viewBox="0 0 169.71 330.95">
  <defs>
    <style>
      .cls-1 {
        fill: url(#linear-gradient);
      }
    </style>
    <linearGradient id="linear-gradient" x1="0" y1="165.48" x2="169.71" y2="165.48" gradientUnits="userSpaceOnUse">
      <stop offset="0" stop-color="#60c9b6"/>
      <stop offset=".02" stop-color="#60c9b6"/>
      <stop offset=".02" stop-color="#60c9b6"/>
      <stop offset=".03" stop-color="#60c9b7"/>
      <stop offset=".04" stop-color="#60c9b7"/>
      <stop offset=".05" stop-color="#60c9b7"/>
      <stop offset=".05" stop-color="#60c9b8"/>
      <stop offset=".06" stop-color="#60c9b8"/>
      <stop offset=".07" stop-color="#60c9b9"/>
      <stop offset=".08" stop-color="#61c9b9"/>
      <stop offset=".09" stop-color="#61c9b9"/>
      <stop offset=".09" stop-color="#61c9ba"/>
      <stop offset=".11" stop-color="#61c9ba"/>
      <stop offset=".12" stop-color="#61c9bb"/>
      <stop offset=".12" stop-color="#61c9bb"/>
      <stop offset=".13" stop-color="#61c9bc"/>
      <stop offset=".14" stop-color="#61c9bc"/>
      <stop offset=".16" stop-color="#61c9bc"/>
      <stop offset=".16" stop-color="#61cabd"/>
      <stop offset=".17" stop-color="#61cabd"/>
      <stop offset=".18" stop-color="#61cabe"/>
      <stop offset=".18" stop-color="#61cabe"/>
      <stop offset=".19" stop-color="#61cabe"/>
      <stop offset=".2" stop-color="#61cabe"/>
      <stop offset=".2" stop-color="#61cabf"/>
      <stop offset=".22" stop-color="#61cabf"/>
      <stop offset=".22" stop-color="#61cac0"/>
      <stop offset=".23" stop-color="#61cac0"/>
      <stop offset=".23" stop-color="#61cac0"/>
      <stop offset=".24" stop-color="#61cac0"/>
      <stop offset=".25" stop-color="#61cac1"/>
      <stop offset=".26" stop-color="#61cac1"/>
      <stop offset=".26" stop-color="#62cac1"/>
      <stop offset=".27" stop-color="#62cac2"/>
      <stop offset=".27" stop-color="#62cac2"/>
      <stop offset=".28" stop-color="#62cac2"/>
      <stop offset=".3" stop-color="#62cac3"/>
      <stop offset=".31" stop-color="#62cac3"/>
      <stop offset=".33" stop-color="#62cac4"/>
      <stop offset=".34" stop-color="#62cac4"/>
      <stop offset=".34" stop-color="#62cac5"/>
      <stop offset=".35" stop-color="#62cac5"/>
      <stop offset=".36" stop-color="#62cac6"/>
      <stop offset=".38" stop-color="#62cac6"/>
      <stop offset=".38" stop-color="#62cac7"/>
      <stop offset=".39" stop-color="#62cac7"/>
      <stop offset=".41" stop-color="#62cac7"/>
      <stop offset=".41" stop-color="#63cbc7"/>
      <stop offset=".42" stop-color="#63cbc8"/>
      <stop offset=".43" stop-color="#63cbc8"/>
      <stop offset=".43" stop-color="#61cac7"/>
      <stop offset=".44" stop-color="#60cac7"/>
      <stop offset=".44" stop-color="#60c9c6"/>
      <stop offset=".45" stop-color="#5fc9c5"/>
      <stop offset=".45" stop-color="#5ec9c5"/>
      <stop offset=".45" stop-color="#5dc9c4"/>
      <stop offset=".46" stop-color="#5cc8c4"/>
      <stop offset=".46" stop-color="#5bc8c4"/>
      <stop offset=".46" stop-color="#5ac8c3"/>
      <stop offset=".47" stop-color="#5ac7c2"/>
      <stop offset=".47" stop-color="#59c7c2"/>
      <stop offset=".48" stop-color="#58c7c1"/>
      <stop offset=".48" stop-color="#57c6c1"/>
      <stop offset=".48" stop-color="#56c6c0"/>
      <stop offset=".49" stop-color="#55c6bf"/>
      <stop offset=".49" stop-color="#53c5bf"/>
      <stop offset=".5" stop-color="#53c5be"/>
      <stop offset=".5" stop-color="#52c5be"/>
      <stop offset=".5" stop-color="#51c4bd"/>
      <stop offset=".51" stop-color="#50c4bc"/>
      <stop offset=".51" stop-color="#4fc4bb"/>
      <stop offset=".52" stop-color="#4ec3bb"/>
      <stop offset=".52" stop-color="#4dc3ba"/>
      <stop offset=".52" stop-color="#4dc3ba"/>
      <stop offset=".53" stop-color="#4cc3b9"/>
      <stop offset=".53" stop-color="#4bc2b8"/>
      <stop offset=".54" stop-color="#4ac1b7"/>
      <stop offset=".54" stop-color="#49c1b7"/>
      <stop offset=".54" stop-color="#48c0b6"/>
      <stop offset=".55" stop-color="#47beb5"/>
      <stop offset=".55" stop-color="#47bdb3"/>
      <stop offset=".55" stop-color="#46bdb2"/>
      <stop offset=".56" stop-color="#46bbb1"/>
      <stop offset=".56" stop-color="#45bab0"/>
      <stop offset=".57" stop-color="#44b9b0"/>
      <stop offset=".57" stop-color="#44b8af"/>
      <stop offset=".57" stop-color="#43b7ae"/>
      <stop offset=".58" stop-color="#43b6ad"/>
      <stop offset=".58" stop-color="#43b5ac"/>
      <stop offset=".59" stop-color="#42b4ab"/>
      <stop offset=".59" stop-color="#42b2aa"/>
      <stop offset=".59" stop-color="#41b1a9"/>
      <stop offset=".6" stop-color="#41b0a8"/>
      <stop offset=".6" stop-color="#41afa7"/>
      <stop offset=".61" stop-color="#40aea6"/>
      <stop offset=".61" stop-color="#40aca6"/>
      <stop offset=".61" stop-color="#3faba5"/>
      <stop offset=".62" stop-color="#3faaa4"/>
      <stop offset=".62" stop-color="#3ea9a2"/>
      <stop offset=".62" stop-color="#3ea7a1"/>
      <stop offset=".63" stop-color="#3da6a0"/>
      <stop offset=".63" stop-color="#3da59f"/>
      <stop offset=".64" stop-color="#3da49e"/>
      <stop offset=".64" stop-color="#3da49d"/>
      <stop offset=".64" stop-color="#3ca29c"/>
      <stop offset=".65" stop-color="#3ca19b"/>
      <stop offset=".65" stop-color="#3ba09a"/>
      <stop offset=".66" stop-color="#3a9f99"/>
      <stop offset=".66" stop-color="#3a9d98"/>
      <stop offset=".66" stop-color="#399c97"/>
      <stop offset=".67" stop-color="#399b96"/>
      <stop offset=".67" stop-color="#399a95"/>
      <stop offset=".68" stop-color="#389994"/>
      <stop offset=".68" stop-color="#379893"/>
      <stop offset=".68" stop-color="#379792"/>
      <stop offset=".69" stop-color="#379590"/>
      <stop offset=".69" stop-color="#36948f"/>
      <stop offset=".7" stop-color="#36948e"/>
      <stop offset=".7" stop-color="#36938e"/>
      <stop offset=".7" stop-color="#35918d"/>
      <stop offset=".71" stop-color="#35908c"/>
      <stop offset=".71" stop-color="#348f8b"/>
      <stop offset=".71" stop-color="#348e89"/>
      <stop offset=".72" stop-color="#348d88"/>
      <stop offset=".72" stop-color="#338b87"/>
      <stop offset=".73" stop-color="#338a86"/>
      <stop offset=".73" stop-color="#338985"/>
      <stop offset=".73" stop-color="#328783"/>
      <stop offset=".74" stop-color="#328682"/>
      <stop offset=".74" stop-color="#318581"/>
      <stop offset=".75" stop-color="#318480"/>
      <stop offset=".75" stop-color="#30837f"/>
      <stop offset=".75" stop-color="#30827e"/>
      <stop offset=".76" stop-color="#2f817d"/>
      <stop offset=".76" stop-color="#2f807c"/>
      <stop offset=".77" stop-color="#2e7e7b"/>
      <stop offset=".77" stop-color="#2e7d79"/>
      <stop offset=".77" stop-color="#2d7c78"/>
      <stop offset=".78" stop-color="#2d7b77"/>
      <stop offset=".78" stop-color="#2d7a76"/>
      <stop offset=".79" stop-color="#2d7875"/>
      <stop offset=".79" stop-color="#2c7774"/>
      <stop offset=".79" stop-color="#2c7673"/>
      <stop offset=".8" stop-color="#2b7571"/>
      <stop offset=".8" stop-color="#2b7470"/>
      <stop offset=".8" stop-color="#2b726f"/>
      <stop offset=".81" stop-color="#2a716e"/>
      <stop offset=".81" stop-color="#2a706c"/>
      <stop offset=".82" stop-color="#296f6b"/>
      <stop offset=".82" stop-color="#296e6a"/>
      <stop offset=".82" stop-color="#286c69"/>
      <stop offset=".83" stop-color="#286b68"/>
      <stop offset=".83" stop-color="#286a67"/>
      <stop offset=".84" stop-color="#286966"/>
      <stop offset=".84" stop-color="#276864"/>
      <stop offset=".84" stop-color="#276763"/>
      <stop offset=".85" stop-color="#276662"/>
      <stop offset=".85" stop-color="#266561"/>
      <stop offset=".86" stop-color="#266360"/>
      <stop offset=".86" stop-color="#25625f"/>
      <stop offset=".86" stop-color="#25615e"/>
      <stop offset=".87" stop-color="#25605c"/>
      <stop offset=".87" stop-color="#245f5b"/>
      <stop offset=".88" stop-color="#245e5a"/>
      <stop offset=".88" stop-color="#245d59"/>
      <stop offset=".88" stop-color="#235b58"/>
      <stop offset=".89" stop-color="#235a56"/>
      <stop offset=".89" stop-color="#225955"/>
      <stop offset=".89" stop-color="#225854"/>
      <stop offset=".9" stop-color="#225753"/>
      <stop offset=".9" stop-color="#225652"/>
      <stop offset=".91" stop-color="#225551"/>
      <stop offset=".91" stop-color="#215450"/>
      <stop offset=".91" stop-color="#21534f"/>
      <stop offset=".92" stop-color="#21524d"/>
      <stop offset=".92" stop-color="#20514c"/>
      <stop offset=".93" stop-color="#204f4b"/>
      <stop offset=".93" stop-color="#1f4e4a"/>
      <stop offset=".93" stop-color="#1f4d49"/>
      <stop offset=".94" stop-color="#1f4c48"/>
      <stop offset=".94" stop-color="#1f4b47"/>
      <stop offset=".95" stop-color="#1e4a46"/>
      <stop offset=".95" stop-color="#1e4944"/>
      <stop offset=".95" stop-color="#1e4843"/>
      <stop offset=".96" stop-color="#1e4742"/>
      <stop offset=".96" stop-color="#1e4641"/>
      <stop offset=".96" stop-color="#1d4540"/>
      <stop offset=".97" stop-color="#1d433f"/>
      <stop offset=".97" stop-color="#1d423d"/>
      <stop offset=".98" stop-color="#1c413c"/>
      <stop offset=".98" stop-color="#1c403b"/>
      <stop offset=".98" stop-color="#1c3f3a"/>
      <stop offset=".99" stop-color="#1c3e39"/>
      <stop offset=".99" stop-color="#1b3d38"/>
      <stop offset="1" stop-color="#1b3c37"/>
      <stop offset="1" stop-color="#1b3b36"/>
    </linearGradient>
  </defs>
  <g id="Elements_2" data-name="Elements 2">
    <path class="cls-1" d="M169.5,220.56c-.84-2.53-4.3-17.68-6.18-26.13-2.25-10.11-3.93-16.29-5.62-31.74-.56,5.34-1.4,13.48-1.4,20.51s2.81,30.06,3.37,32.87c.57,2.81.57,4.49-1.96,5.9-2.48,1.38-26.93,8.45-37.91,10.03-1.1-4.07-2.87-8.09-5.09-11.9,5.86-3.13,21.22-11.56,23.9-13.02,3.09-1.69,4.11-5.25,4.11-7.77s-.78-14.26-7.62-24.53c-5.45-8.19-13.05-14.85-23.22-22.8,7.82,10.04,13.97,18.02,17.61,25.33,3.51,7.06,6.7,16.64,6.03,20.78-.65,4.04-1.4,4.21-4.21,6.18-2.23,1.56-13.85,9.5-18.54,12.7-7.75-11.67-19.16-20.61-26.54-21.62V0h-2.72v195.35c-7.38,1-18.8,9.94-26.55,21.62-4.69-3.2-16.31-11.14-18.54-12.7-2.81-1.97-3.57-2.14-4.21-6.18-.66-4.15,2.52-13.73,6.03-20.78,3.64-7.31,9.79-15.29,17.61-25.33-10.18,7.95-17.78,14.61-23.23,22.8-6.83,10.27-7.62,22-7.62,24.53s1.03,6.09,4.12,7.77c2.68,1.46,18.04,9.89,23.89,13.02-2.22,3.81-3.99,7.83-5.09,11.9-10.97-1.58-35.42-8.65-37.9-10.03-2.53-1.4-2.53-3.09-1.97-5.9.56-2.81,3.37-25.84,3.37-32.87s-.84-15.17-1.4-20.51c-1.68,15.45-3.37,21.63-5.62,31.74-1.88,8.45-5.34,23.6-6.18,26.13-.84,2.53.75,6.74,7.68,7.92,5.67.96,32.52,5.19,41.03,8.5-.16,1.26-.25,2.52-.25,3.77,0,2.08.13,4.02.35,5.86-10.64,3-32.31,6.19-37.3,7.38-5.9,1.4-8.99,4.49-8.14,7.02.84,2.53,3.18,8.97,5.05,17.42,2.25,10.11,3.93,16.29,5.62,31.74.56-5.34,1.4-13.48,1.4-20.51s-1.68-21.35-2.24-24.16c-.56-2.81-.56-4.49,1.97-5.9,2.23-1.24,22.29-7.1,34.27-9.41.7,3.14,1.77,5.89,3.16,8.28-4.57,2.75-12.97,8.23-16.08,10.4-4.37,3.04-7.25,7.62-8.43,12.36-.61,2.45-1.12,14.61,1.68,23.03,2.81,8.43,12.08,22.19,18.54,26.69-6.75-9.58-12.24-20.05-13.42-28.81-1.05-7.81-1.18-13.35-.26-18.71.69-4.03,2.63-8.98,8.11-13.08,1.98-1.48,8.47-6.22,11.98-8.78,2.52,3.13,5.74,5.49,9.46,7.21-.83,2.3-1.3,4.77-1.3,7.35,0,7.41,3.71,13.95,9.37,17.88-.65,3-.21,7.31,1.9,9.26-.03-2.17.43-5.39,1.66-7.26,2.7,1.21,5.69,1.89,8.84,1.89s6.14-.68,8.84-1.89c1.22,1.87,1.68,5.09,1.66,7.26,2.11-1.95,2.56-6.26,1.9-9.26,5.66-3.93,9.37-10.47,9.37-17.88,0-2.58-.47-5.05-1.3-7.35,3.72-1.72,6.93-4.08,9.46-7.21,3.51,2.56,10,7.31,11.97,8.78,5.48,4.1,7.42,9.05,8.11,13.08.92,5.36.79,10.89-.26,18.71-1.18,8.77-6.67,19.23-13.42,28.81,6.46-4.49,15.73-18.26,18.54-26.69,2.81-8.43,2.29-20.58,1.68-23.03-1.18-4.74-4.06-9.32-8.43-12.36-3.12-2.17-11.52-7.65-16.09-10.4,1.39-2.4,2.46-5.15,3.16-8.28,11.98,2.31,32.04,8.17,34.27,9.41,2.52,1.4,2.53,3.09,1.96,5.9-.56,2.81-2.24,17.14-2.24,24.16s.84,15.17,1.4,20.51c1.69-15.45,3.37-21.63,5.61-31.74,1.88-8.45,4.21-14.89,5.06-17.42.84-2.53-2.25-5.62-8.15-7.02-4.99-1.19-26.66-4.39-37.3-7.38.23-1.84.36-3.78.36-5.86,0-1.25-.09-2.51-.24-3.77,8.5-3.31,35.36-7.54,41.03-8.5,6.94-1.18,8.52-5.39,7.68-7.92ZM75.75,289.65c-3.71,0-6.72-3.01-6.72-6.72,0-2.35,1.21-4.42,3.03-5.62,4.9,1.32,8.43,3.64,10.42,5.62,0,3.71-3.01,6.72-6.72,6.72ZM93.68,289.65c-3.72,0-6.72-3.01-6.72-6.72,1.98-1.98,5.52-4.3,10.41-5.62,1.82,1.2,3.03,3.27,3.03,5.62,0,3.71-3.01,6.72-6.72,6.72Z"/>
  </g>
</svg>