<?xml version="1.0" encoding="UTF-8"?>
<svg id="Layer_2" data-name="Layer 2" xmlns="http://www.w3.org/2000/svg" xmlns:xlink="http://www.w3.org/1999/xlink" viewBox="0 0 294.56 239.67">
  <defs>
    <style>
      .cls-1 {
        fill: none;
      }

      .cls-2 {
        clip-path: url(#clippath-1);
      }

      .cls-3 {
        clip-path: url(#clippath-2);
      }

      .cls-4 {
        fill: url(#linear-gradient);
      }

      .cls-5 {
        clip-path: url(#clippath);
      }
    </style>
    <clipPath id="clippath">
      <rect class="cls-1" width="294.56" height="239.67"/>
    </clipPath>
    <clipPath id="clippath-1">
      <path class="cls-1" d="M233.59,185.97c1.85.24,3.79-1.34,3.78-3.07-.01-1.2-1.17-2.39-2.51-2.55-1.57-.21-3.33.83-3.73,2.2-.39,1.33.99,3.25,2.46,3.43ZM252.79,172.45c-.02-.27.06-.66-.08-.77-1.83-1.41-3.67-2.81-5.58-4.11-.24-.18-1.03.1-1.31.4-1.85,2.05-2.29,4.69-2.91,7.25-.26,1.13.24,2.67.91,2.71.76.04,1.68.14,2.26-.22,2.01-1.21,3.93-2.59,5.84-3.98.39-.29.58-.85.86-1.29ZM222.09,165.57c-.22.15-.5.25-.65.44-1.44,1.86-2.88,3.71-4.25,5.62-.22.31-.21,1.21.02,1.37,3.03,2.15,6.27,3.81,10.13,3.82,1.14,0,2.08-1.08,1.72-2.04-1.31-3.51-3.28-6.56-6.26-8.89-.19-.16-.47-.22-.7-.32ZM256.27,168.22c.23-.14.5-.23.68-.41,2.26-2.3,3.6-5.14,4.57-8.17.21-.67.15-1.62-.18-2.24-.68-1.3-1.91-.61-2.76-.25-1.92.81-3.82,1.73-5.59,2.84-2.74,1.74-2.69,2.66-.09,5.21.93.91,1.79,1.9,2.72,2.83.14.14.43.14.65.19ZM207.3,156.53c-.26.66-.8,1.37-.8,2.08.08,4.67,2.83,7.89,6.16,10.7.21.19,1.16-.04,1.3-.3.95-1.88,1.77-3.83,2.65-5.75.57-1.23.39-2.09-.56-2.81-2.36-1.78-4.94-3.14-7.8-3.91-.25-.06-.53-.01-.95-.01ZM199.2,213.75c0-4.84.03-9.69-.01-14.53-.02-1.6-.07-3.24-.41-4.8-.12-.55-1.1-1.26-1.72-1.29-3.32-.15-6.23,1.42-9.26,2.48-3.28,1.15-6.52,2.44-9.81,3.59-.32.11-.86-.4-1.27-.65-.02-.02.16-.53.35-.69.6-.51,1.2-1.14,1.92-1.41,4.76-1.83,9.54-3.6,14.32-5.37,1.25-.48,2.54-.85,3.76-1.42.35-.16.48-.8.72-1.23-.25-.12-.48-.32-.73-.34-.79-.08-1.6-.2-2.38-.09-1.59.22-3.17.53-4.75.9-8.45,1.98-16.22,5.58-23.68,9.97-3.69,2.17-7.58,4.02-11.39,5.99-.12.06-.56-.16-.6-.31-.13-.47-.19-.97-.15-1.45.02-.18.38-.36.6-.49,5.6-3.21,11.14-6.52,16.82-9.58,5.7-3.08,11.79-5.2,18.1-6.67,1.58-.36,3.14-.75,4.71-1.1,2.84-.64,4.12-1.57,3.41-2.38-1.29-1.47-2.91-.88-4.46-.72-9.17.88-18,3.01-26.39,6.9-1.2.55-2.57.77-3.89.99-.29.04-.74-.5-1.01-.86-.11-.14-.02-.67.11-.73,8.77-4.22,17.87-7.39,27.63-8.41,1.85-.19,3.69-.55,5.51-.96.33-.08.7-.8.7-1.22-.01-.32-.59-.87-.93-.89-2.96-.13-5.91-.13-8.86-.22-1.59-.05-3.19-.2-4.78-.35-.2-.02-.57-.34-.55-.4.18-.46.35-1.16.69-1.27,1-.31,2.07-.49,3.11-.52,2.42-.09,4.85-.06,7.26-.11,1.53-.04,2.52-.72,2.3-1.47-.38-1.31-1.54-1.4-2.55-1.54-6.12-.82-12.25-1.65-18.38-2.33-2.66-.3-5.36-.23-8.04-.34-.74-.03-1.05-.4-.79-.98.22-.45.53-1.18.86-1.21,1.85-.19,3.73-.44,5.56-.24,5.88.64,11.74,1.48,17.61,2.19.49.06,1.01-.19,1.52-.3-.4-.34-.76-.79-1.23-1.01-2.91-1.35-5.84-2.65-8.74-4.02-.15-.06-.25-.58-.14-.75.24-.38.57-.87.94-.94.48-.09,1.05.12,1.55.29,2.29.79,4.53,1.75,6.86,2.37,1.37.36,2.91,2.2,4.25.39,1.01-1.37.36-3.16-.14-4.67-.83-2.54-1.67-5.13-2.87-7.51-3.82-7.5-6.62-15.29-7.63-23.67-.29-2.37-1.31-4.01-3.49-4.98-2.2-.99-4.35-2.1-6.57-3.05-1.08-.46-2.26-.05-2.91.81-2.94,3.87-5.48,7.99-6.84,12.71-1.03,3.62-1.94,7.27-2.92,10.91-2.59,9.59-5.18,19.2-7.77,28.8-2.89,10.68-8.4,19.72-16.81,26.96-.81.7-1.6,1.44-2.32,2.24-.93,1.05-1.34,2.38-1.08,3.75,1.03,5.3,2.93,10.33,5.14,15.23.4.89,1.38,1.64,2.27,2.16,1.61.96,3.41,1.58,5,2.56,1.43.88,2.3,2.29,2.23,4.05-.09,2.06-1.23,3.47-3.07,4.37-3.81,1.88-7.35,1.17-10.52-1.41-1.23-1-2.32-2.29-3.1-3.68-3.55-6.32-6.98-12.72-10.44-19.1-2.01-3.71-1.61-7.22.85-10.58,2.54-3.47,5.11-6.94,7.53-10.48,2.34-3.45,1.9-7.78-1.01-11.07-.23-.25-1.04-.15-1.51.01-.49.16-.94.52-1.3.9-5.91,6.27-11.47,12.83-16.66,19.71-1.91,2.53-2.78,5.25-2.22,8.3.58,3.16,1.24,6.33,2.22,9.38,1,3.15,2.94,5.66,5.99,7.3,1.63.88,3.13,2.07,4.5,3.32,1.34,1.22,1.21,3.87-.2,5.09-1,.86-2.13,1.75-3.36,2.09-6.05,1.73-12.09-.91-15.02-6.45-.5-.94-.87-1.97-1.23-2.98-2.2-6.35-4.33-12.72-6.61-19.05-1.97-5.47-1.34-10.56,1.87-15.37,1.35-2.01,2.63-4.07,3.97-6.07,3.71-5.52,4.52-11.24,2.07-17.6-2.91-7.53-4.97-15.34-6.42-23.29-1.4-7.69-2.52-15.39-2.28-23.24.09-2.95.09-5.92-.14-8.87-.99-13.16-.7-26.35-.8-39.52-.03-5.1-.28-10.23-.9-15.29-.41-3.43-1.36-6.86-2.53-10.13-3.71-10.44-11.15-16.96-21.88-19.49-7.19-1.7-14.44-1.73-21.4,1.18-8.85,3.71-14.27,10.14-15.88,19.78-.9,5.4-1.04,10.7.28,16,.91,3.7,2.47,7.09,4.64,10.23,5.07,7.32,13.28,9.07,20.7,6.84,2.9-.88,5.25-2.65,7.02-5.16,2.6-3.66,1.95-8.69-1.72-11.52-.97-.74-2.49-1.13-3.73-1.06-1.55.08-3.09.77-4.63,1.23-6.96,2.08-12.2-2.13-13.96-7.64-2.97-9.37,2.59-21.56,13.71-23.58,5.32-.97,10.17.59,14.54,3.52,7.27,4.87,11.72,11.76,13.49,20.29,1.53,7.33.91,14.45-2.76,21.14-.64,1.17-1.4,2.36-1.7,3.64-.85,3.61-2.74,6.33-6.03,8.06-1.08,2.1-2.66,2.2-4.67,1.34-1.07-.46-2.08.05-2.81.99-.49.63-.96,1.36-1.6,1.8-.61.41-1.61.9-2.15.67-2.12-.89-2.92.36-3.67,1.89-.23.48-.38,1.06-.73,1.43-.79.83-1.72,1.25-2.77.38-.59-.5-1.16-1.29-2.02-.79-1.54.9-2.95.82-4.57.15-1.42-.6-3-.83-4.51-1.21-3.2,2.2-3.45-.45-4.15-2.47-.16-.48-.57-1.2-.92-1.24-2.25-.23-3.84-1.2-5.38-2.97-1.11-1.28-3.06-1.88-4.42-3.15-.3-.28-1.4.28-2.13.45-1.53.36-2.55.06-2.52-.96.1-2.9-1.41-4.87-3.39-6.64-.06-1.86-1.76-2.53-2.64-3.77-.7-1-.7-2.49-1-3.76-3.26-1.34-1.48-3.35-.74-5.25.41-1.06-.35-1.34-1.14-1.51-.79-.16-1.62-.18-2.34-.49-.38-.15-.9-.97-.79-1.14,1.42-2.33-2.02-4.45-.29-6.79.22-.29.2-1.07-.03-1.37-1.65-2.05-1.78-5.1-4.5-6.49-.83-.43-.28-1.45.4-1.9,1.11-.74,2.34-1.3,3.44-2.06.74-.51.91-1.47.3-2.09-1.15-1.18-1.29-2.34-.16-3.45,1.08-1.06.53-1.62-.2-2.56-.99-1.25-.8-2.2.16-2.65,1.21-.57,2.47-1.05,3.72-1.54.88-.35,1.03-.97,1-1.87-.08-2.87-.02-2.86,2.08-3.34.52-.12,1.07-.14,1.59-.27,2.37-.63,2.6-.91,2.9-3.17.04-.26,0-.54.02-.8.4-3.38.4-3.41,3.75-3.87q2.73-.38,2.78-3.61c.03-2.4.14-2.7,2.67-3.02,2.05-.26,3.62-.59,3.89-3.08.12-1.2,1.27-1.64,2.43-1.53,1.68.16,3.16.23,3.82-1.87.15-.47,1.35-.86,2.04-.83,1.33.06,2.66.39,3.95.74,2.27.62,3.47-.15,4.12-2.44.38-1.3,1.5-1.59,2.55-1.11,1.21.57,2.39,1.25,3.6,1.8,1.07.49,1.86.15,2.61-1.1.28-.45.41-1,.7-1.46,1.5-2.49,1.85-2.66,4.14-.61,1.2,1.08,1.71.44,2.64-.19,1.63-1.11,2.64-.88,3.29.49.35.72.53,1.52.84,2.26.65,1.57.94,1.68,2.3.83.45-.28.77-.8,1.24-1,.44-.2,1.2-.38,1.48-.14.99.8,1.69,2.07,2.77,2.63,1.08.57,2.51.42,3.73.76.42.13.79.72,1.03,1.18.81,1.6,1.92,2.42,3.85,2.12,1.06-.17,2.25.27,2.5,1.54.43,2.2,1.81,2.15,3.53,1.82.33-.06,1.07.49,1.14.86.28,1.31.45,2.64.49,3.98.06,1.81.63,3.03,2.63,3.38,1.58.29,1.82,1.74,2.2,3.04.22.76.69,1.18,1.6,1.44,3.18.89,3.33,1.01,2.65,3.35-.7,2.46-1.23,4.66,1.14,6.58.45.36.51,1.48.39,2.19-.27,1.47.13,2.74,1.08,3.71,3.47,3.55,3.51,7.53,1.75,11.82-.3.74-.71,1.51-.75,2.27-.31,7.51-.56,15.02-.8,22.54-.01.16.24.45.41.49.24.05.62.03.76-.13,3.66-4.02,6.59-8.43,7.4-13.98.18-1.25,1.13-1.47,2.41-1.22,2.1.42,2.83.04,3.14-1.24.31-1.29.51-2.62.78-3.92.18-.85.7-1.66,1.57-1.48,1.58.33,2.47-.27,3.2-1.56.78-1.38,1.62-2.74,2.54-4.03.15-.19,1.08-.15,1.29.09.52.59.79,1.37,1.24,2.04,1.14,1.69,2.59,1.77,3.82.14.97-1.28,1.88-2.6,2.75-3.97.73-1.13,1.27-2.37,2.02-3.48.22-.33.89-.61,1.27-.54.43.09.88.55,1.13.96.26.45.25,1.04.46,1.53.21.47.48,1.04.87,1.24.26.14,1-.2,1.22-.52,1.2-1.78,2.3-3.63,3.47-5.43.59-.89,1.25-1.74,1.89-2.59.63-.81,1.98-.45,2.49.7.32.73.55,1.5.81,2.25.56-.73,1.37-1.38,1.64-2.21,1.03-3.05,1.87-6.17,2.86-9.23.11-.34.8-.71,1.18-.68.43.05,1,.44,1.18.84.35.7.43,1.54.65,2.3.51,1.81,1.01,3.63,1.59,5.41.13.37.65.6.99.91.08-.26.23-.5.25-.77.22-3.48.4-6.96.69-10.44.03-.32.7-.8,1.1-.81.44-.02,1.16.29,1.3.65.78,1.99,1.36,4.07,2.12,6.09.94,2.52,1.95,4.99,3,7.46.19.45.73.74,1.11,1.1.31-.38.79-.69.92-1.13.33-1.01.42-2.11.76-3.12.15-.45.59-.93,1.03-1.1.89-.37,1.44.32,1.88.96,2.11,3.08,3.35,6.74,6.24,9.29.18.15.51.26.7.2.22-.08.44-.36.52-.59.15-.49.26-1.03.33-1.55.08-.53.04-1.08.16-1.6.17-.8.48-1.61,1.45-1.59.44,0,1.02.36,1.27.73.74,1.11,1.33,2.32,2.02,3.48,1.37,2.32,2.84,4.56,4.11,6.93,1.48,2.78,4.33,3.92,6.62,5.72.97.76,1.91-.46,2.84-.87,1.31-.57,2.1-.16,2.29,1.14.16,1.06.14,2.15.29,3.2.16,1.11,1.44,1.79,2.42,1.31.47-.23.9-.58,1.33-.89.88-.61,1.79-1.35,2.84-.48.99.83.54,1.95.28,2.98-.14.52-.35,1.03-.43,1.55-.35,2.36.59,3.2,3.18,2.87.52-.07,1.08-.31,1.55-.2.42.1,1.03.56,1.06.9.12,1.05-.03,2.12-.02,3.18,0,2.43.15,2.56,2.79,2.43,2.01-.1,2.18-.13,2.25,2.13.06,1.69.5,2.52,2.3,2.12.26-.06.68-.11.78.03,1.54,2.05,4.02,3.92,3.25,6.77-1.48,5.54.03,10.54,1.65,15.72,2.41,7.7,4.19,15.58,5.21,23.6.14,1.06.38,2.12.67,3.14.31,1.08,1,1.94,2.14,2.19,5.57,1.19,10.83,3.15,15.77,5.99,1.03.59,2.07.2,2.89-.63,2.27-2.29,4.44-4.7,6.84-6.85,2.39-2.15,4.96-4.11,7.56-5.99.83-.59,1.99-.79,3.03-.99,1.73-.32,3.99,1.36,4.14,3.06.1,1.06.2,2.17-.01,3.19-1.97,9.47-3.24,19.11-6.99,28.13-.85,2.04-1,4.16-.83,6.33.08,1.14,1.09,2.02,2.12,1.75.79-.19,1.57-.36,2.33-.63,2.03-.71,4.03-1.48,6.06-2.19,1.11-.39,3.17.08,2.91.4-.65.8-1.38,1.71-2.29,2.08-3.21,1.35-6.53,2.47-9.78,3.76-.7.29-1.3.88-1.89,1.39-.16.15-.21.52-.17.77.03.15.3.4.46.4,1.33,0,2.7.14,3.98-.13,5.53-1.15,11.02-2.45,16.54-3.62,1.57-.34,3.17-.51,4.77-.63.35-.02.76.5,1.07.84.06.06-.16.59-.36.66-1.48.59-2.94,1.32-4.48,1.63-7.11,1.44-14.11,3.39-21.38,4.05-.43.04-.83.56-1.23.87-.64.48.06,1.24,1.31,1.38,1.6.19,3.22.27,4.81.5,2.93.45,5.84.95,8.74,1.53.39.07.68.71,1,1.1-.44.26-.9.78-1.31.74-3.75-.3-7.49-.7-11.23-1.07-2.4-.24-4.8-.52-7.2-.68-.31-.02-.97.64-.91.84.13.45.51,1,.93,1.17.98.4,2.03.66,3.07.88,8.43,1.7,16.87,3.37,25.3,5.08.75.16,1.53.48,2.16.91.31.22.38.87.41,1.34.02.16-.36.51-.56.51-.8,0-1.61-.05-2.39-.21-7.89-1.69-15.73-3.51-23.65-5.07-3.14-.63-6.39-.73-9.59-1-.44-.04-.93.4-1.39.61.51.53.92,1.3,1.55,1.57,1.23.51,2.56.79,3.87,1.11,2.08.51,4.16,1.05,6.27,1.47,7.03,1.41,13.14,4.67,18.64,9.13,2.51,2.03,4.87,4.22,7.23,6.41.27.26.33,1.07.13,1.4-.17.29-1.06.51-1.3.33-2.14-1.61-4.26-3.28-6.3-5.02-6.26-5.37-13.38-8.92-21.5-10.45-3.96-.74-7.9-1.65-11.83-2.53-2.17-.48-4.29-.48-6.3.52-.68.34-1.23.96-1.83,1.45.44.29.85.73,1.33.83,2.35.52,4.71,1.05,7.09,1.42,5.05.76,10.11,1.39,15.15,2.16.29.04.71.83.64,1.17-.08.39-.62.71-1.03.97-.19.13-.53.09-.79.06-9.56-1.39-19.26-2-28.53-5.07-.5-.16-1.04-.25-1.57-.34-.94-.18-2.2.74-2.4,1.72-.1.53-.23,1.06-.26,1.59-.55,7.78-1.09,15.56-1.6,23.35-.09,1.33-.06,2.69-.02,4.02.06,2.03.88,3.57,2.83,4.48,1.44.68,2.84,1.49,4.15,2.4,1.2.83,1.13,3.32-.01,4.35-3.86,3.51-10.26,3.8-14.09.57-1.47-1.24-2.57-2.82-2.78-4.77-.24-2.13-.43-4.29-.35-6.43.18-4.02.56-8.05.86-12.07.28-3.75.7-7.5.84-11.25.33-9.31,1.1-8.23-9.15-10.03-1.42-.26-2.84.75-2.97,2.06-.92,9.91-1.85,19.8-2.69,29.72-.18,2.19.49,4.25,2.1,5.9.56.58,1.09,1.21,1.54,1.87,2.18,3.15,1.25,6.24-2.4,7.74-1.23.5-2.57.85-3.88.93-3.99.24-7.5-2.64-7.95-6.47-.19-1.6-.18-3.22-.19-4.83-.02-4.85,0-9.69,0-14.53h.46Z"/>
    </clipPath>
    <clipPath id="clippath-2">
      <path class="cls-1" d="M233.59,185.97c1.85.24,3.79-1.34,3.78-3.07-.01-1.2-1.17-2.39-2.51-2.55-1.57-.21-3.33.83-3.73,2.2-.39,1.33.99,3.25,2.46,3.43ZM252.79,172.45c-.02-.27.06-.66-.08-.77-1.83-1.41-3.67-2.81-5.58-4.11-.24-.18-1.03.1-1.31.4-1.85,2.05-2.29,4.69-2.91,7.25-.26,1.13.24,2.67.91,2.71.76.04,1.68.14,2.26-.22,2.01-1.21,3.93-2.59,5.84-3.98.39-.29.58-.85.86-1.29ZM222.09,165.57c-.22.15-.5.25-.65.44-1.44,1.86-2.88,3.71-4.25,5.62-.22.31-.21,1.21.02,1.37,3.03,2.15,6.27,3.81,10.13,3.82,1.14,0,2.08-1.08,1.72-2.04-1.31-3.51-3.28-6.56-6.26-8.89-.19-.16-.47-.22-.7-.32ZM256.27,168.22c.23-.14.5-.23.68-.41,2.26-2.3,3.6-5.14,4.57-8.17.21-.67.15-1.62-.18-2.24-.68-1.3-1.91-.61-2.76-.25-1.92.81-3.82,1.73-5.59,2.84-2.74,1.74-2.69,2.66-.09,5.21.93.91,1.79,1.9,2.72,2.83.14.14.43.14.65.19ZM207.3,156.53c-.26.66-.8,1.37-.8,2.08.08,4.67,2.83,7.89,6.16,10.7.21.19,1.16-.04,1.3-.3.95-1.88,1.77-3.83,2.65-5.75.57-1.23.39-2.09-.56-2.81-2.36-1.78-4.94-3.14-7.8-3.91-.25-.06-.53-.01-.95-.01ZM199.2,213.75c0-4.84.03-9.69-.01-14.53-.02-1.6-.07-3.24-.41-4.8-.12-.55-1.1-1.26-1.72-1.29-3.32-.15-6.23,1.42-9.26,2.48-3.28,1.15-6.52,2.44-9.81,3.59-.32.11-.86-.4-1.27-.65-.02-.02.16-.53.35-.69.6-.51,1.2-1.14,1.92-1.41,4.76-1.83,9.54-3.6,14.32-5.37,1.25-.48,2.54-.85,3.76-1.42.35-.16.48-.8.72-1.23-.25-.12-.48-.32-.73-.34-.79-.08-1.6-.2-2.38-.09-1.59.22-3.17.53-4.75.9-8.45,1.98-16.22,5.58-23.68,9.97-3.69,2.17-7.58,4.02-11.39,5.99-.12.06-.56-.16-.6-.31-.13-.47-.19-.97-.15-1.45.02-.18.38-.36.6-.49,5.6-3.21,11.14-6.52,16.82-9.58,5.7-3.08,11.79-5.2,18.1-6.67,1.58-.36,3.14-.75,4.71-1.1,2.84-.64,4.12-1.57,3.41-2.38-1.29-1.47-2.91-.88-4.46-.72-9.17.88-18,3.01-26.39,6.9-1.2.55-2.57.77-3.89.99-.29.04-.74-.5-1.01-.86-.11-.14-.02-.67.11-.73,8.77-4.22,17.87-7.39,27.63-8.41,1.85-.19,3.69-.55,5.51-.96.33-.08.7-.8.7-1.22-.01-.32-.59-.87-.93-.89-2.96-.13-5.91-.13-8.86-.22-1.59-.05-3.19-.2-4.78-.35-.2-.02-.57-.34-.55-.4.18-.46.35-1.16.69-1.27,1-.31,2.07-.49,3.11-.52,2.42-.09,4.85-.06,7.26-.11,1.53-.04,2.52-.72,2.3-1.47-.38-1.31-1.54-1.4-2.55-1.54-6.12-.82-12.25-1.65-18.38-2.33-2.66-.3-5.36-.23-8.04-.34-.74-.03-1.05-.4-.79-.98.22-.45.53-1.18.86-1.21,1.85-.19,3.73-.44,5.56-.24,5.88.64,11.74,1.48,17.61,2.19.49.06,1.01-.19,1.52-.3-.4-.34-.76-.79-1.23-1.01-2.91-1.35-5.84-2.65-8.74-4.02-.15-.06-.25-.58-.14-.75.24-.38.57-.87.94-.94.48-.09,1.05.12,1.55.29,2.29.79,4.53,1.75,6.86,2.37,1.37.36,2.91,2.2,4.25.39,1.01-1.37.36-3.16-.14-4.67-.83-2.54-1.67-5.13-2.87-7.51-3.82-7.5-6.62-15.29-7.63-23.67-.29-2.37-1.31-4.01-3.49-4.98-2.2-.99-4.35-2.1-6.57-3.05-1.08-.46-2.26-.05-2.91.81-2.94,3.87-5.48,7.99-6.84,12.71-1.03,3.62-1.94,7.27-2.92,10.91-2.59,9.59-5.18,19.2-7.77,28.8-2.89,10.68-8.4,19.72-16.81,26.96-.81.7-1.6,1.44-2.32,2.24-.93,1.05-1.34,2.38-1.08,3.75,1.03,5.3,2.93,10.33,5.14,15.23.4.89,1.38,1.64,2.27,2.16,1.61.96,3.41,1.58,5,2.56,1.43.88,2.3,2.29,2.23,4.05-.09,2.06-1.23,3.47-3.07,4.37-3.81,1.88-7.35,1.17-10.52-1.41-1.23-1-2.32-2.29-3.1-3.68-3.55-6.32-6.98-12.72-10.44-19.1-2.01-3.71-1.61-7.22.85-10.58,2.54-3.47,5.11-6.94,7.53-10.48,2.34-3.45,1.9-7.78-1.01-11.07-.23-.25-1.04-.15-1.51.01-.49.16-.94.52-1.3.9-5.91,6.27-11.47,12.83-16.66,19.71-1.91,2.53-2.78,5.25-2.22,8.3.58,3.16,1.24,6.33,2.22,9.38,1,3.15,2.94,5.66,5.99,7.3,1.63.88,3.13,2.07,4.5,3.32,1.34,1.22,1.21,3.87-.2,5.09-1,.86-2.13,1.75-3.36,2.09-6.05,1.73-12.09-.91-15.02-6.45-.5-.94-.87-1.97-1.23-2.98-2.2-6.35-4.33-12.72-6.61-19.05-1.97-5.47-1.34-10.56,1.87-15.37,1.35-2.01,2.63-4.07,3.97-6.07,3.71-5.52,4.52-11.24,2.07-17.6-2.91-7.53-4.97-15.34-6.42-23.29-1.4-7.69-2.52-15.39-2.28-23.24.09-2.95.09-5.92-.14-8.87-.99-13.16-.7-26.35-.8-39.52-.03-5.1-.28-10.23-.9-15.29-.41-3.43-1.36-6.86-2.53-10.13-3.71-10.44-11.15-16.96-21.88-19.49-7.19-1.7-14.44-1.73-21.4,1.18-8.85,3.71-14.27,10.14-15.88,19.78-.9,5.4-1.04,10.7.28,16,.91,3.7,2.47,7.09,4.64,10.23,5.07,7.32,13.28,9.07,20.7,6.84,2.9-.88,5.25-2.65,7.02-5.16,2.6-3.66,1.95-8.69-1.72-11.52-.97-.74-2.49-1.13-3.73-1.06-1.55.08-3.09.77-4.63,1.23-6.96,2.08-12.2-2.13-13.96-7.64-2.97-9.37,2.59-21.56,13.71-23.58,5.32-.97,10.17.59,14.54,3.52,7.27,4.87,11.72,11.76,13.49,20.29,1.53,7.33.91,14.45-2.76,21.14-.64,1.17-1.4,2.36-1.7,3.64-.85,3.61-2.74,6.33-6.03,8.06-1.08,2.1-2.66,2.2-4.67,1.34-1.07-.46-2.08.05-2.81.99-.49.63-.96,1.36-1.6,1.8-.61.41-1.61.9-2.15.67-2.12-.89-2.92.36-3.67,1.89-.23.48-.38,1.06-.73,1.43-.79.83-1.72,1.25-2.77.38-.59-.5-1.16-1.29-2.02-.79-1.54.9-2.95.82-4.57.15-1.42-.6-3-.83-4.51-1.21-3.2,2.2-3.45-.45-4.15-2.47-.16-.48-.57-1.2-.92-1.24-2.25-.23-3.84-1.2-5.38-2.97-1.11-1.28-3.06-1.88-4.42-3.15-.3-.28-1.4.28-2.13.45-1.53.36-2.55.06-2.52-.96.1-2.9-1.41-4.87-3.39-6.64-.06-1.86-1.76-2.53-2.64-3.77-.7-1-.7-2.49-1-3.76-3.26-1.34-1.48-3.35-.74-5.25.41-1.06-.35-1.34-1.14-1.51-.79-.16-1.62-.18-2.34-.49-.38-.15-.9-.97-.79-1.14,1.42-2.33-2.02-4.45-.29-6.79.22-.29.2-1.07-.03-1.37-1.65-2.05-1.78-5.1-4.5-6.49-.83-.43-.28-1.45.4-1.9,1.11-.74,2.34-1.3,3.44-2.06.74-.51.91-1.47.3-2.09-1.15-1.18-1.29-2.34-.16-3.45,1.08-1.06.53-1.62-.2-2.56-.99-1.25-.8-2.2.16-2.65,1.21-.57,2.47-1.05,3.72-1.54.88-.35,1.03-.97,1-1.87-.08-2.87-.02-2.86,2.08-3.34.52-.12,1.07-.14,1.59-.27,2.37-.63,2.6-.91,2.9-3.17.04-.26,0-.54.02-.8.4-3.38.4-3.41,3.75-3.87q2.73-.38,2.78-3.61c.03-2.4.14-2.7,2.67-3.02,2.05-.26,3.62-.59,3.89-3.08.12-1.2,1.27-1.64,2.43-1.53,1.68.16,3.16.23,3.82-1.87.15-.47,1.35-.86,2.04-.83,1.33.06,2.66.39,3.95.74,2.27.62,3.47-.15,4.12-2.44.38-1.3,1.5-1.59,2.55-1.11,1.21.57,2.39,1.25,3.6,1.8,1.07.49,1.86.15,2.61-1.1.28-.45.41-1,.7-1.46,1.5-2.49,1.85-2.66,4.14-.61,1.2,1.08,1.71.44,2.64-.19,1.63-1.11,2.64-.88,3.29.49.35.72.53,1.52.84,2.26.65,1.57.94,1.68,2.3.83.45-.28.77-.8,1.24-1,.44-.2,1.2-.38,1.48-.14.99.8,1.69,2.07,2.77,2.63,1.08.57,2.51.42,3.73.76.42.13.79.72,1.03,1.18.81,1.6,1.92,2.42,3.85,2.12,1.06-.17,2.25.27,2.5,1.54.43,2.2,1.81,2.15,3.53,1.82.33-.06,1.07.49,1.14.86.28,1.31.45,2.64.49,3.98.06,1.81.63,3.03,2.63,3.38,1.58.29,1.82,1.74,2.2,3.04.22.76.69,1.18,1.6,1.44,3.18.89,3.33,1.01,2.65,3.35-.7,2.46-1.23,4.66,1.14,6.58.45.36.51,1.48.39,2.19-.27,1.47.13,2.74,1.08,3.71,3.47,3.55,3.51,7.53,1.75,11.82-.3.74-.71,1.51-.75,2.27-.31,7.51-.56,15.02-.8,22.54-.01.16.24.45.41.49.24.05.62.03.76-.13,3.66-4.02,6.59-8.43,7.4-13.98.18-1.25,1.13-1.47,2.41-1.22,2.1.42,2.83.04,3.14-1.24.31-1.29.51-2.62.78-3.92.18-.85.7-1.66,1.57-1.48,1.58.33,2.47-.27,3.2-1.56.78-1.38,1.62-2.74,2.54-4.03.15-.19,1.08-.15,1.29.09.52.59.79,1.37,1.24,2.04,1.14,1.69,2.59,1.77,3.82.14.97-1.28,1.88-2.6,2.75-3.97.73-1.13,1.27-2.37,2.02-3.48.22-.33.89-.61,1.27-.54.43.09.88.55,1.13.96.26.45.25,1.04.46,1.53.21.47.48,1.04.87,1.24.26.14,1-.2,1.22-.52,1.2-1.78,2.3-3.63,3.47-5.43.59-.89,1.25-1.74,1.89-2.59.63-.81,1.98-.45,2.49.7.32.73.55,1.5.81,2.25.56-.73,1.37-1.38,1.64-2.21,1.03-3.05,1.87-6.17,2.86-9.23.11-.34.8-.71,1.18-.68.43.05,1,.44,1.18.84.35.7.43,1.54.65,2.3.51,1.81,1.01,3.63,1.59,5.41.13.37.65.6.99.91.08-.26.23-.5.25-.77.22-3.48.4-6.96.69-10.44.03-.32.7-.8,1.1-.81.44-.02,1.16.29,1.3.65.78,1.99,1.36,4.07,2.12,6.09.94,2.52,1.95,4.99,3,7.46.19.45.73.74,1.11,1.1.31-.38.79-.69.92-1.13.33-1.01.42-2.11.76-3.12.15-.45.59-.93,1.03-1.1.89-.37,1.44.32,1.88.96,2.11,3.08,3.35,6.74,6.24,9.29.18.15.51.26.7.2.22-.08.44-.36.52-.59.15-.49.26-1.03.33-1.55.08-.53.04-1.08.16-1.6.17-.8.48-1.61,1.45-1.59.44,0,1.02.36,1.27.73.74,1.11,1.33,2.32,2.02,3.48,1.37,2.32,2.84,4.56,4.11,6.93,1.48,2.78,4.33,3.92,6.62,5.72.97.76,1.91-.46,2.84-.87,1.31-.57,2.1-.16,2.29,1.14.16,1.06.14,2.15.29,3.2.16,1.11,1.44,1.79,2.42,1.31.47-.23.9-.58,1.33-.89.88-.61,1.79-1.35,2.84-.48.99.83.54,1.95.28,2.98-.14.52-.35,1.03-.43,1.55-.35,2.36.59,3.2,3.18,2.87.52-.07,1.08-.31,1.55-.2.42.1,1.03.56,1.06.9.12,1.05-.03,2.12-.02,3.18,0,2.43.15,2.56,2.79,2.43,2.01-.1,2.18-.13,2.25,2.13.06,1.69.5,2.52,2.3,2.12.26-.06.68-.11.78.03,1.54,2.05,4.02,3.92,3.25,6.77-1.48,5.54.03,10.54,1.65,15.72,2.41,7.7,4.19,15.58,5.21,23.6.14,1.06.38,2.12.67,3.14.31,1.08,1,1.94,2.14,2.19,5.57,1.19,10.83,3.15,15.77,5.99,1.03.59,2.07.2,2.89-.63,2.27-2.29,4.44-4.7,6.84-6.85,2.39-2.15,4.96-4.11,7.56-5.99.83-.59,1.99-.79,3.03-.99,1.73-.32,3.99,1.36,4.14,3.06.1,1.06.2,2.17-.01,3.19-1.97,9.47-3.24,19.11-6.99,28.13-.85,2.04-1,4.16-.83,6.33.08,1.14,1.09,2.02,2.12,1.75.79-.19,1.57-.36,2.33-.63,2.03-.71,4.03-1.48,6.06-2.19,1.11-.39,3.17.08,2.91.4-.65.8-1.38,1.71-2.29,2.08-3.21,1.35-6.53,2.47-9.78,3.76-.7.29-1.3.88-1.89,1.39-.16.15-.21.52-.17.77.03.15.3.4.46.4,1.33,0,2.7.14,3.98-.13,5.53-1.15,11.02-2.45,16.54-3.62,1.57-.34,3.17-.51,4.77-.63.35-.02.76.5,1.07.84.06.06-.16.59-.36.66-1.48.59-2.94,1.32-4.48,1.63-7.11,1.44-14.11,3.39-21.38,4.05-.43.04-.83.56-1.23.87-.64.48.06,1.24,1.31,1.38,1.6.19,3.22.27,4.81.5,2.93.45,5.84.95,8.74,1.53.39.07.68.71,1,1.1-.44.26-.9.78-1.31.74-3.75-.3-7.49-.7-11.23-1.07-2.4-.24-4.8-.52-7.2-.68-.31-.02-.97.64-.91.84.13.45.51,1,.93,1.17.98.4,2.03.66,3.07.88,8.43,1.7,16.87,3.37,25.3,5.08.75.16,1.53.48,2.16.91.31.22.38.87.41,1.34.02.16-.36.51-.56.51-.8,0-1.61-.05-2.39-.21-7.89-1.69-15.73-3.51-23.65-5.07-3.14-.63-6.39-.73-9.59-1-.44-.04-.93.4-1.39.61.51.53.92,1.3,1.55,1.57,1.23.51,2.56.79,3.87,1.11,2.08.51,4.16,1.05,6.27,1.47,7.03,1.41,13.14,4.67,18.64,9.13,2.51,2.03,4.87,4.22,7.23,6.41.27.26.33,1.07.13,1.4-.17.29-1.06.51-1.3.33-2.14-1.61-4.26-3.28-6.3-5.02-6.26-5.37-13.38-8.92-21.5-10.45-3.96-.74-7.9-1.65-11.83-2.53-2.17-.48-4.29-.48-6.3.52-.68.34-1.23.96-1.83,1.45.44.29.85.73,1.33.83,2.35.52,4.71,1.05,7.09,1.42,5.05.76,10.11,1.39,15.15,2.16.29.04.71.83.64,1.17-.08.39-.62.71-1.03.97-.19.13-.53.09-.79.06-9.56-1.39-19.26-2-28.53-5.07-.5-.16-1.04-.25-1.57-.34-.94-.18-2.2.74-2.4,1.72-.1.53-.23,1.06-.26,1.59-.55,7.78-1.09,15.56-1.6,23.35-.09,1.33-.06,2.69-.02,4.02.06,2.03.88,3.57,2.83,4.48,1.44.68,2.84,1.49,4.15,2.4,1.2.83,1.13,3.32-.01,4.35-3.86,3.51-10.26,3.8-14.09.57-1.47-1.24-2.57-2.82-2.78-4.77-.24-2.13-.43-4.29-.35-6.43.18-4.02.56-8.05.86-12.07.28-3.75.7-7.5.84-11.25.33-9.31,1.1-8.23-9.15-10.03-1.42-.26-2.84.75-2.97,2.06-.92,9.91-1.85,19.8-2.69,29.72-.18,2.19.49,4.25,2.1,5.9.56.58,1.09,1.21,1.54,1.87,2.18,3.15,1.25,6.24-2.4,7.74-1.23.5-2.57.85-3.88.93-3.99.24-7.5-2.64-7.95-6.47-.19-1.6-.18-3.22-.19-4.83-.02-4.85,0-9.69,0-14.53h.46Z"/>
    </clipPath>
    <linearGradient id="linear-gradient" x1="-1467.34" y1="275.39" x2="-1466.42" y2="275.39" gradientTransform="translate(-71875.87 383751.69) rotate(90) scale(261.53 -261.53)" gradientUnits="userSpaceOnUse">
      <stop offset="0" stop-color="#60c9b6"/>
      <stop offset=".02" stop-color="#60c9b6"/>
      <stop offset=".02" stop-color="#60c9b6"/>
      <stop offset=".03" stop-color="#60c9b7"/>
      <stop offset=".04" stop-color="#60c9b7"/>
      <stop offset=".05" stop-color="#60c9b7"/>
      <stop offset=".05" stop-color="#60c9b8"/>
      <stop offset=".06" stop-color="#60c9b8"/>
      <stop offset=".07" stop-color="#60c9b9"/>
      <stop offset=".08" stop-color="#61c9b9"/>
      <stop offset=".09" stop-color="#61c9b9"/>
      <stop offset=".09" stop-color="#61c9ba"/>
      <stop offset=".11" stop-color="#61c9ba"/>
      <stop offset=".12" stop-color="#61c9bb"/>
      <stop offset=".12" stop-color="#61c9bb"/>
      <stop offset=".13" stop-color="#61c9bc"/>
      <stop offset=".14" stop-color="#61c9bc"/>
      <stop offset=".16" stop-color="#61c9bc"/>
      <stop offset=".16" stop-color="#61cabd"/>
      <stop offset=".17" stop-color="#61cabd"/>
      <stop offset=".18" stop-color="#61cabe"/>
      <stop offset=".18" stop-color="#61cabe"/>
      <stop offset=".19" stop-color="#61cabe"/>
      <stop offset=".2" stop-color="#61cabe"/>
      <stop offset=".2" stop-color="#61cabf"/>
      <stop offset=".22" stop-color="#61cabf"/>
      <stop offset=".22" stop-color="#61cac0"/>
      <stop offset=".23" stop-color="#61cac0"/>
      <stop offset=".23" stop-color="#61cac0"/>
      <stop offset=".24" stop-color="#61cac0"/>
      <stop offset=".25" stop-color="#61cac1"/>
      <stop offset=".26" stop-color="#61cac1"/>
      <stop offset=".26" stop-color="#62cac1"/>
      <stop offset=".27" stop-color="#62cac2"/>
      <stop offset=".27" stop-color="#62cac2"/>
      <stop offset=".28" stop-color="#62cac2"/>
      <stop offset=".3" stop-color="#62cac3"/>
      <stop offset=".31" stop-color="#62cac3"/>
      <stop offset=".33" stop-color="#62cac4"/>
      <stop offset=".34" stop-color="#62cac4"/>
      <stop offset=".34" stop-color="#62cac5"/>
      <stop offset=".35" stop-color="#62cac5"/>
      <stop offset=".36" stop-color="#62cac6"/>
      <stop offset=".38" stop-color="#62cac6"/>
      <stop offset=".38" stop-color="#62cac7"/>
      <stop offset=".39" stop-color="#62cac7"/>
      <stop offset=".41" stop-color="#62cac7"/>
      <stop offset=".41" stop-color="#63cbc7"/>
      <stop offset=".42" stop-color="#63cbc8"/>
      <stop offset=".43" stop-color="#63cbc8"/>
      <stop offset=".43" stop-color="#61cac7"/>
      <stop offset=".44" stop-color="#60cac7"/>
      <stop offset=".44" stop-color="#60c9c6"/>
      <stop offset=".45" stop-color="#5fc9c5"/>
      <stop offset=".45" stop-color="#5ec9c5"/>
      <stop offset=".45" stop-color="#5dc9c4"/>
      <stop offset=".46" stop-color="#5cc8c4"/>
      <stop offset=".46" stop-color="#5bc8c4"/>
      <stop offset=".46" stop-color="#5ac8c3"/>
      <stop offset=".47" stop-color="#5ac7c2"/>
      <stop offset=".47" stop-color="#59c7c2"/>
      <stop offset=".48" stop-color="#58c7c1"/>
      <stop offset=".48" stop-color="#57c6c1"/>
      <stop offset=".48" stop-color="#56c6c0"/>
      <stop offset=".49" stop-color="#55c6bf"/>
      <stop offset=".49" stop-color="#53c5bf"/>
      <stop offset=".5" stop-color="#53c5be"/>
      <stop offset=".5" stop-color="#52c5be"/>
      <stop offset=".5" stop-color="#51c4bd"/>
      <stop offset=".51" stop-color="#50c4bc"/>
      <stop offset=".51" stop-color="#4fc4bb"/>
      <stop offset=".52" stop-color="#4ec3bb"/>
      <stop offset=".52" stop-color="#4dc3ba"/>
      <stop offset=".52" stop-color="#4dc3ba"/>
      <stop offset=".53" stop-color="#4cc3b9"/>
      <stop offset=".53" stop-color="#4bc2b8"/>
      <stop offset=".54" stop-color="#4ac1b7"/>
      <stop offset=".54" stop-color="#49c1b7"/>
      <stop offset=".54" stop-color="#48c0b6"/>
      <stop offset=".55" stop-color="#47beb5"/>
      <stop offset=".55" stop-color="#47bdb3"/>
      <stop offset=".55" stop-color="#46bdb2"/>
      <stop offset=".56" stop-color="#46bbb1"/>
      <stop offset=".56" stop-color="#45bab0"/>
      <stop offset=".57" stop-color="#44b9b0"/>
      <stop offset=".57" stop-color="#44b8af"/>
      <stop offset=".57" stop-color="#43b7ae"/>
      <stop offset=".58" stop-color="#43b6ad"/>
      <stop offset=".58" stop-color="#43b5ac"/>
      <stop offset=".59" stop-color="#42b4ab"/>
      <stop offset=".59" stop-color="#42b2aa"/>
      <stop offset=".59" stop-color="#41b1a9"/>
      <stop offset=".6" stop-color="#41b0a8"/>
      <stop offset=".6" stop-color="#41afa7"/>
      <stop offset=".61" stop-color="#40aea6"/>
      <stop offset=".61" stop-color="#40aca6"/>
      <stop offset=".61" stop-color="#3faba5"/>
      <stop offset=".62" stop-color="#3faaa4"/>
      <stop offset=".62" stop-color="#3ea9a2"/>
      <stop offset=".62" stop-color="#3ea7a1"/>
      <stop offset=".63" stop-color="#3da6a0"/>
      <stop offset=".63" stop-color="#3da59f"/>
      <stop offset=".64" stop-color="#3da49e"/>
      <stop offset=".64" stop-color="#3da49d"/>
      <stop offset=".64" stop-color="#3ca29c"/>
      <stop offset=".65" stop-color="#3ca19b"/>
      <stop offset=".65" stop-color="#3ba09a"/>
      <stop offset=".66" stop-color="#3a9f99"/>
      <stop offset=".66" stop-color="#3a9d98"/>
      <stop offset=".66" stop-color="#399c97"/>
      <stop offset=".67" stop-color="#399b96"/>
      <stop offset=".67" stop-color="#399a95"/>
      <stop offset=".68" stop-color="#389994"/>
      <stop offset=".68" stop-color="#379893"/>
      <stop offset=".68" stop-color="#379792"/>
      <stop offset=".69" stop-color="#379590"/>
      <stop offset=".69" stop-color="#36948f"/>
      <stop offset=".7" stop-color="#36948e"/>
      <stop offset=".7" stop-color="#36938e"/>
      <stop offset=".7" stop-color="#35918d"/>
      <stop offset=".71" stop-color="#35908c"/>
      <stop offset=".71" stop-color="#348f8b"/>
      <stop offset=".71" stop-color="#348e89"/>
      <stop offset=".72" stop-color="#348d88"/>
      <stop offset=".72" stop-color="#338b87"/>
      <stop offset=".73" stop-color="#338a86"/>
      <stop offset=".73" stop-color="#338985"/>
      <stop offset=".73" stop-color="#328783"/>
      <stop offset=".74" stop-color="#328682"/>
      <stop offset=".74" stop-color="#318581"/>
      <stop offset=".75" stop-color="#318480"/>
      <stop offset=".75" stop-color="#30837f"/>
      <stop offset=".75" stop-color="#30827e"/>
      <stop offset=".76" stop-color="#2f817d"/>
      <stop offset=".76" stop-color="#2f807c"/>
      <stop offset=".77" stop-color="#2e7e7b"/>
      <stop offset=".77" stop-color="#2e7d79"/>
      <stop offset=".77" stop-color="#2d7c78"/>
      <stop offset=".78" stop-color="#2d7b77"/>
      <stop offset=".78" stop-color="#2d7a76"/>
      <stop offset=".79" stop-color="#2d7875"/>
      <stop offset=".79" stop-color="#2c7774"/>
      <stop offset=".79" stop-color="#2c7673"/>
      <stop offset=".8" stop-color="#2b7571"/>
      <stop offset=".8" stop-color="#2b7470"/>
      <stop offset=".8" stop-color="#2b726f"/>
      <stop offset=".81" stop-color="#2a716e"/>
      <stop offset=".81" stop-color="#2a706c"/>
      <stop offset=".82" stop-color="#296f6b"/>
      <stop offset=".82" stop-color="#296e6a"/>
      <stop offset=".82" stop-color="#286c69"/>
      <stop offset=".83" stop-color="#286b68"/>
      <stop offset=".83" stop-color="#286a67"/>
      <stop offset=".84" stop-color="#286966"/>
      <stop offset=".84" stop-color="#276864"/>
      <stop offset=".84" stop-color="#276763"/>
      <stop offset=".85" stop-color="#276662"/>
      <stop offset=".85" stop-color="#266561"/>
      <stop offset=".86" stop-color="#266360"/>
      <stop offset=".86" stop-color="#25625f"/>
      <stop offset=".86" stop-color="#25615e"/>
      <stop offset=".87" stop-color="#25605c"/>
      <stop offset=".87" stop-color="#245f5b"/>
      <stop offset=".88" stop-color="#245e5a"/>
      <stop offset=".88" stop-color="#245d59"/>
      <stop offset=".88" stop-color="#235b58"/>
      <stop offset=".89" stop-color="#235a56"/>
      <stop offset=".89" stop-color="#225955"/>
      <stop offset=".89" stop-color="#225854"/>
      <stop offset=".9" stop-color="#225753"/>
      <stop offset=".9" stop-color="#225652"/>
      <stop offset=".91" stop-color="#225551"/>
      <stop offset=".91" stop-color="#215450"/>
      <stop offset=".91" stop-color="#21534f"/>
      <stop offset=".92" stop-color="#21524d"/>
      <stop offset=".92" stop-color="#20514c"/>
      <stop offset=".93" stop-color="#204f4b"/>
      <stop offset=".93" stop-color="#1f4e4a"/>
      <stop offset=".93" stop-color="#1f4d49"/>
      <stop offset=".94" stop-color="#1f4c48"/>
      <stop offset=".94" stop-color="#1f4b47"/>
      <stop offset=".95" stop-color="#1e4a46"/>
      <stop offset=".95" stop-color="#1e4944"/>
      <stop offset=".95" stop-color="#1e4843"/>
      <stop offset=".96" stop-color="#1e4742"/>
      <stop offset=".96" stop-color="#1e4641"/>
      <stop offset=".96" stop-color="#1d4540"/>
      <stop offset=".97" stop-color="#1d433f"/>
      <stop offset=".97" stop-color="#1d423d"/>
      <stop offset=".98" stop-color="#1c413c"/>
      <stop offset=".98" stop-color="#1c403b"/>
      <stop offset=".98" stop-color="#1c3f3a"/>
      <stop offset=".99" stop-color="#1c3e39"/>
      <stop offset=".99" stop-color="#1b3d38"/>
      <stop offset="1" stop-color="#1b3c37"/>
      <stop offset="1" stop-color="#1b3b36"/>
    </linearGradient>
  </defs>
  <g id="Elements">
    <g class="cls-5">
      <g class="cls-2">
        <g class="cls-3">
          <path class="cls-4" d="M294.26-.3H.49v240.11h293.76V-.3Z"/>
        </g>
      </g>
    </g>
  </g>
</svg>