<?xml version="1.0" encoding="UTF-8"?>
<svg id="Layer_2" data-name="Layer 2" xmlns="http://www.w3.org/2000/svg" xmlns:xlink="http://www.w3.org/1999/xlink" viewBox="0 0 182.94 235.55">
  <defs>
    <style>
      .cls-1 {
        fill: url(#linear-gradient-15);
      }

      .cls-2 {
        fill: url(#linear-gradient-13);
      }

      .cls-3 {
        fill: url(#linear-gradient-2);
      }

      .cls-4 {
        fill: url(#linear-gradient-10);
      }

      .cls-5 {
        fill: url(#linear-gradient-12);
      }

      .cls-6 {
        fill: url(#linear-gradient-4);
      }

      .cls-7 {
        fill: url(#linear-gradient-3);
      }

      .cls-8 {
        fill: url(#linear-gradient-5);
      }

      .cls-9 {
        fill: url(#linear-gradient-8);
      }

      .cls-10 {
        fill: url(#linear-gradient-14);
      }

      .cls-11 {
        fill: url(#linear-gradient-7);
      }

      .cls-12 {
        fill: url(#linear-gradient-9);
      }

      .cls-13 {
        fill: url(#linear-gradient-11);
      }

      .cls-14 {
        fill: url(#linear-gradient-6);
      }

      .cls-15 {
        fill: url(#linear-gradient);
      }
    </style>
    <linearGradient id="linear-gradient" x1="0" y1="117.77" x2="182.94" y2="117.77" gradientUnits="userSpaceOnUse">
      <stop offset="0" stop-color="#60c9b6"/>
      <stop offset=".02" stop-color="#60c9b6"/>
      <stop offset=".02" stop-color="#60c9b6"/>
      <stop offset=".03" stop-color="#60c9b7"/>
      <stop offset=".04" stop-color="#60c9b7"/>
      <stop offset=".05" stop-color="#60c9b7"/>
      <stop offset=".05" stop-color="#60c9b8"/>
      <stop offset=".06" stop-color="#60c9b8"/>
      <stop offset=".07" stop-color="#60c9b9"/>
      <stop offset=".08" stop-color="#61c9b9"/>
      <stop offset=".09" stop-color="#61c9b9"/>
      <stop offset=".09" stop-color="#61c9ba"/>
      <stop offset=".11" stop-color="#61c9ba"/>
      <stop offset=".12" stop-color="#61c9bb"/>
      <stop offset=".12" stop-color="#61c9bb"/>
      <stop offset=".13" stop-color="#61c9bc"/>
      <stop offset=".14" stop-color="#61c9bc"/>
      <stop offset=".16" stop-color="#61c9bc"/>
      <stop offset=".16" stop-color="#61cabd"/>
      <stop offset=".17" stop-color="#61cabd"/>
      <stop offset=".18" stop-color="#61cabe"/>
      <stop offset=".18" stop-color="#61cabe"/>
      <stop offset=".19" stop-color="#61cabe"/>
      <stop offset=".2" stop-color="#61cabe"/>
      <stop offset=".2" stop-color="#61cabf"/>
      <stop offset=".22" stop-color="#61cabf"/>
      <stop offset=".22" stop-color="#61cac0"/>
      <stop offset=".23" stop-color="#61cac0"/>
      <stop offset=".23" stop-color="#61cac0"/>
      <stop offset=".24" stop-color="#61cac0"/>
      <stop offset=".25" stop-color="#61cac1"/>
      <stop offset=".26" stop-color="#61cac1"/>
      <stop offset=".26" stop-color="#62cac1"/>
      <stop offset=".27" stop-color="#62cac2"/>
      <stop offset=".27" stop-color="#62cac2"/>
      <stop offset=".28" stop-color="#62cac2"/>
      <stop offset=".3" stop-color="#62cac3"/>
      <stop offset=".31" stop-color="#62cac3"/>
      <stop offset=".33" stop-color="#62cac4"/>
      <stop offset=".34" stop-color="#62cac4"/>
      <stop offset=".34" stop-color="#62cac5"/>
      <stop offset=".35" stop-color="#62cac5"/>
      <stop offset=".36" stop-color="#62cac6"/>
      <stop offset=".38" stop-color="#62cac6"/>
      <stop offset=".38" stop-color="#62cac7"/>
      <stop offset=".39" stop-color="#62cac7"/>
      <stop offset=".41" stop-color="#62cac7"/>
      <stop offset=".41" stop-color="#63cbc7"/>
      <stop offset=".42" stop-color="#63cbc8"/>
      <stop offset=".43" stop-color="#63cbc8"/>
      <stop offset=".43" stop-color="#61cac7"/>
      <stop offset=".44" stop-color="#60cac7"/>
      <stop offset=".44" stop-color="#60c9c6"/>
      <stop offset=".45" stop-color="#5fc9c5"/>
      <stop offset=".45" stop-color="#5ec9c5"/>
      <stop offset=".45" stop-color="#5dc9c4"/>
      <stop offset=".46" stop-color="#5cc8c4"/>
      <stop offset=".46" stop-color="#5bc8c4"/>
      <stop offset=".46" stop-color="#5ac8c3"/>
      <stop offset=".47" stop-color="#5ac7c2"/>
      <stop offset=".47" stop-color="#59c7c2"/>
      <stop offset=".48" stop-color="#58c7c1"/>
      <stop offset=".48" stop-color="#57c6c1"/>
      <stop offset=".48" stop-color="#56c6c0"/>
      <stop offset=".49" stop-color="#55c6bf"/>
      <stop offset=".49" stop-color="#53c5bf"/>
      <stop offset=".5" stop-color="#53c5be"/>
      <stop offset=".5" stop-color="#52c5be"/>
      <stop offset=".5" stop-color="#51c4bd"/>
      <stop offset=".51" stop-color="#50c4bc"/>
      <stop offset=".51" stop-color="#4fc4bb"/>
      <stop offset=".52" stop-color="#4ec3bb"/>
      <stop offset=".52" stop-color="#4dc3ba"/>
      <stop offset=".52" stop-color="#4dc3ba"/>
      <stop offset=".53" stop-color="#4cc3b9"/>
      <stop offset=".53" stop-color="#4bc2b8"/>
      <stop offset=".54" stop-color="#4ac1b7"/>
      <stop offset=".54" stop-color="#49c1b7"/>
      <stop offset=".54" stop-color="#48c0b6"/>
      <stop offset=".55" stop-color="#47beb5"/>
      <stop offset=".55" stop-color="#47bdb3"/>
      <stop offset=".55" stop-color="#46bdb2"/>
      <stop offset=".56" stop-color="#46bbb1"/>
      <stop offset=".56" stop-color="#45bab0"/>
      <stop offset=".57" stop-color="#44b9b0"/>
      <stop offset=".57" stop-color="#44b8af"/>
      <stop offset=".57" stop-color="#43b7ae"/>
      <stop offset=".58" stop-color="#43b6ad"/>
      <stop offset=".58" stop-color="#43b5ac"/>
      <stop offset=".59" stop-color="#42b4ab"/>
      <stop offset=".59" stop-color="#42b2aa"/>
      <stop offset=".59" stop-color="#41b1a9"/>
      <stop offset=".6" stop-color="#41b0a8"/>
      <stop offset=".6" stop-color="#41afa7"/>
      <stop offset=".61" stop-color="#40aea6"/>
      <stop offset=".61" stop-color="#40aca6"/>
      <stop offset=".61" stop-color="#3faba5"/>
      <stop offset=".62" stop-color="#3faaa4"/>
      <stop offset=".62" stop-color="#3ea9a2"/>
      <stop offset=".62" stop-color="#3ea7a1"/>
      <stop offset=".63" stop-color="#3da6a0"/>
      <stop offset=".63" stop-color="#3da59f"/>
      <stop offset=".64" stop-color="#3da49e"/>
      <stop offset=".64" stop-color="#3da49d"/>
      <stop offset=".64" stop-color="#3ca29c"/>
      <stop offset=".65" stop-color="#3ca19b"/>
      <stop offset=".65" stop-color="#3ba09a"/>
      <stop offset=".66" stop-color="#3a9f99"/>
      <stop offset=".66" stop-color="#3a9d98"/>
      <stop offset=".66" stop-color="#399c97"/>
      <stop offset=".67" stop-color="#399b96"/>
      <stop offset=".67" stop-color="#399a95"/>
      <stop offset=".68" stop-color="#389994"/>
      <stop offset=".68" stop-color="#379893"/>
      <stop offset=".68" stop-color="#379792"/>
      <stop offset=".69" stop-color="#379590"/>
      <stop offset=".69" stop-color="#36948f"/>
      <stop offset=".7" stop-color="#36948e"/>
      <stop offset=".7" stop-color="#36938e"/>
      <stop offset=".7" stop-color="#35918d"/>
      <stop offset=".71" stop-color="#35908c"/>
      <stop offset=".71" stop-color="#348f8b"/>
      <stop offset=".71" stop-color="#348e89"/>
      <stop offset=".72" stop-color="#348d88"/>
      <stop offset=".72" stop-color="#338b87"/>
      <stop offset=".73" stop-color="#338a86"/>
      <stop offset=".73" stop-color="#338985"/>
      <stop offset=".73" stop-color="#328783"/>
      <stop offset=".74" stop-color="#328682"/>
      <stop offset=".74" stop-color="#318581"/>
      <stop offset=".75" stop-color="#318480"/>
      <stop offset=".75" stop-color="#30837f"/>
      <stop offset=".75" stop-color="#30827e"/>
      <stop offset=".76" stop-color="#2f817d"/>
      <stop offset=".76" stop-color="#2f807c"/>
      <stop offset=".77" stop-color="#2e7e7b"/>
      <stop offset=".77" stop-color="#2e7d79"/>
      <stop offset=".77" stop-color="#2d7c78"/>
      <stop offset=".78" stop-color="#2d7b77"/>
      <stop offset=".78" stop-color="#2d7a76"/>
      <stop offset=".79" stop-color="#2d7875"/>
      <stop offset=".79" stop-color="#2c7774"/>
      <stop offset=".79" stop-color="#2c7673"/>
      <stop offset=".8" stop-color="#2b7571"/>
      <stop offset=".8" stop-color="#2b7470"/>
      <stop offset=".8" stop-color="#2b726f"/>
      <stop offset=".81" stop-color="#2a716e"/>
      <stop offset=".81" stop-color="#2a706c"/>
      <stop offset=".82" stop-color="#296f6b"/>
      <stop offset=".82" stop-color="#296e6a"/>
      <stop offset=".82" stop-color="#286c69"/>
      <stop offset=".83" stop-color="#286b68"/>
      <stop offset=".83" stop-color="#286a67"/>
      <stop offset=".84" stop-color="#286966"/>
      <stop offset=".84" stop-color="#276864"/>
      <stop offset=".84" stop-color="#276763"/>
      <stop offset=".85" stop-color="#276662"/>
      <stop offset=".85" stop-color="#266561"/>
      <stop offset=".86" stop-color="#266360"/>
      <stop offset=".86" stop-color="#25625f"/>
      <stop offset=".86" stop-color="#25615e"/>
      <stop offset=".87" stop-color="#25605c"/>
      <stop offset=".87" stop-color="#245f5b"/>
      <stop offset=".88" stop-color="#245e5a"/>
      <stop offset=".88" stop-color="#245d59"/>
      <stop offset=".88" stop-color="#235b58"/>
      <stop offset=".89" stop-color="#235a56"/>
      <stop offset=".89" stop-color="#225955"/>
      <stop offset=".89" stop-color="#225854"/>
      <stop offset=".9" stop-color="#225753"/>
      <stop offset=".9" stop-color="#225652"/>
      <stop offset=".91" stop-color="#225551"/>
      <stop offset=".91" stop-color="#215450"/>
      <stop offset=".91" stop-color="#21534f"/>
      <stop offset=".92" stop-color="#21524d"/>
      <stop offset=".92" stop-color="#20514c"/>
      <stop offset=".93" stop-color="#204f4b"/>
      <stop offset=".93" stop-color="#1f4e4a"/>
      <stop offset=".93" stop-color="#1f4d49"/>
      <stop offset=".94" stop-color="#1f4c48"/>
      <stop offset=".94" stop-color="#1f4b47"/>
      <stop offset=".95" stop-color="#1e4a46"/>
      <stop offset=".95" stop-color="#1e4944"/>
      <stop offset=".95" stop-color="#1e4843"/>
      <stop offset=".96" stop-color="#1e4742"/>
      <stop offset=".96" stop-color="#1e4641"/>
      <stop offset=".96" stop-color="#1d4540"/>
      <stop offset=".97" stop-color="#1d433f"/>
      <stop offset=".97" stop-color="#1d423d"/>
      <stop offset=".98" stop-color="#1c413c"/>
      <stop offset=".98" stop-color="#1c403b"/>
      <stop offset=".98" stop-color="#1c3f3a"/>
      <stop offset=".99" stop-color="#1c3e39"/>
      <stop offset=".99" stop-color="#1b3d38"/>
      <stop offset="1" stop-color="#1b3c37"/>
      <stop offset="1" stop-color="#1b3b36"/>
    </linearGradient>
    <linearGradient id="linear-gradient-2" x1="23.02" y1="150.85" x2="56.54" y2="150.85" xlink:href="#linear-gradient"/>
    <linearGradient id="linear-gradient-3" x1="24.91" y1="149.84" x2="29.07" y2="149.84" xlink:href="#linear-gradient"/>
    <linearGradient id="linear-gradient-4" x1="27.34" y1="155" x2="31.51" y2="155" xlink:href="#linear-gradient"/>
    <linearGradient id="linear-gradient-5" x1="29.1" y1="160.57" x2="33.07" y2="160.57" xlink:href="#linear-gradient"/>
    <linearGradient id="linear-gradient-6" x1="46.84" y1="141.65" x2="50.99" y2="141.65" xlink:href="#linear-gradient"/>
    <linearGradient id="linear-gradient-7" x1="48.53" y1="147.37" x2="52.69" y2="147.37" xlink:href="#linear-gradient"/>
    <linearGradient id="linear-gradient-8" x1="51.03" y1="152.4" x2="55.17" y2="152.4" xlink:href="#linear-gradient"/>
    <linearGradient id="linear-gradient-9" x1="35.33" y1="149.06" x2="35.47" y2="149.06" xlink:href="#linear-gradient"/>
    <linearGradient id="linear-gradient-10" x1="31.68" y1="150.37" x2="35.61" y2="150.37" xlink:href="#linear-gradient"/>
    <linearGradient id="linear-gradient-11" x1="37.77" y1="155.82" x2="37.96" y2="155.82" xlink:href="#linear-gradient"/>
    <linearGradient id="linear-gradient-12" x1="33.81" y1="156.04" x2="37.77" y2="156.04" xlink:href="#linear-gradient"/>
    <linearGradient id="linear-gradient-13" x1="42.16" y1="146.4" x2="46.25" y2="146.4" xlink:href="#linear-gradient"/>
    <linearGradient id="linear-gradient-14" x1="42.13" y1="146.77" x2="42.16" y2="146.77" xlink:href="#linear-gradient"/>
    <linearGradient id="linear-gradient-15" x1="44.25" y1="151.97" x2="48.38" y2="151.97" xlink:href="#linear-gradient"/>
  </defs>
  <g id="Elements_2" data-name="Elements 2">
    <g>
      <path class="cls-15" d="M163.76,64.51c-12.24-8.16-28.97-10.76-39.5-20.21-8.95-8.03-8.17-23.08,4.01-34.76.15-.14.29-.28.44-.41.02-.01.03-.03.05-.04,1.84-1.65,3.75-2.71,5.84-3.69-1.32.16-1.95.39-2.51.42,1.2-1.2,3.02-3.66,3.98-4.63-.92.92-2.94.91-4.86,2.42.46-.46.82-2.31.82-3.61-1.59,1.59-2.19,2.3-4.2,4.31.89-.89.43-2.71.43-3.44-.87,2.32-2.6,3.62-4.05,6.15v-3.26c-1.01,2.32-1.74,3.04-2.75,6.07v-4.04c-1.38,1.37-1.88,4.92-2.5,7.36-.62-1.91-.25-3.3-.25-4.17-1.37,1.38-.85,5.23-2.08,8.29,0-1.83-.82-3.52-.82-4.53-.72,2.75-.89,7.65-.95,8.99-.32-.92-1.1-1.96-1.65-2.77,0,2.17.11,5.5.56,7.19-.62-.84-1.36-2.07-1.86-2.7,0,1.74.48,5.61,1.37,8.25-.98-.98-.93-1.01-2.02-2.1.36,1.88,1.37,3.98,2.56,7.49-.91-.91-.9-.9-1.77-1.77,0,1.45,2.68,5.68,3.66,7.43,0,0-.88-.27-2.28-1.16,1.13,2.13,3.08,3.68,4.73,5.16-.79,0-1.3,0-2.02-.19,1.28,1.28,3.79,2.43,4.75,3.37-.88,0-1.27-.24-1.88-.24,1.13,1.13,2.91,1.6,5.48,3.46.02.02.04.03.07.05,10.62,8.29,25.31,11.32,35.86,20.59,10.99,9.65,15.65,31.14,2.43,48.77-6.38,8.51-15.41,7.97-18.07-.72-1.65-4.9-2.23-6.53-4.71-11.35-1.83-3.56-1.46-6.99-.8-9.53-1.59.85-3.34,2.37-3.73,3.22-1.55-2.64-.1-7.65.27-9.41-1.86.68-3.24,3.61-4.25,5.02-1.71-1.85.23-8.75-.7-12.06-1.21,2.29-1.75,6.46-3.59,7.95-.94-2.54-.07-12.67-1.08-14.82,0,1.17-1.83,10.45-3.11,11.49-1.28-2.43-1.84-14.27-1.84-16.58-1.72,1.66-2.62,10.41-5.1,12.42-.92-2.48-.78-14.39-.78-17.51-2.23,3.03-3.49,12.65-7.1,14.64-2.64-2.13-2.14-17.36-3.76-18.92-.81,3.12-1.86,15.54-4.66,17.8-2.03-2.36-2.64-17.22-3.65-19.95,0,2.73-2.23,17.88-3.62,20.45-1.74-1.41-1.88-19.06-2.69-21.4-.81,3.51-4.63,20.63-7.06,24.28,0-3.42.26-15.01-1.16-17.75-1.42,4.1-3.71,17.39-8.53,23.34,0-1.6-.65-14.28-1.87-15.45-1.22,3.32-2.23,16.4-4.61,21h0c0-2.13-.77-6.15-1.61-9.04-1.22,3.28-2.23,10.73-4.67,15.76,0,0-.6-1.56-1.25-2.97-.95,3.05-3.07,8.66-3.9,11.18-.77,2.34-1.48,4.91-2.06,7.03-2.05-2.08-3.18-4.81-3.61-7.75-.72-5,1.84-14.38,6.42-18.39-4.24.86-14.48,6.83-18.42,16.58-3.02-1.61-11.92-2.14-16.3,1.86-6.69-6.54-9.22-10.23-21.26-12.93,5.26,3.05,9.61,11.74,9.87,16.79.26,5.05-2.66,10-8.06,12.69,1.61.8,2.53,1.45,4.17,1.75-1.9,1.27-3.7,2.21-5.51,2.62,2.62.9,6.39,1.68,8.88,1.2-2.4,1.39-3.59,1.66-5.37,2.3,3.9,1.46,6.22,2.54,10.86,3.58,4.59,1.03,8.15,2.63,12.53,5.78,6.5,4.67,11.81,11.34,17.43,20.02,4.96,7.66,6.67,11.75,11,22.99,2.78,7.22,4.06,10.5,6.11,18.26,1.37,5.19,3.66,13.25,3.51,19.65-2.67,1.45-4.82,3.9-5.73,5.96-.45,1.08.14,1.92,1.29,1.92l14.25.02c.9,0,1.37-.86,1.34-1.86-1.07-6.36-1.65-13.19-1.65-20.33,0-24.67,12.73-40.43,28.42-40.43s28.42,17.64,28.42,40.43c0,5.31-.35,10.46-.95,15.36-2.32.54-4.8,2.08-6.12,4.65-.3.59.02,1.83,1.25,1.94,2.49-.01,8.61,0,11.36,0,1.02,0,1.51-.67,1.66-1.46.69-3.55,2.6-12.88,4.86-20.53,4.12-13.96,5.96-24.43,6.88-39.06.4-6.27.3-9.66.39-15.62.08-5.31,4.42-9.59,8.71-12.92,9.49-7.38,16.33-16.88,21.26-31.1,4.1-11.85,2.75-36.73-17.31-50.1ZM20.07,134.45c-4.84-1.56-6.9-6.66-6.6-11.37,2.14-.59,4.64-.59,7.07-.11-.36.9-.43,2.62-.11,4.57.45,2.74,1.49,4.86,2.33,4.72.84-.14,1.15-2.47.7-5.22-.24-1.49-.67-2.78-1.13-3.64,2.68.82,5.14,2.25,6.7,4.27-.3,5.27-4.59,8.17-8.96,6.77ZM43.83,130.55c-3.69,2.72-8.69,1.35-10.65-3.55.84-2.42,2.72-4.57,5-6.21-.18.97-.18,2.31.07,3.82.45,2.74,1.5,4.86,2.33,4.72.84-.14,1.15-2.48.7-5.22-.32-1.95-.94-3.56-1.57-4.29,2.15-1.23,4.52-2.03,6.74-2.16,1.79,4.37,1.48,9.86-2.62,12.88Z"/>
      <g>
        <path class="cls-3" d="M49.82,139.78c-3.02,1.34-5.87,4.35-7.66,7-1.16-.36-2.52-.35-3.85.13-1.28.46-2.31,1.27-2.98,2.25-3.05-.88-7.11-1.36-10.24-.48-2.12.6-2.48,2.08-1.7,3.74.73,1.55,1.55,2.85,3.17,3.59-.69,1.57-.43,3.79.11,4.98.74,1.63,2.45,1.7,4.65.38,2.91-1.74,5.02-3.98,6.44-5.56,1.13.3,2.42.27,3.68-.19,1.3-.47,2.34-1.3,3.01-2.29,2.11.31,5.23.73,8.65.2,2.53-.39,3.81-1.61,3.34-3.26-.39-1.34-1.56-3.14-3.09-3.9.78-1.6.59-3.13.16-4.79-.48-1.85-1.67-2.69-3.69-1.8Z"/>
        <g>
          <g>
            <path class="cls-7" d="M27.69,151.35c1.08-.39,1.64-1.58,1.25-2.67-.06-.17-.15-.32-.25-.46-1.26.01-2.49.15-3.61.46-.02,0-.04.01-.06.02-.15.44-.17.92,0,1.39.39,1.08,1.58,1.64,2.66,1.25Z"/>
            <path class="cls-6" d="M28.72,153.04c-1.08.39-1.64,1.58-1.25,2.66.39,1.08,1.58,1.64,2.67,1.25,1.08-.39,1.64-1.58,1.25-2.66-.39-1.08-1.58-1.64-2.66-1.25Z"/>
            <path class="cls-8" d="M30.48,159.09c-1.08.39-1.64,1.58-1.25,2.66.06.15.13.3.22.43.57-.14,1.2-.41,1.88-.82.62-.37,1.2-.77,1.75-1.17-.44-.98-1.56-1.47-2.59-1.1Z"/>
            <path class="cls-14" d="M49.61,143.46c1.08-.39,1.64-1.58,1.25-2.67-.17-.47-.49-.83-.89-1.07-.05.02-.1.04-.15.06-1.02.45-2.03,1.1-2.98,1.86.01.19.04.37.11.56.39,1.08,1.58,1.64,2.66,1.25Z"/>
            <path class="cls-11" d="M49.9,145.41c-1.08.39-1.64,1.58-1.25,2.66.39,1.08,1.58,1.64,2.66,1.25,1.08-.39,1.64-1.58,1.25-2.66-.39-1.08-1.58-1.64-2.66-1.25Z"/>
            <path class="cls-9" d="M52.4,151.2c-1.04.37-1.59,1.48-1.29,2.53.65-.04,1.31-.1,1.99-.2.83-.13,1.52-.35,2.07-.64-.02-.15-.05-.29-.1-.43-.39-1.08-1.58-1.64-2.66-1.25Z"/>
          </g>
          <g>
            <path class="cls-12" d="M35.47,148.97c-.05.06-.1.13-.14.19.04-.06.1-.13.14-.19h0Z"/>
            <path class="cls-4" d="M32.47,148.52c-.68.54-.98,1.46-.67,2.33.39,1.08,1.58,1.64,2.66,1.25.52-.19.91-.56,1.14-1.01-.16-.66-.27-1.31-.28-1.93-.88-.25-1.86-.47-2.86-.64Z"/>
            <path class="cls-13" d="M37.96,155.84h0c-.06-.01-.13-.03-.19-.04.06.02.13.03.19.04Z"/>
            <path class="cls-5" d="M35.19,154.1c-1.08.39-1.64,1.58-1.25,2.66.26.73.89,1.21,1.61,1.34.87-.83,1.62-1.63,2.22-2.31-.34-.5-.66-1.04-.95-1.6-.49-.24-1.07-.3-1.63-.1Z"/>
            <path class="cls-2" d="M44.87,148.36c1.08-.39,1.64-1.58,1.25-2.66-.32-.89-1.17-1.41-2.07-1.36-.71.81-1.35,1.65-1.9,2.45.22.39.42.77.61,1.15.55.5,1.35.7,2.1.43Z"/>
            <path class="cls-10" d="M42.13,146.77h0s.02,0,.03,0c-.01,0-.02,0-.03,0Z"/>
            <path class="cls-1" d="M45.59,150.36c-.75.27-1.24.92-1.35,1.66.08.41.15.82.2,1.23.02.03.03.05.04.08.94.14,2.08.29,3.35.38.5-.55.69-1.35.42-2.1-.39-1.08-1.58-1.64-2.66-1.25Z"/>
          </g>
        </g>
      </g>
    </g>
  </g>
</svg>