<?xml version="1.0" encoding="UTF-8"?>
<svg id="Layer_2" data-name="Layer 2" xmlns="http://www.w3.org/2000/svg" xmlns:xlink="http://www.w3.org/1999/xlink" viewBox="0 0 186.5 205.24">
  <defs>
    <style>
      .cls-1 {
        fill: url(#linear-gradient);
      }
    </style>
    <linearGradient id="linear-gradient" x1="0" y1="102.62" x2="186.5" y2="102.62" gradientUnits="userSpaceOnUse">
      <stop offset="0" stop-color="#60c9b6"/>
      <stop offset=".02" stop-color="#60c9b6"/>
      <stop offset=".02" stop-color="#60c9b6"/>
      <stop offset=".03" stop-color="#60c9b7"/>
      <stop offset=".04" stop-color="#60c9b7"/>
      <stop offset=".05" stop-color="#60c9b7"/>
      <stop offset=".05" stop-color="#60c9b8"/>
      <stop offset=".06" stop-color="#60c9b8"/>
      <stop offset=".07" stop-color="#60c9b9"/>
      <stop offset=".08" stop-color="#61c9b9"/>
      <stop offset=".09" stop-color="#61c9b9"/>
      <stop offset=".09" stop-color="#61c9ba"/>
      <stop offset=".11" stop-color="#61c9ba"/>
      <stop offset=".12" stop-color="#61c9bb"/>
      <stop offset=".12" stop-color="#61c9bb"/>
      <stop offset=".13" stop-color="#61c9bc"/>
      <stop offset=".14" stop-color="#61c9bc"/>
      <stop offset=".16" stop-color="#61c9bc"/>
      <stop offset=".16" stop-color="#61cabd"/>
      <stop offset=".17" stop-color="#61cabd"/>
      <stop offset=".18" stop-color="#61cabe"/>
      <stop offset=".18" stop-color="#61cabe"/>
      <stop offset=".19" stop-color="#61cabe"/>
      <stop offset=".2" stop-color="#61cabe"/>
      <stop offset=".2" stop-color="#61cabf"/>
      <stop offset=".22" stop-color="#61cabf"/>
      <stop offset=".22" stop-color="#61cac0"/>
      <stop offset=".23" stop-color="#61cac0"/>
      <stop offset=".23" stop-color="#61cac0"/>
      <stop offset=".24" stop-color="#61cac0"/>
      <stop offset=".25" stop-color="#61cac1"/>
      <stop offset=".26" stop-color="#61cac1"/>
      <stop offset=".26" stop-color="#62cac1"/>
      <stop offset=".27" stop-color="#62cac2"/>
      <stop offset=".27" stop-color="#62cac2"/>
      <stop offset=".28" stop-color="#62cac2"/>
      <stop offset=".3" stop-color="#62cac3"/>
      <stop offset=".31" stop-color="#62cac3"/>
      <stop offset=".33" stop-color="#62cac4"/>
      <stop offset=".34" stop-color="#62cac4"/>
      <stop offset=".34" stop-color="#62cac5"/>
      <stop offset=".35" stop-color="#62cac5"/>
      <stop offset=".36" stop-color="#62cac6"/>
      <stop offset=".38" stop-color="#62cac6"/>
      <stop offset=".38" stop-color="#62cac7"/>
      <stop offset=".39" stop-color="#62cac7"/>
      <stop offset=".41" stop-color="#62cac7"/>
      <stop offset=".41" stop-color="#63cbc7"/>
      <stop offset=".42" stop-color="#63cbc8"/>
      <stop offset=".43" stop-color="#63cbc8"/>
      <stop offset=".43" stop-color="#61cac7"/>
      <stop offset=".44" stop-color="#60cac7"/>
      <stop offset=".44" stop-color="#60c9c6"/>
      <stop offset=".45" stop-color="#5fc9c5"/>
      <stop offset=".45" stop-color="#5ec9c5"/>
      <stop offset=".45" stop-color="#5dc9c4"/>
      <stop offset=".46" stop-color="#5cc8c4"/>
      <stop offset=".46" stop-color="#5bc8c4"/>
      <stop offset=".46" stop-color="#5ac8c3"/>
      <stop offset=".47" stop-color="#5ac7c2"/>
      <stop offset=".47" stop-color="#59c7c2"/>
      <stop offset=".48" stop-color="#58c7c1"/>
      <stop offset=".48" stop-color="#57c6c1"/>
      <stop offset=".48" stop-color="#56c6c0"/>
      <stop offset=".49" stop-color="#55c6bf"/>
      <stop offset=".49" stop-color="#53c5bf"/>
      <stop offset=".5" stop-color="#53c5be"/>
      <stop offset=".5" stop-color="#52c5be"/>
      <stop offset=".5" stop-color="#51c4bd"/>
      <stop offset=".51" stop-color="#50c4bc"/>
      <stop offset=".51" stop-color="#4fc4bb"/>
      <stop offset=".52" stop-color="#4ec3bb"/>
      <stop offset=".52" stop-color="#4dc3ba"/>
      <stop offset=".52" stop-color="#4dc3ba"/>
      <stop offset=".53" stop-color="#4cc3b9"/>
      <stop offset=".53" stop-color="#4bc2b8"/>
      <stop offset=".54" stop-color="#4ac1b7"/>
      <stop offset=".54" stop-color="#49c1b7"/>
      <stop offset=".54" stop-color="#48c0b6"/>
      <stop offset=".55" stop-color="#47beb5"/>
      <stop offset=".55" stop-color="#47bdb3"/>
      <stop offset=".55" stop-color="#46bdb2"/>
      <stop offset=".56" stop-color="#46bbb1"/>
      <stop offset=".56" stop-color="#45bab0"/>
      <stop offset=".57" stop-color="#44b9b0"/>
      <stop offset=".57" stop-color="#44b8af"/>
      <stop offset=".57" stop-color="#43b7ae"/>
      <stop offset=".58" stop-color="#43b6ad"/>
      <stop offset=".58" stop-color="#43b5ac"/>
      <stop offset=".59" stop-color="#42b4ab"/>
      <stop offset=".59" stop-color="#42b2aa"/>
      <stop offset=".59" stop-color="#41b1a9"/>
      <stop offset=".6" stop-color="#41b0a8"/>
      <stop offset=".6" stop-color="#41afa7"/>
      <stop offset=".61" stop-color="#40aea6"/>
      <stop offset=".61" stop-color="#40aca6"/>
      <stop offset=".61" stop-color="#3faba5"/>
      <stop offset=".62" stop-color="#3faaa4"/>
      <stop offset=".62" stop-color="#3ea9a2"/>
      <stop offset=".62" stop-color="#3ea7a1"/>
      <stop offset=".63" stop-color="#3da6a0"/>
      <stop offset=".63" stop-color="#3da59f"/>
      <stop offset=".64" stop-color="#3da49e"/>
      <stop offset=".64" stop-color="#3da49d"/>
      <stop offset=".64" stop-color="#3ca29c"/>
      <stop offset=".65" stop-color="#3ca19b"/>
      <stop offset=".65" stop-color="#3ba09a"/>
      <stop offset=".66" stop-color="#3a9f99"/>
      <stop offset=".66" stop-color="#3a9d98"/>
      <stop offset=".66" stop-color="#399c97"/>
      <stop offset=".67" stop-color="#399b96"/>
      <stop offset=".67" stop-color="#399a95"/>
      <stop offset=".68" stop-color="#389994"/>
      <stop offset=".68" stop-color="#379893"/>
      <stop offset=".68" stop-color="#379792"/>
      <stop offset=".69" stop-color="#379590"/>
      <stop offset=".69" stop-color="#36948f"/>
      <stop offset=".7" stop-color="#36948e"/>
      <stop offset=".7" stop-color="#36938e"/>
      <stop offset=".7" stop-color="#35918d"/>
      <stop offset=".71" stop-color="#35908c"/>
      <stop offset=".71" stop-color="#348f8b"/>
      <stop offset=".71" stop-color="#348e89"/>
      <stop offset=".72" stop-color="#348d88"/>
      <stop offset=".72" stop-color="#338b87"/>
      <stop offset=".73" stop-color="#338a86"/>
      <stop offset=".73" stop-color="#338985"/>
      <stop offset=".73" stop-color="#328783"/>
      <stop offset=".74" stop-color="#328682"/>
      <stop offset=".74" stop-color="#318581"/>
      <stop offset=".75" stop-color="#318480"/>
      <stop offset=".75" stop-color="#30837f"/>
      <stop offset=".75" stop-color="#30827e"/>
      <stop offset=".76" stop-color="#2f817d"/>
      <stop offset=".76" stop-color="#2f807c"/>
      <stop offset=".77" stop-color="#2e7e7b"/>
      <stop offset=".77" stop-color="#2e7d79"/>
      <stop offset=".77" stop-color="#2d7c78"/>
      <stop offset=".78" stop-color="#2d7b77"/>
      <stop offset=".78" stop-color="#2d7a76"/>
      <stop offset=".79" stop-color="#2d7875"/>
      <stop offset=".79" stop-color="#2c7774"/>
      <stop offset=".79" stop-color="#2c7673"/>
      <stop offset=".8" stop-color="#2b7571"/>
      <stop offset=".8" stop-color="#2b7470"/>
      <stop offset=".8" stop-color="#2b726f"/>
      <stop offset=".81" stop-color="#2a716e"/>
      <stop offset=".81" stop-color="#2a706c"/>
      <stop offset=".82" stop-color="#296f6b"/>
      <stop offset=".82" stop-color="#296e6a"/>
      <stop offset=".82" stop-color="#286c69"/>
      <stop offset=".83" stop-color="#286b68"/>
      <stop offset=".83" stop-color="#286a67"/>
      <stop offset=".84" stop-color="#286966"/>
      <stop offset=".84" stop-color="#276864"/>
      <stop offset=".84" stop-color="#276763"/>
      <stop offset=".85" stop-color="#276662"/>
      <stop offset=".85" stop-color="#266561"/>
      <stop offset=".86" stop-color="#266360"/>
      <stop offset=".86" stop-color="#25625f"/>
      <stop offset=".86" stop-color="#25615e"/>
      <stop offset=".87" stop-color="#25605c"/>
      <stop offset=".87" stop-color="#245f5b"/>
      <stop offset=".88" stop-color="#245e5a"/>
      <stop offset=".88" stop-color="#245d59"/>
      <stop offset=".88" stop-color="#235b58"/>
      <stop offset=".89" stop-color="#235a56"/>
      <stop offset=".89" stop-color="#225955"/>
      <stop offset=".89" stop-color="#225854"/>
      <stop offset=".9" stop-color="#225753"/>
      <stop offset=".9" stop-color="#225652"/>
      <stop offset=".91" stop-color="#225551"/>
      <stop offset=".91" stop-color="#215450"/>
      <stop offset=".91" stop-color="#21534f"/>
      <stop offset=".92" stop-color="#21524d"/>
      <stop offset=".92" stop-color="#20514c"/>
      <stop offset=".93" stop-color="#204f4b"/>
      <stop offset=".93" stop-color="#1f4e4a"/>
      <stop offset=".93" stop-color="#1f4d49"/>
      <stop offset=".94" stop-color="#1f4c48"/>
      <stop offset=".94" stop-color="#1f4b47"/>
      <stop offset=".95" stop-color="#1e4a46"/>
      <stop offset=".95" stop-color="#1e4944"/>
      <stop offset=".95" stop-color="#1e4843"/>
      <stop offset=".96" stop-color="#1e4742"/>
      <stop offset=".96" stop-color="#1e4641"/>
      <stop offset=".96" stop-color="#1d4540"/>
      <stop offset=".97" stop-color="#1d433f"/>
      <stop offset=".97" stop-color="#1d423d"/>
      <stop offset=".98" stop-color="#1c413c"/>
      <stop offset=".98" stop-color="#1c403b"/>
      <stop offset=".98" stop-color="#1c3f3a"/>
      <stop offset=".99" stop-color="#1c3e39"/>
      <stop offset=".99" stop-color="#1b3d38"/>
      <stop offset="1" stop-color="#1b3c37"/>
      <stop offset="1" stop-color="#1b3b36"/>
    </linearGradient>
  </defs>
  <g id="Elements_2" data-name="Elements 2">
    <path class="cls-1" d="M186.14,81.3c-7.26-2.85-17.34-4.64-26.44-5.57-.85-2.23-2.06-4.58-3.52-6.68,1.73,0,3.15.79,4.57.79-.32-.67-.75-1.4-1.21-2.14,6.68-1.48,13.56-2.52,19.28-2.52.18,0,.35,0,.52,0h0c.31,0,.56-.25.57-.56,0-.31-.25-.57-.56-.57h-.53c-5.9,0-13.03,1.1-19.93,2.65-2.26-3.34-5.43-6.82-7.45-7.89.95-.32,2.99-.32,5.67,0-1.26-1.73-4.89-4.89-8.51-7.41,2.36-.95,4.23-4.85,6.29-8.55s3.63-7.46,5.46-12.89c1.83-5.43,4.55-18.99,5.41-29.37-3.02,5.87-11.79,17.73-17.66,24.57.28-2.33-.69-3.72-2.08-6.96-.62,2.24-3.06,7.81-5.44,10.14.12-2.29-1.33-4.39-2.43-6.4-.17,2.79-5.36,9.79-7.81,11.81-9.7-3.36-19.51-1.47-25.13,1.26-2.34-2.14-7.15-9.42-7.17-12.21-1.21,1.95-2.77,3.96-2.77,6.26-2.25-2.45-4.4-8.14-4.9-10.41-1.56,3.16-2.6,4.5-2.45,6.84-5.5-7.14-13.62-19.46-16.33-25.48.31,10.41,2.3,24.1,3.84,29.62,1.54,5.52,2.9,9.35,4.77,13.16,1.86,3.81,3.62,7.67,5.98,8.62-3.62,2.52-7.25,5.67-8.51,7.41,2.68-.32,4.73-.32,5.67,0-1.95,1.03-4.98,4.33-7.22,7.56-6.9-1.55-14.03-2.65-19.94-2.65h-.53c-.31,0-.56.26-.56.57,0,.31.26.56.57.56.14,0,.35,0,.53,0,5.71,0,12.59,1.04,19.27,2.52-.55.86-1.05,1.7-1.42,2.47,1.42,0,2.84-.79,4.57-.79-1.44,2.07-2.63,4.38-3.48,6.58-9.35.9-19.91,2.72-27.43,5.67-.29.12-.43.44-.32.73.09.22.3.36.53.36.07,0,.14-.01.21-.04,7.3-2.87,17.48-4.65,26.59-5.55-.41,1.23-.72,2.41-.83,3.44,1.42-.79,1.89-.79,2.99-.95-.31,1.2-.55,2.93-.73,4.91-7.43,2.83-14.99,6.34-20.39,10.12-.26.18-.32.53-.14.79.11.16.29.24.46.24.11,0,.23-.04.32-.1,5.22-3.65,12.47-7.05,19.65-9.81-.34,4.87-.28,10.91.35,14.97,1.58-2.99,7.57-13.4,10.09-15.13.32,4.1,0,3.94.63,5.99,2.52-1.89,6.33-4.36,8.96-6.62,3.12,4.48,9.01,6.62,14.14,7.61-.23,3.76-.77,7.43-1.61,10.09-2,6.35-6.68,13.36-17.37,22.04-10.69,8.68-19.37,10.35-27.72,16.37-8.35,6.01-12.02,16.37-13.36,25.72-.44,3.1-.64,6.28-.59,9.39-6.21,1.49-14.17-.09-18.82-5.67-6.26-7.52-6.16-20.85-3.26-34.19,2.76-12.65,14.26-47.36,18.55-58.27,4.29-10.91,7.74-26.21,5.74-38.85-1.73-10.93-10.64-22.46-23.04-24-12.79-1.59-22.45,7.33-26.35,15.91-3.9,8.57-2.92,21.46,1.94,27.85,4.54,5.96,11.57,8.94,19.77,7.47,7.93-1.42,12.38-9.02,12.58-15.27.2-6.28-2.18-10.97-6.63-13.86-3.73-2.42-6.58-.19-3.69,4.13,3.38,5.08,3.05,9.66.88,13.28-2.42,4.04-8.88,4.94-13.09,2.32-5.64-3.51-8.66-13.74-4.82-22.25,3.01-6.67,10.94-12.53,19.54-10.81,6.16,1.23,12.69,6.97,14.28,15.66,1.85,10.12-1.39,24.4-5.68,35.7-4.29,11.3-16.37,41.31-20.27,58.07-3.9,16.76-3.98,35.38,2.65,45.51,6.13,9.37,17.8,15.48,32.95,12.32.23.43.44.89.7,1.29,4.01,6.18,7.85,8.52,14.03,10.52,4.72,1.53,14.36,2.51,27.39,2.51,7.68,0,11.52-.67,13.19-2.34,1.34,1.67,7.18,2,12.19,1.67,5.01-.33,11.71-1.61,11.77-4.93.07-3.76-4.43-6.1-7.77-6.76-3.34-.67-3.34-1.34-3.67-3.34-.33-2,2.34-13.36,6.01-22.04,2.15-5.09,7.68-14.36,11.69-25.38,4.01-11.02,1.67-19.37-3.34-29.06-3.07-5.94-7.39-13.39-10.43-20.42,4.7-.62,10.11-2.17,13.1-5.97,1.38,1.13,8.42,5.81,9.52,8.64.47-2.21,1.57-8.6,1.1-10.02,2.52,1.73,8.51,12.14,10.09,15.13.63-4.07.69-10.12.35-14.99,7.19,2.76,14.47,6.18,19.7,9.83.1.07.21.1.32.1.18,0,.35-.09.46-.24.18-.26.12-.61-.14-.79-5.42-3.79-13-7.31-20.45-10.14-.18-1.97-.41-3.7-.72-4.89,1.1.16,1.58.16,2.99.95-.1-1-.41-2.15-.79-3.34,8.85.93,18.57,2.69,25.61,5.45.07.02.14.04.21.04.23,0,.44-.14.53-.36.11-.29-.03-.62-.32-.73ZM95.58,56.46c2.09-.22,4.35.12,6.54.92-.22.79-.38,1.67-.45,2.61-.24,3.46.79,6.35,2.31,6.45,1.52.11,2.95-2.61,3.19-6.06,0-.05,0-.1,0-.15,2.18,1.75,3.96,4.04,4.91,6.75-8.12,6.33-16.05-.82-16.5-10.5ZM120.04,78.02c.88-1.22,1.16-2.26,1.02-2.79-.22-.86-2.04-1.26-3.38-1.26s-2.6.28-2.95.86c-.43.73-.06,1.85.67,3.15-1.3-1.02-2.16-2.56-1.93-3.57.24-1.1,2.29-1.72,4.35-1.72s4.32.83,4.66,1.77c.29.83-.67,2.3-2.44,3.56ZM123.99,67.8c1.32-2.54,3.4-4.56,5.81-5.99,0,.02,0,.04,0,.06-.24,3.46.79,6.35,2.31,6.45,1.52.11,2.95-2.61,3.19-6.06.06-.91.04-1.77-.06-2.56,2.27-.48,4.55-.49,6.58.02-1.81,9.52-10.66,15.49-17.81,8.08Z"/>
  </g>
</svg>