<?xml version="1.0" encoding="UTF-8"?>
<svg id="Layer_2" data-name="Layer 2" xmlns="http://www.w3.org/2000/svg" xmlns:xlink="http://www.w3.org/1999/xlink" viewBox="0 0 163.29 229.82">
  <defs>
    <style>
      .cls-1 {
        fill: url(#linear-gradient-2);
      }

      .cls-2 {
        fill: url(#linear-gradient-10);
      }

      .cls-3 {
        fill: url(#linear-gradient-12);
      }

      .cls-4 {
        fill: url(#linear-gradient-4);
      }

      .cls-5 {
        fill: url(#linear-gradient-3);
      }

      .cls-6 {
        fill: url(#linear-gradient-5);
      }

      .cls-7 {
        fill: url(#linear-gradient-8);
      }

      .cls-8 {
        fill: url(#linear-gradient-7);
      }

      .cls-9 {
        fill: url(#linear-gradient-9);
      }

      .cls-10 {
        fill: url(#linear-gradient-11);
      }

      .cls-11 {
        fill: url(#linear-gradient-6);
      }

      .cls-12 {
        fill: url(#linear-gradient);
      }
    </style>
    <linearGradient id="linear-gradient" x1="13.09" y1="114.91" x2="163.29" y2="114.91" gradientUnits="userSpaceOnUse">
      <stop offset="0" stop-color="#60c9b6"/>
      <stop offset=".02" stop-color="#60c9b6"/>
      <stop offset=".02" stop-color="#60c9b6"/>
      <stop offset=".03" stop-color="#60c9b7"/>
      <stop offset=".04" stop-color="#60c9b7"/>
      <stop offset=".05" stop-color="#60c9b7"/>
      <stop offset=".05" stop-color="#60c9b8"/>
      <stop offset=".06" stop-color="#60c9b8"/>
      <stop offset=".07" stop-color="#60c9b9"/>
      <stop offset=".08" stop-color="#61c9b9"/>
      <stop offset=".09" stop-color="#61c9b9"/>
      <stop offset=".09" stop-color="#61c9ba"/>
      <stop offset=".11" stop-color="#61c9ba"/>
      <stop offset=".12" stop-color="#61c9bb"/>
      <stop offset=".12" stop-color="#61c9bb"/>
      <stop offset=".13" stop-color="#61c9bc"/>
      <stop offset=".14" stop-color="#61c9bc"/>
      <stop offset=".16" stop-color="#61c9bc"/>
      <stop offset=".16" stop-color="#61cabd"/>
      <stop offset=".17" stop-color="#61cabd"/>
      <stop offset=".18" stop-color="#61cabe"/>
      <stop offset=".18" stop-color="#61cabe"/>
      <stop offset=".19" stop-color="#61cabe"/>
      <stop offset=".2" stop-color="#61cabe"/>
      <stop offset=".2" stop-color="#61cabf"/>
      <stop offset=".22" stop-color="#61cabf"/>
      <stop offset=".22" stop-color="#61cac0"/>
      <stop offset=".23" stop-color="#61cac0"/>
      <stop offset=".23" stop-color="#61cac0"/>
      <stop offset=".24" stop-color="#61cac0"/>
      <stop offset=".25" stop-color="#61cac1"/>
      <stop offset=".26" stop-color="#61cac1"/>
      <stop offset=".26" stop-color="#62cac1"/>
      <stop offset=".27" stop-color="#62cac2"/>
      <stop offset=".27" stop-color="#62cac2"/>
      <stop offset=".28" stop-color="#62cac2"/>
      <stop offset=".3" stop-color="#62cac3"/>
      <stop offset=".31" stop-color="#62cac3"/>
      <stop offset=".33" stop-color="#62cac4"/>
      <stop offset=".34" stop-color="#62cac4"/>
      <stop offset=".34" stop-color="#62cac5"/>
      <stop offset=".35" stop-color="#62cac5"/>
      <stop offset=".36" stop-color="#62cac6"/>
      <stop offset=".38" stop-color="#62cac6"/>
      <stop offset=".38" stop-color="#62cac7"/>
      <stop offset=".39" stop-color="#62cac7"/>
      <stop offset=".41" stop-color="#62cac7"/>
      <stop offset=".41" stop-color="#63cbc7"/>
      <stop offset=".42" stop-color="#63cbc8"/>
      <stop offset=".43" stop-color="#63cbc8"/>
      <stop offset=".43" stop-color="#61cac7"/>
      <stop offset=".44" stop-color="#60cac7"/>
      <stop offset=".44" stop-color="#60c9c6"/>
      <stop offset=".45" stop-color="#5fc9c5"/>
      <stop offset=".45" stop-color="#5ec9c5"/>
      <stop offset=".45" stop-color="#5dc9c4"/>
      <stop offset=".46" stop-color="#5cc8c4"/>
      <stop offset=".46" stop-color="#5bc8c4"/>
      <stop offset=".46" stop-color="#5ac8c3"/>
      <stop offset=".47" stop-color="#5ac7c2"/>
      <stop offset=".47" stop-color="#59c7c2"/>
      <stop offset=".48" stop-color="#58c7c1"/>
      <stop offset=".48" stop-color="#57c6c1"/>
      <stop offset=".48" stop-color="#56c6c0"/>
      <stop offset=".49" stop-color="#55c6bf"/>
      <stop offset=".49" stop-color="#53c5bf"/>
      <stop offset=".5" stop-color="#53c5be"/>
      <stop offset=".5" stop-color="#52c5be"/>
      <stop offset=".5" stop-color="#51c4bd"/>
      <stop offset=".51" stop-color="#50c4bc"/>
      <stop offset=".51" stop-color="#4fc4bb"/>
      <stop offset=".52" stop-color="#4ec3bb"/>
      <stop offset=".52" stop-color="#4dc3ba"/>
      <stop offset=".52" stop-color="#4dc3ba"/>
      <stop offset=".53" stop-color="#4cc3b9"/>
      <stop offset=".53" stop-color="#4bc2b8"/>
      <stop offset=".54" stop-color="#4ac1b7"/>
      <stop offset=".54" stop-color="#49c1b7"/>
      <stop offset=".54" stop-color="#48c0b6"/>
      <stop offset=".55" stop-color="#47beb5"/>
      <stop offset=".55" stop-color="#47bdb3"/>
      <stop offset=".55" stop-color="#46bdb2"/>
      <stop offset=".56" stop-color="#46bbb1"/>
      <stop offset=".56" stop-color="#45bab0"/>
      <stop offset=".57" stop-color="#44b9b0"/>
      <stop offset=".57" stop-color="#44b8af"/>
      <stop offset=".57" stop-color="#43b7ae"/>
      <stop offset=".58" stop-color="#43b6ad"/>
      <stop offset=".58" stop-color="#43b5ac"/>
      <stop offset=".59" stop-color="#42b4ab"/>
      <stop offset=".59" stop-color="#42b2aa"/>
      <stop offset=".59" stop-color="#41b1a9"/>
      <stop offset=".6" stop-color="#41b0a8"/>
      <stop offset=".6" stop-color="#41afa7"/>
      <stop offset=".61" stop-color="#40aea6"/>
      <stop offset=".61" stop-color="#40aca6"/>
      <stop offset=".61" stop-color="#3faba5"/>
      <stop offset=".62" stop-color="#3faaa4"/>
      <stop offset=".62" stop-color="#3ea9a2"/>
      <stop offset=".62" stop-color="#3ea7a1"/>
      <stop offset=".63" stop-color="#3da6a0"/>
      <stop offset=".63" stop-color="#3da59f"/>
      <stop offset=".64" stop-color="#3da49e"/>
      <stop offset=".64" stop-color="#3da49d"/>
      <stop offset=".64" stop-color="#3ca29c"/>
      <stop offset=".65" stop-color="#3ca19b"/>
      <stop offset=".65" stop-color="#3ba09a"/>
      <stop offset=".66" stop-color="#3a9f99"/>
      <stop offset=".66" stop-color="#3a9d98"/>
      <stop offset=".66" stop-color="#399c97"/>
      <stop offset=".67" stop-color="#399b96"/>
      <stop offset=".67" stop-color="#399a95"/>
      <stop offset=".68" stop-color="#389994"/>
      <stop offset=".68" stop-color="#379893"/>
      <stop offset=".68" stop-color="#379792"/>
      <stop offset=".69" stop-color="#379590"/>
      <stop offset=".69" stop-color="#36948f"/>
      <stop offset=".7" stop-color="#36948e"/>
      <stop offset=".7" stop-color="#36938e"/>
      <stop offset=".7" stop-color="#35918d"/>
      <stop offset=".71" stop-color="#35908c"/>
      <stop offset=".71" stop-color="#348f8b"/>
      <stop offset=".71" stop-color="#348e89"/>
      <stop offset=".72" stop-color="#348d88"/>
      <stop offset=".72" stop-color="#338b87"/>
      <stop offset=".73" stop-color="#338a86"/>
      <stop offset=".73" stop-color="#338985"/>
      <stop offset=".73" stop-color="#328783"/>
      <stop offset=".74" stop-color="#328682"/>
      <stop offset=".74" stop-color="#318581"/>
      <stop offset=".75" stop-color="#318480"/>
      <stop offset=".75" stop-color="#30837f"/>
      <stop offset=".75" stop-color="#30827e"/>
      <stop offset=".76" stop-color="#2f817d"/>
      <stop offset=".76" stop-color="#2f807c"/>
      <stop offset=".77" stop-color="#2e7e7b"/>
      <stop offset=".77" stop-color="#2e7d79"/>
      <stop offset=".77" stop-color="#2d7c78"/>
      <stop offset=".78" stop-color="#2d7b77"/>
      <stop offset=".78" stop-color="#2d7a76"/>
      <stop offset=".79" stop-color="#2d7875"/>
      <stop offset=".79" stop-color="#2c7774"/>
      <stop offset=".79" stop-color="#2c7673"/>
      <stop offset=".8" stop-color="#2b7571"/>
      <stop offset=".8" stop-color="#2b7470"/>
      <stop offset=".8" stop-color="#2b726f"/>
      <stop offset=".81" stop-color="#2a716e"/>
      <stop offset=".81" stop-color="#2a706c"/>
      <stop offset=".82" stop-color="#296f6b"/>
      <stop offset=".82" stop-color="#296e6a"/>
      <stop offset=".82" stop-color="#286c69"/>
      <stop offset=".83" stop-color="#286b68"/>
      <stop offset=".83" stop-color="#286a67"/>
      <stop offset=".84" stop-color="#286966"/>
      <stop offset=".84" stop-color="#276864"/>
      <stop offset=".84" stop-color="#276763"/>
      <stop offset=".85" stop-color="#276662"/>
      <stop offset=".85" stop-color="#266561"/>
      <stop offset=".86" stop-color="#266360"/>
      <stop offset=".86" stop-color="#25625f"/>
      <stop offset=".86" stop-color="#25615e"/>
      <stop offset=".87" stop-color="#25605c"/>
      <stop offset=".87" stop-color="#245f5b"/>
      <stop offset=".88" stop-color="#245e5a"/>
      <stop offset=".88" stop-color="#245d59"/>
      <stop offset=".88" stop-color="#235b58"/>
      <stop offset=".89" stop-color="#235a56"/>
      <stop offset=".89" stop-color="#225955"/>
      <stop offset=".89" stop-color="#225854"/>
      <stop offset=".9" stop-color="#225753"/>
      <stop offset=".9" stop-color="#225652"/>
      <stop offset=".91" stop-color="#225551"/>
      <stop offset=".91" stop-color="#215450"/>
      <stop offset=".91" stop-color="#21534f"/>
      <stop offset=".92" stop-color="#21524d"/>
      <stop offset=".92" stop-color="#20514c"/>
      <stop offset=".93" stop-color="#204f4b"/>
      <stop offset=".93" stop-color="#1f4e4a"/>
      <stop offset=".93" stop-color="#1f4d49"/>
      <stop offset=".94" stop-color="#1f4c48"/>
      <stop offset=".94" stop-color="#1f4b47"/>
      <stop offset=".95" stop-color="#1e4a46"/>
      <stop offset=".95" stop-color="#1e4944"/>
      <stop offset=".95" stop-color="#1e4843"/>
      <stop offset=".96" stop-color="#1e4742"/>
      <stop offset=".96" stop-color="#1e4641"/>
      <stop offset=".96" stop-color="#1d4540"/>
      <stop offset=".97" stop-color="#1d433f"/>
      <stop offset=".97" stop-color="#1d423d"/>
      <stop offset=".98" stop-color="#1c413c"/>
      <stop offset=".98" stop-color="#1c403b"/>
      <stop offset=".98" stop-color="#1c3f3a"/>
      <stop offset=".99" stop-color="#1c3e39"/>
      <stop offset=".99" stop-color="#1b3d38"/>
      <stop offset="1" stop-color="#1b3c37"/>
      <stop offset="1" stop-color="#1b3b36"/>
    </linearGradient>
    <linearGradient id="linear-gradient-2" x1="0" y1="159.72" x2="34.17" y2="159.72" xlink:href="#linear-gradient"/>
    <linearGradient id="linear-gradient-3" x1="53.74" y1="66.75" x2="122.43" y2="66.75" xlink:href="#linear-gradient"/>
    <linearGradient id="linear-gradient-4" x1="73.76" y1="148.58" x2="108.41" y2="148.58" xlink:href="#linear-gradient"/>
    <linearGradient id="linear-gradient-5" x1="95.34" y1="150" x2="103.72" y2="150" xlink:href="#linear-gradient"/>
    <linearGradient id="linear-gradient-6" x1="99.08" y1="148.6" x2="107.84" y2="148.6" xlink:href="#linear-gradient"/>
    <linearGradient id="linear-gradient-7" x1="74.31" y1="148.12" x2="83.27" y2="148.12" xlink:href="#linear-gradient"/>
    <linearGradient id="linear-gradient-8" x1="73.83" y1="152.57" x2="78.18" y2="152.57" xlink:href="#linear-gradient"/>
    <linearGradient id="linear-gradient-9" x1="104.35" y1="144.35" x2="108.38" y2="144.35" xlink:href="#linear-gradient"/>
    <linearGradient id="linear-gradient-10" x1="86.52" y1="145.95" x2="93.59" y2="145.95" xlink:href="#linear-gradient"/>
    <linearGradient id="linear-gradient-11" x1="88.25" y1="150.17" x2="95.64" y2="150.17" xlink:href="#linear-gradient"/>
    <linearGradient id="linear-gradient-12" x1="79.88" y1="146.99" x2="86.99" y2="146.99" xlink:href="#linear-gradient"/>
  </defs>
  <g id="Elements_2" data-name="Elements 2">
    <g>
      <path class="cls-12" d="M156.26,70.03c-9.73-.61-22.84-2.82-33.83-3.88-.73-6.54-3.55-12.49-8.75-14.95-.99-9.38-3.22-13.06-7.41-18.14-5.39-6.53-13.36-11.39-15.21-15.92-1.85-4.53-10.13-15.3-20.49-16.67-10.33-1.37-15.64.1-21.6,6.12-5.95,6-6.67,12.44-5.59,19.38.51,3.25,1.98,7.21,8.65,9.47,3.84,1.3,5-.62,1.33-2.52-4.21-2.17-5.01-8.36-4.48-12.45.53-4.09,3.07-5.32,7.55-6.42,4.24-1.04,7.72,3.43,6.52,11.08-1.2,7.65,1.84,16.35-.85,22.74-2.68,6.39-7.07,12.7-4.78,18.79-2.86,6.28-3.73,10.62-3.59,15.08-8.99,1.99-20.81,1.98-28.46.78-7.65-1.2-16.79-3.66-9.59,3.85,4.97,5.19,15.4,11.6,36.51,13.86.44.95.9,1.68,1.39,1.92-1.26,5.23-2.34,3.97-2.88,7.03-.54,3.07-1.08,5.05-3.43,5.77,1.58,1.8,3.61,2.88,5.05,3.25-2.52,1.98-4.82,3.16-7.03,3.07,2.66,2.12,7.8,4.64,10.1,4.87-.9,1.08-3.06,1.62-4.51,1.8,4.33,1.8,8.15,2.89,11.36,5.23,4.69,3.43,10.78,6.11,13.7,7.03,1.92.61,4.45,1.05,7.5,1.36-.08,3.41-1.25,8.31-3.35,10.58-4.42,4.78-8.25,6.09-14.24,6.63-8.02.72-15.46,2.21-24.12,7.75-8.05,5.16-11.66,15.82-13.03,22-1.53,6.94-.9,16.41.72,22.36,1.62,5.95,2.98,11.07,6.76,14.13,3.79,3.07,7.72,3.56,11.36,3.79,4.26.27,13.43.52,18.66-.38,2.66.72,4.91.81,8.34,0,2.16,1.08,5.71.71,7.76-.02,2.1-.74,3.17-1.94,3.02-4.07-.1-1.44-1.47-3.37-3.28-4.64-1.8-1.26-6.22-2.37-11.16-2.86,3.43-1.8,9.56-11.9,10.82-17.13.72,2.52,3.13,9.27,4.67,13.16,1.15,2.93,2.37,8.66,2.55,11,.18,2.34,1.26,3.97,3.79,5.05,2.52,1.08,5.4,1.19,7.8.36,2.16,1.08,5.44.08,6.35-1.01s.31-3.33-1.31-4.6c-1.62-1.26-3.59-1.75-5.47-2.19-1.67-.39-2.05-1.32-2.41-2.58-.36-1.26-.66-3.83-1.01-6.56-.39-3.11-1.07-12.09-1.43-17.86-.36-5.77-1.08-11.9-.36-15.15.72-3.25,3.25-12.8,3.61-21.28.3-7.06-.01-12.54-.13-16.7,5.1-.94,9.78-2.67,11.67-3.67,2.7-1.44,3.67-1.99,5.41-2.52,2.1-.64,5.05-.72,7.03-.54-1.26-.63-1.98-1.44-2.7-2.52,2.93-1.06,5.03-1.47,7.21-1.62-1.04-.92-1.4-1.17-3.43-1.8,2.47-.73,5.59-1.98,6.67-3.61-1.23-.13-2.12-.81-3.07-1.08,2.16-3.97,3.25-6.31,3.43-9.74.18-3.43-.9-7.75-1.44-9.2,1.8-2.52,2.74-3.52,3.61-6.85.72-2.78.66-5.88.43-8.54,10.53-3.73,19.55-7.8,24.91-11.15,6.57-4.1,7.89-7.87-1.85-8.47ZM69.63,120.12c-6.7-1.6-10.08-7.53-9.22-16.35,3.35-.15,6.51.1,9.39.73-.74,1.48-1.25,4.5-1.25,7.99,0,3.23.43,6.05,1.08,7.62ZM71.85,120.47c.74-1.48,1.24-4.49,1.24-7.97,0-3.06-.39-5.76-.98-7.38,6.37,2.02,10.97,6.28,12.37,13.12-4.88,1.87-9.11,2.55-12.63,2.23ZM97.73,118.25c1.34-6.51,5.56-10.7,11.46-12.82-.53,1.64-.88,4.2-.88,7.08,0,3.51.51,6.55,1.26,8.02-3.36.16-7.31-.53-11.84-2.27ZM111.7,120.28c.69-1.54,1.15-4.45,1.15-7.78s-.47-6.3-1.17-7.83c3.07-.76,6.48-1.06,10.12-.9.89,9.19-2.83,15.22-10.1,16.51Z"/>
      <path class="cls-1" d="M31.06,212.3c-3.7,1.74-11.01.3-15.33-3.31-6.58-5.5-9.57-14.82-7.66-24.97,1.62-8.66,7.96-21.4,12.17-27.77,7.03-10.64,11.95-20.8,13.05-27.79,1.15-7.3.61-15.44-3.67-22.2-3.21-5.07-11.68-8.84-16.81-8.56,2.98.81,4.87,2.43,5.95,3.79-5.09-1.62-9.78-2.16-12.08-1.98,1.89,2.98,9.38,6.85,11.27,7.66-3.16-.09-6.45-.68-8.65-1.35,5.41,5.41,10.44,6.62,12.71,8.38,3.04,2.37,4.8,6.22,4.73,10.95-.09,6.41-4.45,15.22-9.83,23.17-6.58,9.74-12.35,20.65-14.79,29.57-3.2,11.72-3.7,24.07,5.05,34.44,7.25,8.6,15.96,11.09,27,8.43l-3.11-8.45Z"/>
      <path class="cls-5" d="M53.75,81.74c-.14-4.46.72-8.8,3.59-15.08,17.83,1.47,46.9-7.06,56.34-15.46,5.2,2.46,8.01,8.41,8.75,14.95-15.12,9.86-52.81,18.44-68.68,15.59Z"/>
      <g>
        <path class="cls-4" d="M91.08,153.01c-1.37,0-2.42-.26-4.05-1.69-1.63,1.35-7.93,3.98-9.87,4.4-1.57.34-3.3-2.94-3.4-7.23-.11-4.67,1.63-7.23,2.99-7.08,1.36.15,6.94,1.69,10.07,3.91.92-1.35,2.48-1.99,4.25-1.99s3.34.64,4.25,1.99c3.13-2.22,8.71-3.76,10.07-3.91,1.36-.15,3.11,2.41,2.99,7.08-.1,4.29-1.84,7.56-3.4,7.23-1.94-.42-8.24-3.05-9.87-4.4-1.63,1.43-2.68,1.69-4.05,1.69Z"/>
        <path class="cls-6" d="M103.72,155.34c-.95-.32-2.17-.79-3.4-1.32-1.29-2.09-3.18-5-4.69-6.7,0-.61-.17-1.59-.3-1.99.33-.24.7-.46,1.08-.68,1.93,2.32,5.49,7.52,7.31,10.69Z"/>
        <path class="cls-11" d="M107.84,152.26c-.28.96-.63,1.77-1.04,2.36-1.83-3.28-5.8-9.06-7.72-11.27.68-.29,1.37-.55,2.03-.77,1.72,2.06,4.79,6.48,6.73,9.68Z"/>
        <path class="cls-8" d="M83.27,153.39c-.64.3-1.31.59-1.96.86-1.82-2.17-5.1-6.9-7.01-10.1.32-1,.76-1.72,1.23-2.17,1.82,3.24,5.78,9.12,7.74,11.41Z"/>
        <path class="cls-7" d="M77.17,155.72c-1.45.31-3.03-2.49-3.34-6.31,1.52,2.27,3.17,4.57,4.35,6.03-.4.13-.75.23-1.01.29Z"/>
        <path class="cls-9" d="M104.35,141.62c.46-.11.83-.18,1.06-.2,1.24-.14,2.78,1.99,2.97,5.88-1.37-2.07-2.87-4.19-4.03-5.67Z"/>
        <path class="cls-2" d="M86.55,148.56c-.06-.66,0-1.51.15-2.25,1.25-.65,3.12-1.96,4.2-2.95.06,0,.12-.02.18-.02.91,0,1.76.18,2.5.53-1.23,1.32-4.78,3.82-7.04,4.69Z"/>
        <path class="cls-10" d="M88.25,152.23c2.11-.78,5.87-3.17,7.38-4.91,0,.98-.09,2.71-.5,3.99-1.63,1.43-2.68,1.69-4.05,1.69-1,0-1.82-.15-2.83-.77Z"/>
        <path class="cls-3" d="M86.36,151.78c-2-2.58-4.89-6.84-6.48-9.6.97.3,2.05.68,3.13,1.13,1.07,1.69,2.35,3.58,3.54,5.24.08,1.06.26,2.01.45,2.79-.17.13-.38.28-.63.44Z"/>
      </g>
    </g>
  </g>
</svg>