<svg xmlns="http://www.w3.org/2000/svg" version="1.1" viewBox="-5.0 -10.0 110.0 135.0">
 <path d="m90.141 50.848c-16.039-4.4297-19.121-7.5117-23.547-23.547-0.25-0.90234-1.0703-1.5273-2.0078-1.5273s-1.7578 0.625-2.0078 1.5273c-4.4258 16.035-7.5078 19.117-23.547 23.547-0.90234 0.25-1.5273 1.0703-1.5273 2.0078s0.625 1.7578 1.5273 2.0078c16.039 4.4258 19.117 7.5078 23.547 23.547 0.25 0.90234 1.0703 1.5273 2.0078 1.5273s1.7578-0.625 2.0078-1.5273c4.4297-16.039 7.5078-19.117 23.547-23.547 0.90234-0.25 1.5273-1.0703 1.5273-2.0078s-0.625-1.7578-1.5273-2.0078z"/>
 <path d="m17.539 28.051c9.7578 2.6953 11.48 4.418 14.172 14.172 0.25 0.90234 1.0742 1.5273 2.0078 1.5273s1.7617-0.625 2.0078-1.5273c2.6914-9.7539 4.4141-11.477 14.172-14.172 0.90234-0.25 1.5273-1.0703 1.5273-2.0078s-0.625-1.7578-1.5273-2.0078c-9.7578-2.6953-11.48-4.418-14.172-14.172-0.24609-0.90234-1.0703-1.5273-2.0078-1.5273s-1.7578 0.625-2.0078 1.5273c-2.6953 9.7578-4.418 11.477-14.172 14.172-0.90234 0.25-1.5273 1.0703-1.5273 2.0078s0.625 1.7578 1.5273 2.0078z"/>
 <path d="m44.305 70.91c-10.363-2.8594-12.355-4.8516-15.215-15.211-0.25-0.90234-1.0703-1.5273-2.0078-1.5273s-1.7578 0.625-2.0078 1.5273c-2.8594 10.359-4.8516 12.352-15.215 15.211-0.90234 0.25-1.5273 1.0703-1.5273 2.0078s0.625 1.7578 1.5273 2.0078c10.363 2.8633 12.355 4.8516 15.215 15.211 0.25 0.90234 1.0703 1.5273 2.0078 1.5273s1.7578-0.625 2.0078-1.5273c2.8594-10.363 4.8516-12.352 15.215-15.211 0.90234-0.25 1.5273-1.0703 1.5273-2.0078s-0.62891-1.7578-1.5273-2.0078z"/>
</svg>