<?xml version="1.0" encoding="UTF-8"?>
<svg id="Layer_2" data-name="Layer 2" xmlns="http://www.w3.org/2000/svg" xmlns:xlink="http://www.w3.org/1999/xlink" viewBox="0 0 242.81 205.63">
  <defs>
    <style>
      .cls-1 {
        fill: none;
      }

      .cls-2 {
        clip-path: url(#clippath-1);
      }

      .cls-3 {
        clip-path: url(#clippath-2);
      }

      .cls-4 {
        fill: url(#linear-gradient);
      }

      .cls-5 {
        clip-path: url(#clippath);
      }
    </style>
    <clipPath id="clippath">
      <rect class="cls-1" width="242.81" height="205.63"/>
    </clipPath>
    <clipPath id="clippath-1">
      <path class="cls-1" d="M207.95,155.01c-1.94-1.36-3.53-3.24-5.15-4.95-1.76-1.85-3.54-3.7-5.62-5.19-.02-.01,0-.05.02-.03,2.03,1.34,3.78,3,5.46,4.74,1.76,1.82,3.56,3.56,5.39,5.31.06.06-.02.17-.09.12ZM202.13,153.48c-1.47-.93-2.82-2.11-4.18-3.19-1.6-1.27-3.22-2.53-4.91-3.68-3.34-2.28-6.84-3.91-10.93-4.09-.04,0-.04-.06,0-.07,3.8-.45,7.69,1.62,10.76,3.62,3.29,2.13,6.45,4.66,9.36,7.27.07.07-.02.19-.1.14ZM173.95,142.54c-.06.04-.12-.05-.08-.1,2.72-2.65,6.42-3.62,10.15-3.37,3.56.24,7.5,1.51,10.3,3.79.14.11-.04.29-.17.23-1.65-.78-3.2-1.6-4.94-2.17-1.68-.56-3.41-.98-5.18-1.12-3.6-.29-7.14.63-10.07,2.75ZM168.24,148.7c-.02.62.03,1.29-.12,1.89-.03.11-.21.15-.26.03-.49-1.12-.03-2.73.17-3.89.01-.07.13-.07.14,0,.1.65.1,1.3.07,1.97ZM166.95,148.49c-.03.7.06,1.43-.09,2.12-.04.17-.28.19-.36.05-.34-.61-.31-1.34-.27-2.02.05-.71.08-1.51.33-2.18.07-.19.4-.25.44,0,.11.67-.03,1.35-.06,2.03ZM96.77,106.57c-.39-.13-.79.15-.9.51-.3.93-.26,1.86,0,2.75-3.94-1.39-8.27-1.51-12.4-1.05-4.47.5-8.89,1.66-13.05,3.38,2.97-3.92,6.38-7.56,9.98-10.85,2.67-2.43,5.55-4.61,8.57-6.58,4.39,3.82,9.15,8.1,10.66,13.75-.87-.77-1.74-1.53-2.87-1.91ZM62.93,121.07c-.06-.93-.09-1.86-.15-2.8,0-.06-.06-.1-.11-.1l-.2-.4c1.04-.53,2.06-1.1,3.09-1.66-.98,1.6-1.88,3.25-2.63,4.96ZM242.48,156.68c-.07.06-.14.11-.2.17-.07-.03-.16-.04-.24.01-2.28,1.39-4.67,2.1-7.32,2.37-2.86.3-5.75.36-8.62.14-7.1-.54-13.43-4.3-17.98-9.66-4.27-5.03-8.64-10.1-15.27-11.89-4.73-1.28-10-1.41-14.78-.34-4.4.98-9.13,3.34-10.72,7.7-1.05-.77-2.15-1.48-3.28-2.14-1.44-.85-2.92-1.64-4.39-2.43-1.44-.77-2.86-1.62-4.33-2.34,0,0,0-.01,0-.02.02-.08-.08-.15-.15-.08,0,0-.02.02-.03.03-.28-.1-.53.03-.65.31-.19.45-.35.82-.42,1.2-.03.06-.06.11-.08.17.63.28,1.26.58,1.86.91.07.03.02.15-.05.12-.65-.24-1.29-.53-1.92-.81-.31.67-.55,1.39-.76,2.12,1.06.33,2.13.61,3.19.94.09.03.05.15-.04.14-1.08-.23-2.16-.5-3.21-.86-.1.38-.19.75-.28,1.12,2.29.95,4.64,1.72,7.09,2.2.1.02.06.17-.04.16-2.45-.34-4.84-1.09-7.11-2.08,0,.03-.01.06-.02.08-2.07-.56-4.15-1.05-6.22-1.55-6.68-1.61-13.24-3.65-19.88-5.41-.56-.15-1.11-.29-1.67-.43,5.69-.34,11.28-2.49,15.52-6.35,2.28-2.08,4.29-4.76,5.36-7.68,1.25-3.38.69-7.08-.36-10.44-1.08-3.44-2.55-6.79-3.95-10.1-1.44-3.41-3.02-6.77-4.98-9.91-2.36-3.79-5.39-7.12-8.08-10.66-1.15-1.52-2.26-3.01-3.54-4.42-.02-.02-.04-.04-.06-.06,2.76,1.81,5.92,3.03,9.14,3.5,2.14,1.09,4.18,2.31,5.87,4.17,1.55,1.72,2.66,3.69,3.82,5.68.1.17.4.06.33-.14-.5-1.44-1.05-2.85-1.72-4.17,0-.01,0-.03,0-.05-.26-1.95-1.15-3.7-2.59-5.04-1.46-1.35-3.15-2.42-4.82-3.49-1.39-.89-2.82-1.77-4.08-2.85,2.73.87,5.54,1.58,7.97,3.07,2.48,1.53,4.35,3.82,6.52,5.74.48.5,1.04.95,1.69,1.35.67.4,1.22-.6.6-1.03-.49-.34-.95-.71-1.4-1.1-2.55-2.54-2.86-6.5-4.38-9.72-1.34-2.84-3.66-4.62-6.32-5.94,3.39.07,6.71.83,9.27,3.28.14.13.29.17.43.16,1.63,2.73,3.11,5.63,6.04,7.18.18.1.39-.14.23-.3-.76-.74-1.48-1.55-2.08-2.44-.56-.83-.93-1.75-1.37-2.65-.87-1.78-1.84-3.56-3.06-5.12-.38-.49-.78-.94-1.21-1.36.15.1.31.19.47.3,2.36,1.55,4.29,3.5,6.23,5.52.16.17.46,0,.4-.24-.65-2.23-2.47-4.02-4.26-5.39-2.12-1.62-4.48-2.92-6.91-4.01-.46-.21-.93-.4-1.39-.59-.01,0-.03-.01-.04-.02-2.87-1.16-5.84-2.03-8.78-2.97.63.06,1.25.1,1.88.15,2.61.17,4.98.76,7.09,2.37.02,0,.03.02.04.02.14.05.25-.16.15-.28-1.14-1.47-2.71-2.39-4.45-2.99,1.15.12,2.28.3,3.39.62,1.48.43,2.74,1.16,4.07,1.91.16.09.3-.11.19-.25-1.48-1.77-3.83-2.85-6-3.5-2.34-.71-4.75-.89-7.17-1.1-4.13-.34-8.14-1.21-11.62-3.46.72.12,1.45.22,2.18.31,3.96.45,8.91.44,11.8-2.84.82-.93,1.34-2.91-.2-3.44-1.27-.44-2.77-.46-4.1-.63-3.15-.4-6.29-1.45-9.27-2.49-2.88-1-6.19-2.5-8.38-4.85,1.73-1.88,3.85-4.12,2.57-6.12,3.32-1.72,6.22-4.08,9.39-6.07,2.6-1.63,5.53-3.12,7.63-5.42.89.64,1.9,1,3.03,1.05.3.01.66-.18.79-.46,0,0,0,0,0,0,2.44,1.68,4.37,4.06,6.52,6.07,2.26,2.12,4.97,4.21,8.23,4.11,2.16-.07,4.14-1.04,5.85-2.3.57-.42.53-1.3-.2-1.53-2.12-.66-4.02-1.69-5.43-3.43-1.28-1.57-2.12-3.47-3.08-5.23-2.2-4.01-4.92-7.95-8.52-10.83-3.25-2.6-7.16-4.04-11.33-4.07-5.25-.04-10.52,1.86-15.35,3.75-2.98,1.16-5.9,2.48-8.7,4.03-2.33,1.29-4.71,2.68-6.77,4.42-.12-.12-.23-.24-.34-.36-.14-.16-.42-.23-.62-.16-2.1.72-4.56,1.97-6,3.74-1.95-1.24-3.84-2.6-5.63-4.06-4.12-3.37-7.81-7.29-10.88-11.64-1.03-1.47-2.79-3.92-4.78-2.21-1.65,1.41-1.43,4.15-1.36,6.09.19,5.1,1.46,10.1,3.64,14.72,1.2,2.54,2.67,4.96,4.4,7.17.7.9,1.45,1.81,2.25,2.67-.37.24-.73.51-1.08.79-1.38,1.1-2.56,2.43-3.55,3.89-2,2.93-3.19,6.39-3.39,9.94-.03.55.56.93,1.05.8,1.3-.33,2.39-1.06,3.46-1.82.9-.64,1.84-1.32,2.92-1.56.31,1.65-.45,3.17-.39,4.86.04,1.15.66,1.88,1.52,2.29,0,0,0,.01,0,.02-.44,1.04-.88,2.09-1.26,3.15-.49,1.4-1.19,3.69,0,4.95.49.52,1.2.7,1.89.76,1.02.09,2.01.08,3.02-.03,2.01-.24,4.21-1.06,6.09.06,1.36.81,2.58,2.09,3.55,3.34.32.41.61.86.88,1.31-1.92,1.35-3.79,2.77-5.54,4.3-3.54,3.07-6.42,6.68-8.91,10.64-5.15,8.18-9.83,16.82-16.88,23.57-3.83,3.67-8.27,6.77-13.5,7.98-.47.11-.71.55-.75.98-.03.41-.06.82-.08,1.24-.37-.03-.74-.07-1.12-.14-1.29-.24-2.54-.62-3.79-1.01-2.28-.71-4.91-1.52-7.23-.56-.28.12-.56.25-.82.41-.4-.15-.81-.28-1.2-.44-1.31-.5-2.62-.97-3.95-1.4-2.7-.87-5.42-1.71-8.15-2.48-2.74-.77-5.49-1.51-8.26-2.17-1.74-.42-3.46-1.01-5.26-1.17-1.77-.16-3.53.66-3.51,2.7.02,1.94,1.7,3.59,3.22,4.55,3.85,2.46,8.54,3.35,12.82,4.78,2.69.89,5.4,1.55,8.16,2.19.32.08.64.16.96.24-.21.84-.28,1.71-.11,2.52.36,1.69,1.84,1.86,3.08,1.25.13.38.39.73.77.97.71.45,1.51.39,2.24.08.72,1.51,2.61,1.69,4.12,1.04,1.81,1.45,4.72.33,6.56-.5.87-.39,1.71-.83,2.53-1.32.97,3.76,2.55,7.39,4.6,10.57,2.08,3.22,4.71,5.83,7.82,8.06,3.39,2.43,7.05,4.53,9.87,7.66,3.16,3.51,5,7.88,6.8,12.18.35.82,1.74.83,1.7-.23-.1-2.86-1-5.5-2.27-7.98-1.12-2.2-2.51-4.27-3.89-6.29-2.97-4.35-6.37-8.98-6.73-14.43-.13-1.9.06-3.77.48-5.6.27,1.37.61,2.74,1.01,4.08,1.28,4.34,3.03,8.54,4.89,12.66,1.44,3.19,2.86,6.37,4.47,9.46.3.58.61,1.16.93,1.74,2.15,3.88,4.55,7.62,7.26,11.13,1.49,1.93,3.06,3.8,4.78,5.53.71.72,1.48,1.44,2.3,2.13.61,1.18,1.21,2.38,1.81,3.58.86,1.72,1.73,3.44,2.71,5.1.65,1.1,1.34,2.19,2.21,3.13-.57.44-1.05,1.03-1.45,1.56-1.05,1.38-1.83,2.94-2.71,4.43-.87,1.48-1.86,3.06-3.35,4.01-1.66,1.05-3.72,1.1-5.43.13-1.81-1.03-2.98-2.67-3.36-4.64-.04-.2-.07-.41-.09-.62,0,0,0-.01.01-.02.06-.1.03-.21-.03-.28,0-.07-.01-.13-.01-.2,0-.17-.3-.24-.32-.04-.01.08-.02.15-.03.24-1.94,2.37-4.23,5.14-3.72,8.42.47,3.03,2.95,4.98,5.62,6.14,2.56,1.11,5.09,1.26,7.82.67,3.04-.65,5.94-1.9,8.73-3.25,1.58-.76,3.13-1.59,4.67-2.44.49-.27.99-.56,1.48-.86-.13.83-.03,1.62.27,2.46.1.3.34.48.65.49,1.72.11,3.42-.08,5.09-.49,1.19-.3,2.85-.59,3.78-1.51.12.03.26.03.38,0,0,0,.02,0,.03,0,.23-.06.42-.25.48-.48.14-.52-.26-.82-.38-1.17-.17-.47-.26-.98-.35-1.47-.24-1.39-.35-2.8-.52-4.2-.33-2.8-.61-6.27-2.42-8.58-.72-.91-1.69-1.53-2.82-1.52-.28-.83-.78-1.64-1.15-2.36-.6-1.18-1.23-2.33-1.89-3.47-1.39-2.41-2.91-4.74-4.43-7.07-.54-.83-1.09-1.66-1.63-2.49,3.24,1.7,6.76,2.91,10.13,4.39,2.92,1.28,5.02,3.86,8.06,4.92.25.08.36-.27.17-.41-1.17-.83-2.21-1.84-3.27-2.8-1.84-2.26-3.29-4.84-4.73-7.36-.63-1.1-1.26-2.27-1.94-3.41.63.67,1.26,1.35,1.9,2.01,2.56,2.67,5.78,5.94,9.71,6.21.14,0,.19-.19.07-.26-.34-.2-.69-.4-1.04-.59-.3-.29-.59-.6-.86-.92-1.18-1.39-2.1-3.03-2.97-4.62-1.08-1.96-1.8-4.28-3.22-6.02l.19-.16c4.02,4.67,7.51,9.86,12.62,13.26.6,1.01,1.28,1.97,1.94,2.93.85,1.25,1.65,2.5,2.28,3.82.03.58.04,1.18-.01,1.75-.12,1.24-.72,2.43-1.82,3.09-2.87,1.71-5.53-1.36-6.72-3.68-.48-.93-1.85-.27-1.64.69.75,3.31.01,7.08,2.12,10.01,2.46,3.42,7.45,3.62,11.18,2.61,1.84-.49,4.42-1.45,5.31-3.33.12,1.17.16,2.36.85,3.33.97,1.36,2.53,1.65,4.07,1.8,1.53.15,3.26.23,4.73-.3.6-.22,1.19-.57,1.42-1.2.1-.29.11-.67,0-.99.35-.56.2-1.52.13-2.13-.17-1.42-.56-2.8-1.12-4.12-.53-1.22-1.87-3.49-3.44-4.16-.07-.62-.38-1.26-.6-1.82-.31-.75-.65-1.5-1.02-2.23.47.11.93.21,1.4.33,2.72.62,5.43,1.26,8.11,2.03,2.6.74,5.26,1.53,7.68,2.76,5.05,2.55,9.15,6.77,12.48,11.28.2.27.65.04.47-.27-.05-.08-.09-.16-.14-.24-1.23-3.9-2.78-7.63-4.95-11.12-2.02-3.25-4.65-6.04-7.58-8.48-5.94-4.97-13.1-8.25-18.84-13.45-1.34-1.21-2.62-2.48-3.85-3.8.59.35,1.18.7,1.76,1.05,2.5,1.48,5.04,2.88,7.5,4.42,1.37.86,2.71,1.77,4.05,2.69.66.45,1.31.91,1.96,1.38.73.53,1.44,1.19,2.24,1.6.28.15.58-.15.43-.43-.63-1.2-1.84-2.25-2.83-3.17-1.04-.96-2.16-1.81-3.33-2.59-2.32-1.55-4.76-2.91-7.19-4.27-2.5-1.4-5.1-2.77-7.4-4.49-.91-.68-1.74-1.46-2.5-2.29-.04-.05-.08-.1-.13-.16,0,0-.02,0-.03-.01-.82-.91-1.55-1.9-2.21-2.94-.58-.9-1.08-1.84-1.59-2.78,3.07.76,6.19,1.36,9.23,2.06,5.16,1.19,10.25,2.51,15.29,4.08-.29.52-.59,1.04-.86,1.58-.09.19-.1.39-.04.55.95.15,1.89.36,2.77.74.1.04.02.18-.07.17-.87-.17-1.84-.24-2.8-.34-.28.78-.49,1.58-.67,2.4-.1.44.2.85.66.87,3.71.11,7.41-.36,11.08-.78,2.55-.29,5.11-.45,7.67-.62.88,1.79,1.54,3.69,2.79,5.28,1.9,2.43,4.51,4.27,7.12,5.87,5.8,3.53,12.17,6.1,18.85,7.37,3.83.73,7.94,1.16,11.83.67.25-.03.38-.46.07-.5-.62-.09-1.25-.16-1.88-.24-.34-.08-.68-.16-1-.26-.9-.27-1.76-.61-2.6-1.03-.4-.2-.79-.4-1.18-.62,1.82.69,3.74,1.16,5.74,1.41,4.89.6,9.98-.27,14.54-2.08,2.71-1.08,5.23-2.4,7.48-4.25.21-.17-.06-.45-.27-.35-.04.02-.08.04-.12.06-.03-.03-.07-.06-.12-.05-3.15.21-6.23.84-9.41.82-.1,0-.21,0-.31,0,1.27-.1,2.54-.24,3.8-.42,4.67-.65,9.31-1.91,13.38-4.35,1.05-.63,2.06-1.34,2.98-2.15.59-.52,1.09-1.06,1.54-1.65.27-.24.51-.52.71-.83.04-.07.04-.14.03-.2.06-.08.11-.17.17-.25.05-.08-.06-.15-.12-.09Z"/>
    </clipPath>
    <clipPath id="clippath-2">
      <path class="cls-1" d="M207.95,155.01c-1.94-1.36-3.53-3.24-5.15-4.95-1.76-1.85-3.54-3.7-5.62-5.19-.02-.01,0-.05.02-.03,2.03,1.34,3.78,3,5.46,4.74,1.76,1.82,3.56,3.56,5.39,5.31.06.06-.02.17-.09.12ZM202.13,153.48c-1.47-.93-2.82-2.11-4.18-3.19-1.6-1.27-3.22-2.53-4.91-3.68-3.34-2.28-6.84-3.91-10.93-4.09-.04,0-.04-.06,0-.07,3.8-.45,7.69,1.62,10.76,3.62,3.29,2.13,6.45,4.66,9.36,7.27.07.07-.02.19-.1.14ZM173.95,142.54c-.06.04-.12-.05-.08-.1,2.72-2.65,6.42-3.62,10.15-3.37,3.56.24,7.5,1.51,10.3,3.79.14.11-.04.29-.17.23-1.65-.78-3.2-1.6-4.94-2.17-1.68-.56-3.41-.98-5.18-1.12-3.6-.29-7.14.63-10.07,2.75ZM168.24,148.7c-.02.62.03,1.29-.12,1.89-.03.11-.21.15-.26.03-.49-1.12-.03-2.73.17-3.89.01-.07.13-.07.14,0,.1.65.1,1.3.07,1.97ZM166.95,148.49c-.03.7.06,1.43-.09,2.12-.04.17-.28.19-.36.05-.34-.61-.31-1.34-.27-2.02.05-.71.08-1.51.33-2.18.07-.19.4-.25.44,0,.11.67-.03,1.35-.06,2.03ZM96.77,106.57c-.39-.13-.79.15-.9.51-.3.93-.26,1.86,0,2.75-3.94-1.39-8.27-1.51-12.4-1.05-4.47.5-8.89,1.66-13.05,3.38,2.97-3.92,6.38-7.56,9.98-10.85,2.67-2.43,5.55-4.61,8.57-6.58,4.39,3.82,9.15,8.1,10.66,13.75-.87-.77-1.74-1.53-2.87-1.91ZM62.93,121.07c-.06-.93-.09-1.86-.15-2.8,0-.06-.06-.1-.11-.1l-.2-.4c1.04-.53,2.06-1.1,3.09-1.66-.98,1.6-1.88,3.25-2.63,4.96ZM242.48,156.68c-.07.06-.14.11-.2.17-.07-.03-.16-.04-.24.01-2.28,1.39-4.67,2.1-7.32,2.37-2.86.3-5.75.36-8.62.14-7.1-.54-13.43-4.3-17.98-9.66-4.27-5.03-8.64-10.1-15.27-11.89-4.73-1.28-10-1.41-14.78-.34-4.4.98-9.13,3.34-10.72,7.7-1.05-.77-2.15-1.48-3.28-2.14-1.44-.85-2.92-1.64-4.39-2.43-1.44-.77-2.86-1.62-4.33-2.34,0,0,0-.01,0-.02.02-.08-.08-.15-.15-.08,0,0-.02.02-.03.03-.28-.1-.53.03-.65.31-.19.45-.35.82-.42,1.2-.03.06-.06.11-.08.17.63.28,1.26.58,1.86.91.07.03.02.15-.05.12-.65-.24-1.29-.53-1.92-.81-.31.67-.55,1.39-.76,2.12,1.06.33,2.13.61,3.19.94.09.03.05.15-.04.14-1.08-.23-2.16-.5-3.21-.86-.1.38-.19.75-.28,1.12,2.29.95,4.64,1.72,7.09,2.2.1.02.06.17-.04.16-2.45-.34-4.84-1.09-7.11-2.08,0,.03-.01.06-.02.08-2.07-.56-4.15-1.05-6.22-1.55-6.68-1.61-13.24-3.65-19.88-5.41-.56-.15-1.11-.29-1.67-.43,5.69-.34,11.28-2.49,15.52-6.35,2.28-2.08,4.29-4.76,5.36-7.68,1.25-3.38.69-7.08-.36-10.44-1.08-3.44-2.55-6.79-3.95-10.1-1.44-3.41-3.02-6.77-4.98-9.91-2.36-3.79-5.39-7.12-8.08-10.66-1.15-1.52-2.26-3.01-3.54-4.42-.02-.02-.04-.04-.06-.06,2.76,1.81,5.92,3.03,9.14,3.5,2.14,1.09,4.18,2.31,5.87,4.17,1.55,1.72,2.66,3.69,3.82,5.68.1.17.4.06.33-.14-.5-1.44-1.05-2.85-1.72-4.17,0-.01,0-.03,0-.05-.26-1.95-1.15-3.7-2.59-5.04-1.46-1.35-3.15-2.42-4.82-3.49-1.39-.89-2.82-1.77-4.08-2.85,2.73.87,5.54,1.58,7.97,3.07,2.48,1.53,4.35,3.82,6.52,5.74.48.5,1.04.95,1.69,1.35.67.4,1.22-.6.6-1.03-.49-.34-.95-.71-1.4-1.1-2.55-2.54-2.86-6.5-4.38-9.72-1.34-2.84-3.66-4.62-6.32-5.94,3.39.07,6.71.83,9.27,3.28.14.13.29.17.43.16,1.63,2.73,3.11,5.63,6.04,7.18.18.1.39-.14.23-.3-.76-.74-1.48-1.55-2.08-2.44-.56-.83-.93-1.75-1.37-2.65-.87-1.78-1.84-3.56-3.06-5.12-.38-.49-.78-.94-1.21-1.36.15.1.31.19.47.3,2.36,1.55,4.29,3.5,6.23,5.52.16.17.46,0,.4-.24-.65-2.23-2.47-4.02-4.26-5.39-2.12-1.62-4.48-2.92-6.91-4.01-.46-.21-.93-.4-1.39-.59-.01,0-.03-.01-.04-.02-2.87-1.16-5.84-2.03-8.78-2.97.63.06,1.25.1,1.88.15,2.61.17,4.98.76,7.09,2.37.02,0,.03.02.04.02.14.05.25-.16.15-.28-1.14-1.47-2.71-2.39-4.45-2.99,1.15.12,2.28.3,3.39.62,1.48.43,2.74,1.16,4.07,1.91.16.09.3-.11.19-.25-1.48-1.77-3.83-2.85-6-3.5-2.34-.71-4.75-.89-7.17-1.1-4.13-.34-8.14-1.21-11.62-3.46.72.12,1.45.22,2.18.31,3.96.45,8.91.44,11.8-2.84.82-.93,1.34-2.91-.2-3.44-1.27-.44-2.77-.46-4.1-.63-3.15-.4-6.29-1.45-9.27-2.49-2.88-1-6.19-2.5-8.38-4.85,1.73-1.88,3.85-4.12,2.57-6.12,3.32-1.72,6.22-4.08,9.39-6.07,2.6-1.63,5.53-3.12,7.63-5.42.89.64,1.9,1,3.03,1.05.3.01.66-.18.79-.46,0,0,0,0,0,0,2.44,1.68,4.37,4.06,6.52,6.07,2.26,2.12,4.97,4.21,8.23,4.11,2.16-.07,4.14-1.04,5.85-2.3.57-.42.53-1.3-.2-1.53-2.12-.66-4.02-1.69-5.43-3.43-1.28-1.57-2.12-3.47-3.08-5.23-2.2-4.01-4.92-7.95-8.52-10.83-3.25-2.6-7.16-4.04-11.33-4.07-5.25-.04-10.52,1.86-15.35,3.75-2.98,1.16-5.9,2.48-8.7,4.03-2.33,1.29-4.71,2.68-6.77,4.42-.12-.12-.23-.24-.34-.36-.14-.16-.42-.23-.62-.16-2.1.72-4.56,1.97-6,3.74-1.95-1.24-3.84-2.6-5.63-4.06-4.12-3.37-7.81-7.29-10.88-11.64-1.03-1.47-2.79-3.92-4.78-2.21-1.65,1.41-1.43,4.15-1.36,6.09.19,5.1,1.46,10.1,3.64,14.72,1.2,2.54,2.67,4.96,4.4,7.17.7.9,1.45,1.81,2.25,2.67-.37.24-.73.51-1.08.79-1.38,1.1-2.56,2.43-3.55,3.89-2,2.93-3.19,6.39-3.39,9.94-.03.55.56.93,1.05.8,1.3-.33,2.39-1.06,3.46-1.82.9-.64,1.84-1.32,2.92-1.56.31,1.65-.45,3.17-.39,4.86.04,1.15.66,1.88,1.52,2.29,0,0,0,.01,0,.02-.44,1.04-.88,2.09-1.26,3.15-.49,1.4-1.19,3.69,0,4.95.49.52,1.2.7,1.89.76,1.02.09,2.01.08,3.02-.03,2.01-.24,4.21-1.06,6.09.06,1.36.81,2.58,2.09,3.55,3.34.32.41.61.86.88,1.31-1.92,1.35-3.79,2.77-5.54,4.3-3.54,3.07-6.42,6.68-8.91,10.64-5.15,8.18-9.83,16.82-16.88,23.57-3.83,3.67-8.27,6.77-13.5,7.98-.47.11-.71.55-.75.98-.03.41-.06.82-.08,1.24-.37-.03-.74-.07-1.12-.14-1.29-.24-2.54-.62-3.79-1.01-2.28-.71-4.91-1.52-7.23-.56-.28.12-.56.25-.82.41-.4-.15-.81-.28-1.2-.44-1.31-.5-2.62-.97-3.95-1.4-2.7-.87-5.42-1.71-8.15-2.48-2.74-.77-5.49-1.51-8.26-2.17-1.74-.42-3.46-1.01-5.26-1.17-1.77-.16-3.53.66-3.51,2.7.02,1.94,1.7,3.59,3.22,4.55,3.85,2.46,8.54,3.35,12.82,4.78,2.69.89,5.4,1.55,8.16,2.19.32.08.64.16.96.24-.21.84-.28,1.71-.11,2.52.36,1.69,1.84,1.86,3.08,1.25.13.38.39.73.77.97.71.45,1.51.39,2.24.08.72,1.51,2.61,1.69,4.12,1.04,1.81,1.45,4.72.33,6.56-.5.87-.39,1.71-.83,2.53-1.32.97,3.76,2.55,7.39,4.6,10.57,2.08,3.22,4.71,5.83,7.82,8.06,3.39,2.43,7.05,4.53,9.87,7.66,3.16,3.51,5,7.88,6.8,12.18.35.82,1.74.83,1.7-.23-.1-2.86-1-5.5-2.27-7.98-1.12-2.2-2.51-4.27-3.89-6.29-2.97-4.35-6.37-8.98-6.73-14.43-.13-1.9.06-3.77.48-5.6.27,1.37.61,2.74,1.01,4.08,1.28,4.34,3.03,8.54,4.89,12.66,1.44,3.19,2.86,6.37,4.47,9.46.3.58.61,1.16.93,1.74,2.15,3.88,4.55,7.62,7.26,11.13,1.49,1.93,3.06,3.8,4.78,5.53.71.72,1.48,1.44,2.3,2.13.61,1.18,1.21,2.38,1.81,3.58.86,1.72,1.73,3.44,2.71,5.1.65,1.1,1.34,2.19,2.21,3.13-.57.44-1.05,1.03-1.45,1.56-1.05,1.38-1.83,2.94-2.71,4.43-.87,1.48-1.86,3.06-3.35,4.01-1.66,1.05-3.72,1.1-5.43.13-1.81-1.03-2.98-2.67-3.36-4.64-.04-.2-.07-.41-.09-.62,0,0,0-.01.01-.02.06-.1.03-.21-.03-.28,0-.07-.01-.13-.01-.2,0-.17-.3-.24-.32-.04-.01.08-.02.15-.03.24-1.94,2.37-4.23,5.14-3.72,8.42.47,3.03,2.95,4.98,5.62,6.14,2.56,1.11,5.09,1.26,7.82.67,3.04-.65,5.94-1.9,8.73-3.25,1.58-.76,3.13-1.59,4.67-2.44.49-.27.99-.56,1.48-.86-.13.83-.03,1.62.27,2.46.1.3.34.48.65.49,1.72.11,3.42-.08,5.09-.49,1.19-.3,2.85-.59,3.78-1.51.12.03.26.03.38,0,0,0,.02,0,.03,0,.23-.06.42-.25.48-.48.14-.52-.26-.82-.38-1.17-.17-.47-.26-.98-.35-1.47-.24-1.39-.35-2.8-.52-4.2-.33-2.8-.61-6.27-2.42-8.58-.72-.91-1.69-1.53-2.82-1.52-.28-.83-.78-1.64-1.15-2.36-.6-1.18-1.23-2.33-1.89-3.47-1.39-2.41-2.91-4.74-4.43-7.07-.54-.83-1.09-1.66-1.63-2.49,3.24,1.7,6.76,2.91,10.13,4.39,2.92,1.28,5.02,3.86,8.06,4.92.25.08.36-.27.17-.41-1.17-.83-2.21-1.84-3.27-2.8-1.84-2.26-3.29-4.84-4.73-7.36-.63-1.1-1.26-2.27-1.94-3.41.63.67,1.26,1.35,1.9,2.01,2.56,2.67,5.78,5.94,9.71,6.21.14,0,.19-.19.07-.26-.34-.2-.69-.4-1.04-.59-.3-.29-.59-.6-.86-.92-1.18-1.39-2.1-3.03-2.97-4.62-1.08-1.96-1.8-4.28-3.22-6.02l.19-.16c4.02,4.67,7.51,9.86,12.62,13.26.6,1.01,1.28,1.97,1.94,2.93.85,1.25,1.65,2.5,2.28,3.82.03.58.04,1.18-.01,1.75-.12,1.24-.72,2.43-1.82,3.09-2.87,1.71-5.53-1.36-6.72-3.68-.48-.93-1.85-.27-1.64.69.75,3.31.01,7.08,2.12,10.01,2.46,3.42,7.45,3.62,11.18,2.61,1.84-.49,4.42-1.45,5.31-3.33.12,1.17.16,2.36.85,3.33.97,1.36,2.53,1.65,4.07,1.8,1.53.15,3.26.23,4.73-.3.6-.22,1.19-.57,1.42-1.2.1-.29.11-.67,0-.99.35-.56.2-1.52.13-2.13-.17-1.42-.56-2.8-1.12-4.12-.53-1.22-1.87-3.49-3.44-4.16-.07-.62-.38-1.26-.6-1.82-.31-.75-.65-1.5-1.02-2.23.47.11.93.21,1.4.33,2.72.62,5.43,1.26,8.11,2.03,2.6.74,5.26,1.53,7.68,2.76,5.05,2.55,9.15,6.77,12.48,11.28.2.27.65.04.47-.27-.05-.08-.09-.16-.14-.24-1.23-3.9-2.78-7.63-4.95-11.12-2.02-3.25-4.65-6.04-7.58-8.48-5.94-4.97-13.1-8.25-18.84-13.45-1.34-1.21-2.62-2.48-3.85-3.8.59.35,1.18.7,1.76,1.05,2.5,1.48,5.04,2.88,7.5,4.42,1.37.86,2.71,1.77,4.05,2.69.66.45,1.31.91,1.96,1.38.73.53,1.44,1.19,2.24,1.6.28.15.58-.15.43-.43-.63-1.2-1.84-2.25-2.83-3.17-1.04-.96-2.16-1.81-3.33-2.59-2.32-1.55-4.76-2.91-7.19-4.27-2.5-1.4-5.1-2.77-7.4-4.49-.91-.68-1.74-1.46-2.5-2.29-.04-.05-.08-.1-.13-.16,0,0-.02,0-.03-.01-.82-.91-1.55-1.9-2.21-2.94-.58-.9-1.08-1.84-1.59-2.78,3.07.76,6.19,1.36,9.23,2.06,5.16,1.19,10.25,2.51,15.29,4.08-.29.52-.59,1.04-.86,1.58-.09.19-.1.39-.04.55.95.15,1.89.36,2.77.74.1.04.02.18-.07.17-.87-.17-1.84-.24-2.8-.34-.28.78-.49,1.58-.67,2.4-.1.44.2.85.66.87,3.71.11,7.41-.36,11.08-.78,2.55-.29,5.11-.45,7.67-.62.88,1.79,1.54,3.69,2.79,5.28,1.9,2.43,4.51,4.27,7.12,5.87,5.8,3.53,12.17,6.1,18.85,7.37,3.83.73,7.94,1.16,11.83.67.25-.03.38-.46.07-.5-.62-.09-1.25-.16-1.88-.24-.34-.08-.68-.16-1-.26-.9-.27-1.76-.61-2.6-1.03-.4-.2-.79-.4-1.18-.62,1.82.69,3.74,1.16,5.74,1.41,4.89.6,9.98-.27,14.54-2.08,2.71-1.08,5.23-2.4,7.48-4.25.21-.17-.06-.45-.27-.35-.04.02-.08.04-.12.06-.03-.03-.07-.06-.12-.05-3.15.21-6.23.84-9.41.82-.1,0-.21,0-.31,0,1.27-.1,2.54-.24,3.8-.42,4.67-.65,9.31-1.91,13.38-4.35,1.05-.63,2.06-1.34,2.98-2.15.59-.52,1.09-1.06,1.54-1.65.27-.24.51-.52.71-.83.04-.07.04-.14.03-.2.06-.08.11-.17.17-.25.05-.08-.06-.15-.12-.09Z"/>
    </clipPath>
    <linearGradient id="linear-gradient" x1="-3244.22" y1="1039.84" x2="-3243.75" y2="1039.84" gradientTransform="translate(-452511.18 1412179.48) rotate(90) scale(435.29 -435.29)" gradientUnits="userSpaceOnUse">
      <stop offset="0" stop-color="#60c9b6"/>
      <stop offset=".02" stop-color="#60c9b6"/>
      <stop offset=".02" stop-color="#60c9b6"/>
      <stop offset=".03" stop-color="#60c9b6"/>
      <stop offset=".04" stop-color="#60c9b7"/>
      <stop offset=".05" stop-color="#60c9b7"/>
      <stop offset=".05" stop-color="#60c9b8"/>
      <stop offset=".06" stop-color="#60c9b8"/>
      <stop offset=".06" stop-color="#60c9b9"/>
      <stop offset=".07" stop-color="#60c9b9"/>
      <stop offset=".08" stop-color="#61c9b9"/>
      <stop offset=".09" stop-color="#61c9b9"/>
      <stop offset=".09" stop-color="#61c9ba"/>
      <stop offset=".11" stop-color="#61c9ba"/>
      <stop offset=".12" stop-color="#61c9bb"/>
      <stop offset=".12" stop-color="#61c9bb"/>
      <stop offset=".13" stop-color="#61c9bb"/>
      <stop offset=".14" stop-color="#61c9bc"/>
      <stop offset=".16" stop-color="#61c9bc"/>
      <stop offset=".16" stop-color="#61cabd"/>
      <stop offset=".17" stop-color="#61cabd"/>
      <stop offset=".18" stop-color="#61cabd"/>
      <stop offset=".19" stop-color="#61cabe"/>
      <stop offset=".19" stop-color="#61cabe"/>
      <stop offset=".2" stop-color="#61cabf"/>
      <stop offset=".2" stop-color="#61cabf"/>
      <stop offset=".22" stop-color="#61cabf"/>
      <stop offset=".23" stop-color="#61cac0"/>
      <stop offset=".23" stop-color="#61cac0"/>
      <stop offset=".24" stop-color="#61cac0"/>
      <stop offset=".25" stop-color="#61cac1"/>
      <stop offset=".27" stop-color="#61cac1"/>
      <stop offset=".27" stop-color="#62cac2"/>
      <stop offset=".28" stop-color="#62cac2"/>
      <stop offset=".28" stop-color="#62cac2"/>
      <stop offset=".3" stop-color="#62cac3"/>
      <stop offset=".31" stop-color="#62cac3"/>
      <stop offset=".32" stop-color="#62cac4"/>
      <stop offset=".33" stop-color="#62cac4"/>
      <stop offset=".34" stop-color="#62cac4"/>
      <stop offset=".34" stop-color="#62cac4"/>
      <stop offset=".35" stop-color="#62cac5"/>
      <stop offset=".36" stop-color="#62cac5"/>
      <stop offset=".37" stop-color="#62cac6"/>
      <stop offset=".38" stop-color="#62cac6"/>
      <stop offset=".38" stop-color="#62cac6"/>
      <stop offset=".39" stop-color="#62cac7"/>
      <stop offset=".41" stop-color="#62cac7"/>
      <stop offset=".41" stop-color="#63cac7"/>
      <stop offset=".41" stop-color="#63cbc8"/>
      <stop offset=".42" stop-color="#63cbc8"/>
      <stop offset=".43" stop-color="#63cbc8"/>
      <stop offset=".43" stop-color="#62cac8"/>
      <stop offset=".44" stop-color="#61cac7"/>
      <stop offset=".44" stop-color="#60cac6"/>
      <stop offset=".45" stop-color="#5fc9c6"/>
      <stop offset=".45" stop-color="#5ec9c5"/>
      <stop offset=".45" stop-color="#5dc9c4"/>
      <stop offset=".46" stop-color="#5cc8c4"/>
      <stop offset=".46" stop-color="#5cc8c4"/>
      <stop offset=".46" stop-color="#5bc8c3"/>
      <stop offset=".47" stop-color="#5ac8c3"/>
      <stop offset=".47" stop-color="#59c7c2"/>
      <stop offset=".48" stop-color="#58c7c1"/>
      <stop offset=".48" stop-color="#57c7c1"/>
      <stop offset=".48" stop-color="#56c6c0"/>
      <stop offset=".49" stop-color="#55c6c0"/>
      <stop offset=".49" stop-color="#54c5bf"/>
      <stop offset=".5" stop-color="#53c5be"/>
      <stop offset=".5" stop-color="#52c5be"/>
      <stop offset=".5" stop-color="#51c4bd"/>
      <stop offset=".51" stop-color="#50c4bd"/>
      <stop offset=".51" stop-color="#4fc4bc"/>
      <stop offset=".52" stop-color="#4fc4bb"/>
      <stop offset=".52" stop-color="#4ec3ba"/>
      <stop offset=".52" stop-color="#4dc3ba"/>
      <stop offset=".53" stop-color="#4cc3b9"/>
      <stop offset=".53" stop-color="#4bc2b9"/>
      <stop offset=".54" stop-color="#4ac2b8"/>
      <stop offset=".54" stop-color="#49c1b7"/>
      <stop offset=".54" stop-color="#48c0b6"/>
      <stop offset=".55" stop-color="#47bfb5"/>
      <stop offset=".55" stop-color="#47beb4"/>
      <stop offset=".55" stop-color="#47bdb2"/>
      <stop offset=".56" stop-color="#46bcb2"/>
      <stop offset=".56" stop-color="#45bbb1"/>
      <stop offset=".57" stop-color="#45bab0"/>
      <stop offset=".57" stop-color="#44b9af"/>
      <stop offset=".57" stop-color="#44b7ae"/>
      <stop offset=".58" stop-color="#43b6ad"/>
      <stop offset=".58" stop-color="#43b5ac"/>
      <stop offset=".59" stop-color="#42b4ab"/>
      <stop offset=".59" stop-color="#42b3aa"/>
      <stop offset=".59" stop-color="#41b1a9"/>
      <stop offset=".6" stop-color="#41b0a8"/>
      <stop offset=".6" stop-color="#41afa7"/>
      <stop offset=".61" stop-color="#40aea6"/>
      <stop offset=".61" stop-color="#40ada6"/>
      <stop offset=".61" stop-color="#3faca5"/>
      <stop offset=".62" stop-color="#3faaa4"/>
      <stop offset=".62" stop-color="#3fa9a3"/>
      <stop offset=".62" stop-color="#3ea7a2"/>
      <stop offset=".63" stop-color="#3ea6a0"/>
      <stop offset=".63" stop-color="#3da59f"/>
      <stop offset=".64" stop-color="#3da59e"/>
      <stop offset=".64" stop-color="#3da49d"/>
      <stop offset=".64" stop-color="#3ca39c"/>
      <stop offset=".65" stop-color="#3ca29b"/>
      <stop offset=".65" stop-color="#3ba09a"/>
      <stop offset=".66" stop-color="#3b9f99"/>
      <stop offset=".66" stop-color="#3a9e98"/>
      <stop offset=".66" stop-color="#399d97"/>
      <stop offset=".67" stop-color="#399b96"/>
      <stop offset=".67" stop-color="#399a95"/>
      <stop offset=".68" stop-color="#389994"/>
      <stop offset=".68" stop-color="#389893"/>
      <stop offset=".68" stop-color="#379792"/>
      <stop offset=".69" stop-color="#379691"/>
      <stop offset=".69" stop-color="#369590"/>
      <stop offset=".7" stop-color="#36948f"/>
      <stop offset=".7" stop-color="#36938e"/>
      <stop offset=".7" stop-color="#35928d"/>
      <stop offset=".71" stop-color="#35908c"/>
      <stop offset=".71" stop-color="#358f8b"/>
      <stop offset=".71" stop-color="#348e8a"/>
      <stop offset=".72" stop-color="#348d88"/>
      <stop offset=".72" stop-color="#338c87"/>
      <stop offset=".73" stop-color="#338a86"/>
      <stop offset=".73" stop-color="#338985"/>
      <stop offset=".73" stop-color="#328883"/>
      <stop offset=".74" stop-color="#328782"/>
      <stop offset=".74" stop-color="#318681"/>
      <stop offset=".75" stop-color="#318480"/>
      <stop offset=".75" stop-color="#30837f"/>
      <stop offset=".75" stop-color="#30827e"/>
      <stop offset=".76" stop-color="#2f817d"/>
      <stop offset=".76" stop-color="#2f807c"/>
      <stop offset=".77" stop-color="#2e7e7b"/>
      <stop offset=".77" stop-color="#2e7d7a"/>
      <stop offset=".77" stop-color="#2d7c78"/>
      <stop offset=".78" stop-color="#2d7b77"/>
      <stop offset=".78" stop-color="#2d7a76"/>
      <stop offset=".79" stop-color="#2d7975"/>
      <stop offset=".79" stop-color="#2c7774"/>
      <stop offset=".79" stop-color="#2c7673"/>
      <stop offset=".8" stop-color="#2c7571"/>
      <stop offset=".8" stop-color="#2b7470"/>
      <stop offset=".8" stop-color="#2b736f"/>
      <stop offset=".81" stop-color="#2a716e"/>
      <stop offset=".81" stop-color="#2a706d"/>
      <stop offset=".82" stop-color="#296f6b"/>
      <stop offset=".82" stop-color="#296e6a"/>
      <stop offset=".82" stop-color="#286c69"/>
      <stop offset=".83" stop-color="#286b68"/>
      <stop offset=".83" stop-color="#286a67"/>
      <stop offset=".84" stop-color="#286966"/>
      <stop offset=".84" stop-color="#276864"/>
      <stop offset=".84" stop-color="#276763"/>
      <stop offset=".85" stop-color="#276662"/>
      <stop offset=".85" stop-color="#266561"/>
      <stop offset=".86" stop-color="#266360"/>
      <stop offset=".86" stop-color="#25625f"/>
      <stop offset=".86" stop-color="#25615e"/>
      <stop offset=".87" stop-color="#25605c"/>
      <stop offset=".87" stop-color="#245f5b"/>
      <stop offset=".88" stop-color="#245e5a"/>
      <stop offset=".88" stop-color="#245d59"/>
      <stop offset=".88" stop-color="#235c58"/>
      <stop offset=".89" stop-color="#235a56"/>
      <stop offset=".89" stop-color="#225955"/>
      <stop offset=".89" stop-color="#225854"/>
      <stop offset=".9" stop-color="#225753"/>
      <stop offset=".9" stop-color="#225652"/>
      <stop offset=".91" stop-color="#225551"/>
      <stop offset=".91" stop-color="#215450"/>
      <stop offset=".91" stop-color="#21534f"/>
      <stop offset=".92" stop-color="#21524d"/>
      <stop offset=".92" stop-color="#20514c"/>
      <stop offset=".93" stop-color="#204f4b"/>
      <stop offset=".93" stop-color="#1f4e4a"/>
      <stop offset=".93" stop-color="#1f4d49"/>
      <stop offset=".94" stop-color="#1f4c48"/>
      <stop offset=".94" stop-color="#1f4b47"/>
      <stop offset=".95" stop-color="#1e4a46"/>
      <stop offset=".95" stop-color="#1e4944"/>
      <stop offset=".95" stop-color="#1e4843"/>
      <stop offset=".96" stop-color="#1e4742"/>
      <stop offset=".96" stop-color="#1e4641"/>
      <stop offset=".96" stop-color="#1d4540"/>
      <stop offset=".97" stop-color="#1d433f"/>
      <stop offset=".97" stop-color="#1d423d"/>
      <stop offset=".98" stop-color="#1c413c"/>
      <stop offset=".98" stop-color="#1c403b"/>
      <stop offset=".98" stop-color="#1c3f3a"/>
      <stop offset=".99" stop-color="#1c3e39"/>
      <stop offset=".99" stop-color="#1b3d38"/>
      <stop offset="1" stop-color="#1b3c37"/>
      <stop offset="1" stop-color="#1b3b36"/>
    </linearGradient>
  </defs>
  <g id="Elements">
    <g class="cls-5">
      <g class="cls-2">
        <g class="cls-3">
          <path class="cls-4" d="M242.64-.7H.15v206.21h242.49V-.7Z"/>
        </g>
      </g>
    </g>
  </g>
</svg>