<?xml version="1.0" encoding="UTF-8"?>
<svg id="Layer_2" data-name="Layer 2" xmlns="http://www.w3.org/2000/svg" xmlns:xlink="http://www.w3.org/1999/xlink" viewBox="0 0 154.6 193.71">
  <defs>
    <style>
      .cls-1 {
        fill: url(#linear-gradient-2);
      }

      .cls-2 {
        fill: url(#linear-gradient-4);
      }

      .cls-3 {
        fill: url(#linear-gradient-3);
      }

      .cls-4 {
        fill: url(#linear-gradient-5);
      }

      .cls-5 {
        fill: url(#linear-gradient-8);
      }

      .cls-6 {
        fill: url(#linear-gradient-7);
      }

      .cls-7 {
        fill: url(#linear-gradient-6);
      }

      .cls-8 {
        fill: url(#linear-gradient);
      }
    </style>
    <linearGradient id="linear-gradient" x1="13.56" y1="106.62" x2="21" y2="106.62" gradientUnits="userSpaceOnUse">
      <stop offset="0" stop-color="#60c9b6"/>
      <stop offset=".02" stop-color="#60c9b6"/>
      <stop offset=".02" stop-color="#60c9b6"/>
      <stop offset=".03" stop-color="#60c9b7"/>
      <stop offset=".04" stop-color="#60c9b7"/>
      <stop offset=".05" stop-color="#60c9b7"/>
      <stop offset=".05" stop-color="#60c9b8"/>
      <stop offset=".06" stop-color="#60c9b8"/>
      <stop offset=".07" stop-color="#60c9b9"/>
      <stop offset=".08" stop-color="#61c9b9"/>
      <stop offset=".09" stop-color="#61c9b9"/>
      <stop offset=".09" stop-color="#61c9ba"/>
      <stop offset=".11" stop-color="#61c9ba"/>
      <stop offset=".12" stop-color="#61c9bb"/>
      <stop offset=".12" stop-color="#61c9bb"/>
      <stop offset=".13" stop-color="#61c9bc"/>
      <stop offset=".14" stop-color="#61c9bc"/>
      <stop offset=".16" stop-color="#61c9bc"/>
      <stop offset=".16" stop-color="#61cabd"/>
      <stop offset=".17" stop-color="#61cabd"/>
      <stop offset=".18" stop-color="#61cabe"/>
      <stop offset=".18" stop-color="#61cabe"/>
      <stop offset=".19" stop-color="#61cabe"/>
      <stop offset=".2" stop-color="#61cabe"/>
      <stop offset=".2" stop-color="#61cabf"/>
      <stop offset=".22" stop-color="#61cabf"/>
      <stop offset=".22" stop-color="#61cac0"/>
      <stop offset=".23" stop-color="#61cac0"/>
      <stop offset=".23" stop-color="#61cac0"/>
      <stop offset=".24" stop-color="#61cac0"/>
      <stop offset=".25" stop-color="#61cac1"/>
      <stop offset=".26" stop-color="#61cac1"/>
      <stop offset=".26" stop-color="#62cac1"/>
      <stop offset=".27" stop-color="#62cac2"/>
      <stop offset=".27" stop-color="#62cac2"/>
      <stop offset=".28" stop-color="#62cac2"/>
      <stop offset=".3" stop-color="#62cac3"/>
      <stop offset=".31" stop-color="#62cac3"/>
      <stop offset=".33" stop-color="#62cac4"/>
      <stop offset=".34" stop-color="#62cac4"/>
      <stop offset=".34" stop-color="#62cac5"/>
      <stop offset=".35" stop-color="#62cac5"/>
      <stop offset=".36" stop-color="#62cac6"/>
      <stop offset=".38" stop-color="#62cac6"/>
      <stop offset=".38" stop-color="#62cac7"/>
      <stop offset=".39" stop-color="#62cac7"/>
      <stop offset=".41" stop-color="#62cac7"/>
      <stop offset=".41" stop-color="#63cbc7"/>
      <stop offset=".42" stop-color="#63cbc8"/>
      <stop offset=".43" stop-color="#63cbc8"/>
      <stop offset=".43" stop-color="#61cac7"/>
      <stop offset=".44" stop-color="#60cac7"/>
      <stop offset=".44" stop-color="#60c9c6"/>
      <stop offset=".45" stop-color="#5fc9c5"/>
      <stop offset=".45" stop-color="#5ec9c5"/>
      <stop offset=".45" stop-color="#5dc9c4"/>
      <stop offset=".46" stop-color="#5cc8c4"/>
      <stop offset=".46" stop-color="#5bc8c4"/>
      <stop offset=".46" stop-color="#5ac8c3"/>
      <stop offset=".47" stop-color="#5ac7c2"/>
      <stop offset=".47" stop-color="#59c7c2"/>
      <stop offset=".48" stop-color="#58c7c1"/>
      <stop offset=".48" stop-color="#57c6c1"/>
      <stop offset=".48" stop-color="#56c6c0"/>
      <stop offset=".49" stop-color="#55c6bf"/>
      <stop offset=".49" stop-color="#53c5bf"/>
      <stop offset=".5" stop-color="#53c5be"/>
      <stop offset=".5" stop-color="#52c5be"/>
      <stop offset=".5" stop-color="#51c4bd"/>
      <stop offset=".51" stop-color="#50c4bc"/>
      <stop offset=".51" stop-color="#4fc4bb"/>
      <stop offset=".52" stop-color="#4ec3bb"/>
      <stop offset=".52" stop-color="#4dc3ba"/>
      <stop offset=".52" stop-color="#4dc3ba"/>
      <stop offset=".53" stop-color="#4cc3b9"/>
      <stop offset=".53" stop-color="#4bc2b8"/>
      <stop offset=".54" stop-color="#4ac1b7"/>
      <stop offset=".54" stop-color="#49c1b7"/>
      <stop offset=".54" stop-color="#48c0b6"/>
      <stop offset=".55" stop-color="#47beb5"/>
      <stop offset=".55" stop-color="#47bdb3"/>
      <stop offset=".55" stop-color="#46bdb2"/>
      <stop offset=".56" stop-color="#46bbb1"/>
      <stop offset=".56" stop-color="#45bab0"/>
      <stop offset=".57" stop-color="#44b9b0"/>
      <stop offset=".57" stop-color="#44b8af"/>
      <stop offset=".57" stop-color="#43b7ae"/>
      <stop offset=".58" stop-color="#43b6ad"/>
      <stop offset=".58" stop-color="#43b5ac"/>
      <stop offset=".59" stop-color="#42b4ab"/>
      <stop offset=".59" stop-color="#42b2aa"/>
      <stop offset=".59" stop-color="#41b1a9"/>
      <stop offset=".6" stop-color="#41b0a8"/>
      <stop offset=".6" stop-color="#41afa7"/>
      <stop offset=".61" stop-color="#40aea6"/>
      <stop offset=".61" stop-color="#40aca6"/>
      <stop offset=".61" stop-color="#3faba5"/>
      <stop offset=".62" stop-color="#3faaa4"/>
      <stop offset=".62" stop-color="#3ea9a2"/>
      <stop offset=".62" stop-color="#3ea7a1"/>
      <stop offset=".63" stop-color="#3da6a0"/>
      <stop offset=".63" stop-color="#3da59f"/>
      <stop offset=".64" stop-color="#3da49e"/>
      <stop offset=".64" stop-color="#3da49d"/>
      <stop offset=".64" stop-color="#3ca29c"/>
      <stop offset=".65" stop-color="#3ca19b"/>
      <stop offset=".65" stop-color="#3ba09a"/>
      <stop offset=".66" stop-color="#3a9f99"/>
      <stop offset=".66" stop-color="#3a9d98"/>
      <stop offset=".66" stop-color="#399c97"/>
      <stop offset=".67" stop-color="#399b96"/>
      <stop offset=".67" stop-color="#399a95"/>
      <stop offset=".68" stop-color="#389994"/>
      <stop offset=".68" stop-color="#379893"/>
      <stop offset=".68" stop-color="#379792"/>
      <stop offset=".69" stop-color="#379590"/>
      <stop offset=".69" stop-color="#36948f"/>
      <stop offset=".7" stop-color="#36948e"/>
      <stop offset=".7" stop-color="#36938e"/>
      <stop offset=".7" stop-color="#35918d"/>
      <stop offset=".71" stop-color="#35908c"/>
      <stop offset=".71" stop-color="#348f8b"/>
      <stop offset=".71" stop-color="#348e89"/>
      <stop offset=".72" stop-color="#348d88"/>
      <stop offset=".72" stop-color="#338b87"/>
      <stop offset=".73" stop-color="#338a86"/>
      <stop offset=".73" stop-color="#338985"/>
      <stop offset=".73" stop-color="#328783"/>
      <stop offset=".74" stop-color="#328682"/>
      <stop offset=".74" stop-color="#318581"/>
      <stop offset=".75" stop-color="#318480"/>
      <stop offset=".75" stop-color="#30837f"/>
      <stop offset=".75" stop-color="#30827e"/>
      <stop offset=".76" stop-color="#2f817d"/>
      <stop offset=".76" stop-color="#2f807c"/>
      <stop offset=".77" stop-color="#2e7e7b"/>
      <stop offset=".77" stop-color="#2e7d79"/>
      <stop offset=".77" stop-color="#2d7c78"/>
      <stop offset=".78" stop-color="#2d7b77"/>
      <stop offset=".78" stop-color="#2d7a76"/>
      <stop offset=".79" stop-color="#2d7875"/>
      <stop offset=".79" stop-color="#2c7774"/>
      <stop offset=".79" stop-color="#2c7673"/>
      <stop offset=".8" stop-color="#2b7571"/>
      <stop offset=".8" stop-color="#2b7470"/>
      <stop offset=".8" stop-color="#2b726f"/>
      <stop offset=".81" stop-color="#2a716e"/>
      <stop offset=".81" stop-color="#2a706c"/>
      <stop offset=".82" stop-color="#296f6b"/>
      <stop offset=".82" stop-color="#296e6a"/>
      <stop offset=".82" stop-color="#286c69"/>
      <stop offset=".83" stop-color="#286b68"/>
      <stop offset=".83" stop-color="#286a67"/>
      <stop offset=".84" stop-color="#286966"/>
      <stop offset=".84" stop-color="#276864"/>
      <stop offset=".84" stop-color="#276763"/>
      <stop offset=".85" stop-color="#276662"/>
      <stop offset=".85" stop-color="#266561"/>
      <stop offset=".86" stop-color="#266360"/>
      <stop offset=".86" stop-color="#25625f"/>
      <stop offset=".86" stop-color="#25615e"/>
      <stop offset=".87" stop-color="#25605c"/>
      <stop offset=".87" stop-color="#245f5b"/>
      <stop offset=".88" stop-color="#245e5a"/>
      <stop offset=".88" stop-color="#245d59"/>
      <stop offset=".88" stop-color="#235b58"/>
      <stop offset=".89" stop-color="#235a56"/>
      <stop offset=".89" stop-color="#225955"/>
      <stop offset=".89" stop-color="#225854"/>
      <stop offset=".9" stop-color="#225753"/>
      <stop offset=".9" stop-color="#225652"/>
      <stop offset=".91" stop-color="#225551"/>
      <stop offset=".91" stop-color="#215450"/>
      <stop offset=".91" stop-color="#21534f"/>
      <stop offset=".92" stop-color="#21524d"/>
      <stop offset=".92" stop-color="#20514c"/>
      <stop offset=".93" stop-color="#204f4b"/>
      <stop offset=".93" stop-color="#1f4e4a"/>
      <stop offset=".93" stop-color="#1f4d49"/>
      <stop offset=".94" stop-color="#1f4c48"/>
      <stop offset=".94" stop-color="#1f4b47"/>
      <stop offset=".95" stop-color="#1e4a46"/>
      <stop offset=".95" stop-color="#1e4944"/>
      <stop offset=".95" stop-color="#1e4843"/>
      <stop offset=".96" stop-color="#1e4742"/>
      <stop offset=".96" stop-color="#1e4641"/>
      <stop offset=".96" stop-color="#1d4540"/>
      <stop offset=".97" stop-color="#1d433f"/>
      <stop offset=".97" stop-color="#1d423d"/>
      <stop offset=".98" stop-color="#1c413c"/>
      <stop offset=".98" stop-color="#1c403b"/>
      <stop offset=".98" stop-color="#1c3f3a"/>
      <stop offset=".99" stop-color="#1c3e39"/>
      <stop offset=".99" stop-color="#1b3d38"/>
      <stop offset="1" stop-color="#1b3c37"/>
      <stop offset="1" stop-color="#1b3b36"/>
    </linearGradient>
    <linearGradient id="linear-gradient-2" x1="36.61" y1="108.66" x2="47.26" y2="108.66" xlink:href="#linear-gradient"/>
    <linearGradient id="linear-gradient-3" x1="26.54" y1="98.84" x2="32.1" y2="98.84" xlink:href="#linear-gradient"/>
    <linearGradient id="linear-gradient-4" x1="21.38" y1="111.64" x2="26.95" y2="111.64" xlink:href="#linear-gradient"/>
    <linearGradient id="linear-gradient-5" x1="48.63" y1="105.09" x2="54.19" y2="105.09" xlink:href="#linear-gradient"/>
    <linearGradient id="linear-gradient-6" x1="21.35" y1="81.34" x2="56.51" y2="81.34" xlink:href="#linear-gradient"/>
    <linearGradient id="linear-gradient-7" x1=".1" y1="75.08" x2="19.07" y2="75.08" xlink:href="#linear-gradient"/>
    <linearGradient id="linear-gradient-8" x1="0" y1="96.85" x2="154.6" y2="96.85" xlink:href="#linear-gradient"/>
  </defs>
  <g id="Elements_2" data-name="Elements 2">
    <g>
      <path class="cls-8" d="M13.56,106.73c0,1.61,1.03,2.97,2.46,3.49-.76-.53-1.27-1.42-1.27-2.42,0-1.63,1.32-2.96,2.96-2.96s2.96,1.32,2.96,2.96c0,.19-.02.37-.06.55.24-.49.38-1.03.38-1.61,0-2.06-1.67-3.72-3.72-3.72s-3.72,1.67-3.72,3.72Z"/>
      <path class="cls-1" d="M47.26,108.82c0-2.94-2.38-5.33-5.33-5.33s-5.33,2.38-5.33,5.33c0,2.31,1.48,4.25,3.53,4.99-1.09-.77-1.81-2.03-1.81-3.47,0-2.34,1.9-4.24,4.23-4.24s4.24,1.9,4.24,4.24c0,.27-.03.53-.08.79.34-.7.55-1.48.55-2.31Z"/>
      <path class="cls-3" d="M30.11,101.56c.43-.13.85-.35,1.19-.69,1.08-1.09,1.08-2.85-.01-3.94-1.09-1.08-2.85-1.08-3.94.01-.88.89-1.03,2.22-.47,3.27-.17-.72-.02-1.51.54-2.07.86-.87,2.26-.87,3.13-.01.87.86.87,2.26.01,3.13-.13.13-.3.21-.45.3Z"/>
      <path class="cls-2" d="M26.95,111.79c.03-1.54-1.2-2.81-2.73-2.83-1.54-.03-2.81,1.2-2.83,2.73-.02,1.21.73,2.24,1.8,2.64-.56-.41-.93-1.08-.92-1.83.02-1.22,1.03-2.2,2.25-2.17,1.22.02,2.2,1.03,2.17,2.25,0,.14-.02.28-.05.41.18-.36.3-.77.31-1.2Z"/>
      <path class="cls-4" d="M52.2,107.81c.43-.13.85-.35,1.19-.69,1.08-1.09,1.08-2.85-.01-3.94-1.09-1.08-2.85-1.08-3.94.01-.88.89-1.03,2.22-.47,3.27-.17-.72-.02-1.5.54-2.07.86-.87,2.26-.87,3.13-.01.87.86.87,2.26.01,3.13-.13.13-.3.21-.45.3Z"/>
      <path class="cls-7" d="M25.49,90.34c2.01.76,6.79,1.39,8.44,2.26,1.65.87,4.18,2.68,3.66,6.3,1.65-5.91-4.57-8.09-10.18-9.3-5.13-1.11-6.09-6.82-.7-8.98,2.94-1.18,7.18-2.03,11.78-2.42,4.73-.39,8.55-.95,12.27-1.96,3.65-.99,5.9-3.73,5.73-6.37-.18-2.81-2.16-4.99-6.19-5.84-2.1-.44-5.13-.36-7.18.55-2.35,1.04-2.89,2.76-2.19,4.67.55,1.5,2.68,2.16,3.79,1.89,1.37-.33,2.64-1.24,2.7-2.75,1.84-.38,3.79.02,4.74.89.96.87,1.18,2.42.03,3.43-1.89,1.66-8.85,3-15.67,3.92-4.25.57-8.55,1.27-11.42,2.87-2.43,1.35-3.93,3.49-3.75,5.58.17,2.09,1.61,4.29,4.13,5.24Z"/>
      <path class="cls-6" d="M4.97,84.55c1.73.75,4.86,1.08,6.59,1.83,1.48.64,4.41,2.12,5.32,5.74-.98-5.91-7.03-7.17-11.03-8.39-3.66-1.11-5.81-6.5-3.22-8.83,1.4-1.26,3.88-2.03,6.69-2.42,2.89-.39,5.11-1,7.16-1.96,2.34-1.1,3.11-4.4,2.23-7.08-1.09-3.31-3.43-4.81-6.43-5.3-1.54-.25-3.69-.1-4.84.86-1.19.99-1.98,2.59-1.2,4.63.62,1.62,2.05,1.91,3.39,1.68.82-.15,1.91-1,2.01-2.63,1.04-.38,2.54-.11,3.45.76.91.87,1.26,2.28.89,3.52-.64,2.16-4.42,3.04-8.46,3.95-2.52.57-5.07,1.6-6.34,3.21-1.2,1.52-1.41,3.83-.63,5.92.79,2.1,2.42,3.64,4.41,4.5Z"/>
      <path class="cls-5" d="M135.85,170.19c.31-.14.63-.27.94-.42,3.72,1.65,12.44,1.24,17.8-1.24-2.17-3.87-2.06-7.53-2.48-13.32-.41-5.78-.05-16.46-4.18-25.55-2.09-4.6-4.59-12.85-6.04-23.38-1.33-9.64-3.6-19.87-6.35-23.53-7.04-9.39-8.77-17.24-9.29-24.93-.57-8.51-1.29-11.35-6.66-17.13-2.79-3.01-7.53-4.69-12.57-4.84-.99-1.06-2.34-1.69-4.02-2.01,1.88-.33,3.46-.67,6.56,1-1.07-2.34-3.14-2.83-5.67-3.32,1.46-.7,3.43-.66,4.81.07-1.9-1.95-3.05-2.15-5.34-2.43-2.03-.25-2.81-.8-3.62-2.26.93,1.02,2.98,1.67,4.22,1.51-1.24-.73-2-1.96-2.85-3.26-.17-.26-.36-.52-.56-.77,6.76.88,13.21,2.09,15.68,3.1-5.39-5.09-11.24-8.19-17.19-9.9-.25-1.54-.62-3.08-1.02-4.3-.7-2.13-.76-2.89,1.19-2.95,1.95-.05,6.14-1.64,8.08-1.69,1.95-.05,2.53.54,3.18,2.48.64,1.95.47,2.01.05,3.72,2.07-.88,2.25-2.71,2.31-4.3.06-1.59-.46-3.78-1.82-4.31-1.36-.53-3.01-.77-5.78-1.43-2.77-.66-7.48-3.62-10.13-4.51-2.65-.89-5.55.46-7.5,2.28-1.95,1.82-4.83,5.7-5.78,8.18-.58,1.5-1.51,4.22-2.41,6.7-6.33,1.47-13.82,4.09-20.38,7.91,4.86-.48,11.76-1.41,18.55-1.89,0,.22.01.45.08.71.44,1.77.61,2.3,1.05,3.19-.58,1.37-.93,1.71-1.38,2.59-.44.88-.93,1.66-.58,2.55.5,1.28,1.18.96,1.64.12.39-.72,1.06.09,1.64.49.57.4.71.8.39,1.2-.16.2.06.79.76.98-.37.37.03,1.14.37,1.25.66.22.77.39.99,1.05.22.66.39,1.2.04,1.9-.36.71.22,1.55,1.46,1.29,1.24-.26,2.84-2.12,3.46-2.47.62-.35,1.59.36,3.18,1.6.6.47,1.08.89,1.54,1.34-.33.6-.62,1.27-.88,2.01-.23.39-.48.81-.75,1.27-4.13,6.81-4.75,16.8-8.46,17.96-6.61,2.06-10.22,1.86-14.55,2.58-.06.35-.1.73-.13,1.13-.43-.12-.9-.24-1.39-.34.85-7.41,2.58-23.11,3.38-26.59.93-4.03-1.24-4.22-3.1-6.81-1.55-2.17-5.26-.93-6.81,1.86-1.55,2.79.93,7.12,2.79,11.46,1.43,3.35.66,13.5.08,19.96-1.6.34-2.99,1.37-3.59,3.78-1.11,4.46-.87,8.87,2.19,9.12-.37,2.86-.81,6.25-1.29,9.85-.27-.05-.51-.05-.8-.11-4.13-.83-9.08,2.48-6.61,6.19,2.07,3.11,2.45,5.87,5.89,5.27-.79,5.87-1.56,11.55-2.16,15.94H8.81c-3.04,0-3.99,2.96-2.51,4.61,1.93,2.16,2.44,4.25,2.55,6.62.12,2.61-1.46,5.22-4.27,9.4-2.8,4.18-6.82,14.75-3.04,25.98,3.16,9.36,6.97,16.2,12.62,21.09-.23,1.74-.69,3.65-1.41,5.3-.71,1.63-2.12,3.3-3.25,4.12-.48.35-.24.82.28.82h4.55c.65,0,1.01-.03,1.29-.45,1.33-1.99,3.37-4.04,5.43-5.38,4.82,2.01,9.82,2.04,16.65,2.04s11.83-.03,16.65-2.04c2.07,1.34,4.1,3.39,5.43,5.38.28.42.64.45,1.29.45h4.55c.52,0,.77-.47.28-.82-1.12-.81-2.54-2.49-3.25-4.12-.73-1.66-1.18-3.56-1.41-5.3,5.65-4.89,9.46-11.74,12.62-21.09,3.79-11.23-.23-21.8-3.04-25.98-2.8-4.18-4.39-6.79-4.27-9.4.11-2.36.61-4.45,2.55-6.62,1.48-1.65.53-4.61-2.51-4.61h-7.08c.59-4.74,1.38-10.9,2.21-17.19,3.56-1.64,3.45-2.26,4.94-3.26,1.32,2.53,3.08,4.93,5.03,6.5,11.15-8.26,15.28-12.8,21.47-20.23.19-.23.39-.42.58-.64,1.71,5.09,3.64,10.2,5.2,13.85-2.89,5.78-5.78,30.96-5.78,40.05s-1.24,21.88-4.95,34.27c3.56,3.29,11.38,4.21,18.13,3.91-.01,1.7-.02,3.32,0,4.57h-.63c-.43,2.72-.7,4.92-1.66,6.24-1.36,1.85-2.71,3.1-5.3,3.25-2.34.14-4.27-.48-5.26-1.24-.81-.62-1.32-1.82-1.47-2.75-.15-.93-1.55-1.08-1.86.77-.31,1.86.35,4.18,1.35,5.42,1.22,1.51,3.29,2.78,6.23,2.94,3.6.19,7.93-.08,10.53-2.01l.31,1.63h4.76c.34-.89.57-2.12.71-3.33.15.27.3.56.48.78,1.22,1.51,3.29,2.78,6.23,2.94,3.6.19,7.93-.08,10.53-2.01l.31,1.63h4.76c.77-2.01.97-5.81.93-7.04-.08-2.4-.62-5.81-.93-7.28h-.58c-.07-2.04,0-5.71.06-7.32ZM64.28,87.35c0,.44.06.92.13,1.42-.44.03-.91,0-1.36,0,.53-3.96,1.03-7.69,1.46-10.87,1.32-.46,2.51-.99,3.65-1.52.54,3.09,1.33,6.04,2.26,8.02-2.66,1.38-4.94,2.49-6.13,2.96ZM87.4,74.14c-.92,1.11-4.81,3.53-9.2,6.02,2.11-1.63,4-3.3,6.31-5.61,1.97-1.97,3.78-4.42,5.44-6.99.16.79.35,1.63.57,2.54-1.44,1.83-2.52,3.32-3.13,4.04ZM128.74,177.59c0,2.48-.35,4.8-1.32,6.12-1.36,1.85-3.06,3.21-5.65,3.37-2.34.14-4.27-.48-5.26-1.24-.81-.62-1.32-1.82-1.47-2.75-.08-.49-.51-.75-.94-.63-.21-1.92-.53-3.91-.75-4.94h-.48c.17-1.42.52-3.61.83-5.38.51-.11.99-.23,1.43-.35,3.26,2.17,8.2,2.26,13.45.98.26,1.79.51,3.5.72,4.82h-.55Z"/>
    </g>
  </g>
</svg>