<?xml version="1.0" encoding="UTF-8"?>
<svg id="Layer_2" data-name="Layer 2" xmlns="http://www.w3.org/2000/svg" xmlns:xlink="http://www.w3.org/1999/xlink" viewBox="0 0 248.92 211.75">
  <defs>
    <style>
      .cls-1 {
        fill: none;
      }

      .cls-2 {
        clip-path: url(#clippath-1);
      }

      .cls-3 {
        clip-path: url(#clippath-2);
      }

      .cls-4 {
        fill: url(#linear-gradient);
      }

      .cls-5 {
        clip-path: url(#clippath);
      }
    </style>
    <clipPath id="clippath">
      <rect class="cls-1" width="248.92" height="211.75"/>
    </clipPath>
    <clipPath id="clippath-1">
      <path class="cls-1" d="M77.83,162.53c-.06.08-.15.12-.24.12-.05,0-.11-.01-.16-.04-.36-.2-.66-.46-.93-.71l-.22-.2c-.23-.21-.46-.42-.67-.66-.11-.12-.11-.3,0-.42.1-.13.27-.16.41-.08.79.44,1.48,1.18,1.82,1.58.1.12.1.29,0,.41ZM77.26,164.13c-.08.05-.16.08-.25.08-.05,0-.1,0-.15-.02-.44-.15-.76-.53-1.06-.86-.12-.14-.24-.27-.35-.38-.12-.12-.29-.23-.46-.35-.34-.24-.74-.5-.91-.88-.05-.12-.06-.24-.01-.35s.13-.19.25-.24c.67-.27,1.43.33,1.88.69l.05.04c.61.49,1.31,1.15,1.24,1.88-.01.16-.1.31-.23.39ZM69.6,180.04c-1.42,3.04-3.11,5.87-5.03,8.4-6.51,8.6-16.59,14.77-27.64,16.93-.02,0-.05,0-.07,0-.17,0-.31-.11-.35-.28-.04-.18.06-.36.25-.41,3.6-.92,6.47-1.86,9.03-2.93,10.23-4.31,18.52-12.1,23.34-21.95.03-.06.09-.1.15-.13.06-.02.14-.02.19,0,.11.06.17.23.12.35ZM24.6,195.25c-.91.13-1.84.19-2.74.25-.77.05-1.56.11-2.34.2h-.03c-.14,0-.26-.1-.28-.24-.02-.16.08-.3.23-.32.78-.11,1.58-.19,2.35-.26.84-.08,1.71-.16,2.55-.29,1.48-.24,3-.72,4.64-1.48,2.58-1.19,4.98-2.8,7.3-4.37l.62-.42c.15-.1.33-.07.44.08.1.14.08.33-.05.44-2.83,2.3-5.48,3.95-8.1,5.06-1.66.7-3.16,1.15-4.59,1.35ZM46.02,180.01s0,0,0,0c1.52-2.12,3.36-4.12,5.46-5.96.1-.08.3-.07.38.02.1.11.09.27-.02.38-2.21,2-3.98,3.92-5.42,5.85-.05.06-.13.09-.21.09-.05,0-.1-.01-.14-.04-.1-.08-.13-.24-.06-.34ZM199.24,40.63s.08-.01.1-.01c.11,0,.21.08.23.2.02.12-.06.24-.18.26,0,0-.01,0-.02,0-.01,0-.04,0-.06,0-.12,0-.23-.09-.24-.21-.01-.12.05-.23.17-.25ZM199.76,48.75c.08-.1.27-.1.37-.02.1.08.12.26.04.35,0,.01-.08.08-.18.08-.06,0-.12-.02-.2-.08-.05-.04-.08-.1-.09-.17,0-.06.02-.13.06-.17ZM233.01,75.5l.91-.69c1.41-1.06,2.9-2.04,4.33-2.99,2.05-1.35,4.17-2.74,6.06-4.38,1.58-1.36,3.06-2.72,3.86-4.38.38-.8.41-1.65.08-2.28-.28-.55-.81-.91-1.54-1.03-1.37-.24-2.97.81-4.13,1.57l-.2.13c-1.08.71-2.15,1.43-3.21,2.16-.73.49-1.44.97-2.17,1.46-2.61,1.74-4.95,3.39-7.18,5.04-2.43,1.8-4.41,3.38-6.2,5.24-.05.05-.12.08-.19.07-.4-.03-.78,0-1.14.07-.26.06-.49.14-.72.26-.06.03-.13.03-.19,0-.67-.27-1.44-.39-2.17-.51-.41-.07-.81-.13-1.19-.22-.24-.06-.43.02-.6.25-.56.76-1.32,1.31-2.05,1.84-.24.17-.48.35-.72.53-.27.21-.56.45-.82.71-.07.07-.18.09-.27.04-.09-.05-.14-.15-.12-.25.05-.25.09-.51.13-.76.02-.1-.01-.19-.08-.24-.06-.05-.15-.05-.24,0-1.06.5-2.25.71-3.39.91l-.17.03c-.73.13-1.46.24-2.19.36-.79.12-1.58.24-2.36.39-1.31.24-2.66.48-3.91.97-.3.12-.56.23-.78.35-.04.02-.09.03-.14.03-1.59-.18-3.45.17-5.08.98-1.46.72-2.63,1.95-3.36,3.54-.03.06-.08.11-.15.13-.07.02-.14,0-.19-.03-1.39-.97-3.76-.46-4.88,1.03-.08.1-.22.12-.32.05-.62-.43-1.53-.62-2.66-.62-1.76.02-3.55.51-5.07.98-1.81.57-3.62,1.26-5.37,2.07-.1.04-.22.02-.28-.07-.07-.08-.06-.21,0-.29,1.18-1.42,2.43-3.01,3.83-4.85,2.4-3.15,4.16-5.83,5.51-8.44,1.15-2.21,2.3-4.82,2.11-7.37-.11-1.47-.91-2.83-2.13-3.63-.06-.04-.1-.11-.1-.18s.03-.15.09-.19c.42-.34.81-.68,1.14-.98l.15-.14c.48-.43.97-.87,1.44-1.34.08-.08.2-.09.29-.03,1.69,1.12,3.88,1.61,5.87,1.3.97-.15,1.82-.51,2.48-1.05.35-.29,1.47-1.31,1.4-2.41-.06-.96-.83-1.39-1.66-1.85-.63-.35-1.29-.72-1.65-1.36-.42-.74-.18-1.3.05-1.84.1-.25.21-.5.26-.78.07-.42-.1-.81-.25-1.06-.04-.06-.04-.14-.02-.21.03-.07.08-.12.15-.14.82-.23,1.55-.43,2.1-1.11.08-.1.12-.22.1-.32-.01-.09-.07-.17-.17-.24-.77-.49-.9-1.04-.87-1.42.04-.56.47-1.1,1.12-1.4.76-.36,1.63-.29,2.25.17.48.35.89.87,1.29,1.36.58.73,1.19,1.48,1.98,1.7.37.11.67.06.91-.14.75-.62.85-2.65.74-3.78-.12-1.27-.56-2.51-1.3-3.7-.04-.06-.05-.15-.01-.22.03-.07.1-.12.18-.13l.16-.03c.16-.03.32-.05.47-.07.17-.01.36-.12.44-.26.06-.1.07-.2.03-.31-.32-.84-.78-1.27-1.34-1.24-.31.01-.57.16-.74.29-.08.06-.13.12-.19.2-.04.06-.1.09-.17.1-.06.02-.14-.02-.19-.08-.16-.17-.32-.33-.48-.49-.95-.91-2.03-1.71-3.23-2.4-.12-.07-.26-.14-.38-.2-.08-.05-.13-.13-.12-.23s.07-.17.16-.2c4.35-1.47,7.56-2.84,10.41-4.45,2.44-1.37,4.69-3.07,6.87-4.71.83-.63,1.66-1.25,2.5-1.86l.2-.15c1.04-.75,2.46-1.77,2.44-3.1-.02-.95-.67-1.66-1.37-2.29-.08-.07-.1-.18-.05-.28.04-.1.15-.15.25-.13.4.07.79.17,1.17.27.36.09.72.18,1.06.25.23.04.43-.01.56-.15.14-.14.2-.35.16-.58-.18-1.04-.21-2.12-.25-3.16-.04-1.31-.09-2.67-.42-3.98-.33-1.29-.87-2.24-1.61-2.85-.88-.72-2.04-.94-3.55-.67-.14.02-.32.2-.34.33-.33,2-2.02,3.48-3.46,4.55-1.62,1.19-3.49,2.27-6.08,3.48-3.44,1.61-7.18,2.98-11.45,4.2-1.42.41-2.58.68-3.64.87-.06,0-.12,0-.18-.04-.05-.04-.08-.1-.09-.16-.13-.86-.46-1.62-.98-2.26-.84-1.03-1.99-1.8-3.11-2.55-.24-.16-.47-.32-.71-.48-.08-.06-.12-.16-.09-.26.61-1.85.38-3.47-.7-4.8-1.04-1.28-2.54-2.15-4-2.98-.29-.17-.58-.34-.87-.51-1.29-.77-2.49-1.69-3.64-2.59-.85-.66-1.72-1.34-2.63-1.95-2.53-1.71-5.1-2.85-7.62-3.39-4.58-.97-10.16-.74-16.12.69-5.67,1.36-10.7,3.79-14.53,7.03-2.5,2.11-4.44,4.66-5.75,7.57-.54,1.2-1.01,2.44-1.47,3.65-.77,2.02-1.57,4.12-2.69,6.05-.23.4.05.62.14.68.24.16.6.16.82-.15,3.42-4.62,7.87-8.34,12.86-10.73,2.62-1.26,5.45-2.13,7.86-2.82,1.37-.39,2.83-.7,4.23-.31.86.24,1.42.72,2.03,1.23.18.15.36.31.56.46.92.72,2.05.61,3.03.42.48-.1.97-.27,1.48-.45.64-.23,1.3-.46,1.97-.54.08,0,.18.03.23.11.05.08.04.17,0,.25-.59.86-.9,1.71-.93,2.59-.01.32.3.56.59.57.47.02.95,0,1.42-.02.53-.02,1.08-.04,1.63-.01.04,0,.06,0,.1,0,.01-.03.02-.07.04-.1,0,0,0-.01.01-.02.08-.1.23-.11.33-.02.1.08.11.23.03.32h-.02s.01.01.01.01c0,.02-.03.01-.05.03,0,.03.02.06.01.08l-.02.06c-.03.1-.06.2-.08.24-.13.28-.31.54-.49.79l-.08.11c-.15.22-.06.44-.01.53.11.21.33.35.54.35.18,0,.36,0,.54,0,.76-.01,1.53-.03,2.27.17.07.02.13.07.16.14.03.07.02.15-.02.21-.27.43-.65.81-1.02,1.17s-.72.71-.96,1.1c-.11.18-.09.36-.05.47.07.19.23.35.43.41.11.04.23.08.36.11.32.1.68.21,1,.37.06.04.11.1.12.18.01.08-.02.15-.07.2-1.7,1.6-2.64,3.7-2.81,6.24,0,.11-.1.21-.21.22l-.25.02c-2.72.23-5.53.46-8.24,1.02-3.31.68-6.67,1.81-10.27,3.43-6.19,2.8-10.76,6.63-13.59,11.37-1.72,2.88-2.71,6-2.93,9.27,0,.12.03.21.1.26.1.07.27.08.41.02.07-.03.17-.09.22-.23,2.18-5.99,9.77-8.2,14.09-8.98,2.74-.5,5.33-.42,8.07-.34l1.04.03c4.11.11,8.41-.19,12.78-.88.12-.02.23.05.26.16.03.11-.02.23-.13.28-1.53.7-3.17,1.38-4.88,2.04-.02,0-.04.01-.06.01-1.77.16-3.52.26-5.3.36-1.06.06-2.18.08-3.26.1-2.59.05-5.24.1-7.71.67,1.33-.19,2.73-.24,4.15-.28.88-.01,1.77-.03,2.65-.04,1.69-.02,3.45-.04,5.17-.12l1.27-.06c.14,0,.22.08.24.19.02.11-.04.23-.15.26-.64.22-1.27.45-1.91.66-2.42.82-4.9,1.53-7.23,2.18-1.03.11-2.02.21-3.01.31-.77.08-1.54.15-2.31.23-5.59.57-9.97,1.79-13.79,3.84-.09.05-.18.1-.27.15-1.37.76-2.71,1.61-4.02,2.46,3.33-1.73,6.78-3.48,10.46-4.46,1.8-.48,3.74-.82,6.28-1.12.13-.02.23.07.26.18.02.12-.05.24-.16.27-3.25.96-7.49,2.33-11.45,4.36-4.42,2.26-7.96,5.09-10.52,8.39,1.69-1.72,3.68-3.37,5.9-4.89.02-.01.04-.02.06-.03.65-.22,1.31-.44,1.96-.67,1.53-.54,3.1-1.09,4.73-1.43,1.34-.27,2.78-.48,4.41-.61.11-.02.23.07.25.19.02.12-.06.24-.17.26-2.27.59-4.23,1.33-5.96,2.26-1.44.77-2.76,1.68-3.94,2.72,3.02-2.26,6.69-3.88,10.94-4.84,1.4-.31,2.91-.59,4.64-.83l1.67-.03c2.4-.04,4.88-.08,7.32-.21.1-.01.23.08.24.21.01.13-.07.24-.19.26-3.79.62-8.19,1.38-12.38,2.58-2.6.41-4.64,1.12-6.45,2.24-.03.04-.05.05-.09.07-2.09.9-3.94,1.89-5.65,3.02.68-.27,1.33-.56,1.98-.85,2.49-1.09,5.07-2.23,7.69-3.1.58-.2,1.17-.38,1.76-.56,2.27-.39,4.71-.63,7.48-.76.66-.03,1.31-.06,1.97-.08,1.1-.04,2.19-.08,3.29-.15.12.01.23.08.24.2.01.12-.07.24-.19.26-.88.17-1.77.33-2.65.48-1.65.3-3.35.6-5,.95-2.42.51-5.19,1.25-7.4,2.87-.04.02-.08.05-.11.08,0,.03-.02.05-.04.07,1.49-.47,3.05-.57,4.57-.66l.51-.03c.7-.05,1.4-.08,2.1-.11,1.12-.05,2.28-.11,3.42-.22,3.01-.3,5.44-.59,7.65-.92.12-.02.24.06.26.18.03.12-.04.24-.16.27-2.18.69-4.46,1.11-6.67,1.51l-.45.08c-4.36.81-9.49,1.87-14.51,3.7-8.92,3.26-17.34,8.07-25.12,12.78-2.24,1.36-4.48,2.74-6.73,4.13-13.43,8.31-27.31,16.9-42.94,20.63-10.59,2.53-21.79,1.65-32.39-2.55-.15-.06-.27-.02-.37.11-.11.16-.14.42,0,.58,2.34,2.57,5.57,4.25,8.41,5.57,2.71,1.25,5.62,2.16,8.44,3.05.65.21,1.31.41,1.96.62,11.14,3.58,26.7,1.75,26.85,1.73.13-.01.24.07.26.19.02.12-.05.24-.17.27-1.57.38-3.12.71-4.43.97-1.26.26-2.52.5-3.79.75-1.36.26-2.72.53-4.08.81-2.89.59-5.73,1.14-8.56,1.43-2.85.28-6.16.42-9.14-.69-.19-.07-.28.04-.32.14-.05.14-.05.39.19.48,6.16,2.47,13.09,2.27,19.21,2.1,3.85-.11,6.84-.49,9.41-1.2.82-.23,1.66-.55,2.47-.86,1.6-.61,3.26-1.24,4.98-1.29.1,0,.17.05.21.13.04.08.03.17-.02.24-.65.89-1.71,1.51-2.66,2.03-1.42.77-2.93,1.36-4.27,1.89-1.43.57-2.87,1.2-4.26,1.81-2.3,1.01-4.69,2.06-7.14,2.82-.23.08-.3.3-.28.47.01.08.07.32.36.32h0c9.42-.19,19.32-3.66,30.27-10.62,5.69-3.62,11.12-7.78,16.38-11.81,3.6-2.76,7.32-5.61,11.1-8.26.83-.58,1.72-1.18,2.71-1.83.1-.06.22-.05.3.04.08.08.09.2.02.3-1.34,1.87-2.63,3.84-3.87,5.74-.41.63-.82,1.25-1.23,1.88-2.13,3.23-4.53,7.1-6.12,11.31-1.02,2.71-1.83,5.37-2.39,7.9-.9,4.02-1.75,9.85,1.16,14.16.55.81,1.23,1.55,2.02,2.19.06.05.09.12.09.19s-.04.14-.1.18c-.39.25-.77.52-1.15.78-1.63,1.16-3.22,2.44-4.76,3.67l-.61.49c-1.72,1.38-3.52,2.55-5.68,3.89-.56.35-1.13.7-1.68,1.06-.06.04-.14.05-.21.03-.07-.02-.12-.08-.14-.15-.14-.42-.49-.47-.76-.42-.32.05-.59.35-.86.65-.13.14-.26.28-.38.39-.56.48-1.18.89-1.72,1.24-.81.52-1.66,1-2.48,1.47l-.16.09c-.1.06-.24.03-.31-.07-.07-.1-.05-.23.04-.31l.1-.09c1.02-.88,2.08-1.79,3.15-2.65.5-.4,1.1-.86,1.75-1.24.13-.08.27-.14.4-.2.07-.03.13-.06.19-.09.28-.15.42-.22.52-.45.02-.05.04-.1.06-.15v-.07c.05-.13.03-.24,0-.27-.37-.49-.72-.58-1.3-.35-.09.04-.18.02-.25-.04-.07-.07-.09-.16-.06-.24.01-.03.02-.07.03-.09,0-.02,0-.05,0-.08-.02-.24-.04-.38-.07-.42-.17-.25-.5-.49-.88-.37-1.12.32-2.13,1.28-3.03,2.12l-.39.36c-1.17,1.08-2.41,2.3-3.92,3.86-1.32,1.37-2.71,2.58-3.9,3.59l-.32.27c-1.44,1.22-2.92,2.49-4.04,3.99-.04.06-.1.1-.17.1-.07.02-.14-.02-.18-.07-1.02-1.06-2.76-1.39-4.03-1.36-1.78.06-3.67.52-5.98,1.47-3.66,1.51-7.32,3.76-11.21,6.89-1.97,1.59-3.78,3.42-5.54,5.18-2.21,2.22-4.49,4.51-7.11,6.38-3.06,2.17-5.62,3.95-8.06,5.59-2.45,1.64-5.4,3.48-8.71,4.69-2.1.76-4.7,1.71-7.34,2.01-3.49.4-6.83-.47-9.7-1.46,1.17,1.26,4.34,4.3,6.23,5.12.11.05.16.17.13.28-.03.11-.14.19-.26.17-1.63-.23-3.19-.54-4.66-.92-2.48-.65-4.56-1.42-6.36-2.36-.07-.05-.13-.1-.2-.16.99,1.18,2.65,2.97,3.77,3.6,1.93,1.07,4.13,1.94,6.53,2.58,1.85.5,3.81.85,5.83,1.06.12,0,.22.12.21.24,0,.12-.11.22-.23.23-3.37.07-6.31-.21-8.98-.86-.81-.2-1.6-.42-2.35-.67,2.14,1.3,5.68,3.26,8.32,3.83,2.27.49,4.53.85,6.71,1.06.12,0,.22.12.21.24,0,.13-.11.23-.23.23-.81,0-1.61,0-2.42,0-2.36-.03-6.27-.8-8.12-1.17,1.84,1.38,7.29,5.14,14.15,6.8,16.19,3.92,29.27,1.29,38.89-7.79,8.93-8.44,14.24-17.62,15.79-27.3.03-.22.06-.39.09-.52.69-3.67.01-5.67,0-5.69-.02-.05-.02-.11,0-.16.74-1.97,1.34-2.47,2.43-3.38.33-.27.7-.58,1.13-.98.03-.03.06-.05.1-.06.46-.11.92-.22,1.39-.31,3.83-.77,7.05-1.09,10.09-1.02.47.03.64-.33.64-.64,0-.34-.19-.72-.66-.73-1.08-.03-2.17-.01-3.25.05-.1.02-.23-.08-.24-.21-.01-.12.07-.24.19-.26,1.77-.3,3.36-.6,4.87-1.2.39-.15.49-.47.51-.65.04-.31-.07-.64-.28-.81-.16-.13-.36-.15-.59-.05-1.6.65-3.31,1.01-4.96,1.35l-.58.12c-.11.02-.23-.05-.27-.16-.04-.12.02-.24.13-.29l.12-.05c1.37-.57,2.78-1.17,4.2-1.67.63-.23,1.31-.46,2.01-.62.14-.03.29-.06.45-.08.41-.06.79-.12,1.04-.39.16-.18.25-.51.11-.69-.66-.9-2.21-.3-3.24.1-.12.05-.24.1-.35.14-.23.09-.46.17-.68.26-.12.05-.24,0-.3-.11-.05-.11-.01-.24.1-.31l.43-.24c1.26-.71,2.52-1.43,3.79-2.13,2.27-1.25,4.94-2.77,7.56-4.5.69-.46,1.36-.92,2.04-1.38,1.5-1.03,3.05-2.09,4.68-3.01l.35-.2c.53-.3,1.06-.6,1.59-.92.05-.03.1-.04.15-.03,2.99.42,5.73.12,7.49-.21,1-.19,2.04-.45,3.08-.79.1-.03.2,0,.26.09.06.08.06.2,0,.28-.58.74-1.16,1.48-1.75,2.21-3.15,3.86-6.78,8.38-9.88,13.1-1.27,1.93-2.51,3.93-3.72,5.87-3.96,6.37-8.05,12.95-13.72,18.15l-.77.72c-3.75,3.44-8,7.35-13.02,9.03-.28.1-.34.36-.27.58.03.08.15.35.48.25,1.27-.4,2.58-.75,3.85-1.08,2.16-.57,4.39-1.16,6.49-2.04,3.53-1.48,6.96-3.44,9.84-5.17,5.85-3.49,11.64-7.86,17.22-12.99.09-.08.22-.08.31,0,.09.07.11.2.05.3-.21.34-.42.68-.62,1.03-.13.2-.26.4-.37.58.23-.24.46-.51.69-.79,2.17-2.24,4.69-4.17,6.87-5.81l.79-.59c1.9-1.41,3.86-2.87,5.54-4.57,1.06-.68,1.94-1.14,2.94-1.3.09,0,.18.02.23.1.05.07.06.17.01.25-.57,1.05-1.57,2.12-2.97,3.19-.42.26-.8.56-1.09.79-.22.18-.03.45,0,.48.08.11.28.26.48.12.31-.21.61-.44.92-.67.38-.23.72-.34,1.04-.37.08-.01.16.03.21.1.05.06.06.15.02.22-.92,2.12-2.49,3.92-4.04,5.54-1,1.04-2.07,2.05-3.1,3.03-.76.71-1.54,1.45-2.28,2.19-.26.25-.08.49-.03.55.15.16.41.24.64.05,3.91-3.31,7.2-5.85,10.33-8,1.86-1.27,3.72-2.44,5.3-3.42.62-.38,1.24-.76,1.86-1.13l.9-.54c.27-.16.54-.32.81-.47.5-.28,1.01-.58,1.48-.91.09-.06.2-.06.28.01.08.07.1.18.06.28-.14.28-.26.57-.39.86-.26.57-.52,1.16-.84,1.72-.06.1,0,.24.07.31.08.07.15.08.23.02,1.1-.78,2.23-1.68,3.67-2.91.09-.08.21-.08.3,0,.09.07.11.19.06.29-.31.57-.61,1.15-.9,1.73-.62,1.23-1.18,2.52-1.69,3.83l-.21.54c-.31.78-.62,1.59-.81,2.4-.01.06-.06.11-.11.15s-.12.04-.18.02c-.12-.03-.23-.17-.2-.29.08-.33.13-.64.15-.95-.95.7-1.49,1.75-2.02,2.77-.74,1.41-1.4,2.89-1.95,4.41-.43,1.18-.95,2.74-1.1,4.34-.09.99,0,2.7.96,2.86.08,0,.17,0,.25-.01.08-.02.16,0,.22.06,1.04,1.01,3.26,1.23,4.42,1.24,1.06-.01,2.13-.18,3.18-.5l.3-.09c.85-.25,2.15-.63,2.47-1.35,0-.03.01-.04.03-.07.22-.33.29-.74.37-1.19l.04-.21c.02-.1.03-.21.05-.31.01-.08.07-.16.15-.19.08-.03.17-.01.23.04.55.44,1.26.75,1.82.97.94.38,1.99.65,3.1.81,2.1.3,4.29.14,6.51-.46,5.31-1.43,9.3-4.75,11.72-7.29,1.85-1.95,3.32-4.01,4.36-6.14.25-.52-.02-1-.43-1.2-.33-.16-.76-.17-1.02.31-.05.1-.16.15-.27.12-.1-.03-.18-.13-.17-.24,0-.28-.19-.57-.47-.7-.13-.06-.45-.15-.75.15-.02.02-.04.03-.06.04-.17.09-.28.23-.31.41,0,.04-.02.08-.04.1-1.51,2.01-3.91,3.36-6.95,3.92-1.43.27-2.93.31-4.34.14-.45-.06-.92-.12-1.39-.21-.06,0-.11-.04-.15-.09-.09-.13-.19-.25-.28-.38-.12-.15-.23-.29-.32-.43-.6-.9-1.1-1.65-1.69-2.38-.62-.77-1.26-1.33-1.94-1.7-.49-.26-.87-.35-1.36-.31-.07.01-.15-.03-.2-.09-.05-.06-.06-.15-.04-.22.42-1.25.83-2.45,1.24-3.57.02-.07.08-.12.15-.14.07-.02.14,0,.2.03.61.4,1.85.42,2.59.44.13,0,.24,0,.34,0,1.2.05,2.54-.05,4.06-.31,2.13-.36,4.34-1.1,6.76-2.28,2.17-1.06,3.83-2.04,5.22-3.09l.13-.1c1.1-.82,3.15-2.35,2.8-3.78-.07-.26-.27-.46-.54-.54-.07-.02-.12-.07-.15-.13-.03-.07-.03-.14,0-.2.03-.07.07-.13.09-.21.06-.19.02-.41-.09-.6-.1-.18-.26-.3-.44-.34-.37-.08-.68.01-.95.29-.05.05-.09.11-.12.17-.03.06-.08.1-.14.11-.1.03-.34.21-.47.31-.08.06-.15.11-.19.13-.36.22-.73.42-1.11.62-.76.4-1.48.71-2.19.96-1.4.49-2.77.77-4.06.8-1.33.05-2.71-.12-4.13-.49-.69-.18-1.42-.41-2.21-.68-.11-.04-.23-.09-.35-.14-.23-.09-.47-.18-.71-.24-.11-.03-.18-.12-.18-.24,0-.11.09-.21.2-.22.86-.14,1.75-.23,2.64-.26.18,0,.41-.14.43-.3.44-3.2,1.61-6.48,3.8-10.64.39-.74.79-1.48,1.2-2.22,1.05-1.54,2.04-2.93,3.05-4.27,1.04-1.38,2.12-2.75,3.18-4.08,2.67-3.37,5.43-6.86,7.57-10.71,2.33-4.19,4.36-8.97,1.71-12.62-1.56-2.13-4.2-3.4-7.25-3.47-1.75-.05-3.49.28-5.11.63-.11.02-.22-.03-.26-.13-.05-.1-.01-.22.08-.29,1.71-1.22,3.69-2.15,5.57-2.97,2.5-1.09,5.09-1.98,7.53-2.79.41-.14.82-.28,1.24-.43,1.66-.58,3.39-1.19,5.15-1.38,1.05-.12,2.34-.14,3.09.72.58.67.71,1.68.4,3.02-.22.94-.61,1.93-1.19,3.04-.96,1.21-1.76,2.52-2.53,3.78-.37.61-.75,1.22-1.15,1.83.58-.65,1.18-1.38,1.86-2.26,1.01-.89,1.87-2.03,2.53-3.34.78-.99,1.5-1.76,2.23-2.42.08-.07.15-.13.23-.2.08-.07.19-.08.28-.02.08.05.13.15.11.24-.08.36-.17.73-.27,1.06-.48,1.63-1.21,3.32-2.18,5.01,1.47-1.19,2.16-3,2.64-4.62l.04-.12c.03-.12.16-.19.28-.16s.2.16.17.28c-.19.74-.42,1.52-.69,2.39-.26.84-.58,1.65-.87,2.4-.24.56-.44,1.06-.61,1.55-.17.45-.38,1.03-.57,1.63.03.05.05.12.03.18-.1.44-.18.87-.23,1.28.44-1.88,1.08-3.62,1.94-5.28,1.2-2.32,2.65-4.65,3.81-6.53,2.03-3.27,3.84-6.56,5.37-9.75.03-.07.09-.11.15-.13,1.1-.28,2.22-.46,3.33-.53.8-.05,1.6-.02,2.38,0,.51.02,1.02.03,1.53.03,1.71-.01,5.72-.26,6.03-2.29.02-.13.14-.2.26-.2.72.09,1.3.1,1.8-.13.66-.3.9-.89.69-1.77-.01-.07,0-.14.04-.2.04-.05.11-.08.18-.09.97-.03,1.77-.12,2.48-.5.83-.44,1.18-1.17,1.03-2.16,0-.07,0-.13.05-.18.04-.05.1-.08.17-.08.92-.05,2.14-.31,2.69-1.25.3-.49.36-.97.2-1.44-.23-.65-.92-1.28-1.82-1.62-.08-.03-.14-.1-.15-.19s.03-.17.1-.22c.94-.65,1.87-1.37,2.77-2.05Z"/>
    </clipPath>
    <clipPath id="clippath-2">
      <path class="cls-1" d="M77.83,162.53c-.06.08-.15.12-.24.12-.05,0-.11-.01-.16-.04-.36-.2-.66-.46-.93-.71l-.22-.2c-.23-.21-.46-.42-.67-.66-.11-.12-.11-.3,0-.42.1-.13.27-.16.41-.08.79.44,1.48,1.18,1.82,1.58.1.12.1.29,0,.41ZM77.26,164.13c-.08.05-.16.08-.25.08-.05,0-.1,0-.15-.02-.44-.15-.76-.53-1.06-.86-.12-.14-.24-.27-.35-.38-.12-.12-.29-.23-.46-.35-.34-.24-.74-.5-.91-.88-.05-.12-.06-.24-.01-.35s.13-.19.25-.24c.67-.27,1.43.33,1.88.69l.05.04c.61.49,1.31,1.15,1.24,1.88-.01.16-.1.31-.23.39ZM69.6,180.04c-1.42,3.04-3.11,5.87-5.03,8.4-6.51,8.6-16.59,14.77-27.64,16.93-.02,0-.05,0-.07,0-.17,0-.31-.11-.35-.28-.04-.18.06-.36.25-.41,3.6-.92,6.47-1.86,9.03-2.93,10.23-4.31,18.52-12.1,23.34-21.95.03-.06.09-.1.15-.13.06-.02.14-.02.19,0,.11.06.17.23.12.35ZM24.6,195.25c-.91.13-1.84.19-2.74.25-.77.05-1.56.11-2.34.2h-.03c-.14,0-.26-.1-.28-.24-.02-.16.08-.3.23-.32.78-.11,1.58-.19,2.35-.26.84-.08,1.71-.16,2.55-.29,1.48-.24,3-.72,4.64-1.48,2.58-1.19,4.98-2.8,7.3-4.37l.62-.42c.15-.1.33-.07.44.08.1.14.08.33-.05.44-2.83,2.3-5.48,3.95-8.1,5.06-1.66.7-3.16,1.15-4.59,1.35ZM46.02,180.01s0,0,0,0c1.52-2.12,3.36-4.12,5.46-5.96.1-.08.3-.07.38.02.1.11.09.27-.02.38-2.21,2-3.98,3.92-5.42,5.85-.05.06-.13.09-.21.09-.05,0-.1-.01-.14-.04-.1-.08-.13-.24-.06-.34ZM199.24,40.63s.08-.01.1-.01c.11,0,.21.08.23.2.02.12-.06.24-.18.26,0,0-.01,0-.02,0-.01,0-.04,0-.06,0-.12,0-.23-.09-.24-.21-.01-.12.05-.23.17-.25ZM199.76,48.75c.08-.1.27-.1.37-.02.1.08.12.26.04.35,0,.01-.08.08-.18.08-.06,0-.12-.02-.2-.08-.05-.04-.08-.1-.09-.17,0-.06.02-.13.06-.17ZM233.01,75.5l.91-.69c1.41-1.06,2.9-2.04,4.33-2.99,2.05-1.35,4.17-2.74,6.06-4.38,1.58-1.36,3.06-2.72,3.86-4.38.38-.8.41-1.65.08-2.28-.28-.55-.81-.91-1.54-1.03-1.37-.24-2.97.81-4.13,1.57l-.2.13c-1.08.71-2.15,1.43-3.21,2.16-.73.49-1.44.97-2.17,1.46-2.61,1.74-4.95,3.39-7.18,5.04-2.43,1.8-4.41,3.38-6.2,5.24-.05.05-.12.08-.19.07-.4-.03-.78,0-1.14.07-.26.06-.49.14-.72.26-.06.03-.13.03-.19,0-.67-.27-1.44-.39-2.17-.51-.41-.07-.81-.13-1.19-.22-.24-.06-.43.02-.6.25-.56.76-1.32,1.31-2.05,1.84-.24.17-.48.35-.72.53-.27.21-.56.45-.82.71-.07.07-.18.09-.27.04-.09-.05-.14-.15-.12-.25.05-.25.09-.51.13-.76.02-.1-.01-.19-.08-.24-.06-.05-.15-.05-.24,0-1.06.5-2.25.71-3.39.91l-.17.03c-.73.13-1.46.24-2.19.36-.79.12-1.58.24-2.36.39-1.31.24-2.66.48-3.91.97-.3.12-.56.23-.78.35-.04.02-.09.03-.14.03-1.59-.18-3.45.17-5.08.98-1.46.72-2.63,1.95-3.36,3.54-.03.06-.08.11-.15.13-.07.02-.14,0-.19-.03-1.39-.97-3.76-.46-4.88,1.03-.08.1-.22.12-.32.05-.62-.43-1.53-.62-2.66-.62-1.76.02-3.55.51-5.07.98-1.81.57-3.62,1.26-5.37,2.07-.1.04-.22.02-.28-.07-.07-.08-.06-.21,0-.29,1.18-1.42,2.43-3.01,3.83-4.85,2.4-3.15,4.16-5.83,5.51-8.44,1.15-2.21,2.3-4.82,2.11-7.37-.11-1.47-.91-2.83-2.13-3.63-.06-.04-.1-.11-.1-.18s.03-.15.09-.19c.42-.34.81-.68,1.14-.98l.15-.14c.48-.43.97-.87,1.44-1.34.08-.08.2-.09.29-.03,1.69,1.12,3.88,1.61,5.87,1.3.97-.15,1.82-.51,2.48-1.05.35-.29,1.47-1.31,1.4-2.41-.06-.96-.83-1.39-1.66-1.85-.63-.35-1.29-.72-1.65-1.36-.42-.74-.18-1.3.05-1.84.1-.25.21-.5.26-.78.07-.42-.1-.81-.25-1.06-.04-.06-.04-.14-.02-.21.03-.07.08-.12.15-.14.82-.23,1.55-.43,2.1-1.11.08-.1.12-.22.1-.32-.01-.09-.07-.17-.17-.24-.77-.49-.9-1.04-.87-1.42.04-.56.47-1.1,1.12-1.4.76-.36,1.63-.29,2.25.17.48.35.89.87,1.29,1.36.58.73,1.19,1.48,1.98,1.7.37.11.67.06.91-.14.75-.62.85-2.65.74-3.78-.12-1.27-.56-2.51-1.3-3.7-.04-.06-.05-.15-.01-.22.03-.07.1-.12.18-.13l.16-.03c.16-.03.32-.05.47-.07.17-.01.36-.12.44-.26.06-.1.07-.2.03-.31-.32-.84-.78-1.27-1.34-1.24-.31.01-.57.16-.74.29-.08.06-.13.12-.19.2-.04.06-.1.09-.17.1-.06.02-.14-.02-.19-.08-.16-.17-.32-.33-.48-.49-.95-.91-2.03-1.71-3.23-2.4-.12-.07-.26-.14-.38-.2-.08-.05-.13-.13-.12-.23s.07-.17.16-.2c4.35-1.47,7.56-2.84,10.41-4.45,2.44-1.37,4.69-3.07,6.87-4.71.83-.63,1.66-1.25,2.5-1.86l.2-.15c1.04-.75,2.46-1.77,2.44-3.1-.02-.95-.67-1.66-1.37-2.29-.08-.07-.1-.18-.05-.28.04-.1.15-.15.25-.13.4.07.79.17,1.17.27.36.09.72.18,1.06.25.23.04.43-.01.56-.15.14-.14.2-.35.16-.58-.18-1.04-.21-2.12-.25-3.16-.04-1.31-.09-2.67-.42-3.98-.33-1.29-.87-2.24-1.61-2.85-.88-.72-2.04-.94-3.55-.67-.14.02-.32.2-.34.33-.33,2-2.02,3.48-3.46,4.55-1.62,1.19-3.49,2.27-6.08,3.48-3.44,1.61-7.18,2.98-11.45,4.2-1.42.41-2.58.68-3.64.87-.06,0-.12,0-.18-.04-.05-.04-.08-.1-.09-.16-.13-.86-.46-1.62-.98-2.26-.84-1.03-1.99-1.8-3.11-2.55-.24-.16-.47-.32-.71-.48-.08-.06-.12-.16-.09-.26.61-1.85.38-3.47-.7-4.8-1.04-1.28-2.54-2.15-4-2.98-.29-.17-.58-.34-.87-.51-1.29-.77-2.49-1.69-3.64-2.59-.85-.66-1.72-1.34-2.63-1.95-2.53-1.71-5.1-2.85-7.62-3.39-4.58-.97-10.16-.74-16.12.69-5.67,1.36-10.7,3.79-14.53,7.03-2.5,2.11-4.44,4.66-5.75,7.57-.54,1.2-1.01,2.44-1.47,3.65-.77,2.02-1.57,4.12-2.69,6.05-.23.4.05.62.14.68.24.16.6.16.82-.15,3.42-4.62,7.87-8.34,12.86-10.73,2.62-1.26,5.45-2.13,7.86-2.82,1.37-.39,2.83-.7,4.23-.31.86.24,1.42.72,2.03,1.23.18.15.36.31.56.46.92.72,2.05.61,3.03.42.48-.1.97-.27,1.48-.45.64-.23,1.3-.46,1.97-.54.08,0,.18.03.23.11.05.08.04.17,0,.25-.59.86-.9,1.71-.93,2.59-.01.32.3.56.59.57.47.02.95,0,1.42-.02.53-.02,1.08-.04,1.63-.01.04,0,.06,0,.1,0,.01-.03.02-.07.04-.1,0,0,0-.01.01-.02.08-.1.23-.11.33-.02.1.08.11.23.03.32h-.02s.01.01.01.01c0,.02-.03.01-.05.03,0,.03.02.06.01.08l-.02.06c-.03.1-.06.2-.08.24-.13.28-.31.54-.49.79l-.08.11c-.15.22-.06.44-.01.53.11.21.33.35.54.35.18,0,.36,0,.54,0,.76-.01,1.53-.03,2.27.17.07.02.13.07.16.14.03.07.02.15-.02.21-.27.43-.65.81-1.02,1.17s-.72.71-.96,1.1c-.11.18-.09.36-.05.47.07.19.23.35.43.41.11.04.23.08.36.11.32.1.68.21,1,.37.06.04.11.1.12.18.01.08-.02.15-.07.2-1.7,1.6-2.64,3.7-2.81,6.24,0,.11-.1.21-.21.22l-.25.02c-2.72.23-5.53.46-8.24,1.02-3.31.68-6.67,1.81-10.27,3.43-6.19,2.8-10.76,6.63-13.59,11.37-1.72,2.88-2.71,6-2.93,9.27,0,.12.03.21.1.26.1.07.27.08.41.02.07-.03.17-.09.22-.23,2.18-5.99,9.77-8.2,14.09-8.98,2.74-.5,5.33-.42,8.07-.34l1.04.03c4.11.11,8.41-.19,12.78-.88.12-.02.23.05.26.16.03.11-.02.23-.13.28-1.53.7-3.17,1.38-4.88,2.04-.02,0-.04.01-.06.01-1.77.16-3.52.26-5.3.36-1.06.06-2.18.08-3.26.1-2.59.05-5.24.1-7.71.67,1.33-.19,2.73-.24,4.15-.28.88-.01,1.77-.03,2.65-.04,1.69-.02,3.45-.04,5.17-.12l1.27-.06c.14,0,.22.08.24.19.02.11-.04.23-.15.26-.64.22-1.27.45-1.91.66-2.42.82-4.9,1.53-7.23,2.18-1.03.11-2.02.21-3.01.31-.77.08-1.54.15-2.31.23-5.59.57-9.97,1.79-13.79,3.84-.09.05-.18.1-.27.15-1.37.76-2.71,1.61-4.02,2.46,3.33-1.73,6.78-3.48,10.46-4.46,1.8-.48,3.74-.82,6.28-1.12.13-.02.23.07.26.18.02.12-.05.24-.16.27-3.25.96-7.49,2.33-11.45,4.36-4.42,2.26-7.96,5.09-10.52,8.39,1.69-1.72,3.68-3.37,5.9-4.89.02-.01.04-.02.06-.03.65-.22,1.31-.44,1.96-.67,1.53-.54,3.1-1.09,4.73-1.43,1.34-.27,2.78-.48,4.41-.61.11-.02.23.07.25.19.02.12-.06.24-.17.26-2.27.59-4.23,1.33-5.96,2.26-1.44.77-2.76,1.68-3.94,2.72,3.02-2.26,6.69-3.88,10.94-4.84,1.4-.31,2.91-.59,4.64-.83l1.67-.03c2.4-.04,4.88-.08,7.32-.21.1-.01.23.08.24.21.01.13-.07.24-.19.26-3.79.62-8.19,1.38-12.38,2.58-2.6.41-4.64,1.12-6.45,2.24-.03.04-.05.05-.09.07-2.09.9-3.94,1.89-5.65,3.02.68-.27,1.33-.56,1.98-.85,2.49-1.09,5.07-2.23,7.69-3.1.58-.2,1.17-.38,1.76-.56,2.27-.39,4.71-.63,7.48-.76.66-.03,1.31-.06,1.97-.08,1.1-.04,2.19-.08,3.29-.15.12.01.23.08.24.2.01.12-.07.24-.19.26-.88.17-1.77.33-2.65.48-1.65.3-3.35.6-5,.95-2.42.51-5.19,1.25-7.4,2.87-.04.02-.08.05-.11.08,0,.03-.02.05-.04.07,1.49-.47,3.05-.57,4.57-.66l.51-.03c.7-.05,1.4-.08,2.1-.11,1.12-.05,2.28-.11,3.42-.22,3.01-.3,5.44-.59,7.65-.92.12-.02.24.06.26.18.03.12-.04.24-.16.27-2.18.69-4.46,1.11-6.67,1.51l-.45.08c-4.36.81-9.49,1.87-14.51,3.7-8.92,3.26-17.34,8.07-25.12,12.78-2.24,1.36-4.48,2.74-6.73,4.13-13.43,8.31-27.31,16.9-42.94,20.63-10.59,2.53-21.79,1.65-32.39-2.55-.15-.06-.27-.02-.37.11-.11.16-.14.42,0,.58,2.34,2.57,5.57,4.25,8.41,5.57,2.71,1.25,5.62,2.16,8.44,3.05.65.21,1.31.41,1.96.62,11.14,3.58,26.7,1.75,26.85,1.73.13-.01.24.07.26.19.02.12-.05.24-.17.27-1.57.38-3.12.71-4.43.97-1.26.26-2.52.5-3.79.75-1.36.26-2.72.53-4.08.81-2.89.59-5.73,1.14-8.56,1.43-2.85.28-6.16.42-9.14-.69-.19-.07-.28.04-.32.14-.05.14-.05.39.19.48,6.16,2.47,13.09,2.27,19.21,2.1,3.85-.11,6.84-.49,9.41-1.2.82-.23,1.66-.55,2.47-.86,1.6-.61,3.26-1.24,4.98-1.29.1,0,.17.05.21.13.04.08.03.17-.02.24-.65.89-1.71,1.51-2.66,2.03-1.42.77-2.93,1.36-4.27,1.89-1.43.57-2.87,1.2-4.26,1.81-2.3,1.01-4.69,2.06-7.14,2.82-.23.08-.3.3-.28.47.01.08.07.32.36.32h0c9.42-.19,19.32-3.66,30.27-10.62,5.69-3.62,11.12-7.78,16.38-11.81,3.6-2.76,7.32-5.61,11.1-8.26.83-.58,1.72-1.18,2.71-1.83.1-.06.22-.05.3.04.08.08.09.2.02.3-1.34,1.87-2.63,3.84-3.87,5.74-.41.63-.82,1.25-1.23,1.88-2.13,3.23-4.53,7.1-6.12,11.31-1.02,2.71-1.83,5.37-2.39,7.9-.9,4.02-1.75,9.85,1.16,14.16.55.81,1.23,1.55,2.02,2.19.06.05.09.12.09.19s-.04.14-.1.18c-.39.25-.77.52-1.15.78-1.63,1.16-3.22,2.44-4.76,3.67l-.61.49c-1.72,1.38-3.52,2.55-5.68,3.89-.56.35-1.13.7-1.68,1.06-.06.04-.14.05-.21.03-.07-.02-.12-.08-.14-.15-.14-.42-.49-.47-.76-.42-.32.05-.59.35-.86.65-.13.14-.26.28-.38.39-.56.48-1.18.89-1.72,1.24-.81.52-1.66,1-2.48,1.47l-.16.09c-.1.06-.24.03-.31-.07-.07-.1-.05-.23.04-.31l.1-.09c1.02-.88,2.08-1.79,3.15-2.65.5-.4,1.1-.86,1.75-1.24.13-.08.27-.14.4-.2.07-.03.13-.06.19-.09.28-.15.42-.22.52-.45.02-.05.04-.1.06-.15v-.07c.05-.13.03-.24,0-.27-.37-.49-.72-.58-1.3-.35-.09.04-.18.02-.25-.04-.07-.07-.09-.16-.06-.24.01-.03.02-.07.03-.09,0-.02,0-.05,0-.08-.02-.24-.04-.38-.07-.42-.17-.25-.5-.49-.88-.37-1.12.32-2.13,1.28-3.03,2.12l-.39.36c-1.17,1.08-2.41,2.3-3.92,3.86-1.32,1.37-2.71,2.58-3.9,3.59l-.32.27c-1.44,1.22-2.92,2.49-4.04,3.99-.04.06-.1.1-.17.1-.07.02-.14-.02-.18-.07-1.02-1.06-2.76-1.39-4.03-1.36-1.78.06-3.67.52-5.98,1.47-3.66,1.51-7.32,3.76-11.21,6.89-1.97,1.59-3.78,3.42-5.54,5.18-2.21,2.22-4.49,4.51-7.11,6.38-3.06,2.17-5.62,3.95-8.06,5.59-2.45,1.64-5.4,3.48-8.71,4.69-2.1.76-4.7,1.71-7.34,2.01-3.49.4-6.83-.47-9.7-1.46,1.17,1.26,4.34,4.3,6.23,5.12.11.05.16.17.13.28-.03.11-.14.19-.26.17-1.63-.23-3.19-.54-4.66-.92-2.48-.65-4.56-1.42-6.36-2.36-.07-.05-.13-.1-.2-.16.99,1.18,2.65,2.97,3.77,3.6,1.93,1.07,4.13,1.94,6.53,2.58,1.85.5,3.81.85,5.83,1.06.12,0,.22.12.21.24,0,.12-.11.22-.23.23-3.37.07-6.31-.21-8.98-.86-.81-.2-1.6-.42-2.35-.67,2.14,1.3,5.68,3.26,8.32,3.83,2.27.49,4.53.85,6.71,1.06.12,0,.22.12.21.24,0,.13-.11.23-.23.23-.81,0-1.61,0-2.42,0-2.36-.03-6.27-.8-8.12-1.17,1.84,1.38,7.29,5.14,14.15,6.8,16.19,3.92,29.27,1.29,38.89-7.79,8.93-8.44,14.24-17.62,15.79-27.3.03-.22.06-.39.09-.52.69-3.67.01-5.67,0-5.69-.02-.05-.02-.11,0-.16.74-1.97,1.34-2.47,2.43-3.38.33-.27.7-.58,1.13-.98.03-.03.06-.05.1-.06.46-.11.92-.22,1.39-.31,3.83-.77,7.05-1.09,10.09-1.02.47.03.64-.33.64-.64,0-.34-.19-.72-.66-.73-1.08-.03-2.17-.01-3.25.05-.1.02-.23-.08-.24-.21-.01-.12.07-.24.19-.26,1.77-.3,3.36-.6,4.87-1.2.39-.15.49-.47.51-.65.04-.31-.07-.64-.28-.81-.16-.13-.36-.15-.59-.05-1.6.65-3.31,1.01-4.96,1.35l-.58.12c-.11.02-.23-.05-.27-.16-.04-.12.02-.24.13-.29l.12-.05c1.37-.57,2.78-1.17,4.2-1.67.63-.23,1.31-.46,2.01-.62.14-.03.29-.06.45-.08.41-.06.79-.12,1.04-.39.16-.18.25-.51.11-.69-.66-.9-2.21-.3-3.24.1-.12.05-.24.1-.35.14-.23.09-.46.17-.68.26-.12.05-.24,0-.3-.11-.05-.11-.01-.24.1-.31l.43-.24c1.26-.71,2.52-1.43,3.79-2.13,2.27-1.25,4.94-2.77,7.56-4.5.69-.46,1.36-.92,2.04-1.38,1.5-1.03,3.05-2.09,4.68-3.01l.35-.2c.53-.3,1.06-.6,1.59-.92.05-.03.1-.04.15-.03,2.99.42,5.73.12,7.49-.21,1-.19,2.04-.45,3.08-.79.1-.03.2,0,.26.09.06.08.06.2,0,.28-.58.74-1.16,1.48-1.75,2.21-3.15,3.86-6.78,8.38-9.88,13.1-1.27,1.93-2.51,3.93-3.72,5.87-3.96,6.37-8.05,12.95-13.72,18.15l-.77.72c-3.75,3.44-8,7.35-13.02,9.03-.28.1-.34.36-.27.58.03.08.15.35.48.25,1.27-.4,2.58-.75,3.85-1.08,2.16-.57,4.39-1.16,6.49-2.04,3.53-1.48,6.96-3.44,9.84-5.17,5.85-3.49,11.64-7.86,17.22-12.99.09-.08.22-.08.31,0,.09.07.11.2.05.3-.21.34-.42.68-.62,1.03-.13.2-.26.4-.37.58.23-.24.46-.51.69-.79,2.17-2.24,4.69-4.17,6.87-5.81l.79-.59c1.9-1.41,3.86-2.87,5.54-4.57,1.06-.68,1.94-1.14,2.94-1.3.09,0,.18.02.23.1.05.07.06.17.01.25-.57,1.05-1.57,2.12-2.97,3.19-.42.26-.8.56-1.09.79-.22.18-.03.45,0,.48.08.11.28.26.48.12.31-.21.61-.44.92-.67.38-.23.72-.34,1.04-.37.08-.01.16.03.21.1.05.06.06.15.02.22-.92,2.12-2.49,3.92-4.04,5.54-1,1.04-2.07,2.05-3.1,3.03-.76.71-1.54,1.45-2.28,2.19-.26.25-.08.49-.03.55.15.16.41.24.64.05,3.91-3.31,7.2-5.85,10.33-8,1.86-1.27,3.72-2.44,5.3-3.42.62-.38,1.24-.76,1.86-1.13l.9-.54c.27-.16.54-.32.81-.47.5-.28,1.01-.58,1.48-.91.09-.06.2-.06.28.01.08.07.1.18.06.28-.14.28-.26.57-.39.86-.26.57-.52,1.16-.84,1.72-.06.1,0,.24.07.31.08.07.15.08.23.02,1.1-.78,2.23-1.68,3.67-2.91.09-.08.21-.08.3,0,.09.07.11.19.06.29-.31.57-.61,1.15-.9,1.73-.62,1.23-1.18,2.52-1.69,3.83l-.21.54c-.31.78-.62,1.59-.81,2.4-.01.06-.06.11-.11.15s-.12.04-.18.02c-.12-.03-.23-.17-.2-.29.08-.33.13-.64.15-.95-.95.7-1.49,1.75-2.02,2.77-.74,1.41-1.4,2.89-1.95,4.41-.43,1.18-.95,2.74-1.1,4.34-.09.99,0,2.7.96,2.86.08,0,.17,0,.25-.01.08-.02.16,0,.22.06,1.04,1.01,3.26,1.23,4.42,1.24,1.06-.01,2.13-.18,3.18-.5l.3-.09c.85-.25,2.15-.63,2.47-1.35,0-.03.01-.04.03-.07.22-.33.29-.74.37-1.19l.04-.21c.02-.1.03-.21.05-.31.01-.08.07-.16.15-.19.08-.03.17-.01.23.04.55.44,1.26.75,1.82.97.94.38,1.99.65,3.1.81,2.1.3,4.29.14,6.51-.46,5.31-1.43,9.3-4.75,11.72-7.29,1.85-1.95,3.32-4.01,4.36-6.14.25-.52-.02-1-.43-1.2-.33-.16-.76-.17-1.02.31-.05.1-.16.15-.27.12-.1-.03-.18-.13-.17-.24,0-.28-.19-.57-.47-.7-.13-.06-.45-.15-.75.15-.02.02-.04.03-.06.04-.17.09-.28.23-.31.41,0,.04-.02.08-.04.1-1.51,2.01-3.91,3.36-6.95,3.92-1.43.27-2.93.31-4.34.14-.45-.06-.92-.12-1.39-.21-.06,0-.11-.04-.15-.09-.09-.13-.19-.25-.28-.38-.12-.15-.23-.29-.32-.43-.6-.9-1.1-1.65-1.69-2.38-.62-.77-1.26-1.33-1.94-1.7-.49-.26-.87-.35-1.36-.31-.07.01-.15-.03-.2-.09-.05-.06-.06-.15-.04-.22.42-1.25.83-2.45,1.24-3.57.02-.07.08-.12.15-.14.07-.02.14,0,.2.03.61.4,1.85.42,2.59.44.13,0,.24,0,.34,0,1.2.05,2.54-.05,4.06-.31,2.13-.36,4.34-1.1,6.76-2.28,2.17-1.06,3.83-2.04,5.22-3.09l.13-.1c1.1-.82,3.15-2.35,2.8-3.78-.07-.26-.27-.46-.54-.54-.07-.02-.12-.07-.15-.13-.03-.07-.03-.14,0-.2.03-.07.07-.13.09-.21.06-.19.02-.41-.09-.6-.1-.18-.26-.3-.44-.34-.37-.08-.68.01-.95.29-.05.05-.09.11-.12.17-.03.06-.08.1-.14.11-.1.03-.34.21-.47.31-.08.06-.15.11-.19.13-.36.22-.73.42-1.11.62-.76.4-1.48.71-2.19.96-1.4.49-2.77.77-4.06.8-1.33.05-2.71-.12-4.13-.49-.69-.18-1.42-.41-2.21-.68-.11-.04-.23-.09-.35-.14-.23-.09-.47-.18-.71-.24-.11-.03-.18-.12-.18-.24,0-.11.09-.21.2-.22.86-.14,1.75-.23,2.64-.26.18,0,.41-.14.43-.3.44-3.2,1.61-6.48,3.8-10.64.39-.74.79-1.48,1.2-2.22,1.05-1.54,2.04-2.93,3.05-4.27,1.04-1.38,2.12-2.75,3.18-4.08,2.67-3.37,5.43-6.86,7.57-10.71,2.33-4.19,4.36-8.97,1.71-12.62-1.56-2.13-4.2-3.4-7.25-3.47-1.75-.05-3.49.28-5.11.63-.11.02-.22-.03-.26-.13-.05-.1-.01-.22.08-.29,1.71-1.22,3.69-2.15,5.57-2.97,2.5-1.09,5.09-1.98,7.53-2.79.41-.14.82-.28,1.24-.43,1.66-.58,3.39-1.19,5.15-1.38,1.05-.12,2.34-.14,3.09.72.58.67.71,1.68.4,3.02-.22.94-.61,1.93-1.19,3.04-.96,1.21-1.76,2.52-2.53,3.78-.37.61-.75,1.22-1.15,1.83.58-.65,1.18-1.38,1.86-2.26,1.01-.89,1.87-2.03,2.53-3.34.78-.99,1.5-1.76,2.23-2.42.08-.07.15-.13.23-.2.08-.07.19-.08.28-.02.08.05.13.15.11.24-.08.36-.17.73-.27,1.06-.48,1.63-1.21,3.32-2.18,5.01,1.47-1.19,2.16-3,2.64-4.62l.04-.12c.03-.12.16-.19.28-.16s.2.16.17.28c-.19.74-.42,1.52-.69,2.39-.26.84-.58,1.65-.87,2.4-.24.56-.44,1.06-.61,1.55-.17.45-.38,1.03-.57,1.63.03.05.05.12.03.18-.1.44-.18.87-.23,1.28.44-1.88,1.08-3.62,1.94-5.28,1.2-2.32,2.65-4.65,3.81-6.53,2.03-3.27,3.84-6.56,5.37-9.75.03-.07.09-.11.15-.13,1.1-.28,2.22-.46,3.33-.53.8-.05,1.6-.02,2.38,0,.51.02,1.02.03,1.53.03,1.71-.01,5.72-.26,6.03-2.29.02-.13.14-.2.26-.2.72.09,1.3.1,1.8-.13.66-.3.9-.89.69-1.77-.01-.07,0-.14.04-.2.04-.05.11-.08.18-.09.97-.03,1.77-.12,2.48-.5.83-.44,1.18-1.17,1.03-2.16,0-.07,0-.13.05-.18.04-.05.1-.08.17-.08.92-.05,2.14-.31,2.69-1.25.3-.49.36-.97.2-1.44-.23-.65-.92-1.28-1.82-1.62-.08-.03-.14-.1-.15-.19s.03-.17.1-.22c.94-.65,1.87-1.37,2.77-2.05Z"/>
    </clipPath>
    <linearGradient id="linear-gradient" x1="-2947.14" y1="1036.82" x2="-2946.67" y2="1036.82" gradientTransform="translate(-465372.55 1323170.55) rotate(90) scale(448.97 -448.97)" gradientUnits="userSpaceOnUse">
      <stop offset="0" stop-color="#60c9b6"/>
      <stop offset=".02" stop-color="#60c9b6"/>
      <stop offset=".02" stop-color="#60c9b6"/>
      <stop offset=".03" stop-color="#60c9b7"/>
      <stop offset=".03" stop-color="#60c9b7"/>
      <stop offset=".04" stop-color="#60c9b7"/>
      <stop offset=".05" stop-color="#60c9b8"/>
      <stop offset=".05" stop-color="#60c9b8"/>
      <stop offset=".06" stop-color="#60c9b8"/>
      <stop offset=".07" stop-color="#60c9b9"/>
      <stop offset=".07" stop-color="#61c9b9"/>
      <stop offset=".08" stop-color="#61c9b9"/>
      <stop offset=".09" stop-color="#61c9b9"/>
      <stop offset=".09" stop-color="#61c9ba"/>
      <stop offset=".11" stop-color="#61c9ba"/>
      <stop offset=".12" stop-color="#61c9bb"/>
      <stop offset=".12" stop-color="#61c9bb"/>
      <stop offset=".13" stop-color="#61c9bc"/>
      <stop offset=".14" stop-color="#61c9bc"/>
      <stop offset=".16" stop-color="#61c9bc"/>
      <stop offset=".16" stop-color="#61cabd"/>
      <stop offset=".16" stop-color="#61cabd"/>
      <stop offset=".17" stop-color="#61cabd"/>
      <stop offset=".18" stop-color="#61cabe"/>
      <stop offset=".19" stop-color="#61cabe"/>
      <stop offset=".2" stop-color="#61cabf"/>
      <stop offset=".2" stop-color="#61cabf"/>
      <stop offset=".2" stop-color="#61cabf"/>
      <stop offset=".22" stop-color="#61cac0"/>
      <stop offset=".23" stop-color="#61cac0"/>
      <stop offset=".24" stop-color="#61cac1"/>
      <stop offset=".25" stop-color="#61cac1"/>
      <stop offset=".26" stop-color="#61cac1"/>
      <stop offset=".27" stop-color="#62cac1"/>
      <stop offset=".27" stop-color="#62cac2"/>
      <stop offset=".28" stop-color="#62cac2"/>
      <stop offset=".29" stop-color="#62cac2"/>
      <stop offset=".3" stop-color="#62cac3"/>
      <stop offset=".31" stop-color="#62cac3"/>
      <stop offset=".33" stop-color="#62cac4"/>
      <stop offset=".33" stop-color="#62cac4"/>
      <stop offset=".34" stop-color="#62cac5"/>
      <stop offset=".34" stop-color="#62cac5"/>
      <stop offset=".35" stop-color="#62cac5"/>
      <stop offset=".36" stop-color="#62cac6"/>
      <stop offset=".38" stop-color="#62cac6"/>
      <stop offset=".38" stop-color="#62cac7"/>
      <stop offset=".38" stop-color="#62cac7"/>
      <stop offset=".39" stop-color="#62cac7"/>
      <stop offset=".41" stop-color="#62cac7"/>
      <stop offset=".41" stop-color="#63cbc8"/>
      <stop offset=".42" stop-color="#63cbc8"/>
      <stop offset=".43" stop-color="#62cac8"/>
      <stop offset=".43" stop-color="#61cac7"/>
      <stop offset=".43" stop-color="#60cac7"/>
      <stop offset=".44" stop-color="#5fc9c6"/>
      <stop offset=".44" stop-color="#5fc9c5"/>
      <stop offset=".45" stop-color="#5ec9c5"/>
      <stop offset=".45" stop-color="#5dc9c4"/>
      <stop offset=".45" stop-color="#5cc8c4"/>
      <stop offset=".46" stop-color="#5bc8c3"/>
      <stop offset=".46" stop-color="#5ac8c3"/>
      <stop offset=".46" stop-color="#59c7c2"/>
      <stop offset=".47" stop-color="#58c7c2"/>
      <stop offset=".47" stop-color="#58c7c1"/>
      <stop offset=".48" stop-color="#57c6c0"/>
      <stop offset=".48" stop-color="#55c6c0"/>
      <stop offset=".48" stop-color="#54c6bf"/>
      <stop offset=".49" stop-color="#53c5bf"/>
      <stop offset=".49" stop-color="#52c5be"/>
      <stop offset=".5" stop-color="#51c5bd"/>
      <stop offset=".5" stop-color="#51c4bd"/>
      <stop offset=".5" stop-color="#50c4bc"/>
      <stop offset=".51" stop-color="#4fc4bb"/>
      <stop offset=".51" stop-color="#4ec3bb"/>
      <stop offset=".52" stop-color="#4dc3ba"/>
      <stop offset=".52" stop-color="#4cc3b9"/>
      <stop offset=".52" stop-color="#4bc2b9"/>
      <stop offset=".53" stop-color="#4ac2b8"/>
      <stop offset=".53" stop-color="#4ac1b7"/>
      <stop offset=".54" stop-color="#48c0b6"/>
      <stop offset=".54" stop-color="#47bfb5"/>
      <stop offset=".54" stop-color="#47beb4"/>
      <stop offset=".55" stop-color="#47bdb3"/>
      <stop offset=".55" stop-color="#46bcb2"/>
      <stop offset=".55" stop-color="#45bbb1"/>
      <stop offset=".56" stop-color="#45bab0"/>
      <stop offset=".56" stop-color="#44b9af"/>
      <stop offset=".57" stop-color="#44b8ae"/>
      <stop offset=".57" stop-color="#43b7ad"/>
      <stop offset=".57" stop-color="#43b5ac"/>
      <stop offset=".58" stop-color="#42b4ab"/>
      <stop offset=".58" stop-color="#42b3aa"/>
      <stop offset=".59" stop-color="#41b2a9"/>
      <stop offset=".59" stop-color="#41b1a8"/>
      <stop offset=".59" stop-color="#41afa7"/>
      <stop offset=".6" stop-color="#40aea7"/>
      <stop offset=".6" stop-color="#40ada6"/>
      <stop offset=".61" stop-color="#3faca5"/>
      <stop offset=".61" stop-color="#3faba4"/>
      <stop offset=".61" stop-color="#3fa9a3"/>
      <stop offset=".62" stop-color="#3ea8a2"/>
      <stop offset=".62" stop-color="#3ea7a1"/>
      <stop offset=".62" stop-color="#3da6a0"/>
      <stop offset=".63" stop-color="#3da59f"/>
      <stop offset=".63" stop-color="#3da49e"/>
      <stop offset=".64" stop-color="#3ca39d"/>
      <stop offset=".64" stop-color="#3ca29c"/>
      <stop offset=".64" stop-color="#3ba09b"/>
      <stop offset=".65" stop-color="#3b9f99"/>
      <stop offset=".65" stop-color="#3a9e98"/>
      <stop offset=".66" stop-color="#399d97"/>
      <stop offset=".66" stop-color="#399c97"/>
      <stop offset=".66" stop-color="#399b96"/>
      <stop offset=".67" stop-color="#389994"/>
      <stop offset=".67" stop-color="#389893"/>
      <stop offset=".68" stop-color="#379792"/>
      <stop offset=".68" stop-color="#379691"/>
      <stop offset=".68" stop-color="#369590"/>
      <stop offset=".69" stop-color="#36948f"/>
      <stop offset=".69" stop-color="#36938e"/>
      <stop offset=".7" stop-color="#35928d"/>
      <stop offset=".7" stop-color="#35918c"/>
      <stop offset=".7" stop-color="#358f8b"/>
      <stop offset=".71" stop-color="#348e8a"/>
      <stop offset=".71" stop-color="#348d88"/>
      <stop offset=".71" stop-color="#338c87"/>
      <stop offset=".72" stop-color="#338b86"/>
      <stop offset=".72" stop-color="#338985"/>
      <stop offset=".73" stop-color="#328883"/>
      <stop offset=".73" stop-color="#328782"/>
      <stop offset=".73" stop-color="#318681"/>
      <stop offset=".74" stop-color="#318480"/>
      <stop offset=".74" stop-color="#30837f"/>
      <stop offset=".75" stop-color="#30827e"/>
      <stop offset=".75" stop-color="#2f817d"/>
      <stop offset=".75" stop-color="#2f807c"/>
      <stop offset=".76" stop-color="#2e7f7b"/>
      <stop offset=".76" stop-color="#2e7d7a"/>
      <stop offset=".77" stop-color="#2d7c78"/>
      <stop offset=".77" stop-color="#2d7b77"/>
      <stop offset=".77" stop-color="#2d7a76"/>
      <stop offset=".78" stop-color="#2d7975"/>
      <stop offset=".78" stop-color="#2c7774"/>
      <stop offset=".79" stop-color="#2c7673"/>
      <stop offset=".79" stop-color="#2c7571"/>
      <stop offset=".79" stop-color="#2b7470"/>
      <stop offset=".8" stop-color="#2b736f"/>
      <stop offset=".8" stop-color="#2a716e"/>
      <stop offset=".8" stop-color="#2a706d"/>
      <stop offset=".81" stop-color="#296f6b"/>
      <stop offset=".81" stop-color="#296e6a"/>
      <stop offset=".82" stop-color="#286c69"/>
      <stop offset=".82" stop-color="#286b68"/>
      <stop offset=".82" stop-color="#286a67"/>
      <stop offset=".83" stop-color="#286966"/>
      <stop offset=".83" stop-color="#276864"/>
      <stop offset=".84" stop-color="#276763"/>
      <stop offset=".84" stop-color="#276662"/>
      <stop offset=".84" stop-color="#266561"/>
      <stop offset=".85" stop-color="#266360"/>
      <stop offset=".85" stop-color="#25625f"/>
      <stop offset=".86" stop-color="#25615e"/>
      <stop offset=".86" stop-color="#24605c"/>
      <stop offset=".86" stop-color="#245f5b"/>
      <stop offset=".87" stop-color="#245e5a"/>
      <stop offset=".87" stop-color="#245c59"/>
      <stop offset=".88" stop-color="#235b57"/>
      <stop offset=".88" stop-color="#235a56"/>
      <stop offset=".88" stop-color="#225955"/>
      <stop offset=".89" stop-color="#225854"/>
      <stop offset=".89" stop-color="#225753"/>
      <stop offset=".89" stop-color="#225652"/>
      <stop offset=".9" stop-color="#215551"/>
      <stop offset=".9" stop-color="#215450"/>
      <stop offset=".91" stop-color="#21534e"/>
      <stop offset=".91" stop-color="#21514d"/>
      <stop offset=".91" stop-color="#20504c"/>
      <stop offset=".92" stop-color="#204f4b"/>
      <stop offset=".92" stop-color="#1f4e4a"/>
      <stop offset=".93" stop-color="#1f4d48"/>
      <stop offset=".93" stop-color="#1f4c47"/>
      <stop offset=".93" stop-color="#1f4b46"/>
      <stop offset=".94" stop-color="#1e4a45"/>
      <stop offset=".94" stop-color="#1e4944"/>
      <stop offset=".95" stop-color="#1e4843"/>
      <stop offset=".95" stop-color="#1e4742"/>
      <stop offset=".95" stop-color="#1e4541"/>
      <stop offset=".96" stop-color="#1d443f"/>
      <stop offset=".96" stop-color="#1d433e"/>
      <stop offset=".96" stop-color="#1d423d"/>
      <stop offset=".97" stop-color="#1c413c"/>
      <stop offset=".97" stop-color="#1c403b"/>
      <stop offset=".98" stop-color="#1c3f3a"/>
      <stop offset=".98" stop-color="#1c3e39"/>
      <stop offset=".98" stop-color="#1b3c37"/>
      <stop offset=".99" stop-color="#1b3c37"/>
      <stop offset=".99" stop-color="#1b3b36"/>
      <stop offset="1" stop-color="#1b3b36"/>
    </linearGradient>
  </defs>
  <g id="Elements">
    <g class="cls-5">
      <g class="cls-2">
        <g class="cls-3">
          <path class="cls-4" d="M248.58-.11H.31v213.81h248.27V-.11Z"/>
        </g>
      </g>
    </g>
  </g>
</svg>