<?xml version="1.0" encoding="UTF-8"?>
<svg id="Layer_2" data-name="Layer 2" xmlns="http://www.w3.org/2000/svg" xmlns:xlink="http://www.w3.org/1999/xlink" viewBox="0 0 166.67 162.82">
  <defs>
    <style>
      .cls-1 {
        fill: url(#linear-gradient-2);
      }

      .cls-2 {
        fill: url(#linear-gradient);
      }
    </style>
    <linearGradient id="linear-gradient" x1="0" y1="81.35" x2="79.84" y2="81.35" gradientUnits="userSpaceOnUse">
      <stop offset="0" stop-color="#60c9b6"/>
      <stop offset=".02" stop-color="#60c9b6"/>
      <stop offset=".02" stop-color="#60c9b6"/>
      <stop offset=".03" stop-color="#60c9b7"/>
      <stop offset=".04" stop-color="#60c9b7"/>
      <stop offset=".05" stop-color="#60c9b7"/>
      <stop offset=".05" stop-color="#60c9b8"/>
      <stop offset=".06" stop-color="#60c9b8"/>
      <stop offset=".07" stop-color="#60c9b9"/>
      <stop offset=".08" stop-color="#61c9b9"/>
      <stop offset=".09" stop-color="#61c9b9"/>
      <stop offset=".09" stop-color="#61c9ba"/>
      <stop offset=".11" stop-color="#61c9ba"/>
      <stop offset=".12" stop-color="#61c9bb"/>
      <stop offset=".12" stop-color="#61c9bb"/>
      <stop offset=".13" stop-color="#61c9bc"/>
      <stop offset=".14" stop-color="#61c9bc"/>
      <stop offset=".16" stop-color="#61c9bc"/>
      <stop offset=".16" stop-color="#61cabd"/>
      <stop offset=".17" stop-color="#61cabd"/>
      <stop offset=".18" stop-color="#61cabe"/>
      <stop offset=".18" stop-color="#61cabe"/>
      <stop offset=".19" stop-color="#61cabe"/>
      <stop offset=".2" stop-color="#61cabe"/>
      <stop offset=".2" stop-color="#61cabf"/>
      <stop offset=".22" stop-color="#61cabf"/>
      <stop offset=".22" stop-color="#61cac0"/>
      <stop offset=".23" stop-color="#61cac0"/>
      <stop offset=".23" stop-color="#61cac0"/>
      <stop offset=".24" stop-color="#61cac0"/>
      <stop offset=".25" stop-color="#61cac1"/>
      <stop offset=".26" stop-color="#61cac1"/>
      <stop offset=".26" stop-color="#62cac1"/>
      <stop offset=".27" stop-color="#62cac2"/>
      <stop offset=".27" stop-color="#62cac2"/>
      <stop offset=".28" stop-color="#62cac2"/>
      <stop offset=".3" stop-color="#62cac3"/>
      <stop offset=".31" stop-color="#62cac3"/>
      <stop offset=".33" stop-color="#62cac4"/>
      <stop offset=".34" stop-color="#62cac4"/>
      <stop offset=".34" stop-color="#62cac5"/>
      <stop offset=".35" stop-color="#62cac5"/>
      <stop offset=".36" stop-color="#62cac6"/>
      <stop offset=".38" stop-color="#62cac6"/>
      <stop offset=".38" stop-color="#62cac7"/>
      <stop offset=".39" stop-color="#62cac7"/>
      <stop offset=".41" stop-color="#62cac7"/>
      <stop offset=".41" stop-color="#63cbc7"/>
      <stop offset=".42" stop-color="#63cbc8"/>
      <stop offset=".43" stop-color="#63cbc8"/>
      <stop offset=".43" stop-color="#61cac7"/>
      <stop offset=".44" stop-color="#60cac7"/>
      <stop offset=".44" stop-color="#60c9c6"/>
      <stop offset=".45" stop-color="#5fc9c5"/>
      <stop offset=".45" stop-color="#5ec9c5"/>
      <stop offset=".45" stop-color="#5dc9c4"/>
      <stop offset=".46" stop-color="#5cc8c4"/>
      <stop offset=".46" stop-color="#5bc8c4"/>
      <stop offset=".46" stop-color="#5ac8c3"/>
      <stop offset=".47" stop-color="#5ac7c2"/>
      <stop offset=".47" stop-color="#59c7c2"/>
      <stop offset=".48" stop-color="#58c7c1"/>
      <stop offset=".48" stop-color="#57c6c1"/>
      <stop offset=".48" stop-color="#56c6c0"/>
      <stop offset=".49" stop-color="#55c6bf"/>
      <stop offset=".49" stop-color="#53c5bf"/>
      <stop offset=".5" stop-color="#53c5be"/>
      <stop offset=".5" stop-color="#52c5be"/>
      <stop offset=".5" stop-color="#51c4bd"/>
      <stop offset=".51" stop-color="#50c4bc"/>
      <stop offset=".51" stop-color="#4fc4bb"/>
      <stop offset=".52" stop-color="#4ec3bb"/>
      <stop offset=".52" stop-color="#4dc3ba"/>
      <stop offset=".52" stop-color="#4dc3ba"/>
      <stop offset=".53" stop-color="#4cc3b9"/>
      <stop offset=".53" stop-color="#4bc2b8"/>
      <stop offset=".54" stop-color="#4ac1b7"/>
      <stop offset=".54" stop-color="#49c1b7"/>
      <stop offset=".54" stop-color="#48c0b6"/>
      <stop offset=".55" stop-color="#47beb5"/>
      <stop offset=".55" stop-color="#47bdb3"/>
      <stop offset=".55" stop-color="#46bdb2"/>
      <stop offset=".56" stop-color="#46bbb1"/>
      <stop offset=".56" stop-color="#45bab0"/>
      <stop offset=".57" stop-color="#44b9b0"/>
      <stop offset=".57" stop-color="#44b8af"/>
      <stop offset=".57" stop-color="#43b7ae"/>
      <stop offset=".58" stop-color="#43b6ad"/>
      <stop offset=".58" stop-color="#43b5ac"/>
      <stop offset=".59" stop-color="#42b4ab"/>
      <stop offset=".59" stop-color="#42b2aa"/>
      <stop offset=".59" stop-color="#41b1a9"/>
      <stop offset=".6" stop-color="#41b0a8"/>
      <stop offset=".6" stop-color="#41afa7"/>
      <stop offset=".61" stop-color="#40aea6"/>
      <stop offset=".61" stop-color="#40aca6"/>
      <stop offset=".61" stop-color="#3faba5"/>
      <stop offset=".62" stop-color="#3faaa4"/>
      <stop offset=".62" stop-color="#3ea9a2"/>
      <stop offset=".62" stop-color="#3ea7a1"/>
      <stop offset=".63" stop-color="#3da6a0"/>
      <stop offset=".63" stop-color="#3da59f"/>
      <stop offset=".64" stop-color="#3da49e"/>
      <stop offset=".64" stop-color="#3da49d"/>
      <stop offset=".64" stop-color="#3ca29c"/>
      <stop offset=".65" stop-color="#3ca19b"/>
      <stop offset=".65" stop-color="#3ba09a"/>
      <stop offset=".66" stop-color="#3a9f99"/>
      <stop offset=".66" stop-color="#3a9d98"/>
      <stop offset=".66" stop-color="#399c97"/>
      <stop offset=".67" stop-color="#399b96"/>
      <stop offset=".67" stop-color="#399a95"/>
      <stop offset=".68" stop-color="#389994"/>
      <stop offset=".68" stop-color="#379893"/>
      <stop offset=".68" stop-color="#379792"/>
      <stop offset=".69" stop-color="#379590"/>
      <stop offset=".69" stop-color="#36948f"/>
      <stop offset=".7" stop-color="#36948e"/>
      <stop offset=".7" stop-color="#36938e"/>
      <stop offset=".7" stop-color="#35918d"/>
      <stop offset=".71" stop-color="#35908c"/>
      <stop offset=".71" stop-color="#348f8b"/>
      <stop offset=".71" stop-color="#348e89"/>
      <stop offset=".72" stop-color="#348d88"/>
      <stop offset=".72" stop-color="#338b87"/>
      <stop offset=".73" stop-color="#338a86"/>
      <stop offset=".73" stop-color="#338985"/>
      <stop offset=".73" stop-color="#328783"/>
      <stop offset=".74" stop-color="#328682"/>
      <stop offset=".74" stop-color="#318581"/>
      <stop offset=".75" stop-color="#318480"/>
      <stop offset=".75" stop-color="#30837f"/>
      <stop offset=".75" stop-color="#30827e"/>
      <stop offset=".76" stop-color="#2f817d"/>
      <stop offset=".76" stop-color="#2f807c"/>
      <stop offset=".77" stop-color="#2e7e7b"/>
      <stop offset=".77" stop-color="#2e7d79"/>
      <stop offset=".77" stop-color="#2d7c78"/>
      <stop offset=".78" stop-color="#2d7b77"/>
      <stop offset=".78" stop-color="#2d7a76"/>
      <stop offset=".79" stop-color="#2d7875"/>
      <stop offset=".79" stop-color="#2c7774"/>
      <stop offset=".79" stop-color="#2c7673"/>
      <stop offset=".8" stop-color="#2b7571"/>
      <stop offset=".8" stop-color="#2b7470"/>
      <stop offset=".8" stop-color="#2b726f"/>
      <stop offset=".81" stop-color="#2a716e"/>
      <stop offset=".81" stop-color="#2a706c"/>
      <stop offset=".82" stop-color="#296f6b"/>
      <stop offset=".82" stop-color="#296e6a"/>
      <stop offset=".82" stop-color="#286c69"/>
      <stop offset=".83" stop-color="#286b68"/>
      <stop offset=".83" stop-color="#286a67"/>
      <stop offset=".84" stop-color="#286966"/>
      <stop offset=".84" stop-color="#276864"/>
      <stop offset=".84" stop-color="#276763"/>
      <stop offset=".85" stop-color="#276662"/>
      <stop offset=".85" stop-color="#266561"/>
      <stop offset=".86" stop-color="#266360"/>
      <stop offset=".86" stop-color="#25625f"/>
      <stop offset=".86" stop-color="#25615e"/>
      <stop offset=".87" stop-color="#25605c"/>
      <stop offset=".87" stop-color="#245f5b"/>
      <stop offset=".88" stop-color="#245e5a"/>
      <stop offset=".88" stop-color="#245d59"/>
      <stop offset=".88" stop-color="#235b58"/>
      <stop offset=".89" stop-color="#235a56"/>
      <stop offset=".89" stop-color="#225955"/>
      <stop offset=".89" stop-color="#225854"/>
      <stop offset=".9" stop-color="#225753"/>
      <stop offset=".9" stop-color="#225652"/>
      <stop offset=".91" stop-color="#225551"/>
      <stop offset=".91" stop-color="#215450"/>
      <stop offset=".91" stop-color="#21534f"/>
      <stop offset=".92" stop-color="#21524d"/>
      <stop offset=".92" stop-color="#20514c"/>
      <stop offset=".93" stop-color="#204f4b"/>
      <stop offset=".93" stop-color="#1f4e4a"/>
      <stop offset=".93" stop-color="#1f4d49"/>
      <stop offset=".94" stop-color="#1f4c48"/>
      <stop offset=".94" stop-color="#1f4b47"/>
      <stop offset=".95" stop-color="#1e4a46"/>
      <stop offset=".95" stop-color="#1e4944"/>
      <stop offset=".95" stop-color="#1e4843"/>
      <stop offset=".96" stop-color="#1e4742"/>
      <stop offset=".96" stop-color="#1e4641"/>
      <stop offset=".96" stop-color="#1d4540"/>
      <stop offset=".97" stop-color="#1d433f"/>
      <stop offset=".97" stop-color="#1d423d"/>
      <stop offset=".98" stop-color="#1c413c"/>
      <stop offset=".98" stop-color="#1c403b"/>
      <stop offset=".98" stop-color="#1c3f3a"/>
      <stop offset=".99" stop-color="#1c3e39"/>
      <stop offset=".99" stop-color="#1b3d38"/>
      <stop offset="1" stop-color="#1b3c37"/>
      <stop offset="1" stop-color="#1b3b36"/>
    </linearGradient>
    <linearGradient id="linear-gradient-2" x1="86.73" y1="81.47" x2="166.67" y2="81.47" xlink:href="#linear-gradient"/>
  </defs>
  <g id="Elements_2" data-name="Elements 2">
    <g>
      <path class="cls-2" d="M79.84,22.24l-3.82-22.24-3.82,22.24h2.37v9.24c-3.95.06-7.85.34-11.68.84v-9.02s2.36,0,2.36,0l-3.82-22.24-3.82,22.24h2.38v9.41c-3.91.62-7.74,1.49-11.5,2.55v-8.73s2.36,0,2.36,0l-3.82-22.24-3.82,22.24h2.38v9.57c-3.94,1.24-7.77,2.73-11.5,4.43v-8.36s2.36,0,2.36,0l-3.82-22.24-3.82,22.24h2.38v9.7c-3.98,1.97-7.82,4.22-11.5,6.69v-7.83s2.36,0,2.36,0l-3.82-22.24-3.82,22.24h2.38v9.83c-4.06,2.94-7.91,6.17-11.5,9.67v-6.98s2.36,0,2.36,0l-3.82-22.24L0,53.25h2.38l.18,109.44h2.89v-5.81s11.5,0,11.5,0v5.81h2.9v-5.81s11.5,0,11.5,0v5.81h2.9v-5.81s11.5,0,11.5,0v5.81h2.9v-5.81s11.5,0,11.5,0v5.81h2.9v-5.81s11.51,0,11.51,0v5.81h2.89V22.24h2.37ZM74.57,35.22v55.71h-11.6l-.07-54.84c3.83-.51,7.72-.81,11.67-.87ZM5.34,97.15h11.52v2.33s-11.52,0-11.52,0v-2.33ZM19.76,97.15h11.52v2.33s-11.51,0-11.51,0v-2.33ZM34.17,97.15h11.52v2.33s-11.51,0-11.51,0v-2.33ZM48.57,97.15h11.51v2.33s-11.51,0-11.51,0v-2.33ZM62.98,97.15h11.6v2.33h-11.59v-2.33ZM60.01,36.5l.07,54.43h-11.51l-.07-51.79c3.75-1.1,7.59-1.99,11.51-2.64ZM45.61,40.02l.07,50.91h-11.52l-.06-46.29c3.72-1.77,7.56-3.32,11.51-4.62ZM31.2,46.07l.06,44.86h-11.52l-.06-37.87c3.66-2.59,7.51-4.92,11.51-6.99ZM5.62,65.15c3.46-3.6,7.21-6.93,11.19-9.96l.05,35.75H5.33l-.04-25.34.33-.45ZM5.43,152.07l-.08-46.2h11.52l.07,46.2H5.43ZM19.84,152.07l-.07-46.2h11.51l.06,46.2h-11.51ZM34.24,152.07l-.06-46.2h11.51l.06,46.2h-11.51ZM48.65,152.07l-.06-46.2h11.51l.06,46.2h-11.51ZM63.05,152.07l-.06-46.2h11.58v46.2h-11.53Z"/>
      <path class="cls-1" d="M166.67,53.13l-3.89-22.23-3.75,22.25h2.38s.01,6.98.01,6.98c-3.6-3.49-7.46-6.71-11.55-9.63l-.02-9.84h2.37s-3.89-22.23-3.89-22.23l-3.75,22.25h2.38s.01,7.82.01,7.82c-3.69-2.45-7.53-4.69-11.53-6.65l-.02-9.7h2.37s-3.89-22.23-3.89-22.23l-3.75,22.25h2.38s.01,8.35.01,8.35c-3.73-1.68-7.57-3.16-11.53-4.39l-.02-9.57h2.37s-3.89-22.23-3.89-22.23l-3.75,22.25h2.38s.02,8.72.02,8.72c-3.76-1.05-7.6-1.9-11.52-2.51l-.02-9.41h2.37s-3.89-22.23-3.89-22.23l-3.75,22.25h2.38s.02,9.01.02,9.01c-3.83-.48-7.73-.76-11.68-.8l-.03-9.25h2.37S90.48.12,90.48.12l-3.75,22.25h2.38s.44,140.45.44,140.45h2.89s-.02-5.82-.02-5.82l11.52-.04v5.81s2.9,0,2.9,0v-5.81s11.5-.04,11.5-.04v5.81s2.9,0,2.9,0v-5.81s11.5-.04,11.5-.04v5.81s2.9,0,2.9,0v-5.81s11.5-.04,11.5-.04v5.81s2.9,0,2.9,0v-5.8s11.5-.04,11.5-.04v5.8s2.9,0,2.9,0l-.16-109.44h2.37ZM106.73,97.21l11.51-.04v2.33s-11.51.04-11.51.04v-2.33ZM103.84,99.56l-11.59.04v-2.33s11.59-.04,11.59-.04v2.33ZM121.13,97.17l11.52-.04v2.33s-11.51.04-11.51.04v-2.33ZM135.54,97.13l11.52-.04v2.33s-11.51.04-11.51.04v-2.33ZM149.95,97.08l11.52-.04v2.33s-11.52.04-11.52.04v-2.33ZM161.09,65.04l.33.38.04,25.4-11.52.04-.06-35.74c3.98,3.02,7.74,6.33,11.21,9.92ZM146.98,53l.06,37.87-11.52.04-.08-44.85c4.01,2.06,7.87,4.38,11.53,6.95ZM132.55,44.62l.08,46.29-11.52.04-.09-50.91c3.96,1.28,7.8,2.82,11.53,4.58ZM118.13,39.17l.09,51.79-11.51.04-.1-54.42c3.92.63,7.76,1.52,11.52,2.6ZM103.72,36.16l.1,54.84-11.6.04-.17-55.71c3.95.05,7.85.33,11.68.83ZM92.41,152.17l-.14-46.2,11.58-.04.09,46.2-11.53.04ZM106.83,152.13l-.08-46.2,11.51-.04.08,46.2-11.51.04ZM121.23,152.09l-.08-46.2,11.51-.04.08,46.2-11.51.04ZM135.63,152.04l-.08-46.2,11.51-.04.08,46.2-11.51.04ZM150.04,152l-.08-46.2,11.52-.04.07,46.2-11.51.04Z"/>
    </g>
  </g>
</svg>