<?xml version="1.0" encoding="UTF-8"?>
<svg id="Layer_2" data-name="Layer 2" xmlns="http://www.w3.org/2000/svg" xmlns:xlink="http://www.w3.org/1999/xlink" viewBox="0 0 234.39 390.12">
  <defs>
    <style>
      .cls-1 {
        fill: none;
      }

      .cls-2 {
        clip-path: url(#clippath-1);
      }

      .cls-3 {
        clip-path: url(#clippath-2);
      }

      .cls-4 {
        fill: url(#linear-gradient);
      }

      .cls-5 {
        clip-path: url(#clippath);
      }
    </style>
    <clipPath id="clippath">
      <rect class="cls-1" x="2.14" y=".61" width="230.31" height="389.46"/>
    </clipPath>
    <clipPath id="clippath-1">
      <path class="cls-1" d="M129.1,349.06c-.72-.31-1.45-.64-2.16-.97,1.54.62,3.09,1.21,4.64,1.77,5.76,2.07,11.53,4.22,17.37,6.13-6.73-1.99-13.4-4.18-19.85-6.94ZM47,207.26c.31-1.67.61-3.35.88-5.04.23-1.39.46-2.79.67-4.18.53-.82,1.06-1.66,1.58-2.48-1.21,3.85-2.22,7.76-3.12,11.7ZM110.05,79.19c1.92.85,3.58,2.41,5.04,3.88,3.8,3.83,6.14,9.05,5.61,14.55-.28,3-1.38,6.14-3.59,8.27-1.43,1.39-3.4,2.27-5.16.94-5.26-3.98-.73-11.22-.27-16.22.26-2.8-.7-5.06-1.84-7.54-.38-.84-1.29-2.47-1.71-3.99.49-.28,1-.29,1.91.11ZM127.77,49.01c1.39,3.59,1.18,7.35-.85,10.63-1.67,2.71-4.4,5.07-7.57,5.73-8.65,1.82-11.83-10.11-14.63-15.9-1.85-3.83-4.87-7.12-6.22-11.17-.97-2.89-.43-5.44.83-7.84,3.3-.06,6.64.85,9.68,2.04,7.51,2.95,15.77,8.73,18.77,16.5ZM71.7,49.93c.81-4.03,2.39-7.96,4.86-11.24,1.67-2.22,3.7-3.77,6.03-4.94.67.12,1.32.32,1.89.72.88.62,1.06,1.71,1.14,2.71.25,2.97-.4,5.96-.34,8.93.07,3.48,1.63,5.96,3.2,8.97,1.53,2.94,2.95,6.15,2.49,9.55-.45,3.34-2.36,7.83-5.95,8.73-3.37.85-6.93-1.3-9.21-3.59-5.08-5.09-5.47-13.15-4.12-19.83ZM223.76,389.31c-.75-1.78-1.58-3.53-2.48-5.23-4.32-18.17-25.52-24.69-41.6-30.06-8.71-2.91-16.88-6.19-24.19-11.87-7.17-5.58-13.18-12.5-18.12-20.1-2.07-3.18-3.96-6.5-5.67-9.91,1.83,2.73,3.84,5.35,6.07,7.79,5.99,6.56,13.21,11.73,21.11,15.74,5.16,2.61,10.6,4.57,15.92,6.82,2.68,1.12,5.35,2.31,7.99,3.53,2.77,1.27,5.49,2.74,8.36,3.76.49.16.95-.47.49-.82-3.92-3.01-8.57-5.29-12.91-7.64-4.4-2.4-8.89-4.5-13.47-6.52-8.07-3.55-15.67-8.14-22.05-14.28-6.36-6.13-11.28-13.6-15.09-21.54-1.92-4-3.71-8.11-5.19-12.32-1.09-5.54-1.71-11.16-1.79-16.77-.13-9.36,1.44-18.42,5.51-26.9,4.51-9.41,11.02-17.66,16.99-26.17,6.38-9.09,11.76-18.84,16.76-28.74.79-1.57,1.56-3.14,2.33-4.72-.38,1.47-.77,2.94-1.17,4.4-3.5,12.78-7.83,25.15-14.67,36.55-3.96,6.6-6.54,13.5-8.4,20.93-.16.62.77.84,1.03.31,2.9-6,5.46-12.22,8.73-18.03.07-.14.15-.27.23-.4,1.55-2.11,2.79-4.5,4.12-6.72,1.67-2.79,3.4-5.53,5.09-8.31,3.38-5.54,7-10.95,10.89-16.16,7.79-10.45,16.89-19.8,24.39-30.47,1.75-2.49,3.38-5.05,4.92-7.68-.68,2.87-1.43,5.75-2.54,8.51-1.47,3.69-3.8,6.91-6.37,9.9-1.31,1.52-2.65,3.04-3.92,4.59-1.15,1.41-2.51,2.98-3.14,4.71-.13.37.25.67.57.47.18-.11.36-.22.53-.35.1.23.42.38.63.2,5.9-5.35,13.11-9.59,17.9-16.06.75-1.02,1.42-2.09,2.02-3.19-.08.28-.14.57-.22.85-1.41,5.21-3.2,10.35-5.46,15.25-4.43,9.62-10.98,18.05-18.41,25.57-3.58,3.62-8.11,7.71-9.08,12.96-.08.41.5.69.76.34,1.47-2.03,2.88-4.02,4.64-5.83,1.77-1.81,3.65-3.54,5.47-5.31.2-.2.41-.4.61-.6,16.13-9.91,29.49-24.84,38.47-41.38,9.57-17.61,14.02-38.15,10.67-58.07-.98-5.86-3.5-16.37-11.66-14.22-3.99,1.05-7.04,4.36-9.9,7.13-2.65,2.59-5.66,5.82-9.39,6.75-4.47,1.12-8.02-2.65-10.16-6.1-2.91-4.67-4.44-10.16-6.1-15.36-3.89-12.22-9.92-23.83-16.87-34.58-11.89-18.43-28.37-35.28-47.99-45.42-9.25-4.78-20.44-8.5-30.98-7.33-11.75,1.31-20.03,10.69-23.96,21.31-4.07,10.98-3.8,23.2-2.53,34.68,1.29,11.58,3.79,23,4.75,34.62.93,11.23,1.16,23.7-3.37,34.24-2.07,4.83-5.14,8.35-10.5,9.25-4.79.82-9.71.25-14.53.8-11.29,1.28-19.34,9.1-24.31,18.87-4.93,9.7-7.58,20.82-9.53,31.47-4.03,21.95-1.09,45.57,10.31,64.97,1.57,2.66,3.4,5.19,5.13,7.76,1.92,2.85,3.93,5.64,6.04,8.35.13.17.3.23.46.21.95,2.8,1.82,5.62,2.66,8.46,1.42,4.81,2.69,9.75,2.03,14.81-.04.29.42.46.52.15,2.35-7.59.49-16.25-1.99-23.56-2.9-8.56-6.66-16.8-9.41-25.41-2.83-8.89-4.62-18.18-3.86-27.55.66-8.13,3.16-16.11,6.57-23.49,2-4.33,4.43-8.51,7.48-12.2,2.21-2.67,5.1-5.42,8.31-7.09.05-.03.1-.06.15-.08,1.21,1.41,1.92,3.68,2.24,5.27.92,4.45.53,9.15-.28,13.59-2.22,12.15-8.12,23.34-9.26,35.75-.63,6.89.62,13.76,1.42,20.59.1.98.21,1.96.33,2.93.05.41.65.44.73.02,1.7-9.18.13-18.6,2.58-27.71,1.99-7.35,5.8-13.82,9.83-20.16-.82,3.62-1.54,7.27-2.3,10.92-1.57,7.54-3.16,15.07-4.33,22.7-.05.3.4.45.51.16,1.03-2.64,1.91-5.32,2.67-8.03-1.86,8.2-3.67,16.41-6.06,24.48-.14.46.6.65.79.23,3.11-6.75,5.58-13.8,7.41-20.99,1.8-7.06,3.16-14.21,4.69-21.32,1.92-8.9,4-18.2,8.56-26.17,1.23-2.15,2.74-4.27,4.69-5.81.81-.64,1.69-1.22,2.65-1.61.82-.34,1.7-.42,2.53-.66.03.2.03.42.04.59,0,.03.02.04.04.05-2.62,6.39-4.62,13.02-6.37,19.69-2.04,7.82-3.8,15.71-5.09,23.68-2.53,15.68-3.38,31.84-.55,47.56,5.99,33.26,29.38,61.41,56.86,79.91,7.62,5.14,15.85,9.18,23.77,13.79,8.29,4.83,16.38,10.12,22.21,17.9.19.26.69.04.53-.28-7.69-15.01-23.38-21.46-37.21-29.49-7.25-4.21-14.17-9.12-20.61-14.59,1.35,1.08,2.7,2.14,4.07,3.19,6.1,4.68,12.58,8.86,19.54,12.15,13.58,6.44,28.25,9.94,42.58,14.28,7.97,2.41,15.44,6.28,22.79,10.1.39.21.79-.41.41-.67-5.96-4.1-11.76-8.31-18.62-10.81-3.2-1.16-6.45-2.16-9.74-3.1.99.22,1.97.44,2.97.64,10.62,2.11,21.78,1.89,32.05,5.62,5.52,2,10.51,5.1,14.58,9.35,2.93,3.05,5.36,6.42,7.75,9.84.5,1.22.94,2.44,1.36,3.66.15.44.8.27.77-.17-.01-.17-.03-.34-.04-.51.34.49.68.98,1.03,1.46.29.39.98.05.79-.42Z"/>
    </clipPath>
    <clipPath id="clippath-2">
      <path class="cls-1" d="M129.1,349.06c-.72-.31-1.45-.64-2.16-.97,1.54.62,3.09,1.21,4.64,1.77,5.76,2.07,11.53,4.22,17.37,6.13-6.73-1.99-13.4-4.18-19.85-6.94ZM47,207.26c.31-1.67.61-3.35.88-5.04.23-1.39.46-2.79.67-4.18.53-.82,1.06-1.66,1.58-2.48-1.21,3.85-2.22,7.76-3.12,11.7ZM110.05,79.19c1.92.85,3.58,2.41,5.04,3.88,3.8,3.83,6.14,9.05,5.61,14.55-.28,3-1.38,6.14-3.59,8.27-1.43,1.39-3.4,2.27-5.16.94-5.26-3.98-.73-11.22-.27-16.22.26-2.8-.7-5.06-1.84-7.54-.38-.84-1.29-2.47-1.71-3.99.49-.28,1-.29,1.91.11ZM127.77,49.01c1.39,3.59,1.18,7.35-.85,10.63-1.67,2.71-4.4,5.07-7.57,5.73-8.65,1.82-11.83-10.11-14.63-15.9-1.85-3.83-4.87-7.12-6.22-11.17-.97-2.89-.43-5.44.83-7.84,3.3-.06,6.64.85,9.68,2.04,7.51,2.95,15.77,8.73,18.77,16.5ZM71.7,49.93c.81-4.03,2.39-7.96,4.86-11.24,1.67-2.22,3.7-3.77,6.03-4.94.67.12,1.32.32,1.89.72.88.62,1.06,1.71,1.14,2.71.25,2.97-.4,5.96-.34,8.93.07,3.48,1.63,5.96,3.2,8.97,1.53,2.94,2.95,6.15,2.49,9.55-.45,3.34-2.36,7.83-5.95,8.73-3.37.85-6.93-1.3-9.21-3.59-5.08-5.09-5.47-13.15-4.12-19.83ZM223.76,389.31c-.75-1.78-1.58-3.53-2.48-5.23-4.32-18.17-25.52-24.69-41.6-30.06-8.71-2.91-16.88-6.19-24.19-11.87-7.17-5.58-13.18-12.5-18.12-20.1-2.07-3.18-3.96-6.5-5.67-9.91,1.83,2.73,3.84,5.35,6.07,7.79,5.99,6.56,13.21,11.73,21.11,15.74,5.16,2.61,10.6,4.57,15.92,6.82,2.68,1.12,5.35,2.31,7.99,3.53,2.77,1.27,5.49,2.74,8.36,3.76.49.16.95-.47.49-.82-3.92-3.01-8.57-5.29-12.91-7.64-4.4-2.4-8.89-4.5-13.47-6.52-8.07-3.55-15.67-8.14-22.05-14.28-6.36-6.13-11.28-13.6-15.09-21.54-1.92-4-3.71-8.11-5.19-12.32-1.09-5.54-1.71-11.16-1.79-16.77-.13-9.36,1.44-18.42,5.51-26.9,4.51-9.41,11.02-17.66,16.99-26.17,6.38-9.09,11.76-18.84,16.76-28.74.79-1.57,1.56-3.14,2.33-4.72-.38,1.47-.77,2.94-1.17,4.4-3.5,12.78-7.83,25.15-14.67,36.55-3.96,6.6-6.54,13.5-8.4,20.93-.16.62.77.84,1.03.31,2.9-6,5.46-12.22,8.73-18.03.07-.14.15-.27.23-.4,1.55-2.11,2.79-4.5,4.12-6.72,1.67-2.79,3.4-5.53,5.09-8.31,3.38-5.54,7-10.95,10.89-16.16,7.79-10.45,16.89-19.8,24.39-30.47,1.75-2.49,3.38-5.05,4.92-7.68-.68,2.87-1.43,5.75-2.54,8.51-1.47,3.69-3.8,6.91-6.37,9.9-1.31,1.52-2.65,3.04-3.92,4.59-1.15,1.41-2.51,2.98-3.14,4.71-.13.37.25.67.57.47.18-.11.36-.22.53-.35.1.23.42.38.63.2,5.9-5.35,13.11-9.59,17.9-16.06.75-1.02,1.42-2.09,2.02-3.19-.08.28-.14.57-.22.85-1.41,5.21-3.2,10.35-5.46,15.25-4.43,9.62-10.98,18.05-18.41,25.57-3.58,3.62-8.11,7.71-9.08,12.96-.08.41.5.69.76.34,1.47-2.03,2.88-4.02,4.64-5.83,1.77-1.81,3.65-3.54,5.47-5.31.2-.2.41-.4.61-.6,16.13-9.91,29.49-24.84,38.47-41.38,9.57-17.61,14.02-38.15,10.67-58.07-.98-5.86-3.5-16.37-11.66-14.22-3.99,1.05-7.04,4.36-9.9,7.13-2.65,2.59-5.66,5.82-9.39,6.75-4.47,1.12-8.02-2.65-10.16-6.1-2.91-4.67-4.44-10.16-6.1-15.36-3.89-12.22-9.92-23.83-16.87-34.58-11.89-18.43-28.37-35.28-47.99-45.42-9.25-4.78-20.44-8.5-30.98-7.33-11.75,1.31-20.03,10.69-23.96,21.31-4.07,10.98-3.8,23.2-2.53,34.68,1.29,11.58,3.79,23,4.75,34.62.93,11.23,1.16,23.7-3.37,34.24-2.07,4.83-5.14,8.35-10.5,9.25-4.79.82-9.71.25-14.53.8-11.29,1.28-19.34,9.1-24.31,18.87-4.93,9.7-7.58,20.82-9.53,31.47-4.03,21.95-1.09,45.57,10.31,64.97,1.57,2.66,3.4,5.19,5.13,7.76,1.92,2.85,3.93,5.64,6.04,8.35.13.17.3.23.46.21.95,2.8,1.82,5.62,2.66,8.46,1.42,4.81,2.69,9.75,2.03,14.81-.04.29.42.46.52.15,2.35-7.59.49-16.25-1.99-23.56-2.9-8.56-6.66-16.8-9.41-25.41-2.83-8.89-4.62-18.18-3.86-27.55.66-8.13,3.16-16.11,6.57-23.49,2-4.33,4.43-8.51,7.48-12.2,2.21-2.67,5.1-5.42,8.31-7.09.05-.03.1-.06.15-.08,1.21,1.41,1.92,3.68,2.24,5.27.92,4.45.53,9.15-.28,13.59-2.22,12.15-8.12,23.34-9.26,35.75-.63,6.89.62,13.76,1.42,20.59.1.98.21,1.96.33,2.93.05.41.65.44.73.02,1.7-9.18.13-18.6,2.58-27.71,1.99-7.35,5.8-13.82,9.83-20.16-.82,3.62-1.54,7.27-2.3,10.92-1.57,7.54-3.16,15.07-4.33,22.7-.05.3.4.45.51.16,1.03-2.64,1.91-5.32,2.67-8.03-1.86,8.2-3.67,16.41-6.06,24.48-.14.46.6.65.79.23,3.11-6.75,5.58-13.8,7.41-20.99,1.8-7.06,3.16-14.21,4.69-21.32,1.92-8.9,4-18.2,8.56-26.17,1.23-2.15,2.74-4.27,4.69-5.81.81-.64,1.69-1.22,2.65-1.61.82-.34,1.7-.42,2.53-.66.03.2.03.42.04.59,0,.03.02.04.04.05-2.62,6.39-4.62,13.02-6.37,19.69-2.04,7.82-3.8,15.71-5.09,23.68-2.53,15.68-3.38,31.84-.55,47.56,5.99,33.26,29.38,61.41,56.86,79.91,7.62,5.14,15.85,9.18,23.77,13.79,8.29,4.83,16.38,10.12,22.21,17.9.19.26.69.04.53-.28-7.69-15.01-23.38-21.46-37.21-29.49-7.25-4.21-14.17-9.12-20.61-14.59,1.35,1.08,2.7,2.14,4.07,3.19,6.1,4.68,12.58,8.86,19.54,12.15,13.58,6.44,28.25,9.94,42.58,14.28,7.97,2.41,15.44,6.28,22.79,10.1.39.21.79-.41.41-.67-5.96-4.1-11.76-8.31-18.62-10.81-3.2-1.16-6.45-2.16-9.74-3.1.99.22,1.97.44,2.97.64,10.62,2.11,21.78,1.89,32.05,5.62,5.52,2,10.51,5.1,14.58,9.35,2.93,3.05,5.36,6.42,7.75,9.84.5,1.22.94,2.44,1.36,3.66.15.44.8.27.77-.17-.01-.17-.03-.34-.04-.51.34.49.68.98,1.03,1.46.29.39.98.05.79-.42Z"/>
    </clipPath>
    <linearGradient id="linear-gradient" x1="-1022.19" y1="1039.4" x2="-1021.25" y2="1039.4" gradientTransform="translate(-431707.66 424675.38) rotate(90) scale(415.46 -415.46)" gradientUnits="userSpaceOnUse">
      <stop offset="0" stop-color="#60c9b6"/>
      <stop offset=".02" stop-color="#60c9b6"/>
      <stop offset=".02" stop-color="#60c9b6"/>
      <stop offset=".03" stop-color="#60c9b7"/>
      <stop offset=".04" stop-color="#60c9b7"/>
      <stop offset=".05" stop-color="#60c9b7"/>
      <stop offset=".05" stop-color="#60c9b8"/>
      <stop offset=".06" stop-color="#60c9b8"/>
      <stop offset=".07" stop-color="#60c9b9"/>
      <stop offset=".08" stop-color="#61c9b9"/>
      <stop offset=".09" stop-color="#61c9b9"/>
      <stop offset=".09" stop-color="#61c9ba"/>
      <stop offset=".11" stop-color="#61c9ba"/>
      <stop offset=".12" stop-color="#61c9bb"/>
      <stop offset=".12" stop-color="#61c9bb"/>
      <stop offset=".13" stop-color="#61c9bc"/>
      <stop offset=".14" stop-color="#61c9bc"/>
      <stop offset=".16" stop-color="#61c9bc"/>
      <stop offset=".16" stop-color="#61cabd"/>
      <stop offset=".17" stop-color="#61cabd"/>
      <stop offset=".18" stop-color="#61cabe"/>
      <stop offset=".18" stop-color="#61cabe"/>
      <stop offset=".19" stop-color="#61cabe"/>
      <stop offset=".2" stop-color="#61cabe"/>
      <stop offset=".2" stop-color="#61cabf"/>
      <stop offset=".22" stop-color="#61cabf"/>
      <stop offset=".22" stop-color="#61cac0"/>
      <stop offset=".23" stop-color="#61cac0"/>
      <stop offset=".23" stop-color="#61cac0"/>
      <stop offset=".24" stop-color="#61cac0"/>
      <stop offset=".25" stop-color="#61cac1"/>
      <stop offset=".26" stop-color="#61cac1"/>
      <stop offset=".26" stop-color="#62cac1"/>
      <stop offset=".27" stop-color="#62cac2"/>
      <stop offset=".27" stop-color="#62cac2"/>
      <stop offset=".28" stop-color="#62cac2"/>
      <stop offset=".3" stop-color="#62cac3"/>
      <stop offset=".31" stop-color="#62cac3"/>
      <stop offset=".33" stop-color="#62cac4"/>
      <stop offset=".34" stop-color="#62cac4"/>
      <stop offset=".34" stop-color="#62cac5"/>
      <stop offset=".35" stop-color="#62cac5"/>
      <stop offset=".36" stop-color="#62cac6"/>
      <stop offset=".38" stop-color="#62cac6"/>
      <stop offset=".38" stop-color="#62cac7"/>
      <stop offset=".39" stop-color="#62cac7"/>
      <stop offset=".41" stop-color="#62cac7"/>
      <stop offset=".41" stop-color="#63cbc7"/>
      <stop offset=".42" stop-color="#63cbc8"/>
      <stop offset=".43" stop-color="#63cbc8"/>
      <stop offset=".43" stop-color="#61cac7"/>
      <stop offset=".44" stop-color="#60cac7"/>
      <stop offset=".44" stop-color="#60c9c6"/>
      <stop offset=".45" stop-color="#5fc9c5"/>
      <stop offset=".45" stop-color="#5ec9c5"/>
      <stop offset=".45" stop-color="#5dc9c4"/>
      <stop offset=".46" stop-color="#5cc8c4"/>
      <stop offset=".46" stop-color="#5bc8c4"/>
      <stop offset=".46" stop-color="#5ac8c3"/>
      <stop offset=".47" stop-color="#5ac7c2"/>
      <stop offset=".47" stop-color="#59c7c2"/>
      <stop offset=".48" stop-color="#58c7c1"/>
      <stop offset=".48" stop-color="#57c6c1"/>
      <stop offset=".48" stop-color="#56c6c0"/>
      <stop offset=".49" stop-color="#55c6bf"/>
      <stop offset=".49" stop-color="#53c5bf"/>
      <stop offset=".5" stop-color="#53c5be"/>
      <stop offset=".5" stop-color="#52c5be"/>
      <stop offset=".5" stop-color="#51c4bd"/>
      <stop offset=".51" stop-color="#50c4bc"/>
      <stop offset=".51" stop-color="#4fc4bb"/>
      <stop offset=".52" stop-color="#4ec3bb"/>
      <stop offset=".52" stop-color="#4dc3ba"/>
      <stop offset=".52" stop-color="#4dc3ba"/>
      <stop offset=".53" stop-color="#4cc3b9"/>
      <stop offset=".53" stop-color="#4bc2b8"/>
      <stop offset=".54" stop-color="#4ac2b8"/>
      <stop offset=".54" stop-color="#49c1b7"/>
      <stop offset=".54" stop-color="#48c0b6"/>
      <stop offset=".55" stop-color="#47beb5"/>
      <stop offset=".55" stop-color="#47beb3"/>
      <stop offset=".55" stop-color="#46bdb2"/>
      <stop offset=".56" stop-color="#46bcb1"/>
      <stop offset=".56" stop-color="#45bab0"/>
      <stop offset=".57" stop-color="#44b9b0"/>
      <stop offset=".57" stop-color="#44b8af"/>
      <stop offset=".57" stop-color="#43b7ae"/>
      <stop offset=".58" stop-color="#43b6ad"/>
      <stop offset=".58" stop-color="#43b5ac"/>
      <stop offset=".59" stop-color="#42b4ab"/>
      <stop offset=".59" stop-color="#42b2aa"/>
      <stop offset=".59" stop-color="#41b1a9"/>
      <stop offset=".6" stop-color="#41b0a8"/>
      <stop offset=".6" stop-color="#41afa7"/>
      <stop offset=".61" stop-color="#40aea6"/>
      <stop offset=".61" stop-color="#40aca6"/>
      <stop offset=".61" stop-color="#3faba5"/>
      <stop offset=".62" stop-color="#3faaa4"/>
      <stop offset=".62" stop-color="#3ea9a2"/>
      <stop offset=".62" stop-color="#3ea7a1"/>
      <stop offset=".63" stop-color="#3da6a0"/>
      <stop offset=".63" stop-color="#3da59f"/>
      <stop offset=".64" stop-color="#3da49e"/>
      <stop offset=".64" stop-color="#3da49d"/>
      <stop offset=".64" stop-color="#3ca29c"/>
      <stop offset=".65" stop-color="#3ca19b"/>
      <stop offset=".65" stop-color="#3ba09a"/>
      <stop offset=".66" stop-color="#3a9f99"/>
      <stop offset=".66" stop-color="#3a9d98"/>
      <stop offset=".66" stop-color="#399c97"/>
      <stop offset=".67" stop-color="#399b96"/>
      <stop offset=".67" stop-color="#399a95"/>
      <stop offset=".68" stop-color="#389994"/>
      <stop offset=".68" stop-color="#379893"/>
      <stop offset=".68" stop-color="#379792"/>
      <stop offset=".69" stop-color="#379590"/>
      <stop offset=".69" stop-color="#36958f"/>
      <stop offset=".7" stop-color="#36948e"/>
      <stop offset=".7" stop-color="#36938e"/>
      <stop offset=".7" stop-color="#35928d"/>
      <stop offset=".71" stop-color="#35908c"/>
      <stop offset=".71" stop-color="#348f8b"/>
      <stop offset=".71" stop-color="#348e89"/>
      <stop offset=".72" stop-color="#348d88"/>
      <stop offset=".72" stop-color="#338b87"/>
      <stop offset=".73" stop-color="#338a86"/>
      <stop offset=".73" stop-color="#338985"/>
      <stop offset=".73" stop-color="#328783"/>
      <stop offset=".74" stop-color="#328682"/>
      <stop offset=".74" stop-color="#318581"/>
      <stop offset=".75" stop-color="#318480"/>
      <stop offset=".75" stop-color="#30837f"/>
      <stop offset=".75" stop-color="#30827e"/>
      <stop offset=".76" stop-color="#2f817d"/>
      <stop offset=".76" stop-color="#2f807c"/>
      <stop offset=".77" stop-color="#2e7e7b"/>
      <stop offset=".77" stop-color="#2e7d7a"/>
      <stop offset=".77" stop-color="#2d7c78"/>
      <stop offset=".78" stop-color="#2d7b77"/>
      <stop offset=".78" stop-color="#2d7a76"/>
      <stop offset=".79" stop-color="#2d7875"/>
      <stop offset=".79" stop-color="#2c7774"/>
      <stop offset=".79" stop-color="#2c7673"/>
      <stop offset=".8" stop-color="#2c7571"/>
      <stop offset=".8" stop-color="#2b7470"/>
      <stop offset=".8" stop-color="#2b736f"/>
      <stop offset=".81" stop-color="#2a716e"/>
      <stop offset=".81" stop-color="#2a706d"/>
      <stop offset=".82" stop-color="#296f6b"/>
      <stop offset=".82" stop-color="#296e6a"/>
      <stop offset=".82" stop-color="#286c69"/>
      <stop offset=".83" stop-color="#286b68"/>
      <stop offset=".83" stop-color="#286a67"/>
      <stop offset=".84" stop-color="#286966"/>
      <stop offset=".84" stop-color="#276864"/>
      <stop offset=".84" stop-color="#276763"/>
      <stop offset=".85" stop-color="#276662"/>
      <stop offset=".85" stop-color="#266561"/>
      <stop offset=".86" stop-color="#266360"/>
      <stop offset=".86" stop-color="#26625f"/>
      <stop offset=".86" stop-color="#25615e"/>
      <stop offset=".87" stop-color="#25605d"/>
      <stop offset=".87" stop-color="#245f5b"/>
      <stop offset=".88" stop-color="#245e5a"/>
      <stop offset=".88" stop-color="#245d59"/>
      <stop offset=".88" stop-color="#235c58"/>
      <stop offset=".89" stop-color="#235a57"/>
      <stop offset=".89" stop-color="#225955"/>
      <stop offset=".89" stop-color="#225854"/>
      <stop offset=".9" stop-color="#225853"/>
      <stop offset=".9" stop-color="#225652"/>
      <stop offset=".91" stop-color="#225551"/>
      <stop offset=".91" stop-color="#215450"/>
      <stop offset=".91" stop-color="#21534f"/>
      <stop offset=".92" stop-color="#21524e"/>
      <stop offset=".92" stop-color="#20514c"/>
      <stop offset=".93" stop-color="#204f4b"/>
      <stop offset=".93" stop-color="#1f4e4a"/>
      <stop offset=".93" stop-color="#1f4d49"/>
      <stop offset=".94" stop-color="#1f4c48"/>
      <stop offset=".94" stop-color="#1f4b47"/>
      <stop offset=".95" stop-color="#1e4a46"/>
      <stop offset=".95" stop-color="#1e4945"/>
      <stop offset=".95" stop-color="#1e4843"/>
      <stop offset=".96" stop-color="#1e4742"/>
      <stop offset=".96" stop-color="#1e4641"/>
      <stop offset=".96" stop-color="#1d4540"/>
      <stop offset=".97" stop-color="#1d443f"/>
      <stop offset=".97" stop-color="#1d433e"/>
      <stop offset=".98" stop-color="#1c413c"/>
      <stop offset=".98" stop-color="#1c403b"/>
      <stop offset=".98" stop-color="#1c3f3a"/>
      <stop offset=".99" stop-color="#1c3e39"/>
      <stop offset=".99" stop-color="#1b3d38"/>
      <stop offset="1" stop-color="#1b3c37"/>
      <stop offset="1" stop-color="#1b3b36"/>
    </linearGradient>
  </defs>
  <g id="Elements">
    <g class="cls-5">
      <g class="cls-2">
        <g class="cls-3">
          <path class="cls-4" d="M234.39,0H0v390.12h234.39V0Z"/>
        </g>
      </g>
    </g>
  </g>
</svg>