<?xml version="1.0" encoding="UTF-8"?>
<svg id="Layer_2" data-name="Layer 2" xmlns="http://www.w3.org/2000/svg" xmlns:xlink="http://www.w3.org/1999/xlink" viewBox="0 0 244.61 334.21">
  <defs>
    <style>
      .cls-1 {
        fill: none;
      }

      .cls-2 {
        clip-path: url(#clippath-1);
      }

      .cls-3 {
        clip-path: url(#clippath-2);
      }

      .cls-4 {
        fill: url(#linear-gradient);
      }

      .cls-5 {
        clip-path: url(#clippath);
      }
    </style>
    <clipPath id="clippath">
      <rect class="cls-1" width="244.61" height="334.21"/>
    </clipPath>
    <clipPath id="clippath-1">
      <path class="cls-1" d="M199.61,223.55c-.1.05-.2.07-.3.07-.25,0-.48-.14-.6-.38-3.02-6.07-5.83-12.7-8.36-19.66-8.55-23.49-13.63-48.37-18.54-72.42l-.5-2.43c-.06-.26.17-.61.44-.66.12-.03.29.02.41.1.11.07.22.2.24.33l.18.81c1.42,6.63,2.89,13.49,4.41,20.22,4.67,20.66,11.5,47.62,22.97,73.09.17.35,0,.76-.35.94ZM189.49,281.02h0c-.07.21-.35.38-.59.38-.05,0-.09,0-.14-.02-.26-.08-.45-.45-.37-.72,4.04-12.57,5.05-25.97,2.98-39.84-.03-.17.06-.41.2-.52.14-.11.38-.15.54-.08.17.06.31.25.34.42,2.28,14.18,1.29,27.75-2.96,40.37ZM157.02,306.79s-.04,0-.06-.01c-5.63-.46-10.75-4.13-14.8-10.59-4.21-6.72-6.46-14.43-7.95-20.38-1.87-7.45-3.21-15.49-4.23-25.3-1.33-12.74-1.9-26.39-1.73-41.7,0-.28.27-.53.54-.53s.54.26.54.54c.07,6.56.25,13.1.53,19.4.65,14.51,1.9,31.59,6.24,48.28,3.25,12.48,8.57,27.05,21.03,28.91.37.05.61.39.56.77-.04.35-.33.63-.68.63ZM124.11,114.4c.55-4.12,1.74-8.62,3.64-13.75.02-.05.05-.1.08-.14.88-1.08,2.06-2.43,3.43-3.19.1-.05.26-.13.4-.18.13-.06.29-.06.42.01.13.07.23.19.26.34l.11.5c.22.98.41,1.83.41,2.79,0,.62-.09,1.26-.26,1.94-.14.53-.29,1.07-.44,1.6-.47,1.6-.9,3.11-.86,4.71.04,1.81.54,3.61,1.02,5.36.15.55.3,1.1.44,1.65,1.03,4.12,1.86,9.42-.02,11.35-.48.48-1.09.74-1.82.74-.28,0-.57-.04-.89-.11-6.52-1.49-6.51-9.17-5.92-13.62ZM120.07,263.99c.24,9.91.5,20.13.52,30.2,0,.39-.3.7-.69.72h-.02c-.39,0-.7-.3-.71-.68l-.29-7.94c-.23-6.2-.46-12.41-.64-18.62-.96-33.12-1.31-62.92,4.03-92.39.05-.27.41-.53.66-.48.33.06.55.37.5.68-1.26,8.1-2.21,16.74-2.9,26.46-1.47,20.67-.96,41.7-.46,62.05ZM112.21,87.09c-.26.1-.58.17-.93.17-.64,0-1.42-.24-2.24-1.03-3.41-3.24-3.92-9.26-4-11.03-.15-3.63.47-7.38,1.9-11.49,1.92-5.51,4.89-10.55,7.75-15.43.57-.96,1.14-1.94,1.71-2.92.02-.05.06-.09.09-.12l.37-.35c.16-.15.35-.35.55-.57.84-.91,1.88-2.03,2.97-2.15.55-.04,1.07.12,1.51.52.76.68,1.17,1.88,1.18,2.71.01,1.66-.75,3.29-1.42,4.74l-.33.71c-1.59,3.53-2.52,7.38-2.84,11.78-.14,1.97-.17,4-.2,5.96-.04,2.46-.07,4.98-.33,7.48-.22,2.15-2.45,9.81-5.75,11.03ZM111.2,258.75c-.24,2.77-.48,5.54-.78,8.3-1.29,12.03-2.82,23.73-7.25,34.52-2.26,5.52-7.02,13.89-15.01,13.89-1.28,0-2.64-.22-4.09-.7-.26-.08-.43-.41-.35-.67.09-.26.41-.42.67-.35,4.58,1.37,8.93.04,12.23-3.74,3.35-3.84,5.27-8.97,6.56-13.03,1.56-4.89,2.79-10.25,3.88-16.86.77-4.71,1.25-9.53,1.72-14.2.42-4.16.85-8.47,1.49-12.67.05-.37.38-.62.77-.57.39.05.66.37.63.75-.17,1.78-.33,3.56-.48,5.34ZM75.19,214.61c-2.5,6.15-5.12,12.06-7.79,17.57-2.64,5.46-5.63,11.65-9.25,17.12-.15.23-.39.35-.64.35-.13,0-.26-.03-.38-.1-.35-.21-.48-.63-.3-1.01,1.4-2.81,2.9-5.63,4.35-8.34,1.89-3.57,3.84-7.24,5.61-10.93,10.88-22.75,19.31-47.67,25.06-74.06.06-.26.41-.5.66-.43.31.06.52.36.46.67-1.48,7.28-3.19,14.52-5.08,21.5-3.45,12.76-7.72,25.43-12.7,37.65ZM54.71,179.14c-9.41,18.2-19.74,31.75-31.55,41.42-.17.13-.35.19-.54.19-.23,0-.46-.09-.63-.28-.3-.33-.28-.81.04-1.12,7.9-7.75,14.24-15.08,19.37-22.41,14.74-21.01,23.88-45.38,32.73-68.96,3.07-8.18,6.25-16.65,9.61-24.83.07-.17.26-.31.43-.34.17-.02.41.06.52.21.11.14.14.37.07.53-2.75,7.1-5.38,14.39-7.92,21.44-.77,2.14-1.54,4.27-2.31,6.4-6.25,17.23-12.05,32.73-19.81,47.74ZM138.72,39.96c1.3-.76,3.24.31,4.58,1.19,3.62,2.33,6.85,6.55,8.86,11.62,1.52,3.81,2.58,8.01,3.16,12.46.69,5.23.5,9.27-.59,12.69-.7,2.19-2.63,4.82-4.97,5.6-.46.16-.91.23-1.36.23-.88,0-1.73-.28-2.52-.85-2.84-2.01-2.46-6.16-2.15-9.49.09-1.01.18-1.97.18-2.78-.04-4.35-.57-8.99-1.55-13.42-.08-.35-.16-.7-.24-1.05-.13-2.43-.32-4.35-.84-6.19-.33-1.16-.97-2.08-1.65-3.06-.52-.74-1.06-1.52-1.46-2.41s-1.01-3.65.54-4.54ZM244.01,171.04c0-.34-.17-.66-.5-.97-1.53-1.33-3.19-2.57-4.79-3.76-1.73-1.29-3.52-2.63-5.18-4.1-2.58-2.28-5.1-4.83-7.49-7.56-4.53-5.17-8.71-11.13-12.75-18.22-7.95-13.92-13.44-28.72-17.77-41.36-2.04-5.96-3.98-12.05-5.86-17.94-2.24-7.03-4.55-14.29-7.04-21.36-4.25-12.06-9.83-25.96-18.9-37.59-4.51-5.78-9.33-10.24-14.34-13.26C142.69.9,134.74.04,129.13.04h-.31c-8.12.05-14.77,1.68-19.74,4.84-4.85,3.09-9.02,7.92-12.75,14.77-6.81,12.53-10.1,26.87-13.29,40.74l-.94,4.06c-2.34,10.07-4.5,19.13-7.35,28.01-3.04,9.51-6.83,18.93-10.13,26.9l-2.32,5.58c-2.24,5.38-4.56,10.95-6.75,16.47l-.17.43c-2.47,6.24-5.03,12.69-7.88,18.91-6.74,14.73-14.33,25.6-23.85,34.2-2.36,2.13-4.88,4.11-7.5,5.9-.14.1-.31.12-.47.05.06.06.03.13,0,.19-.04.08-.09.14-.16.19.02.08.03.17,0,.25-.26,1.1.14,2.65.33,3.4.46,1.78,1.34,3.69,2.49,5.39.99,1.45,1.97,2.64,2.91,3.54.11.1.17.24.16.39,0,.14-.08.28-.19.37l-.2.15c-.16.13-.32.25-.48.37-7.17,5.42-13.17,7.2-18.35,5.43-.11-.03-.22-.05-.33-.05-.37,0-.71.19-.93.41-.29.28-.53.77-.37,1.27.65,1.94,1.29,3.92,1.91,5.89,2.7,8.42,5.49,17.11,10.33,24.56,3.51,5.39,7.38,9.38,11.5,11.84,4.62,2.76,9.87,3.55,14.86,4,.77.06,1.55.12,2.32.18,2.08.16,4.23.33,6.33.68,1.27.2,2.51.54,3.72.88.62.17,1.23.34,1.85.49.17.04.3.17.36.33.59,1.92,1.1,3.93,1.5,5.97.88,4.47,1.01,9.08,1.14,13.54.09,3.02.17,6.15.5,9.19.87,8.18,2.81,14.18,6.09,18.84,4.04,5.74,10.16,9.96,17.71,12.22,4.16,1.25,8.65,2.07,12.98,2.38,2.15.15,4.27.05,6.61-.09l.67-.04c1.7-.1,3.46-.2,5.03-.74.12-.04.17-.14.18-.21.05-.2.21-.35.41-.38,2.55-.39,5.03-1.79,7.43-3.14,1.2-.67,2.34-1.32,3.49-1.84,4.79-2.17,10.53-3.43,17.06-3.72,3.15-.14,6.37-.17,9.47-.21,2.68-.03,5.45-.06,8.16-.16,2.81-.1,5.25-.25,7.48-.46,7.48.72,16.22-1.72,26.12-7.23,9.81-5.45,16.16-11.23,20-18.2,7.8-14.2,5.89-31.14,3.04-48.72l-.1-.61c-.03-.17.04-.35.17-.46.61-.52,1.22-1.03,1.83-1.52,2.49-2,4.67-3.79,6.66-5.49,3.73-3.18,8.45-7.54,11.88-13.07,3.87-6.22,6.44-13.15,8.25-18.48,2.12-6.26,3.68-12.47,4.64-18.47.67-4.2,1.01-7.47,1.11-10.59l.05-1.21c.07-1.87.15-3.81-.05-5.65-.02-.16.05-.33.17-.43.35-.29.55-.68.55-1.04Z"/>
    </clipPath>
    <clipPath id="clippath-2">
      <path class="cls-1" d="M199.61,223.55c-.1.05-.2.07-.3.07-.25,0-.48-.14-.6-.38-3.02-6.07-5.83-12.7-8.36-19.66-8.55-23.49-13.63-48.37-18.54-72.42l-.5-2.43c-.06-.26.17-.61.44-.66.12-.03.29.02.41.1.11.07.22.2.24.33l.18.81c1.42,6.63,2.89,13.49,4.41,20.22,4.67,20.66,11.5,47.62,22.97,73.09.17.35,0,.76-.35.94ZM189.49,281.02h0c-.07.21-.35.38-.59.38-.05,0-.09,0-.14-.02-.26-.08-.45-.45-.37-.72,4.04-12.57,5.05-25.97,2.98-39.84-.03-.17.06-.41.2-.52.14-.11.38-.15.54-.08.17.06.31.25.34.42,2.28,14.18,1.29,27.75-2.96,40.37ZM157.02,306.79s-.04,0-.06-.01c-5.63-.46-10.75-4.13-14.8-10.59-4.21-6.72-6.46-14.43-7.95-20.38-1.87-7.45-3.21-15.49-4.23-25.3-1.33-12.74-1.9-26.39-1.73-41.7,0-.28.27-.53.54-.53s.54.26.54.54c.07,6.56.25,13.1.53,19.4.65,14.51,1.9,31.59,6.24,48.28,3.25,12.48,8.57,27.05,21.03,28.91.37.05.61.39.56.77-.04.35-.33.63-.68.63ZM124.11,114.4c.55-4.12,1.74-8.62,3.64-13.75.02-.05.05-.1.08-.14.88-1.08,2.06-2.43,3.43-3.19.1-.05.26-.13.4-.18.13-.06.29-.06.42.01.13.07.23.19.26.34l.11.5c.22.98.41,1.83.41,2.79,0,.62-.09,1.26-.26,1.94-.14.53-.29,1.07-.44,1.6-.47,1.6-.9,3.11-.86,4.71.04,1.81.54,3.61,1.02,5.36.15.55.3,1.1.44,1.65,1.03,4.12,1.86,9.42-.02,11.35-.48.48-1.09.74-1.82.74-.28,0-.57-.04-.89-.11-6.52-1.49-6.51-9.17-5.92-13.62ZM120.07,263.99c.24,9.91.5,20.13.52,30.2,0,.39-.3.7-.69.72h-.02c-.39,0-.7-.3-.71-.68l-.29-7.94c-.23-6.2-.46-12.41-.64-18.62-.96-33.12-1.31-62.92,4.03-92.39.05-.27.41-.53.66-.48.33.06.55.37.5.68-1.26,8.1-2.21,16.74-2.9,26.46-1.47,20.67-.96,41.7-.46,62.05ZM112.21,87.09c-.26.1-.58.17-.93.17-.64,0-1.42-.24-2.24-1.03-3.41-3.24-3.92-9.26-4-11.03-.15-3.63.47-7.38,1.9-11.49,1.92-5.51,4.89-10.55,7.75-15.43.57-.96,1.14-1.94,1.71-2.92.02-.05.06-.09.09-.12l.37-.35c.16-.15.35-.35.55-.57.84-.91,1.88-2.03,2.97-2.15.55-.04,1.07.12,1.51.52.76.68,1.17,1.88,1.18,2.71.01,1.66-.75,3.29-1.42,4.74l-.33.71c-1.59,3.53-2.52,7.38-2.84,11.78-.14,1.97-.17,4-.2,5.96-.04,2.46-.07,4.98-.33,7.48-.22,2.15-2.45,9.81-5.75,11.03ZM111.2,258.75c-.24,2.77-.48,5.54-.78,8.3-1.29,12.03-2.82,23.73-7.25,34.52-2.26,5.52-7.02,13.89-15.01,13.89-1.28,0-2.64-.22-4.09-.7-.26-.08-.43-.41-.35-.67.09-.26.41-.42.67-.35,4.58,1.37,8.93.04,12.23-3.74,3.35-3.84,5.27-8.97,6.56-13.03,1.56-4.89,2.79-10.25,3.88-16.86.77-4.71,1.25-9.53,1.72-14.2.42-4.16.85-8.47,1.49-12.67.05-.37.38-.62.77-.57.39.05.66.37.63.75-.17,1.78-.33,3.56-.48,5.34ZM75.19,214.61c-2.5,6.15-5.12,12.06-7.79,17.57-2.64,5.46-5.63,11.65-9.25,17.12-.15.23-.39.35-.64.35-.13,0-.26-.03-.38-.1-.35-.21-.48-.63-.3-1.01,1.4-2.81,2.9-5.63,4.35-8.34,1.89-3.57,3.84-7.24,5.61-10.93,10.88-22.75,19.31-47.67,25.06-74.06.06-.26.41-.5.66-.43.31.06.52.36.46.67-1.48,7.28-3.19,14.52-5.08,21.5-3.45,12.76-7.72,25.43-12.7,37.65ZM54.71,179.14c-9.41,18.2-19.74,31.75-31.55,41.42-.17.13-.35.19-.54.19-.23,0-.46-.09-.63-.28-.3-.33-.28-.81.04-1.12,7.9-7.75,14.24-15.08,19.37-22.41,14.74-21.01,23.88-45.38,32.73-68.96,3.07-8.18,6.25-16.65,9.61-24.83.07-.17.26-.31.43-.34.17-.02.41.06.52.21.11.14.14.37.07.53-2.75,7.1-5.38,14.39-7.92,21.44-.77,2.14-1.54,4.27-2.31,6.4-6.25,17.23-12.05,32.73-19.81,47.74ZM138.72,39.96c1.3-.76,3.24.31,4.58,1.19,3.62,2.33,6.85,6.55,8.86,11.62,1.52,3.81,2.58,8.01,3.16,12.46.69,5.23.5,9.27-.59,12.69-.7,2.19-2.63,4.82-4.97,5.6-.46.16-.91.23-1.36.23-.88,0-1.73-.28-2.52-.85-2.84-2.01-2.46-6.16-2.15-9.49.09-1.01.18-1.97.18-2.78-.04-4.35-.57-8.99-1.55-13.42-.08-.35-.16-.7-.24-1.05-.13-2.43-.32-4.35-.84-6.19-.33-1.16-.97-2.08-1.65-3.06-.52-.74-1.06-1.52-1.46-2.41s-1.01-3.65.54-4.54ZM244.01,171.04c0-.34-.17-.66-.5-.97-1.53-1.33-3.19-2.57-4.79-3.76-1.73-1.29-3.52-2.63-5.18-4.1-2.58-2.28-5.1-4.83-7.49-7.56-4.53-5.17-8.71-11.13-12.75-18.22-7.95-13.92-13.44-28.72-17.77-41.36-2.04-5.96-3.98-12.05-5.86-17.94-2.24-7.03-4.55-14.29-7.04-21.36-4.25-12.06-9.83-25.96-18.9-37.59-4.51-5.78-9.33-10.24-14.34-13.26C142.69.9,134.74.04,129.13.04h-.31c-8.12.05-14.77,1.68-19.74,4.84-4.85,3.09-9.02,7.92-12.75,14.77-6.81,12.53-10.1,26.87-13.29,40.74l-.94,4.06c-2.34,10.07-4.5,19.13-7.35,28.01-3.04,9.51-6.83,18.93-10.13,26.9l-2.32,5.58c-2.24,5.38-4.56,10.95-6.75,16.47l-.17.43c-2.47,6.24-5.03,12.69-7.88,18.91-6.74,14.73-14.33,25.6-23.85,34.2-2.36,2.13-4.88,4.11-7.5,5.9-.14.1-.31.12-.47.05.06.06.03.13,0,.19-.04.08-.09.14-.16.19.02.08.03.17,0,.25-.26,1.1.14,2.65.33,3.4.46,1.78,1.34,3.69,2.49,5.39.99,1.45,1.97,2.64,2.91,3.54.11.1.17.24.16.39,0,.14-.08.28-.19.37l-.2.15c-.16.13-.32.25-.48.37-7.17,5.42-13.17,7.2-18.35,5.43-.11-.03-.22-.05-.33-.05-.37,0-.71.19-.93.41-.29.28-.53.77-.37,1.27.65,1.94,1.29,3.92,1.91,5.89,2.7,8.42,5.49,17.11,10.33,24.56,3.51,5.39,7.38,9.38,11.5,11.84,4.62,2.76,9.87,3.55,14.86,4,.77.06,1.55.12,2.32.18,2.08.16,4.23.33,6.33.68,1.27.2,2.51.54,3.72.88.62.17,1.23.34,1.85.49.17.04.3.17.36.33.59,1.92,1.1,3.93,1.5,5.97.88,4.47,1.01,9.08,1.14,13.54.09,3.02.17,6.15.5,9.19.87,8.18,2.81,14.18,6.09,18.84,4.04,5.74,10.16,9.96,17.71,12.22,4.16,1.25,8.65,2.07,12.98,2.38,2.15.15,4.27.05,6.61-.09l.67-.04c1.7-.1,3.46-.2,5.03-.74.12-.04.17-.14.18-.21.05-.2.21-.35.41-.38,2.55-.39,5.03-1.79,7.43-3.14,1.2-.67,2.34-1.32,3.49-1.84,4.79-2.17,10.53-3.43,17.06-3.72,3.15-.14,6.37-.17,9.47-.21,2.68-.03,5.45-.06,8.16-.16,2.81-.1,5.25-.25,7.48-.46,7.48.72,16.22-1.72,26.12-7.23,9.81-5.45,16.16-11.23,20-18.2,7.8-14.2,5.89-31.14,3.04-48.72l-.1-.61c-.03-.17.04-.35.17-.46.61-.52,1.22-1.03,1.83-1.52,2.49-2,4.67-3.79,6.66-5.49,3.73-3.18,8.45-7.54,11.88-13.07,3.87-6.22,6.44-13.15,8.25-18.48,2.12-6.26,3.68-12.47,4.64-18.47.67-4.2,1.01-7.47,1.11-10.59l.05-1.21c.07-1.87.15-3.81-.05-5.65-.02-.16.05-.33.17-.43.35-.29.55-.68.55-1.04Z"/>
    </clipPath>
    <linearGradient id="linear-gradient" x1="-373.16" y1="1033.76" x2="-372.16" y2="1033.76" gradientTransform="translate(-342080.52 123526.94) rotate(90) scale(331.03 -331.03)" gradientUnits="userSpaceOnUse">
      <stop offset="0" stop-color="#60c9b6"/>
      <stop offset=".02" stop-color="#60c9b6"/>
      <stop offset=".02" stop-color="#60c9b6"/>
      <stop offset=".03" stop-color="#60c9b7"/>
      <stop offset=".04" stop-color="#60c9b7"/>
      <stop offset=".05" stop-color="#60c9b8"/>
      <stop offset=".05" stop-color="#60c9b8"/>
      <stop offset=".06" stop-color="#60c9b8"/>
      <stop offset=".07" stop-color="#61c9b9"/>
      <stop offset=".07" stop-color="#61c9b9"/>
      <stop offset=".08" stop-color="#61c9b9"/>
      <stop offset=".09" stop-color="#61c9b9"/>
      <stop offset=".09" stop-color="#61c9ba"/>
      <stop offset=".11" stop-color="#61c9ba"/>
      <stop offset=".12" stop-color="#61c9bb"/>
      <stop offset=".12" stop-color="#61c9bb"/>
      <stop offset=".13" stop-color="#61c9bc"/>
      <stop offset=".14" stop-color="#61c9bc"/>
      <stop offset=".16" stop-color="#61c9bc"/>
      <stop offset=".16" stop-color="#61cabd"/>
      <stop offset=".16" stop-color="#61cabd"/>
      <stop offset=".17" stop-color="#61cabd"/>
      <stop offset=".18" stop-color="#61cabe"/>
      <stop offset=".19" stop-color="#61cabe"/>
      <stop offset=".2" stop-color="#61cabe"/>
      <stop offset=".2" stop-color="#61cabf"/>
      <stop offset=".22" stop-color="#61cabf"/>
      <stop offset=".23" stop-color="#61cac0"/>
      <stop offset=".24" stop-color="#61cac0"/>
      <stop offset=".25" stop-color="#61cac1"/>
      <stop offset=".26" stop-color="#61cac1"/>
      <stop offset=".27" stop-color="#62cac1"/>
      <stop offset=".27" stop-color="#62cac2"/>
      <stop offset=".28" stop-color="#62cac2"/>
      <stop offset=".3" stop-color="#62cac3"/>
      <stop offset=".31" stop-color="#62cac3"/>
      <stop offset=".33" stop-color="#62cac4"/>
      <stop offset=".34" stop-color="#62cac4"/>
      <stop offset=".34" stop-color="#62cac5"/>
      <stop offset=".35" stop-color="#62cac5"/>
      <stop offset=".35" stop-color="#62cac6"/>
      <stop offset=".36" stop-color="#62cac6"/>
      <stop offset=".38" stop-color="#62cac6"/>
      <stop offset=".38" stop-color="#62cac7"/>
      <stop offset=".39" stop-color="#62cac7"/>
      <stop offset=".41" stop-color="#62cac7"/>
      <stop offset=".41" stop-color="#63cbc8"/>
      <stop offset=".42" stop-color="#63cbc8"/>
      <stop offset=".43" stop-color="#62cbc8"/>
      <stop offset=".43" stop-color="#62cac8"/>
      <stop offset=".43" stop-color="#61cac7"/>
      <stop offset=".44" stop-color="#60cac6"/>
      <stop offset=".44" stop-color="#5fc9c6"/>
      <stop offset=".45" stop-color="#5ec9c5"/>
      <stop offset=".45" stop-color="#5ec9c5"/>
      <stop offset=".45" stop-color="#5dc9c4"/>
      <stop offset=".46" stop-color="#5cc8c4"/>
      <stop offset=".46" stop-color="#5bc8c3"/>
      <stop offset=".46" stop-color="#5ac8c3"/>
      <stop offset=".47" stop-color="#59c7c2"/>
      <stop offset=".47" stop-color="#58c7c2"/>
      <stop offset=".48" stop-color="#58c7c1"/>
      <stop offset=".48" stop-color="#56c6c0"/>
      <stop offset=".48" stop-color="#55c6c0"/>
      <stop offset=".49" stop-color="#54c6bf"/>
      <stop offset=".49" stop-color="#53c5bf"/>
      <stop offset=".5" stop-color="#52c5be"/>
      <stop offset=".5" stop-color="#51c5bd"/>
      <stop offset=".5" stop-color="#51c4bd"/>
      <stop offset=".51" stop-color="#50c4bc"/>
      <stop offset=".51" stop-color="#4fc4bb"/>
      <stop offset=".52" stop-color="#4ec3ba"/>
      <stop offset=".52" stop-color="#4dc3ba"/>
      <stop offset=".52" stop-color="#4cc3ba"/>
      <stop offset=".53" stop-color="#4bc3b9"/>
      <stop offset=".53" stop-color="#4bc2b8"/>
      <stop offset=".54" stop-color="#4ac1b7"/>
      <stop offset=".54" stop-color="#49c0b6"/>
      <stop offset=".54" stop-color="#48bfb5"/>
      <stop offset=".55" stop-color="#47beb4"/>
      <stop offset=".55" stop-color="#47bdb3"/>
      <stop offset=".55" stop-color="#46bcb2"/>
      <stop offset=".56" stop-color="#46bbb1"/>
      <stop offset=".56" stop-color="#45bab0"/>
      <stop offset=".57" stop-color="#44b9af"/>
      <stop offset=".57" stop-color="#44b8ae"/>
      <stop offset=".57" stop-color="#43b7ad"/>
      <stop offset=".58" stop-color="#43b6ac"/>
      <stop offset=".58" stop-color="#43b5ab"/>
      <stop offset=".59" stop-color="#42b3ab"/>
      <stop offset=".59" stop-color="#42b2aa"/>
      <stop offset=".59" stop-color="#41b1a9"/>
      <stop offset=".6" stop-color="#41b0a8"/>
      <stop offset=".6" stop-color="#41afa7"/>
      <stop offset=".61" stop-color="#40ada6"/>
      <stop offset=".61" stop-color="#40aca5"/>
      <stop offset=".61" stop-color="#3faba4"/>
      <stop offset=".62" stop-color="#3faaa3"/>
      <stop offset=".62" stop-color="#3ea8a2"/>
      <stop offset=".62" stop-color="#3ea7a1"/>
      <stop offset=".63" stop-color="#3da6a0"/>
      <stop offset=".63" stop-color="#3da59f"/>
      <stop offset=".64" stop-color="#3da49e"/>
      <stop offset=".64" stop-color="#3da39d"/>
      <stop offset=".64" stop-color="#3ca29c"/>
      <stop offset=".65" stop-color="#3ca19b"/>
      <stop offset=".65" stop-color="#3ba09a"/>
      <stop offset=".66" stop-color="#3a9e99"/>
      <stop offset=".66" stop-color="#3a9d98"/>
      <stop offset=".66" stop-color="#399c97"/>
      <stop offset=".67" stop-color="#399b96"/>
      <stop offset=".67" stop-color="#399a95"/>
      <stop offset=".68" stop-color="#389994"/>
      <stop offset=".68" stop-color="#379893"/>
      <stop offset=".68" stop-color="#379791"/>
      <stop offset=".69" stop-color="#379590"/>
      <stop offset=".69" stop-color="#36948f"/>
      <stop offset=".7" stop-color="#36948e"/>
      <stop offset=".7" stop-color="#36928d"/>
      <stop offset=".7" stop-color="#35918d"/>
      <stop offset=".71" stop-color="#35908b"/>
      <stop offset=".71" stop-color="#348f8a"/>
      <stop offset=".71" stop-color="#348e89"/>
      <stop offset=".72" stop-color="#348d88"/>
      <stop offset=".72" stop-color="#338b87"/>
      <stop offset=".73" stop-color="#338a86"/>
      <stop offset=".73" stop-color="#338984"/>
      <stop offset=".73" stop-color="#328783"/>
      <stop offset=".74" stop-color="#328682"/>
      <stop offset=".74" stop-color="#318581"/>
      <stop offset=".75" stop-color="#318480"/>
      <stop offset=".75" stop-color="#30837f"/>
      <stop offset=".75" stop-color="#30827e"/>
      <stop offset=".76" stop-color="#2f817d"/>
      <stop offset=".76" stop-color="#2f807c"/>
      <stop offset=".77" stop-color="#2e7e7b"/>
      <stop offset=".77" stop-color="#2e7d79"/>
      <stop offset=".77" stop-color="#2d7c78"/>
      <stop offset=".78" stop-color="#2d7b77"/>
      <stop offset=".78" stop-color="#2d7a76"/>
      <stop offset=".79" stop-color="#2d7875"/>
      <stop offset=".79" stop-color="#2c7774"/>
      <stop offset=".79" stop-color="#2c7673"/>
      <stop offset=".8" stop-color="#2b7571"/>
      <stop offset=".8" stop-color="#2b7470"/>
      <stop offset=".8" stop-color="#2b736f"/>
      <stop offset=".81" stop-color="#2a716e"/>
      <stop offset=".81" stop-color="#2a706c"/>
      <stop offset=".82" stop-color="#296f6b"/>
      <stop offset=".82" stop-color="#296e6a"/>
      <stop offset=".82" stop-color="#286c69"/>
      <stop offset=".83" stop-color="#286b68"/>
      <stop offset=".83" stop-color="#286a67"/>
      <stop offset=".84" stop-color="#286966"/>
      <stop offset=".84" stop-color="#276864"/>
      <stop offset=".84" stop-color="#276763"/>
      <stop offset=".85" stop-color="#276662"/>
      <stop offset=".85" stop-color="#266561"/>
      <stop offset=".86" stop-color="#266360"/>
      <stop offset=".86" stop-color="#26625f"/>
      <stop offset=".86" stop-color="#25615e"/>
      <stop offset=".87" stop-color="#25605d"/>
      <stop offset=".87" stop-color="#245f5b"/>
      <stop offset=".88" stop-color="#245e5a"/>
      <stop offset=".88" stop-color="#245d59"/>
      <stop offset=".88" stop-color="#235c58"/>
      <stop offset=".89" stop-color="#235a57"/>
      <stop offset=".89" stop-color="#225955"/>
      <stop offset=".89" stop-color="#225854"/>
      <stop offset=".9" stop-color="#225853"/>
      <stop offset=".9" stop-color="#225652"/>
      <stop offset=".91" stop-color="#225551"/>
      <stop offset=".91" stop-color="#215450"/>
      <stop offset=".91" stop-color="#21534f"/>
      <stop offset=".92" stop-color="#21524e"/>
      <stop offset=".92" stop-color="#20514c"/>
      <stop offset=".93" stop-color="#204f4b"/>
      <stop offset=".93" stop-color="#1f4e4a"/>
      <stop offset=".93" stop-color="#1f4d49"/>
      <stop offset=".94" stop-color="#1f4c48"/>
      <stop offset=".94" stop-color="#1f4b47"/>
      <stop offset=".95" stop-color="#1e4a46"/>
      <stop offset=".95" stop-color="#1e4945"/>
      <stop offset=".95" stop-color="#1e4843"/>
      <stop offset=".96" stop-color="#1e4742"/>
      <stop offset=".96" stop-color="#1e4641"/>
      <stop offset=".96" stop-color="#1d4540"/>
      <stop offset=".97" stop-color="#1d443f"/>
      <stop offset=".97" stop-color="#1d433e"/>
      <stop offset=".98" stop-color="#1c423d"/>
      <stop offset=".98" stop-color="#1c403b"/>
      <stop offset=".98" stop-color="#1c3f3a"/>
      <stop offset=".99" stop-color="#1c3e39"/>
      <stop offset=".99" stop-color="#1b3d38"/>
      <stop offset="1" stop-color="#1b3c37"/>
      <stop offset="1" stop-color="#1b3b36"/>
    </linearGradient>
  </defs>
  <g id="Elements">
    <g class="cls-5">
      <g class="cls-2">
        <g class="cls-3">
          <path class="cls-4" d="M244.01.04H.42v333.3h243.59V.04Z"/>
        </g>
      </g>
    </g>
  </g>
</svg>