<?xml version="1.0" encoding="UTF-8"?>
<svg id="Layer_2" data-name="Layer 2" xmlns="http://www.w3.org/2000/svg" xmlns:xlink="http://www.w3.org/1999/xlink" viewBox="0 0 332.12 399.84">
  <defs>
    <style>
      .cls-1 {
        fill: none;
      }

      .cls-2 {
        clip-path: url(#clippath-1);
      }

      .cls-3 {
        clip-path: url(#clippath-2);
      }

      .cls-4 {
        fill: url(#linear-gradient);
      }

      .cls-5 {
        clip-path: url(#clippath);
      }
    </style>
    <clipPath id="clippath">
      <rect class="cls-1" x=".14" width="331.91" height="399.27"/>
    </clipPath>
    <clipPath id="clippath-1">
      <path class="cls-1" d="M131.6,53.51c-.15-.96-.48-3.56-.99-6.12-.25-1.25-2.07-2.36-3.41-2.3-1.21.06-2.25.5-2.97,1.55-1.87,2.72-2.98,5.75-3.02,9.03-.05,5.31-1.06,10.46-2.15,15.62-.31,1.43-.58,2.87-.78,4.32-.21,1.45-.22,2.91.98,4.05.84.8,2.91.07,4.47-1.8,1.3-1.56,2.59-3.19,3.58-4.96,3.05-5.5,4.21-11.49,4.29-19.39ZM163.14,62.67h.21c0-3.81.06-7.62-.02-11.43-.05-2.38-.79-4.61-2.07-6.65-.85-1.36-2.16-1.98-3.69-1.98-3.16.01-5.9,2.03-6.47,4.93-.33,1.7-.54,3.53-.24,5.21,1.03,5.77,2.21,11.51,3.55,17.21.46,1.95,1.48,3.81,2.41,5.61.38.74,1.19,1.26,1.83,1.84,1.09,1,3.27.53,3.68-.83.34-1.09.74-2.23.77-3.37.1-3.52.04-7.03.04-10.56ZM154.33,161.03h.16c0,3.81-.06,7.62.03,11.42.03,1.45.31,2.89.64,4.31.07.31.83.5,1.3.64.15.04.54-.24.59-.44.31-1.11.7-2.24.8-3.37.77-8.74,1.6-17.49,1.35-26.3-.21-7.33.39-14.61,1.51-21.87,1.3-8.41,1.36-16.93.83-25.42-.14-2.28-.81-4.59-1.54-6.8-1.09-3.29-3.44-5.05-6.89-6.04-3.64-1.04-6.96-.38-10.33.5-7.36,1.93-12.18,6.76-14.75,13.8-2.54,6.93-2.43,24.29.05,31.23,1.21,3.37,3.76,4.29,6.74,2.42.74-.47,1.39-1.08,2.15-1.51,1.73-1,3.55-.93,4.74.6,1.52,1.96,2.9,3.4,5.77,3.07,2.56-.3,4.32,1.39,5.33,3.77,1.06,2.46,1.49,5.05,1.51,7.7.03,4.1,0,8.2,0,12.29ZM3.71,195.5c.96-9.12.02-18.19-1.09-27.2-.9-7.31-1.03-14.61-1.3-21.94-.33-9.08-.85-18.16-1.07-27.24-.24-10.07,1.39-19.91,5.09-29.27,2.88-7.3,9.59-10.3,17.21-8.32,4.68,1.21,8.63,3.71,12.11,6.89,4.55,4.15,8.88,8.53,13.27,12.85,4.8,4.74,9.54,9.54,14.37,14.24,1.68,1.64,3.5,3.13,5.32,4.61,5.56,4.53,5.56,4.46,12.68,2.47,1.51-.43,2.73-1.08,3.55-2.32,1.12-1.71,2.25-3.44,3.1-5.3,5.27-11.45,10.55-22.9,15.64-34.42,1.41-3.2,2.3-6.64,3.25-10.01.45-1.57-1.12-3.71-2.71-3.99-1.44-.26-2.9-.43-4.35-.54-2.34-.19-4.69-.21-7.02-.43-6.54-.63-11.74-3.41-15.01-9.34-.99-1.78-2.15-3.49-3.32-5.18-2.31-3.36-5.62-5.12-9.6-5.5-2.62-.24-5.27-.22-7.91-.21-5.06.06-9.88-1.15-14.65-2.67-1.08-.34-2.07-1.06-3.04-1.7-1.08-.7-.95-3.14.18-3.82.74-.44,1.52-1.03,2.32-1.1,2.32-.18,4.69-.38,6.99-.14,4.01.42,7.52-.61,10.85-2.73,2.22-1.43,4.53-2.72,6.77-4.1,8.1-4.97,16.59-5.21,25.36-2.12,2.21.77,4.42,1.58,6.59,2.46,3.05,1.24,5.83.61,8.2-1.43,3.1-2.68,6.09-5.49,9.01-8.37,3.55-3.5,6.94-7.16,10.44-10.71,2.69-2.74,5.8-4.93,9.14-6.8,3.35-1.86,6.72-1.83,10.12-.3,4.07,1.83,7.62,4.47,10.62,7.71,6.58,7.13,12.56,14.69,17.11,23.33,5.57,10.6,8.01,21.98,8.77,33.79.63,9.67,1.71,19.28,3.53,28.79.44,2.29.98,4.6,1.77,6.79,3.47,9.72,11.41,15.4,22.91,12.74,9.64-2.22,17.91-7.2,24.15-15.13,3.1-3.94,5.51-8.31,7.38-12.95,1.31-3.27,2.47-6.59,3.78-9.86,1.08-2.72,2.16-5.46,3.44-8.08,5.91-12.07,15.5-18.82,28.99-19.81,2.34-.18,4.69-.21,7.04-.14,9.43.26,18.73-.66,27.9-2.95,3.41-.85,6.91-1.33,10.36-1.96.58-.11,1.16-.21,1.74-.23,2.69-.13,5.46-.15,6.97,2.59,1.46,2.67.2,5.16-1.17,7.44-1.7,2.83-4.22,4.88-7.05,6.48-2.3,1.29-4.71,2.37-7.09,3.5-2.38,1.12-4.83,2.12-7.2,3.28-5.53,2.73-9.45,7.01-11.25,12.9-1.36,4.46-2.65,9.04-3.15,13.66-1.02,9.35-.96,18.76.54,28.08,1.51,9.41,1.35,18.74-1.04,27.93-2.02,7.77-2.6,15.57-1.98,23.54.36,4.68.37,9.38.48,14.07.09,3.55-.61,6.99-1.56,10.41-1.29,4.66-3.7,8.59-7.24,11.83-1.29,1.19-2.65,2.31-4.02,3.42-2.61,2.12-4.29,4.72-4.78,8.12-.24,1.73-.71,3.45-1.29,5.09-1.34,3.82-3.81,5.5-7.97,5.69-2.98.14-5.84-.27-8.56-1.57-3.17-1.51-6.35-3.03-9.53-4.52-5.47-2.57-9.04-4.38-13.5,4.18-1.76,3.38-3.41,6.81-4.94,10.31-2.15,4.9-5.09,9.23-8.94,12.93-1.48,1.43-2.88,2.93-4.27,4.43-3.99,4.29-5.86,9.4-5.67,15.25.05,1.76.23,3.53.17,5.27-.03,1.15-.33,2.31-.62,3.44-.49,1.95-2.54,3.3-4.68,3.22-1.82-.06-3.44-.59-4.87-1.73-2.12-1.69-3.64-3.79-4.56-6.33-1.1-3.08-1.62-6.23-1.7-9.49-.14-6.17.07-12.3,1.24-18.39.1-.51-.22-1.11-.34-1.67-.59.5-1.27.93-1.76,1.51-.36.42-.54,1.04-.7,1.59-.64,2.25-1.32,4.5-1.86,6.78-3.48,14.7-4.45,29.65-2.51,44.57,2.01,15.53.43,30.38-5.63,44.8-1.72,4.08-2.69,8.36-2.55,12.85.2,6.32-1.6,12.16-4.68,17.63-2.02,3.58-3.87,7.18-4.88,11.25-1.03,4.12-3.63,7.32-7.38,9.45-1,.58-2.11,1.01-3.22,1.34-2.78.83-5.54-.8-6.03-3.53-.2-1.15-.4-2.34-.32-3.49.2-2.92.5-5.83.86-8.74.33-2.62.63-5.25,1.23-7.81,1.41-6.05.45-11.57-2.88-16.85-1.38-2.19-1.94-4.88-3.04-7.28-.47-1.03-1.19-2.06-2.07-2.72-.51-.38-1.82-.34-2.33.06-.87.68-1.43,1.79-2.06,2.75-.64.98-1.1,2.08-1.83,2.98-1.85,2.3-5.78,2.68-7.9.63-1.21-1.18-2.23-2.72-2.88-4.3-1.25-3.02-1.45-6.27-.97-9.52.55-3.78-.54-7-3.43-9.49-4.61-3.96-4.87-9.12-4.03-14.53.64-4.05,1.67-8.03,2.29-12.08.21-1.37-.29-2.83-.53-4.25-.04-.22-.37-.41-.59-.61-.5-.44-1.02-.35-1.38.34-1.62,3.11-3.37,6.18-4.77,9.39-.67,1.55-.86,3.39-.93,5.1-.07,1.75.37,3.5.41,5.25.09,3.54-1.64,6.12-4.52,8.03-1.58,1.04-3.95.53-4.36-1.16-1.17-4.93-3.15-9.43-6.32-13.41-2.12-2.66-2.76-5.78-2.47-9.11.15-1.76.2-3.54.61-5.24,1.3-5.31-.39-9.92-3.49-14.01-2.1-2.78-4.7-5.22-7.24-7.65-1.91-1.82-4.09-3.33-6.12-5.02-4.16-3.45-7.2-7.73-8.77-12.91-1.28-4.2-2.28-8.48-3.44-12.71-.93-3.39-1.74-6.82-2.94-10.1-1.15-3.17-3.74-4.25-7.12-3.59-3.6.7-6.44,2.72-9.05,5.13-1.93,1.8-3.7,3.79-5.71,5.48-3.04,2.57-6.68,2.49-9.5-.36-2.04-2.06-3.69-4.52-5.48-6.83-1.79-2.3-3.51-4.66-5.33-6.94-.73-.92-2.29-1.08-3.19-.48-1.46.98-2.78,2.22-4.34,2.99-1.54.75-3.27,1.24-4.97,1.48-1.84.24-3.44-.66-4.58-2.13-1.46-1.9-2.38-4.05-2.66-6.43-.41-3.49-.94-6.99-1.03-10.51-.16-6.44-.05-12.89-.05-19.35Z"/>
    </clipPath>
    <clipPath id="clippath-2">
      <path class="cls-1" d="M131.6,53.51c-.15-.96-.48-3.56-.99-6.12-.25-1.25-2.07-2.36-3.41-2.3-1.21.06-2.25.5-2.97,1.55-1.87,2.72-2.98,5.75-3.02,9.03-.05,5.31-1.06,10.46-2.15,15.62-.31,1.43-.58,2.87-.78,4.32-.21,1.45-.22,2.91.98,4.05.84.8,2.91.07,4.47-1.8,1.3-1.56,2.59-3.19,3.58-4.96,3.05-5.5,4.21-11.49,4.29-19.39ZM163.14,62.67h.21c0-3.81.06-7.62-.02-11.43-.05-2.38-.79-4.61-2.07-6.65-.85-1.36-2.16-1.98-3.69-1.98-3.16.01-5.9,2.03-6.47,4.93-.33,1.7-.54,3.53-.24,5.21,1.03,5.77,2.21,11.51,3.55,17.21.46,1.95,1.48,3.81,2.41,5.61.38.74,1.19,1.26,1.83,1.84,1.09,1,3.27.53,3.68-.83.34-1.09.74-2.23.77-3.37.1-3.52.04-7.03.04-10.56ZM154.33,161.03h.16c0,3.81-.06,7.62.03,11.42.03,1.45.31,2.89.64,4.31.07.31.83.5,1.3.64.15.04.54-.24.59-.44.31-1.11.7-2.24.8-3.37.77-8.74,1.6-17.49,1.35-26.3-.21-7.33.39-14.61,1.51-21.87,1.3-8.41,1.36-16.93.83-25.42-.14-2.28-.81-4.59-1.54-6.8-1.09-3.29-3.44-5.05-6.89-6.04-3.64-1.04-6.96-.38-10.33.5-7.36,1.93-12.18,6.76-14.75,13.8-2.54,6.93-2.43,24.29.05,31.23,1.21,3.37,3.76,4.29,6.74,2.42.74-.47,1.39-1.08,2.15-1.51,1.73-1,3.55-.93,4.74.6,1.52,1.96,2.9,3.4,5.77,3.07,2.56-.3,4.32,1.39,5.33,3.77,1.06,2.46,1.49,5.05,1.51,7.7.03,4.1,0,8.2,0,12.29ZM3.71,195.5c.96-9.12.02-18.19-1.09-27.2-.9-7.31-1.03-14.61-1.3-21.94-.33-9.08-.85-18.16-1.07-27.24-.24-10.07,1.39-19.91,5.09-29.27,2.88-7.3,9.59-10.3,17.21-8.32,4.68,1.21,8.63,3.71,12.11,6.89,4.55,4.15,8.88,8.53,13.27,12.85,4.8,4.74,9.54,9.54,14.37,14.24,1.68,1.64,3.5,3.13,5.32,4.61,5.56,4.53,5.56,4.46,12.68,2.47,1.51-.43,2.73-1.08,3.55-2.32,1.12-1.71,2.25-3.44,3.1-5.3,5.27-11.45,10.55-22.9,15.64-34.42,1.41-3.2,2.3-6.64,3.25-10.01.45-1.57-1.12-3.71-2.71-3.99-1.44-.26-2.9-.43-4.35-.54-2.34-.19-4.69-.21-7.02-.43-6.54-.63-11.74-3.41-15.01-9.34-.99-1.78-2.15-3.49-3.32-5.18-2.31-3.36-5.62-5.12-9.6-5.5-2.62-.24-5.27-.22-7.91-.21-5.06.06-9.88-1.15-14.65-2.67-1.08-.34-2.07-1.06-3.04-1.7-1.08-.7-.95-3.14.18-3.82.74-.44,1.52-1.03,2.32-1.1,2.32-.18,4.69-.38,6.99-.14,4.01.42,7.52-.61,10.85-2.73,2.22-1.43,4.53-2.72,6.77-4.1,8.1-4.97,16.59-5.21,25.36-2.12,2.21.77,4.42,1.58,6.59,2.46,3.05,1.24,5.83.61,8.2-1.43,3.1-2.68,6.09-5.49,9.01-8.37,3.55-3.5,6.94-7.16,10.44-10.71,2.69-2.74,5.8-4.93,9.14-6.8,3.35-1.86,6.72-1.83,10.12-.3,4.07,1.83,7.62,4.47,10.62,7.71,6.58,7.13,12.56,14.69,17.11,23.33,5.57,10.6,8.01,21.98,8.77,33.79.63,9.67,1.71,19.28,3.53,28.79.44,2.29.98,4.6,1.77,6.79,3.47,9.72,11.41,15.4,22.91,12.74,9.64-2.22,17.91-7.2,24.15-15.13,3.1-3.94,5.51-8.31,7.38-12.95,1.31-3.27,2.47-6.59,3.78-9.86,1.08-2.72,2.16-5.46,3.44-8.08,5.91-12.07,15.5-18.82,28.99-19.81,2.34-.18,4.69-.21,7.04-.14,9.43.26,18.73-.66,27.9-2.95,3.41-.85,6.91-1.33,10.36-1.96.58-.11,1.16-.21,1.74-.23,2.69-.13,5.46-.15,6.97,2.59,1.46,2.67.2,5.16-1.17,7.44-1.7,2.83-4.22,4.88-7.05,6.48-2.3,1.29-4.71,2.37-7.09,3.5-2.38,1.12-4.83,2.12-7.2,3.28-5.53,2.73-9.45,7.01-11.25,12.9-1.36,4.46-2.65,9.04-3.15,13.66-1.02,9.35-.96,18.76.54,28.08,1.51,9.41,1.35,18.74-1.04,27.93-2.02,7.77-2.6,15.57-1.98,23.54.36,4.68.37,9.38.48,14.07.09,3.55-.61,6.99-1.56,10.41-1.29,4.66-3.7,8.59-7.24,11.83-1.29,1.19-2.65,2.31-4.02,3.42-2.61,2.12-4.29,4.72-4.78,8.12-.24,1.73-.71,3.45-1.29,5.09-1.34,3.82-3.81,5.5-7.97,5.69-2.98.14-5.84-.27-8.56-1.57-3.17-1.51-6.35-3.03-9.53-4.52-5.47-2.57-9.04-4.38-13.5,4.18-1.76,3.38-3.41,6.81-4.94,10.31-2.15,4.9-5.09,9.23-8.94,12.93-1.48,1.43-2.88,2.93-4.27,4.43-3.99,4.29-5.86,9.4-5.67,15.25.05,1.76.23,3.53.17,5.27-.03,1.15-.33,2.31-.62,3.44-.49,1.95-2.54,3.3-4.68,3.22-1.82-.06-3.44-.59-4.87-1.73-2.12-1.69-3.64-3.79-4.56-6.33-1.1-3.08-1.62-6.23-1.7-9.49-.14-6.17.07-12.3,1.24-18.39.1-.51-.22-1.11-.34-1.67-.59.5-1.27.93-1.76,1.51-.36.42-.54,1.04-.7,1.59-.64,2.25-1.32,4.5-1.86,6.78-3.48,14.7-4.45,29.65-2.51,44.57,2.01,15.53.43,30.38-5.63,44.8-1.72,4.08-2.69,8.36-2.55,12.85.2,6.32-1.6,12.16-4.68,17.63-2.02,3.58-3.87,7.18-4.88,11.25-1.03,4.12-3.63,7.32-7.38,9.45-1,.58-2.11,1.01-3.22,1.34-2.78.83-5.54-.8-6.03-3.53-.2-1.15-.4-2.34-.32-3.49.2-2.92.5-5.83.86-8.74.33-2.62.63-5.25,1.23-7.81,1.41-6.05.45-11.57-2.88-16.85-1.38-2.19-1.94-4.88-3.04-7.28-.47-1.03-1.19-2.06-2.07-2.72-.51-.38-1.82-.34-2.33.06-.87.68-1.43,1.79-2.06,2.75-.64.98-1.1,2.08-1.83,2.98-1.85,2.3-5.78,2.68-7.9.63-1.21-1.18-2.23-2.72-2.88-4.3-1.25-3.02-1.45-6.27-.97-9.52.55-3.78-.54-7-3.43-9.49-4.61-3.96-4.87-9.12-4.03-14.53.64-4.05,1.67-8.03,2.29-12.08.21-1.37-.29-2.83-.53-4.25-.04-.22-.37-.41-.59-.61-.5-.44-1.02-.35-1.38.34-1.62,3.11-3.37,6.18-4.77,9.39-.67,1.55-.86,3.39-.93,5.1-.07,1.75.37,3.5.41,5.25.09,3.54-1.64,6.12-4.52,8.03-1.58,1.04-3.95.53-4.36-1.16-1.17-4.93-3.15-9.43-6.32-13.41-2.12-2.66-2.76-5.78-2.47-9.11.15-1.76.2-3.54.61-5.24,1.3-5.31-.39-9.92-3.49-14.01-2.1-2.78-4.7-5.22-7.24-7.65-1.91-1.82-4.09-3.33-6.12-5.02-4.16-3.45-7.2-7.73-8.77-12.91-1.28-4.2-2.28-8.48-3.44-12.71-.93-3.39-1.74-6.82-2.94-10.1-1.15-3.17-3.74-4.25-7.12-3.59-3.6.7-6.44,2.72-9.05,5.13-1.93,1.8-3.7,3.79-5.71,5.48-3.04,2.57-6.68,2.49-9.5-.36-2.04-2.06-3.69-4.52-5.48-6.83-1.79-2.3-3.51-4.66-5.33-6.94-.73-.92-2.29-1.08-3.19-.48-1.46.98-2.78,2.22-4.34,2.99-1.54.75-3.27,1.24-4.97,1.48-1.84.24-3.44-.66-4.58-2.13-1.46-1.9-2.38-4.05-2.66-6.43-.41-3.49-.94-6.99-1.03-10.51-.16-6.44-.05-12.89-.05-19.35Z"/>
    </clipPath>
    <linearGradient id="linear-gradient" x1="-648.12" y1="1044.22" x2="-647.15" y2="1044.22" gradientTransform="translate(-426118.33 264586.26) rotate(90) scale(408.23 -408.23)" gradientUnits="userSpaceOnUse">
      <stop offset="0" stop-color="#60c9b6"/>
      <stop offset=".02" stop-color="#60c9b6"/>
      <stop offset=".02" stop-color="#60c9b6"/>
      <stop offset=".03" stop-color="#60c9b7"/>
      <stop offset=".03" stop-color="#60c9b7"/>
      <stop offset=".04" stop-color="#60c9b7"/>
      <stop offset=".05" stop-color="#60c9b8"/>
      <stop offset=".05" stop-color="#60c9b8"/>
      <stop offset=".06" stop-color="#60c9b8"/>
      <stop offset=".07" stop-color="#60c9b9"/>
      <stop offset=".07" stop-color="#61c9b9"/>
      <stop offset=".08" stop-color="#61c9b9"/>
      <stop offset=".09" stop-color="#61c9b9"/>
      <stop offset=".09" stop-color="#61c9ba"/>
      <stop offset=".11" stop-color="#61c9ba"/>
      <stop offset=".12" stop-color="#61c9bb"/>
      <stop offset=".12" stop-color="#61c9bb"/>
      <stop offset=".12" stop-color="#61c9bc"/>
      <stop offset=".13" stop-color="#61c9bc"/>
      <stop offset=".14" stop-color="#61c9bc"/>
      <stop offset=".16" stop-color="#61c9bc"/>
      <stop offset=".16" stop-color="#61cabd"/>
      <stop offset=".17" stop-color="#61cabd"/>
      <stop offset=".18" stop-color="#61cabe"/>
      <stop offset=".19" stop-color="#61cabe"/>
      <stop offset=".2" stop-color="#61cabe"/>
      <stop offset=".2" stop-color="#61cabf"/>
      <stop offset=".22" stop-color="#61cabf"/>
      <stop offset=".23" stop-color="#61cac0"/>
      <stop offset=".24" stop-color="#61cac0"/>
      <stop offset=".25" stop-color="#61cac1"/>
      <stop offset=".26" stop-color="#61cac1"/>
      <stop offset=".27" stop-color="#62cac1"/>
      <stop offset=".27" stop-color="#62cac2"/>
      <stop offset=".28" stop-color="#62cac2"/>
      <stop offset=".3" stop-color="#62cac3"/>
      <stop offset=".31" stop-color="#62cac3"/>
      <stop offset=".33" stop-color="#62cac4"/>
      <stop offset=".34" stop-color="#62cac4"/>
      <stop offset=".34" stop-color="#62cac5"/>
      <stop offset=".35" stop-color="#62cac5"/>
      <stop offset=".35" stop-color="#62cac6"/>
      <stop offset=".36" stop-color="#62cac6"/>
      <stop offset=".38" stop-color="#62cac6"/>
      <stop offset=".38" stop-color="#62cac7"/>
      <stop offset=".39" stop-color="#62cac7"/>
      <stop offset=".41" stop-color="#62cac7"/>
      <stop offset=".41" stop-color="#63cbc8"/>
      <stop offset=".42" stop-color="#63cbc8"/>
      <stop offset=".43" stop-color="#62cbc8"/>
      <stop offset=".43" stop-color="#62cac8"/>
      <stop offset=".43" stop-color="#61cac7"/>
      <stop offset=".44" stop-color="#60cac6"/>
      <stop offset=".44" stop-color="#5fc9c6"/>
      <stop offset=".45" stop-color="#5ec9c5"/>
      <stop offset=".45" stop-color="#5ec9c5"/>
      <stop offset=".45" stop-color="#5dc9c4"/>
      <stop offset=".46" stop-color="#5cc8c4"/>
      <stop offset=".46" stop-color="#5bc8c3"/>
      <stop offset=".46" stop-color="#5ac8c3"/>
      <stop offset=".47" stop-color="#59c7c2"/>
      <stop offset=".47" stop-color="#58c7c2"/>
      <stop offset=".48" stop-color="#58c7c1"/>
      <stop offset=".48" stop-color="#56c6c0"/>
      <stop offset=".48" stop-color="#55c6c0"/>
      <stop offset=".49" stop-color="#54c6bf"/>
      <stop offset=".49" stop-color="#53c5bf"/>
      <stop offset=".5" stop-color="#52c5be"/>
      <stop offset=".5" stop-color="#51c5bd"/>
      <stop offset=".5" stop-color="#51c4bd"/>
      <stop offset=".51" stop-color="#50c4bc"/>
      <stop offset=".51" stop-color="#4fc4bb"/>
      <stop offset=".52" stop-color="#4ec3ba"/>
      <stop offset=".52" stop-color="#4dc3ba"/>
      <stop offset=".52" stop-color="#4cc3ba"/>
      <stop offset=".53" stop-color="#4bc2b9"/>
      <stop offset=".53" stop-color="#4bc2b8"/>
      <stop offset=".54" stop-color="#4ac1b7"/>
      <stop offset=".54" stop-color="#48c0b6"/>
      <stop offset=".54" stop-color="#48bfb5"/>
      <stop offset=".55" stop-color="#47beb4"/>
      <stop offset=".55" stop-color="#47bdb3"/>
      <stop offset=".55" stop-color="#46bcb2"/>
      <stop offset=".56" stop-color="#46bbb1"/>
      <stop offset=".56" stop-color="#45bab0"/>
      <stop offset=".57" stop-color="#44b9af"/>
      <stop offset=".57" stop-color="#43b8ae"/>
      <stop offset=".57" stop-color="#43b7ad"/>
      <stop offset=".58" stop-color="#43b6ac"/>
      <stop offset=".58" stop-color="#42b4ab"/>
      <stop offset=".59" stop-color="#42b3aa"/>
      <stop offset=".59" stop-color="#42b2a9"/>
      <stop offset=".59" stop-color="#41b1a8"/>
      <stop offset=".6" stop-color="#41b0a8"/>
      <stop offset=".6" stop-color="#40aea7"/>
      <stop offset=".61" stop-color="#40ada6"/>
      <stop offset=".61" stop-color="#40aca5"/>
      <stop offset=".61" stop-color="#3faba4"/>
      <stop offset=".62" stop-color="#3faaa3"/>
      <stop offset=".62" stop-color="#3ea8a2"/>
      <stop offset=".62" stop-color="#3ea7a1"/>
      <stop offset=".63" stop-color="#3da6a0"/>
      <stop offset=".63" stop-color="#3da59f"/>
      <stop offset=".64" stop-color="#3da49e"/>
      <stop offset=".64" stop-color="#3da39d"/>
      <stop offset=".64" stop-color="#3ca29c"/>
      <stop offset=".65" stop-color="#3ca19b"/>
      <stop offset=".65" stop-color="#3ba09a"/>
      <stop offset=".66" stop-color="#3a9e99"/>
      <stop offset=".66" stop-color="#3a9d98"/>
      <stop offset=".66" stop-color="#399c97"/>
      <stop offset=".67" stop-color="#399b96"/>
      <stop offset=".67" stop-color="#399a95"/>
      <stop offset=".68" stop-color="#389994"/>
      <stop offset=".68" stop-color="#379893"/>
      <stop offset=".68" stop-color="#379691"/>
      <stop offset=".69" stop-color="#379590"/>
      <stop offset=".69" stop-color="#36948f"/>
      <stop offset=".7" stop-color="#36938e"/>
      <stop offset=".7" stop-color="#35928d"/>
      <stop offset=".7" stop-color="#35918c"/>
      <stop offset=".71" stop-color="#35908b"/>
      <stop offset=".71" stop-color="#348f8a"/>
      <stop offset=".71" stop-color="#348e89"/>
      <stop offset=".72" stop-color="#348c88"/>
      <stop offset=".72" stop-color="#338b87"/>
      <stop offset=".73" stop-color="#338a86"/>
      <stop offset=".73" stop-color="#338884"/>
      <stop offset=".73" stop-color="#328783"/>
      <stop offset=".74" stop-color="#328682"/>
      <stop offset=".74" stop-color="#318581"/>
      <stop offset=".75" stop-color="#318480"/>
      <stop offset=".75" stop-color="#30837f"/>
      <stop offset=".75" stop-color="#2f827e"/>
      <stop offset=".76" stop-color="#2f817d"/>
      <stop offset=".76" stop-color="#2e7f7c"/>
      <stop offset=".77" stop-color="#2e7e7a"/>
      <stop offset=".77" stop-color="#2e7d79"/>
      <stop offset=".77" stop-color="#2d7c78"/>
      <stop offset=".78" stop-color="#2d7b77"/>
      <stop offset=".78" stop-color="#2d7976"/>
      <stop offset=".79" stop-color="#2d7875"/>
      <stop offset=".79" stop-color="#2c7773"/>
      <stop offset=".79" stop-color="#2c7672"/>
      <stop offset=".8" stop-color="#2b7571"/>
      <stop offset=".8" stop-color="#2b7370"/>
      <stop offset=".8" stop-color="#2b726f"/>
      <stop offset=".81" stop-color="#2a716d"/>
      <stop offset=".81" stop-color="#2a706c"/>
      <stop offset=".82" stop-color="#296f6b"/>
      <stop offset=".82" stop-color="#296d6a"/>
      <stop offset=".82" stop-color="#286c69"/>
      <stop offset=".83" stop-color="#286b68"/>
      <stop offset=".83" stop-color="#286a66"/>
      <stop offset=".84" stop-color="#286965"/>
      <stop offset=".84" stop-color="#276864"/>
      <stop offset=".84" stop-color="#276763"/>
      <stop offset=".85" stop-color="#266562"/>
      <stop offset=".85" stop-color="#266461"/>
      <stop offset=".86" stop-color="#266360"/>
      <stop offset=".86" stop-color="#25625f"/>
      <stop offset=".86" stop-color="#25615d"/>
      <stop offset=".87" stop-color="#24605c"/>
      <stop offset=".87" stop-color="#245f5b"/>
      <stop offset=".88" stop-color="#245d5a"/>
      <stop offset=".88" stop-color="#235c59"/>
      <stop offset=".88" stop-color="#235b57"/>
      <stop offset=".89" stop-color="#235a56"/>
      <stop offset=".89" stop-color="#225955"/>
      <stop offset=".89" stop-color="#225854"/>
      <stop offset=".9" stop-color="#225753"/>
      <stop offset=".9" stop-color="#225652"/>
      <stop offset=".91" stop-color="#215451"/>
      <stop offset=".91" stop-color="#215450"/>
      <stop offset=".91" stop-color="#21534e"/>
      <stop offset=".92" stop-color="#21514d"/>
      <stop offset=".92" stop-color="#20504c"/>
      <stop offset=".93" stop-color="#204f4b"/>
      <stop offset=".93" stop-color="#1f4e4a"/>
      <stop offset=".93" stop-color="#1f4d48"/>
      <stop offset=".94" stop-color="#1f4c47"/>
      <stop offset=".94" stop-color="#1f4b46"/>
      <stop offset=".95" stop-color="#1e4a46"/>
      <stop offset=".95" stop-color="#1e4944"/>
      <stop offset=".95" stop-color="#1e4843"/>
      <stop offset=".96" stop-color="#1e4742"/>
      <stop offset=".96" stop-color="#1e4641"/>
      <stop offset=".96" stop-color="#1d4440"/>
      <stop offset=".97" stop-color="#1d433e"/>
      <stop offset=".97" stop-color="#1d423d"/>
      <stop offset=".98" stop-color="#1c413c"/>
      <stop offset=".98" stop-color="#1c403b"/>
      <stop offset=".98" stop-color="#1c3f3a"/>
      <stop offset=".99" stop-color="#1c3e39"/>
      <stop offset=".99" stop-color="#1b3d38"/>
      <stop offset="1" stop-color="#1b3c37"/>
      <stop offset="1" stop-color="#1b3b36"/>
    </linearGradient>
  </defs>
  <g id="Elements">
    <g class="cls-5">
      <g class="cls-2">
        <g class="cls-3">
          <path class="cls-4" d="M332.12.26H0v399.57h332.12V.26Z"/>
        </g>
      </g>
    </g>
  </g>
</svg>