<?xml version="1.0" encoding="UTF-8"?>
<svg id="Layer_2" data-name="Layer 2" xmlns="http://www.w3.org/2000/svg" xmlns:xlink="http://www.w3.org/1999/xlink" viewBox="0 0 322.18 294.25">
  <defs>
    <style>
      .cls-1 {
        fill: none;
      }

      .cls-2 {
        clip-path: url(#clippath-1);
      }

      .cls-3 {
        clip-path: url(#clippath-2);
      }

      .cls-4 {
        fill: url(#linear-gradient);
      }

      .cls-5 {
        clip-path: url(#clippath);
      }
    </style>
    <clipPath id="clippath">
      <rect class="cls-1" y=".52" width="322.18" height="293.73"/>
    </clipPath>
    <clipPath id="clippath-1">
      <path class="cls-1" d="M233.98,111.11c-.09.05-.19.07-.28.07-.19,0-.36-.09-.47-.25-.17-.26-.09-.6.16-.76,8.96-5.76,17-12.85,23.88-21.08,6.9-8.25,12.67-17.42,17.99-26.1.08-.14.25-.24.41-.24h0c.17.01.34.11.42.26.08.15.07.35-.02.49-5.26,8.74-10.99,17.98-17.9,26.37-7.16,8.69-15.3,15.83-24.21,21.25ZM224.75,91.47c-1.15.1-2.31.15-3.47.15-6.58,0-13.44-1.54-20.01-4.53-17.99-8.17-31.68-22.72-43.09-35.71-.16-.19-.14-.53.04-.7.18-.16.52-.15.69.04,6.15,6.74,13.38,14.49,21.35,21.21,16.6,14,32.45,19.96,47.12,17.75,13.43-2.03,26.28-10.12,40.44-25.48.21-.23.56-.25.8-.04.24.22.26.58.05.82-7.76,8.65-14.78,14.7-22.11,19.09-7.21,4.3-14.55,6.79-21.8,7.4ZM281.65,123.03c2.79-11.16,5.68-22.7,10.5-33.59.06-.16.23-.28.39-.29s.37.06.47.19c.1.14.12.35.06.5-4.12,9.68-6.68,20.05-9.16,30.08-.35,1.45-.71,2.89-1.07,4.33-1.31,5.22-2.86,11.3-4.75,17.2-1.84,5.75-3.73,11.31-6.58,16.22-.12.21-.33.32-.56.32-.11,0-.21-.02-.32-.07-.31-.16-.44-.49-.31-.8l1.06-2.51c1.97-4.65,4.01-9.47,5.57-14.43,1.82-5.75,3.32-11.63,4.7-17.15ZM306.99,15.58c-.07.08-.13.14-.16.16-3.76,3.66-5.82,9.05-7.63,13.81-.11.28-.42.42-.7.32-.24-.09-.39-.44-.3-.67,2.08-5.63,4.45-12,9.61-15.91.19-.15.45-.16.67-.04.22.12.35.35.33.59-1.76,17.72-6.5,35.19-11.08,52.08l-1.15,4.24c-.07.28-.31.46-.58.46-.05,0-.1-.01-.15-.02-.34-.08-.54-.42-.46-.75,1.18-5.11,2.49-10.28,3.75-15.27,1.92-7.59,3.9-15.43,5.49-23.22.73-3.59,1.29-6.58,1.76-9.43.32-1.93.6-3.83.84-5.64.01-.1.04-.25.07-.41.03-.18.09-.48.12-.74-.12.11-.26.25-.43.43ZM143.22,72.66c-.39,1.9-1.06,4.23-2.69,5.46-.49.36-1.04.55-1.63.55-.2,0-.39-.02-.6-.06-1.48-.3-2.86-1.68-3.52-2.84-1.16-2.03-1.44-4.44-1.71-6.76-.05-.43-.1-.85-.15-1.27-.45-3.46-1.24-5.94-2.62-8.31-1.43-2.43-2.76-4.23-4.21-5.68-.15-.15-.18-.38-.07-.55.09-.15.18-.27.29-.37.94-.81,2.67-.86,5.14-.14,2.68.79,4.65,2.56,6.38,4.36,2.35,2.45,3.99,5.07,4.87,7.77.87,2.68,1.05,5.32.52,7.83ZM132.93,101.59c-.34,1.28-.9,2.47-1.45,3.62-.85,1.79-1.66,3.49-1.65,5.46,0,1.59.57,3.02,1.18,4.54.46,1.15.94,2.36,1.13,3.62.02.15-.02.28-.12.38-.09.09-.21.15-.33.15-.01,0-.03,0-.04,0-2.32-.2-4.04-1.2-5.12-2.98-1.51-2.47-1.74-5.44-1.75-8.02-.03-2.74.29-5.63.99-9.07l.04-.21c.02-.1.08-.19.16-.26.35-.28.75-.77,1.17-1.29,1-1.23,2.13-2.63,3.62-2.63.21,0,.41.03.6.08.6.16,1.08.52,1.42,1.09,1.08,1.85.25,5.15.15,5.53ZM113.6,83.46c-.61.56-1.32.85-2.11.85-.06,0-.13,0-.19-.01-2.52-.14-4.51-2.97-5.3-5.54-1.27-4.18-.45-9.1.62-13.78.96-4.2,2.71-10,6.8-12.1.04-.02.08-.03.11-.04.35-.07.39-.05.49,0,.12.05.47.2.81,1.48.51,1.96.47,4.08.43,5.96-.02.95-.07,1.89-.13,2.84-.04.63-.07,1.27-.1,1.9-.08,1.98.14,3.99.35,5.95.2,1.83.41,3.73.38,5.62-.01.82-.19,5.05-2.18,6.9ZM87.41,138.49c-1.02.29-2.08.44-3.16.44-3.29,0-6.85-1.36-10.62-4.06-6.2-4.45-11.21-10.68-14.88-15.62l-1.63-2.18c-9.99-13.4-20.33-27.26-27.01-42.81-.1-.23.03-.55.25-.65.23-.09.53.02.64.24,4.05,9.06,9.39,17.28,14.08,24.11,4.52,6.59,9.29,12.95,14.62,20,3.91,5.17,8.69,11.03,14.5,15.32,5.02,3.7,9.54,4.85,13.45,3.41,5.9-2.17,9.32-8.79,12.06-14.84.14-.32.5-.45.83-.31.33.15.48.49.36.81-2.57,6.44-6.44,14.09-13.5,16.13ZM85.31,157.82c-.15.19-.37.29-.58.29-.14,0-.28-.05-.41-.13-5.56-3.92-10.65-8.57-15.37-13-21.37-20-34.75-39.61-40.89-59.95-.04-.11,0-.27.05-.37.06-.11.17-.22.28-.25.23-.09.55.08.62.32,1.99,6.16,4.77,12.39,8.24,18.52,5.51,9.72,12.69,19.31,21.95,29.31,3.97,4.28,8.3,8.57,12.87,12.76,2.32,2.12,4.76,4.2,7.11,6.21,2,1.71,4.07,3.47,6.07,5.25.29.27.32.71.06,1.03ZM63.48,195.66c-.11.12-.27.18-.42.18-.14,0-.28-.05-.39-.15-4.89-4.47-9.58-9.46-13.95-14.82-13.3-16.33-23.83-36.6-32.19-61.96-.08-.24.08-.56.32-.63.24-.08.56.08.65.3,2.43,6.58,5,12.97,7.61,18.98,10,22.99,22.9,42.27,38.35,57.29.23.22.23.57.02.8ZM12.02,99.65c.08,1.63.16,3.24.23,4.88.01.34-.23.62-.57.65-.02,0-.04,0-.06,0-.33,0-.62-.26-.66-.59-1.83-15.27-1.56-31.72.81-48.89.04-.25.35-.44.58-.43.28.03.48.28.46.55-.89,8.12-1.35,16.31-1.38,24.34-.03,6.51.29,13.11.6,19.48ZM254.19,178.94c.59,2.2.96,4.47,1.33,6.66.39,2.34.79,4.75,1.45,7.07,1.6,5.58,4.06,8.26,7.35,7.89,3.52-.37,6.17-3.93,8.3-6.78.39-.52.76-1.03,1.13-1.49,2.52-3.21,5.44-6.17,8.26-9.03,1.86-1.89,3.79-3.84,5.58-5.85.11-.13.28-.17.45-.14s.29.16.33.33c.09.36.13.72.11,1.13-.04.8.63,1.06.84,1.12.49.15,1.13.05,1.46-.51,3.88-6.68,4.96-14.47,6-22l.31-2.2c1.26-8.9,2.53-18.45,3.22-28.03.29-4.04.33-8.16.36-12.14.05-5.5.1-11.18.81-16.72.93-7.12,2.37-14.43,6.65-19.49.61-.72,1.24-1.35,1.88-1.85l.18-.15c.79-.65,1.58-1.28,2.31-1.19,1.01.14,1.51,1.48,1.88,2.46.06.15.11.3.16.41l.34.81c.75,1.75,1.53,3.56,2.1,5.44.35,1.17.66,2.38.96,3.54.34,1.3.68,2.65,1.09,3.95.25.8.95.98,1.52.82.57-.16,1.05-.68.86-1.48-.65-2.66-.6-5.41-.56-8.06.01-.55.02-1.11.02-1.66.02-2.62-.17-5.3-.35-7.88-.05-.75-.1-1.5-.15-2.24-.24-3.75-.49-7.51-.74-11.27-.22-3.36-.44-6.73-.66-10.1-.44-6.91-.72-13.92-.96-20.45-.23-6.41-.67-13.24-2.33-19.94l-.22-.94c-.76-3.21-1.79-7.6-5.29-8.21-4.35-.77-8.64,3.65-11.9,7.59-4.56,5.53-8.42,9.95-12.16,13.92-4.65,4.95-9.37,9.73-14.03,14.2-4.92,4.71-9.39,8.9-14.4,12.5-4.64,3.33-9.58,6.2-14.7,8.5-10.16,4.59-21.81,7.2-33.68,7.53-11.2.28-21.29-2.04-30-6.96-7.91-4.47-15.07-10.68-22.54-19.57-.68-.81-1.36-1.63-2.04-2.44-4.69-5.67-9.55-11.52-15.87-15.39-7.38-4.51-16.71-5.4-24.32-2.31-5.98,2.41-10.74,7.6-14.16,15.41-3.32,7.59-4.99,15.87-6.3,23.69-.29,1.76-.58,3.52-.86,5.3-.92,5.7-1.88,11.6-3.18,17.36-2.18,9.61-6.07,20.89-16.94,22.82-4.64.83-9.63-.76-15.28-4.83-4.17-3.01-8.41-6.9-12.61-11.57-8.26-9.2-13.99-20.28-19.05-30.05-2.46-4.75-5.16-9.67-8.49-15.48-.71-1.25-1.38-2.55-2.02-3.8-1.03-2.03-2.1-4.13-3.42-6.04-.85-1.24-2.54-3.34-4.26-3.49-.71-.05-1.37.23-2,.87-1.83,1.86-2.03,5.26-2.19,7.98-.03.47-.06.94-.09,1.37-.65,8.15-.95,16.46-1.24,24.5-.19,5.12-.38,10.43-.67,15.65-.08,1.54-.17,3.09-.26,4.64-.67,11.84-1.37,24.09-.03,36.02.1.84.19,1.69.29,2.53.61,5.17,1.23,10.52.94,15.83-.01.22-.18.4-.4.43-.12.02-.21.16-.22.29,0,.09.03.11.1.12,1.39.23,2.65.08,3.73-.44.32-.15.64-.33.96-.51,1.09-.6,2.24-1.2,3.55-1.09,3.11.28,4.7,3.65,5.87,6.11.13.28.26.55.38.81,1.87,3.8,3.5,7.78,5.07,11.63,1.7,4.16,3.45,8.44,5.5,12.51,7.65,15.13,17.21,27.12,28.42,35.63,6.06,4.6,12.85,8.38,19.41,12.04,2.24,1.26,4.49,2.51,6.7,3.79.45.25.9.22,1.25-.09.33-.31.57-.91.29-1.51-1.73-3.75-2.91-7.87-3.5-12.24-.03-.23.11-.44.33-.51.23-.05.46.06.54.27,3.87,9.34,10.33,18.59,19.18,27.53,4.89,4.93,10.68,8.85,16.27,12.64,3.66,2.49,7.45,5.06,10.99,7.9,4.11,3.31,9.09,7.88,11.16,13.97.26.76.94.93,1.49.77.48-.15.96-.59.76-1.38-1.14-4.52-1.99-9.19-2.81-13.7-1.06-5.85-2.16-11.9-3.91-17.66-.06-.2.02-.42.2-.52.19-.11.42-.08.56.08,1.81,1.87,3.93,4.04,6.19,6.03,3.51,3.09,7.42,5.88,11.2,8.59.82.58,1.64,1.17,2.46,1.75,8.42,6.08,17.28,12.7,24.83,21.05,4.34,4.81,7.71,9.54,10.32,14.46.29.55.88.61,1.29.49.42-.12.89-.47.86-1.07-.16-3.75-.23-7.57-.29-11.26l-.06-3.59c0-.18.1-.36.27-.43.17-.08.37-.04.5.09,1.68,1.64,3.46,3.23,5.17,4.78,5.53,4.97,11.24,10.11,14.61,17.25.29.61.73.62,1.06.53.58-.16,1.13-.82,1.03-1.52-1.23-8.64.33-17.15,1.84-25.39.25-1.4.51-2.81.76-4.22,1.25-7.17,1.34-14.41,1.29-19.92,0-.23.16-.42.38-.46h.07c.2,0,.38.13.43.32.65,2.11,1.37,4.34,2.36,6.47,1.44,3.09,3.21,6.08,4.92,8.99,1.12,1.9,2.27,3.87,3.33,5.84,4.46,8.34,9.08,18.4,9.5,29.71.02.69.58,1.06,1.08,1.12.46.05.99-.14,1.16-.8,1.03-3.92,2.16-7.88,3.24-11.72,1.42-5.01,2.89-10.19,4.16-15.32,2.07-8.34,3.42-16.95,4.02-25.6.47-6.76.22-13.59-.01-20.2-.07-2.09-.14-4.17-.2-6.27-.12-4.97-.09-10.03-.06-14.92.02-3.4.04-6.9.01-10.34-.06-5.87-.26-10.72-.65-15.24-.02-.23.14-.44.37-.48.24-.05.46.1.52.32.44,1.54.86,3.11,1.26,4.65l.35,1.31Z"/>
    </clipPath>
    <clipPath id="clippath-2">
      <path class="cls-1" d="M233.98,111.11c-.09.05-.19.07-.28.07-.19,0-.36-.09-.47-.25-.17-.26-.09-.6.16-.76,8.96-5.76,17-12.85,23.88-21.08,6.9-8.25,12.67-17.42,17.99-26.1.08-.14.25-.24.41-.24h0c.17.01.34.11.42.26.08.15.07.35-.02.49-5.26,8.74-10.99,17.98-17.9,26.37-7.16,8.69-15.3,15.83-24.21,21.25ZM224.75,91.47c-1.15.1-2.31.15-3.47.15-6.58,0-13.44-1.54-20.01-4.53-17.99-8.17-31.68-22.72-43.09-35.71-.16-.19-.14-.53.04-.7.18-.16.52-.15.69.04,6.15,6.74,13.38,14.49,21.35,21.21,16.6,14,32.45,19.96,47.12,17.75,13.43-2.03,26.28-10.12,40.44-25.48.21-.23.56-.25.8-.04.24.22.26.58.05.82-7.76,8.65-14.78,14.7-22.11,19.09-7.21,4.3-14.55,6.79-21.8,7.4ZM281.65,123.03c2.79-11.16,5.68-22.7,10.5-33.59.06-.16.23-.28.39-.29s.37.06.47.19c.1.14.12.35.06.5-4.12,9.68-6.68,20.05-9.16,30.08-.35,1.45-.71,2.89-1.07,4.33-1.31,5.22-2.86,11.3-4.75,17.2-1.84,5.75-3.73,11.31-6.58,16.22-.12.21-.33.32-.56.32-.11,0-.21-.02-.32-.07-.31-.16-.44-.49-.31-.8l1.06-2.51c1.97-4.65,4.01-9.47,5.57-14.43,1.82-5.75,3.32-11.63,4.7-17.15ZM306.99,15.58c-.07.08-.13.14-.16.16-3.76,3.66-5.82,9.05-7.63,13.81-.11.28-.42.42-.7.32-.24-.09-.39-.44-.3-.67,2.08-5.63,4.45-12,9.61-15.91.19-.15.45-.16.67-.04.22.12.35.35.33.59-1.76,17.72-6.5,35.19-11.08,52.08l-1.15,4.24c-.07.28-.31.46-.58.46-.05,0-.1-.01-.15-.02-.34-.08-.54-.42-.46-.75,1.18-5.11,2.49-10.28,3.75-15.27,1.92-7.59,3.9-15.43,5.49-23.22.73-3.59,1.29-6.58,1.76-9.43.32-1.93.6-3.83.84-5.64.01-.1.04-.25.07-.41.03-.18.09-.48.12-.74-.12.11-.26.25-.43.43ZM143.22,72.66c-.39,1.9-1.06,4.23-2.69,5.46-.49.36-1.04.55-1.63.55-.2,0-.39-.02-.6-.06-1.48-.3-2.86-1.68-3.52-2.84-1.16-2.03-1.44-4.44-1.71-6.76-.05-.43-.1-.85-.15-1.27-.45-3.46-1.24-5.94-2.62-8.31-1.43-2.43-2.76-4.23-4.21-5.68-.15-.15-.18-.38-.07-.55.09-.15.18-.27.29-.37.94-.81,2.67-.86,5.14-.14,2.68.79,4.65,2.56,6.38,4.36,2.35,2.45,3.99,5.07,4.87,7.77.87,2.68,1.05,5.32.52,7.83ZM132.93,101.59c-.34,1.28-.9,2.47-1.45,3.62-.85,1.79-1.66,3.49-1.65,5.46,0,1.59.57,3.02,1.18,4.54.46,1.15.94,2.36,1.13,3.62.02.15-.02.28-.12.38-.09.09-.21.15-.33.15-.01,0-.03,0-.04,0-2.32-.2-4.04-1.2-5.12-2.98-1.51-2.47-1.74-5.44-1.75-8.02-.03-2.74.29-5.63.99-9.07l.04-.21c.02-.1.08-.19.16-.26.35-.28.75-.77,1.17-1.29,1-1.23,2.13-2.63,3.62-2.63.21,0,.41.03.6.08.6.16,1.08.52,1.42,1.09,1.08,1.85.25,5.15.15,5.53ZM113.6,83.46c-.61.56-1.32.85-2.11.85-.06,0-.13,0-.19-.01-2.52-.14-4.51-2.97-5.3-5.54-1.27-4.18-.45-9.1.62-13.78.96-4.2,2.71-10,6.8-12.1.04-.02.08-.03.11-.04.35-.07.39-.05.49,0,.12.05.47.2.81,1.48.51,1.96.47,4.08.43,5.96-.02.95-.07,1.89-.13,2.84-.04.63-.07,1.27-.1,1.9-.08,1.98.14,3.99.35,5.95.2,1.83.41,3.73.38,5.62-.01.82-.19,5.05-2.18,6.9ZM87.41,138.49c-1.02.29-2.08.44-3.16.44-3.29,0-6.85-1.36-10.62-4.06-6.2-4.45-11.21-10.68-14.88-15.62l-1.63-2.18c-9.99-13.4-20.33-27.26-27.01-42.81-.1-.23.03-.55.25-.65.23-.09.53.02.64.24,4.05,9.06,9.39,17.28,14.08,24.11,4.52,6.59,9.29,12.95,14.62,20,3.91,5.17,8.69,11.03,14.5,15.32,5.02,3.7,9.54,4.85,13.45,3.41,5.9-2.17,9.32-8.79,12.06-14.84.14-.32.5-.45.83-.31.33.15.48.49.36.81-2.57,6.44-6.44,14.09-13.5,16.13ZM85.31,157.82c-.15.19-.37.29-.58.29-.14,0-.28-.05-.41-.13-5.56-3.92-10.65-8.57-15.37-13-21.37-20-34.75-39.61-40.89-59.95-.04-.11,0-.27.05-.37.06-.11.17-.22.28-.25.23-.09.55.08.62.32,1.99,6.16,4.77,12.39,8.24,18.52,5.51,9.72,12.69,19.31,21.95,29.31,3.97,4.28,8.3,8.57,12.87,12.76,2.32,2.12,4.76,4.2,7.11,6.21,2,1.71,4.07,3.47,6.07,5.25.29.27.32.71.06,1.03ZM63.48,195.66c-.11.12-.27.18-.42.18-.14,0-.28-.05-.39-.15-4.89-4.47-9.58-9.46-13.95-14.82-13.3-16.33-23.83-36.6-32.19-61.96-.08-.24.08-.56.32-.63.24-.08.56.08.65.3,2.43,6.58,5,12.97,7.61,18.98,10,22.99,22.9,42.27,38.35,57.29.23.22.23.57.02.8ZM12.02,99.65c.08,1.63.16,3.24.23,4.88.01.34-.23.62-.57.65-.02,0-.04,0-.06,0-.33,0-.62-.26-.66-.59-1.83-15.27-1.56-31.72.81-48.89.04-.25.35-.44.58-.43.28.03.48.28.46.55-.89,8.12-1.35,16.31-1.38,24.34-.03,6.51.29,13.11.6,19.48ZM254.19,178.94c.59,2.2.96,4.47,1.33,6.66.39,2.34.79,4.75,1.45,7.07,1.6,5.58,4.06,8.26,7.35,7.89,3.52-.37,6.17-3.93,8.3-6.78.39-.52.76-1.03,1.13-1.49,2.52-3.21,5.44-6.17,8.26-9.03,1.86-1.89,3.79-3.84,5.58-5.85.11-.13.28-.17.45-.14s.29.16.33.33c.09.36.13.72.11,1.13-.04.8.63,1.06.84,1.12.49.15,1.13.05,1.46-.51,3.88-6.68,4.96-14.47,6-22l.31-2.2c1.26-8.9,2.53-18.45,3.22-28.03.29-4.04.33-8.16.36-12.14.05-5.5.1-11.18.81-16.72.93-7.12,2.37-14.43,6.65-19.49.61-.72,1.24-1.35,1.88-1.85l.18-.15c.79-.65,1.58-1.28,2.31-1.19,1.01.14,1.51,1.48,1.88,2.46.06.15.11.3.16.41l.34.81c.75,1.75,1.53,3.56,2.1,5.44.35,1.17.66,2.38.96,3.54.34,1.3.68,2.65,1.09,3.95.25.8.95.98,1.52.82.57-.16,1.05-.68.86-1.48-.65-2.66-.6-5.41-.56-8.06.01-.55.02-1.11.02-1.66.02-2.62-.17-5.3-.35-7.88-.05-.75-.1-1.5-.15-2.24-.24-3.75-.49-7.51-.74-11.27-.22-3.36-.44-6.73-.66-10.1-.44-6.91-.72-13.92-.96-20.45-.23-6.41-.67-13.24-2.33-19.94l-.22-.94c-.76-3.21-1.79-7.6-5.29-8.21-4.35-.77-8.64,3.65-11.9,7.59-4.56,5.53-8.42,9.95-12.16,13.92-4.65,4.95-9.37,9.73-14.03,14.2-4.92,4.71-9.39,8.9-14.4,12.5-4.64,3.33-9.58,6.2-14.7,8.5-10.16,4.59-21.81,7.2-33.68,7.53-11.2.28-21.29-2.04-30-6.96-7.91-4.47-15.07-10.68-22.54-19.57-.68-.81-1.36-1.63-2.04-2.44-4.69-5.67-9.55-11.52-15.87-15.39-7.38-4.51-16.71-5.4-24.32-2.31-5.98,2.41-10.74,7.6-14.16,15.41-3.32,7.59-4.99,15.87-6.3,23.69-.29,1.76-.58,3.52-.86,5.3-.92,5.7-1.88,11.6-3.18,17.36-2.18,9.61-6.07,20.89-16.94,22.82-4.64.83-9.63-.76-15.28-4.83-4.17-3.01-8.41-6.9-12.61-11.57-8.26-9.2-13.99-20.28-19.05-30.05-2.46-4.75-5.16-9.67-8.49-15.48-.71-1.25-1.38-2.55-2.02-3.8-1.03-2.03-2.1-4.13-3.42-6.04-.85-1.24-2.54-3.34-4.26-3.49-.71-.05-1.37.23-2,.87-1.83,1.86-2.03,5.26-2.19,7.98-.03.47-.06.94-.09,1.37-.65,8.15-.95,16.46-1.24,24.5-.19,5.12-.38,10.43-.67,15.65-.08,1.54-.17,3.09-.26,4.64-.67,11.84-1.37,24.09-.03,36.02.1.84.19,1.69.29,2.53.61,5.17,1.23,10.52.94,15.83-.01.22-.18.4-.4.43-.12.02-.21.16-.22.29,0,.09.03.11.1.12,1.39.23,2.65.08,3.73-.44.32-.15.64-.33.96-.51,1.09-.6,2.24-1.2,3.55-1.09,3.11.28,4.7,3.65,5.87,6.11.13.28.26.55.38.81,1.87,3.8,3.5,7.78,5.07,11.63,1.7,4.16,3.45,8.44,5.5,12.51,7.65,15.13,17.21,27.12,28.42,35.63,6.06,4.6,12.85,8.38,19.41,12.04,2.24,1.26,4.49,2.51,6.7,3.79.45.25.9.22,1.25-.09.33-.31.57-.91.29-1.51-1.73-3.75-2.91-7.87-3.5-12.24-.03-.23.11-.44.33-.51.23-.05.46.06.54.27,3.87,9.34,10.33,18.59,19.18,27.53,4.89,4.93,10.68,8.85,16.27,12.64,3.66,2.49,7.45,5.06,10.99,7.9,4.11,3.31,9.09,7.88,11.16,13.97.26.76.94.93,1.49.77.48-.15.96-.59.76-1.38-1.14-4.52-1.99-9.19-2.81-13.7-1.06-5.85-2.16-11.9-3.91-17.66-.06-.2.02-.42.2-.52.19-.11.42-.08.56.08,1.81,1.87,3.93,4.04,6.19,6.03,3.51,3.09,7.42,5.88,11.2,8.59.82.58,1.64,1.17,2.46,1.75,8.42,6.08,17.28,12.7,24.83,21.05,4.34,4.81,7.71,9.54,10.32,14.46.29.55.88.61,1.29.49.42-.12.89-.47.86-1.07-.16-3.75-.23-7.57-.29-11.26l-.06-3.59c0-.18.1-.36.27-.43.17-.08.37-.04.5.09,1.68,1.64,3.46,3.23,5.17,4.78,5.53,4.97,11.24,10.11,14.61,17.25.29.61.73.62,1.06.53.58-.16,1.13-.82,1.03-1.52-1.23-8.64.33-17.15,1.84-25.39.25-1.4.51-2.81.76-4.22,1.25-7.17,1.34-14.41,1.29-19.92,0-.23.16-.42.38-.46h.07c.2,0,.38.13.43.32.65,2.11,1.37,4.34,2.36,6.47,1.44,3.09,3.21,6.08,4.92,8.99,1.12,1.9,2.27,3.87,3.33,5.84,4.46,8.34,9.08,18.4,9.5,29.71.02.69.58,1.06,1.08,1.12.46.05.99-.14,1.16-.8,1.03-3.92,2.16-7.88,3.24-11.72,1.42-5.01,2.89-10.19,4.16-15.32,2.07-8.34,3.42-16.95,4.02-25.6.47-6.76.22-13.59-.01-20.2-.07-2.09-.14-4.17-.2-6.27-.12-4.97-.09-10.03-.06-14.92.02-3.4.04-6.9.01-10.34-.06-5.87-.26-10.72-.65-15.24-.02-.23.14-.44.37-.48.24-.05.46.1.52.32.44,1.54.86,3.11,1.26,4.65l.35,1.31Z"/>
    </clipPath>
    <linearGradient id="linear-gradient" x1="-19.25" y1="1032.45" x2="-18.33" y2="1032.45" gradientTransform="translate(-329269.57 6142.58) rotate(90) scale(319.08 -319.08)" gradientUnits="userSpaceOnUse">
      <stop offset="0" stop-color="#60c9b6"/>
      <stop offset=".02" stop-color="#60c9b6"/>
      <stop offset=".02" stop-color="#60c9b6"/>
      <stop offset=".03" stop-color="#60c9b7"/>
      <stop offset=".04" stop-color="#60c9b7"/>
      <stop offset=".05" stop-color="#60c9b7"/>
      <stop offset=".05" stop-color="#60c9b8"/>
      <stop offset=".06" stop-color="#60c9b8"/>
      <stop offset=".07" stop-color="#60c9b9"/>
      <stop offset=".08" stop-color="#61c9b9"/>
      <stop offset=".09" stop-color="#61c9b9"/>
      <stop offset=".09" stop-color="#61c9ba"/>
      <stop offset=".11" stop-color="#61c9ba"/>
      <stop offset=".12" stop-color="#61c9bb"/>
      <stop offset=".12" stop-color="#61c9bb"/>
      <stop offset=".13" stop-color="#61c9bc"/>
      <stop offset=".14" stop-color="#61c9bc"/>
      <stop offset=".16" stop-color="#61c9bc"/>
      <stop offset=".16" stop-color="#61cabd"/>
      <stop offset=".17" stop-color="#61cabd"/>
      <stop offset=".18" stop-color="#61cabe"/>
      <stop offset=".18" stop-color="#61cabe"/>
      <stop offset=".19" stop-color="#61cabe"/>
      <stop offset=".2" stop-color="#61cabe"/>
      <stop offset=".2" stop-color="#61cabf"/>
      <stop offset=".22" stop-color="#61cabf"/>
      <stop offset=".22" stop-color="#61cac0"/>
      <stop offset=".23" stop-color="#61cac0"/>
      <stop offset=".23" stop-color="#61cac0"/>
      <stop offset=".24" stop-color="#61cac0"/>
      <stop offset=".25" stop-color="#61cac1"/>
      <stop offset=".26" stop-color="#61cac1"/>
      <stop offset=".26" stop-color="#62cac1"/>
      <stop offset=".27" stop-color="#62cac2"/>
      <stop offset=".27" stop-color="#62cac2"/>
      <stop offset=".28" stop-color="#62cac2"/>
      <stop offset=".3" stop-color="#62cac3"/>
      <stop offset=".31" stop-color="#62cac3"/>
      <stop offset=".33" stop-color="#62cac4"/>
      <stop offset=".34" stop-color="#62cac4"/>
      <stop offset=".34" stop-color="#62cac5"/>
      <stop offset=".35" stop-color="#62cac5"/>
      <stop offset=".36" stop-color="#62cac5"/>
      <stop offset=".38" stop-color="#62cac6"/>
      <stop offset=".38" stop-color="#62cac7"/>
      <stop offset=".39" stop-color="#62cac7"/>
      <stop offset=".41" stop-color="#62cac7"/>
      <stop offset=".41" stop-color="#63cbc7"/>
      <stop offset=".42" stop-color="#63cbc8"/>
      <stop offset=".43" stop-color="#63cbc8"/>
      <stop offset=".43" stop-color="#61cac7"/>
      <stop offset=".44" stop-color="#60cac7"/>
      <stop offset=".44" stop-color="#60cac6"/>
      <stop offset=".45" stop-color="#5fc9c5"/>
      <stop offset=".45" stop-color="#5ec9c5"/>
      <stop offset=".45" stop-color="#5dc9c4"/>
      <stop offset=".46" stop-color="#5cc8c4"/>
      <stop offset=".46" stop-color="#5bc8c4"/>
      <stop offset=".46" stop-color="#5ac8c3"/>
      <stop offset=".47" stop-color="#5ac7c2"/>
      <stop offset=".47" stop-color="#59c7c2"/>
      <stop offset=".48" stop-color="#58c7c1"/>
      <stop offset=".48" stop-color="#57c6c1"/>
      <stop offset=".48" stop-color="#56c6c0"/>
      <stop offset=".49" stop-color="#55c6bf"/>
      <stop offset=".49" stop-color="#53c5bf"/>
      <stop offset=".5" stop-color="#53c5be"/>
      <stop offset=".5" stop-color="#52c5be"/>
      <stop offset=".5" stop-color="#51c4bd"/>
      <stop offset=".51" stop-color="#50c4bc"/>
      <stop offset=".51" stop-color="#4fc4bb"/>
      <stop offset=".52" stop-color="#4ec3bb"/>
      <stop offset=".52" stop-color="#4dc3ba"/>
      <stop offset=".52" stop-color="#4dc3ba"/>
      <stop offset=".53" stop-color="#4cc3b9"/>
      <stop offset=".53" stop-color="#4bc2b8"/>
      <stop offset=".54" stop-color="#4ac2b8"/>
      <stop offset=".54" stop-color="#49c1b7"/>
      <stop offset=".54" stop-color="#48c0b6"/>
      <stop offset=".55" stop-color="#47bfb5"/>
      <stop offset=".55" stop-color="#47beb3"/>
      <stop offset=".55" stop-color="#46bdb2"/>
      <stop offset=".56" stop-color="#46bcb1"/>
      <stop offset=".56" stop-color="#45bbb0"/>
      <stop offset=".57" stop-color="#44b9b0"/>
      <stop offset=".57" stop-color="#44b8af"/>
      <stop offset=".57" stop-color="#43b7ae"/>
      <stop offset=".58" stop-color="#43b6ad"/>
      <stop offset=".58" stop-color="#43b5ac"/>
      <stop offset=".59" stop-color="#42b4ab"/>
      <stop offset=".59" stop-color="#42b2aa"/>
      <stop offset=".59" stop-color="#41b1a9"/>
      <stop offset=".6" stop-color="#41b0a8"/>
      <stop offset=".6" stop-color="#41afa7"/>
      <stop offset=".61" stop-color="#40aea6"/>
      <stop offset=".61" stop-color="#40aca6"/>
      <stop offset=".61" stop-color="#3faba5"/>
      <stop offset=".62" stop-color="#3faaa4"/>
      <stop offset=".62" stop-color="#3fa9a3"/>
      <stop offset=".62" stop-color="#3ea7a1"/>
      <stop offset=".63" stop-color="#3ea6a0"/>
      <stop offset=".63" stop-color="#3da59f"/>
      <stop offset=".64" stop-color="#3da59e"/>
      <stop offset=".64" stop-color="#3da49d"/>
      <stop offset=".64" stop-color="#3ca39c"/>
      <stop offset=".65" stop-color="#3ca19b"/>
      <stop offset=".65" stop-color="#3ba09a"/>
      <stop offset=".66" stop-color="#3a9f99"/>
      <stop offset=".66" stop-color="#3a9e98"/>
      <stop offset=".66" stop-color="#399c97"/>
      <stop offset=".67" stop-color="#399b96"/>
      <stop offset=".67" stop-color="#399a95"/>
      <stop offset=".68" stop-color="#389994"/>
      <stop offset=".68" stop-color="#389893"/>
      <stop offset=".68" stop-color="#379792"/>
      <stop offset=".69" stop-color="#379691"/>
      <stop offset=".69" stop-color="#369590"/>
      <stop offset=".7" stop-color="#36948f"/>
      <stop offset=".7" stop-color="#36938e"/>
      <stop offset=".7" stop-color="#35928d"/>
      <stop offset=".71" stop-color="#35908c"/>
      <stop offset=".71" stop-color="#358f8b"/>
      <stop offset=".71" stop-color="#348e8a"/>
      <stop offset=".72" stop-color="#348d88"/>
      <stop offset=".72" stop-color="#338c87"/>
      <stop offset=".73" stop-color="#338a86"/>
      <stop offset=".73" stop-color="#338985"/>
      <stop offset=".73" stop-color="#328883"/>
      <stop offset=".74" stop-color="#328782"/>
      <stop offset=".74" stop-color="#318681"/>
      <stop offset=".75" stop-color="#318480"/>
      <stop offset=".75" stop-color="#30837f"/>
      <stop offset=".75" stop-color="#30827e"/>
      <stop offset=".76" stop-color="#2f817d"/>
      <stop offset=".76" stop-color="#2f807c"/>
      <stop offset=".77" stop-color="#2e7f7b"/>
      <stop offset=".77" stop-color="#2e7d7a"/>
      <stop offset=".77" stop-color="#2d7c78"/>
      <stop offset=".78" stop-color="#2d7b77"/>
      <stop offset=".78" stop-color="#2d7a76"/>
      <stop offset=".79" stop-color="#2d7975"/>
      <stop offset=".79" stop-color="#2c7774"/>
      <stop offset=".79" stop-color="#2c7673"/>
      <stop offset=".8" stop-color="#2c7572"/>
      <stop offset=".8" stop-color="#2b7470"/>
      <stop offset=".8" stop-color="#2b736f"/>
      <stop offset=".81" stop-color="#2a716e"/>
      <stop offset=".81" stop-color="#2a706d"/>
      <stop offset=".82" stop-color="#296f6b"/>
      <stop offset=".82" stop-color="#296e6a"/>
      <stop offset=".82" stop-color="#286d69"/>
      <stop offset=".83" stop-color="#286b68"/>
      <stop offset=".83" stop-color="#286a67"/>
      <stop offset=".84" stop-color="#286966"/>
      <stop offset=".84" stop-color="#276864"/>
      <stop offset=".84" stop-color="#276763"/>
      <stop offset=".85" stop-color="#276662"/>
      <stop offset=".85" stop-color="#266561"/>
      <stop offset=".86" stop-color="#266460"/>
      <stop offset=".86" stop-color="#26625f"/>
      <stop offset=".86" stop-color="#25615e"/>
      <stop offset=".87" stop-color="#25605d"/>
      <stop offset=".87" stop-color="#245f5b"/>
      <stop offset=".88" stop-color="#245e5a"/>
      <stop offset=".88" stop-color="#245d59"/>
      <stop offset=".88" stop-color="#235c58"/>
      <stop offset=".89" stop-color="#235b57"/>
      <stop offset=".89" stop-color="#225955"/>
      <stop offset=".89" stop-color="#225954"/>
      <stop offset=".9" stop-color="#225854"/>
      <stop offset=".9" stop-color="#225652"/>
      <stop offset=".91" stop-color="#225551"/>
      <stop offset=".91" stop-color="#215450"/>
      <stop offset=".91" stop-color="#21534f"/>
      <stop offset=".92" stop-color="#21524e"/>
      <stop offset=".92" stop-color="#20514c"/>
      <stop offset=".93" stop-color="#20504b"/>
      <stop offset=".93" stop-color="#1f4e4a"/>
      <stop offset=".93" stop-color="#1f4d49"/>
      <stop offset=".94" stop-color="#1f4c48"/>
      <stop offset=".94" stop-color="#1f4b47"/>
      <stop offset=".95" stop-color="#1e4a46"/>
      <stop offset=".95" stop-color="#1e4945"/>
      <stop offset=".95" stop-color="#1e4844"/>
      <stop offset=".96" stop-color="#1e4742"/>
      <stop offset=".96" stop-color="#1e4641"/>
      <stop offset=".96" stop-color="#1d4540"/>
      <stop offset=".97" stop-color="#1d443f"/>
      <stop offset=".97" stop-color="#1d433e"/>
      <stop offset=".98" stop-color="#1c423d"/>
      <stop offset=".98" stop-color="#1c403b"/>
      <stop offset=".98" stop-color="#1c3f3a"/>
      <stop offset=".99" stop-color="#1c3e39"/>
      <stop offset=".99" stop-color="#1b3d38"/>
      <stop offset="1" stop-color="#1b3c37"/>
      <stop offset="1" stop-color="#1b3b36"/>
    </linearGradient>
  </defs>
  <g id="Elements">
    <g class="cls-5">
      <g class="cls-2">
        <g class="cls-3">
          <path class="cls-4" d="M321.6,0H.13v293.6h321.47V0Z"/>
        </g>
      </g>
    </g>
  </g>
</svg>