<?xml version="1.0" encoding="UTF-8"?>
<svg id="Layer_2" data-name="Layer 2" xmlns="http://www.w3.org/2000/svg" xmlns:xlink="http://www.w3.org/1999/xlink" viewBox="0 0 123.47 116.62">
  <defs>
    <style>
      .cls-1 {
        fill: url(#linear-gradient-2);
      }

      .cls-2 {
        fill: url(#linear-gradient-3);
      }

      .cls-3 {
        fill: url(#linear-gradient);
      }
    </style>
    <linearGradient id="linear-gradient" x1="16.11" y1="58.31" x2="107.35" y2="58.31" gradientUnits="userSpaceOnUse">
      <stop offset="0" stop-color="#60c9b6"/>
      <stop offset=".02" stop-color="#60c9b6"/>
      <stop offset=".02" stop-color="#60c9b6"/>
      <stop offset=".03" stop-color="#60c9b7"/>
      <stop offset=".04" stop-color="#60c9b7"/>
      <stop offset=".05" stop-color="#60c9b7"/>
      <stop offset=".05" stop-color="#60c9b8"/>
      <stop offset=".06" stop-color="#60c9b8"/>
      <stop offset=".07" stop-color="#60c9b9"/>
      <stop offset=".08" stop-color="#61c9b9"/>
      <stop offset=".09" stop-color="#61c9b9"/>
      <stop offset=".09" stop-color="#61c9ba"/>
      <stop offset=".11" stop-color="#61c9ba"/>
      <stop offset=".12" stop-color="#61c9bb"/>
      <stop offset=".12" stop-color="#61c9bb"/>
      <stop offset=".13" stop-color="#61c9bc"/>
      <stop offset=".14" stop-color="#61c9bc"/>
      <stop offset=".16" stop-color="#61c9bc"/>
      <stop offset=".16" stop-color="#61cabd"/>
      <stop offset=".17" stop-color="#61cabd"/>
      <stop offset=".18" stop-color="#61cabe"/>
      <stop offset=".18" stop-color="#61cabe"/>
      <stop offset=".19" stop-color="#61cabe"/>
      <stop offset=".2" stop-color="#61cabe"/>
      <stop offset=".2" stop-color="#61cabf"/>
      <stop offset=".22" stop-color="#61cabf"/>
      <stop offset=".22" stop-color="#61cac0"/>
      <stop offset=".23" stop-color="#61cac0"/>
      <stop offset=".23" stop-color="#61cac0"/>
      <stop offset=".24" stop-color="#61cac0"/>
      <stop offset=".25" stop-color="#61cac1"/>
      <stop offset=".26" stop-color="#61cac1"/>
      <stop offset=".26" stop-color="#62cac1"/>
      <stop offset=".27" stop-color="#62cac2"/>
      <stop offset=".27" stop-color="#62cac2"/>
      <stop offset=".28" stop-color="#62cac2"/>
      <stop offset=".3" stop-color="#62cac3"/>
      <stop offset=".31" stop-color="#62cac3"/>
      <stop offset=".33" stop-color="#62cac4"/>
      <stop offset=".34" stop-color="#62cac4"/>
      <stop offset=".34" stop-color="#62cac5"/>
      <stop offset=".35" stop-color="#62cac5"/>
      <stop offset=".36" stop-color="#62cac6"/>
      <stop offset=".38" stop-color="#62cac6"/>
      <stop offset=".38" stop-color="#62cac7"/>
      <stop offset=".39" stop-color="#62cac7"/>
      <stop offset=".41" stop-color="#62cac7"/>
      <stop offset=".41" stop-color="#63cbc7"/>
      <stop offset=".42" stop-color="#63cbc8"/>
      <stop offset=".43" stop-color="#63cbc8"/>
      <stop offset=".43" stop-color="#61cac7"/>
      <stop offset=".44" stop-color="#60cac7"/>
      <stop offset=".44" stop-color="#60c9c6"/>
      <stop offset=".45" stop-color="#5fc9c5"/>
      <stop offset=".45" stop-color="#5ec9c5"/>
      <stop offset=".45" stop-color="#5dc9c4"/>
      <stop offset=".46" stop-color="#5cc8c4"/>
      <stop offset=".46" stop-color="#5bc8c4"/>
      <stop offset=".46" stop-color="#5ac8c3"/>
      <stop offset=".47" stop-color="#5ac7c2"/>
      <stop offset=".47" stop-color="#59c7c2"/>
      <stop offset=".48" stop-color="#58c7c1"/>
      <stop offset=".48" stop-color="#57c6c1"/>
      <stop offset=".48" stop-color="#56c6c0"/>
      <stop offset=".49" stop-color="#55c6bf"/>
      <stop offset=".49" stop-color="#53c5bf"/>
      <stop offset=".5" stop-color="#53c5be"/>
      <stop offset=".5" stop-color="#52c5be"/>
      <stop offset=".5" stop-color="#51c4bd"/>
      <stop offset=".51" stop-color="#50c4bc"/>
      <stop offset=".51" stop-color="#4fc4bb"/>
      <stop offset=".52" stop-color="#4ec3bb"/>
      <stop offset=".52" stop-color="#4dc3ba"/>
      <stop offset=".52" stop-color="#4dc3ba"/>
      <stop offset=".53" stop-color="#4cc3b9"/>
      <stop offset=".53" stop-color="#4bc2b8"/>
      <stop offset=".54" stop-color="#4ac1b7"/>
      <stop offset=".54" stop-color="#49c1b7"/>
      <stop offset=".54" stop-color="#48c0b6"/>
      <stop offset=".55" stop-color="#47beb5"/>
      <stop offset=".55" stop-color="#47bdb3"/>
      <stop offset=".55" stop-color="#46bdb2"/>
      <stop offset=".56" stop-color="#46bbb1"/>
      <stop offset=".56" stop-color="#45bab0"/>
      <stop offset=".57" stop-color="#44b9b0"/>
      <stop offset=".57" stop-color="#44b8af"/>
      <stop offset=".57" stop-color="#43b7ae"/>
      <stop offset=".58" stop-color="#43b6ad"/>
      <stop offset=".58" stop-color="#43b5ac"/>
      <stop offset=".59" stop-color="#42b4ab"/>
      <stop offset=".59" stop-color="#42b2aa"/>
      <stop offset=".59" stop-color="#41b1a9"/>
      <stop offset=".6" stop-color="#41b0a8"/>
      <stop offset=".6" stop-color="#41afa7"/>
      <stop offset=".61" stop-color="#40aea6"/>
      <stop offset=".61" stop-color="#40aca6"/>
      <stop offset=".61" stop-color="#3faba5"/>
      <stop offset=".62" stop-color="#3faaa4"/>
      <stop offset=".62" stop-color="#3ea9a2"/>
      <stop offset=".62" stop-color="#3ea7a1"/>
      <stop offset=".63" stop-color="#3da6a0"/>
      <stop offset=".63" stop-color="#3da59f"/>
      <stop offset=".64" stop-color="#3da49e"/>
      <stop offset=".64" stop-color="#3da49d"/>
      <stop offset=".64" stop-color="#3ca29c"/>
      <stop offset=".65" stop-color="#3ca19b"/>
      <stop offset=".65" stop-color="#3ba09a"/>
      <stop offset=".66" stop-color="#3a9f99"/>
      <stop offset=".66" stop-color="#3a9d98"/>
      <stop offset=".66" stop-color="#399c97"/>
      <stop offset=".67" stop-color="#399b96"/>
      <stop offset=".67" stop-color="#399a95"/>
      <stop offset=".68" stop-color="#389994"/>
      <stop offset=".68" stop-color="#379893"/>
      <stop offset=".68" stop-color="#379792"/>
      <stop offset=".69" stop-color="#379590"/>
      <stop offset=".69" stop-color="#36948f"/>
      <stop offset=".7" stop-color="#36948e"/>
      <stop offset=".7" stop-color="#36938e"/>
      <stop offset=".7" stop-color="#35918d"/>
      <stop offset=".71" stop-color="#35908c"/>
      <stop offset=".71" stop-color="#348f8b"/>
      <stop offset=".71" stop-color="#348e89"/>
      <stop offset=".72" stop-color="#348d88"/>
      <stop offset=".72" stop-color="#338b87"/>
      <stop offset=".73" stop-color="#338a86"/>
      <stop offset=".73" stop-color="#338985"/>
      <stop offset=".73" stop-color="#328783"/>
      <stop offset=".74" stop-color="#328682"/>
      <stop offset=".74" stop-color="#318581"/>
      <stop offset=".75" stop-color="#318480"/>
      <stop offset=".75" stop-color="#30837f"/>
      <stop offset=".75" stop-color="#30827e"/>
      <stop offset=".76" stop-color="#2f817d"/>
      <stop offset=".76" stop-color="#2f807c"/>
      <stop offset=".77" stop-color="#2e7e7b"/>
      <stop offset=".77" stop-color="#2e7d79"/>
      <stop offset=".77" stop-color="#2d7c78"/>
      <stop offset=".78" stop-color="#2d7b77"/>
      <stop offset=".78" stop-color="#2d7a76"/>
      <stop offset=".79" stop-color="#2d7875"/>
      <stop offset=".79" stop-color="#2c7774"/>
      <stop offset=".79" stop-color="#2c7673"/>
      <stop offset=".8" stop-color="#2b7571"/>
      <stop offset=".8" stop-color="#2b7470"/>
      <stop offset=".8" stop-color="#2b726f"/>
      <stop offset=".81" stop-color="#2a716e"/>
      <stop offset=".81" stop-color="#2a706c"/>
      <stop offset=".82" stop-color="#296f6b"/>
      <stop offset=".82" stop-color="#296e6a"/>
      <stop offset=".82" stop-color="#286c69"/>
      <stop offset=".83" stop-color="#286b68"/>
      <stop offset=".83" stop-color="#286a67"/>
      <stop offset=".84" stop-color="#286966"/>
      <stop offset=".84" stop-color="#276864"/>
      <stop offset=".84" stop-color="#276763"/>
      <stop offset=".85" stop-color="#276662"/>
      <stop offset=".85" stop-color="#266561"/>
      <stop offset=".86" stop-color="#266360"/>
      <stop offset=".86" stop-color="#25625f"/>
      <stop offset=".86" stop-color="#25615e"/>
      <stop offset=".87" stop-color="#25605c"/>
      <stop offset=".87" stop-color="#245f5b"/>
      <stop offset=".88" stop-color="#245e5a"/>
      <stop offset=".88" stop-color="#245d59"/>
      <stop offset=".88" stop-color="#235b58"/>
      <stop offset=".89" stop-color="#235a56"/>
      <stop offset=".89" stop-color="#225955"/>
      <stop offset=".89" stop-color="#225854"/>
      <stop offset=".9" stop-color="#225753"/>
      <stop offset=".9" stop-color="#225652"/>
      <stop offset=".91" stop-color="#225551"/>
      <stop offset=".91" stop-color="#215450"/>
      <stop offset=".91" stop-color="#21534f"/>
      <stop offset=".92" stop-color="#21524d"/>
      <stop offset=".92" stop-color="#20514c"/>
      <stop offset=".93" stop-color="#204f4b"/>
      <stop offset=".93" stop-color="#1f4e4a"/>
      <stop offset=".93" stop-color="#1f4d49"/>
      <stop offset=".94" stop-color="#1f4c48"/>
      <stop offset=".94" stop-color="#1f4b47"/>
      <stop offset=".95" stop-color="#1e4a46"/>
      <stop offset=".95" stop-color="#1e4944"/>
      <stop offset=".95" stop-color="#1e4843"/>
      <stop offset=".96" stop-color="#1e4742"/>
      <stop offset=".96" stop-color="#1e4641"/>
      <stop offset=".96" stop-color="#1d4540"/>
      <stop offset=".97" stop-color="#1d433f"/>
      <stop offset=".97" stop-color="#1d423d"/>
      <stop offset=".98" stop-color="#1c413c"/>
      <stop offset=".98" stop-color="#1c403b"/>
      <stop offset=".98" stop-color="#1c3f3a"/>
      <stop offset=".99" stop-color="#1c3e39"/>
      <stop offset=".99" stop-color="#1b3d38"/>
      <stop offset="1" stop-color="#1b3c37"/>
      <stop offset="1" stop-color="#1b3b36"/>
    </linearGradient>
    <linearGradient id="linear-gradient-2" x1="0" y1="69.45" x2="34.47" y2="69.45" xlink:href="#linear-gradient"/>
    <linearGradient id="linear-gradient-3" x1="88.99" y1="69.45" x2="123.47" y2="69.45" xlink:href="#linear-gradient"/>
  </defs>
  <g id="Elements_2" data-name="Elements 2">
    <g>
      <path class="cls-3" d="M88.99,28.87c-2.91-2.35-7.64-4.31-11.5-3.29,2.68,5.55,4.16,13.89,3.08,23.56-.47-11.21-3.75-20.27-4.98-22.79-2.74-1.21-5.17-1.65-7.31-1.6-.72,1.76-1.54,4.27-2.29,7.53-.11-1.49-.26-4.1-.1-7.28.32-7.59,3.31-16.01,8.74-20.45-3.05-2.44-11-5.5-15.88-4.28-1,6.49-3.16,16.22-1.6,24.58.34,2.06,1.03,5.04,1.49,6.64-1.52-2.12-3.15-5.39-3.76-7.02-2.98-.34-6.23.01-9.07,1.76-1.24,2.52-4.51,11.58-4.98,22.79-1.05-9.41.32-17.56,2.86-23.11-3.3-.26-6.86,1.05-9.22,2.95-8.55,5.61-18.36,20.88-18.36,40.28,0,16.65,6.91,31,15.15,40.93,3.19,3.32,10.93,5.27,16.95,4.21-2.33-3.64-4.33-7.71-5.38-13.89,2.29,7.56,5.1,11.4,7.22,13.5,7.33,3.44,20.16,3.66,25.54.46,2.69-2.62,6.59-7.48,7.85-14.24-.05,6.47-2.4,10.72-5.87,14.61,6.37.99,11.39-1.27,14.63-4.65,8.25-9.93,15.15-24.28,15.15-40.93,0-19.39-9.81-34.67-18.36-40.28ZM77.78,56.61c.12,3.91,2.41,7.04,5.26,7.04s5.3-3.29,5.3-7.35c0-1.19-.25-2.26-.61-3.26l11.65-4.17c.61,11.3-3.36,21.38-11,23.82-7.64,2.44-16.65-2.44-18.02-13.44l7.42-2.65ZM62.98,70.51l9.01,9.47c-4.12,1.07-13.06,1.53-17.81-.02l8.8-9.45ZM27.07,48.88l11.65,4.17c-.36.99-.61,2.07-.61,3.26,0,4.06,2.37,7.35,5.3,7.35s5.14-3.13,5.26-7.04l7.42,2.65c-1.37,11-10.38,15.88-18.02,13.44-7.64-2.44-11.61-12.52-11-23.82ZM80.65,100.15l-2.55-4.04s-5.03,1.15-8.57,1.49l-.74,4.26c-2.08.07-4.05.09-5.52.09-1.85,0-4.48-.03-7.16-.16l-.72-4.19c-3.54-.34-8.57-1.49-8.57-1.49l-2.22,3.52c-3.21-1.39-6.87-3.75-10.69-8.1-3.59-4.09-6.66-9.74-8.97-18.21,0,0,6.38,4.13,12.04,7.25l1.74,6.3s4.08,2.52,6.25,2.86l2.33-4.91c2.83.69,5.8,1.08,8.81,1.3l1.59,5.18c2.85.53,6.79.49,9.66.1l2.08-5.19c2.6-.15,5.16-.49,7.65-.97l2.13,4.49c2.18-.34,6.25-2.86,6.25-2.86l1.34-4.85c6.1-3.07,14.8-8.71,14.8-8.71-2.31,8.48-5.38,14.12-8.97,18.21-4.35,4.95-8.49,7.33-12,8.62Z"/>
      <path class="cls-1" d="M34.47,28.87c-7.79-.69-19.47,6.52-24.4,11.91C5.27,46.05,0,57.74,0,69.88s5.37,24.07,12.26,30.58c6.18,5.84,13.06,8.93,19.01,9.62-9.32-8.7-17.49-22.6-17.49-40.43,0-18.97,8.33-35.31,20.7-40.77Z"/>
      <path class="cls-2" d="M113.39,40.79c-4.93-5.39-16.61-12.6-24.4-11.91,12.37,5.46,20.7,21.8,20.7,40.77,0,17.83-8.18,31.73-17.49,40.43,5.96-.69,12.83-3.78,19.01-9.62,6.89-6.51,12.26-18.44,12.26-30.58s-5.27-23.82-10.08-29.09Z"/>
    </g>
  </g>
</svg>