<?xml version="1.0" encoding="UTF-8"?>
<svg id="Layer_2" data-name="Layer 2" xmlns="http://www.w3.org/2000/svg" xmlns:xlink="http://www.w3.org/1999/xlink" viewBox="0 0 128.22 170.17">
  <defs>
    <style>
      .cls-1 {
        fill: url(#linear-gradient-2);
      }

      .cls-2 {
        fill: url(#linear-gradient-4);
      }

      .cls-3 {
        fill: url(#linear-gradient-3);
      }

      .cls-4 {
        fill: url(#linear-gradient);
      }
    </style>
    <linearGradient id="linear-gradient" x1="53.49" y1="159.77" x2="87.12" y2="159.77" gradientUnits="userSpaceOnUse">
      <stop offset="0" stop-color="#60c9b6"/>
      <stop offset=".02" stop-color="#60c9b6"/>
      <stop offset=".02" stop-color="#60c9b6"/>
      <stop offset=".03" stop-color="#60c9b7"/>
      <stop offset=".04" stop-color="#60c9b7"/>
      <stop offset=".05" stop-color="#60c9b7"/>
      <stop offset=".05" stop-color="#60c9b8"/>
      <stop offset=".06" stop-color="#60c9b8"/>
      <stop offset=".07" stop-color="#60c9b9"/>
      <stop offset=".08" stop-color="#61c9b9"/>
      <stop offset=".09" stop-color="#61c9b9"/>
      <stop offset=".09" stop-color="#61c9ba"/>
      <stop offset=".11" stop-color="#61c9ba"/>
      <stop offset=".12" stop-color="#61c9bb"/>
      <stop offset=".12" stop-color="#61c9bb"/>
      <stop offset=".13" stop-color="#61c9bc"/>
      <stop offset=".14" stop-color="#61c9bc"/>
      <stop offset=".16" stop-color="#61c9bc"/>
      <stop offset=".16" stop-color="#61cabd"/>
      <stop offset=".17" stop-color="#61cabd"/>
      <stop offset=".18" stop-color="#61cabe"/>
      <stop offset=".18" stop-color="#61cabe"/>
      <stop offset=".19" stop-color="#61cabe"/>
      <stop offset=".2" stop-color="#61cabe"/>
      <stop offset=".2" stop-color="#61cabf"/>
      <stop offset=".22" stop-color="#61cabf"/>
      <stop offset=".22" stop-color="#61cac0"/>
      <stop offset=".23" stop-color="#61cac0"/>
      <stop offset=".23" stop-color="#61cac0"/>
      <stop offset=".24" stop-color="#61cac0"/>
      <stop offset=".25" stop-color="#61cac1"/>
      <stop offset=".26" stop-color="#61cac1"/>
      <stop offset=".26" stop-color="#62cac1"/>
      <stop offset=".27" stop-color="#62cac2"/>
      <stop offset=".27" stop-color="#62cac2"/>
      <stop offset=".28" stop-color="#62cac2"/>
      <stop offset=".3" stop-color="#62cac3"/>
      <stop offset=".31" stop-color="#62cac3"/>
      <stop offset=".33" stop-color="#62cac4"/>
      <stop offset=".34" stop-color="#62cac4"/>
      <stop offset=".34" stop-color="#62cac5"/>
      <stop offset=".35" stop-color="#62cac5"/>
      <stop offset=".36" stop-color="#62cac6"/>
      <stop offset=".38" stop-color="#62cac6"/>
      <stop offset=".38" stop-color="#62cac7"/>
      <stop offset=".39" stop-color="#62cac7"/>
      <stop offset=".41" stop-color="#62cac7"/>
      <stop offset=".41" stop-color="#63cbc7"/>
      <stop offset=".42" stop-color="#63cbc8"/>
      <stop offset=".43" stop-color="#63cbc8"/>
      <stop offset=".43" stop-color="#61cac7"/>
      <stop offset=".44" stop-color="#60cac7"/>
      <stop offset=".44" stop-color="#60c9c6"/>
      <stop offset=".45" stop-color="#5fc9c5"/>
      <stop offset=".45" stop-color="#5ec9c5"/>
      <stop offset=".45" stop-color="#5dc9c4"/>
      <stop offset=".46" stop-color="#5cc8c4"/>
      <stop offset=".46" stop-color="#5bc8c4"/>
      <stop offset=".46" stop-color="#5ac8c3"/>
      <stop offset=".47" stop-color="#5ac7c2"/>
      <stop offset=".47" stop-color="#59c7c2"/>
      <stop offset=".48" stop-color="#58c7c1"/>
      <stop offset=".48" stop-color="#57c6c1"/>
      <stop offset=".48" stop-color="#56c6c0"/>
      <stop offset=".49" stop-color="#55c6bf"/>
      <stop offset=".49" stop-color="#53c5bf"/>
      <stop offset=".5" stop-color="#53c5be"/>
      <stop offset=".5" stop-color="#52c5be"/>
      <stop offset=".5" stop-color="#51c4bd"/>
      <stop offset=".51" stop-color="#50c4bc"/>
      <stop offset=".51" stop-color="#4fc4bb"/>
      <stop offset=".52" stop-color="#4ec3bb"/>
      <stop offset=".52" stop-color="#4dc3ba"/>
      <stop offset=".52" stop-color="#4dc3ba"/>
      <stop offset=".53" stop-color="#4cc3b9"/>
      <stop offset=".53" stop-color="#4bc2b8"/>
      <stop offset=".54" stop-color="#4ac1b7"/>
      <stop offset=".54" stop-color="#49c1b7"/>
      <stop offset=".54" stop-color="#48c0b6"/>
      <stop offset=".55" stop-color="#47beb5"/>
      <stop offset=".55" stop-color="#47bdb3"/>
      <stop offset=".55" stop-color="#46bdb2"/>
      <stop offset=".56" stop-color="#46bbb1"/>
      <stop offset=".56" stop-color="#45bab0"/>
      <stop offset=".57" stop-color="#44b9b0"/>
      <stop offset=".57" stop-color="#44b8af"/>
      <stop offset=".57" stop-color="#43b7ae"/>
      <stop offset=".58" stop-color="#43b6ad"/>
      <stop offset=".58" stop-color="#43b5ac"/>
      <stop offset=".59" stop-color="#42b4ab"/>
      <stop offset=".59" stop-color="#42b2aa"/>
      <stop offset=".59" stop-color="#41b1a9"/>
      <stop offset=".6" stop-color="#41b0a8"/>
      <stop offset=".6" stop-color="#41afa7"/>
      <stop offset=".61" stop-color="#40aea6"/>
      <stop offset=".61" stop-color="#40aca6"/>
      <stop offset=".61" stop-color="#3faba5"/>
      <stop offset=".62" stop-color="#3faaa4"/>
      <stop offset=".62" stop-color="#3ea9a2"/>
      <stop offset=".62" stop-color="#3ea7a1"/>
      <stop offset=".63" stop-color="#3da6a0"/>
      <stop offset=".63" stop-color="#3da59f"/>
      <stop offset=".64" stop-color="#3da49e"/>
      <stop offset=".64" stop-color="#3da49d"/>
      <stop offset=".64" stop-color="#3ca29c"/>
      <stop offset=".65" stop-color="#3ca19b"/>
      <stop offset=".65" stop-color="#3ba09a"/>
      <stop offset=".66" stop-color="#3a9f99"/>
      <stop offset=".66" stop-color="#3a9d98"/>
      <stop offset=".66" stop-color="#399c97"/>
      <stop offset=".67" stop-color="#399b96"/>
      <stop offset=".67" stop-color="#399a95"/>
      <stop offset=".68" stop-color="#389994"/>
      <stop offset=".68" stop-color="#379893"/>
      <stop offset=".68" stop-color="#379792"/>
      <stop offset=".69" stop-color="#379590"/>
      <stop offset=".69" stop-color="#36948f"/>
      <stop offset=".7" stop-color="#36948e"/>
      <stop offset=".7" stop-color="#36938e"/>
      <stop offset=".7" stop-color="#35918d"/>
      <stop offset=".71" stop-color="#35908c"/>
      <stop offset=".71" stop-color="#348f8b"/>
      <stop offset=".71" stop-color="#348e89"/>
      <stop offset=".72" stop-color="#348d88"/>
      <stop offset=".72" stop-color="#338b87"/>
      <stop offset=".73" stop-color="#338a86"/>
      <stop offset=".73" stop-color="#338985"/>
      <stop offset=".73" stop-color="#328783"/>
      <stop offset=".74" stop-color="#328682"/>
      <stop offset=".74" stop-color="#318581"/>
      <stop offset=".75" stop-color="#318480"/>
      <stop offset=".75" stop-color="#30837f"/>
      <stop offset=".75" stop-color="#30827e"/>
      <stop offset=".76" stop-color="#2f817d"/>
      <stop offset=".76" stop-color="#2f807c"/>
      <stop offset=".77" stop-color="#2e7e7b"/>
      <stop offset=".77" stop-color="#2e7d79"/>
      <stop offset=".77" stop-color="#2d7c78"/>
      <stop offset=".78" stop-color="#2d7b77"/>
      <stop offset=".78" stop-color="#2d7a76"/>
      <stop offset=".79" stop-color="#2d7875"/>
      <stop offset=".79" stop-color="#2c7774"/>
      <stop offset=".79" stop-color="#2c7673"/>
      <stop offset=".8" stop-color="#2b7571"/>
      <stop offset=".8" stop-color="#2b7470"/>
      <stop offset=".8" stop-color="#2b726f"/>
      <stop offset=".81" stop-color="#2a716e"/>
      <stop offset=".81" stop-color="#2a706c"/>
      <stop offset=".82" stop-color="#296f6b"/>
      <stop offset=".82" stop-color="#296e6a"/>
      <stop offset=".82" stop-color="#286c69"/>
      <stop offset=".83" stop-color="#286b68"/>
      <stop offset=".83" stop-color="#286a67"/>
      <stop offset=".84" stop-color="#286966"/>
      <stop offset=".84" stop-color="#276864"/>
      <stop offset=".84" stop-color="#276763"/>
      <stop offset=".85" stop-color="#276662"/>
      <stop offset=".85" stop-color="#266561"/>
      <stop offset=".86" stop-color="#266360"/>
      <stop offset=".86" stop-color="#25625f"/>
      <stop offset=".86" stop-color="#25615e"/>
      <stop offset=".87" stop-color="#25605c"/>
      <stop offset=".87" stop-color="#245f5b"/>
      <stop offset=".88" stop-color="#245e5a"/>
      <stop offset=".88" stop-color="#245d59"/>
      <stop offset=".88" stop-color="#235b58"/>
      <stop offset=".89" stop-color="#235a56"/>
      <stop offset=".89" stop-color="#225955"/>
      <stop offset=".89" stop-color="#225854"/>
      <stop offset=".9" stop-color="#225753"/>
      <stop offset=".9" stop-color="#225652"/>
      <stop offset=".91" stop-color="#225551"/>
      <stop offset=".91" stop-color="#215450"/>
      <stop offset=".91" stop-color="#21534f"/>
      <stop offset=".92" stop-color="#21524d"/>
      <stop offset=".92" stop-color="#20514c"/>
      <stop offset=".93" stop-color="#204f4b"/>
      <stop offset=".93" stop-color="#1f4e4a"/>
      <stop offset=".93" stop-color="#1f4d49"/>
      <stop offset=".94" stop-color="#1f4c48"/>
      <stop offset=".94" stop-color="#1f4b47"/>
      <stop offset=".95" stop-color="#1e4a46"/>
      <stop offset=".95" stop-color="#1e4944"/>
      <stop offset=".95" stop-color="#1e4843"/>
      <stop offset=".96" stop-color="#1e4742"/>
      <stop offset=".96" stop-color="#1e4641"/>
      <stop offset=".96" stop-color="#1d4540"/>
      <stop offset=".97" stop-color="#1d433f"/>
      <stop offset=".97" stop-color="#1d423d"/>
      <stop offset=".98" stop-color="#1c413c"/>
      <stop offset=".98" stop-color="#1c403b"/>
      <stop offset=".98" stop-color="#1c3f3a"/>
      <stop offset=".99" stop-color="#1c3e39"/>
      <stop offset=".99" stop-color="#1b3d38"/>
      <stop offset="1" stop-color="#1b3c37"/>
      <stop offset="1" stop-color="#1b3b36"/>
    </linearGradient>
    <linearGradient id="linear-gradient-2" x1="83.01" y1="167.35" x2="83.01" y2="167.35" xlink:href="#linear-gradient"/>
    <linearGradient id="linear-gradient-3" x1="0" y1="84.41" x2="128.22" y2="84.41" xlink:href="#linear-gradient"/>
    <linearGradient id="linear-gradient-4" x1="33.92" y1="70.09" x2="94.26" y2="70.09" xlink:href="#linear-gradient"/>
  </defs>
  <g id="Elements_2" data-name="Elements 2">
    <g>
      <g>
        <path class="cls-4" d="M82.31,167.34c2.72-5.2,3.7-9.3,4.56-13.3l.25-1.44-1.98-3.23-6.37,10.81-4.87-7.08-6.38,9.96-3.5-8.99-4.13,6.63-4.42-7.3-1.97,2.34c.37,3.69.97,8.07,1.66,11.87,3.75,1.77,8.56,2.6,13.46,2.55,4.85-.05,9.7-.95,13.59-2.52.04-.11.07-.23.11-.3Z"/>
        <polygon class="cls-1" points="83.01 167.35 83.01 167.35 83.01 167.35 83.01 167.35"/>
      </g>
      <g>
        <path class="cls-3" d="M128.22,74.88c0-5.35-15.53-9.94-37.8-12-6.29-14.79-17.78-41.92-19.04-45.88-1.69-5.28.1-6.82,2.64-6.25,3.02.66,8.44,1.28,16.18.2-10.25-1.53-17.01-7.33-20.51-9.95-3.68-2.76-7.57.71-8.9,4.19-1,2.63-15.98,39.78-23.22,57.71C15.42,64.97,0,69.55,0,74.88c0,3.65,7.24,6.95,18.92,9.34-3.5,4.74-6.83,11.54-10.25,21.99-4.64,14.16-3.17,31.46.89,40.44,5.16,11.42,12.91,16.75,20.82,18.43-2.47-3.32-4.46-6.41-6.06-9.41-1.6-3-2.8-5.9-3.7-8.84-1.8-5.87-2.38-11.86-2.42-18.98-.07-10.64,1.77-18.98,4.32-25.8,1.53-4.1,3.32-7.65,5.11-10.84,1.09-1.94,2.23-3.6,3.4-5.06.46.06.92.12,1.39.17-1.17,1.45-2.31,3.12-3.4,5.06-1.79,3.19-3.58,6.74-5.11,10.84-2.55,6.83-4.39,15.16-4.32,25.8.04,7.12.62,13.11,2.42,18.98.9,2.94,2.11,5.84,3.7,8.84,1.6,3,3.59,6.1,6.06,9.41,3.63,1.99,7.18,3.21,10.12,3.49,3.29.31,10.05-.28,12.78-1.11-.6-3.1-1.38-8.24-1.67-10.94l-3.2,3.45-3.45-10.11-4.33,5.79-5.13-14.66-3.23,5.17c-1.11-1.91-2.57-4.67-3.94-7.56-2.38-5-3.76-10.76-4.3-20.52l9.57,15.48,2.47-5.52,4.75,11.39,3-7.56,4.91,10.88,1.09-1.3h0c-.54-8.21-.66-15.94-.47-21.5h0c-6.76-.06-13.7-1.33-18.5-3.25,2.93-9.53,8.88-19.48,16.38-27.11.84,4.97,2.1,9.96,3.44,16.19h0c.9-6.45,2.17-13.06,3.59-18.03.34,0,.67.02,1.01.03-1.43,4.96-2.72,11.55-3.56,18.01-.14,1.09-.28,2.33-.41,3.51.73,3.99,1.46,7.67,2.16,10.53-1.01.07-2.04.11-3.08.12-.19,5.24-.07,12.66.4,20.34l3.51-4.19,2.7,8.51,6.03-8.07,4.07,8.58,5.46-8.53,5.35,7.63,6.85-10.32,2.35,5.3c.03-.53.08-1.26.1-1.48.45-5.68.13-12-.61-18.34-4.55.72-9.3,1.02-13.14.53.85-9.34,3.6-22.53,5.66-30.18.4.39,1.36,1.45,1.77,1.89-.58-1.33-1.34-2.79-2.15-4.18.34-.02.67-.03,1.01-.05,1.4,2.6,2.47,5.18,2.64,5.64,5.39,6.73,10.69,15.89,13.15,24.29-2.29.73-5,1.38-7.82,1.88.76,6.39,1.1,12.78.64,18.51-.02.31-.05.59-.07.89l4.45-9.25,1.85,4.53,7.78-15.25c-.21,10.61-2.51,17.79-5.8,23.52-.45.77-1.06,1.78-1.52,2.51l-3.12-3.81-5.1,13.34-.16-.29c-.87,3.86-2.44,8.26-5.03,13.25h0c4.53.65,11.62-.13,17.48-3.05,5.23-4.33,10.48-10.98,12.35-20.24,2.78-13.74.8-29.22-2.45-39.98-2.25-7.47-5.94-13.68-10.19-18.32.65-.09,1.25-.19,1.87-.29,4.02,4.45,7.53,10.18,9.67,17.26,3.25,10.76,5.23,26.24,2.45,39.98-1.88,9.3-7.53,17.84-13.56,21.52,4.71-1.81,8.08-4.76,11.65-8.77,9.7-10.87,11.29-26.53,8.37-43.93-1.6-9.54-6.31-19.92-11.88-27.22,11.98-2.39,19.44-5.73,19.44-9.44ZM56.11,131.1c1.39-4.91,5.18-13.4,8.81-19.26,4.17,6.51,7.34,13.59,9.43,19.54-6.49,1.13-12.37,1.13-18.24-.29Z"/>
        <path class="cls-2" d="M92.2,67.06c-.48-1.01-.99-2.17-1.46-3.43-.12-.28-.24-.56-.36-.85-.56.88-.74,4.1-1.4,4.67-.95.83-2.47-1.2-3.75-.71-1.21.46-2.28,2.69-3.93,2.93-1.55.22-2.48-1.78-4.56-1.69-.75.03-3.67,2.2-4.56,2.21-1.35.02-2.69-1.96-4.17-1.95-1.53,0-2.66,1.95-4.43,1.95-1.62,0-2.65-2.81-4.17-2.87-1.49-.05-3.05,2.44-4.43,2.34-1.41-.1-2.37-2.98-3.65-3.13-1.43-.16-3.32,2.04-4.56,1.82-1.38-.24-2.28-2.57-3.39-2.87-1.17-.31-2.95,1.15-3.78.78-1.68-.74-1.93-2.58-1.98-3.47-.03.07-.06.14-.1.21-1.81,4.48-3.12,7.73-3.6,8.93,1.59,2.66,11.32,4.8,23.92,5.34,2.02.07,4.12.11,6.27.11,2.04,0,4.02-.03,5.95-.1,12.8-.53,22.7-2.7,24.2-5.4-.35-.82-1.08-2.52-2.06-4.84Z"/>
      </g>
    </g>
  </g>
</svg>