<?xml version="1.0" encoding="UTF-8"?>
<svg id="Layer_2" data-name="Layer 2" xmlns="http://www.w3.org/2000/svg" xmlns:xlink="http://www.w3.org/1999/xlink" viewBox="0 0 192.9 212.29">
  <defs>
    <style>
      .cls-1 {
        fill: url(#linear-gradient-61);
      }

      .cls-2 {
        fill: url(#linear-gradient-15);
      }

      .cls-3 {
        fill: url(#linear-gradient-13);
      }

      .cls-4 {
        fill: url(#linear-gradient-28);
      }

      .cls-5 {
        fill: url(#linear-gradient-65);
      }

      .cls-6 {
        fill: url(#linear-gradient-69);
      }

      .cls-7 {
        fill: url(#linear-gradient-53);
      }

      .cls-8 {
        fill: url(#linear-gradient-42);
      }

      .cls-9 {
        fill: url(#linear-gradient-46);
      }

      .cls-10 {
        fill: url(#linear-gradient-70);
      }

      .cls-11 {
        fill: url(#linear-gradient-60);
      }

      .cls-12 {
        fill: url(#linear-gradient-2);
      }

      .cls-13 {
        fill: url(#linear-gradient-87);
      }

      .cls-14 {
        fill: url(#linear-gradient-64);
      }

      .cls-15 {
        fill: url(#linear-gradient-56);
      }

      .cls-16 {
        fill: url(#linear-gradient-43);
      }

      .cls-17 {
        fill: url(#linear-gradient-25);
      }

      .cls-18 {
        fill: url(#linear-gradient-82);
      }

      .cls-19 {
        fill: url(#linear-gradient-10);
      }

      .cls-20 {
        fill: url(#linear-gradient-12);
      }

      .cls-21 {
        fill: url(#linear-gradient-40);
      }

      .cls-22 {
        fill: url(#linear-gradient-27);
      }

      .cls-23 {
        fill: url(#linear-gradient-68);
      }

      .cls-24 {
        fill: url(#linear-gradient-37);
      }

      .cls-25 {
        fill: url(#linear-gradient-75);
      }

      .cls-26 {
        fill: url(#linear-gradient-55);
      }

      .cls-27 {
        fill: url(#linear-gradient-39);
      }

      .cls-28 {
        fill: url(#linear-gradient-89);
      }

      .cls-29 {
        fill: url(#linear-gradient-52);
      }

      .cls-30 {
        fill: url(#linear-gradient-58);
      }

      .cls-31 {
        fill: url(#linear-gradient-47);
      }

      .cls-32 {
        fill: url(#linear-gradient-26);
      }

      .cls-33 {
        fill: url(#linear-gradient-74);
      }

      .cls-34 {
        fill: url(#linear-gradient-72);
      }

      .cls-35 {
        fill: url(#linear-gradient-4);
      }

      .cls-36 {
        fill: url(#linear-gradient-35);
      }

      .cls-37 {
        fill: url(#linear-gradient-30);
      }

      .cls-38 {
        fill: url(#linear-gradient-76);
      }

      .cls-39 {
        fill: url(#linear-gradient-73);
      }

      .cls-40 {
        fill: url(#linear-gradient-71);
      }

      .cls-41 {
        fill: url(#linear-gradient-44);
      }

      .cls-42 {
        fill: url(#linear-gradient-49);
      }

      .cls-43 {
        fill: url(#linear-gradient-3);
      }

      .cls-44 {
        fill: url(#linear-gradient-34);
      }

      .cls-45 {
        fill: url(#linear-gradient-5);
      }

      .cls-46 {
        fill: url(#linear-gradient-38);
      }

      .cls-47 {
        fill: url(#linear-gradient-22);
      }

      .cls-48 {
        fill: url(#linear-gradient-24);
      }

      .cls-49 {
        fill: url(#linear-gradient-54);
      }

      .cls-50 {
        fill: url(#linear-gradient-33);
      }

      .cls-51 {
        fill: url(#linear-gradient-79);
      }

      .cls-52 {
        fill: url(#linear-gradient-78);
      }

      .cls-53 {
        fill: url(#linear-gradient-51);
      }

      .cls-54 {
        fill: url(#linear-gradient-8);
      }

      .cls-55 {
        fill: url(#linear-gradient-66);
      }

      .cls-56 {
        fill: url(#linear-gradient-57);
      }

      .cls-57 {
        fill: url(#linear-gradient-77);
      }

      .cls-58 {
        fill: url(#linear-gradient-88);
      }

      .cls-59 {
        fill: url(#linear-gradient-14);
      }

      .cls-60 {
        fill: url(#linear-gradient-62);
      }

      .cls-61 {
        fill: url(#linear-gradient-29);
      }

      .cls-62 {
        fill: url(#linear-gradient-20);
      }

      .cls-63 {
        fill: url(#linear-gradient-67);
      }

      .cls-64 {
        fill: url(#linear-gradient-17);
      }

      .cls-65 {
        fill: url(#linear-gradient-50);
      }

      .cls-66 {
        fill: url(#linear-gradient-7);
      }

      .cls-67 {
        fill: url(#linear-gradient-9);
      }

      .cls-68 {
        fill: url(#linear-gradient-59);
      }

      .cls-69 {
        fill: url(#linear-gradient-11);
      }

      .cls-70 {
        fill: url(#linear-gradient-19);
      }

      .cls-71 {
        fill: url(#linear-gradient-80);
      }

      .cls-72 {
        fill: url(#linear-gradient-6);
      }

      .cls-73 {
        fill: url(#linear-gradient-83);
      }

      .cls-74 {
        fill: url(#linear-gradient-36);
      }

      .cls-75 {
        fill: url(#linear-gradient-21);
      }

      .cls-76 {
        fill: url(#linear-gradient-45);
      }

      .cls-77 {
        fill: url(#linear-gradient-85);
      }

      .cls-78 {
        fill: url(#linear-gradient-81);
      }

      .cls-79 {
        fill: url(#linear-gradient-84);
      }

      .cls-80 {
        fill: url(#linear-gradient-48);
      }

      .cls-81 {
        fill: url(#linear-gradient-32);
      }

      .cls-82 {
        fill: url(#linear-gradient-86);
      }

      .cls-83 {
        fill: url(#linear-gradient-41);
      }

      .cls-84 {
        fill: url(#linear-gradient-16);
      }

      .cls-85 {
        fill: url(#linear-gradient);
      }

      .cls-86 {
        fill: url(#linear-gradient-23);
      }

      .cls-87 {
        fill: url(#linear-gradient-31);
      }

      .cls-88 {
        fill: url(#linear-gradient-63);
      }

      .cls-89 {
        fill: url(#linear-gradient-18);
      }
    </style>
    <linearGradient id="linear-gradient" x1="73" y1="182.46" x2="74.37" y2="182.46" gradientUnits="userSpaceOnUse">
      <stop offset="0" stop-color="#60c9b6"/>
      <stop offset=".02" stop-color="#60c9b6"/>
      <stop offset=".02" stop-color="#60c9b6"/>
      <stop offset=".03" stop-color="#60c9b7"/>
      <stop offset=".04" stop-color="#60c9b7"/>
      <stop offset=".05" stop-color="#60c9b7"/>
      <stop offset=".05" stop-color="#60c9b8"/>
      <stop offset=".06" stop-color="#60c9b8"/>
      <stop offset=".07" stop-color="#60c9b9"/>
      <stop offset=".08" stop-color="#61c9b9"/>
      <stop offset=".09" stop-color="#61c9b9"/>
      <stop offset=".09" stop-color="#61c9ba"/>
      <stop offset=".11" stop-color="#61c9ba"/>
      <stop offset=".12" stop-color="#61c9bb"/>
      <stop offset=".12" stop-color="#61c9bb"/>
      <stop offset=".13" stop-color="#61c9bc"/>
      <stop offset=".14" stop-color="#61c9bc"/>
      <stop offset=".16" stop-color="#61c9bc"/>
      <stop offset=".16" stop-color="#61cabd"/>
      <stop offset=".17" stop-color="#61cabd"/>
      <stop offset=".18" stop-color="#61cabe"/>
      <stop offset=".18" stop-color="#61cabe"/>
      <stop offset=".19" stop-color="#61cabe"/>
      <stop offset=".2" stop-color="#61cabe"/>
      <stop offset=".2" stop-color="#61cabf"/>
      <stop offset=".22" stop-color="#61cabf"/>
      <stop offset=".22" stop-color="#61cac0"/>
      <stop offset=".23" stop-color="#61cac0"/>
      <stop offset=".23" stop-color="#61cac0"/>
      <stop offset=".24" stop-color="#61cac0"/>
      <stop offset=".25" stop-color="#61cac1"/>
      <stop offset=".26" stop-color="#61cac1"/>
      <stop offset=".26" stop-color="#62cac1"/>
      <stop offset=".27" stop-color="#62cac2"/>
      <stop offset=".27" stop-color="#62cac2"/>
      <stop offset=".28" stop-color="#62cac2"/>
      <stop offset=".3" stop-color="#62cac3"/>
      <stop offset=".31" stop-color="#62cac3"/>
      <stop offset=".33" stop-color="#62cac4"/>
      <stop offset=".34" stop-color="#62cac4"/>
      <stop offset=".34" stop-color="#62cac5"/>
      <stop offset=".35" stop-color="#62cac5"/>
      <stop offset=".36" stop-color="#62cac6"/>
      <stop offset=".38" stop-color="#62cac6"/>
      <stop offset=".38" stop-color="#62cac7"/>
      <stop offset=".39" stop-color="#62cac7"/>
      <stop offset=".41" stop-color="#62cac7"/>
      <stop offset=".41" stop-color="#63cbc7"/>
      <stop offset=".42" stop-color="#63cbc8"/>
      <stop offset=".43" stop-color="#63cbc8"/>
      <stop offset=".43" stop-color="#61cac7"/>
      <stop offset=".44" stop-color="#60cac7"/>
      <stop offset=".44" stop-color="#60c9c6"/>
      <stop offset=".45" stop-color="#5fc9c5"/>
      <stop offset=".45" stop-color="#5ec9c5"/>
      <stop offset=".45" stop-color="#5dc9c4"/>
      <stop offset=".46" stop-color="#5cc8c4"/>
      <stop offset=".46" stop-color="#5bc8c4"/>
      <stop offset=".46" stop-color="#5ac8c3"/>
      <stop offset=".47" stop-color="#5ac7c2"/>
      <stop offset=".47" stop-color="#59c7c2"/>
      <stop offset=".48" stop-color="#58c7c1"/>
      <stop offset=".48" stop-color="#57c6c1"/>
      <stop offset=".48" stop-color="#56c6c0"/>
      <stop offset=".49" stop-color="#55c6bf"/>
      <stop offset=".49" stop-color="#53c5bf"/>
      <stop offset=".5" stop-color="#53c5be"/>
      <stop offset=".5" stop-color="#52c5be"/>
      <stop offset=".5" stop-color="#51c4bd"/>
      <stop offset=".51" stop-color="#50c4bc"/>
      <stop offset=".51" stop-color="#4fc4bb"/>
      <stop offset=".52" stop-color="#4ec3bb"/>
      <stop offset=".52" stop-color="#4dc3ba"/>
      <stop offset=".52" stop-color="#4dc3ba"/>
      <stop offset=".53" stop-color="#4cc3b9"/>
      <stop offset=".53" stop-color="#4bc2b8"/>
      <stop offset=".54" stop-color="#4ac1b7"/>
      <stop offset=".54" stop-color="#49c1b7"/>
      <stop offset=".54" stop-color="#48c0b6"/>
      <stop offset=".55" stop-color="#47beb5"/>
      <stop offset=".55" stop-color="#47bdb3"/>
      <stop offset=".55" stop-color="#46bdb2"/>
      <stop offset=".56" stop-color="#46bbb1"/>
      <stop offset=".56" stop-color="#45bab0"/>
      <stop offset=".57" stop-color="#44b9b0"/>
      <stop offset=".57" stop-color="#44b8af"/>
      <stop offset=".57" stop-color="#43b7ae"/>
      <stop offset=".58" stop-color="#43b6ad"/>
      <stop offset=".58" stop-color="#43b5ac"/>
      <stop offset=".59" stop-color="#42b4ab"/>
      <stop offset=".59" stop-color="#42b2aa"/>
      <stop offset=".59" stop-color="#41b1a9"/>
      <stop offset=".6" stop-color="#41b0a8"/>
      <stop offset=".6" stop-color="#41afa7"/>
      <stop offset=".61" stop-color="#40aea6"/>
      <stop offset=".61" stop-color="#40aca6"/>
      <stop offset=".61" stop-color="#3faba5"/>
      <stop offset=".62" stop-color="#3faaa4"/>
      <stop offset=".62" stop-color="#3ea9a2"/>
      <stop offset=".62" stop-color="#3ea7a1"/>
      <stop offset=".63" stop-color="#3da6a0"/>
      <stop offset=".63" stop-color="#3da59f"/>
      <stop offset=".64" stop-color="#3da49e"/>
      <stop offset=".64" stop-color="#3da49d"/>
      <stop offset=".64" stop-color="#3ca29c"/>
      <stop offset=".65" stop-color="#3ca19b"/>
      <stop offset=".65" stop-color="#3ba09a"/>
      <stop offset=".66" stop-color="#3a9f99"/>
      <stop offset=".66" stop-color="#3a9d98"/>
      <stop offset=".66" stop-color="#399c97"/>
      <stop offset=".67" stop-color="#399b96"/>
      <stop offset=".67" stop-color="#399a95"/>
      <stop offset=".68" stop-color="#389994"/>
      <stop offset=".68" stop-color="#379893"/>
      <stop offset=".68" stop-color="#379792"/>
      <stop offset=".69" stop-color="#379590"/>
      <stop offset=".69" stop-color="#36948f"/>
      <stop offset=".7" stop-color="#36948e"/>
      <stop offset=".7" stop-color="#36938e"/>
      <stop offset=".7" stop-color="#35918d"/>
      <stop offset=".71" stop-color="#35908c"/>
      <stop offset=".71" stop-color="#348f8b"/>
      <stop offset=".71" stop-color="#348e89"/>
      <stop offset=".72" stop-color="#348d88"/>
      <stop offset=".72" stop-color="#338b87"/>
      <stop offset=".73" stop-color="#338a86"/>
      <stop offset=".73" stop-color="#338985"/>
      <stop offset=".73" stop-color="#328783"/>
      <stop offset=".74" stop-color="#328682"/>
      <stop offset=".74" stop-color="#318581"/>
      <stop offset=".75" stop-color="#318480"/>
      <stop offset=".75" stop-color="#30837f"/>
      <stop offset=".75" stop-color="#30827e"/>
      <stop offset=".76" stop-color="#2f817d"/>
      <stop offset=".76" stop-color="#2f807c"/>
      <stop offset=".77" stop-color="#2e7e7b"/>
      <stop offset=".77" stop-color="#2e7d79"/>
      <stop offset=".77" stop-color="#2d7c78"/>
      <stop offset=".78" stop-color="#2d7b77"/>
      <stop offset=".78" stop-color="#2d7a76"/>
      <stop offset=".79" stop-color="#2d7875"/>
      <stop offset=".79" stop-color="#2c7774"/>
      <stop offset=".79" stop-color="#2c7673"/>
      <stop offset=".8" stop-color="#2b7571"/>
      <stop offset=".8" stop-color="#2b7470"/>
      <stop offset=".8" stop-color="#2b726f"/>
      <stop offset=".81" stop-color="#2a716e"/>
      <stop offset=".81" stop-color="#2a706c"/>
      <stop offset=".82" stop-color="#296f6b"/>
      <stop offset=".82" stop-color="#296e6a"/>
      <stop offset=".82" stop-color="#286c69"/>
      <stop offset=".83" stop-color="#286b68"/>
      <stop offset=".83" stop-color="#286a67"/>
      <stop offset=".84" stop-color="#286966"/>
      <stop offset=".84" stop-color="#276864"/>
      <stop offset=".84" stop-color="#276763"/>
      <stop offset=".85" stop-color="#276662"/>
      <stop offset=".85" stop-color="#266561"/>
      <stop offset=".86" stop-color="#266360"/>
      <stop offset=".86" stop-color="#25625f"/>
      <stop offset=".86" stop-color="#25615e"/>
      <stop offset=".87" stop-color="#25605c"/>
      <stop offset=".87" stop-color="#245f5b"/>
      <stop offset=".88" stop-color="#245e5a"/>
      <stop offset=".88" stop-color="#245d59"/>
      <stop offset=".88" stop-color="#235b58"/>
      <stop offset=".89" stop-color="#235a56"/>
      <stop offset=".89" stop-color="#225955"/>
      <stop offset=".89" stop-color="#225854"/>
      <stop offset=".9" stop-color="#225753"/>
      <stop offset=".9" stop-color="#225652"/>
      <stop offset=".91" stop-color="#225551"/>
      <stop offset=".91" stop-color="#215450"/>
      <stop offset=".91" stop-color="#21534f"/>
      <stop offset=".92" stop-color="#21524d"/>
      <stop offset=".92" stop-color="#20514c"/>
      <stop offset=".93" stop-color="#204f4b"/>
      <stop offset=".93" stop-color="#1f4e4a"/>
      <stop offset=".93" stop-color="#1f4d49"/>
      <stop offset=".94" stop-color="#1f4c48"/>
      <stop offset=".94" stop-color="#1f4b47"/>
      <stop offset=".95" stop-color="#1e4a46"/>
      <stop offset=".95" stop-color="#1e4944"/>
      <stop offset=".95" stop-color="#1e4843"/>
      <stop offset=".96" stop-color="#1e4742"/>
      <stop offset=".96" stop-color="#1e4641"/>
      <stop offset=".96" stop-color="#1d4540"/>
      <stop offset=".97" stop-color="#1d433f"/>
      <stop offset=".97" stop-color="#1d423d"/>
      <stop offset=".98" stop-color="#1c413c"/>
      <stop offset=".98" stop-color="#1c403b"/>
      <stop offset=".98" stop-color="#1c3f3a"/>
      <stop offset=".99" stop-color="#1c3e39"/>
      <stop offset=".99" stop-color="#1b3d38"/>
      <stop offset="1" stop-color="#1b3c37"/>
      <stop offset="1" stop-color="#1b3b36"/>
    </linearGradient>
    <linearGradient id="linear-gradient-2" x1="82.89" y1="182.43" x2="84.03" y2="182.43" xlink:href="#linear-gradient"/>
    <linearGradient id="linear-gradient-3" x1="77.68" y1="182.32" x2="78.82" y2="182.32" xlink:href="#linear-gradient"/>
    <linearGradient id="linear-gradient-4" x1="78.82" y1="182.32" x2="79.64" y2="182.32" xlink:href="#linear-gradient"/>
    <linearGradient id="linear-gradient-5" x1="84.03" y1="182.47" x2="84.77" y2="182.47" xlink:href="#linear-gradient"/>
    <linearGradient id="linear-gradient-6" x1="72.23" y1="182.51" x2="73" y2="182.51" xlink:href="#linear-gradient"/>
    <linearGradient id="linear-gradient-7" x1="0" y1="106.15" x2="192.9" y2="106.15" xlink:href="#linear-gradient"/>
    <linearGradient id="linear-gradient-8" x1="62.34" y1="190.15" x2="83.73" y2="190.15" xlink:href="#linear-gradient"/>
    <linearGradient id="linear-gradient-9" x1="67.36" y1="186.02" x2="88.75" y2="186.02" xlink:href="#linear-gradient"/>
    <linearGradient id="linear-gradient-10" x1="55.42" y1="194.36" x2="76.81" y2="194.36" xlink:href="#linear-gradient"/>
    <linearGradient id="linear-gradient-11" x1="63.52" y1="199.22" x2="84.92" y2="199.22" xlink:href="#linear-gradient"/>
    <linearGradient id="linear-gradient-12" x1="78.33" y1="203.22" x2="99.72" y2="203.22" xlink:href="#linear-gradient"/>
    <linearGradient id="linear-gradient-13" x1="93.77" y1="207.11" x2="115.16" y2="207.11" xlink:href="#linear-gradient"/>
    <linearGradient id="linear-gradient-14" x1="104.69" y1="211.54" x2="126.08" y2="211.54" xlink:href="#linear-gradient"/>
    <linearGradient id="linear-gradient-15" x1="32.28" y1="79.05" x2="36.22" y2="79.05" xlink:href="#linear-gradient"/>
    <linearGradient id="linear-gradient-16" x1="32.83" y1="71.6" x2="36.82" y2="71.6" xlink:href="#linear-gradient"/>
    <linearGradient id="linear-gradient-17" x1="36.3" y1="77.26" x2="40.15" y2="77.26" xlink:href="#linear-gradient"/>
    <linearGradient id="linear-gradient-18" x1="40.62" y1="75.22" x2="44.29" y2="75.22" xlink:href="#linear-gradient"/>
    <linearGradient id="linear-gradient-19" x1="36.74" y1="72.16" x2="40.42" y2="72.16" xlink:href="#linear-gradient"/>
    <linearGradient id="linear-gradient-20" x1="33.49" y1="67.64" x2="37.18" y2="67.64" xlink:href="#linear-gradient"/>
    <linearGradient id="linear-gradient-21" x1="42.36" y1="78.04" x2="46.05" y2="78.04" xlink:href="#linear-gradient"/>
    <linearGradient id="linear-gradient-22" x1="38.06" y1="80.14" x2="41.9" y2="80.14" xlink:href="#linear-gradient"/>
    <linearGradient id="linear-gradient-23" x1="33.42" y1="81.79" x2="37.39" y2="81.79" xlink:href="#linear-gradient"/>
    <linearGradient id="linear-gradient-24" x1="36.58" y1="82.82" x2="40.43" y2="82.82" xlink:href="#linear-gradient"/>
    <linearGradient id="linear-gradient-25" x1="41.47" y1="80.72" x2="45.18" y2="80.72" xlink:href="#linear-gradient"/>
    <linearGradient id="linear-gradient-26" x1="40.05" y1="83.68" x2="43.9" y2="83.68" xlink:href="#linear-gradient"/>
    <linearGradient id="linear-gradient-27" x1="46.47" y1="81.31" x2="50.08" y2="81.31" xlink:href="#linear-gradient"/>
    <linearGradient id="linear-gradient-28" x1="32.24" y1="85.89" x2="36.24" y2="85.89" xlink:href="#linear-gradient"/>
    <linearGradient id="linear-gradient-29" x1="33.32" y1="75.63" x2="37.16" y2="75.63" xlink:href="#linear-gradient"/>
    <linearGradient id="linear-gradient-30" x1="10.95" y1="120.3" x2="14.94" y2="120.3" xlink:href="#linear-gradient"/>
    <linearGradient id="linear-gradient-31" x1="10.7" y1="114.01" x2="14.74" y2="114.01" xlink:href="#linear-gradient"/>
    <linearGradient id="linear-gradient-32" x1="15.52" y1="118.88" x2="19.44" y2="118.88" xlink:href="#linear-gradient"/>
    <linearGradient id="linear-gradient-33" x1="19.93" y1="117.05" x2="23.67" y2="117.05" xlink:href="#linear-gradient"/>
    <linearGradient id="linear-gradient-34" x1="15.96" y1="113.55" x2="19.72" y2="113.55" xlink:href="#linear-gradient"/>
    <linearGradient id="linear-gradient-35" x1="11.35" y1="108.23" x2="15.11" y2="108.23" xlink:href="#linear-gradient"/>
    <linearGradient id="linear-gradient-36" x1="19.55" y1="120.58" x2="23.32" y2="120.58" xlink:href="#linear-gradient"/>
    <linearGradient id="linear-gradient-37" x1="15.16" y1="122.48" x2="19.08" y2="122.48" xlink:href="#linear-gradient"/>
    <linearGradient id="linear-gradient-38" x1="10.47" y1="123.91" x2="14.49" y2="123.91" xlink:href="#linear-gradient"/>
    <linearGradient id="linear-gradient-39" x1="13.56" y1="125.08" x2="17.47" y2="125.08" xlink:href="#linear-gradient"/>
    <linearGradient id="linear-gradient-40" x1="18.53" y1="123.22" x2="22.33" y2="123.22" xlink:href="#linear-gradient"/>
    <linearGradient id="linear-gradient-41" x1="16.99" y1="126.11" x2="20.9" y2="126.11" xlink:href="#linear-gradient"/>
    <linearGradient id="linear-gradient-42" x1="24.43" y1="123.27" x2="28.11" y2="123.27" xlink:href="#linear-gradient"/>
    <linearGradient id="linear-gradient-43" x1="9.1" y1="127.95" x2="13.13" y2="127.95" xlink:href="#linear-gradient"/>
    <linearGradient id="linear-gradient-44" x1="12.87" y1="116.71" x2="16.78" y2="116.71" xlink:href="#linear-gradient"/>
    <linearGradient id="linear-gradient-45" x1="114.21" y1="75.38" x2="118.3" y2="75.38" xlink:href="#linear-gradient"/>
    <linearGradient id="linear-gradient-46" x1="114.01" y1="68.46" x2="118.11" y2="68.46" xlink:href="#linear-gradient"/>
    <linearGradient id="linear-gradient-47" x1="109.57" y1="74.55" x2="113.61" y2="74.55" xlink:href="#linear-gradient"/>
    <linearGradient id="linear-gradient-48" x1="105.11" y1="73.28" x2="109.05" y2="73.28" xlink:href="#linear-gradient"/>
    <linearGradient id="linear-gradient-49" x1="108.57" y1="69.3" x2="112.52" y2="69.3" xlink:href="#linear-gradient"/>
    <linearGradient id="linear-gradient-50" x1="112.92" y1="63.53" x2="116.87" y2="63.53" xlink:href="#linear-gradient"/>
    <linearGradient id="linear-gradient-51" x1="105.93" y1="76.74" x2="109.87" y2="76.74" xlink:href="#linear-gradient"/>
    <linearGradient id="linear-gradient-52" x1="110.39" y1="78.07" x2="114.43" y2="78.07" xlink:href="#linear-gradient"/>
    <linearGradient id="linear-gradient-53" x1="115.14" y1="78.89" x2="119.24" y2="78.89" xlink:href="#linear-gradient"/>
    <linearGradient id="linear-gradient-54" x1="112.32" y1="80.44" x2="116.36" y2="80.44" xlink:href="#linear-gradient"/>
    <linearGradient id="linear-gradient-55" x1="107.25" y1="79.23" x2="111.22" y2="79.23" xlink:href="#linear-gradient"/>
    <linearGradient id="linear-gradient-56" x1="109.06" y1="81.91" x2="113.1" y2="81.91" xlink:href="#linear-gradient"/>
    <linearGradient id="linear-gradient-57" x1="101.52" y1="80.03" x2="105.41" y2="80.03" xlink:href="#linear-gradient"/>
    <linearGradient id="linear-gradient-58" x1="117.01" y1="82.73" x2="121.11" y2="82.73" xlink:href="#linear-gradient"/>
    <linearGradient id="linear-gradient-59" x1="112.31" y1="71.85" x2="116.36" y2="71.85" xlink:href="#linear-gradient"/>
    <linearGradient id="linear-gradient-60" x1="153.79" y1="118.53" x2="157.25" y2="118.53" xlink:href="#linear-gradient"/>
    <linearGradient id="linear-gradient-61" x1="157" y1="113.97" x2="160.55" y2="113.97" xlink:href="#linear-gradient"/>
    <linearGradient id="linear-gradient-62" x1="150.27" y1="116.41" x2="153.59" y2="116.41" xlink:href="#linear-gradient"/>
    <linearGradient id="linear-gradient-63" x1="147.75" y1="113.23" x2="150.84" y2="113.23" xlink:href="#linear-gradient"/>
    <linearGradient id="linear-gradient-64" x1="152.23" y1="110.97" x2="155.35" y2="110.97" xlink:href="#linear-gradient"/>
    <linearGradient id="linear-gradient-65" x1="158.29" y1="108.38" x2="161.41" y2="108.38" xlink:href="#linear-gradient"/>
    <linearGradient id="linear-gradient-66" x1="145.79" y1="115.91" x2="148.91" y2="115.91" xlink:href="#linear-gradient"/>
    <linearGradient id="linear-gradient-67" x1="149.15" y1="119.15" x2="152.47" y2="119.15" xlink:href="#linear-gradient"/>
    <linearGradient id="linear-gradient-68" x1="152.98" y1="122.07" x2="156.47" y2="122.07" xlink:href="#linear-gradient"/>
    <linearGradient id="linear-gradient-69" x1="149.76" y1="122.15" x2="153.08" y2="122.15" xlink:href="#linear-gradient"/>
    <linearGradient id="linear-gradient-70" x1="145.82" y1="118.73" x2="148.97" y2="118.73" xlink:href="#linear-gradient"/>
    <linearGradient id="linear-gradient-71" x1="146.19" y1="121.94" x2="149.5" y2="121.94" xlink:href="#linear-gradient"/>
    <linearGradient id="linear-gradient-72" x1="140.34" y1="116.79" x2="143.37" y2="116.79" xlink:href="#linear-gradient"/>
    <linearGradient id="linear-gradient-73" x1="152.85" y1="126.33" x2="156.39" y2="126.33" xlink:href="#linear-gradient"/>
    <linearGradient id="linear-gradient-74" x1="153.45" y1="114.79" x2="156.77" y2="114.79" xlink:href="#linear-gradient"/>
    <linearGradient id="linear-gradient-75" x1="66.78" y1="57.3" x2="72.19" y2="57.3" xlink:href="#linear-gradient"/>
    <linearGradient id="linear-gradient-76" x1="69.15" y1="48.78" x2="74.54" y2="48.78" xlink:href="#linear-gradient"/>
    <linearGradient id="linear-gradient-77" x1="72.45" y1="58.92" x2="77.87" y2="58.92" xlink:href="#linear-gradient"/>
    <linearGradient id="linear-gradient-78" x1="78.99" y1="57.77" x2="84.36" y2="57.77" xlink:href="#linear-gradient"/>
    <linearGradient id="linear-gradient-79" x1="74.72" y1="49.84" x2="80.1" y2="49.84" xlink:href="#linear-gradient"/>
    <linearGradient id="linear-gradient-80" x1="71.79" y1="43.53" x2="77.17" y2="43.53" xlink:href="#linear-gradient"/>
    <linearGradient id="linear-gradient-81" x1="78.19" y1="61.95" x2="83.56" y2="61.95" xlink:href="#linear-gradient"/>
    <linearGradient id="linear-gradient-82" x1="72.03" y1="62.77" x2="77.45" y2="62.77" xlink:href="#linear-gradient"/>
    <linearGradient id="linear-gradient-83" x1="65.66" y1="62.69" x2="71.07" y2="62.69" xlink:href="#linear-gradient"/>
    <linearGradient id="linear-gradient-84" x1="69.03" y1="65.47" x2="74.45" y2="65.47" xlink:href="#linear-gradient"/>
    <linearGradient id="linear-gradient-85" x1="75.93" y1="64.92" x2="81.32" y2="64.92" xlink:href="#linear-gradient"/>
    <linearGradient id="linear-gradient-86" x1="72.99" y1="68.05" x2="78.4" y2="68.05" xlink:href="#linear-gradient"/>
    <linearGradient id="linear-gradient-87" x1="83.31" y1="67.14" x2="88.65" y2="67.14" xlink:href="#linear-gradient"/>
    <linearGradient id="linear-gradient-88" x1="62.45" y1="67.24" x2="67.84" y2="67.24" xlink:href="#linear-gradient"/>
    <linearGradient id="linear-gradient-89" x1="71.12" y1="53.64" x2="76.54" y2="53.64" xlink:href="#linear-gradient"/>
  </defs>
  <g id="Elements_2" data-name="Elements 2">
    <g>
      <g>
        <path class="cls-85" d="M73,182.49c.46-.03.91-.04,1.37-.06-.18,0-.36,0-.55.01-.28.01-.55.03-.82.05Z"/>
        <path class="cls-12" d="M82.89,182.41c.38.02.76.03,1.14.05-.28-.01-.57-.03-.85-.04-.1,0-.19,0-.29,0Z"/>
        <path class="cls-43" d="M77.68,182.33c.38,0,.76-.02,1.14-.02-.3,0-.61.01-.91.01-.08,0-.15,0-.23,0Z"/>
        <path class="cls-35" d="M78.82,182.31c.27,0,.54.01.82.01-.04,0-.09,0-.13,0-.23,0-.45,0-.68,0Z"/>
        <path class="cls-45" d="M84.03,182.46c.25.01.49.02.74.04h0c-.25-.02-.49-.02-.74-.04Z"/>
        <path class="cls-72" d="M72.23,182.53c.25-.02.51-.03.77-.05-.26.02-.51.03-.77.04h0Z"/>
      </g>
      <path class="cls-66" d="M187.36,96.68c-2.22-.37-3.63-1.43-4.32-4.5-1.01-4.46-4.25-7.1-5.74-8.11l.8-1.11-1.08-.78-12.51,17.29c-12.45,10.55-23.5,15.52-31.94,16.73,2.28,2.28,5.53,3.47,5.53,3.47l-18.64,17.21-2.95-1.38,15.84-25.45-4.31-1.84,7.8-13.72,5.05,2.87,1.26-2.23-5.05-2.87,4.29-7.54-.78-2.48-2.33.71-4.29,7.55-5.05-2.87-1.27,2.23,5.05,2.87-8,14.08-7.23-3.08-2.92,4.88-1.95-.44,5.46-22.64s3.3,1.11,5.61.73c-2.68-4.77-5.18-19.34-6.88-32.72l1.59-7.67c3.01-.99,7.15,0,9.07,1.41,2.14,1.56,3.88,1.97,6.96.44,2.17-1.08,4.88-.91,7.88,1.29-2.8-3.89-4.94-4.77-7.86-4-2.18.58-3.9.19-5.79-2.34-2.74-3.66-6.79-4.74-8.56-5.05l.28-1.34-1.3-.27-3.66,17.66c-6.17,11.58-13.09,23.08-20.45,26.91,1.67.9,4.36,1.53,6.62,1.69l-1.98,24.52-2.93,2.12.63-10.18-2.57-2.28-2.9,2.05-.07,10.12-3.52-2.4-.21-32.82s4.85,1.08,7.93.35c-7.28-7.97-16.55-26.39-21.47-50.45v-13.52c2.74-1.58,7-1.45,9.17-.47,2.41,1.09,4.2,1.14,6.9-.99,1.9-1.49,4.59-1.89,7.98-.34-3.53-3.24-5.8-3.67-8.51-2.32-2.01,1.01-3.78.97-6.14-1.11-3.43-3.02-7.61-3.26-9.4-3.21V0h-1.33v23.41c-5.07,24.56-10.9,43.36-19.04,52.54,4.58-.06,8.36-1.09,8.36-1.09l4,34.2-5.43,1.88-10.55-26.65c2.19-.63,3.44-1.63,5.25-2.54-6.59-3.21-15.54-12.25-23.03-23.3l-3.91-10.45c2.02-2.44,6.05-3.81,8.43-3.64,2.64.18,4.33-.4,6.12-3.34,1.26-2.07,3.64-3.37,7.36-3.11-4.44-1.8-6.72-1.41-8.78.8-1.54,1.65-3.2,2.23-6.14,1.11-4.27-1.63-8.27-.39-9.93.29l-.48-1.28-1.24.46,7.33,19.63c1.48,13.47.23,25.19-4.34,32.8,2.82,0,3.8.18,6.7-1.63l14.31,29.88-2.87,1.39-3.33-1.59-3.33,1.74,11.9,20.54-2.75,1.26-5.16-6.04-4.53,1.96,1.39,7.8-2.23,1.03-6.76-23.08,6.01-2.12c-7.48-3.82-17.45-11.97-27.1-24.03l-4.3-9.86c1.88-2.55,5.84-4.13,8.22-4.09,2.64.04,4.3-.63,5.93-3.66,1.15-2.13,3.46-3.56,7.18-3.5-4.53-1.56-6.79-1.05-8.73,1.27-1.45,1.73-3.08,2.4-6.07,1.43-4.35-1.4-8.28.05-9.9.82l-.55-1.25-1.22.53,8.42,19.34c1.93,14.01,1.08,26.28-2.44,34.78l6.77-2.85,7.8,17.54,10.62,5.29-9.07,3.2-7.53-3.2-7.18,3.47c10.93,8.96,19.39,20.8,24.24,34.37-11.04,5.04-21.15,11.76-30.01,19.85h155.99c-8.25-7.54-17.6-13.89-27.77-18.8,6.42-15.68,15.7-29.88,27.21-41.95l-6.15-2.8-5.86,2.49-20.81-9.74,14.03-.96,15.13-12.41c1.08,1.41,2.82,2.82,5.86,4.23-2.09-5.07,1.27-17.89,6.77-32.73l6.33-8.75c3.15.33,6.52,2.93,7.7,5,1.31,2.3,2.73,3.38,6.17,3.25,2.42-.09,4.83,1.16,6.66,4.4-.96-4.69-2.55-6.38-5.53-6.87ZM19.9,135.97c-.85-2.17.22-4.62,2.39-5.48,2.17-.85,4.62.22,5.47,2.39l.99,3.16-3.26,1.26-2.68-6.95c-.18.05-.35.08-.53.15-.16.06-.29.15-.44.23l2.68,6.95-3.35,1.29.32.74-1.6-3.73ZM24.06,145.67l-2.47-5.76,3.31-1.28,2.24,5.81h.02s-3.1,1.22-3.1,1.22ZM28.1,144.06l-2.23-5.8,3.2-1.23,1.86,5.91-2.83,1.13ZM113.68,163.66c1.24-2.74,4.31-4.04,7.11-3.16l-4.71,10.44-4.67-2.12,2.27-5.16ZM105.9,88.89c.32-1.73,1.86-2.91,3.58-2.84l-1.25,6.71-2.8-.52-.03.18.5-3.54ZM105.29,93.27l2.75.51-.97,5.19-2.52-.47-.14,1.02,2.48.46-.84,4.51,1.01.2.84-4.52,2.49.46.23-1.01-2.52-.47.97-5.19,2.72.51.23-1.01-2.76-.51,1.25-6.71c1.58.56,2.57,2.19,2.26,3.89l-3.38,15-5.6-1.09,1.51-10.79ZM77.36,77.56c2.91.36,5.17,2.81,5.17,5.81v5.64h-5.17v-11.46ZM77.36,90.04h5.17v7.1h-5.17v-7.1ZM77.36,98.18h5.17v7.44h-5.17v-7.44ZM71.24,98.18h5.09v7.44h-4.85l-.26-8.07.02.63ZM71.21,97.15l-.23-7.1h5.35v7.1h-5.12ZM73.88,120.4c0-1.92,1.56-3.48,3.48-3.48s3.48,1.56,3.48,3.48v12.67c-.65-.03-1.3-.05-1.95-.05-1.7,0-3.37.12-5.01.32v-12.94ZM76.33,77.52v11.49h-5.39l-.18-5.64c0-3.14,2.47-5.69,5.57-5.85ZM57.07,110.82l-2.77,1.28-2.37-5.21,2.98-1.35-.36-.89,2.52,6.17ZM54.52,104.59l-3.01,1.37-2.94-6.46,3.26-1.48-.32-.79,3.01,7.37ZM50.01,93.54l1.44,3.51-3.3,1.5-3.29-7.25c2.02-.67,4.25.26,5.16,2.24ZM42.33,97.06c-.89-1.95-.17-4.2,1.59-5.31l3.29,7.23-3.26,1.48.21.43-1.83-3.84ZM44.39,101.39l3.24-1.47,2.94,6.46-3.12,1.42-3.06-6.41ZM50.37,113.93l-2.47-5.19,3.11-1.41,2.37,5.21-3,1.39ZM32.34,168.11c-1.2-2.9.1-6.2,2.9-7.54l4.42,10.61-4.95,2.05.25.54-2.61-5.67ZM38.46,181.41l-3.33-7.23,4.92-2.04,3.05,7.35-4.64,1.93ZM43.56,179.29l.5-.21-3.06-7.34,4.7-1.95-.39-.96-4.71,1.95-4.4-10.58c2.83-.79,5.86.61,7.01,3.39l5.46,13.57-5.11,2.12ZM52.93,159.46l-3.44-7.8c-.78-1.76.02-3.81,1.78-4.59,1.76-.78,3.81.02,4.59,1.78l3.44,7.8-6.37,2.81ZM56.17,125.71c-.76-1.76.05-3.81,1.81-4.58,1.77-.76,3.81.05,4.58,1.82l5.03,11.65c-2.26.64-4.44,1.46-6.52,2.47l-4.9-11.36ZM66.81,182.77c-.24.03-.48.03-.72.06-.52-1.7-.92-3.54-1.24-5.45h1.96v5.39ZM66.81,176.44h-2.13c-.08-.54-.13-1.11-.19-1.66h2.32v1.66ZM66.81,173.84h-2.42c-.15-1.6-.26-3.24-.26-4.92,0-.15.01-.28.01-.42.83.52,1.72.95,2.66,1.26v4.08ZM72.23,182.3c-1.28.08-2.55.21-3.83.33v-5.25h3.83v4.92ZM72.23,176.44h-3.83v-1.66h3.83v1.66ZM72.23,173.84h-3.83v-3.67c.74.14,1.5.22,2.28.22.52,0,1.04-.04,1.54-.11v3.56ZM77.92,182.1c-1.37.02-2.74.05-4.09.12v-4.84h4.09v4.72ZM77.92,176.44h-4.09v-1.66h4.09v1.66ZM77.92,173.84h-4.09v-3.86c1.5-.4,2.88-1.06,4.09-1.95v5.82ZM83.18,182.13c-1.18-.04-2.37-.08-3.56-.08-.04,0-.08,0-.12,0v-4.67h3.68v4.75ZM83.18,176.44h-3.68v-1.66h3.68v1.66ZM83.18,173.84h-3.68v-5.77c1.1.8,2.34,1.42,3.68,1.82v3.95ZM88.56,182.42c-1.26-.1-2.51-.19-3.78-.25v-4.79h3.78v5.04ZM88.56,176.44h-3.78v-1.66h3.78v1.66ZM88.56,173.84h-3.78v-3.61c.62.1,1.25.16,1.89.16s1.27-.07,1.89-.16v3.61ZM88.56,163.6v5.53c-.61.11-1.24.17-1.89.17s-1.28-.06-1.89-.17v-5.53h1.19l-2.06-7.26-2.09,7.26h1.38v5.14c-1.36-.45-2.6-1.15-3.68-2.04v-3.1h1.19l-2.06-7.26-2.09,7.26h1.38v3.04c-1.18,1-2.57,1.77-4.09,2.22v-5.26h1.19l-2.06-7.26-2.09,7.26h1.38v5.59c-.51.07-1.02.12-1.54.12-.78,0-1.55-.08-2.28-.24v-5.46h1.19l-2.06-7.26-2.09,7.26h1.38v4.99c-.94-.35-1.82-.83-2.63-1.41.47-14.07,6.58-22.06,14.07-22.06s13.76,8.2,14.09,22.6c-.69.41-1.42.75-2.2,1v-5.14h1.19l-2.06-7.26-2.09,7.26h1.37ZM90.5,182.55c-.12-.01-.23-.01-.35-.02v-5.15h1.51c-.3,1.81-.68,3.55-1.16,5.17ZM91.82,176.44h-1.67v-1.66h1.87c-.06.56-.12,1.12-.2,1.66ZM92.12,173.84h-1.97v-3.96c.78-.23,1.52-.54,2.23-.92,0,1.67-.11,3.29-.26,4.87ZM98.57,125.71l-4.42,10.24c-2.15-.86-4.39-1.55-6.7-2.04l4.73-10.96c.76-1.76,2.81-2.58,4.58-1.82,1.77.76,2.58,2.81,1.81,4.58ZM99.34,156.13l3.78-7.64c.85-1.72,2.94-2.43,4.66-1.58,1.72.85,2.43,2.94,1.57,4.67l-3.78,7.64-6.24-3.09ZM110.99,169.77l4.66,2.11-3.27,7.25-4.6-2.08,3.21-7.28ZM124.4,168.52l-6.55,13.09-5.21-2.36.68.31,3.27-7.25,4.82,2.19.46-.92-4.86-2.2,4.73-10.48c2.75,1.43,3.95,4.77,2.66,7.63ZM145.62,124.16s.03.04.04.06c-.02-.02-.03-.04-.04-.06-.04-.04-.08-.07-.12-.1.04.04.08.07.12.1ZM139.65,123.92c1.59-1.47,4-1.46,5.6-.08l-5.51,5.01-2.46-2.7,2.36-2.23ZM131.06,132.04l5.48-5.18,2.44,2.69-5.11,4.65-2.81-2.16ZM137.16,136.73l-3.09-2.37.63.49,4.98-4.53,2.31,2.54-4.83,3.88ZM145.38,130.13l-2.58,2.07-2.35-2.59,5.51-5.01c1.21,1.71,1.01,4.07-.58,5.53Z"/>
      <polygon class="cls-54" points="83.73 190.9 63.25 190.9 62.34 189.39 83.27 189.39 83.73 190.9"/>
      <polygon class="cls-67" points="88.75 186.77 67.36 186.77 68.04 185.26 88.13 185.26 88.75 186.77"/>
      <polygon class="cls-19" points="76.81 195.12 55.42 195.12 56.21 193.6 76.3 193.6 76.81 195.12"/>
      <polygon class="cls-69" points="84.92 199.98 63.52 199.98 64.23 198.47 84.48 198.47 84.92 199.98"/>
      <polygon class="cls-20" points="99.72 203.98 78.33 203.98 79.22 202.46 99.23 202.46 99.72 203.98"/>
      <polygon class="cls-3" points="115.16 207.87 94.53 207.87 93.77 206.35 115.16 206.35 115.16 207.87"/>
      <polygon class="cls-59" points="126.08 212.29 104.69 212.29 105.55 210.78 125.24 210.78 126.08 212.29"/>
      <g>
        <path class="cls-2" d="M32.28,79.23c1.58.7,3.33-.19,3.94-1.16-.23,1.93-2.56,2.62-3.94,1.16Z"/>
        <path class="cls-84" d="M32.83,71.63c1.54.78,3.34-.01,4-.95-.33,1.92-2.69,2.48-4,.95Z"/>
        <path class="cls-64" d="M36.3,77.65c1.63.58,3.31-.43,3.85-1.44-.09,1.94-2.36,2.8-3.85,1.44Z"/>
        <path class="cls-89" d="M40.62,75.92c1.68.39,3.24-.81,3.66-1.87.13,1.94-2.02,3.05-3.66,1.87Z"/>
        <path class="cls-70" d="M36.74,72.82c1.68.41,3.25-.77,3.68-1.83.11,1.94-2.06,3.03-3.68,1.83Z"/>
        <path class="cls-62" d="M33.49,68.3c1.68.41,3.25-.77,3.68-1.83.11,1.94-2.06,3.03-3.68,1.83Z"/>
        <path class="cls-75" d="M42.36,78.7c1.68.41,3.25-.76,3.68-1.82.11,1.94-2.06,3.02-3.68,1.82Z"/>
        <path class="cls-47" d="M38.06,80.53c1.63.58,3.31-.43,3.85-1.44-.09,1.94-2.36,2.8-3.85,1.44Z"/>
        <path class="cls-86" d="M33.42,81.91c1.57.73,3.34-.12,3.97-1.07-.27,1.93-2.61,2.56-3.97,1.07Z"/>
        <path class="cls-48" d="M36.58,83.21c1.63.58,3.31-.43,3.85-1.44-.09,1.94-2.36,2.8-3.85,1.44Z"/>
        <path class="cls-17" d="M41.47,81.34c1.67.44,3.26-.7,3.72-1.75.07,1.94-2.12,2.99-3.72,1.75Z"/>
        <path class="cls-32" d="M40.05,84.07c1.63.58,3.31-.43,3.85-1.44-.09,1.94-2.36,2.8-3.85,1.44Z"/>
        <path class="cls-22" d="M46.47,82.09c1.7.33,3.21-.91,3.6-1.99.19,1.94-1.92,3.12-3.6,1.99Z"/>
        <path class="cls-4" d="M32.24,85.94c1.55.77,3.34-.04,3.99-.98-.32,1.92-2.67,2.5-3.99.98Z"/>
        <path class="cls-61" d="M33.32,76.02c1.63.58,3.31-.43,3.85-1.44-.09,1.94-2.36,2.8-3.85,1.44Z"/>
      </g>
      <g>
        <path class="cls-37" d="M10.95,120.35c1.55.77,3.34-.03,3.99-.97-.33,1.92-2.68,2.5-3.99.97Z"/>
        <path class="cls-87" d="M10.7,113.9c1.5.85,3.34.15,4.04-.76-.43,1.9-2.8,2.35-4.04.76Z"/>
        <path class="cls-81" d="M15.52,119.14c1.6.65,3.33-.27,3.91-1.26-.18,1.94-2.49,2.69-3.91,1.26Z"/>
        <path class="cls-50" d="M19.93,117.62c1.66.47,3.27-.65,3.74-1.7.04,1.94-2.16,2.95-3.74,1.7Z"/>
        <path class="cls-44" d="M15.96,114.08c1.66.49,3.28-.61,3.76-1.65.02,1.95-2.2,2.93-3.76,1.65Z"/>
        <path class="cls-36" d="M11.35,108.77c1.66.49,3.28-.61,3.76-1.65.02,1.95-2.2,2.93-3.76,1.65Z"/>
        <path class="cls-74" d="M19.55,121.11c1.66.49,3.28-.61,3.76-1.65.01,1.95-2.2,2.92-3.76,1.65Z"/>
        <path class="cls-24" d="M15.16,122.73c1.6.65,3.33-.27,3.91-1.26-.18,1.94-2.49,2.69-3.91,1.26Z"/>
        <path class="cls-46" d="M10.47,123.89c1.53.8,3.34.04,4.01-.88-.37,1.91-2.73,2.44-4.01.88Z"/>
        <path class="cls-27" d="M13.56,125.34c1.6.65,3.33-.27,3.91-1.26-.18,1.94-2.49,2.69-3.91,1.26Z"/>
        <path class="cls-21" d="M18.53,123.7c1.65.52,3.29-.55,3.8-1.58-.02,1.94-2.26,2.88-3.8,1.58Z"/>
        <path class="cls-83" d="M16.99,126.37c1.6.65,3.33-.27,3.91-1.26-.18,1.94-2.49,2.69-3.91,1.26Z"/>
        <path class="cls-8" d="M24.43,123.93c1.68.41,3.25-.76,3.69-1.82.1,1.94-2.07,3.02-3.69,1.82Z"/>
        <path class="cls-16" d="M9.1,127.87c1.51.84,3.34.12,4.03-.79-.41,1.9-2.79,2.37-4.03.79Z"/>
        <path class="cls-41" d="M12.87,116.97c1.6.65,3.33-.27,3.91-1.26-.18,1.94-2.49,2.69-3.91,1.26Z"/>
      </g>
      <g>
        <path class="cls-76" d="M118.3,75.03c-1.43.97-3.31.41-4.09-.44.57,1.86,2.98,2.12,4.09.44Z"/>
        <path class="cls-9" d="M118.11,67.96c-1.38,1.04-3.29.58-4.1-.22.67,1.83,3.09,1.97,4.1.22Z"/>
        <path class="cls-31" d="M113.61,74.43c-1.5.86-3.33.16-4.04-.74.43,1.9,2.82,2.34,4.04.74Z"/>
        <path class="cls-80" d="M109.05,73.5c-1.59.68-3.33-.22-3.93-1.19.21,1.93,2.53,2.64,3.93,1.19Z"/>
        <path class="cls-42" d="M112.52,69.47c-1.58.7-3.33-.18-3.95-1.15.24,1.93,2.56,2.61,3.95,1.15Z"/>
        <path class="cls-65" d="M116.87,63.71c-1.58.7-3.33-.18-3.95-1.15.24,1.93,2.56,2.61,3.95,1.15Z"/>
        <path class="cls-53" d="M109.87,76.91c-1.58.7-3.33-.18-3.95-1.14.24,1.93,2.57,2.61,3.95,1.14Z"/>
        <path class="cls-29" d="M114.43,77.95c-1.5.86-3.33.16-4.04-.74.43,1.9,2.82,2.34,4.04.74Z"/>
        <path class="cls-7" d="M119.24,78.49c-1.41,1-3.3.48-4.09-.35.61,1.85,3.02,2.06,4.09.35Z"/>
        <path class="cls-49" d="M116.36,80.32c-1.5.86-3.33.16-4.04-.74.43,1.9,2.82,2.34,4.04.74Z"/>
        <path class="cls-26" d="M111.22,79.35c-1.57.73-3.34-.11-3.97-1.07.28,1.93,2.61,2.56,3.97,1.07Z"/>
        <path class="cls-15" d="M113.1,81.79c-1.5.86-3.33.16-4.04-.74.43,1.9,2.82,2.34,4.04.74Z"/>
        <path class="cls-56" d="M105.41,80.34c-1.61.63-3.32-.33-3.89-1.32.15,1.94,2.44,2.73,3.89,1.32Z"/>
        <path class="cls-30" d="M121.11,82.25c-1.39,1.03-3.29.56-4.1-.25.66,1.83,3.07,1.99,4.1.25Z"/>
        <path class="cls-68" d="M116.36,71.73c-1.5.86-3.33.16-4.04-.74.43,1.9,2.82,2.34,4.04.74Z"/>
      </g>
      <g>
        <path class="cls-11" d="M157.25,119.51c-1.72.19-3.12-1.18-3.42-2.28-.36,1.91,1.65,3.27,3.42,2.28Z"/>
        <path class="cls-1" d="M160.55,114.82c-1.71.28-3.18-1.01-3.53-2.1-.25,1.93,1.82,3.17,3.53,2.1Z"/>
        <path class="cls-60" d="M153.59,117.55c-1.73.06-3.03-1.4-3.24-2.53-.5,1.88,1.41,3.38,3.24,2.53Z"/>
        <path class="cls-88" d="M150.84,114.61c-1.72-.13-2.85-1.74-2.93-2.88-.71,1.81,1.01,3.52,2.93,2.88Z"/>
        <path class="cls-14" d="M155.35,112.32c-1.72-.11-2.87-1.71-2.96-2.85-.68,1.82,1.06,3.5,2.96,2.85Z"/>
        <path class="cls-5" d="M161.41,109.73c-1.72-.11-2.87-1.71-2.96-2.85-.68,1.82,1.06,3.5,2.96,2.85Z"/>
        <path class="cls-55" d="M148.91,117.26c-1.72-.11-2.87-1.7-2.97-2.84-.68,1.82,1.06,3.5,2.97,2.84Z"/>
        <path class="cls-63" d="M152.47,120.29c-1.73.06-3.03-1.4-3.24-2.53-.49,1.88,1.41,3.38,3.24,2.53Z"/>
        <path class="cls-23" d="M156.47,123c-1.71.23-3.15-1.11-3.46-2.21-.31,1.92,1.72,3.23,3.46,2.21Z"/>
        <path class="cls-6" d="M153.08,123.29c-1.73.06-3.03-1.4-3.24-2.53-.49,1.88,1.41,3.38,3.24,2.53Z"/>
        <path class="cls-10" d="M148.97,120.05c-1.73-.08-2.9-1.65-3.02-2.79-.65,1.83,1.13,3.48,3.02,2.79Z"/>
        <path class="cls-40" d="M149.5,123.08c-1.73.06-3.03-1.4-3.24-2.53-.5,1.88,1.41,3.38,3.24,2.53Z"/>
        <path class="cls-34" d="M143.37,118.22c-1.72-.19-2.79-1.83-2.83-2.98-.77,1.79.9,3.55,2.83,2.98Z"/>
        <path class="cls-39" d="M156.39,127.2c-1.71.27-3.17-1.04-3.52-2.13-.27,1.93,1.8,3.19,3.52,2.13Z"/>
        <path class="cls-33" d="M156.77,115.94c-1.73.06-3.03-1.4-3.24-2.53-.5,1.88,1.41,3.38,3.24,2.53Z"/>
      </g>
      <g>
        <path class="cls-25" d="M66.78,56.34c1.67,1.55,4.23,1.21,5.41.27-1.13,2.31-4.32,2.16-5.41-.27Z"/>
        <path class="cls-38" d="M69.15,47.75c1.59,1.64,4.17,1.43,5.39.55-1.25,2.24-4.43,1.93-5.39-.55Z"/>
        <path class="cls-57" d="M72.45,58.14c1.78,1.42,4.31.89,5.42-.13-.95,2.38-4.15,2.47-5.42.13Z"/>
        <path class="cls-52" d="M78.99,57.45c1.93,1.21,4.39.39,5.37-.75-.68,2.48-3.84,2.93-5.37.75Z"/>
        <path class="cls-51" d="M74.72,49.47c1.92,1.24,4.38.45,5.38-.69-.71,2.47-3.87,2.88-5.38.69Z"/>
        <path class="cls-71" d="M71.79,43.16c1.92,1.23,4.38.45,5.38-.69-.71,2.47-3.87,2.88-5.38.69Z"/>
        <path class="cls-78" d="M78.19,61.57c1.91,1.24,4.38.45,5.38-.68-.71,2.47-3.88,2.88-5.38.68Z"/>
        <path class="cls-18" d="M72.03,61.98c1.78,1.42,4.31.89,5.42-.13-.95,2.38-4.15,2.47-5.42.13Z"/>
        <path class="cls-73" d="M65.66,61.7c1.64,1.59,4.21,1.3,5.41.38-1.18,2.28-4.36,2.07-5.41-.38Z"/>
        <path class="cls-79" d="M69.03,64.69c1.78,1.42,4.31.89,5.42-.13-.95,2.38-4.15,2.47-5.42.13Z"/>
        <path class="cls-77" d="M75.93,64.47c1.89,1.27,4.37.53,5.39-.58-.75,2.45-3.93,2.8-5.39.58Z"/>
        <path class="cls-82" d="M72.99,67.27c1.78,1.42,4.31.89,5.42-.13-.95,2.38-4.15,2.47-5.42.13Z"/>
        <path class="cls-13" d="M83.31,66.95c1.97,1.15,4.4.25,5.34-.93-.6,2.5-3.74,3.05-5.34.93Z"/>
        <path class="cls-58" d="M62.45,66.22c1.6,1.62,4.18,1.4,5.4.51-1.23,2.25-4.41,1.96-5.4-.51Z"/>
        <path class="cls-28" d="M71.12,52.86c1.78,1.42,4.31.89,5.42-.13-.95,2.38-4.15,2.47-5.42.13Z"/>
      </g>
    </g>
  </g>
</svg>