<?xml version="1.0" encoding="UTF-8"?>
<svg id="Layer_2" data-name="Layer 2" xmlns="http://www.w3.org/2000/svg" xmlns:xlink="http://www.w3.org/1999/xlink" viewBox="0 0 227.2 232.4">
  <defs>
    <style>
      .cls-1 {
        clip-path: url(#clippath-6);
      }

      .cls-2 {
        clip-path: url(#clippath-7);
      }

      .cls-3 {
        clip-path: url(#clippath-4);
      }

      .cls-4 {
        fill: url(#linear-gradient-2);
      }

      .cls-5 {
        clip-path: url(#clippath-9);
      }

      .cls-6 {
        clip-path: url(#clippath-10);
      }

      .cls-7 {
        clip-path: url(#clippath-11);
      }

      .cls-8 {
        fill: none;
      }

      .cls-9 {
        fill: url(#linear-gradient-4);
      }

      .cls-10 {
        fill: url(#linear-gradient-3);
      }

      .cls-11 {
        clip-path: url(#clippath-1);
      }

      .cls-12 {
        fill: url(#linear-gradient-5);
      }

      .cls-13 {
        clip-path: url(#clippath-5);
      }

      .cls-14 {
        clip-path: url(#clippath-8);
      }

      .cls-15 {
        clip-path: url(#clippath-3);
      }

      .cls-16 {
        clip-path: url(#clippath-12);
      }

      .cls-17 {
        clip-path: url(#clippath-14);
      }

      .cls-18 {
        clip-path: url(#clippath-2);
      }

      .cls-19 {
        clip-path: url(#clippath-13);
      }

      .cls-20 {
        fill: url(#linear-gradient);
      }

      .cls-21 {
        clip-path: url(#clippath);
      }
    </style>
    <clipPath id="clippath">
      <rect class="cls-8" x="15.03" width="195.4" height="232.4"/>
    </clipPath>
    <clipPath id="clippath-1">
      <path class="cls-8" d="M84.5,106.98c.06-.85-.39-1.49-1-1.44-.75.06-1.25.44-1.46,1.15-.17.59.43,1.29,1.1,1.39.77.1,1.3-.33,1.35-1.1ZM106.68,106.88c-.03-.16-.01-.35-.09-.47-.53-.87-1.49-1.23-2.46-.86-.22.08-.43.49-.44.75-.01.28.14.69.36.82.72.44,1.52.43,2.29.05.13-.06.23-.2.35-.3ZM174.44,199c-.06-.61,0-.99-.15-1.25-.22-.36-.56-.79-.93-.89-.56-.17-.96.36-1.01.82-.09.96-.03,1.94.05,2.9.02.17.49.42.75.42.27,0,.69-.18.79-.39.27-.58.39-1.22.5-1.59ZM101.01,106.4c-.25-.4-.38-.87-.59-.91-.8-.15-1.64-.26-2.44-.2-.46.04-.91.37-.98,1-.07.72.28,1.41.94,1.55.84.19,1.71.3,2.41-.29.34-.28.47-.8.66-1.14ZM159.6,148.78c.11.46.19.96.34,1.43.18.57,1.38.86,2.22.57.64-.22,1.03-.97.87-1.58-.27-1-.75-1.83-1.59-2.47-.52-.39-1.41-.12-1.56.54-.11.49-.19.98-.28,1.51ZM89.36,108.19c.66-.05,1-.03,1.33-.11.48-.12.91-.31,1.03-.89.12-.56-.34-1.57-.84-1.63-.98-.09-1.98-.17-2.95-.06-.31.03-.75.67-.76,1.05-.02.42.28,1.04.62,1.23.54.3,1.25.32,1.57.4ZM82.27,112.3c.07.59.15,1.43.28,2.27.09.55.89,1,1.59.93.75-.07,1.36-.59,1.3-1.24-.08-1-.21-1.99-.41-2.98-.1-.53-1.07-.97-1.7-.72-.39.16-.67.62-.95.98-.09.11-.06.32-.11.75ZM178.72,201.05c.3-.02.64-.02.98-.06.68-.09,1.38-.82,1.2-1.35-.31-.95-.62-1.92-1.12-2.77-.45-.79-2.33-.51-2.58.33-.19.63-.31,1.31-.34,1.98-.04,1.28.54,1.84,1.85,1.88ZM90.1,110.36c-.33,0-.66-.01-.99,0-1.19.05-1.65.64-1.55,1.97.03.33.07.65.14.98.19.93.84,1.5,1.71,1.38.8-.12,1.61-.31,2.36-.62.82-.34,1.14-1.59.82-2.6-.24-.73-.82-.95-1.5-1.04-.32-.04-.65-.05-.98-.07ZM157.42,200.7c.33-.02.67-.03,1-.07,1.16-.1,1.63-.7,1.64-2.06,0-1.3-.5-1.89-1.7-1.98-.34-.02-.67-.03-1.01-.01-1.64.08-2.36.96-2.18,2.66.07.71.57,1.25,1.25,1.35.33.05.67.07,1,.11ZM157.64,147.4c-.1-.38-.18-1.22-.35-1.24-.59-.06-1.31,0-1.82.29-1.34.78-2.1,2.04-2.42,3.56-.08.4.35,1,.82,1.03.66.05,1.32.06,1.97.05.74-.02,1.25-.43,1.42-1.14.18-.8.25-1.62.38-2.55ZM107.6,111.44c-.23-.44-.4-1.32-.84-1.49-.7-.27-1.6-.17-2.35.02-.31.08-.62.8-.64,1.23-.04.98.06,1.97.19,2.95.1.72.61,1.12,1.35,1.18.93.07,1.7-.43,1.87-1.24.17-.8.26-1.62.42-2.65ZM166.35,125.84c-.02-.41-.03-.91-.07-1.41-.07-.76-.86-1.34-1.83-1.36-1.03-.02-1.83.46-1.88,1.27-.07.99-.08,2.01.02,2.99.1.98,1.06,1.5,2.31,1.4.71-.05,1.17-.51,1.27-1.28.06-.5.12-1,.19-1.6ZM164.88,200.91c.46,0,.62,0,.79,0,1.16-.06,1.71-.82,1.49-2.05-.32-1.9-1.82-2.75-3.68-2.06-.29.1-.59.34-.76.6-.88,1.38-.09,3.23,1.45,3.45.33.05.66.05.7.05ZM178.85,193.16c-.27-1.75-2.03-3.28-3.76-3.19-1.1.06-1.86.64-2.35,1.59-.31.61-.4,1.25-.04,1.88.43.75,1.17.69,1.72.37.99-.58,1.87-.4,2.81.01.28.12.68.13.96.03.26-.1.42-.42.65-.68ZM138.43,152.4c-.12-3.22-.21-3.62-.95-4.33-.58-.56-1.38.71-2.35,3.93-.24.79-.33,1.63-.43,2.45-.07.61.39.93.86,1.07,1.69.53,2.82-.16,2.86-1.68.02-.5,0-1.01,0-1.44ZM95.59,154.07c.25-.05.82-.01,1.21-.26.36-.23.79-.8.73-1.16-.32-2.01-1.1-3.88-2.27-5.56-.17-.24-.54-.34-.82-.49-.36-.19-.88.33-.86.93.06,1.85.13,3.69.24,5.54.03.57.75.99,1.77.98ZM149.22,123.61h0c-.51,0-1.01-.03-1.52,0-1.56.07-2.03.57-2.06,2.19-.02,1.47.2,2.3,1.87,2.38,1,.05,2.02-.02,3.01-.13.73-.08,1.17-.59,1.23-1.35.04-.5.07-1.01.04-1.51-.06-1-.6-1.52-1.57-1.58-.34-.02-.67,0-1.01,0ZM96.77,112.2c.07.86.09,1.35.16,1.85.1.89.69,1.45,1.64,1.49.49.02.99.01,1.48-.04.71-.08,1.33-.63,1.31-1.24-.01-.99-.07-1.98-.19-2.96-.03-.28-.32-.58-.57-.76-.71-.53-2.73-.46-3.25.21-.37.49-.48,1.17-.58,1.46ZM159.41,125.64c-.06-.4-.1-.9-.23-1.37-.14-.47-.42-.94-1-.87-1.14.12-2.29.28-3.42.5-.25.05-.57.43-.62.7-.12.64-.14,1.31-.12,1.97.04.98.51,1.56,1.45,1.71.81.13,1.63.17,2.46.2.54.02,1.27-.69,1.35-1.26.07-.49.09-.99.14-1.58ZM164.12,155.86c-.06-.51-.1-1.02-.17-1.52-.07-.61-.65-1.09-1.42-1.17-2.11-.25-2.93.36-2.97,2.31-.02,1.01.04,2.02.12,3.02.06.72.96,1.33,1.88,1.35,1.45.02,2.33-.68,2.44-1.99.06-.67.08-1.35.12-2.01ZM164.07,169.2c0-1.59.02-2.27-.01-2.94-.06-1.16-.66-1.7-1.97-1.76-.33-.02-.67.02-1,.05-.7.07-1.31.63-1.27,1.27.07,1.5.17,3.01.32,4.5.03.29.27.65.51.82.74.49,1.61.51,2.39.19.39-.16.75-.65.88-1.06.19-.63.17-1.33.14-1.07ZM171.52,123.5c-.41,0-.58,0-.75,0-1.3.05-1.94.51-2.1,1.69-.11.83-.14,1.68-.11,2.51,0,.28.24.69.48.81,1.24.6,2.55.81,3.86.23,1.08-.47,1.54-3.51.69-4.55-.19-.24-.52-.42-.82-.5-.49-.13-.99-.14-1.25-.18ZM92.41,199.46c.71-.14,1.53-.28,2.35-.47.58-.13,1.06-.99.93-1.55-.46-2.06-1.49-3.67-3.44-4.63-.84-.42-1.73.03-1.72.99,0,1.66.06,3.32.16,4.98.01.24.36.55.63.66.29.11.65.02,1.09.02ZM157.3,156c-.04-.31-.02-1.02-.26-1.63-.15-.39-.65-.87-1.03-.9-3.95-.39-4.54.28-3.76,4.15.06.32.19.68.39.92.3.38.66.82,1.09.98,1.98.75,3.36-.13,3.5-2.14.02-.34.04-.68.07-1.38ZM88.32,196.1c-.02-.2-.03-1.03-.17-1.85-.04-.24-.36-.55-.6-.6-.27-.06-.72.02-.88.23-.92,1.17-1.88,2.32-2.62,3.61-.79,1.38-.69,2.92-.05,3.23,1.01.49,1.94.05,2.87-.24,1.08-.34,1.4-.75,1.43-1.74.02-.66,0-1.33,0-2.64ZM160.33,194.15v-.05c1.17,0,2.35.02,3.52-.02.28,0,.68-.19.8-.41.14-.24.14-.7,0-.94-1.85-3.38-5.97-3.57-8.12-1.35-.42.43-.6,1.15-.72,1.77-.1.54.6.98,1.48,1,1,.02,2.02,0,3.03,0ZM142.86,193.99v-.03c1.19,0,2.37.04,3.55-.02.46-.03,1.29-.26,1.3-.43.03-.63-.02-1.43-.38-1.88-1.32-1.62-3.14-1.92-5.07-1.36-1.48.42-2.79,1.22-3.68,2.54-.16.24-.14.63-.14.95,0,.08.25.22.38.22,1.35.02,2.69.01,4.04.01ZM108.4,73.22c0-.12.01-.24.02-.36,3.36.14,6.72.3,10.08.43.67.03,1.35.05,2.01-.06.22-.03.5-.43.53-.69.02-.18-.34-.57-.54-.58-7.74-.28-15.48-.53-23.22-.78-.17,0-.34.03-.5.07-.16.04-.34.09-.47.19-.12.09-.28.27-.27.39.04.29.16.82.27.82,4.02.23,8.05.4,12.07.58ZM138.16,202.46c.88-.11,1.73-.17,2.55-.35.27-.06.66-.45.66-.69,0-1.34-.08-2.69-.22-4.02-.03-.26-.4-.59-.68-.68-1.36-.44-2.67-.18-3.9.47-.27.14-.56.48-.61.76-.19,1.16-.32,2.32-.38,3.5-.01.23.35.63.61.7.64.18,1.32.21,1.96.31ZM152.87,167.74c.06.93.1,1.77.19,2.61.09.75.56,1.26,1.29,1.31.83.06,1.68,0,2.5-.12.27-.04.68-.36.72-.61.32-2.01.35-4.01-.53-5.91-.12-.26-.5-.49-.8-.54-2.39-.44-3.41.2-3.37,2.34,0,.34,0,.68,0,.93ZM147.27,202.11c.29-.05,1.27-.17,2.23-.4.26-.06.63-.49.61-.71-.16-1.29-.35-2.59-.69-3.85-.09-.35-.72-.7-1.16-.77-.98-.15-1.98-.16-2.98-.15-1.17.01-1.7.66-1.68,1.97.01.66.05,1.33.12,1.99.13,1.24.76,1.87,1.86,1.91.34.01.67,0,1.7,0ZM78.28,152.75c-.24-2.23-1.13-4.91-3.53-6.86-.23-.19-.64-.29-.91-.23-.24.05-.59.41-.58.62.12,2.53.24,5.07.47,7.6.06.7.7,1.14,1.43,1.23.5.05,1.02.04,1.52,0,1-.1,1.65-.76,1.59-2.35ZM71.26,151.3s.07,0,.1-.01c-.22-1.65-.43-3.3-.66-4.95-.06-.41-.9-.69-1.24-.44-.13.1-.31.14-.43.24-2.74,2.31-3.14,5.36-2.74,8.65.03.26.43.61.69.65,1.31.21,2.73.5,3.87-.37,1.1-.85.44-2.16.45-3.28,0-.17-.02-.33-.04-.5ZM91.39,149.85c0-1,.02-2.01-.01-3.01,0-.33-.03-.72-.21-.97-.16-.21-.61-.44-.83-.36-2.65.94-5.51,5.64-5.14,8.45.03.25.4.53.67.64.29.13.66.12.99.11q4.71-.17,4.54-4.86ZM112.98,153.96h.04c0-1.01,0-2.01,0-3.02,0-.33.03-.69-.08-.99-.1-.26-.35-.57-.59-.63-.28-.06-.73.02-.93.21-2.41,2.45-4.16,5.26-4.79,8.68-.09.46.32,1.07.75,1.09.67.03,1.34.08,2.01.06,3.38-.14,3.51-.29,3.58-3.89,0-.5,0-1.01,0-1.52ZM110.92,46.13c0-.06,0-.13,0-.2h5.02c.41,0,.88-.73.73-1.07-1.89-4.23-5.94-5.24-9.42-2.36-.38.32-.8.64-1.07,1.05-.35.54-.64,1.14-.83,1.75-.18.58.36.8,2.05.82,1.17.02,2.35,0,3.53,0ZM78.83,165.02h-.13c0-1.69.01-3.38,0-5.07-.01-.5-.02-1.05-.21-1.49-.18-.4-.56-.9-.95-.99-.98-.24-2.03-.26-2.79.61-.2.23-.33.61-.31.91.33,4.03.66,8.06,1.08,12.08.07.72.81,1.01,1.5,1.1.65.08,1.41-.48,1.46-1.1.14-2.02.24-4.04.35-6.05ZM140.19,149.7h.15c.12,1.52.22,3.05.36,4.57.06.69.67,1.34,1.3,1.34,1.52,0,3.04-.01,4.55-.13.42-.03,1.01-.31.95-.99-.3-3.13-1.52-5.9-3.58-8.23-.51-.57-1.45-.8-2.22-1.1-.56-.21-1.51.46-1.52.99-.01,1.19,0,2.37,0,3.56ZM111.98,52.88c-.24,3.48.15,3.86,3.53,3.53.34-.03.67-.07,1-.12,2.63-.35,3.73-1.65,2.85-4.08-.23-.63-.3-1.31-.48-1.96-.48-1.71-.99-2.07-2.93-2.08-3.34-.02-3.58.21-3.89,3.71-.03.33-.05.67-.08,1ZM110,51.79c-.06-.75-.09-1.59-.22-2.42-.05-.29-.29-.7-.54-.78-1.63-.54-3.28-.59-4.91-.05-.27.09-.54.42-.64.7-.34.94-.7,1.9-.88,2.88-.71,3.92.67,5.39,4.58,4.96,1.4-.16,2.17-.85,2.34-2.18.12-1,.18-2.01.28-3.11ZM66.15,202.45c-.33-2.57-.69-5.41-1.09-8.23-.04-.25-.33-.59-.56-.64-.27-.06-.69.06-.9.25-3.38,3.4-3.82,7.67-3.51,12.14.03.48.54.83,1.1.73,1.16-.21,2.31-.42,3.45-.69.86-.2,1.48-.99,1.5-1.79.01-.5,0-1,0-1.77ZM168.49,121.3c1.29,0,2.31.04,3.32-.02.28-.02.67-.25.76-.48.1-.26,0-.73-.19-.92-2.82-2.69-5.66-5.36-8.51-8.02-.11-.1-.32-.09-.47-.17-.34-.19-1.17.21-1.16.6.06,2.36.12,4.74.23,7.1.03.72.49,1.29,1.24,1.39,1.68.22,3.36.37,4.79.52ZM115.2,153.22s.07,0,.11,0c0,1.52-.02,3.03,0,4.54.02.68.61,1.34,1.22,1.39,1.01.1,2.01.19,3.02.2,1.21.01,1.94-.71,1.91-1.82-.07-2.73-.59-5.37-1.96-7.76-.41-.7-1.03-1.32-1.64-1.87-.81-.74-2.28-.25-2.37.76-.14,1.51-.2,3.02-.29,4.54ZM67.35,215.41c-.19-1.73-.34-3.42-.57-5.09-.21-1.51-1.02-2.1-2.41-1.8-.99.21-1.97.49-2.93.79-.9.28-1.26.85-1.23,1.94.03,1.18.07,2.37.2,3.54.45,3.9.99,4.32,4.81,3.83.33-.04.72-.04.98-.22.38-.27.82-.63.95-1.04.2-.62.15-1.33.2-1.95ZM75.48,212.9c-.19-2.19-.31-3.69-.46-5.21-.06-.56-.92-1.19-1.47-1.06-1.15.25-2.32.49-3.43.86-.39.13-.92.68-.91,1.02.1,2.69.3,5.38.51,8.06.05.58.87,1.17,1.49,1.12,1.17-.1,2.35-.25,3.51-.41.52-.07,1.16-.97,1.1-1.52-.12-1.18-.27-2.35-.34-2.86ZM138.29,165.01h.12c0-1.7.02-3.39,0-5.09-.02-.94-.61-1.49-1.59-1.58-1.88-.16-2.78.4-2.79,2.02-.02,3.22.08,6.44.16,9.66.01.5.09,1.06.34,1.46.22.37.71.77,1.12.82,1.76.2,2.6-.51,2.65-2.21.05-1.69.01-3.39.01-5.09ZM102.03,93.08v.03c1.35-.1,2.71-.18,4.06-.3.57-.05,1.33-.81,1.31-1.35-.05-1.35-.09-2.72-.28-4.05-.06-.4-.61-1.07-.9-1.06-2.69.13-5.39.29-8.06.64-1,.13-.96,1.26-.99,2.1-.11,3.85.19,4.16,3.85,4.04.33,0,.68-.04,1.02-.05ZM115.16,76.58v-.27c-1.35,0-2.69-.01-4.04.01-.33,0-.69.06-.97.21-.27.15-.61.44-.64.71-.25,1.83-.26,3.68.39,5.44.13.35.79.74,1.17.72,2.35-.13,4.69-.37,7.04-.61,1.72-.19,2.18-.77,2.27-2.68.02-.5.03-1.01.02-1.51-.02-1.31-.53-1.95-1.71-2-1.18-.06-2.35-.01-3.53-.01ZM67.27,194.34c.38,3.05.75,6.21,1.17,9.38.14,1.09,1.04,1.63,2.26,1.35,3.88-.92,4.22-.82,3.44-5.01-.36-1.96-1.11-3.86-1.85-5.73-.61-1.54-1.96-2.28-3.59-2.31-.39-.01-.92.38-1.15.74-.24.39-.19.95-.28,1.58ZM98.32,165.15c0-3.28,0-5.47,0-7.66,0-.53-.8-1.19-1.43-1.21-2.39-.06-3.23.12-3.17,2.64.07,3.54.21,7.08.34,10.61.02.67.1,1.35.25,2,.17.72.71,1.07,1.45,1.12,1.23.08,2.11-.48,2.19-1.54.19-2.35.3-4.71.37-5.98ZM116.18,92.84c.06,0,1.23-.04,2.4-.14.73-.07,1.32-.49,1.38-1.22.57-7.16,1.05-6.91-5.87-6.16-.83.09-1.66.25-2.48.4-1.33.24-1.82.73-1.81,1.94.06,5.34-.2,5.25,6.38,5.18ZM102.09,75.92c-1.11,0-1.79,0-2.46,0-2.28.03-2.75.45-2.76,2.59-.01,1.18.02,2.37.07,3.55.07,1.53.73,2.33,2.11,2.28,2.36-.09,4.71-.31,7.06-.53.27-.03.67-.38.72-.65.45-2,.53-4.02-.05-6-.11-.38-.67-.83-1.08-.89-1.33-.21-2.69-.27-3.61-.35ZM109.86,69.3c2.65.06,5.69.14,8.73.17.22,0,.59-.33.63-.54.05-.28-.09-.7-.29-.89-1.81-1.55-3.72-2.96-6.04-3.66-5.1-1.55-9.69-.79-13.49,3.2-.09.1-.08.3-.1.46-.07.42.11.65.55.67,3.2.19,6.41.37,10.01.59ZM66.34,163.26h.17c0,1.35-.09,2.71.02,4.05.12,1.34.4,2.66.68,3.97.06.27.37.6.65.69,1.47.51,2.99.51,4.46.06.35-.11.79-.79.76-1.17-.27-3.87-.63-7.73-.98-11.59-.05-.49-.94-1.21-1.47-1.18-1.01.06-2.02.13-3.02.28-.71.12-1.23.58-1.26,1.35-.05,1.17-.01,2.36-.01,3.54ZM122.47,169.98c-.2-2.94-.32-4.96-.49-6.98-.06-.76-.6-1.24-1.32-1.3-1.34-.11-2.69-.13-4.04-.14-.65,0-1.31.61-1.32,1.28-.06,3.54-.1,7.09-.12,10.64,0,.68.6,1.29,1.25,1.34,1.01.07,2.02.14,3.04.16,3.61.04,3.6-.57,3.18-3.39-.12-.84-.19-1.68-.18-1.61ZM152.67,120.74v.04c1.36,0,2.72.01,4.08-.01.5,0,1.03-.04,1.5-.19.29-.09.68-.4.72-.65.43-2.68.69-5.38.06-8.08-.17-.72-1.28-1.3-2.06-.96-3.42,1.47-6.83,2.98-10.22,4.53-.41.19-.93.68-.97,1.06-.1,1.17-.06,2.36.11,3.51.05.31.77.7,1.2.72,1.86.08,3.73.03,5.59.03ZM88.83,210.29h-.2c0-1.84.05-3.69-.01-5.54-.06-1.73-.57-2.15-2.12-1.9-.83.14-1.65.31-2.48.44-.94.15-1.5.68-1.7,1.59-.88,3.97-.98,7.99-.72,12.03.04.6.77,1.15,1.46,1.07,6.48-.69,6.28.56,5.86-6.7-.02-.33-.05-.67-.08-1ZM140.59,165.11h-.14c0,.33,0,.68,0,1.01-.11,6.97-.43,6.38,6.26,5.76,1.36-.13,2.02-.22,2.01-2.28-.01-2.71-.08-5.41-.22-8.1-.16-3.01-.56-3.31-3.79-3.28-.17,0-.34,0-.51,0-3.3.06-3.5.23-3.61,3.34-.05,1.19,0,2.36,0,3.55ZM112.82,168.39h.16c0-.84.01-1.69,0-2.53-.02-1.01-.06-2.02-.12-3.03-.04-.67-.65-1.33-1.28-1.31-1.67.06-3.35.13-5.02.28-.71.06-1.27.57-1.42,1.26-.75,3.46-1.31,6.95-.92,10.52.07.59.72,1.34,1.31,1.33,2.01,0,4.02-.02,6.03-.13.71-.04,1.22-.62,1.24-1.35.05-1.68.02-3.36.02-5.05ZM90.79,208.33c.14,2.23.25,4.09.39,5.94.23,3.01.42,3.19,3.27,3.18,1,0,2.03-.05,3.02-.26.37-.08.79-.63.91-1.05.18-.63.2-1.34.14-2.01-.34-3.36-.69-6.73-1.1-10.09-.08-.66-.27-1.35-.58-1.92-.21-.38-.72-.64-1.14-.82-.28-.12-.67-.05-1-.01-4.13.46-4.02,1.08-3.91,4.35.03,1.01,0,2.03,0,2.68ZM91.89,165.28h-.25c0-1.35.03-2.71,0-4.06-.12-5.07-.14-4.68-4.89-4.44-1.99.1-2.6.67-2.72,2.87-.17,2.87-.19,5.75-.23,8.62-.07,5.09.03,5.56,5.41,4.84.33-.04.68-.08,1-.14,1.16-.19,1.66-.8,1.67-2.11.02-1.86,0-3.72,0-5.58ZM64.14,131.76s0,.06,0,.09c3.02-.21,6.05-.4,9.08-.66,1.63-.14,2.22-1.13,1.37-2.34-2.14-3.02-4.34-6-6.56-8.97-.4-.53-.94-.96-1.46-1.39-1.12-.95-2.57-.79-3.57.37-.22.26-.47.49-.65.78-2.33,3.91-4.64,7.82-6.95,11.73-.21.36.29,1.14.7,1.11,2.68-.24,5.36-.49,8.04-.72ZM118.3,229.59v-.1c3.22,0,6.44.02,9.66,0,1.01,0,2.03-.08,3.04-.17.87-.07,1.51-.87,1.37-1.77-.3-2.01-.62-4.02-.99-6.01-1.19-6.32-2.06-12.69-3.76-18.92-.82-2.98-2.02-5.73-3.36-8.47-.84-1.7-2.12-3.06-3.6-4.21-2.02-1.55-5.07-1.65-7.16-.23-1.42.96-2.61,2.15-3.53,3.61-1.17,1.87-2.18,3.81-2.91,5.91-3.17,9.14-3.58,18.57-3.12,28.11.01.33.03.72.2.98.26.4.58.91.98,1.02.8.21,1.67.24,2.51.24,3.56.02,7.12.01,10.68.01ZM47.83,156.15c-3.01.17-5.21.31-7.42.41-.68.04-1.36-.02-2.03-.08-1.49-.14-2.3-1.49-1.76-2.99.35-.95.76-1.89,1.24-2.78,1.44-2.7,2.92-5.37,4.38-8.06.41-.75.81-1.5,1.16-2.27.3-.66.24-1.33-.35-1.84-.51-.44-1.11-.79-1.6-1.25-1.66-1.57-2.69-3.46-2.95-5.76-.21-1.85-.49-3.7-.77-5.54-.12-.77-.68-1.07-1.41-1.21-3.63-.73-3.7-.85-2.72-4.19,1.43-4.88,2.84-9.77,4.3-14.65.29-.97.61-1.97,1.16-2.8.31-.47,1.08-.78,1.69-.89.69-.12,1.29.35,1.66.96.27.42.49.89.65,1.38,1.8,5.13,3.6,10.25,5.38,15.39.56,1.62.19,2.51-1.34,3.35-.44.25-.9.54-1.38.65-1.82.43-2.49,1.6-2.25,3.37.15,1.18.25,2.37.55,3.51.26.99.89,1.8,1.82,2.37.61.37,1.48.4,1.84-.07.3-.41.62-.82.88-1.25,3.75-6.07,7.45-12.16,11.26-18.19,1.05-1.66,1.63-3.32,1.4-5.28-.14-1.18-.16-2.37-.3-3.55-.09-.73-.52-1.24-1.29-1.33-1.17-.16-2.36-.23-3.53-.45-.72-.14-1.09-.75-1.19-1.47-.09-.64.48-1.38,1.09-1.5.33-.06.66-.16,1-.16,3.69-.02,3.89-.42,3.83-4.2-.01-.84.05-1.71.28-2.51.1-.38.64-.75,1.06-.91.54-.2,1.55.41,1.61.91.18,1.51.31,3.03.45,4.55.13,1.36.44,1.76,1.75,2.12.81.23,1.67.34,2.41.69.36.17.69.81.68,1.23-.02.43-.38,1.06-.75,1.21-.77.3-1.64.33-2.47.49-.68.13-1.27.77-1.23,1.39.09,1.35.17,2.71.38,4.05.07.44.42,1.01.81,1.21,3.31,1.73,6.65,3.39,9.99,5.07.31.16,1.08-.44,1.07-.84-.06-2.37-.17-4.75-.19-7.12,0-1.48-.42-2.53-1.87-3.26-3.66-1.84-5.71-5.21-7.68-8.6-.53-.93.11-2.27,1.1-2.38.84-.1,1.69-.07,2.53-.17,3.69-.42,6.28-2.33,7.73-5.77,1.33-3.15,2.16-6.44,2.62-9.82.14-1.01.24-2.02.4-3.03.17-1.12.88-1.8,1.9-2.18.32-.12.67-.14.98-.27,1.1-.44,1.42-.92,1.16-1.86-.6-2.13-1.32-4.21-1.85-6.36-1.05-4.24-1.42-3.95-5.21-3.72-.65.04-1.32-.16-1.97-.3-.56-.13-1.02-1.2-.72-1.7.43-.72.85-1.47,1.41-2.1,5.09-5.7,10.23-11.35,15.33-17.04q3.01-3.35,2.96-7.63c-.02-1.87,0-3.74-.05-5.61-.06-2.13.25-3.2-3.13-3.48-.34-.02-.67-.15-.99-.25-.53-.17-1.03-1.14-.85-1.66.17-.47.31-.97.57-1.4,1.84-3.05,3.74-6.07,4.93-9.46.11-.29.42-.53.62-.79.35-.44,1.52-.35,1.8.16,1.65,2.96,3.28,5.93,4.95,8.88.99,1.77.89,2.49-.93,3.72-.91.62-1.57,1.28-1.56,2.42.05,3.23.09,6.45.18,9.67.03.88.82,1.5,1.71,1.53,2.41.09,4.77-.1,6.91-1.35,2.93-1.71,5.85-3.44,8.76-5.19,1.05-.62,1.91-1.45,2.36-2.59.18-.46.19-.99.24-1.5.06-.72-.43-1.38-1.1-1.45-1.01-.1-2.05-.06-3.04-.26-.63-.12-1.28-.46-1.77-.87-.5-.43-.85-1.08-.6-1.82.16-.47.37-.94.61-1.39,2.69-5.11,5.01-10.39,6.95-15.84.28-.76.83-1.45,1.31-2.12.32-.43,1.53-.37,1.87.04.21.26.47.5.62.79,2.52,4.84,5.71,9.24,8.69,13.78.46.7.92,1.43,1.3,2.19,1.17,2.3.22,4.12-2.27,4.38-.84.08-1.7.06-2.55.12-2.49.16-2.55.81-2.73,2.83-.2,2.23-1.01,4.27-1.67,6.37-.05.16.33.65.47.64,1.85-.17,3.69-.41,5.54-.63,1.5-.18,2.31.19,2.91,1.47,2.08,4.46,4.12,8.94,6.15,13.42.35.77.63,1.58.87,2.39.47,1.54-.21,2.78-1.72,3.09-.66.14-1.35.16-2.02.24-1.17.16-1.84.93-1.95,2.02-.27,2.53-.43,5.07-.61,7.62-.06.84-.06,1.69-.05,2.54,0,1,.65,1.63,1.56,1.53,1.18-.12,2.35-.3,3.53-.38.73-.05,1.7.76,1.88,1.49.48,1.97.89,3.97,1.42,5.93.31,1.14.68,2.3,1.21,3.34,2.69,5.18,9.12,8.44,14.96,7.61,1.34-.19,2.66-.51,4-.76.74-.14,1.32.18,1.8.69.42.45.34,1.31-.11,1.87-2.75,3.39-6.37,5.57-10.28,7.33-1.9.86-3.98.8-6.01.93-.51.03-1.02.01-1.53.04-.89.06-1.52.7-1.5,1.7.08,2.89.19,5.77.33,8.66.05,1.02.71,1.42,1.76,1.08,2.1-.68,4.18-1.41,6.27-2.12,1.28-.44,2.55-.98,3.85-1.33,2.76-.72,3.45-.46,5.11,1.84,4.47,6.19,9.18,12.21,13.82,18.29,2.99,3.91,6,7.81,9.04,11.68.51.65,1.12,1.33,1.83,1.7,1.94.98,4.69-.16,5.57-2.12.78-1.76.91-3.6.87-5.48-.01-.64-.6-1.27-1.29-1.33-1.18-.1-2.37-.16-3.55-.27-.91-.09-1.55-.93-1.36-1.76.11-.5.17-1.02.36-1.47,1.96-4.52,3.95-9.02,5.94-13.53.14-.3.38-.55.57-.84.35-.53,1.41-.6,1.76-.11.19.28.44.53.58.82,2.41,5.08,5.23,9.91,8.49,14.49.68.96,1.54,1.98.75,3.21-.72,1.13-2,1.15-3.2,1.17-.34,0-.68,0-1.02-.02-.84-.05-1.77-.21-2.31.63-.78,1.24-.49,3.23.57,4.2.88.8,1.84,1.51,2.72,2.31,2.14,1.98,3.95,4.21,5.17,6.87.11.24.01.7-.16.91-.13.17-.62.24-.82.13-.73-.42-1.42-.92-2.11-1.42-1.1-.8-2.15-1.69-3.29-2.41-.99-.61-2.08-1.05-3.13-1.56-.72.71-1.42,1.44-2.16,2.13-.37.35-.77.66-1.18.97-2.62,2-2.87,1.49-.73,4.14,2.87,3.57,5.84,7.06,8.77,10.58,1.09,1.31,2.19,2.59,3.25,3.92.31.39.52.87.74,1.32.44.91-.3,2.32-1.29,2.28-1.52-.06-3.05-.14-4.53-.46-2.49-.54-4.92-1.33-7.39-1.93-1.98-.47-3.99-.82-5.98-1.23-.78-.16-1.29.29-1.74.8-.22.25-.39.56-.53.87-2.02,4.49-4.04,8.98-6.05,13.47-.53,1.18-.42,2.31.36,3.36,2.63,3.54,5.25,7.09,7.89,10.63,2.75,3.67,5.51,7.33,8.25,11.01.5.67.93,1.42,1.34,2.16.35.63-.31,1.72-1.08,2.02-1.03.4-2.03.22-2.97-.18-2.82-1.18-5.61-2.43-8.41-3.65-.68-.3-1.45-.05-1.75.56-.37.76-.77,1.51-1.04,2.31-1.35,4.02-2.72,8.04-3.96,12.09-1.24,4.06-2.32,8.17-3.48,12.26-.19.65-.35,1.34-.69,1.91-.82,1.36-1.93,2.38-3.64,2.41-.85.02-1.7,0-2.55.01-9.68.15-19.37.33-29.05.45-6.97.09-13.94.1-20.9.16-20.9.2-41.81.42-62.71.61-1.18.01-2.36-.07-3.53-.21-.72-.09-1.25-.64-1.39-1.34-1.14-5.65-2.2-11.33-3.36-16.97-.72-3.49-1.57-6.95-2.33-10.44-.58-2.65-1.12-5.32-1.68-7.98-.07-.33-.17-.66-.27-.98-.23-.74-.82-1.13-1.53-.96-7.94,1.81-15.88,3.64-23.83,5.42-.97.21-2,.24-3,.24-.69,0-1.39-1.47-.97-2.01.72-.94,1.44-1.9,2.28-2.71,4.89-4.72,9.82-9.4,14.74-14.09,1.35-1.28,2.82-2.47,4.07-3.84,1.73-1.88,3.55-3.1,6.19-1.92,3.22-.08,6.45-.12,9.67-.24.7-.02,1.27-.5,1.49-1.2.31-.97.58-1.96.76-2.95.79-4.17,1.54-8.34,2.3-12.51.12-.62-.46-1.44-1.07-1.45-2.88-.02-5.77-.01-7.85-.01Z"/>
    </clipPath>
    <clipPath id="clippath-2">
      <path class="cls-8" d="M84.5,106.98c.06-.85-.39-1.49-1-1.44-.75.06-1.25.44-1.46,1.15-.17.59.43,1.29,1.1,1.39.77.1,1.3-.33,1.35-1.1ZM106.68,106.88c-.03-.16-.01-.35-.09-.47-.53-.87-1.49-1.23-2.46-.86-.22.08-.43.49-.44.75-.01.28.14.69.36.82.72.44,1.52.43,2.29.05.13-.06.23-.2.35-.3ZM174.44,199c-.06-.61,0-.99-.15-1.25-.22-.36-.56-.79-.93-.89-.56-.17-.96.36-1.01.82-.09.96-.03,1.94.05,2.9.02.17.49.42.75.42.27,0,.69-.18.79-.39.27-.58.39-1.22.5-1.59ZM101.01,106.4c-.25-.4-.38-.87-.59-.91-.8-.15-1.64-.26-2.44-.2-.46.04-.91.37-.98,1-.07.72.28,1.41.94,1.55.84.19,1.71.3,2.41-.29.34-.28.47-.8.66-1.14ZM159.6,148.78c.11.46.19.96.34,1.43.18.57,1.38.86,2.22.57.64-.22,1.03-.97.87-1.58-.27-1-.75-1.83-1.59-2.47-.52-.39-1.41-.12-1.56.54-.11.49-.19.98-.28,1.51ZM89.36,108.19c.66-.05,1-.03,1.33-.11.48-.12.91-.31,1.03-.89.12-.56-.34-1.57-.84-1.63-.98-.09-1.98-.17-2.95-.06-.31.03-.75.67-.76,1.05-.02.42.28,1.04.62,1.23.54.3,1.25.32,1.57.4ZM82.27,112.3c.07.59.15,1.43.28,2.27.09.55.89,1,1.59.93.75-.07,1.36-.59,1.3-1.24-.08-1-.21-1.99-.41-2.98-.1-.53-1.07-.97-1.7-.72-.39.16-.67.62-.95.98-.09.11-.06.32-.11.75ZM178.72,201.05c.3-.02.64-.02.98-.06.68-.09,1.38-.82,1.2-1.35-.31-.95-.62-1.92-1.12-2.77-.45-.79-2.33-.51-2.58.33-.19.63-.31,1.31-.34,1.98-.04,1.28.54,1.84,1.85,1.88ZM90.1,110.36c-.33,0-.66-.01-.99,0-1.19.05-1.65.64-1.55,1.97.03.33.07.65.14.98.19.93.84,1.5,1.71,1.38.8-.12,1.61-.31,2.36-.62.82-.34,1.14-1.59.82-2.6-.24-.73-.82-.95-1.5-1.04-.32-.04-.65-.05-.98-.07ZM157.42,200.7c.33-.02.67-.03,1-.07,1.16-.1,1.63-.7,1.64-2.06,0-1.3-.5-1.89-1.7-1.98-.34-.02-.67-.03-1.01-.01-1.64.08-2.36.96-2.18,2.66.07.71.57,1.25,1.25,1.35.33.05.67.07,1,.11ZM157.64,147.4c-.1-.38-.18-1.22-.35-1.24-.59-.06-1.31,0-1.82.29-1.34.78-2.1,2.04-2.42,3.56-.08.4.35,1,.82,1.03.66.05,1.32.06,1.97.05.74-.02,1.25-.43,1.42-1.14.18-.8.25-1.62.38-2.55ZM107.6,111.44c-.23-.44-.4-1.32-.84-1.49-.7-.27-1.6-.17-2.35.02-.31.08-.62.8-.64,1.23-.04.98.06,1.97.19,2.95.1.72.61,1.12,1.35,1.18.93.07,1.7-.43,1.87-1.24.17-.8.26-1.62.42-2.65ZM166.35,125.84c-.02-.41-.03-.91-.07-1.41-.07-.76-.86-1.34-1.83-1.36-1.03-.02-1.83.46-1.88,1.27-.07.99-.08,2.01.02,2.99.1.98,1.06,1.5,2.31,1.4.71-.05,1.17-.51,1.27-1.28.06-.5.12-1,.19-1.6ZM164.88,200.91c.46,0,.62,0,.79,0,1.16-.06,1.71-.82,1.49-2.05-.32-1.9-1.82-2.75-3.68-2.06-.29.1-.59.34-.76.6-.88,1.38-.09,3.23,1.45,3.45.33.05.66.05.7.05ZM178.85,193.16c-.27-1.75-2.03-3.28-3.76-3.19-1.1.06-1.86.64-2.35,1.59-.31.61-.4,1.25-.04,1.88.43.75,1.17.69,1.72.37.99-.58,1.87-.4,2.81.01.28.12.68.13.96.03.26-.1.42-.42.65-.68ZM138.43,152.4c-.12-3.22-.21-3.62-.95-4.33-.58-.56-1.38.71-2.35,3.93-.24.79-.33,1.63-.43,2.45-.07.61.39.93.86,1.07,1.69.53,2.82-.16,2.86-1.68.02-.5,0-1.01,0-1.44ZM95.59,154.07c.25-.05.82-.01,1.21-.26.36-.23.79-.8.73-1.16-.32-2.01-1.1-3.88-2.27-5.56-.17-.24-.54-.34-.82-.49-.36-.19-.88.33-.86.93.06,1.85.13,3.69.24,5.54.03.57.75.99,1.77.98ZM149.22,123.61h0c-.51,0-1.01-.03-1.52,0-1.56.07-2.03.57-2.06,2.19-.02,1.47.2,2.3,1.87,2.38,1,.05,2.02-.02,3.01-.13.73-.08,1.17-.59,1.23-1.35.04-.5.07-1.01.04-1.51-.06-1-.6-1.52-1.57-1.58-.34-.02-.67,0-1.01,0ZM96.77,112.2c.07.86.09,1.35.16,1.85.1.89.69,1.45,1.64,1.49.49.02.99.01,1.48-.04.71-.08,1.33-.63,1.31-1.24-.01-.99-.07-1.98-.19-2.96-.03-.28-.32-.58-.57-.76-.71-.53-2.73-.46-3.25.21-.37.49-.48,1.17-.58,1.46ZM159.41,125.64c-.06-.4-.1-.9-.23-1.37-.14-.47-.42-.94-1-.87-1.14.12-2.29.28-3.42.5-.25.05-.57.43-.62.7-.12.64-.14,1.31-.12,1.97.04.98.51,1.56,1.45,1.71.81.13,1.63.17,2.46.2.54.02,1.27-.69,1.35-1.26.07-.49.09-.99.14-1.58ZM164.12,155.86c-.06-.51-.1-1.02-.17-1.52-.07-.61-.65-1.09-1.42-1.17-2.11-.25-2.93.36-2.97,2.31-.02,1.01.04,2.02.12,3.02.06.72.96,1.33,1.88,1.35,1.45.02,2.33-.68,2.44-1.99.06-.67.08-1.35.12-2.01ZM164.07,169.2c0-1.59.02-2.27-.01-2.94-.06-1.16-.66-1.7-1.97-1.76-.33-.02-.67.02-1,.05-.7.07-1.31.63-1.27,1.27.07,1.5.17,3.01.32,4.5.03.29.27.65.51.82.74.49,1.61.51,2.39.19.39-.16.75-.65.88-1.06.19-.63.17-1.33.14-1.07ZM171.52,123.5c-.41,0-.58,0-.75,0-1.3.05-1.94.51-2.1,1.69-.11.83-.14,1.68-.11,2.51,0,.28.24.69.48.81,1.24.6,2.55.81,3.86.23,1.08-.47,1.54-3.51.69-4.55-.19-.24-.52-.42-.82-.5-.49-.13-.99-.14-1.25-.18ZM92.41,199.46c.71-.14,1.53-.28,2.35-.47.58-.13,1.06-.99.93-1.55-.46-2.06-1.49-3.67-3.44-4.63-.84-.42-1.73.03-1.72.99,0,1.66.06,3.32.16,4.98.01.24.36.55.63.66.29.11.65.02,1.09.02ZM157.3,156c-.04-.31-.02-1.02-.26-1.63-.15-.39-.65-.87-1.03-.9-3.95-.39-4.54.28-3.76,4.15.06.32.19.68.39.92.3.38.66.82,1.09.98,1.98.75,3.36-.13,3.5-2.14.02-.34.04-.68.07-1.38ZM88.32,196.1c-.02-.2-.03-1.03-.17-1.85-.04-.24-.36-.55-.6-.6-.27-.06-.72.02-.88.23-.92,1.17-1.88,2.32-2.62,3.61-.79,1.38-.69,2.92-.05,3.23,1.01.49,1.94.05,2.87-.24,1.08-.34,1.4-.75,1.43-1.74.02-.66,0-1.33,0-2.64ZM160.33,194.15v-.05c1.17,0,2.35.02,3.52-.02.28,0,.68-.19.8-.41.14-.24.14-.7,0-.94-1.85-3.38-5.97-3.57-8.12-1.35-.42.43-.6,1.15-.72,1.77-.1.54.6.98,1.48,1,1,.02,2.02,0,3.03,0ZM142.86,193.99v-.03c1.19,0,2.37.04,3.55-.02.46-.03,1.29-.26,1.3-.43.03-.63-.02-1.43-.38-1.88-1.32-1.62-3.14-1.92-5.07-1.36-1.48.42-2.79,1.22-3.68,2.54-.16.24-.14.63-.14.95,0,.08.25.22.38.22,1.35.02,2.69.01,4.04.01ZM108.4,73.22c0-.12.01-.24.02-.36,3.36.14,6.72.3,10.08.43.67.03,1.35.05,2.01-.06.22-.03.5-.43.53-.69.02-.18-.34-.57-.54-.58-7.74-.28-15.48-.53-23.22-.78-.17,0-.34.03-.5.07-.16.04-.34.09-.47.19-.12.09-.28.27-.27.39.04.29.16.82.27.82,4.02.23,8.05.4,12.07.58ZM138.16,202.46c.88-.11,1.73-.17,2.55-.35.27-.06.66-.45.66-.69,0-1.34-.08-2.69-.22-4.02-.03-.26-.4-.59-.68-.68-1.36-.44-2.67-.18-3.9.47-.27.14-.56.48-.61.76-.19,1.16-.32,2.32-.38,3.5-.01.23.35.63.61.7.64.18,1.32.21,1.96.31ZM152.87,167.74c.06.93.1,1.77.19,2.61.09.75.56,1.26,1.29,1.31.83.06,1.68,0,2.5-.12.27-.04.68-.36.72-.61.32-2.01.35-4.01-.53-5.91-.12-.26-.5-.49-.8-.54-2.39-.44-3.41.2-3.37,2.34,0,.34,0,.68,0,.93ZM147.27,202.11c.29-.05,1.27-.17,2.23-.4.26-.06.63-.49.61-.71-.16-1.29-.35-2.59-.69-3.85-.09-.35-.72-.7-1.16-.77-.98-.15-1.98-.16-2.98-.15-1.17.01-1.7.66-1.68,1.97.01.66.05,1.33.12,1.99.13,1.24.76,1.87,1.86,1.91.34.01.67,0,1.7,0ZM78.28,152.75c-.24-2.23-1.13-4.91-3.53-6.86-.23-.19-.64-.29-.91-.23-.24.05-.59.41-.58.62.12,2.53.24,5.07.47,7.6.06.7.7,1.14,1.43,1.23.5.05,1.02.04,1.52,0,1-.1,1.65-.76,1.59-2.35ZM71.26,151.3s.07,0,.1-.01c-.22-1.65-.43-3.3-.66-4.95-.06-.41-.9-.69-1.24-.44-.13.1-.31.14-.43.24-2.74,2.31-3.14,5.36-2.74,8.65.03.26.43.61.69.65,1.31.21,2.73.5,3.87-.37,1.1-.85.44-2.16.45-3.28,0-.17-.02-.33-.04-.5ZM91.39,149.85c0-1,.02-2.01-.01-3.01,0-.33-.03-.72-.21-.97-.16-.21-.61-.44-.83-.36-2.65.94-5.51,5.64-5.14,8.45.03.25.4.53.67.64.29.13.66.12.99.11q4.71-.17,4.54-4.86ZM112.98,153.96h.04c0-1.01,0-2.01,0-3.02,0-.33.03-.69-.08-.99-.1-.26-.35-.57-.59-.63-.28-.06-.73.02-.93.21-2.41,2.45-4.16,5.26-4.79,8.68-.09.46.32,1.07.75,1.09.67.03,1.34.08,2.01.06,3.38-.14,3.51-.29,3.58-3.89,0-.5,0-1.01,0-1.52ZM110.92,46.13c0-.06,0-.13,0-.2h5.02c.41,0,.88-.73.73-1.07-1.89-4.23-5.94-5.24-9.42-2.36-.38.32-.8.64-1.07,1.05-.35.54-.64,1.14-.83,1.75-.18.58.36.8,2.05.82,1.17.02,2.35,0,3.53,0ZM78.83,165.02h-.13c0-1.69.01-3.38,0-5.07-.01-.5-.02-1.05-.21-1.49-.18-.4-.56-.9-.95-.99-.98-.24-2.03-.26-2.79.61-.2.23-.33.61-.31.91.33,4.03.66,8.06,1.08,12.08.07.72.81,1.01,1.5,1.1.65.08,1.41-.48,1.46-1.1.14-2.02.24-4.04.35-6.05ZM140.19,149.7h.15c.12,1.52.22,3.05.36,4.57.06.69.67,1.34,1.3,1.34,1.52,0,3.04-.01,4.55-.13.42-.03,1.01-.31.95-.99-.3-3.13-1.52-5.9-3.58-8.23-.51-.57-1.45-.8-2.22-1.1-.56-.21-1.51.46-1.52.99-.01,1.19,0,2.37,0,3.56ZM111.98,52.88c-.24,3.48.15,3.86,3.53,3.53.34-.03.67-.07,1-.12,2.63-.35,3.73-1.65,2.85-4.08-.23-.63-.3-1.31-.48-1.96-.48-1.71-.99-2.07-2.93-2.08-3.34-.02-3.58.21-3.89,3.71-.03.33-.05.67-.08,1ZM110,51.79c-.06-.75-.09-1.59-.22-2.42-.05-.29-.29-.7-.54-.78-1.63-.54-3.28-.59-4.91-.05-.27.09-.54.42-.64.7-.34.94-.7,1.9-.88,2.88-.71,3.92.67,5.39,4.58,4.96,1.4-.16,2.17-.85,2.34-2.18.12-1,.18-2.01.28-3.11ZM66.15,202.45c-.33-2.57-.69-5.41-1.09-8.23-.04-.25-.33-.59-.56-.64-.27-.06-.69.06-.9.25-3.38,3.4-3.82,7.67-3.51,12.14.03.48.54.83,1.1.73,1.16-.21,2.31-.42,3.45-.69.86-.2,1.48-.99,1.5-1.79.01-.5,0-1,0-1.77ZM168.49,121.3c1.29,0,2.31.04,3.32-.02.28-.02.67-.25.76-.48.1-.26,0-.73-.19-.92-2.82-2.69-5.66-5.36-8.51-8.02-.11-.1-.32-.09-.47-.17-.34-.19-1.17.21-1.16.6.06,2.36.12,4.74.23,7.1.03.72.49,1.29,1.24,1.39,1.68.22,3.36.37,4.79.52ZM115.2,153.22s.07,0,.11,0c0,1.52-.02,3.03,0,4.54.02.68.61,1.34,1.22,1.39,1.01.1,2.01.19,3.02.2,1.21.01,1.94-.71,1.91-1.82-.07-2.73-.59-5.37-1.96-7.76-.41-.7-1.03-1.32-1.64-1.87-.81-.74-2.28-.25-2.37.76-.14,1.51-.2,3.02-.29,4.54ZM67.35,215.41c-.19-1.73-.34-3.42-.57-5.09-.21-1.51-1.02-2.1-2.41-1.8-.99.21-1.97.49-2.93.79-.9.28-1.26.85-1.23,1.94.03,1.18.07,2.37.2,3.54.45,3.9.99,4.32,4.81,3.83.33-.04.72-.04.98-.22.38-.27.82-.63.95-1.04.2-.62.15-1.33.2-1.95ZM75.48,212.9c-.19-2.19-.31-3.69-.46-5.21-.06-.56-.92-1.19-1.47-1.06-1.15.25-2.32.49-3.43.86-.39.13-.92.68-.91,1.02.1,2.69.3,5.38.51,8.06.05.58.87,1.17,1.49,1.12,1.17-.1,2.35-.25,3.51-.41.52-.07,1.16-.97,1.1-1.52-.12-1.18-.27-2.35-.34-2.86ZM138.29,165.01h.12c0-1.7.02-3.39,0-5.09-.02-.94-.61-1.49-1.59-1.58-1.88-.16-2.78.4-2.79,2.02-.02,3.22.08,6.44.16,9.66.01.5.09,1.06.34,1.46.22.37.71.77,1.12.82,1.76.2,2.6-.51,2.65-2.21.05-1.69.01-3.39.01-5.09ZM102.03,93.08v.03c1.35-.1,2.71-.18,4.06-.3.57-.05,1.33-.81,1.31-1.35-.05-1.35-.09-2.72-.28-4.05-.06-.4-.61-1.07-.9-1.06-2.69.13-5.39.29-8.06.64-1,.13-.96,1.26-.99,2.1-.11,3.85.19,4.16,3.85,4.04.33,0,.68-.04,1.02-.05ZM115.16,76.58v-.27c-1.35,0-2.69-.01-4.04.01-.33,0-.69.06-.97.21-.27.15-.61.44-.64.71-.25,1.83-.26,3.68.39,5.44.13.35.79.74,1.17.72,2.35-.13,4.69-.37,7.04-.61,1.72-.19,2.18-.77,2.27-2.68.02-.5.03-1.01.02-1.51-.02-1.31-.53-1.95-1.71-2-1.18-.06-2.35-.01-3.53-.01ZM67.27,194.34c.38,3.05.75,6.21,1.17,9.38.14,1.09,1.04,1.63,2.26,1.35,3.88-.92,4.22-.82,3.44-5.01-.36-1.96-1.11-3.86-1.85-5.73-.61-1.54-1.96-2.28-3.59-2.31-.39-.01-.92.38-1.15.74-.24.39-.19.95-.28,1.58ZM98.32,165.15c0-3.28,0-5.47,0-7.66,0-.53-.8-1.19-1.43-1.21-2.39-.06-3.23.12-3.17,2.64.07,3.54.21,7.08.34,10.61.02.67.1,1.35.25,2,.17.72.71,1.07,1.45,1.12,1.23.08,2.11-.48,2.19-1.54.19-2.35.3-4.71.37-5.98ZM116.18,92.84c.06,0,1.23-.04,2.4-.14.73-.07,1.32-.49,1.38-1.22.57-7.16,1.05-6.91-5.87-6.16-.83.09-1.66.25-2.48.4-1.33.24-1.82.73-1.81,1.94.06,5.34-.2,5.25,6.38,5.18ZM102.09,75.92c-1.11,0-1.79,0-2.46,0-2.28.03-2.75.45-2.76,2.59-.01,1.18.02,2.37.07,3.55.07,1.53.73,2.33,2.11,2.28,2.36-.09,4.71-.31,7.06-.53.27-.03.67-.38.72-.65.45-2,.53-4.02-.05-6-.11-.38-.67-.83-1.08-.89-1.33-.21-2.69-.27-3.61-.35ZM109.86,69.3c2.65.06,5.69.14,8.73.17.22,0,.59-.33.63-.54.05-.28-.09-.7-.29-.89-1.81-1.55-3.72-2.96-6.04-3.66-5.1-1.55-9.69-.79-13.49,3.2-.09.1-.08.3-.1.46-.07.42.11.65.55.67,3.2.19,6.41.37,10.01.59ZM66.34,163.26h.17c0,1.35-.09,2.71.02,4.05.12,1.34.4,2.66.68,3.97.06.27.37.6.65.69,1.47.51,2.99.51,4.46.06.35-.11.79-.79.76-1.17-.27-3.87-.63-7.73-.98-11.59-.05-.49-.94-1.21-1.47-1.18-1.01.06-2.02.13-3.02.28-.71.12-1.23.58-1.26,1.35-.05,1.17-.01,2.36-.01,3.54ZM122.47,169.98c-.2-2.94-.32-4.96-.49-6.98-.06-.76-.6-1.24-1.32-1.3-1.34-.11-2.69-.13-4.04-.14-.65,0-1.31.61-1.32,1.28-.06,3.54-.1,7.09-.12,10.64,0,.68.6,1.29,1.25,1.34,1.01.07,2.02.14,3.04.16,3.61.04,3.6-.57,3.18-3.39-.12-.84-.19-1.68-.18-1.61ZM152.67,120.74v.04c1.36,0,2.72.01,4.08-.01.5,0,1.03-.04,1.5-.19.29-.09.68-.4.72-.65.43-2.68.69-5.38.06-8.08-.17-.72-1.28-1.3-2.06-.96-3.42,1.47-6.83,2.98-10.22,4.53-.41.19-.93.68-.97,1.06-.1,1.17-.06,2.36.11,3.51.05.31.77.7,1.2.72,1.86.08,3.73.03,5.59.03ZM88.83,210.29h-.2c0-1.84.05-3.69-.01-5.54-.06-1.73-.57-2.15-2.12-1.9-.83.14-1.65.31-2.48.44-.94.15-1.5.68-1.7,1.59-.88,3.97-.98,7.99-.72,12.03.04.6.77,1.15,1.46,1.07,6.48-.69,6.28.56,5.86-6.7-.02-.33-.05-.67-.08-1ZM140.59,165.11h-.14c0,.33,0,.68,0,1.01-.11,6.97-.43,6.38,6.26,5.76,1.36-.13,2.02-.22,2.01-2.28-.01-2.71-.08-5.41-.22-8.1-.16-3.01-.56-3.31-3.79-3.28-.17,0-.34,0-.51,0-3.3.06-3.5.23-3.61,3.34-.05,1.19,0,2.36,0,3.55ZM112.82,168.39h.16c0-.84.01-1.69,0-2.53-.02-1.01-.06-2.02-.12-3.03-.04-.67-.65-1.33-1.28-1.31-1.67.06-3.35.13-5.02.28-.71.06-1.27.57-1.42,1.26-.75,3.46-1.31,6.95-.92,10.52.07.59.72,1.34,1.31,1.33,2.01,0,4.02-.02,6.03-.13.71-.04,1.22-.62,1.24-1.35.05-1.68.02-3.36.02-5.05ZM90.79,208.33c.14,2.23.25,4.09.39,5.94.23,3.01.42,3.19,3.27,3.18,1,0,2.03-.05,3.02-.26.37-.08.79-.63.91-1.05.18-.63.2-1.34.14-2.01-.34-3.36-.69-6.73-1.1-10.09-.08-.66-.27-1.35-.58-1.92-.21-.38-.72-.64-1.14-.82-.28-.12-.67-.05-1-.01-4.13.46-4.02,1.08-3.91,4.35.03,1.01,0,2.03,0,2.68ZM91.89,165.28h-.25c0-1.35.03-2.71,0-4.06-.12-5.07-.14-4.68-4.89-4.44-1.99.1-2.6.67-2.72,2.87-.17,2.87-.19,5.75-.23,8.62-.07,5.09.03,5.56,5.41,4.84.33-.04.68-.08,1-.14,1.16-.19,1.66-.8,1.67-2.11.02-1.86,0-3.72,0-5.58ZM64.14,131.76s0,.06,0,.09c3.02-.21,6.05-.4,9.08-.66,1.63-.14,2.22-1.13,1.37-2.34-2.14-3.02-4.34-6-6.56-8.97-.4-.53-.94-.96-1.46-1.39-1.12-.95-2.57-.79-3.57.37-.22.26-.47.49-.65.78-2.33,3.91-4.64,7.82-6.95,11.73-.21.36.29,1.14.7,1.11,2.68-.24,5.36-.49,8.04-.72ZM118.3,229.59v-.1c3.22,0,6.44.02,9.66,0,1.01,0,2.03-.08,3.04-.17.87-.07,1.51-.87,1.37-1.77-.3-2.01-.62-4.02-.99-6.01-1.19-6.32-2.06-12.69-3.76-18.92-.82-2.98-2.02-5.73-3.36-8.47-.84-1.7-2.12-3.06-3.6-4.21-2.02-1.55-5.07-1.65-7.16-.23-1.42.96-2.61,2.15-3.53,3.61-1.17,1.87-2.18,3.81-2.91,5.91-3.17,9.14-3.58,18.57-3.12,28.11.01.33.03.72.2.98.26.4.58.91.98,1.02.8.21,1.67.24,2.51.24,3.56.02,7.12.01,10.68.01ZM47.83,156.15c-3.01.17-5.21.31-7.42.41-.68.04-1.36-.02-2.03-.08-1.49-.14-2.3-1.49-1.76-2.99.35-.95.76-1.89,1.24-2.78,1.44-2.7,2.92-5.37,4.38-8.06.41-.75.81-1.5,1.16-2.27.3-.66.24-1.33-.35-1.84-.51-.44-1.11-.79-1.6-1.25-1.66-1.57-2.69-3.46-2.95-5.76-.21-1.85-.49-3.7-.77-5.54-.12-.77-.68-1.07-1.41-1.21-3.63-.73-3.7-.85-2.72-4.19,1.43-4.88,2.84-9.77,4.3-14.65.29-.97.61-1.97,1.16-2.8.31-.47,1.08-.78,1.69-.89.69-.12,1.29.35,1.66.96.27.42.49.89.65,1.38,1.8,5.13,3.6,10.25,5.38,15.39.56,1.62.19,2.51-1.34,3.35-.44.25-.9.54-1.38.65-1.82.43-2.49,1.6-2.25,3.37.15,1.18.25,2.37.55,3.51.26.99.89,1.8,1.82,2.37.61.37,1.48.4,1.84-.07.3-.41.62-.82.88-1.25,3.75-6.07,7.45-12.16,11.26-18.19,1.05-1.66,1.63-3.32,1.4-5.28-.14-1.18-.16-2.37-.3-3.55-.09-.73-.52-1.24-1.29-1.33-1.17-.16-2.36-.23-3.53-.45-.72-.14-1.09-.75-1.19-1.47-.09-.64.48-1.38,1.09-1.5.33-.06.66-.16,1-.16,3.69-.02,3.89-.42,3.83-4.2-.01-.84.05-1.71.28-2.51.1-.38.64-.75,1.06-.91.54-.2,1.55.41,1.61.91.18,1.51.31,3.03.45,4.55.13,1.36.44,1.76,1.75,2.12.81.23,1.67.34,2.41.69.36.17.69.81.68,1.23-.02.43-.38,1.06-.75,1.21-.77.3-1.64.33-2.47.49-.68.13-1.27.77-1.23,1.39.09,1.35.17,2.71.38,4.05.07.44.42,1.01.81,1.21,3.31,1.73,6.65,3.39,9.99,5.07.31.16,1.08-.44,1.07-.84-.06-2.37-.17-4.75-.19-7.12,0-1.48-.42-2.53-1.87-3.26-3.66-1.84-5.71-5.21-7.68-8.6-.53-.93.11-2.27,1.1-2.38.84-.1,1.69-.07,2.53-.17,3.69-.42,6.28-2.33,7.73-5.77,1.33-3.15,2.16-6.44,2.62-9.82.14-1.01.24-2.02.4-3.03.17-1.12.88-1.8,1.9-2.18.32-.12.67-.14.98-.27,1.1-.44,1.42-.92,1.16-1.86-.6-2.13-1.32-4.21-1.85-6.36-1.05-4.24-1.42-3.95-5.21-3.72-.65.04-1.32-.16-1.97-.3-.56-.13-1.02-1.2-.72-1.7.43-.72.85-1.47,1.41-2.1,5.09-5.7,10.23-11.35,15.33-17.04q3.01-3.35,2.96-7.63c-.02-1.87,0-3.74-.05-5.61-.06-2.13.25-3.2-3.13-3.48-.34-.02-.67-.15-.99-.25-.53-.17-1.03-1.14-.85-1.66.17-.47.31-.97.57-1.4,1.84-3.05,3.74-6.07,4.93-9.46.11-.29.42-.53.62-.79.35-.44,1.52-.35,1.8.16,1.65,2.96,3.28,5.93,4.95,8.88.99,1.77.89,2.49-.93,3.72-.91.62-1.57,1.28-1.56,2.42.05,3.23.09,6.45.18,9.67.03.88.82,1.5,1.71,1.53,2.41.09,4.77-.1,6.91-1.35,2.93-1.71,5.85-3.44,8.76-5.19,1.05-.62,1.91-1.45,2.36-2.59.18-.46.19-.99.24-1.5.06-.72-.43-1.38-1.1-1.45-1.01-.1-2.05-.06-3.04-.26-.63-.12-1.28-.46-1.77-.87-.5-.43-.85-1.08-.6-1.82.16-.47.37-.94.61-1.39,2.69-5.11,5.01-10.39,6.95-15.84.28-.76.83-1.45,1.31-2.12.32-.43,1.53-.37,1.87.04.21.26.47.5.62.79,2.52,4.84,5.71,9.24,8.69,13.78.46.7.92,1.43,1.3,2.19,1.17,2.3.22,4.12-2.27,4.38-.84.08-1.7.06-2.55.12-2.49.16-2.55.81-2.73,2.83-.2,2.23-1.01,4.27-1.67,6.37-.05.16.33.65.47.64,1.85-.17,3.69-.41,5.54-.63,1.5-.18,2.31.19,2.91,1.47,2.08,4.46,4.12,8.94,6.15,13.42.35.77.63,1.58.87,2.39.47,1.54-.21,2.78-1.72,3.09-.66.14-1.35.16-2.02.24-1.17.16-1.84.93-1.95,2.02-.27,2.53-.43,5.07-.61,7.62-.06.84-.06,1.69-.05,2.54,0,1,.65,1.63,1.56,1.53,1.18-.12,2.35-.3,3.53-.38.73-.05,1.7.76,1.88,1.49.48,1.97.89,3.97,1.42,5.93.31,1.14.68,2.3,1.21,3.34,2.69,5.18,9.12,8.44,14.96,7.61,1.34-.19,2.66-.51,4-.76.74-.14,1.32.18,1.8.69.42.45.34,1.31-.11,1.87-2.75,3.39-6.37,5.57-10.28,7.33-1.9.86-3.98.8-6.01.93-.51.03-1.02.01-1.53.04-.89.06-1.52.7-1.5,1.7.08,2.89.19,5.77.33,8.66.05,1.02.71,1.42,1.76,1.08,2.1-.68,4.18-1.41,6.27-2.12,1.28-.44,2.55-.98,3.85-1.33,2.76-.72,3.45-.46,5.11,1.84,4.47,6.19,9.18,12.21,13.82,18.29,2.99,3.91,6,7.81,9.04,11.68.51.65,1.12,1.33,1.83,1.7,1.94.98,4.69-.16,5.57-2.12.78-1.76.91-3.6.87-5.48-.01-.64-.6-1.27-1.29-1.33-1.18-.1-2.37-.16-3.55-.27-.91-.09-1.55-.93-1.36-1.76.11-.5.17-1.02.36-1.47,1.96-4.52,3.95-9.02,5.94-13.53.14-.3.38-.55.57-.84.35-.53,1.41-.6,1.76-.11.19.28.44.53.58.82,2.41,5.08,5.23,9.91,8.49,14.49.68.96,1.54,1.98.75,3.21-.72,1.13-2,1.15-3.2,1.17-.34,0-.68,0-1.02-.02-.84-.05-1.77-.21-2.31.63-.78,1.24-.49,3.23.57,4.2.88.8,1.84,1.51,2.72,2.31,2.14,1.98,3.95,4.21,5.17,6.87.11.24.01.7-.16.91-.13.17-.62.24-.82.13-.73-.42-1.42-.92-2.11-1.42-1.1-.8-2.15-1.69-3.29-2.41-.99-.61-2.08-1.05-3.13-1.56-.72.71-1.42,1.44-2.16,2.13-.37.35-.77.66-1.18.97-2.62,2-2.87,1.49-.73,4.14,2.87,3.57,5.84,7.06,8.77,10.58,1.09,1.31,2.19,2.59,3.25,3.92.31.39.52.87.74,1.32.44.91-.3,2.32-1.29,2.28-1.52-.06-3.05-.14-4.53-.46-2.49-.54-4.92-1.33-7.39-1.93-1.98-.47-3.99-.82-5.98-1.23-.78-.16-1.29.29-1.74.8-.22.25-.39.56-.53.87-2.02,4.49-4.04,8.98-6.05,13.47-.53,1.18-.42,2.31.36,3.36,2.63,3.54,5.25,7.09,7.89,10.63,2.75,3.67,5.51,7.33,8.25,11.01.5.67.93,1.42,1.34,2.16.35.63-.31,1.72-1.08,2.02-1.03.4-2.03.22-2.97-.18-2.82-1.18-5.61-2.43-8.41-3.65-.68-.3-1.45-.05-1.75.56-.37.76-.77,1.51-1.04,2.31-1.35,4.02-2.72,8.04-3.96,12.09-1.24,4.06-2.32,8.17-3.48,12.26-.19.65-.35,1.34-.69,1.91-.82,1.36-1.93,2.38-3.64,2.41-.85.02-1.7,0-2.55.01-9.68.15-19.37.33-29.05.45-6.97.09-13.94.1-20.9.16-20.9.2-41.81.42-62.71.61-1.18.01-2.36-.07-3.53-.21-.72-.09-1.25-.64-1.39-1.34-1.14-5.65-2.2-11.33-3.36-16.97-.72-3.49-1.57-6.95-2.33-10.44-.58-2.65-1.12-5.32-1.68-7.98-.07-.33-.17-.66-.27-.98-.23-.74-.82-1.13-1.53-.96-7.94,1.81-15.88,3.64-23.83,5.42-.97.21-2,.24-3,.24-.69,0-1.39-1.47-.97-2.01.72-.94,1.44-1.9,2.28-2.71,4.89-4.72,9.82-9.4,14.74-14.09,1.35-1.28,2.82-2.47,4.07-3.84,1.73-1.88,3.55-3.1,6.19-1.92,3.22-.08,6.45-.12,9.67-.24.7-.02,1.27-.5,1.49-1.2.31-.97.58-1.96.76-2.95.79-4.17,1.54-8.34,2.3-12.51.12-.62-.46-1.44-1.07-1.45-2.88-.02-5.77-.01-7.85-.01Z"/>
    </clipPath>
    <linearGradient id="linear-gradient" x1="-2200.12" y1="800.88" x2="-2199.54" y2="800.88" gradientTransform="translate(-321471.73 883436.31) rotate(90) scale(401.54 -401.54)" gradientUnits="userSpaceOnUse">
      <stop offset="0" stop-color="#60c9b6"/>
      <stop offset=".02" stop-color="#60c9b6"/>
      <stop offset=".02" stop-color="#60c9b6"/>
      <stop offset=".03" stop-color="#60c9b7"/>
      <stop offset=".03" stop-color="#60c9b7"/>
      <stop offset=".04" stop-color="#60c9b7"/>
      <stop offset=".05" stop-color="#60c9b8"/>
      <stop offset=".05" stop-color="#60c9b8"/>
      <stop offset=".06" stop-color="#60c9b8"/>
      <stop offset=".07" stop-color="#61c9b9"/>
      <stop offset=".07" stop-color="#61c9b9"/>
      <stop offset=".08" stop-color="#61c9b9"/>
      <stop offset=".09" stop-color="#61c9b9"/>
      <stop offset=".09" stop-color="#61c9ba"/>
      <stop offset=".11" stop-color="#61c9ba"/>
      <stop offset=".12" stop-color="#61c9bb"/>
      <stop offset=".12" stop-color="#61c9bb"/>
      <stop offset=".13" stop-color="#61c9bc"/>
      <stop offset=".14" stop-color="#61c9bc"/>
      <stop offset=".16" stop-color="#61c9bc"/>
      <stop offset=".16" stop-color="#61cabd"/>
      <stop offset=".16" stop-color="#61cabd"/>
      <stop offset=".17" stop-color="#61cabd"/>
      <stop offset=".18" stop-color="#61cabe"/>
      <stop offset=".19" stop-color="#61cabe"/>
      <stop offset=".2" stop-color="#61cabe"/>
      <stop offset=".2" stop-color="#61cabf"/>
      <stop offset=".22" stop-color="#61cabf"/>
      <stop offset=".23" stop-color="#61cac0"/>
      <stop offset=".24" stop-color="#61cac0"/>
      <stop offset=".25" stop-color="#61cac1"/>
      <stop offset=".26" stop-color="#61cac1"/>
      <stop offset=".27" stop-color="#62cac1"/>
      <stop offset=".27" stop-color="#62cac2"/>
      <stop offset=".28" stop-color="#62cac2"/>
      <stop offset=".3" stop-color="#62cac3"/>
      <stop offset=".31" stop-color="#62cac3"/>
      <stop offset=".33" stop-color="#62cac4"/>
      <stop offset=".34" stop-color="#62cac4"/>
      <stop offset=".34" stop-color="#62cac5"/>
      <stop offset=".35" stop-color="#62cac5"/>
      <stop offset=".35" stop-color="#62cac6"/>
      <stop offset=".36" stop-color="#62cac6"/>
      <stop offset=".38" stop-color="#62cac6"/>
      <stop offset=".38" stop-color="#62cac7"/>
      <stop offset=".39" stop-color="#62cac7"/>
      <stop offset=".41" stop-color="#62cac7"/>
      <stop offset=".41" stop-color="#63cbc8"/>
      <stop offset=".42" stop-color="#63cbc8"/>
      <stop offset=".43" stop-color="#62cbc8"/>
      <stop offset=".43" stop-color="#62cac8"/>
      <stop offset=".43" stop-color="#61cac7"/>
      <stop offset=".44" stop-color="#60cac7"/>
      <stop offset=".44" stop-color="#5fc9c6"/>
      <stop offset=".45" stop-color="#5fc9c5"/>
      <stop offset=".45" stop-color="#5ec9c5"/>
      <stop offset=".45" stop-color="#5dc9c4"/>
      <stop offset=".46" stop-color="#5cc8c4"/>
      <stop offset=".46" stop-color="#5bc8c3"/>
      <stop offset=".46" stop-color="#5ac8c3"/>
      <stop offset=".47" stop-color="#59c7c2"/>
      <stop offset=".47" stop-color="#59c7c2"/>
      <stop offset=".48" stop-color="#58c7c1"/>
      <stop offset=".48" stop-color="#57c6c0"/>
      <stop offset=".48" stop-color="#55c6c0"/>
      <stop offset=".49" stop-color="#54c6bf"/>
      <stop offset=".49" stop-color="#53c5bf"/>
      <stop offset=".5" stop-color="#52c5be"/>
      <stop offset=".5" stop-color="#52c5bd"/>
      <stop offset=".5" stop-color="#51c4bd"/>
      <stop offset=".51" stop-color="#50c4bc"/>
      <stop offset=".51" stop-color="#4fc4bb"/>
      <stop offset=".52" stop-color="#4ec3ba"/>
      <stop offset=".52" stop-color="#4dc3ba"/>
      <stop offset=".52" stop-color="#4cc3ba"/>
      <stop offset=".53" stop-color="#4cc3b9"/>
      <stop offset=".53" stop-color="#4bc2b8"/>
      <stop offset=".54" stop-color="#4ac1b7"/>
      <stop offset=".54" stop-color="#49c1b6"/>
      <stop offset=".54" stop-color="#48bfb5"/>
      <stop offset=".55" stop-color="#47beb4"/>
      <stop offset=".55" stop-color="#47bdb3"/>
      <stop offset=".55" stop-color="#46bcb2"/>
      <stop offset=".56" stop-color="#46bbb1"/>
      <stop offset=".56" stop-color="#45bab0"/>
      <stop offset=".57" stop-color="#44b9af"/>
      <stop offset=".57" stop-color="#44b8af"/>
      <stop offset=".57" stop-color="#43b7ae"/>
      <stop offset=".58" stop-color="#43b6ad"/>
      <stop offset=".58" stop-color="#43b5ac"/>
      <stop offset=".59" stop-color="#42b3ab"/>
      <stop offset=".59" stop-color="#42b2aa"/>
      <stop offset=".59" stop-color="#41b1a9"/>
      <stop offset=".6" stop-color="#41b0a8"/>
      <stop offset=".6" stop-color="#41afa7"/>
      <stop offset=".61" stop-color="#40ada6"/>
      <stop offset=".61" stop-color="#40aca5"/>
      <stop offset=".61" stop-color="#3faba4"/>
      <stop offset=".62" stop-color="#3faaa4"/>
      <stop offset=".62" stop-color="#3ea9a2"/>
      <stop offset=".62" stop-color="#3ea7a1"/>
      <stop offset=".63" stop-color="#3da6a0"/>
      <stop offset=".63" stop-color="#3da59f"/>
      <stop offset=".64" stop-color="#3da49e"/>
      <stop offset=".64" stop-color="#3da49d"/>
      <stop offset=".64" stop-color="#3ca29c"/>
      <stop offset=".65" stop-color="#3ca19b"/>
      <stop offset=".65" stop-color="#3ba09a"/>
      <stop offset=".66" stop-color="#3a9f99"/>
      <stop offset=".66" stop-color="#3a9d98"/>
      <stop offset=".66" stop-color="#399c97"/>
      <stop offset=".67" stop-color="#399b96"/>
      <stop offset=".67" stop-color="#399a95"/>
      <stop offset=".68" stop-color="#389994"/>
      <stop offset=".68" stop-color="#379893"/>
      <stop offset=".68" stop-color="#379792"/>
      <stop offset=".69" stop-color="#379590"/>
      <stop offset=".69" stop-color="#36948f"/>
      <stop offset=".7" stop-color="#36948e"/>
      <stop offset=".7" stop-color="#36938e"/>
      <stop offset=".7" stop-color="#35918d"/>
      <stop offset=".71" stop-color="#35908c"/>
      <stop offset=".71" stop-color="#348f8b"/>
      <stop offset=".71" stop-color="#348e89"/>
      <stop offset=".72" stop-color="#348d88"/>
      <stop offset=".72" stop-color="#338b87"/>
      <stop offset=".73" stop-color="#338a86"/>
      <stop offset=".73" stop-color="#338985"/>
      <stop offset=".73" stop-color="#328783"/>
      <stop offset=".74" stop-color="#328682"/>
      <stop offset=".74" stop-color="#318581"/>
      <stop offset=".75" stop-color="#318480"/>
      <stop offset=".75" stop-color="#30837f"/>
      <stop offset=".75" stop-color="#30827e"/>
      <stop offset=".76" stop-color="#2f817d"/>
      <stop offset=".76" stop-color="#2f807c"/>
      <stop offset=".77" stop-color="#2e7e7b"/>
      <stop offset=".77" stop-color="#2e7d7a"/>
      <stop offset=".77" stop-color="#2d7c78"/>
      <stop offset=".78" stop-color="#2d7b77"/>
      <stop offset=".78" stop-color="#2d7a76"/>
      <stop offset=".79" stop-color="#2d7875"/>
      <stop offset=".79" stop-color="#2c7774"/>
      <stop offset=".79" stop-color="#2c7673"/>
      <stop offset=".8" stop-color="#2c7571"/>
      <stop offset=".8" stop-color="#2b7470"/>
      <stop offset=".8" stop-color="#2b736f"/>
      <stop offset=".81" stop-color="#2a716e"/>
      <stop offset=".81" stop-color="#2a706d"/>
      <stop offset=".82" stop-color="#296f6b"/>
      <stop offset=".82" stop-color="#296e6a"/>
      <stop offset=".82" stop-color="#286c69"/>
      <stop offset=".83" stop-color="#286b68"/>
      <stop offset=".83" stop-color="#286a67"/>
      <stop offset=".84" stop-color="#286966"/>
      <stop offset=".84" stop-color="#276864"/>
      <stop offset=".84" stop-color="#276763"/>
      <stop offset=".85" stop-color="#276662"/>
      <stop offset=".85" stop-color="#266561"/>
      <stop offset=".86" stop-color="#266460"/>
      <stop offset=".86" stop-color="#26625f"/>
      <stop offset=".86" stop-color="#25615e"/>
      <stop offset=".87" stop-color="#25605d"/>
      <stop offset=".87" stop-color="#245f5b"/>
      <stop offset=".88" stop-color="#245e5a"/>
      <stop offset=".88" stop-color="#245d59"/>
      <stop offset=".88" stop-color="#235c58"/>
      <stop offset=".89" stop-color="#235b57"/>
      <stop offset=".89" stop-color="#225955"/>
      <stop offset=".89" stop-color="#225954"/>
      <stop offset=".9" stop-color="#225854"/>
      <stop offset=".9" stop-color="#225652"/>
      <stop offset=".91" stop-color="#225551"/>
      <stop offset=".91" stop-color="#215450"/>
      <stop offset=".91" stop-color="#21534f"/>
      <stop offset=".92" stop-color="#21524e"/>
      <stop offset=".92" stop-color="#20514c"/>
      <stop offset=".93" stop-color="#204f4b"/>
      <stop offset=".93" stop-color="#1f4e4a"/>
      <stop offset=".93" stop-color="#1f4d49"/>
      <stop offset=".94" stop-color="#1f4c48"/>
      <stop offset=".94" stop-color="#1f4b47"/>
      <stop offset=".95" stop-color="#1e4a46"/>
      <stop offset=".95" stop-color="#1e4945"/>
      <stop offset=".95" stop-color="#1e4844"/>
      <stop offset=".96" stop-color="#1e4742"/>
      <stop offset=".96" stop-color="#1e4641"/>
      <stop offset=".96" stop-color="#1d4540"/>
      <stop offset=".97" stop-color="#1d443f"/>
      <stop offset=".97" stop-color="#1d433e"/>
      <stop offset=".98" stop-color="#1c423d"/>
      <stop offset=".98" stop-color="#1c403c"/>
      <stop offset=".98" stop-color="#1c3f3a"/>
      <stop offset=".99" stop-color="#1c3e39"/>
      <stop offset=".99" stop-color="#1b3d38"/>
      <stop offset="1" stop-color="#1b3c37"/>
      <stop offset="1" stop-color="#1b3b36"/>
    </linearGradient>
    <clipPath id="clippath-3">
      <rect class="cls-8" x="153.2" y="41.05" width="35.84" height="26.59"/>
    </clipPath>
    <clipPath id="clippath-4">
      <path class="cls-8" d="M157.88,52.87c1.81.13,3.12.39,4.31,1.16,2.01,1.3,3.81,2.83,5.47,4.54,1.06,1.09,2.26,2.04,3.43,2.99.12.1.73-.1.8-.3.33-.82.61-1.37,1.76-1.38.92,0,1.87-.63,2.75-1.11.38-.21.79-.71.84-1.12.14-1.18.04-2.38.14-3.56.25-2.89.73-5.72,2.2-8.3,1.69-2.98,4.5-3.95,7.63-4.33.43-.05.95.29,1.37.56.23.14.48.57.42.77-.3.96-.7,1.88-1.07,2.83.72,1.61.2,2.86-.93,4.14-.94,1.08-.91,2.53-.63,3.9.26,1.24.19,2.29-.82,3.26-.57.56-1.06,1.41-1.18,2.19-.29,1.72-.97,2.84-2.87,2.94-.26.02-.58.38-.74.66-.51.89-1.08,1.48-2.2,1.83-.78.24-1.21,1.5-1.91,2.17-.31.3-.93.42-1.38.38-1.17-.11-2.32-.36-3.49-.56-1.05-.17-1.99.04-2.92.58-.63.36-1.3.24-1.82-.35-.44-.51-.87-1.05-1.38-1.5-1.05-.94-2.35-1.65-3.72-1.2-1.79.57-2.5-.23-3.09-1.66-.17-.42-.64-.79-1.05-1.05-.94-.57-1.45-1.38-1.62-2.45-.2-1.22-.89-2.11-1.86-2.91-.99-.83-.73-1.71.58-2.2,1.1-.41,2.25-.69,2.98-.91Z"/>
    </clipPath>
    <clipPath id="clippath-5">
      <path class="cls-8" d="M157.88,52.87c1.81.13,3.12.39,4.31,1.16,2.01,1.3,3.81,2.83,5.47,4.54,1.06,1.09,2.26,2.04,3.43,2.99.12.1.73-.1.8-.3.33-.82.61-1.37,1.76-1.38.92,0,1.87-.63,2.75-1.11.38-.21.79-.71.84-1.12.14-1.18.04-2.38.14-3.56.25-2.89.73-5.72,2.2-8.3,1.69-2.98,4.5-3.95,7.63-4.33.43-.05.95.29,1.37.56.23.14.48.57.42.77-.3.96-.7,1.88-1.07,2.83.72,1.61.2,2.86-.93,4.14-.94,1.08-.91,2.53-.63,3.9.26,1.24.19,2.29-.82,3.26-.57.56-1.06,1.41-1.18,2.19-.29,1.72-.97,2.84-2.87,2.94-.26.02-.58.38-.74.66-.51.89-1.08,1.48-2.2,1.83-.78.24-1.21,1.5-1.91,2.17-.31.3-.93.42-1.38.38-1.17-.11-2.32-.36-3.49-.56-1.05-.17-1.99.04-2.92.58-.63.36-1.3.24-1.82-.35-.44-.51-.87-1.05-1.38-1.5-1.05-.94-2.35-1.65-3.72-1.2-1.79.57-2.5-.23-3.09-1.66-.17-.42-.64-.79-1.05-1.05-.94-.57-1.45-1.38-1.62-2.45-.2-1.22-.89-2.11-1.86-2.91-.99-.83-.73-1.71.58-2.2,1.1-.41,2.25-.69,2.98-.91Z"/>
    </clipPath>
    <linearGradient id="linear-gradient-2" x1="-2206.76" y1="799.8" x2="-2206.17" y2="799.8" gradientTransform="translate(-35598.7 98735.47) rotate(90) scale(44.72 -44.72)" gradientUnits="userSpaceOnUse">
      <stop offset="0" stop-color="#60c9b6"/>
      <stop offset=".02" stop-color="#60c9b6"/>
      <stop offset=".02" stop-color="#60c9b6"/>
      <stop offset=".03" stop-color="#60c9b7"/>
      <stop offset=".03" stop-color="#60c9b7"/>
      <stop offset=".04" stop-color="#60c9b7"/>
      <stop offset=".05" stop-color="#60c9b7"/>
      <stop offset=".05" stop-color="#60c9b8"/>
      <stop offset=".06" stop-color="#60c9b8"/>
      <stop offset=".07" stop-color="#60c9b9"/>
      <stop offset=".07" stop-color="#61c9b9"/>
      <stop offset=".08" stop-color="#61c9b9"/>
      <stop offset=".09" stop-color="#61c9b9"/>
      <stop offset=".09" stop-color="#61c9ba"/>
      <stop offset=".11" stop-color="#61c9ba"/>
      <stop offset=".12" stop-color="#61c9bb"/>
      <stop offset=".12" stop-color="#61c9bb"/>
      <stop offset=".12" stop-color="#61c9bc"/>
      <stop offset=".13" stop-color="#61c9bc"/>
      <stop offset=".14" stop-color="#61c9bc"/>
      <stop offset=".16" stop-color="#61c9bc"/>
      <stop offset=".16" stop-color="#61cabd"/>
      <stop offset=".16" stop-color="#61cabd"/>
      <stop offset=".17" stop-color="#61cabd"/>
      <stop offset=".18" stop-color="#61cabe"/>
      <stop offset=".19" stop-color="#61cabe"/>
      <stop offset=".2" stop-color="#61cabe"/>
      <stop offset=".2" stop-color="#61cabf"/>
      <stop offset=".22" stop-color="#61cabf"/>
      <stop offset=".23" stop-color="#61cac0"/>
      <stop offset=".24" stop-color="#61cac0"/>
      <stop offset=".25" stop-color="#61cac1"/>
      <stop offset=".26" stop-color="#61cac1"/>
      <stop offset=".27" stop-color="#62cac1"/>
      <stop offset=".27" stop-color="#62cac2"/>
      <stop offset=".28" stop-color="#62cac2"/>
      <stop offset=".29" stop-color="#62cac2"/>
      <stop offset=".29" stop-color="#62cac3"/>
      <stop offset=".3" stop-color="#62cac3"/>
      <stop offset=".31" stop-color="#62cac3"/>
      <stop offset=".33" stop-color="#62cac4"/>
      <stop offset=".34" stop-color="#62cac4"/>
      <stop offset=".34" stop-color="#62cac5"/>
      <stop offset=".35" stop-color="#62cac5"/>
      <stop offset=".36" stop-color="#62cac6"/>
      <stop offset=".38" stop-color="#62cac6"/>
      <stop offset=".38" stop-color="#62cac7"/>
      <stop offset=".39" stop-color="#62cac7"/>
      <stop offset=".41" stop-color="#62cac7"/>
      <stop offset=".41" stop-color="#63cbc8"/>
      <stop offset=".42" stop-color="#63cbc8"/>
      <stop offset=".43" stop-color="#62cac8"/>
      <stop offset=".43" stop-color="#62cac7"/>
      <stop offset=".43" stop-color="#61cac7"/>
      <stop offset=".44" stop-color="#60cac6"/>
      <stop offset=".44" stop-color="#5fc9c6"/>
      <stop offset=".45" stop-color="#5ec9c5"/>
      <stop offset=".45" stop-color="#5dc9c4"/>
      <stop offset=".45" stop-color="#5cc8c4"/>
      <stop offset=".46" stop-color="#5bc8c4"/>
      <stop offset=".46" stop-color="#5bc8c3"/>
      <stop offset=".46" stop-color="#5ac7c3"/>
      <stop offset=".47" stop-color="#59c7c2"/>
      <stop offset=".47" stop-color="#58c7c1"/>
      <stop offset=".48" stop-color="#57c7c1"/>
      <stop offset=".48" stop-color="#56c6c0"/>
      <stop offset=".48" stop-color="#55c6c0"/>
      <stop offset=".49" stop-color="#54c5bf"/>
      <stop offset=".49" stop-color="#53c5be"/>
      <stop offset=".5" stop-color="#52c5be"/>
      <stop offset=".5" stop-color="#51c4bd"/>
      <stop offset=".5" stop-color="#50c4bc"/>
      <stop offset=".51" stop-color="#4fc4bc"/>
      <stop offset=".51" stop-color="#4ec4bb"/>
      <stop offset=".52" stop-color="#4ec3ba"/>
      <stop offset=".52" stop-color="#4dc3ba"/>
      <stop offset=".52" stop-color="#4cc3b9"/>
      <stop offset=".53" stop-color="#4bc2b9"/>
      <stop offset=".53" stop-color="#4ac2b8"/>
      <stop offset=".54" stop-color="#49c1b7"/>
      <stop offset=".54" stop-color="#48c0b6"/>
      <stop offset=".54" stop-color="#47bfb5"/>
      <stop offset=".55" stop-color="#47beb4"/>
      <stop offset=".55" stop-color="#46bdb2"/>
      <stop offset=".55" stop-color="#46bcb1"/>
      <stop offset=".56" stop-color="#45bbb1"/>
      <stop offset=".56" stop-color="#44bab0"/>
      <stop offset=".57" stop-color="#44b8af"/>
      <stop offset=".57" stop-color="#43b7ae"/>
      <stop offset=".57" stop-color="#43b6ad"/>
      <stop offset=".58" stop-color="#43b5ac"/>
      <stop offset=".58" stop-color="#42b4ab"/>
      <stop offset=".59" stop-color="#42b2aa"/>
      <stop offset=".59" stop-color="#41b1a9"/>
      <stop offset=".59" stop-color="#41b0a8"/>
      <stop offset=".6" stop-color="#41afa7"/>
      <stop offset=".6" stop-color="#40aea6"/>
      <stop offset=".61" stop-color="#40ada6"/>
      <stop offset=".61" stop-color="#3faba5"/>
      <stop offset=".61" stop-color="#3faaa4"/>
      <stop offset=".62" stop-color="#3fa9a3"/>
      <stop offset=".62" stop-color="#3ea7a1"/>
      <stop offset=".62" stop-color="#3da6a0"/>
      <stop offset=".63" stop-color="#3da59f"/>
      <stop offset=".63" stop-color="#3da49e"/>
      <stop offset=".64" stop-color="#3da49d"/>
      <stop offset=".64" stop-color="#3ca39c"/>
      <stop offset=".64" stop-color="#3ca19b"/>
      <stop offset=".65" stop-color="#3ba09a"/>
      <stop offset=".65" stop-color="#3a9f99"/>
      <stop offset=".66" stop-color="#3a9d98"/>
      <stop offset=".66" stop-color="#399c97"/>
      <stop offset=".66" stop-color="#399b96"/>
      <stop offset=".67" stop-color="#399a95"/>
      <stop offset=".67" stop-color="#389994"/>
      <stop offset=".68" stop-color="#389893"/>
      <stop offset=".68" stop-color="#379792"/>
      <stop offset=".68" stop-color="#379690"/>
      <stop offset=".69" stop-color="#36948f"/>
      <stop offset=".69" stop-color="#36948e"/>
      <stop offset=".7" stop-color="#36938e"/>
      <stop offset=".7" stop-color="#35918d"/>
      <stop offset=".7" stop-color="#35908c"/>
      <stop offset=".71" stop-color="#348f8b"/>
      <stop offset=".71" stop-color="#348e89"/>
      <stop offset=".71" stop-color="#348d88"/>
      <stop offset=".72" stop-color="#338b87"/>
      <stop offset=".72" stop-color="#338a86"/>
      <stop offset=".73" stop-color="#338984"/>
      <stop offset=".73" stop-color="#328883"/>
      <stop offset=".73" stop-color="#328682"/>
      <stop offset=".74" stop-color="#318581"/>
      <stop offset=".74" stop-color="#318480"/>
      <stop offset=".75" stop-color="#30837f"/>
      <stop offset=".75" stop-color="#2f827e"/>
      <stop offset=".75" stop-color="#2f817d"/>
      <stop offset=".76" stop-color="#2e807c"/>
      <stop offset=".76" stop-color="#2e7e7b"/>
      <stop offset=".77" stop-color="#2e7d79"/>
      <stop offset=".77" stop-color="#2d7c78"/>
      <stop offset=".77" stop-color="#2d7b77"/>
      <stop offset=".78" stop-color="#2d7976"/>
      <stop offset=".78" stop-color="#2d7875"/>
      <stop offset=".79" stop-color="#2c7774"/>
      <stop offset=".79" stop-color="#2c7672"/>
      <stop offset=".79" stop-color="#2b7571"/>
      <stop offset=".8" stop-color="#2b7470"/>
      <stop offset=".8" stop-color="#2b726f"/>
      <stop offset=".8" stop-color="#2a716e"/>
      <stop offset=".81" stop-color="#2a706c"/>
      <stop offset=".81" stop-color="#296f6b"/>
      <stop offset=".82" stop-color="#296d6a"/>
      <stop offset=".82" stop-color="#286c69"/>
      <stop offset=".82" stop-color="#286b68"/>
      <stop offset=".83" stop-color="#286a67"/>
      <stop offset=".83" stop-color="#276965"/>
      <stop offset=".84" stop-color="#276864"/>
      <stop offset=".84" stop-color="#276763"/>
      <stop offset=".84" stop-color="#266662"/>
      <stop offset=".85" stop-color="#266461"/>
      <stop offset=".85" stop-color="#266360"/>
      <stop offset=".86" stop-color="#25625f"/>
      <stop offset=".86" stop-color="#25615d"/>
      <stop offset=".86" stop-color="#24605c"/>
      <stop offset=".87" stop-color="#245f5b"/>
      <stop offset=".87" stop-color="#245d5a"/>
      <stop offset=".88" stop-color="#245c59"/>
      <stop offset=".88" stop-color="#235b57"/>
      <stop offset=".88" stop-color="#235a56"/>
      <stop offset=".89" stop-color="#225955"/>
      <stop offset=".89" stop-color="#225854"/>
      <stop offset=".89" stop-color="#225753"/>
      <stop offset=".9" stop-color="#225652"/>
      <stop offset=".9" stop-color="#215551"/>
      <stop offset=".91" stop-color="#21534f"/>
      <stop offset=".91" stop-color="#21524e"/>
      <stop offset=".91" stop-color="#21514d"/>
      <stop offset=".92" stop-color="#20504c"/>
      <stop offset=".92" stop-color="#204f4b"/>
      <stop offset=".93" stop-color="#1f4e49"/>
      <stop offset=".93" stop-color="#1f4d48"/>
      <stop offset=".93" stop-color="#1f4c47"/>
      <stop offset=".94" stop-color="#1f4b46"/>
      <stop offset=".94" stop-color="#1e4a45"/>
      <stop offset=".95" stop-color="#1e4944"/>
      <stop offset=".95" stop-color="#1e4843"/>
      <stop offset=".95" stop-color="#1e4742"/>
      <stop offset=".96" stop-color="#1d4541"/>
      <stop offset=".96" stop-color="#1d443f"/>
      <stop offset=".96" stop-color="#1d433e"/>
      <stop offset=".97" stop-color="#1d423d"/>
      <stop offset=".97" stop-color="#1c413c"/>
      <stop offset=".98" stop-color="#1c403b"/>
      <stop offset=".98" stop-color="#1c3f3a"/>
      <stop offset=".98" stop-color="#1c3d38"/>
      <stop offset=".99" stop-color="#1b3c37"/>
      <stop offset=".99" stop-color="#1b3b36"/>
      <stop offset="1" stop-color="#1b3b36"/>
    </linearGradient>
    <clipPath id="clippath-6">
      <rect class="cls-8" x="214.48" y="61.28" width="12.14" height="38.73"/>
    </clipPath>
    <clipPath id="clippath-7">
      <path class="cls-8" d="M215.15,93.26c-.46-4.65.51-9.09,2-13.45.61-1.76,1.21-3.54,2.09-5.17,1.55-2.87,2.01-5.7.47-8.7-.23-.43-.29-.97-.35-1.47-.08-.73.26-1.36.84-1.73,1.16-.74,2.46-1.08,3.86-1.02,1.95.09,3.14,2.38,2.09,4.13-.12.2-.63.38-.82.28-.72-.36-1.38-.88-2.1-1.24-.17-.09-.76.21-.77.36-.06,1-.16,2.02.02,2.98.64,3.67,1.36,7.32,2.1,10.96.7,3.47.1,6.76-1.46,9.85-1.67,3.32-3.54,6.54-5.36,9.79-.24.42-.63.79-1.04,1.06-.16.11-.69-.02-.79-.2-.24-.42-.42-.91-.46-1.39-.14-1.68-.22-3.38-.32-5.06Z"/>
    </clipPath>
    <clipPath id="clippath-8">
      <path class="cls-8" d="M215.15,93.26c-.46-4.65.51-9.09,2-13.45.61-1.76,1.21-3.54,2.09-5.17,1.55-2.87,2.01-5.7.47-8.7-.23-.43-.29-.97-.35-1.47-.08-.73.26-1.36.84-1.73,1.16-.74,2.46-1.08,3.86-1.02,1.95.09,3.14,2.38,2.09,4.13-.12.2-.63.38-.82.28-.72-.36-1.38-.88-2.1-1.24-.17-.09-.76.21-.77.36-.06,1-.16,2.02.02,2.98.64,3.67,1.36,7.32,2.1,10.96.7,3.47.1,6.76-1.46,9.85-1.67,3.32-3.54,6.54-5.36,9.79-.24.42-.63.79-1.04,1.06-.16.11-.69-.02-.79-.2-.24-.42-.42-.91-.46-1.39-.14-1.68-.22-3.38-.32-5.06Z"/>
    </clipPath>
    <linearGradient id="linear-gradient-3" x1="-2204.59" y1="799.61" x2="-2204.01" y2="799.61" gradientTransform="translate(-52661.34 145861.96) rotate(90) scale(66.13 -66.13)" gradientUnits="userSpaceOnUse">
      <stop offset="0" stop-color="#60c9b6"/>
      <stop offset=".02" stop-color="#60c9b6"/>
      <stop offset=".02" stop-color="#60c9b6"/>
      <stop offset=".03" stop-color="#60c9b7"/>
      <stop offset=".03" stop-color="#60c9b7"/>
      <stop offset=".04" stop-color="#60c9b7"/>
      <stop offset=".05" stop-color="#60c9b8"/>
      <stop offset=".05" stop-color="#60c9b8"/>
      <stop offset=".06" stop-color="#60c9b8"/>
      <stop offset=".07" stop-color="#60c9b9"/>
      <stop offset=".07" stop-color="#61c9b9"/>
      <stop offset=".08" stop-color="#61c9b9"/>
      <stop offset=".09" stop-color="#61c9b9"/>
      <stop offset=".09" stop-color="#61c9ba"/>
      <stop offset=".11" stop-color="#61c9ba"/>
      <stop offset=".12" stop-color="#61c9bb"/>
      <stop offset=".12" stop-color="#61c9bb"/>
      <stop offset=".12" stop-color="#61c9bc"/>
      <stop offset=".13" stop-color="#61c9bc"/>
      <stop offset=".14" stop-color="#61c9bc"/>
      <stop offset=".16" stop-color="#61c9bc"/>
      <stop offset=".16" stop-color="#61cabd"/>
      <stop offset=".17" stop-color="#61cabd"/>
      <stop offset=".18" stop-color="#61cabe"/>
      <stop offset=".19" stop-color="#61cabe"/>
      <stop offset=".2" stop-color="#61cabe"/>
      <stop offset=".2" stop-color="#61cabf"/>
      <stop offset=".22" stop-color="#61cabf"/>
      <stop offset=".23" stop-color="#61cac0"/>
      <stop offset=".24" stop-color="#61cac0"/>
      <stop offset=".25" stop-color="#61cac1"/>
      <stop offset=".26" stop-color="#61cac1"/>
      <stop offset=".26" stop-color="#62cac1"/>
      <stop offset=".27" stop-color="#62cac2"/>
      <stop offset=".27" stop-color="#62cac2"/>
      <stop offset=".28" stop-color="#62cac2"/>
      <stop offset=".3" stop-color="#62cac3"/>
      <stop offset=".31" stop-color="#62cac3"/>
      <stop offset=".33" stop-color="#62cac4"/>
      <stop offset=".34" stop-color="#62cac4"/>
      <stop offset=".34" stop-color="#62cac5"/>
      <stop offset=".35" stop-color="#62cac5"/>
      <stop offset=".35" stop-color="#62cac6"/>
      <stop offset=".36" stop-color="#62cac6"/>
      <stop offset=".38" stop-color="#62cac6"/>
      <stop offset=".38" stop-color="#62cac7"/>
      <stop offset=".39" stop-color="#62cac7"/>
      <stop offset=".41" stop-color="#62cac7"/>
      <stop offset=".41" stop-color="#63cbc8"/>
      <stop offset=".42" stop-color="#63cbc8"/>
      <stop offset=".43" stop-color="#62cbc8"/>
      <stop offset=".43" stop-color="#62cac8"/>
      <stop offset=".43" stop-color="#61cac7"/>
      <stop offset=".44" stop-color="#60cac6"/>
      <stop offset=".44" stop-color="#5fc9c6"/>
      <stop offset=".45" stop-color="#5ec9c5"/>
      <stop offset=".45" stop-color="#5ec9c5"/>
      <stop offset=".45" stop-color="#5dc9c4"/>
      <stop offset=".46" stop-color="#5cc8c4"/>
      <stop offset=".46" stop-color="#5bc8c3"/>
      <stop offset=".46" stop-color="#5ac8c3"/>
      <stop offset=".47" stop-color="#59c7c2"/>
      <stop offset=".47" stop-color="#58c7c2"/>
      <stop offset=".48" stop-color="#58c7c1"/>
      <stop offset=".48" stop-color="#56c6c0"/>
      <stop offset=".48" stop-color="#55c6c0"/>
      <stop offset=".49" stop-color="#54c6bf"/>
      <stop offset=".49" stop-color="#53c5bf"/>
      <stop offset=".5" stop-color="#52c5be"/>
      <stop offset=".5" stop-color="#51c5bd"/>
      <stop offset=".5" stop-color="#51c4bd"/>
      <stop offset=".51" stop-color="#50c4bc"/>
      <stop offset=".51" stop-color="#4fc4bb"/>
      <stop offset=".52" stop-color="#4ec3ba"/>
      <stop offset=".52" stop-color="#4dc3ba"/>
      <stop offset=".52" stop-color="#4cc3ba"/>
      <stop offset=".53" stop-color="#4bc3b9"/>
      <stop offset=".53" stop-color="#4bc2b8"/>
      <stop offset=".54" stop-color="#4ac1b7"/>
      <stop offset=".54" stop-color="#49c0b6"/>
      <stop offset=".54" stop-color="#48bfb5"/>
      <stop offset=".55" stop-color="#47beb4"/>
      <stop offset=".55" stop-color="#47bdb3"/>
      <stop offset=".55" stop-color="#46bcb2"/>
      <stop offset=".56" stop-color="#46bbb1"/>
      <stop offset=".56" stop-color="#45bab0"/>
      <stop offset=".57" stop-color="#44b9af"/>
      <stop offset=".57" stop-color="#43b8ae"/>
      <stop offset=".57" stop-color="#43b7ad"/>
      <stop offset=".58" stop-color="#43b6ac"/>
      <stop offset=".58" stop-color="#43b5ab"/>
      <stop offset=".59" stop-color="#42b3aa"/>
      <stop offset=".59" stop-color="#42b2a9"/>
      <stop offset=".59" stop-color="#41b1a8"/>
      <stop offset=".6" stop-color="#41b0a8"/>
      <stop offset=".6" stop-color="#40afa7"/>
      <stop offset=".61" stop-color="#40ada6"/>
      <stop offset=".61" stop-color="#40aca5"/>
      <stop offset=".61" stop-color="#3faba4"/>
      <stop offset=".62" stop-color="#3faaa3"/>
      <stop offset=".62" stop-color="#3ea8a2"/>
      <stop offset=".62" stop-color="#3ea7a1"/>
      <stop offset=".63" stop-color="#3da6a0"/>
      <stop offset=".63" stop-color="#3da59f"/>
      <stop offset=".64" stop-color="#3da49e"/>
      <stop offset=".64" stop-color="#3da39d"/>
      <stop offset=".64" stop-color="#3ca29c"/>
      <stop offset=".65" stop-color="#3ca19b"/>
      <stop offset=".65" stop-color="#3ba09a"/>
      <stop offset=".66" stop-color="#3a9e99"/>
      <stop offset=".66" stop-color="#3a9d98"/>
      <stop offset=".66" stop-color="#399c97"/>
      <stop offset=".67" stop-color="#399b96"/>
      <stop offset=".67" stop-color="#399a95"/>
      <stop offset=".68" stop-color="#389994"/>
      <stop offset=".68" stop-color="#379893"/>
      <stop offset=".68" stop-color="#379691"/>
      <stop offset=".69" stop-color="#379590"/>
      <stop offset=".69" stop-color="#36948f"/>
      <stop offset=".7" stop-color="#36938e"/>
      <stop offset=".7" stop-color="#35928d"/>
      <stop offset=".7" stop-color="#35918c"/>
      <stop offset=".71" stop-color="#35908b"/>
      <stop offset=".71" stop-color="#348f8a"/>
      <stop offset=".71" stop-color="#348e89"/>
      <stop offset=".72" stop-color="#348c88"/>
      <stop offset=".72" stop-color="#338b87"/>
      <stop offset=".73" stop-color="#338a86"/>
      <stop offset=".73" stop-color="#338884"/>
      <stop offset=".73" stop-color="#328783"/>
      <stop offset=".74" stop-color="#328682"/>
      <stop offset=".74" stop-color="#318581"/>
      <stop offset=".75" stop-color="#318480"/>
      <stop offset=".75" stop-color="#30837f"/>
      <stop offset=".75" stop-color="#2f827e"/>
      <stop offset=".76" stop-color="#2f807d"/>
      <stop offset=".76" stop-color="#2e7f7c"/>
      <stop offset=".77" stop-color="#2e7e7a"/>
      <stop offset=".77" stop-color="#2e7d79"/>
      <stop offset=".77" stop-color="#2d7c78"/>
      <stop offset=".78" stop-color="#2d7a77"/>
      <stop offset=".78" stop-color="#2d7976"/>
      <stop offset=".79" stop-color="#2d7875"/>
      <stop offset=".79" stop-color="#2c7773"/>
      <stop offset=".79" stop-color="#2c7672"/>
      <stop offset=".8" stop-color="#2b7571"/>
      <stop offset=".8" stop-color="#2b7370"/>
      <stop offset=".8" stop-color="#2b726f"/>
      <stop offset=".81" stop-color="#2a716d"/>
      <stop offset=".81" stop-color="#2a706c"/>
      <stop offset=".82" stop-color="#296e6b"/>
      <stop offset=".82" stop-color="#296d6a"/>
      <stop offset=".82" stop-color="#286c69"/>
      <stop offset=".83" stop-color="#286b68"/>
      <stop offset=".83" stop-color="#286a66"/>
      <stop offset=".84" stop-color="#286965"/>
      <stop offset=".84" stop-color="#276864"/>
      <stop offset=".84" stop-color="#276763"/>
      <stop offset=".85" stop-color="#266562"/>
      <stop offset=".85" stop-color="#266461"/>
      <stop offset=".86" stop-color="#266360"/>
      <stop offset=".86" stop-color="#25625f"/>
      <stop offset=".86" stop-color="#25615d"/>
      <stop offset=".87" stop-color="#24605c"/>
      <stop offset=".87" stop-color="#245f5b"/>
      <stop offset=".88" stop-color="#245d5a"/>
      <stop offset=".88" stop-color="#235c59"/>
      <stop offset=".88" stop-color="#235b57"/>
      <stop offset=".89" stop-color="#235a56"/>
      <stop offset=".89" stop-color="#225955"/>
      <stop offset=".89" stop-color="#225854"/>
      <stop offset=".9" stop-color="#225753"/>
      <stop offset=".9" stop-color="#225652"/>
      <stop offset=".91" stop-color="#215451"/>
      <stop offset=".91" stop-color="#215350"/>
      <stop offset=".91" stop-color="#21534e"/>
      <stop offset=".92" stop-color="#21514d"/>
      <stop offset=".92" stop-color="#20504c"/>
      <stop offset=".93" stop-color="#204f4b"/>
      <stop offset=".93" stop-color="#1f4e4a"/>
      <stop offset=".93" stop-color="#1f4d48"/>
      <stop offset=".94" stop-color="#1f4c47"/>
      <stop offset=".94" stop-color="#1f4b46"/>
      <stop offset=".95" stop-color="#1e4a45"/>
      <stop offset=".95" stop-color="#1e4944"/>
      <stop offset=".95" stop-color="#1e4843"/>
      <stop offset=".96" stop-color="#1e4742"/>
      <stop offset=".96" stop-color="#1e4641"/>
      <stop offset=".96" stop-color="#1d4440"/>
      <stop offset=".97" stop-color="#1d433e"/>
      <stop offset=".97" stop-color="#1d423d"/>
      <stop offset=".98" stop-color="#1c413c"/>
      <stop offset=".98" stop-color="#1c403b"/>
      <stop offset=".98" stop-color="#1c3f3a"/>
      <stop offset=".99" stop-color="#1c3e39"/>
      <stop offset=".99" stop-color="#1b3d38"/>
      <stop offset="1" stop-color="#1b3c37"/>
      <stop offset="1" stop-color="#1b3b36"/>
    </linearGradient>
    <clipPath id="clippath-9">
      <rect class="cls-8" y="55.5" width="12.14" height="14.45"/>
    </clipPath>
    <clipPath id="clippath-10">
      <path class="cls-8" d="M9.02,69.47c-1.69-.05-3.31-.04-4.61-1.52-.49-.56-1.56-.55-2.28-.96-.37-.21-.68-.75-.77-1.19-.14-.64.05-1.36-.12-2-.24-.96-.66-1.87-1.01-2.8,1.08-1.47,1.35-3.5,3.15-4.48.29-.16.52-.42.79-.63.33-.27,1.14-.01,1.22.39.13.66.36,1.32.32,1.97-.08,1.41.29,2.66.88,3.91.67,1.43,1.49,2.57,3.17,3,.75.2,1.5.82,1.99,1.45.35.45.43,1.26.35,1.87-.11.77-.87.93-1.56.98-.5.03-1.01,0-1.52,0Z"/>
    </clipPath>
    <clipPath id="clippath-11">
      <path class="cls-8" d="M9.02,69.47c-1.69-.05-3.31-.04-4.61-1.52-.49-.56-1.56-.55-2.28-.96-.37-.21-.68-.75-.77-1.19-.14-.64.05-1.36-.12-2-.24-.96-.66-1.87-1.01-2.8,1.08-1.47,1.35-3.5,3.15-4.48.29-.16.52-.42.79-.63.33-.27,1.14-.01,1.22.39.13.66.36,1.32.32,1.97-.08,1.41.29,2.66.88,3.91.67,1.43,1.49,2.57,3.17,3,.75.2,1.5.82,1.99,1.45.35.45.43,1.26.35,1.87-.11.77-.87.93-1.56.98-.5.03-1.01,0-1.52,0Z"/>
    </clipPath>
    <linearGradient id="linear-gradient-4" x1="-2213.76" y1="803.93" x2="-2213.17" y2="803.93" gradientTransform="translate(-19040.72 52504.8) rotate(90) scale(23.69 -23.69)" gradientUnits="userSpaceOnUse">
      <stop offset="0" stop-color="#60c9b6"/>
      <stop offset=".02" stop-color="#60c9b6"/>
      <stop offset=".02" stop-color="#60c9b6"/>
      <stop offset=".03" stop-color="#60c9b6"/>
      <stop offset=".04" stop-color="#60c9b7"/>
      <stop offset=".05" stop-color="#60c9b7"/>
      <stop offset=".05" stop-color="#60c9b7"/>
      <stop offset=".05" stop-color="#60c9b8"/>
      <stop offset=".06" stop-color="#60c9b8"/>
      <stop offset=".08" stop-color="#60c9b8"/>
      <stop offset=".09" stop-color="#61c9b9"/>
      <stop offset=".09" stop-color="#61c9b9"/>
      <stop offset=".11" stop-color="#61c9ba"/>
      <stop offset=".12" stop-color="#61c9ba"/>
      <stop offset=".12" stop-color="#61c9bb"/>
      <stop offset=".13" stop-color="#61c9bb"/>
      <stop offset=".14" stop-color="#61c9bc"/>
      <stop offset=".16" stop-color="#61c9bc"/>
      <stop offset=".17" stop-color="#61cabd"/>
      <stop offset=".18" stop-color="#61cabd"/>
      <stop offset=".19" stop-color="#61cabe"/>
      <stop offset=".2" stop-color="#61cabe"/>
      <stop offset=".2" stop-color="#61cabe"/>
      <stop offset=".21" stop-color="#61cabf"/>
      <stop offset=".22" stop-color="#61cabf"/>
      <stop offset=".23" stop-color="#61cabf"/>
      <stop offset=".23" stop-color="#61cac0"/>
      <stop offset=".25" stop-color="#61cac0"/>
      <stop offset=".27" stop-color="#61cac1"/>
      <stop offset=".27" stop-color="#62cac1"/>
      <stop offset=".28" stop-color="#62cac2"/>
      <stop offset=".3" stop-color="#62cac2"/>
      <stop offset=".3" stop-color="#62cac3"/>
      <stop offset=".31" stop-color="#62cac3"/>
      <stop offset=".32" stop-color="#62cac3"/>
      <stop offset=".33" stop-color="#62cac4"/>
      <stop offset=".34" stop-color="#62cac4"/>
      <stop offset=".35" stop-color="#62cac5"/>
      <stop offset=".36" stop-color="#62cac5"/>
      <stop offset=".37" stop-color="#62cac6"/>
      <stop offset=".38" stop-color="#62cac6"/>
      <stop offset=".39" stop-color="#62cac7"/>
      <stop offset=".41" stop-color="#62cac7"/>
      <stop offset=".41" stop-color="#62cac7"/>
      <stop offset=".42" stop-color="#63cbc8"/>
      <stop offset=".43" stop-color="#63cbc8"/>
      <stop offset=".43" stop-color="#62cac8"/>
      <stop offset=".44" stop-color="#61cac7"/>
      <stop offset=".44" stop-color="#61cac7"/>
      <stop offset=".45" stop-color="#60cac6"/>
      <stop offset=".45" stop-color="#5fc9c6"/>
      <stop offset=".45" stop-color="#5ec9c5"/>
      <stop offset=".46" stop-color="#5dc9c4"/>
      <stop offset=".46" stop-color="#5cc8c4"/>
      <stop offset=".46" stop-color="#5bc8c4"/>
      <stop offset=".47" stop-color="#5bc8c3"/>
      <stop offset=".47" stop-color="#5ac7c2"/>
      <stop offset=".48" stop-color="#59c7c2"/>
      <stop offset=".48" stop-color="#58c7c1"/>
      <stop offset=".48" stop-color="#57c7c1"/>
      <stop offset=".49" stop-color="#56c6c0"/>
      <stop offset=".49" stop-color="#55c6bf"/>
      <stop offset=".5" stop-color="#54c5bf"/>
      <stop offset=".5" stop-color="#53c5be"/>
      <stop offset=".5" stop-color="#52c5be"/>
      <stop offset=".51" stop-color="#51c4bd"/>
      <stop offset=".51" stop-color="#50c4bc"/>
      <stop offset=".52" stop-color="#4fc4bb"/>
      <stop offset=".52" stop-color="#4ec3bb"/>
      <stop offset=".52" stop-color="#4dc3ba"/>
      <stop offset=".53" stop-color="#4dc3ba"/>
      <stop offset=".53" stop-color="#4cc3b9"/>
      <stop offset=".54" stop-color="#4bc2b8"/>
      <stop offset=".54" stop-color="#4ac2b7"/>
      <stop offset=".54" stop-color="#49c1b7"/>
      <stop offset=".55" stop-color="#48bfb6"/>
      <stop offset=".55" stop-color="#47beb4"/>
      <stop offset=".55" stop-color="#47bdb3"/>
      <stop offset=".56" stop-color="#46bcb2"/>
      <stop offset=".56" stop-color="#46bbb1"/>
      <stop offset=".57" stop-color="#45bab0"/>
      <stop offset=".57" stop-color="#44b9af"/>
      <stop offset=".57" stop-color="#44b8af"/>
      <stop offset=".58" stop-color="#43b7ae"/>
      <stop offset=".58" stop-color="#43b6ad"/>
      <stop offset=".59" stop-color="#43b5ac"/>
      <stop offset=".59" stop-color="#42b3ab"/>
      <stop offset=".59" stop-color="#41b2aa"/>
      <stop offset=".6" stop-color="#41b1a9"/>
      <stop offset=".6" stop-color="#41b0a8"/>
      <stop offset=".61" stop-color="#40afa7"/>
      <stop offset=".61" stop-color="#40ada6"/>
      <stop offset=".61" stop-color="#40aca5"/>
      <stop offset=".62" stop-color="#3faba4"/>
      <stop offset=".62" stop-color="#3faaa3"/>
      <stop offset=".62" stop-color="#3ea8a2"/>
      <stop offset=".63" stop-color="#3ea7a1"/>
      <stop offset=".63" stop-color="#3da6a0"/>
      <stop offset=".64" stop-color="#3da59f"/>
      <stop offset=".64" stop-color="#3da49e"/>
      <stop offset=".64" stop-color="#3da39d"/>
      <stop offset=".65" stop-color="#3ca29c"/>
      <stop offset=".65" stop-color="#3ca19b"/>
      <stop offset=".66" stop-color="#3b9f9a"/>
      <stop offset=".66" stop-color="#3a9e99"/>
      <stop offset=".66" stop-color="#399d98"/>
      <stop offset=".67" stop-color="#399c97"/>
      <stop offset=".67" stop-color="#399b96"/>
      <stop offset=".68" stop-color="#389a95"/>
      <stop offset=".68" stop-color="#389994"/>
      <stop offset=".68" stop-color="#379792"/>
      <stop offset=".69" stop-color="#379691"/>
      <stop offset=".69" stop-color="#379590"/>
      <stop offset=".7" stop-color="#36948f"/>
      <stop offset=".7" stop-color="#36938e"/>
      <stop offset=".7" stop-color="#35928d"/>
      <stop offset=".71" stop-color="#35918c"/>
      <stop offset=".71" stop-color="#35908b"/>
      <stop offset=".71" stop-color="#348f8a"/>
      <stop offset=".72" stop-color="#348d89"/>
      <stop offset=".72" stop-color="#348c88"/>
      <stop offset=".73" stop-color="#338b87"/>
      <stop offset=".73" stop-color="#338a85"/>
      <stop offset=".73" stop-color="#328884"/>
      <stop offset=".74" stop-color="#328783"/>
      <stop offset=".74" stop-color="#328682"/>
      <stop offset=".75" stop-color="#318581"/>
      <stop offset=".75" stop-color="#308480"/>
      <stop offset=".75" stop-color="#30837f"/>
      <stop offset=".76" stop-color="#2f817e"/>
      <stop offset=".76" stop-color="#2f807d"/>
      <stop offset=".77" stop-color="#2e7f7b"/>
      <stop offset=".77" stop-color="#2e7e7a"/>
      <stop offset=".77" stop-color="#2d7c79"/>
      <stop offset=".78" stop-color="#2d7b78"/>
      <stop offset=".78" stop-color="#2d7a77"/>
      <stop offset=".79" stop-color="#2d7975"/>
      <stop offset=".79" stop-color="#2d7874"/>
      <stop offset=".79" stop-color="#2c7673"/>
      <stop offset=".8" stop-color="#2c7572"/>
      <stop offset=".8" stop-color="#2b7471"/>
      <stop offset=".8" stop-color="#2b736f"/>
      <stop offset=".81" stop-color="#2a726e"/>
      <stop offset=".81" stop-color="#2a706d"/>
      <stop offset=".82" stop-color="#296f6c"/>
      <stop offset=".82" stop-color="#296e6a"/>
      <stop offset=".82" stop-color="#286d69"/>
      <stop offset=".83" stop-color="#286c68"/>
      <stop offset=".83" stop-color="#286b67"/>
      <stop offset=".84" stop-color="#286a66"/>
      <stop offset=".84" stop-color="#276865"/>
      <stop offset=".84" stop-color="#276763"/>
      <stop offset=".85" stop-color="#276662"/>
      <stop offset=".85" stop-color="#266561"/>
      <stop offset=".86" stop-color="#266460"/>
      <stop offset=".86" stop-color="#26635f"/>
      <stop offset=".86" stop-color="#25615e"/>
      <stop offset=".87" stop-color="#25605d"/>
      <stop offset=".87" stop-color="#245f5c"/>
      <stop offset=".88" stop-color="#245e5a"/>
      <stop offset=".88" stop-color="#245d59"/>
      <stop offset=".88" stop-color="#235c58"/>
      <stop offset=".89" stop-color="#235b57"/>
      <stop offset=".89" stop-color="#225955"/>
      <stop offset=".89" stop-color="#225954"/>
      <stop offset=".9" stop-color="#225854"/>
      <stop offset=".9" stop-color="#225652"/>
      <stop offset=".91" stop-color="#225551"/>
      <stop offset=".91" stop-color="#215450"/>
      <stop offset=".91" stop-color="#21534f"/>
      <stop offset=".92" stop-color="#21524e"/>
      <stop offset=".92" stop-color="#20514c"/>
      <stop offset=".93" stop-color="#204f4b"/>
      <stop offset=".93" stop-color="#1f4e4a"/>
      <stop offset=".93" stop-color="#1f4d49"/>
      <stop offset=".94" stop-color="#1f4c48"/>
      <stop offset=".94" stop-color="#1f4b47"/>
      <stop offset=".95" stop-color="#1e4a46"/>
      <stop offset=".95" stop-color="#1e4945"/>
      <stop offset=".95" stop-color="#1e4843"/>
      <stop offset=".96" stop-color="#1e4742"/>
      <stop offset=".96" stop-color="#1e4641"/>
      <stop offset=".96" stop-color="#1d4540"/>
      <stop offset=".97" stop-color="#1d443f"/>
      <stop offset=".97" stop-color="#1d423e"/>
      <stop offset=".98" stop-color="#1c413c"/>
      <stop offset=".98" stop-color="#1c403b"/>
      <stop offset=".98" stop-color="#1c3f3a"/>
      <stop offset=".99" stop-color="#1c3e39"/>
      <stop offset=".99" stop-color="#1b3d38"/>
      <stop offset="1" stop-color="#1b3c37"/>
      <stop offset="1" stop-color="#1b3b36"/>
    </linearGradient>
    <clipPath id="clippath-12">
      <rect class="cls-8" x="24.28" y="77.47" width="15.61" height="10.98"/>
    </clipPath>
    <clipPath id="clippath-13">
      <path class="cls-8" d="M25.8,77.87c.58.45,1.34.88,1.88,1.5.93,1.09,2.15,1.61,3.43,2.05,1.49.51,2.91.64,4.38-.27,1.04-.64,2.26-.59,3.4,0,.59.3,1.02,1.24.63,1.68-1.1,1.26-2.22,2.52-3.42,3.68-.31.31-.93.34-1.42.43-.5.09-1.14-.08-1.49.17-1.9,1.39-3.36.91-4.79-.77-.37-.43-1.25-.42-1.87-.67-.3-.12-.7-.3-.79-.56-.81-2.2-1.76-4.41-.94-6.83.06-.19.54-.24,1-.42Z"/>
    </clipPath>
    <clipPath id="clippath-14">
      <path class="cls-8" d="M25.8,77.87c.58.45,1.34.88,1.88,1.5.93,1.09,2.15,1.61,3.43,2.05,1.49.51,2.91.64,4.38-.27,1.04-.64,2.26-.59,3.4,0,.59.3,1.02,1.24.63,1.68-1.1,1.26-2.22,2.52-3.42,3.68-.31.31-.93.34-1.42.43-.5.09-1.14-.08-1.49.17-1.9,1.39-3.36.91-4.79-.77-.37-.43-1.25-.42-1.87-.67-.3-.12-.7-.3-.79-.56-.81-2.2-1.76-4.41-.94-6.83.06-.19.54-.24,1-.42Z"/>
    </clipPath>
    <linearGradient id="linear-gradient-5" x1="-2219.87" y1="803.93" x2="-2219.25" y2="803.93" gradientTransform="translate(-13962.01 38719.06) rotate(90) scale(17.41 -17.41)" gradientUnits="userSpaceOnUse">
      <stop offset="0" stop-color="#60c9b6"/>
      <stop offset="0" stop-color="#60c9b6"/>
      <stop offset=".01" stop-color="#60c9b6"/>
      <stop offset=".02" stop-color="#60c9b6"/>
      <stop offset=".02" stop-color="#60c9b6"/>
      <stop offset=".03" stop-color="#60c9b7"/>
      <stop offset=".04" stop-color="#60c9b7"/>
      <stop offset=".05" stop-color="#60c9b8"/>
      <stop offset=".05" stop-color="#60c9b8"/>
      <stop offset=".05" stop-color="#60c9b9"/>
      <stop offset=".06" stop-color="#60c9b9"/>
      <stop offset=".07" stop-color="#61c9b9"/>
      <stop offset=".08" stop-color="#61c9b9"/>
      <stop offset=".08" stop-color="#61c9ba"/>
      <stop offset=".09" stop-color="#61c9ba"/>
      <stop offset=".09" stop-color="#61c9ba"/>
      <stop offset=".1" stop-color="#61c9ba"/>
      <stop offset=".11" stop-color="#61c9bb"/>
      <stop offset=".11" stop-color="#61c9bb"/>
      <stop offset=".12" stop-color="#61c9bc"/>
      <stop offset=".12" stop-color="#61c9bc"/>
      <stop offset=".14" stop-color="#61c9bc"/>
      <stop offset=".15" stop-color="#61c9bc"/>
      <stop offset=".16" stop-color="#61cabd"/>
      <stop offset=".16" stop-color="#61cabd"/>
      <stop offset=".17" stop-color="#61cabe"/>
      <stop offset=".18" stop-color="#61cabe"/>
      <stop offset=".19" stop-color="#61cabf"/>
      <stop offset=".2" stop-color="#61cabf"/>
      <stop offset=".21" stop-color="#61cac0"/>
      <stop offset=".22" stop-color="#61cac0"/>
      <stop offset=".23" stop-color="#61cac0"/>
      <stop offset=".23" stop-color="#61cac1"/>
      <stop offset=".24" stop-color="#61cac1"/>
      <stop offset=".25" stop-color="#62cac1"/>
      <stop offset=".25" stop-color="#62cac2"/>
      <stop offset=".26" stop-color="#62cac2"/>
      <stop offset=".27" stop-color="#62cac2"/>
      <stop offset=".28" stop-color="#62cac3"/>
      <stop offset=".3" stop-color="#62cac3"/>
      <stop offset=".31" stop-color="#62cac4"/>
      <stop offset=".32" stop-color="#62cac4"/>
      <stop offset=".32" stop-color="#62cac5"/>
      <stop offset=".33" stop-color="#62cac5"/>
      <stop offset=".34" stop-color="#62cac5"/>
      <stop offset=".34" stop-color="#62cac6"/>
      <stop offset=".36" stop-color="#62cac6"/>
      <stop offset=".38" stop-color="#62cac7"/>
      <stop offset=".38" stop-color="#62cac7"/>
      <stop offset=".39" stop-color="#63cac7"/>
      <stop offset=".4" stop-color="#63cbc8"/>
      <stop offset=".4" stop-color="#62cbc8"/>
      <stop offset=".41" stop-color="#62cac8"/>
      <stop offset=".41" stop-color="#61cac7"/>
      <stop offset=".41" stop-color="#60cac6"/>
      <stop offset=".42" stop-color="#5fc9c6"/>
      <stop offset=".42" stop-color="#5ec9c5"/>
      <stop offset=".43" stop-color="#5dc9c5"/>
      <stop offset=".43" stop-color="#5dc8c4"/>
      <stop offset=".43" stop-color="#5cc8c4"/>
      <stop offset=".44" stop-color="#5bc8c3"/>
      <stop offset=".44" stop-color="#5ac8c3"/>
      <stop offset=".45" stop-color="#59c7c2"/>
      <stop offset=".45" stop-color="#58c7c1"/>
      <stop offset=".45" stop-color="#57c7c1"/>
      <stop offset=".46" stop-color="#56c6c0"/>
      <stop offset=".46" stop-color="#54c6bf"/>
      <stop offset=".46" stop-color="#53c5bf"/>
      <stop offset=".47" stop-color="#52c5be"/>
      <stop offset=".47" stop-color="#52c5bd"/>
      <stop offset=".48" stop-color="#51c4bd"/>
      <stop offset=".48" stop-color="#50c4bc"/>
      <stop offset=".48" stop-color="#4fc4bb"/>
      <stop offset=".49" stop-color="#4ec3bb"/>
      <stop offset=".49" stop-color="#4dc3ba"/>
      <stop offset=".5" stop-color="#4cc3b9"/>
      <stop offset=".5" stop-color="#4bc2b9"/>
      <stop offset=".5" stop-color="#4ac2b8"/>
      <stop offset=".51" stop-color="#49c1b7"/>
      <stop offset=".51" stop-color="#48c0b6"/>
      <stop offset=".52" stop-color="#47bfb5"/>
      <stop offset=".52" stop-color="#47beb4"/>
      <stop offset=".52" stop-color="#47bdb2"/>
      <stop offset=".53" stop-color="#46bcb1"/>
      <stop offset=".53" stop-color="#45bbb0"/>
      <stop offset=".54" stop-color="#44b9b0"/>
      <stop offset=".54" stop-color="#44b8af"/>
      <stop offset=".54" stop-color="#43b7ae"/>
      <stop offset=".55" stop-color="#43b6ad"/>
      <stop offset=".55" stop-color="#43b5ab"/>
      <stop offset=".55" stop-color="#42b3aa"/>
      <stop offset=".56" stop-color="#42b2a9"/>
      <stop offset=".56" stop-color="#41b1a8"/>
      <stop offset=".57" stop-color="#41afa8"/>
      <stop offset=".57" stop-color="#40aea7"/>
      <stop offset=".57" stop-color="#40ada6"/>
      <stop offset=".58" stop-color="#3faca5"/>
      <stop offset=".58" stop-color="#3faaa4"/>
      <stop offset=".59" stop-color="#3fa9a3"/>
      <stop offset=".59" stop-color="#3ea8a2"/>
      <stop offset=".59" stop-color="#3da6a0"/>
      <stop offset=".6" stop-color="#3da59f"/>
      <stop offset=".6" stop-color="#3da59e"/>
      <stop offset=".61" stop-color="#3da49d"/>
      <stop offset=".61" stop-color="#3ca39c"/>
      <stop offset=".61" stop-color="#3ca19b"/>
      <stop offset=".62" stop-color="#3ba09a"/>
      <stop offset=".62" stop-color="#3a9e99"/>
      <stop offset=".62" stop-color="#3a9d98"/>
      <stop offset=".63" stop-color="#399c97"/>
      <stop offset=".63" stop-color="#399b96"/>
      <stop offset=".64" stop-color="#389a95"/>
      <stop offset=".64" stop-color="#389994"/>
      <stop offset=".64" stop-color="#379792"/>
      <stop offset=".65" stop-color="#379691"/>
      <stop offset=".65" stop-color="#369590"/>
      <stop offset=".66" stop-color="#36948f"/>
      <stop offset=".66" stop-color="#36938e"/>
      <stop offset=".66" stop-color="#35928d"/>
      <stop offset=".67" stop-color="#35918c"/>
      <stop offset=".67" stop-color="#358f8b"/>
      <stop offset=".68" stop-color="#348e89"/>
      <stop offset=".68" stop-color="#348d88"/>
      <stop offset=".68" stop-color="#338b87"/>
      <stop offset=".69" stop-color="#338a86"/>
      <stop offset=".69" stop-color="#338984"/>
      <stop offset=".7" stop-color="#328783"/>
      <stop offset=".7" stop-color="#328682"/>
      <stop offset=".7" stop-color="#318581"/>
      <stop offset=".71" stop-color="#318480"/>
      <stop offset=".71" stop-color="#30837f"/>
      <stop offset=".71" stop-color="#2f817e"/>
      <stop offset=".72" stop-color="#2f807d"/>
      <stop offset=".72" stop-color="#2e7f7b"/>
      <stop offset=".73" stop-color="#2e7e7a"/>
      <stop offset=".73" stop-color="#2e7c79"/>
      <stop offset=".73" stop-color="#2d7b78"/>
      <stop offset=".74" stop-color="#2d7a76"/>
      <stop offset=".74" stop-color="#2d7975"/>
      <stop offset=".75" stop-color="#2c7774"/>
      <stop offset=".75" stop-color="#2c7673"/>
      <stop offset=".75" stop-color="#2c7571"/>
      <stop offset=".76" stop-color="#2b7470"/>
      <stop offset=".76" stop-color="#2b726f"/>
      <stop offset=".77" stop-color="#2a716e"/>
      <stop offset=".77" stop-color="#2a706c"/>
      <stop offset=".77" stop-color="#296e6b"/>
      <stop offset=".78" stop-color="#296d6a"/>
      <stop offset=".78" stop-color="#286c69"/>
      <stop offset=".79" stop-color="#286b67"/>
      <stop offset=".79" stop-color="#286a66"/>
      <stop offset=".79" stop-color="#276965"/>
      <stop offset=".8" stop-color="#276764"/>
      <stop offset=".8" stop-color="#276662"/>
      <stop offset=".8" stop-color="#266561"/>
      <stop offset=".81" stop-color="#266460"/>
      <stop offset=".81" stop-color="#26635f"/>
      <stop offset=".82" stop-color="#25615e"/>
      <stop offset=".82" stop-color="#25605d"/>
      <stop offset=".82" stop-color="#245f5b"/>
      <stop offset=".83" stop-color="#245e5a"/>
      <stop offset=".83" stop-color="#245d59"/>
      <stop offset=".84" stop-color="#235b57"/>
      <stop offset=".84" stop-color="#235a56"/>
      <stop offset=".84" stop-color="#225955"/>
      <stop offset=".85" stop-color="#225854"/>
      <stop offset=".85" stop-color="#225753"/>
      <stop offset=".86" stop-color="#225652"/>
      <stop offset=".86" stop-color="#215450"/>
      <stop offset=".86" stop-color="#21534f"/>
      <stop offset=".87" stop-color="#21524e"/>
      <stop offset=".87" stop-color="#20514d"/>
      <stop offset=".88" stop-color="#20504b"/>
      <stop offset=".88" stop-color="#204e4a"/>
      <stop offset=".88" stop-color="#1f4d49"/>
      <stop offset=".89" stop-color="#1f4c48"/>
      <stop offset=".89" stop-color="#1f4b47"/>
      <stop offset=".89" stop-color="#1e4a46"/>
      <stop offset=".9" stop-color="#1e4945"/>
      <stop offset=".9" stop-color="#1e4843"/>
      <stop offset=".91" stop-color="#1e4742"/>
      <stop offset=".91" stop-color="#1d4641"/>
      <stop offset=".91" stop-color="#1d4440"/>
      <stop offset=".92" stop-color="#1d433e"/>
      <stop offset=".92" stop-color="#1d423d"/>
      <stop offset=".93" stop-color="#1c413c"/>
      <stop offset=".93" stop-color="#1c403b"/>
      <stop offset=".93" stop-color="#1c3f3a"/>
      <stop offset=".94" stop-color="#1c3d38"/>
      <stop offset=".94" stop-color="#1b3c37"/>
      <stop offset=".95" stop-color="#1b3b36"/>
      <stop offset=".95" stop-color="#1b3b36"/>
      <stop offset=".97" stop-color="#1b3b36"/>
      <stop offset="1" stop-color="#1b3b36"/>
    </linearGradient>
  </defs>
  <g id="Elements">
    <g>
      <g class="cls-21">
        <g class="cls-11">
          <g class="cls-18">
            <path class="cls-20" d="M209.95.03H14.82v232.28h195.13V.03Z"/>
          </g>
        </g>
      </g>
      <g class="cls-15">
        <g class="cls-3">
          <g class="cls-13">
            <path class="cls-4" d="M189.07,41.42h-35.73v26.06h35.73v-26.06Z"/>
          </g>
        </g>
      </g>
      <g class="cls-1">
        <g class="cls-2">
          <g class="cls-14">
            <path class="cls-10" d="M227.2,61.67h-12.51v38.36h12.51v-38.36Z"/>
          </g>
        </g>
      </g>
      <g class="cls-5">
        <g class="cls-6">
          <g class="cls-7">
            <path class="cls-9" d="M12.18,55.63H.23v13.87h11.95v-13.87Z"/>
          </g>
        </g>
      </g>
      <g class="cls-16">
        <g class="cls-19">
          <g class="cls-17">
            <path class="cls-12" d="M39.91,77.87h-15.93v10.64h15.93v-10.64Z"/>
          </g>
        </g>
      </g>
    </g>
  </g>
</svg>